999
ANSI/AAMA
  0
SECTION
  2
BLOCKS
0
BLOCK
  8
1
  2
C2490335.后领内滚_面料A_M
 70
0
 10
0.0
 20
0.0
  0
POLYLINE
  8
1
  66
1
  70
1
  0
VERTEX
  8
1
  10
-2680.323792
  20
-3109.041138
  0
VERTEX
  8
1
  10
-2680.323792
  20
-3080.041199
  0
VERTEX
  8
1
  10
-2588.038663
  20
-3080.041199
  0
VERTEX
  8
1
  10
-2524.073839
  20
-3080.041199
  0
VERTEX
  8
1
  10
-2448.390269
  20
-3080.041199
  0
VERTEX
  8
1
  10
-2363.917638
  20
-3080.041199
  0
VERTEX
  8
1
  10
-2273.585634
  20
-3080.041199
  0
VERTEX
  8
1
  10
-2180.323944
  20
-3080.041199
  0
VERTEX
  8
1
  10
-2087.062254
  20
-3080.041199
  0
VERTEX
  8
1
  10
-1996.730250
  20
-3080.041199
  0
VERTEX
  8
1
  10
-1912.257620
  20
-3080.041199
  0
VERTEX
  8
1
  10
-1836.574049
  20
-3080.041199
  0
VERTEX
  8
1
  10
-1772.609225
  20
-3080.041199
  0
VERTEX
  8
1
  10
-1723.292834
  20
-3080.041199
  0
VERTEX
  8
1
  10
-1683.192748
  20
-3080.041199
  0
VERTEX
  8
1
  10
-1680.324097
  20
-3080.041199
  0
VERTEX
  8
1
  10
-1680.324097
  20
-3109.041138
  0
VERTEX
  8
1
  10
-1772.609225
  20
-3109.041138
  0
VERTEX
  8
1
  10
-1836.574049
  20
-3109.041138
  0
VERTEX
  8
1
  10
-1912.257620
  20
-3109.041138
  0
VERTEX
  8
1
  10
-1996.730250
  20
-3109.041138
  0
VERTEX
  8
1
  10
-2087.062254
  20
-3109.041138
  0
VERTEX
  8
1
  10
-2180.323944
  20
-3109.041138
  0
VERTEX
  8
1
  10
-2273.585634
  20
-3109.041138
  0
VERTEX
  8
1
  10
-2363.917638
  20
-3109.041138
  0
VERTEX
  8
1
  10
-2448.390269
  20
-3109.041138
  0
VERTEX
  8
1
  10
-2524.073839
  20
-3109.041138
  0
VERTEX
  8
1
  10
-2588.038663
  20
-3109.041138
  0
VERTEX
  8
1
  10
-2637.355055
  20
-3109.041138
  0
VERTEX
  8
1
  10
-2677.455140
  20
-3109.041138
  0
VERTEX
  8
1
  10
-2680.323792
  20
-3109.041138
  0
SEQEND
  8
1
  0
POINT
  8
2
 10
-2680.323792
 20
-3109.041138
  0
TEXT
  8
2
 10
-2680.323792
 20
-3109.041138
 40
0.000000
 50
0.000000
  1
# 1
  0
POINT
  8
2
 10
-2680.323792
 20
-3080.041199
  0
TEXT
  8
2
 10
-2680.323792
 20
-3080.041199
 40
0.000000
 50
0.000000
  1
# 2
  0
POINT
  8
2
 10
-1680.324097
 20
-3080.041199
  0
TEXT
  8
2
 10
-1680.324097
 20
-3080.041199
 40
0.000000
 50
0.000000
  1
# 3
  0
POINT
  8
2
 10
-1680.324097
 20
-3109.041138
  0
TEXT
  8
2
 10
-1680.324097
 20
-3109.041138
 40
0.000000
 50
0.000000
  1
# 4
  0
POINT
  8
2
 10
-2680.323792
 20
-3109.041138
  0
TEXT
  8
2
 10
-2680.323792
 20
-3109.041138
 40
0.000000
 50
0.000000
  1
# 5
  0
POINT
  8
3
 10
-2588.038663
 20
-3080.041199
  0
POINT
  8
3
 10
-2524.073839
 20
-3080.041199
  0
POINT
  8
3
 10
-2448.390269
 20
-3080.041199
  0
POINT
  8
3
 10
-2363.917638
 20
-3080.041199
  0
POINT
  8
3
 10
-2273.585634
 20
-3080.041199
  0
POINT
  8
3
 10
-2180.323944
 20
-3080.041199
  0
POINT
  8
3
 10
-2087.062254
 20
-3080.041199
  0
POINT
  8
3
 10
-1996.730250
 20
-3080.041199
  0
POINT
  8
3
 10
-1912.257620
 20
-3080.041199
  0
POINT
  8
3
 10
-1836.574049
 20
-3080.041199
  0
POINT
  8
3
 10
-1772.609225
 20
-3080.041199
  0
POINT
  8
3
 10
-1723.292834
 20
-3080.041199
  0
POINT
  8
3
 10
-1683.192748
 20
-3080.041199
  0
POINT
  8
3
 10
-1772.609225
 20
-3109.041138
  0
POINT
  8
3
 10
-1836.574049
 20
-3109.041138
  0
POINT
  8
3
 10
-1912.257620
 20
-3109.041138
  0
POINT
  8
3
 10
-1996.730250
 20
-3109.041138
  0
POINT
  8
3
 10
-2087.062254
 20
-3109.041138
  0
POINT
  8
3
 10
-2180.323944
 20
-3109.041138
  0
POINT
  8
3
 10
-2273.585634
 20
-3109.041138
  0
POINT
  8
3
 10
-2363.917638
 20
-3109.041138
  0
POINT
  8
3
 10
-2448.390269
 20
-3109.041138
  0
POINT
  8
3
 10
-2524.073839
 20
-3109.041138
  0
POINT
  8
3
 10
-2588.038663
 20
-3109.041138
  0
POINT
  8
3
 10
-2637.355055
 20
-3109.041138
  0
POINT
  8
3
 10
-2677.455140
 20
-3109.041138
 0
LINE
 8
7
 10
-2427.826538
 20
-3084.685974
 11
-2427.826538
 21
-3101.015625
  0
TEXT
  8
1
 10
-2180.323944
 20
-3094.541168
 40
10.000000
 50
0.000000
  1
PIECE NAME: C2490335.后领内滚
  0
TEXT
  8
1
 10
-2180.323944
 20
-3079.541168
 40
10.000000
 50
0.000000
  1
Size: M
  0
TEXT
  8
1
 10
-2180.323944
 20
-3064.541168
 40
10.000000
 50
0.000000
  1
ANNOTATION: 面料A X1
  0
TEXT
  8
1
 10
-2180.323944
 20
-3049.541168
 40
10.000000
 50
0.000000
  1
QUANTITY: 1
  0
TEXT
  8
1
 10
-2180.323944
 20
-3034.541168
 40
10.000000
 50
0.000000
  1
FABRIC: 面料A
  0
TEXT
  8
1
 10
-2180.323944
 20
-3019.541168
 40
10.000000
 50
0.000000
  1
CATEGORY: 后领内滚
0
ENDBLK
0
BLOCK
  8
1
  2
C2490335.袖片_面料A_M
 70
0
 10
0.0
 20
0.0
  0
POLYLINE
  8
1
  66
1
  70
1
  0
VERTEX
  8
1
  10
-2034.767584
  20
-3962.477112
  0
VERTEX
  8
1
  10
-2033.801930
  20
-3947.477112
  0
VERTEX
  8
1
  10
-2034.932021
  20
-3929.922826
  0
VERTEX
  8
1
  10
-2036.018654
  20
-3913.681624
  0
VERTEX
  8
1
  10
-2037.181401
  20
-3896.789916
  0
VERTEX
  8
1
  10
-2038.568303
  20
-3877.175268
  0
VERTEX
  8
1
  10
-2039.833885
  20
-3859.732044
  0
VERTEX
  8
1
  10
-2041.234788
  20
-3840.902067
  0
VERTEX
  8
1
  10
-2042.765333
  20
-3820.840184
  0
VERTEX
  8
1
  10
-2043.994710
  20
-3805.097295
  0
VERTEX
  8
1
  10
-2045.294516
  20
-3788.805198
  0
VERTEX
  8
1
  10
-2046.663534
  20
-3772.026939
  0
VERTEX
  8
1
  10
-2048.097068
  20
-3754.860693
  0
VERTEX
  8
1
  10
-2049.594571
  20
-3737.356724
  0
VERTEX
  8
1
  10
-2051.153897
  20
-3719.583458
  0
VERTEX
  8
1
  10
-2052.773632
  20
-3701.606879
  0
VERTEX
  8
1
  10
-2053.400804
  20
-3694.839507
  0
VERTEX
  8
1
  10
-2054.450339
  20
-3683.514721
  0
VERTEX
  8
1
  10
-2056.187552
  20
-3665.308545
  0
VERTEX
  8
1
  10
-2058.262116
  20
-3644.276490
  0
VERTEX
  8
1
  10
-2060.098313
  20
-3626.203192
  0
VERTEX
  8
1
  10
-2061.959229
  20
-3608.327419
  0
VERTEX
  8
1
  10
-2063.830148
  20
-3590.751898
  0
VERTEX
  8
1
  10
-2065.693521
  20
-3573.573588
  0
VERTEX
  8
1
  10
-2067.535849
  20
-3556.892616
  0
VERTEX
  8
1
  10
-2069.341093
  20
-3540.805456
  0
VERTEX
  8
1
  10
-2071.093203
  20
-3525.412832
  0
VERTEX
  8
1
  10
-2073.321378
  20
-3506.137465
  0
VERTEX
  8
1
  10
-2075.392125
  20
-3488.508023
  0
VERTEX
  8
1
  10
-2077.269074
  20
-3472.754308
  0
VERTEX
  8
1
  10
-2079.286973
  20
-3456.056539
  0
VERTEX
  8
1
  10
-2081.132733
  20
-3441.014957
  0
VERTEX
  8
1
  10
-2082.373727
  20
-3431.056646
  0
VERTEX
  8
1
  10
-2083.359588
  20
-3423.107985
  0
VERTEX
  8
1
  10
-2076.712696
  20
-3421.406689
  0
VERTEX
  8
1
  10
-2070.218195
  20
-3419.822948
  0
VERTEX
  8
1
  10
-2066.148473
  20
-3418.602195
  0
VERTEX
  8
1
  10
-2062.370156
  20
-3417.181823
  0
VERTEX
  8
1
  10
-2058.741506
  20
-3415.514501
  0
VERTEX
  8
1
  10
-2055.226520
  20
-3413.601110
  0
VERTEX
  8
1
  10
-2051.813864
  20
-3411.451116
  0
VERTEX
  8
1
  10
-2048.505229
  20
-3409.081376
  0
VERTEX
  8
1
  10
-2044.799206
  20
-3406.087310
  0
VERTEX
  8
1
  10
-2041.206462
  20
-3402.837080
  0
VERTEX
  8
1
  10
-2037.711777
  20
-3399.345937
  0
VERTEX
  8
1
  10
-2033.752355
  20
-3395.012253
  0
VERTEX
  8
1
  10
-2029.608896
  20
-3390.052500
  0
VERTEX
  8
1
  10
-2025.163924
  20
-3384.300100
  0
VERTEX
  8
1
  10
-2021.582424
  20
-3379.350061
  0
VERTEX
  8
1
  10
-2020.419793
  20
-3377.743173
  0
VERTEX
  8
1
  10
-2014.190526
  20
-3368.673170
  0
VERTEX
  8
1
  10
-2005.869040
  20
-3356.279705
  0
VERTEX
  8
1
  10
-2000.283758
  20
-3348.249772
  0
VERTEX
  8
1
  10
-1995.636977
  20
-3342.042642
  0
VERTEX
  8
1
  10
-1991.471846
  20
-3336.955077
  0
VERTEX
  8
1
  10
-1987.634039
  20
-3332.716565
  0
VERTEX
  8
1
  10
-1983.565325
  20
-3328.699030
  0
VERTEX
  8
1
  10
-1979.747835
  20
-3325.362939
  0
VERTEX
  8
1
  10
-1975.714146
  20
-3322.272183
  0
VERTEX
  8
1
  10
-1972.017341
  20
-3319.806609
  0
VERTEX
  8
1
  10
-1968.136779
  20
-3317.567490
  0
VERTEX
  8
1
  10
-1964.158884
  20
-3315.617063
  0
VERTEX
  8
1
  10
-1959.878720
  20
-3313.880534
  0
VERTEX
  8
1
  10
-1955.507291
  20
-3312.482329
  0
VERTEX
  8
1
  10
-1951.375525
  20
-3311.435756
  0
VERTEX
  8
1
  10
-1947.325310
  20
-3310.684787
  0
VERTEX
  8
1
  10
-1942.918081
  20
-3309.960129
  0
VERTEX
  8
1
  10
-1938.499764
  20
-3309.479222
  0
VERTEX
  8
1
  10
-1933.541576
  20
-3309.119979
  0
VERTEX
  8
1
  10
-1928.544535
  20
-3309.041042
  0
VERTEX
  8
1
  10
-1925.340560
  20
-3309.174753
  0
VERTEX
  8
1
  10
-1923.919858
  20
-3309.223104
  0
VERTEX
  8
1
  10
-1924.557953
  20
-3309.150082
  0
VERTEX
  8
1
  10
-1922.192554
  20
-3309.429281
  0
VERTEX
  8
1
  10
-1918.056198
  20
-3309.894124
  0
VERTEX
  8
1
  10
-1912.643192
  20
-3310.880662
  0
VERTEX
  8
1
  10
-1908.119975
  20
-3312.056960
  0
VERTEX
  8
1
  10
-1904.126394
  20
-3313.467311
  0
VERTEX
  8
1
  10
-1900.500305
  20
-3315.091930
  0
VERTEX
  8
1
  10
-1897.020686
  20
-3316.980953
  0
VERTEX
  8
1
  10
-1893.113837
  20
-3319.520573
  0
VERTEX
  8
1
  10
-1889.411657
  20
-3322.375135
  0
VERTEX
  8
1
  10
-1885.929128
  20
-3325.492441
  0
VERTEX
  8
1
  10
-1882.653708
  20
-3328.842451
  0
VERTEX
  8
1
  10
-1879.562239
  20
-3332.409165
  0
VERTEX
  8
1
  10
-1876.206664
  20
-3336.764068
  0
VERTEX
  8
1
  10
-1873.056514
  20
-3341.350367
  0
VERTEX
  8
1
  10
-1869.720900
  20
-3346.776650
  0
VERTEX
  8
1
  10
-1869.611798
  20
-3346.974057
  0
VERTEX
  8
1
  10
-1866.693733
  20
-3352.253917
  0
VERTEX
  8
1
  10
-1863.407780
  20
-3358.803282
  0
VERTEX
  8
1
  10
-1859.744187
  20
-3366.781809
  0
VERTEX
  8
1
  10
-1856.268629
  20
-3374.786076
  0
VERTEX
  8
1
  10
-1853.848993
  20
-3380.358537
  0
VERTEX
  8
1
  10
-1849.873390
  20
-3389.185718
  0
VERTEX
  8
1
  10
-1846.837038
  20
-3395.311404
  0
VERTEX
  8
1
  10
-1844.276993
  20
-3399.936844
  0
VERTEX
  8
1
  10
-1841.959035
  20
-3403.655927
  0
VERTEX
  8
1
  10
-1839.531068
  20
-3407.070901
  0
VERTEX
  8
1
  10
-1837.395455
  20
-3409.680644
  0
VERTEX
  8
1
  10
-1835.169627
  20
-3412.027161
  0
VERTEX
  8
1
  10
-1832.833980
  20
-3414.111470
  0
VERTEX
  8
1
  10
-1830.854801
  20
-3415.596694
  0
VERTEX
  8
1
  10
-1828.768232
  20
-3416.907057
  0
VERTEX
  8
1
  10
-1826.580676
  20
-3418.026898
  0
VERTEX
  8
1
  10
-1824.272600
  20
-3418.954506
  0
VERTEX
  8
1
  10
-1821.612993
  20
-3419.744221
  0
VERTEX
  8
1
  10
-1818.358279
  20
-3420.421006
  0
VERTEX
  8
1
  10
-1814.431869
  20
-3420.979587
  0
VERTEX
  8
1
  10
-1811.148704
  20
-3421.359378
  0
VERTEX
  8
1
  10
-1804.927139
  20
-3422.143527
  0
VERTEX
  8
1
  10
-1806.112130
  20
-3432.796076
  0
VERTEX
  8
1
  10
-1807.933112
  20
-3449.109174
  0
VERTEX
  8
1
  10
-1809.957581
  20
-3467.529552
  0
VERTEX
  8
1
  10
-1812.037603
  20
-3486.715239
  0
VERTEX
  8
1
  10
-1813.914393
  20
-3504.237907
  0
VERTEX
  8
1
  10
-1815.944669
  20
-3523.434780
  0
VERTEX
  8
1
  10
-1818.097735
  20
-3544.068785
  0
VERTEX
  8
1
  10
-1819.771541
  20
-3560.329280
  0
VERTEX
  8
1
  10
-1821.484340
  20
-3577.185970
  0
VERTEX
  8
1
  10
-1823.219354
  20
-3594.503861
  0
VERTEX
  8
1
  10
-1824.965001
  20
-3612.193423
  0
VERTEX
  8
1
  10
-1826.707173
  20
-3630.153795
  0
VERTEX
  8
1
  10
-1828.431037
  20
-3648.282343
  0
VERTEX
  8
1
  10
-1830.124786
  20
-3666.481398
  0
VERTEX
  8
1
  10
-1831.778208
  20
-3684.662832
  0
VERTEX
  8
1
  10
-1832.682742
  20
-3694.825170
  0
VERTEX
  8
1
  10
-1833.389230
  20
-3702.762493
  0
VERTEX
  8
1
  10
-1834.952498
  20
-3720.700260
  0
VERTEX
  8
1
  10
-1836.469832
  20
-3738.451420
  0
VERTEX
  8
1
  10
-1837.935636
  20
-3755.911571
  0
VERTEX
  8
1
  10
-1839.346060
  20
-3773.025848
  0
VERTEX
  8
1
  10
-1840.701117
  20
-3789.730976
  0
VERTEX
  8
1
  10
-1841.996519
  20
-3805.961787
  0
VERTEX
  8
1
  10
-1843.230057
  20
-3821.650922
  0
VERTEX
  8
1
  10
-1844.773740
  20
-3841.618234
  0
VERTEX
  8
1
  10
-1846.196087
  20
-3860.351164
  0
VERTEX
  8
1
  10
-1847.490472
  20
-3877.697659
  0
VERTEX
  8
1
  10
-1848.651284
  20
-3893.501677
  0
VERTEX
  8
1
  10
-1849.904388
  20
-3910.852755
  0
VERTEX
  8
1
  10
-1851.101114
  20
-3927.746094
  0
VERTEX
  8
1
  10
-1852.140117
  20
-3942.749352
  0
VERTEX
  8
1
  10
-1852.461030
  20
-3947.477112
  0
VERTEX
  8
1
  10
-1852.140117
  20
-3952.204872
  0
VERTEX
  8
1
  10
-1851.428746
  20
-3962.477112
  0
VERTEX
  8
1
  10
-1864.565668
  20
-3962.477112
  0
VERTEX
  8
1
  10
-1912.783263
  20
-3962.477112
  0
VERTEX
  8
1
  10
-1966.106132
  20
-3962.477112
  0
VERTEX
  8
1
  10
-2034.767584
  20
-3962.477112
  0
SEQEND
  8
1
  0
POINT
  8
2
 10
-2034.767584
 20
-3962.477112
  0
TEXT
  8
2
 10
-2034.767584
 20
-3962.477112
 40
0.000000
 50
0.000000
  1
# 6
  0
POINT
  8
2
 10
-2033.801930
 20
-3947.477112
  0
TEXT
  8
2
 10
-2033.801930
 20
-3947.477112
 40
0.000000
 50
0.000000
  1
# 7
  0
POINT
  8
2
 10
-2083.359588
 20
-3423.107985
  0
TEXT
  8
2
 10
-2083.359588
 20
-3423.107985
 40
0.000000
 50
0.000000
  1
# 8
  0
POINT
  8
2
 10
-1923.919858
 20
-3309.223104
  0
TEXT
  8
2
 10
-1923.919858
 20
-3309.223104
 40
0.000000
 50
0.000000
  1
# 9
  0
POINT
  8
2
 10
-1804.927139
 20
-3422.143527
  0
TEXT
  8
2
 10
-1804.927139
 20
-3422.143527
 40
0.000000
 50
0.000000
  1
# 10
  0
POINT
  8
2
 10
-1852.461030
 20
-3947.477112
  0
TEXT
  8
2
 10
-1852.461030
 20
-3947.477112
 40
0.000000
 50
0.000000
  1
# 11
  0
POINT
  8
2
 10
-1851.428746
 20
-3962.477112
  0
TEXT
  8
2
 10
-1851.428746
 20
-3962.477112
 40
0.000000
 50
0.000000
  1
# 12
  0
POINT
  8
2
 10
-2034.767584
 20
-3962.477112
  0
TEXT
  8
2
 10
-2034.767584
 20
-3962.477112
 40
0.000000
 50
0.000000
  1
# 13
  0
POINT
  8
3
 10
-2034.932021
 20
-3929.922826
  0
POINT
  8
3
 10
-2036.018654
 20
-3913.681624
  0
POINT
  8
3
 10
-2037.181401
 20
-3896.789916
  0
POINT
  8
3
 10
-2038.568303
 20
-3877.175268
  0
POINT
  8
3
 10
-2039.833885
 20
-3859.732044
  0
POINT
  8
3
 10
-2041.234788
 20
-3840.902067
  0
POINT
  8
3
 10
-2042.765333
 20
-3820.840184
  0
POINT
  8
3
 10
-2043.994710
 20
-3805.097295
  0
POINT
  8
3
 10
-2045.294516
 20
-3788.805198
  0
POINT
  8
3
 10
-2046.663534
 20
-3772.026939
  0
POINT
  8
3
 10
-2048.097068
 20
-3754.860693
  0
POINT
  8
3
 10
-2049.594571
 20
-3737.356724
  0
POINT
  8
3
 10
-2051.153897
 20
-3719.583458
  0
POINT
  8
3
 10
-2052.773632
 20
-3701.606879
  0
POINT
  8
3
 10
-2053.400804
 20
-3694.839507
  0
POINT
  8
3
 10
-2054.450339
 20
-3683.514721
  0
POINT
  8
3
 10
-2056.187552
 20
-3665.308545
  0
POINT
  8
3
 10
-2058.262116
 20
-3644.276490
  0
POINT
  8
3
 10
-2060.098313
 20
-3626.203192
  0
POINT
  8
3
 10
-2061.959229
 20
-3608.327419
  0
POINT
  8
3
 10
-2063.830148
 20
-3590.751898
  0
POINT
  8
3
 10
-2065.693521
 20
-3573.573588
  0
POINT
  8
3
 10
-2067.535849
 20
-3556.892616
  0
POINT
  8
3
 10
-2069.341093
 20
-3540.805456
  0
POINT
  8
3
 10
-2071.093203
 20
-3525.412832
  0
POINT
  8
3
 10
-2073.321378
 20
-3506.137465
  0
POINT
  8
3
 10
-2075.392125
 20
-3488.508023
  0
POINT
  8
3
 10
-2077.269074
 20
-3472.754308
  0
POINT
  8
3
 10
-2079.286973
 20
-3456.056539
  0
POINT
  8
3
 10
-2081.132733
 20
-3441.014957
  0
POINT
  8
3
 10
-2082.373727
 20
-3431.056646
  0
POINT
  8
3
 10
-2076.712696
 20
-3421.406689
  0
POINT
  8
3
 10
-2070.218195
 20
-3419.822948
  0
POINT
  8
3
 10
-2066.148473
 20
-3418.602195
  0
POINT
  8
3
 10
-2062.370156
 20
-3417.181823
  0
POINT
  8
3
 10
-2058.741506
 20
-3415.514501
  0
POINT
  8
3
 10
-2055.226520
 20
-3413.601110
  0
POINT
  8
3
 10
-2051.813864
 20
-3411.451116
  0
POINT
  8
3
 10
-2048.505229
 20
-3409.081376
  0
POINT
  8
3
 10
-2044.799206
 20
-3406.087310
  0
POINT
  8
3
 10
-2041.206462
 20
-3402.837080
  0
POINT
  8
3
 10
-2037.711777
 20
-3399.345937
  0
POINT
  8
3
 10
-2033.752355
 20
-3395.012253
  0
POINT
  8
3
 10
-2029.608896
 20
-3390.052500
  0
POINT
  8
3
 10
-2025.163924
 20
-3384.300100
  0
POINT
  8
3
 10
-2021.582424
 20
-3379.350061
  0
POINT
  8
3
 10
-2020.419793
 20
-3377.743173
  0
POINT
  8
3
 10
-2014.190526
 20
-3368.673170
  0
POINT
  8
3
 10
-2005.869040
 20
-3356.279705
  0
POINT
  8
3
 10
-2000.283758
 20
-3348.249772
  0
POINT
  8
3
 10
-1995.636977
 20
-3342.042642
  0
POINT
  8
3
 10
-1991.471846
 20
-3336.955077
  0
POINT
  8
3
 10
-1987.634039
 20
-3332.716565
  0
POINT
  8
3
 10
-1983.565325
 20
-3328.699030
  0
POINT
  8
3
 10
-1979.747835
 20
-3325.362939
  0
POINT
  8
3
 10
-1975.714146
 20
-3322.272183
  0
POINT
  8
3
 10
-1972.017341
 20
-3319.806609
  0
POINT
  8
3
 10
-1968.136779
 20
-3317.567490
  0
POINT
  8
3
 10
-1964.158884
 20
-3315.617063
  0
POINT
  8
3
 10
-1959.878720
 20
-3313.880534
  0
POINT
  8
3
 10
-1955.507291
 20
-3312.482329
  0
POINT
  8
3
 10
-1951.375525
 20
-3311.435756
  0
POINT
  8
3
 10
-1947.325310
 20
-3310.684787
  0
POINT
  8
3
 10
-1942.918081
 20
-3309.960129
  0
POINT
  8
3
 10
-1938.499764
 20
-3309.479222
  0
POINT
  8
3
 10
-1933.541576
 20
-3309.119979
  0
POINT
  8
3
 10
-1928.544535
 20
-3309.041042
  0
POINT
  8
3
 10
-1925.340560
 20
-3309.174753
  0
POINT
  8
3
 10
-1924.557953
 20
-3309.150082
  0
POINT
  8
3
 10
-1922.192554
 20
-3309.429281
  0
POINT
  8
3
 10
-1918.056198
 20
-3309.894124
  0
POINT
  8
3
 10
-1912.643192
 20
-3310.880662
  0
POINT
  8
3
 10
-1908.119975
 20
-3312.056960
  0
POINT
  8
3
 10
-1904.126394
 20
-3313.467311
  0
POINT
  8
3
 10
-1900.500305
 20
-3315.091930
  0
POINT
  8
3
 10
-1897.020686
 20
-3316.980953
  0
POINT
  8
3
 10
-1893.113837
 20
-3319.520573
  0
POINT
  8
3
 10
-1889.411657
 20
-3322.375135
  0
POINT
  8
3
 10
-1885.929128
 20
-3325.492441
  0
POINT
  8
3
 10
-1882.653708
 20
-3328.842451
  0
POINT
  8
3
 10
-1879.562239
 20
-3332.409165
  0
POINT
  8
3
 10
-1876.206664
 20
-3336.764068
  0
POINT
  8
3
 10
-1873.056514
 20
-3341.350367
  0
POINT
  8
3
 10
-1869.720900
 20
-3346.776650
  0
POINT
  8
3
 10
-1869.611798
 20
-3346.974057
  0
POINT
  8
3
 10
-1866.693733
 20
-3352.253917
  0
POINT
  8
3
 10
-1863.407780
 20
-3358.803282
  0
POINT
  8
3
 10
-1859.744187
 20
-3366.781809
  0
POINT
  8
3
 10
-1856.268629
 20
-3374.786076
  0
POINT
  8
3
 10
-1853.848993
 20
-3380.358537
  0
POINT
  8
3
 10
-1849.873390
 20
-3389.185718
  0
POINT
  8
3
 10
-1846.837038
 20
-3395.311404
  0
POINT
  8
3
 10
-1844.276993
 20
-3399.936844
  0
POINT
  8
3
 10
-1841.959035
 20
-3403.655927
  0
POINT
  8
3
 10
-1839.531068
 20
-3407.070901
  0
POINT
  8
3
 10
-1837.395455
 20
-3409.680644
  0
POINT
  8
3
 10
-1835.169627
 20
-3412.027161
  0
POINT
  8
3
 10
-1832.833980
 20
-3414.111470
  0
POINT
  8
3
 10
-1830.854801
 20
-3415.596694
  0
POINT
  8
3
 10
-1828.768232
 20
-3416.907057
  0
POINT
  8
3
 10
-1826.580676
 20
-3418.026898
  0
POINT
  8
3
 10
-1824.272600
 20
-3418.954506
  0
POINT
  8
3
 10
-1821.612993
 20
-3419.744221
  0
POINT
  8
3
 10
-1818.358279
 20
-3420.421006
  0
POINT
  8
3
 10
-1814.431869
 20
-3420.979587
  0
POINT
  8
3
 10
-1811.148704
 20
-3421.359378
  0
POINT
  8
3
 10
-1806.112130
 20
-3432.796076
  0
POINT
  8
3
 10
-1807.933112
 20
-3449.109174
  0
POINT
  8
3
 10
-1809.957581
 20
-3467.529552
  0
POINT
  8
3
 10
-1812.037603
 20
-3486.715239
  0
POINT
  8
3
 10
-1813.914393
 20
-3504.237907
  0
POINT
  8
3
 10
-1815.944669
 20
-3523.434780
  0
POINT
  8
3
 10
-1818.097735
 20
-3544.068785
  0
POINT
  8
3
 10
-1819.771541
 20
-3560.329280
  0
POINT
  8
3
 10
-1821.484340
 20
-3577.185970
  0
POINT
  8
3
 10
-1823.219354
 20
-3594.503861
  0
POINT
  8
3
 10
-1824.965001
 20
-3612.193423
  0
POINT
  8
3
 10
-1826.707173
 20
-3630.153795
  0
POINT
  8
3
 10
-1828.431037
 20
-3648.282343
  0
POINT
  8
3
 10
-1830.124786
 20
-3666.481398
  0
POINT
  8
3
 10
-1831.778208
 20
-3684.662832
  0
POINT
  8
3
 10
-1832.682742
 20
-3694.825170
  0
POINT
  8
3
 10
-1833.389230
 20
-3702.762493
  0
POINT
  8
3
 10
-1834.952498
 20
-3720.700260
  0
POINT
  8
3
 10
-1836.469832
 20
-3738.451420
  0
POINT
  8
3
 10
-1837.935636
 20
-3755.911571
  0
POINT
  8
3
 10
-1839.346060
 20
-3773.025848
  0
POINT
  8
3
 10
-1840.701117
 20
-3789.730976
  0
POINT
  8
3
 10
-1841.996519
 20
-3805.961787
  0
POINT
  8
3
 10
-1843.230057
 20
-3821.650922
  0
POINT
  8
3
 10
-1844.773740
 20
-3841.618234
  0
POINT
  8
3
 10
-1846.196087
 20
-3860.351164
  0
POINT
  8
3
 10
-1847.490472
 20
-3877.697659
  0
POINT
  8
3
 10
-1848.651284
 20
-3893.501677
  0
POINT
  8
3
 10
-1849.904388
 20
-3910.852755
  0
POINT
  8
3
 10
-1851.101114
 20
-3927.746094
  0
POINT
  8
3
 10
-1852.140117
 20
-3942.749352
  0
POINT
  8
3
 10
-1852.140117
 20
-3952.204872
  0
POINT
  8
3
 10
-1864.565668
 20
-3962.477112
  0
POINT
  8
3
 10
-1912.783263
 20
-3962.477112
  0
POINT
  8
3
 10
-1966.106132
 20
-3962.477112
  0
POINT
  8
4
 10
-2053.400804
 20
-3694.839507
 30
0.600000
 50
  5.29
  0
TEXT
  8
4
 10
-2053.400804
 20
-3694.839507
 40
0.000000
 50
0.000000
  1
# 14
  0
POINT
  8
4
 10
-2021.582424
 20
-3379.350061
 30
0.600000
 50
324.11
  0
TEXT
  8
4
 10
-2021.582424
 20
-3379.350061
 40
0.000000
 50
0.000000
  1
# 15
  0
POINT
  8
4
 10
-1924.557953
 20
-3309.150082
 30
0.600000
 50
270.00
  0
TEXT
  8
4
 10
-1924.557953
 20
-3309.150082
 40
0.000000
 50
0.000000
  1
# 16
  0
POINT
  8
4
 10
-1869.611798
 20
-3346.974057
 30
0.600000
 50
208.93
  0
TEXT
  8
4
 10
-1869.611798
 20
-3346.974057
 40
0.000000
 50
0.000000
  1
# 17
  0
POINT
  8
4
 10
-1856.268629
 20
-3374.786076
 30
0.600000
 50
203.47
  0
TEXT
  8
4
 10
-1856.268629
 20
-3374.786076
 40
0.000000
 50
0.000000
  1
# 18
  0
POINT
  8
4
 10
-1832.682742
 20
-3694.825170
 30
0.600000
 50
174.91
  0
TEXT
  8
4
 10
-1832.682742
 20
-3694.825170
 40
0.000000
 50
0.000000
  1
# 19
  0
POLYLINE
  8
8
  66
1
  70
1
  0
VERTEX
  8
8
  10
-2025.785370
  20
-3947.477112
  0
VERTEX
  8
8
  10
-2026.948547
  20
-3929.408875
  0
VERTEX
  8
8
  10
-2028.036499
  20
-3913.147583
  0
VERTEX
  8
8
  10
-2029.200287
  20
-3896.240540
  0
VERTEX
  8
8
  10
-2030.588226
  20
-3876.611023
  0
VERTEX
  8
8
  10
-2031.854858
  20
-3859.153137
  0
VERTEX
  8
8
  10
-2033.256836
  20
-3840.308533
  0
VERTEX
  8
8
  10
-2034.788513
  20
-3820.231628
  0
VERTEX
  8
8
  10
-2036.020050
  20
-3804.461060
  0
VERTEX
  8
8
  10
-2037.321014
  20
-3788.154602
  0
VERTEX
  8
8
  10
-2038.690033
  20
-3771.376343
  0
VERTEX
  8
8
  10
-2040.124817
  20
-3754.194946
  0
VERTEX
  8
8
  10
-2041.623688
  20
-3736.674805
  0
VERTEX
  8
8
  10
-2043.184509
  20
-3718.884277
  0
VERTEX
  8
8
  10
-2044.805908
  20
-3700.888977
  0
VERTEX
  8
8
  10
-2045.434875
  20
-3694.101257
  0
VERTEX
  8
8
  10
-2046.486511
  20
-3682.754822
  0
VERTEX
  8
8
  10
-2048.223724
  20
-3664.548645
  0
VERTEX
  8
8
  10
-2050.300751
  20
-3643.491211
  0
VERTEX
  8
8
  10
-2052.139282
  20
-3625.394592
  0
VERTEX
  8
8
  10
-2054.002228
  20
-3607.499084
  0
VERTEX
  8
8
  10
-2055.875092
  20
-3589.905090
  0
VERTEX
  8
8
  10
-2057.740173
  20
-3572.710876
  0
VERTEX
  8
8
  10
-2059.584198
  20
-3556.014404
  0
VERTEX
  8
8
  10
-2061.390991
  20
-3539.913330
  0
VERTEX
  8
8
  10
-2063.144531
  20
-3524.508057
  0
VERTEX
  8
8
  10
-2065.374298
  20
-3505.218811
  0
VERTEX
  8
8
  10
-2067.446747
  20
-3487.574768
  0
VERTEX
  8
8
  10
-2069.325256
  20
-3471.807861
  0
VERTEX
  8
8
  10
-2071.344757
  20
-3455.096741
  0
VERTEX
  8
8
  10
-2073.192291
  20
-3440.040588
  0
VERTEX
  8
8
  10
-2074.560852
  20
-3429.077454
  0
VERTEX
  8
8
  10
-2068.142548
  20
-3427.552490
  0
VERTEX
  8
8
  10
-2063.588715
  20
-3426.186523
  0
VERTEX
  8
8
  10
-2059.288635
  20
-3424.570007
  0
VERTEX
  8
8
  10
-2055.154877
  20
-3422.670593
  0
VERTEX
  8
8
  10
-2051.177826
  20
-3420.505676
  0
VERTEX
  8
8
  10
-2047.348633
  20
-3418.093262
  0
VERTEX
  8
8
  10
-2043.658295
  20
-3415.450134
  0
VERTEX
  8
8
  10
-2039.597931
  20
-3412.169800
  0
VERTEX
  8
8
  10
-2035.692596
  20
-3408.636780
  0
VERTEX
  8
8
  10
-2031.928711
  20
-3404.876709
  0
VERTEX
  8
8
  10
-2027.846222
  20
-3400.408325
  0
VERTEX
  8
8
  10
-2023.475342
  20
-3395.188599
  0
VERTEX
  8
8
  10
-2018.837585
  20
-3389.196777
  0
VERTEX
  8
8
  10
-2015.101776
  20
-3384.039001
  0
VERTEX
  8
8
  10
-2013.940735
  20
-3382.435913
  0
VERTEX
  8
8
  10
-2007.597046
  20
-3373.203735
  0
VERTEX
  8
8
  10
-1999.227448
  20
-3360.739441
  0
VERTEX
  8
8
  10
-1993.716736
  20
-3352.818604
  0
VERTEX
  8
8
  10
-1989.235840
  20
-3346.841125
  0
VERTEX
  8
8
  10
-1985.411072
  20
-3342.180481
  0
VERTEX
  8
8
  10
-1981.853943
  20
-3338.251953
  0
VERTEX
  8
8
  10
-1978.117676
  20
-3334.562683
  0
VERTEX
  8
8
  10
-1974.677582
  20
-3331.556396
  0
VERTEX
  8
8
  10
-1971.056824
  20
-3328.782043
  0
VERTEX
  8
8
  10
-1967.794342
  20
-3326.606140
  0
VERTEX
  8
8
  10
-1964.372406
  20
-3324.631653
  0
VERTEX
  8
8
  10
-1960.890045
  20
-3322.924194
  0
VERTEX
  8
8
  10
-1957.152405
  20
-3321.407776
  0
VERTEX
  8
8
  10
-1953.304443
  20
-3320.177002
  0
VERTEX
  8
8
  10
-1949.662323
  20
-3319.254456
  0
VERTEX
  8
8
  10
-1945.866852
  20
-3318.550720
  0
VERTEX
  8
8
  10
-1941.837006
  20
-3317.889709
  0
VERTEX
  8
8
  10
-1937.634125
  20
-3317.432251
  0
VERTEX
  8
8
  10
-1933.193512
  20
-3317.115479
  0
VERTEX
  8
8
  10
-1928.653564
  20
-3317.043762
  0
VERTEX
  8
8
  10
-1924.557953
  20
-3317.220154
  0
VERTEX
  8
8
  10
-1924.557953
  20
-3317.220154
  0
VERTEX
  8
8
  10
-1919.217072
  20
-3317.814331
  0
VERTEX
  8
8
  10
-1914.369507
  20
-3318.697815
  0
VERTEX
  8
8
  10
-1910.462952
  20
-3319.713745
  0
VERTEX
  8
8
  10
-1907.098846
  20
-3320.901794
  0
VERTEX
  8
8
  10
-1904.049377
  20
-3322.268066
  0
VERTEX
  8
8
  10
-1901.115570
  20
-3323.860779
  0
VERTEX
  8
8
  10
-1897.743835
  20
-3326.052551
  0
VERTEX
  8
8
  10
-1894.528809
  20
-3328.531494
  0
VERTEX
  8
8
  10
-1891.463165
  20
-3331.275635
  0
VERTEX
  8
8
  10
-1888.541718
  20
-3334.263611
  0
VERTEX
  8
8
  10
-1885.758514
  20
-3337.474670
  0
VERTEX
  8
8
  10
-1882.677155
  20
-3341.473694
  0
VERTEX
  8
8
  10
-1879.765625
  20
-3345.712585
  0
VERTEX
  8
8
  10
-1876.633148
  20
-3350.808411
  0
VERTEX
  8
8
  10
-1876.613617
  20
-3350.843811
  0
VERTEX
  8
8
  10
-1873.695526
  20
-3356.123657
  0
VERTEX
  8
8
  10
-1870.561523
  20
-3362.384338
  0
VERTEX
  8
8
  10
-1867.016144
  20
-3370.116272
  0
VERTEX
  8
8
  10
-1863.606110
  20
-3377.972107
  0
VERTEX
  8
8
  10
-1861.187439
  20
-3383.544006
  0
VERTEX
  8
8
  10
-1857.167969
  20
-3392.470398
  0
VERTEX
  8
8
  10
-1853.925781
  20
-3399.024048
  0
VERTEX
  8
8
  10
-1851.175995
  20
-3403.992310
  0
VERTEX
  8
8
  10
-1848.619843
  20
-3408.093567
  0
VERTEX
  8
8
  10
-1845.894012
  20
-3411.927490
  0
VERTEX
  8
8
  10
-1843.401184
  20
-3414.973755
  0
VERTEX
  8
8
  10
-1840.744629
  20
-3417.774353
  0
VERTEX
  8
8
  10
-1837.907257
  20
-3420.306396
  0
VERTEX
  8
8
  10
-1835.390778
  20
-3422.194824
  0
VERTEX
  8
8
  10
-1832.725830
  20
-3423.868408
  0
VERTEX
  8
8
  10
-1829.901886
  20
-3425.314026
  0
VERTEX
  8
8
  10
-1826.908569
  20
-3426.517029
  0
VERTEX
  8
8
  10
-1823.569336
  20
-3427.508545
  0
VERTEX
  8
8
  10
-1819.737396
  20
-3428.305359
  0
VERTEX
  8
8
  10
-1815.558624
  20
-3428.899841
  0
VERTEX
  8
8
  10
-1813.744659
  20
-3429.077454
  0
VERTEX
  8
8
  10
-1815.883636
  20
-3448.220825
  0
VERTEX
  8
8
  10
-1817.909698
  20
-3466.655579
  0
VERTEX
  8
8
  10
-1819.990997
  20
-3485.852966
  0
VERTEX
  8
8
  10
-1821.868896
  20
-3503.385925
  0
VERTEX
  8
8
  10
-1823.900299
  20
-3522.593384
  0
VERTEX
  8
8
  10
-1826.054535
  20
-3543.238525
  0
VERTEX
  8
8
  10
-1827.730560
  20
-3559.520569
  0
VERTEX
  8
8
  10
-1829.443359
  20
-3576.377258
  0
VERTEX
  8
8
  10
-1831.179504
  20
-3593.706360
  0
VERTEX
  8
8
  10
-1832.926331
  20
-3611.407776
  0
VERTEX
  8
8
  10
-1834.669800
  20
-3629.381409
  0
VERTEX
  8
8
  10
-1836.395111
  20
-3647.525024
  0
VERTEX
  8
8
  10
-1838.090363
  20
-3665.740051
  0
VERTEX
  8
8
  10
-1839.745331
  20
-3683.938293
  0
VERTEX
  8
8
  10
-1840.651245
  20
-3694.115906
  0
VERTEX
  8
8
  10
-1841.357727
  20
-3702.053223
  0
VERTEX
  8
8
  10
-1842.923431
  20
-3720.018921
  0
VERTEX
  8
8
  10
-1844.440765
  20
-3737.770081
  0
VERTEX
  8
8
  10
-1845.907593
  20
-3755.242310
  0
VERTEX
  8
8
  10
-1847.319031
  20
-3772.368774
  0
VERTEX
  8
8
  10
-1848.674927
  20
-3789.084167
  0
VERTEX
  8
8
  10
-1849.971161
  20
-3805.325317
  0
VERTEX
  8
8
  10
-1851.205444
  20
-3821.023865
  0
VERTEX
  8
8
  10
-1852.749939
  20
-3841.001587
  0
VERTEX
  8
8
  10
-1854.173126
  20
-3859.745483
  0
VERTEX
  8
8
  10
-1855.468292
  20
-3877.102356
  0
VERTEX
  8
8
  10
-1856.629791
  20
-3892.915649
  0
VERTEX
  8
8
  10
-1857.883606
  20
-3910.276489
  0
VERTEX
  8
8
  10
-1859.081116
  20
-3927.180786
  0
VERTEX
  8
8
  10
-1860.121002
  20
-3942.196655
  0
VERTEX
  8
8
  10
-1860.479431
  20
-3947.477112
  0
VERTEX
  8
8
  10
-1864.565668
  20
-3947.477112
  0
VERTEX
  8
8
  10
-1912.783263
  20
-3947.477112
  0
VERTEX
  8
8
  10
-1966.106132
  20
-3947.477112
  0
VERTEX
  8
8
  10
-2025.785370
  20
-3947.477112
  0
SEQEND
  8
8
  0
POINT
  8
2
 10
-2025.785370
 20
-3947.477112
  0
TEXT
  8
2
 10
-2025.785370
 20
-3947.477112
 40
0.000000
 50
0.000000
  1
# 20
  0
POINT
  8
2
 10
-2074.560852
 20
-3429.077454
  0
TEXT
  8
2
 10
-2074.560852
 20
-3429.077454
 40
0.000000
 50
0.000000
  1
# 21
  0
POINT
  8
2
 10
-1924.557953
 20
-3317.220154
  0
TEXT
  8
2
 10
-1924.557953
 20
-3317.220154
 40
0.000000
 50
0.000000
  1
# 22
  0
POINT
  8
2
 10
-1813.744659
 20
-3429.077454
  0
TEXT
  8
2
 10
-1813.744659
 20
-3429.077454
 40
0.000000
 50
0.000000
  1
# 23
  0
POINT
  8
2
 10
-1860.479431
 20
-3947.477112
  0
TEXT
  8
2
 10
-1860.479431
 20
-3947.477112
 40
0.000000
 50
0.000000
  1
# 24
  0
POINT
  8
2
 10
-2025.785370
 20
-3947.477112
  0
TEXT
  8
2
 10
-2025.785370
 20
-3947.477112
 40
0.000000
 50
0.000000
  1
# 25
  0
POINT
  8
3
 10
-1864.565668
 20
-3947.477112
  0
POINT
  8
3
 10
-1912.783263
 20
-3947.477112
  0
POINT
  8
3
 10
-1966.106132
 20
-3947.477112
  0
POINT
  8
4
 10
-2045.434875
 20
-3694.101257
 30
0.600000
 50
  5.29
  0
TEXT
  8
4
 10
-2045.434875
 20
-3694.101257
 40
0.000000
 50
0.000000
  1
# 26
  0
POINT
  8
4
 10
-2015.101776
 20
-3384.039001
 30
0.600000
 50
324.08
  0
TEXT
  8
4
 10
-2015.101776
 20
-3384.039001
 40
0.000000
 50
0.000000
  1
# 27
  0
POINT
  8
4
 10
-1924.557953
 20
-3317.220154
 30
0.600000
 50
270.00
  0
TEXT
  8
4
 10
-1924.557953
 20
-3317.220154
 40
0.000000
 50
0.000000
  1
# 28
  0
POINT
  8
4
 10
-1876.613617
 20
-3350.843811
 30
0.600000
 50
208.93
  0
TEXT
  8
4
 10
-1876.613617
 20
-3350.843811
 40
0.000000
 50
0.000000
  1
# 29
  0
POINT
  8
4
 10
-1863.606110
 20
-3377.972107
 30
0.600000
 50
203.46
  0
TEXT
  8
4
 10
-1863.606110
 20
-3377.972107
 40
0.000000
 50
0.000000
  1
# 30
  0
POINT
  8
4
 10
-1840.651245
 20
-3694.115906
 30
0.600000
 50
174.91
  0
TEXT
  8
4
 10
-1840.651245
 20
-3694.115906
 40
0.000000
 50
0.000000
  1
# 31
  0
POLYLINE
  8
11
  66
1
  70
0
  0
VERTEX
  8
1
  10
-1813.744659
  20
-3429.077454
  0
VERTEX
  8
1
  10
-1874.236696
  20
-3429.077454
  0
VERTEX
  8
1
  10
-1931.942916
  20
-3429.077454
  0
VERTEX
  8
1
  10
-1992.036979
  20
-3429.077454
  0
VERTEX
  8
1
  10
-2042.579667
  20
-3429.077454
  0
VERTEX
  8
1
  10
-2074.560852
  20
-3429.077454
  0
SEQEND
  8
11
  0
POINT
  8
2
 10
-1813.744659
 20
-3429.077454
  0
TEXT
  8
2
 10
-1813.744659
 20
-3429.077454
 40
0.000000
 50
0.000000
  1
# 32
  0
POINT
  8
2
 10
-2074.560852
 20
-3429.077454
  0
TEXT
  8
2
 10
-2074.560852
 20
-3429.077454
 40
0.000000
 50
0.000000
  1
# 33
  0
POINT
  8
3
 10
-1874.236696
 20
-3429.077454
  0
POINT
  8
3
 10
-1931.942916
 20
-3429.077454
  0
POINT
  8
3
 10
-1992.036979
 20
-3429.077454
  0
POINT
  8
3
 10
-2042.579667
 20
-3429.077454
  0
POLYLINE
  8
11
  6
2
  66
1
  70
0
  0
VERTEX
  8
1
  10
-2026.557922
  20
-3935.476990
  0
VERTEX
  8
1
  10
-1970.041166
  20
-3935.476990
  0
VERTEX
  8
1
  10
-1919.936530
  20
-3935.476990
  0
VERTEX
  8
1
  10
-1870.623784
  20
-3935.476990
  0
VERTEX
  8
1
  10
-1859.655609
  20
-3935.476990
  0
SEQEND
  8
11
  0
POINT
  8
2
 10
-2026.557922
 20
-3935.476990
  0
TEXT
  8
2
 10
-2026.557922
 20
-3935.476990
 40
0.000000
 50
0.000000
  1
# 34
  0
POINT
  8
2
 10
-1859.655609
 20
-3935.476990
  0
TEXT
  8
2
 10
-1859.655609
 20
-3935.476990
 40
0.000000
 50
0.000000
  1
# 35
  0
POINT
  8
3
 10
-1970.041166
 20
-3935.476990
  0
POINT
  8
3
 10
-1919.936530
 20
-3935.476990
  0
POINT
  8
3
 10
-1870.623784
 20
-3935.476990
  0
POLYLINE
  8
11
  6
2
  66
1
  70
0
  0
VERTEX
  8
1
  10
-2026.750946
  20
-3932.477112
  0
VERTEX
  8
1
  10
-1970.095266
  20
-3932.477112
  0
VERTEX
  8
1
  10
-1919.880807
  20
-3932.477112
  0
VERTEX
  8
1
  10
-1870.447267
  20
-3932.477112
  0
VERTEX
  8
1
  10
-1859.447784
  20
-3932.477112
  0
SEQEND
  8
11
  0
POINT
  8
2
 10
-2026.750946
 20
-3932.477112
  0
TEXT
  8
2
 10
-2026.750946
 20
-3932.477112
 40
0.000000
 50
0.000000
  1
# 36
  0
POINT
  8
2
 10
-1859.447784
 20
-3932.477112
  0
TEXT
  8
2
 10
-1859.447784
 20
-3932.477112
 40
0.000000
 50
0.000000
  1
# 37
  0
POINT
  8
3
 10
-1970.095266
 20
-3932.477112
  0
POINT
  8
3
 10
-1919.880807
 20
-3932.477112
  0
POINT
  8
3
 10
-1870.447267
 20
-3932.477112
  0
POLYLINE
  8
11
  66
1
  70
0
  0
VERTEX
  8
1
  10
-1924.557953
  20
-3317.220154
  0
VERTEX
  8
1
  10
-1924.557953
  20
-3394.502028
  0
VERTEX
  8
1
  10
-1924.557953
  20
-3463.397915
  0
VERTEX
  8
1
  10
-1924.557953
  20
-3516.637394
  0
VERTEX
  8
1
  10
-1924.557953
  20
-3573.569786
  0
VERTEX
  8
1
  10
-1924.557953
  20
-3632.348633
  0
VERTEX
  8
1
  10
-1924.557953
  20
-3691.127480
  0
VERTEX
  8
1
  10
-1924.557953
  20
-3748.059871
  0
VERTEX
  8
1
  10
-1924.557953
  20
-3801.299351
  0
VERTEX
  8
1
  10
-1924.557953
  20
-3848.999462
  0
VERTEX
  8
1
  10
-1924.557953
  20
-3906.124193
  0
VERTEX
  8
1
  10
-1924.557953
  20
-3945.669124
  0
VERTEX
  8
1
  10
-1924.557953
  20
-3947.477112
  0
SEQEND
  8
11
  0
POINT
  8
2
 10
-1924.557953
 20
-3317.220154
  0
TEXT
  8
2
 10
-1924.557953
 20
-3317.220154
 40
0.000000
 50
0.000000
  1
# 38
  0
POINT
  8
2
 10
-1924.557953
 20
-3947.477112
  0
TEXT
  8
2
 10
-1924.557953
 20
-3947.477112
 40
0.000000
 50
0.000000
  1
# 39
  0
POINT
  8
3
 10
-1924.557953
 20
-3394.502028
  0
POINT
  8
3
 10
-1924.557953
 20
-3463.397915
  0
POINT
  8
3
 10
-1924.557953
 20
-3516.637394
  0
POINT
  8
3
 10
-1924.557953
 20
-3573.569786
  0
POINT
  8
3
 10
-1924.557953
 20
-3632.348633
  0
POINT
  8
3
 10
-1924.557953
 20
-3691.127480
  0
POINT
  8
3
 10
-1924.557953
 20
-3748.059871
  0
POINT
  8
3
 10
-1924.557953
 20
-3801.299351
  0
POINT
  8
3
 10
-1924.557953
 20
-3848.999462
  0
POINT
  8
3
 10
-1924.557953
 20
-3906.124193
  0
POINT
  8
3
 10
-1924.557953
 20
-3945.669124
 0
LINE
 8
7
 10
-1956.588440
 20
-3468.649597
 11
-1956.588440
 21
-3796.730652
  0
TEXT
  8
1
 10
-2029.324188
 20
-3408.730164
 40
6.120236
 50
7.611702
  1
后袖
  0
TEXT
  8
1
 10
-1944.143295
 20
-3635.759125
 40
10.000000
 50
0.000000
  1
PIECE NAME: C2490335.袖片
  0
TEXT
  8
1
 10
-1944.143295
 20
-3620.759125
 40
10.000000
 50
0.000000
  1
Size: M
  0
TEXT
  8
1
 10
-1944.143295
 20
-3605.759125
 40
10.000000
 50
0.000000
  1
ANNOTATION: 面料A X2
  0
TEXT
  8
1
 10
-1944.143295
 20
-3590.759125
 40
10.000000
 50
0.000000
  1
QUANTITY: 1,1
  0
TEXT
  8
1
 10
-1944.143295
 20
-3575.759125
 40
10.000000
 50
0.000000
  1
FABRIC: 面料A
  0
TEXT
  8
1
 10
-1944.143295
 20
-3560.759125
 40
10.000000
 50
0.000000
  1
CATEGORY: 袖片
  0
TEXT
  8
1
 10
-1944.143295
 20
-3545.759125
 40
10.000000
 50
0.000000
  1
SHRINKAGE: 经:0.0%，纬:2.0%
0
ENDBLK
0
BLOCK
  8
1
  2
C2490335.前身片_面料A_M
 70
0
 10
0.0
 20
0.0
  0
POLYLINE
  8
1
  66
1
  70
1
  0
VERTEX
  8
1
  10
-2713.121623
  20
-4024.172045
  0
VERTEX
  8
1
  10
-2705.677294
  20
-4003.935945
  0
VERTEX
  8
1
  10
-2693.623009
  20
-3970.981982
  0
VERTEX
  8
1
  10
-2684.038438
  20
-3945.642244
  0
VERTEX
  8
1
  10
-2674.762397
  20
-3922.322278
  0
VERTEX
  8
1
  10
-2672.310562
  20
-3916.391387
  0
VERTEX
  8
1
  10
-2663.275044
  20
-3894.534823
  0
VERTEX
  8
1
  10
-2653.740232
  20
-3872.526038
  0
VERTEX
  8
1
  10
-2633.988196
  20
-3829.073073
  0
VERTEX
  8
1
  10
-2627.191402
  20
-3813.582024
  0
VERTEX
  8
1
  10
-2622.295774
  20
-3801.552251
  0
VERTEX
  8
1
  10
-2619.784930
  20
-3794.597548
  0
VERTEX
  8
1
  10
-2618.031330
  20
-3788.543763
  0
VERTEX
  8
1
  10
-2616.779346
  20
-3782.701936
  0
VERTEX
  8
1
  10
-2615.757578
  20
-3775.919439
  0
VERTEX
  8
1
  10
-2615.142771
  20
-3769.244816
  0
VERTEX
  8
1
  10
-2615.009074
  20
-3767.793341
  0
VERTEX
  8
1
  10
-2614.626003
  20
-3758.114875
  0
VERTEX
  8
1
  10
-2614.703725
  20
-3725.768776
  0
VERTEX
  8
1
  10
-2614.794598
  20
-3677.303516
  0
VERTEX
  8
1
  10
-2614.883563
  20
-3632.532680
  0
VERTEX
  8
1
  10
-2614.894340
  20
-3627.109184
  0
VERTEX
  8
1
  10
-2614.973051
  20
-3576.655493
  0
VERTEX
  8
1
  10
-2615.037708
  20
-3536.461562
  0
VERTEX
  8
1
  10
-2615.067084
  20
-3518.128010
  0
VERTEX
  8
1
  10
-2608.102672
  20
-3517.607714
  0
VERTEX
  8
1
  10
-2601.587069
  20
-3517.180986
  0
VERTEX
  8
1
  10
-2596.844435
  20
-3516.690540
  0
VERTEX
  8
1
  10
-2592.929513
  20
-3516.082255
  0
VERTEX
  8
1
  10
-2589.408612
  20
-3515.327257
  0
VERTEX
  8
1
  10
-2586.281215
  20
-3514.450035
  0
VERTEX
  8
1
  10
-2583.538599
  20
-3513.484619
  0
VERTEX
  8
1
  10
-2580.984958
  20
-3512.387870
  0
VERTEX
  8
1
  10
-2578.136858
  20
-3510.923416
  0
VERTEX
  8
1
  10
-2575.364453
  20
-3509.252870
  0
VERTEX
  8
1
  10
-2572.670998
  20
-3507.392238
  0
VERTEX
  8
1
  10
-2569.821218
  20
-3505.162081
  0
VERTEX
  8
1
  10
-2567.107781
  20
-3502.774982
  0
VERTEX
  8
1
  10
-2564.737148
  20
-3500.440282
  0
VERTEX
  8
1
  10
-2564.305575
  20
-3500.015250
  0
VERTEX
  8
1
  10
-2561.649740
  20
-3497.092319
  0
VERTEX
  8
1
  10
-2559.138834
  20
-3494.018953
  0
VERTEX
  8
1
  10
-2556.596089
  20
-3490.558645
  0
VERTEX
  8
1
  10
-2554.225257
  20
-3486.967602
  0
VERTEX
  8
1
  10
-2551.870467
  20
-3482.992819
  0
VERTEX
  8
1
  10
-2549.700584
  20
-3478.895312
  0
VERTEX
  8
1
  10
-2547.665438
  20
-3474.602946
  0
VERTEX
  8
1
  10
-2545.623527
  20
-3469.760699
  0
VERTEX
  8
1
  10
-2543.431940
  20
-3463.910895
  0
VERTEX
  8
1
  10
-2540.548434
  20
-3455.420103
  0
VERTEX
  8
1
  10
-2537.368498
  20
-3446.278292
  0
VERTEX
  8
1
  10
-2527.894960
  20
-3452.102545
  0
VERTEX
  8
1
  10
-2515.190920
  20
-3459.904265
  0
VERTEX
  8
1
  10
-2502.005865
  20
-3468.002276
  0
VERTEX
  8
1
  10
-2489.077576
  20
-3475.942019
  0
VERTEX
  8
1
  10
-2476.090554
  20
-3483.917764
  0
VERTEX
  8
1
  10
-2462.923440
  20
-3492.004007
  0
VERTEX
  8
1
  10
-2449.597329
  20
-3500.188305
  0
VERTEX
  8
1
  10
-2429.803141
  20
-3512.344303
  0
VERTEX
  8
1
  10
-2432.694641
  20
-3518.341894
  0
VERTEX
  8
1
  10
-2435.241625
  20
-3523.514512
  0
VERTEX
  8
1
  10
-2438.486604
  20
-3530.512079
  0
VERTEX
  8
1
  10
-2441.593408
  20
-3537.822509
  0
VERTEX
  8
1
  10
-2444.045981
  20
-3544.187384
  0
VERTEX
  8
1
  10
-2446.365531
  20
-3550.882895
  0
VERTEX
  8
1
  10
-2448.529410
  20
-3557.885815
  0
VERTEX
  8
1
  10
-2450.493931
  20
-3565.111306
  0
VERTEX
  8
1
  10
-2451.893384
  20
-3571.098374
  0
VERTEX
  8
1
  10
-2452.215525
  20
-3572.476539
  0
VERTEX
  8
1
  10
-2453.656244
  20
-3579.919667
  0
VERTEX
  8
1
  10
-2454.297178
  20
-3584.091175
  0
VERTEX
  8
1
  10
-2454.630489
  20
-3586.260523
  0
VERTEX
  8
1
  10
-2455.342092
  20
-3592.521066
  0
VERTEX
  8
1
  10
-2455.772073
  20
-3598.845890
  0
VERTEX
  8
1
  10
-2455.794631
  20
-3600.075077
  0
VERTEX
  8
1
  10
-2455.881854
  20
-3604.827851
  0
VERTEX
  8
1
  10
-2455.839629
  20
-3606.106886
  0
VERTEX
  8
1
  10
-2455.724545
  20
-3609.592882
  0
VERTEX
  8
1
  10
-2455.331087
  20
-3614.170387
  0
VERTEX
  8
1
  10
-2454.695958
  20
-3618.507202
  0
VERTEX
  8
1
  10
-2453.809872
  20
-3622.603829
  0
VERTEX
  8
1
  10
-2452.940277
  20
-3625.609942
  0
VERTEX
  8
1
  10
-2452.028237
  20
-3628.110875
  0
VERTEX
  8
1
  10
-2451.909861
  20
-3628.435477
  0
VERTEX
  8
1
  10
-2450.730978
  20
-3631.042192
  0
VERTEX
  8
1
  10
-2449.406364
  20
-3633.423455
  0
VERTEX
  8
1
  10
-2447.938844
  20
-3635.579753
  0
VERTEX
  8
1
  10
-2446.326089
  20
-3637.514549
  0
VERTEX
  8
1
  10
-2444.558018
  20
-3639.238476
  0
VERTEX
  8
1
  10
-2442.661352
  20
-3640.727350
  0
VERTEX
  8
1
  10
-2439.802627
  20
-3642.448469
  0
VERTEX
  8
1
  10
-2438.027731
  20
-3643.274193
  0
VERTEX
  8
1
  10
-2435.288736
  20
-3644.307047
  0
VERTEX
  8
1
  10
-2431.745105
  20
-3645.357337
  0
VERTEX
  8
1
  10
-2427.858324
  20
-3646.242390
  0
VERTEX
  8
1
  10
-2421.432812
  20
-3647.339891
  0
VERTEX
  8
1
  10
-2412.564601
  20
-3648.974069
  0
VERTEX
  8
1
  10
-2421.086559
  20
-3673.411502
  0
VERTEX
  8
1
  10
-2426.314830
  20
-3688.458924
  0
VERTEX
  8
1
  10
-2431.591825
  20
-3703.721443
  0
VERTEX
  8
1
  10
-2436.667509
  20
-3718.479439
  0
VERTEX
  8
1
  10
-2441.825208
  20
-3733.548855
  0
VERTEX
  8
1
  10
-2446.124459
  20
-3746.149868
  0
VERTEX
  8
1
  10
-2446.133599
  20
-3746.176532
  0
VERTEX
  8
1
  10
-2451.261773
  20
-3761.054462
  0
VERTEX
  8
1
  10
-2456.149691
  20
-3775.236656
  0
VERTEX
  8
1
  10
-2461.336889
  20
-3790.439817
  0
VERTEX
  8
1
  10
-2465.234552
  20
-3802.446070
  0
VERTEX
  8
1
  10
-2468.203136
  20
-3812.342887
  0
VERTEX
  8
1
  10
-2470.573017
  20
-3821.084861
  0
VERTEX
  8
1
  10
-2472.444040
  20
-3828.928467
  0
VERTEX
  8
1
  10
-2473.862520
  20
-3836.745203
  0
VERTEX
  8
1
  10
-2475.133747
  20
-3845.205348
  0
VERTEX
  8
1
  10
-2476.492391
  20
-3856.079644
  0
VERTEX
  8
1
  10
-2478.105463
  20
-3871.271049
  0
VERTEX
  8
1
  10
-2479.653917
  20
-3886.307415
  0
VERTEX
  8
1
  10
-2481.432238
  20
-3901.766216
  0
VERTEX
  8
1
  10
-2483.300117
  20
-3916.573204
  0
VERTEX
  8
1
  10
-2483.622007
  20
-3918.997650
  0
VERTEX
  8
1
  10
-2483.747223
  20
-3919.946526
  0
VERTEX
  8
1
  10
-2483.770317
  20
-3920.085390
  0
VERTEX
  8
1
  10
-2486.332094
  20
-3935.489193
  0
VERTEX
  8
1
  10
-2488.924759
  20
-3949.544010
  0
VERTEX
  8
1
  10
-2491.322351
  20
-3961.214114
  0
VERTEX
  8
1
  10
-2494.145160
  20
-3973.645795
  0
VERTEX
  8
1
  10
-2497.421729
  20
-3986.875963
  0
VERTEX
  8
1
  10
-2500.695980
  20
-3999.116950
  0
VERTEX
  8
1
  10
-2501.086183
  20
-4000.575745
  0
VERTEX
  8
1
  10
-2505.059370
  20
-4014.409750
  0
VERTEX
  8
1
  10
-2509.561362
  20
-4029.096653
  0
VERTEX
  8
1
  10
-2526.326114
  20
-4075.583615
  0
VERTEX
  8
1
  10
-2530.891830
  20
-4089.812516
  0
VERTEX
  8
1
  10
-2591.149626
  20
-4069.715289
  0
VERTEX
  8
1
  10
-2623.393029
  20
-4058.362111
  0
VERTEX
  8
1
  10
-2675.393936
  20
-4039.042413
  0
VERTEX
  8
1
  10
-2713.121623
  20
-4024.172045
  0
SEQEND
  8
1
  0
POINT
  8
2
 10
-2713.121623
 20
-4024.172045
  0
TEXT
  8
2
 10
-2713.121623
 20
-4024.172045
 40
0.000000
 50
0.000000
  1
# 40
  0
POINT
  8
2
 10
-2615.067084
 20
-3518.128010
  0
TEXT
  8
2
 10
-2615.067084
 20
-3518.128010
 40
0.000000
 50
0.000000
  1
# 41
  0
POINT
  8
2
 10
-2537.368498
 20
-3446.278292
  0
TEXT
  8
2
 10
-2537.368498
 20
-3446.278292
 40
0.000000
 50
0.000000
  1
# 42
  0
POINT
  8
2
 10
-2429.803141
 20
-3512.344303
  0
TEXT
  8
2
 10
-2429.803141
 20
-3512.344303
 40
0.000000
 50
0.000000
  1
# 43
  0
POINT
  8
2
 10
-2412.564601
 20
-3648.974069
  0
TEXT
  8
2
 10
-2412.564601
 20
-3648.974069
 40
0.000000
 50
0.000000
  1
# 44
  0
POINT
  8
2
 10
-2446.133599
 20
-3746.176532
  0
TEXT
  8
2
 10
-2446.133599
 20
-3746.176532
 40
0.000000
 50
0.000000
  1
# 45
  0
POINT
  8
2
 10
-2483.747223
 20
-3919.946526
  0
TEXT
  8
2
 10
-2483.747223
 20
-3919.946526
 40
0.000000
 50
0.000000
  1
# 46
  0
POINT
  8
2
 10
-2526.326114
 20
-4075.583615
  0
TEXT
  8
2
 10
-2526.326114
 20
-4075.583615
 40
0.000000
 50
0.000000
  1
# 47
  0
POINT
  8
2
 10
-2530.891830
 20
-4089.812516
  0
TEXT
  8
2
 10
-2530.891830
 20
-4089.812516
 40
0.000000
 50
0.000000
  1
# 48
  0
POINT
  8
2
 10
-2713.121623
 20
-4024.172045
  0
TEXT
  8
2
 10
-2713.121623
 20
-4024.172045
 40
0.000000
 50
0.000000
  1
# 49
  0
POINT
  8
3
 10
-2705.677294
 20
-4003.935945
  0
POINT
  8
3
 10
-2693.623009
 20
-3970.981982
  0
POINT
  8
3
 10
-2684.038438
 20
-3945.642244
  0
POINT
  8
3
 10
-2674.762397
 20
-3922.322278
  0
POINT
  8
3
 10
-2672.310562
 20
-3916.391387
  0
POINT
  8
3
 10
-2663.275044
 20
-3894.534823
  0
POINT
  8
3
 10
-2653.740232
 20
-3872.526038
  0
POINT
  8
3
 10
-2633.988196
 20
-3829.073073
  0
POINT
  8
3
 10
-2627.191402
 20
-3813.582024
  0
POINT
  8
3
 10
-2622.295774
 20
-3801.552251
  0
POINT
  8
3
 10
-2619.784930
 20
-3794.597548
  0
POINT
  8
3
 10
-2618.031330
 20
-3788.543763
  0
POINT
  8
3
 10
-2616.779346
 20
-3782.701936
  0
POINT
  8
3
 10
-2615.757578
 20
-3775.919439
  0
POINT
  8
3
 10
-2615.142771
 20
-3769.244816
  0
POINT
  8
3
 10
-2615.009074
 20
-3767.793341
  0
POINT
  8
3
 10
-2614.626003
 20
-3758.114875
  0
POINT
  8
3
 10
-2614.703725
 20
-3725.768776
  0
POINT
  8
3
 10
-2614.794598
 20
-3677.303516
  0
POINT
  8
3
 10
-2614.883563
 20
-3632.532680
  0
POINT
  8
3
 10
-2614.894340
 20
-3627.109184
  0
POINT
  8
3
 10
-2614.973051
 20
-3576.655493
  0
POINT
  8
3
 10
-2615.037708
 20
-3536.461562
  0
POINT
  8
3
 10
-2608.102672
 20
-3517.607714
  0
POINT
  8
3
 10
-2601.587069
 20
-3517.180986
  0
POINT
  8
3
 10
-2596.844435
 20
-3516.690540
  0
POINT
  8
3
 10
-2592.929513
 20
-3516.082255
  0
POINT
  8
3
 10
-2589.408612
 20
-3515.327257
  0
POINT
  8
3
 10
-2586.281215
 20
-3514.450035
  0
POINT
  8
3
 10
-2583.538599
 20
-3513.484619
  0
POINT
  8
3
 10
-2580.984958
 20
-3512.387870
  0
POINT
  8
3
 10
-2578.136858
 20
-3510.923416
  0
POINT
  8
3
 10
-2575.364453
 20
-3509.252870
  0
POINT
  8
3
 10
-2572.670998
 20
-3507.392238
  0
POINT
  8
3
 10
-2569.821218
 20
-3505.162081
  0
POINT
  8
3
 10
-2567.107781
 20
-3502.774982
  0
POINT
  8
3
 10
-2564.737148
 20
-3500.440282
  0
POINT
  8
3
 10
-2564.305575
 20
-3500.015250
  0
POINT
  8
3
 10
-2561.649740
 20
-3497.092319
  0
POINT
  8
3
 10
-2559.138834
 20
-3494.018953
  0
POINT
  8
3
 10
-2556.596089
 20
-3490.558645
  0
POINT
  8
3
 10
-2554.225257
 20
-3486.967602
  0
POINT
  8
3
 10
-2551.870467
 20
-3482.992819
  0
POINT
  8
3
 10
-2549.700584
 20
-3478.895312
  0
POINT
  8
3
 10
-2547.665438
 20
-3474.602946
  0
POINT
  8
3
 10
-2545.623527
 20
-3469.760699
  0
POINT
  8
3
 10
-2543.431940
 20
-3463.910895
  0
POINT
  8
3
 10
-2540.548434
 20
-3455.420103
  0
POINT
  8
3
 10
-2527.894960
 20
-3452.102545
  0
POINT
  8
3
 10
-2515.190920
 20
-3459.904265
  0
POINT
  8
3
 10
-2502.005865
 20
-3468.002276
  0
POINT
  8
3
 10
-2489.077576
 20
-3475.942019
  0
POINT
  8
3
 10
-2476.090554
 20
-3483.917764
  0
POINT
  8
3
 10
-2462.923440
 20
-3492.004007
  0
POINT
  8
3
 10
-2449.597329
 20
-3500.188305
  0
POINT
  8
3
 10
-2432.694641
 20
-3518.341894
  0
POINT
  8
3
 10
-2435.241625
 20
-3523.514512
  0
POINT
  8
3
 10
-2438.486604
 20
-3530.512079
  0
POINT
  8
3
 10
-2441.593408
 20
-3537.822509
  0
POINT
  8
3
 10
-2444.045981
 20
-3544.187384
  0
POINT
  8
3
 10
-2446.365531
 20
-3550.882895
  0
POINT
  8
3
 10
-2448.529410
 20
-3557.885815
  0
POINT
  8
3
 10
-2450.493931
 20
-3565.111306
  0
POINT
  8
3
 10
-2451.893384
 20
-3571.098374
  0
POINT
  8
3
 10
-2452.215525
 20
-3572.476539
  0
POINT
  8
3
 10
-2453.656244
 20
-3579.919667
  0
POINT
  8
3
 10
-2454.297178
 20
-3584.091175
  0
POINT
  8
3
 10
-2454.630489
 20
-3586.260523
  0
POINT
  8
3
 10
-2455.342092
 20
-3592.521066
  0
POINT
  8
3
 10
-2455.772073
 20
-3598.845890
  0
POINT
  8
3
 10
-2455.794631
 20
-3600.075077
  0
POINT
  8
3
 10
-2455.881854
 20
-3604.827851
  0
POINT
  8
3
 10
-2455.839629
 20
-3606.106886
  0
POINT
  8
3
 10
-2455.724545
 20
-3609.592882
  0
POINT
  8
3
 10
-2455.331087
 20
-3614.170387
  0
POINT
  8
3
 10
-2454.695958
 20
-3618.507202
  0
POINT
  8
3
 10
-2453.809872
 20
-3622.603829
  0
POINT
  8
3
 10
-2452.940277
 20
-3625.609942
  0
POINT
  8
3
 10
-2452.028237
 20
-3628.110875
  0
POINT
  8
3
 10
-2451.909861
 20
-3628.435477
  0
POINT
  8
3
 10
-2450.730978
 20
-3631.042192
  0
POINT
  8
3
 10
-2449.406364
 20
-3633.423455
  0
POINT
  8
3
 10
-2447.938844
 20
-3635.579753
  0
POINT
  8
3
 10
-2446.326089
 20
-3637.514549
  0
POINT
  8
3
 10
-2444.558018
 20
-3639.238476
  0
POINT
  8
3
 10
-2442.661352
 20
-3640.727350
  0
POINT
  8
3
 10
-2439.802627
 20
-3642.448469
  0
POINT
  8
3
 10
-2438.027731
 20
-3643.274193
  0
POINT
  8
3
 10
-2435.288736
 20
-3644.307047
  0
POINT
  8
3
 10
-2431.745105
 20
-3645.357337
  0
POINT
  8
3
 10
-2427.858324
 20
-3646.242390
  0
POINT
  8
3
 10
-2421.432812
 20
-3647.339891
  0
POINT
  8
3
 10
-2421.086559
 20
-3673.411502
  0
POINT
  8
3
 10
-2426.314830
 20
-3688.458924
  0
POINT
  8
3
 10
-2431.591825
 20
-3703.721443
  0
POINT
  8
3
 10
-2436.667509
 20
-3718.479439
  0
POINT
  8
3
 10
-2441.825208
 20
-3733.548855
  0
POINT
  8
3
 10
-2446.124459
 20
-3746.149868
  0
POINT
  8
3
 10
-2451.261773
 20
-3761.054462
  0
POINT
  8
3
 10
-2456.149691
 20
-3775.236656
  0
POINT
  8
3
 10
-2461.336889
 20
-3790.439817
  0
POINT
  8
3
 10
-2465.234552
 20
-3802.446070
  0
POINT
  8
3
 10
-2468.203136
 20
-3812.342887
  0
POINT
  8
3
 10
-2470.573017
 20
-3821.084861
  0
POINT
  8
3
 10
-2472.444040
 20
-3828.928467
  0
POINT
  8
3
 10
-2473.862520
 20
-3836.745203
  0
POINT
  8
3
 10
-2475.133747
 20
-3845.205348
  0
POINT
  8
3
 10
-2476.492391
 20
-3856.079644
  0
POINT
  8
3
 10
-2478.105463
 20
-3871.271049
  0
POINT
  8
3
 10
-2479.653917
 20
-3886.307415
  0
POINT
  8
3
 10
-2481.432238
 20
-3901.766216
  0
POINT
  8
3
 10
-2483.300117
 20
-3916.573204
  0
POINT
  8
3
 10
-2483.622007
 20
-3918.997650
  0
POINT
  8
3
 10
-2483.770317
 20
-3920.085390
  0
POINT
  8
3
 10
-2486.332094
 20
-3935.489193
  0
POINT
  8
3
 10
-2488.924759
 20
-3949.544010
  0
POINT
  8
3
 10
-2491.322351
 20
-3961.214114
  0
POINT
  8
3
 10
-2494.145160
 20
-3973.645795
  0
POINT
  8
3
 10
-2497.421729
 20
-3986.875963
  0
POINT
  8
3
 10
-2500.695980
 20
-3999.116950
  0
POINT
  8
3
 10
-2501.086183
 20
-4000.575745
  0
POINT
  8
3
 10
-2505.059370
 20
-4014.409750
  0
POINT
  8
3
 10
-2509.561362
 20
-4029.096653
  0
POINT
  8
3
 10
-2591.149626
 20
-4069.715289
  0
POINT
  8
3
 10
-2623.393029
 20
-4058.362111
  0
POINT
  8
3
 10
-2675.393936
 20
-4039.042413
  0
POINT
  8
3
 10
-2454.297178
 20
-3584.091175
  0
TEXT
  8
3
 10
-2454.297178
 20
-3584.091175
 40
0.000000
 50
0.000000
  1
# 50
  0
POINT
  8
3
 10
-2455.839629
 20
-3606.106886
  0
TEXT
  8
3
 10
-2455.839629
 20
-3606.106886
 40
0.000000
 50
0.000000
  1
# 51
  0
POINT
  8
3
 10
-2452.028237
 20
-3628.110875
  0
TEXT
  8
3
 10
-2452.028237
 20
-3628.110875
 40
0.000000
 50
0.000000
  1
# 52
  0
POINT
  8
4
 10
-2672.310562
 20
-3916.391387
 30
0.600000
 50
337.54
  0
TEXT
  8
4
 10
-2672.310562
 20
-3916.391387
 40
0.000000
 50
0.000000
  1
# 53
  0
POINT
  8
4
 10
-2615.142771
 20
-3769.244816
 30
0.600000
 50
354.74
  0
TEXT
  8
4
 10
-2615.142771
 20
-3769.244816
 40
0.000000
 50
0.000000
  1
# 54
  0
POINT
  8
4
 10
-2614.883563
 20
-3632.532680
 30
0.600000
 50
  0.11
  0
TEXT
  8
4
 10
-2614.883563
 20
-3632.532680
 40
0.000000
 50
0.000000
  1
# 55
  0
POINT
  8
4
 10
-2564.737148
 20
-3500.440282
 30
0.600000
 50
314.56
  0
TEXT
  8
4
 10
-2564.737148
 20
-3500.440282
 40
0.000000
 50
0.000000
  1
# 56
  0
POINT
  8
4
 10
-2451.893384
 20
-3571.098374
 30
0.600000
 50
166.84
  0
TEXT
  8
4
 10
-2451.893384
 20
-3571.098374
 40
0.000000
 50
0.000000
  1
# 57
  0
POINT
  8
4
 10
-2455.794631
 20
-3600.075077
 30
0.600000
 50
178.95
  0
TEXT
  8
4
 10
-2455.794631
 20
-3600.075077
 40
0.000000
 50
0.000000
  1
# 58
  0
POINT
  8
4
 10
-2446.124459
 20
-3746.149868
 30
0.600000
 50
161.16
  0
TEXT
  8
4
 10
-2446.124459
 20
-3746.149868
 40
0.000000
 50
0.000000
  1
# 59
  0
POINT
  8
4
 10
-2483.770317
 20
-3920.085390
 30
0.600000
 50
170.56
  0
TEXT
  8
4
 10
-2483.770317
 20
-3920.085390
 40
0.000000
 50
0.000000
  1
# 60
  0
POINT
  8
4
 10
-2500.695980
 20
-3999.116950
 30
0.600000
 50
165.02
  0
TEXT
  8
4
 10
-2500.695980
 20
-3999.116950
 40
0.000000
 50
0.000000
  1
# 61
  0
POLYLINE
  8
8
  66
1
  70
1
  0
VERTEX
  8
8
  10
-2700.467834
  20
-4013.039551
  0
VERTEX
  8
8
  10
-2686.121501
  20
-3973.761799
  0
VERTEX
  8
8
  10
-2676.579009
  20
-3948.533080
  0
VERTEX
  8
8
  10
-2667.351081
  20
-3925.334321
  0
VERTEX
  8
8
  10
-2664.945679
  20
-3919.436035
  0
VERTEX
  8
8
  10
-2655.906193
  20
-3897.649312
  0
VERTEX
  8
8
  10
-2646.426851
  20
-3875.768637
  0
VERTEX
  8
8
  10
-2626.694999
  20
-3832.360820
  0
VERTEX
  8
8
  10
-2619.824625
  20
-3816.701414
  0
VERTEX
  8
8
  10
-2614.834114
  20
-3804.437322
  0
VERTEX
  8
8
  10
-2612.183713
  20
-3797.091842
  0
VERTEX
  8
8
  10
-2610.269881
  20
-3790.482809
  0
VERTEX
  8
8
  10
-2608.908540
  20
-3784.133860
  0
VERTEX
  8
8
  10
-2607.816124
  20
-3776.885516
  0
VERTEX
  8
8
  10
-2607.142944
  20
-3769.981689
  0
VERTEX
  8
8
  10
-2607.026000
  20
-3768.313476
  0
VERTEX
  8
8
  10
-2606.627306
  20
-3758.259261
  0
VERTEX
  8
8
  10
-2606.703866
  20
-3725.721336
  0
VERTEX
  8
8
  10
-2606.794598
  20
-3677.304110
  0
VERTEX
  8
8
  10
-2606.884155
  20
-3632.516785
  0
VERTEX
  8
8
  10
-2606.894353
  20
-3627.094707
  0
VERTEX
  8
8
  10
-2606.973062
  20
-3576.642284
  0
VERTEX
  8
8
  10
-2607.055359
  20
-3525.518494
  0
VERTEX
  8
8
  10
-2600.764160
  20
-3525.138550
  0
VERTEX
  8
8
  10
-2595.818176
  20
-3524.627075
  0
VERTEX
  8
8
  10
-2591.475525
  20
-3523.952332
  0
VERTEX
  8
8
  10
-2587.487793
  20
-3523.097229
  0
VERTEX
  8
8
  10
-2583.870239
  20
-3522.082520
  0
VERTEX
  8
8
  10
-2580.628662
  20
-3520.941467
  0
VERTEX
  8
8
  10
-2577.573242
  20
-3519.629211
  0
VERTEX
  8
8
  10
-2574.238892
  20
-3517.914734
  0
VERTEX
  8
8
  10
-2571.022339
  20
-3515.976563
  0
VERTEX
  8
8
  10
-2567.928162
  20
-3513.839111
  0
VERTEX
  8
8
  10
-2564.709778
  20
-3511.320496
  0
VERTEX
  8
8
  10
-2561.654663
  20
-3508.632813
  0
VERTEX
  8
8
  10
-2559.123688
  20
-3506.140137
  0
VERTEX
  8
8
  10
-2558.533936
  20
-3505.559387
  0
VERTEX
  8
8
  10
-2555.587463
  20
-3502.316589
  0
VERTEX
  8
8
  10
-2552.813721
  20
-3498.921509
  0
VERTEX
  8
8
  10
-2550.030518
  20
-3495.133972
  0
VERTEX
  8
8
  10
-2547.441711
  20
-3491.212769
  0
VERTEX
  8
8
  10
-2544.890137
  20
-3486.905823
  0
VERTEX
  8
8
  10
-2542.544861
  20
-3482.477112
  0
VERTEX
  8
8
  10
-2540.290222
  20
-3477.702332
  0
VERTEX
  8
8
  10
-2538.129883
  20
-3472.561646
  0
VERTEX
  8
8
  10
-2535.846252
  20
-3466.452026
  0
VERTEX
  8
8
  10
-2533.110962
  20
-3458.286743
  0
VERTEX
  8
8
  10
-2532.081451
  20
-3458.919678
  0
VERTEX
  8
8
  10
-2519.377747
  20
-3466.721191
  0
VERTEX
  8
8
  10
-2506.192474
  20
-3474.819336
  0
VERTEX
  8
8
  10
-2493.264160
  20
-3482.759094
  0
VERTEX
  8
8
  10
-2480.277100
  20
-3490.734863
  0
VERTEX
  8
8
  10
-2467.109985
  20
-3498.821106
  0
VERTEX
  8
8
  10
-2453.784027
  20
-3507.005310
  0
VERTEX
  8
8
  10
-2440.126343
  20
-3515.392761
  0
VERTEX
  8
8
  10
-2442.501068
  20
-3520.152893
  0
VERTEX
  8
8
  10
-2445.851135
  20
-3527.387390
  0
VERTEX
  8
8
  10
-2449.060364
  20
-3534.951172
  0
VERTEX
  8
8
  10
-2451.606903
  20
-3541.573486
  0
VERTEX
  8
8
  10
-2454.010468
  20
-3548.526001
  0
VERTEX
  8
8
  10
-2456.250610
  20
-3555.792236
  0
VERTEX
  8
8
  10
-2458.285370
  20
-3563.296509
  0
VERTEX
  8
8
  10
-2459.678802
  20
-3569.278564
  0
VERTEX
  8
8
  10
-2460.070953
  20
-3570.962524
  0
VERTEX
  8
8
  10
-2461.564636
  20
-3578.712463
  0
VERTEX
  8
8
  10
-2462.200330
  20
-3582.876890
  0
VERTEX
  8
8
  10
-2462.580414
  20
-3585.366821
  0
VERTEX
  8
8
  10
-2463.323669
  20
-3591.978455
  0
VERTEX
  8
8
  10
-2463.767090
  20
-3598.500977
  0
VERTEX
  8
8
  10
-2463.793335
  20
-3599.928284
  0
VERTEX
  8
8
  10
-2463.884277
  20
-3604.886475
  0
VERTEX
  8
8
  10
-2463.835273
  20
-3606.370849
  0
VERTEX
  8
8
  10
-2463.713226
  20
-3610.067749
  0
VERTEX
  8
8
  10
-2463.281250
  20
-3615.093384
  0
VERTEX
  8
8
  10
-2462.572327
  20
-3619.934082
  0
VERTEX
  8
8
  10
-2461.571045
  20
-3624.563293
  0
VERTEX
  8
8
  10
-2460.549469
  20
-3628.094788
  0
VERTEX
  8
8
  10
-2459.544063
  20
-3630.851744
  0
VERTEX
  8
8
  10
-2459.322815
  20
-3631.458435
  0
VERTEX
  8
8
  10
-2457.883453
  20
-3634.641113
  0
VERTEX
  8
8
  10
-2456.222534
  20
-3637.626953
  0
VERTEX
  8
8
  10
-2454.333344
  20
-3640.402832
  0
VERTEX
  8
8
  10
-2452.206726
  20
-3642.954102
  0
VERTEX
  8
8
  10
-2449.835510
  20
-3645.266113
  0
VERTEX
  8
8
  10
-2447.211761
  20
-3647.325745
  0
VERTEX
  8
8
  10
-2443.563690
  20
-3649.522095
  0
VERTEX
  8
8
  10
-2441.130676
  20
-3650.653992
  0
VERTEX
  8
8
  10
-2437.840118
  20
-3651.894836
  0
VERTEX
  8
8
  10
-2433.771973
  20
-3653.100586
  0
VERTEX
  8
8
  10
-2429.377441
  20
-3654.101257
  0
VERTEX
  8
8
  10
-2424.173279
  20
-3654.930420
  0
VERTEX
  8
8
  10
-2429.584656
  20
-3670.447998
  0
VERTEX
  8
8
  10
-2434.816284
  20
-3685.505066
  0
VERTEX
  8
8
  10
-2440.102539
  20
-3700.794373
  0
VERTEX
  8
8
  10
-2445.178223
  20
-3715.552368
  0
VERTEX
  8
8
  10
-2450.340271
  20
-3730.634460
  0
VERTEX
  8
8
  10
-2454.642334
  20
-3743.243713
  0
VERTEX
  8
8
  10
-2454.642334
  20
-3743.243713
  0
VERTEX
  8
8
  10
-2459.770508
  20
-3758.121643
  0
VERTEX
  8
8
  10
-2464.658508
  20
-3772.304077
  0
VERTEX
  8
8
  10
-2469.854736
  20
-3787.533569
  0
VERTEX
  8
8
  10
-2473.794556
  20
-3799.666443
  0
VERTEX
  8
8
  10
-2476.823120
  20
-3809.755249
  0
VERTEX
  8
8
  10
-2479.327393
  20
-3818.996582
  0
VERTEX
  8
8
  10
-2481.255493
  20
-3827.079468
  0
VERTEX
  8
8
  10
-2482.717896
  20
-3835.138245
  0
VERTEX
  8
8
  10
-2484.033203
  20
-3843.863831
  0
VERTEX
  8
8
  10
-2485.422668
  20
-3854.961548
  0
VERTEX
  8
8
  10
-2487.055054
  20
-3870.319824
  0
VERTEX
  8
8
  10
-2488.606567
  20
-3885.385437
  0
VERTEX
  8
8
  10
-2490.373230
  20
-3900.737305
  0
VERTEX
  8
8
  10
-2492.229309
  20
-3915.446472
  0
VERTEX
  8
8
  10
-2492.649536
  20
-3918.608704
  0
VERTEX
  8
8
  10
-2492.649536
  20
-3918.608704
  0
VERTEX
  8
8
  10
-2495.210266
  20
-3934.013367
  0
VERTEX
  8
8
  10
-2497.775269
  20
-3947.910461
  0
VERTEX
  8
8
  10
-2500.137939
  20
-3959.401550
  0
VERTEX
  8
8
  10
-2502.921448
  20
-3971.651611
  0
VERTEX
  8
8
  10
-2506.157532
  20
-3984.711304
  0
VERTEX
  8
8
  10
-2509.390259
  20
-3996.791382
  0
VERTEX
  8
8
  10
-2509.780273
  20
-3998.249207
  0
VERTEX
  8
8
  10
-2513.709412
  20
-4011.924438
  0
VERTEX
  8
8
  10
-2518.101807
  20
-4026.249084
  0
VERTEX
  8
8
  10
-2534.847412
  20
-4072.680969
  0
VERTEX
  8
8
  10
-2586.403809
  20
-4055.485840
  0
VERTEX
  8
8
  10
-2618.410339
  20
-4044.213867
  0
VERTEX
  8
8
  10
-2670.169373
  20
-4024.981689
  0
VERTEX
  8
8
  10
-2700.467834
  20
-4013.039551
  0
SEQEND
  8
8
  0
POINT
  8
2
 10
-2700.467834
 20
-4013.039551
  0
TEXT
  8
2
 10
-2700.467834
 20
-4013.039551
 40
0.000000
 50
0.000000
  1
# 62
  0
POINT
  8
2
 10
-2607.055359
 20
-3525.518494
  0
TEXT
  8
2
 10
-2607.055359
 20
-3525.518494
 40
0.000000
 50
0.000000
  1
# 63
  0
POINT
  8
2
 10
-2533.110962
 20
-3458.286743
  0
TEXT
  8
2
 10
-2533.110962
 20
-3458.286743
 40
0.000000
 50
0.000000
  1
# 64
  0
POINT
  8
2
 10
-2440.126343
 20
-3515.392761
  0
TEXT
  8
2
 10
-2440.126343
 20
-3515.392761
 40
0.000000
 50
0.000000
  1
# 65
  0
POINT
  8
2
 10
-2424.173279
 20
-3654.930420
  0
TEXT
  8
2
 10
-2424.173279
 20
-3654.930420
 40
0.000000
 50
0.000000
  1
# 66
  0
POINT
  8
2
 10
-2454.642334
 20
-3743.243713
  0
TEXT
  8
2
 10
-2454.642334
 20
-3743.243713
 40
0.000000
 50
0.000000
  1
# 67
  0
POINT
  8
2
 10
-2492.649536
 20
-3918.608704
  0
TEXT
  8
2
 10
-2492.649536
 20
-3918.608704
 40
0.000000
 50
0.000000
  1
# 68
  0
POINT
  8
2
 10
-2534.847412
 20
-4072.680969
  0
TEXT
  8
2
 10
-2534.847412
 20
-4072.680969
 40
0.000000
 50
0.000000
  1
# 69
  0
POINT
  8
2
 10
-2700.467834
 20
-4013.039551
  0
TEXT
  8
2
 10
-2700.467834
 20
-4013.039551
 40
0.000000
 50
0.000000
  1
# 70
  0
POINT
  8
3
 10
-2686.121501
 20
-3973.761799
  0
POINT
  8
3
 10
-2676.579009
 20
-3948.533080
  0
POINT
  8
3
 10
-2667.351081
 20
-3925.334321
  0
POINT
  8
3
 10
-2664.945679
 20
-3919.436035
  0
POINT
  8
3
 10
-2655.906193
 20
-3897.649312
  0
POINT
  8
3
 10
-2646.426851
 20
-3875.768637
  0
POINT
  8
3
 10
-2626.694999
 20
-3832.360820
  0
POINT
  8
3
 10
-2619.824625
 20
-3816.701414
  0
POINT
  8
3
 10
-2614.834114
 20
-3804.437322
  0
POINT
  8
3
 10
-2612.183713
 20
-3797.091842
  0
POINT
  8
3
 10
-2610.269881
 20
-3790.482809
  0
POINT
  8
3
 10
-2608.908540
 20
-3784.133860
  0
POINT
  8
3
 10
-2607.816124
 20
-3776.885516
  0
POINT
  8
3
 10
-2607.142944
 20
-3769.981689
  0
POINT
  8
3
 10
-2607.026000
 20
-3768.313476
  0
POINT
  8
3
 10
-2606.627306
 20
-3758.259261
  0
POINT
  8
3
 10
-2606.703866
 20
-3725.721336
  0
POINT
  8
3
 10
-2606.794598
 20
-3677.304110
  0
POINT
  8
3
 10
-2606.884155
 20
-3632.516785
  0
POINT
  8
3
 10
-2606.894353
 20
-3627.094707
  0
POINT
  8
3
 10
-2606.973062
 20
-3576.642284
  0
POINT
  8
3
 10
-2462.200330
 20
-3582.876890
  0
TEXT
  8
3
 10
-2462.200330
 20
-3582.876890
 40
0.000000
 50
0.000000
  1
# 71
  0
POINT
  8
3
 10
-2463.835273
 20
-3606.370849
  0
TEXT
  8
3
 10
-2463.835273
 20
-3606.370849
 40
0.000000
 50
0.000000
  1
# 72
  0
POINT
  8
3
 10
-2459.544063
 20
-3630.851744
  0
TEXT
  8
3
 10
-2459.544063
 20
-3630.851744
 40
0.000000
 50
0.000000
  1
# 73
  0
POINT
  8
4
 10
-2664.945679
 20
-3919.436035
 30
0.600000
 50
337.75
  0
TEXT
  8
4
 10
-2664.945679
 20
-3919.436035
 40
0.000000
 50
0.000000
  1
# 74
  0
POINT
  8
4
 10
-2607.142944
 20
-3769.981689
 30
0.600000
 50
355.71
  0
TEXT
  8
4
 10
-2607.142944
 20
-3769.981689
 40
0.000000
 50
0.000000
  1
# 75
  0
POINT
  8
4
 10
-2606.884155
 20
-3632.516785
 30
0.600000
 50
  0.11
  0
TEXT
  8
4
 10
-2606.884155
 20
-3632.516785
 40
0.000000
 50
0.000000
  1
# 76
  0
POINT
  8
4
 10
-2559.123688
 20
-3506.140137
 30
0.600000
 50
314.56
  0
TEXT
  8
4
 10
-2559.123688
 20
-3506.140137
 40
0.000000
 50
0.000000
  1
# 77
  0
POINT
  8
4
 10
-2459.678802
 20
-3569.278564
 30
0.600000
 50
166.89
  0
TEXT
  8
4
 10
-2459.678802
 20
-3569.278564
 40
0.000000
 50
0.000000
  1
# 78
  0
POINT
  8
4
 10
-2463.793335
 20
-3599.928284
 30
0.600000
 50
178.95
  0
TEXT
  8
4
 10
-2463.793335
 20
-3599.928284
 40
0.000000
 50
0.000000
  1
# 79
  0
POINT
  8
4
 10
-2454.642334
 20
-3743.243713
 30
0.600000
 50
161.16
  0
TEXT
  8
4
 10
-2454.642334
 20
-3743.243713
 40
0.000000
 50
0.000000
  1
# 80
  0
POINT
  8
4
 10
-2492.649536
 20
-3918.608704
 30
0.600000
 50
170.56
  0
TEXT
  8
4
 10
-2492.649536
 20
-3918.608704
 40
0.000000
 50
0.000000
  1
# 81
  0
POINT
  8
4
 10
-2509.390259
 20
-3996.791382
 30
0.600000
 50
165.02
  0
TEXT
  8
4
 10
-2509.390259
 20
-3996.791382
 40
0.000000
 50
0.000000
  1
# 82
  0
POLYLINE
  8
11
  66
1
  70
0
  0
VERTEX
  8
1
  10
-2424.173279
  20
-3654.930420
  0
VERTEX
  8
1
  10
-2490.171905
  20
-3654.957523
  0
VERTEX
  8
1
  10
-2540.984711
  20
-3654.978390
  0
VERTEX
  8
1
  10
-2590.112683
  20
-3654.998565
  0
VERTEX
  8
1
  10
-2606.983337
  20
-3655.005493
  0
SEQEND
  8
11
  0
POINT
  8
2
 10
-2424.173279
 20
-3654.930420
  0
TEXT
  8
2
 10
-2424.173279
 20
-3654.930420
 40
0.000000
 50
0.000000
  1
# 83
  0
POINT
  8
2
 10
-2606.983337
 20
-3655.005493
  0
TEXT
  8
2
 10
-2606.983337
 20
-3655.005493
 40
0.000000
 50
0.000000
  1
# 84
  0
POINT
  8
3
 10
-2490.171905
 20
-3654.957523
  0
POINT
  8
3
 10
-2540.984711
 20
-3654.978390
  0
POINT
  8
3
 10
-2590.112683
 20
-3654.998565
  0
POLYLINE
  8
11
  6
2
  66
1
  70
0
  0
VERTEX
  8
1
  10
-2532.236481
  20
-3458.824463
  0
VERTEX
  8
1
  10
-2534.898071
  20
-3466.769714
  0
VERTEX
  8
1
  10
-2537.193298
  20
-3472.911682
  0
VERTEX
  8
1
  10
-2539.368439
  20
-3478.089905
  0
VERTEX
  8
1
  10
-2541.650391
  20
-3482.924805
  0
VERTEX
  8
1
  10
-2544.017639
  20
-3487.395020
  0
VERTEX
  8
1
  10
-2546.593781
  20
-3491.743469
  0
VERTEX
  8
1
  10
-2549.209900
  20
-3495.705872
  0
VERTEX
  8
1
  10
-2552.023163
  20
-3499.534302
  0
VERTEX
  8
1
  10
-2554.829712
  20
-3502.969666
  0
VERTEX
  8
1
  10
-2557.812500
  20
-3506.252441
  0
VERTEX
  8
1
  10
-2560.973206
  20
-3509.364929
  0
VERTEX
  8
1
  10
-2564.071045
  20
-3512.090454
  0
VERTEX
  8
1
  10
-2567.335205
  20
-3514.645081
  0
VERTEX
  8
1
  10
-2570.479736
  20
-3516.817017
  0
VERTEX
  8
1
  10
-2573.751831
  20
-3518.788757
  0
VERTEX
  8
1
  10
-2577.146912
  20
-3520.534363
  0
VERTEX
  8
1
  10
-2580.264893
  20
-3521.873474
  0
VERTEX
  8
1
  10
-2583.569031
  20
-3523.036499
  0
VERTEX
  8
1
  10
-2587.247620
  20
-3524.068604
  0
VERTEX
  8
1
  10
-2591.293945
  20
-3524.936218
  0
VERTEX
  8
1
  10
-2595.690002
  20
-3525.619202
  0
VERTEX
  8
1
  10
-2600.661316
  20
-3526.133118
  0
VERTEX
  8
1
  10
-2607.053833
  20
-3526.521301
  0
SEQEND
  8
11
  0
POINT
  8
2
 10
-2532.236481
 20
-3458.824463
  0
TEXT
  8
2
 10
-2532.236481
 20
-3458.824463
 40
0.000000
 50
0.000000
  1
# 85
  0
POINT
  8
2
 10
-2607.053833
 20
-3526.521301
  0
TEXT
  8
2
 10
-2607.053833
 20
-3526.521301
 40
0.000000
 50
0.000000
  1
# 86
  0
POLYLINE
  8
11
  6
2
  66
1
  70
0
  0
VERTEX
  8
1
  10
-2529.612579
  20
-3460.435791
  0
VERTEX
  8
1
  10
-2532.053680
  20
-3467.722473
  0
VERTEX
  8
1
  10
-2534.383240
  20
-3473.962097
  0
VERTEX
  8
1
  10
-2536.602783
  20
-3479.252014
  0
VERTEX
  8
1
  10
-2538.967133
  20
-3484.267883
  0
VERTEX
  8
1
  10
-2541.400146
  20
-3488.862305
  0
VERTEX
  8
1
  10
-2544.050140
  20
-3493.335266
  0
VERTEX
  8
1
  10
-2546.747894
  20
-3497.421570
  0
VERTEX
  8
1
  10
-2549.651337
  20
-3501.372681
  0
VERTEX
  8
1
  10
-2552.556458
  20
-3504.928589
  0
VERTEX
  8
1
  10
-2555.648346
  20
-3508.331299
  0
VERTEX
  8
1
  10
-2558.928223
  20
-3511.561584
  0
VERTEX
  8
1
  10
-2562.154236
  20
-3514.399719
  0
VERTEX
  8
1
  10
-2565.556946
  20
-3517.062378
  0
VERTEX
  8
1
  10
-2568.851318
  20
-3519.338379
  0
VERTEX
  8
1
  10
-2572.290039
  20
-3521.410217
  0
VERTEX
  8
1
  10
-2575.867615
  20
-3523.249817
  0
VERTEX
  8
1
  10
-2579.173889
  20
-3524.669800
  0
VERTEX
  8
1
  10
-2582.664795
  20
-3525.898743
  0
VERTEX
  8
1
  10
-2586.527405
  20
-3526.982117
  0
VERTEX
  8
1
  10
-2590.748596
  20
-3527.887268
  0
VERTEX
  8
1
  10
-2595.305176
  20
-3528.595276
  0
VERTEX
  8
1
  10
-2600.352783
  20
-3529.117126
  0
VERTEX
  8
1
  10
-2607.049255
  20
-3529.529419
  0
SEQEND
  8
11
  0
POINT
  8
2
 10
-2529.612579
 20
-3460.435791
  0
TEXT
  8
2
 10
-2529.612579
 20
-3460.435791
 40
0.000000
 50
0.000000
  1
# 87
  0
POINT
  8
2
 10
-2607.049255
 20
-3529.529419
  0
TEXT
  8
2
 10
-2607.049255
 20
-3529.529419
 40
0.000000
 50
0.000000
  1
# 88
  0
POLYLINE
  8
11
  66
1
  70
0
  0
VERTEX
  8
1
  10
-2612.799377
  20
-3801.238708
  0
VERTEX
  8
1
  10
-2553.314285
  20
-3813.567172
  0
VERTEX
  8
1
  10
-2502.048950
  20
-3824.192066
  0
VERTEX
  8
1
  10
-2481.539612
  20
-3828.442688
  0
SEQEND
  8
11
  0
POINT
  8
2
 10
-2612.799377
 20
-3801.238708
  0
TEXT
  8
2
 10
-2612.799377
 20
-3801.238708
 40
0.000000
 50
0.000000
  1
# 89
  0
POINT
  8
2
 10
-2481.539612
 20
-3828.442688
  0
TEXT
  8
2
 10
-2481.539612
 20
-3828.442688
 40
0.000000
 50
0.000000
  1
# 90
  0
POINT
  8
3
 10
-2553.314285
 20
-3813.567172
  0
POINT
  8
3
 10
-2502.048950
 20
-3824.192066
  0
POLYLINE
  8
11
  66
1
  70
0
  0
VERTEX
  8
1
  10
-2464.236755
  20
-3740.115967
  0
VERTEX
  8
1
  10
-2466.346741
  20
-3740.117798
  0
VERTEX
  8
1
  10
-2467.294312
  20
-3740.315857
  0
VERTEX
  8
1
  10
-2467.595825
  20
-3740.566101
  0
VERTEX
  8
1
  10
-2467.568970
  20
-3740.882568
  0
VERTEX
  8
1
  10
-2467.124023
  20
-3741.456299
  0
VERTEX
  8
1
  10
-2465.671692
  20
-3742.662048
  0
VERTEX
  8
1
  10
-2463.374023
  20
-3744.482727
  0
VERTEX
  8
1
  10
-2462.882385
  20
-3745.095825
  0
VERTEX
  8
1
  10
-2462.868652
  20
-3745.414124
  0
VERTEX
  8
1
  10
-2463.149719
  20
-3745.624390
  0
VERTEX
  8
1
  10
-2464.008484
  20
-3745.798340
  0
VERTEX
  8
1
  10
-2466.904907
  20
-3745.876465
  0
VERTEX
  8
1
  10
-2468.801575
  20
-3745.989990
  0
VERTEX
  8
1
  10
-2469.461670
  20
-3746.203003
  0
VERTEX
  8
1
  10
-2469.613342
  20
-3746.442261
  0
VERTEX
  8
1
  10
-2469.471436
  20
-3746.815491
  0
VERTEX
  8
1
  10
-2468.753052
  20
-3747.554626
  0
VERTEX
  8
1
  10
-2465.207520
  20
-3750.389099
  0
VERTEX
  8
1
  10
-2464.845886
  20
-3750.910034
  0
VERTEX
  8
1
  10
-2464.869995
  20
-3751.190796
  0
VERTEX
  8
1
  10
-2465.212097
  20
-3751.406250
  0
VERTEX
  8
1
  10
-2466.243591
  20
-3751.574402
  0
VERTEX
  8
1
  10
-2470.839844
  20
-3751.754456
  0
VERTEX
  8
1
  10
-2471.449280
  20
-3751.959229
  0
VERTEX
  8
1
  10
-2471.601257
  20
-3752.198486
  0
VERTEX
  8
1
  10
-2471.459351
  20
-3752.572327
  0
VERTEX
  8
1
  10
-2470.740051
  20
-3753.310547
  0
VERTEX
  8
1
  10
-2467.194519
  20
-3756.143494
  0
VERTEX
  8
1
  10
-2466.832886
  20
-3756.663818
  0
VERTEX
  8
1
  10
-2466.856689
  20
-3756.944885
  0
VERTEX
  8
1
  10
-2467.198792
  20
-3757.160950
  0
VERTEX
  8
1
  10
-2468.229980
  20
-3757.329102
  0
VERTEX
  8
1
  10
-2472.826843
  20
-3757.509766
  0
VERTEX
  8
1
  10
-2473.436890
  20
-3757.714539
  0
VERTEX
  8
1
  10
-2473.588562
  20
-3757.953796
  0
VERTEX
  8
1
  10
-2473.446655
  20
-3758.327026
  0
VERTEX
  8
1
  10
-2472.727661
  20
-3759.065857
  0
VERTEX
  8
1
  10
-2469.181213
  20
-3761.898804
  0
VERTEX
  8
1
  10
-2468.819580
  20
-3762.419434
  0
VERTEX
  8
1
  10
-2468.843689
  20
-3762.699890
  0
VERTEX
  8
1
  10
-2469.185791
  20
-3762.915649
  0
VERTEX
  8
1
  10
-2470.216980
  20
-3763.084106
  0
VERTEX
  8
1
  10
-2474.813232
  20
-3763.264465
  0
VERTEX
  8
1
  10
-2475.422668
  20
-3763.468933
  0
VERTEX
  8
1
  10
-2475.574646
  20
-3763.708191
  0
VERTEX
  8
1
  10
-2475.433350
  20
-3764.082031
  0
VERTEX
  8
1
  10
-2474.714661
  20
-3764.820557
  0
VERTEX
  8
1
  10
-2471.167603
  20
-3767.653809
  0
VERTEX
  8
1
  10
-2470.805664
  20
-3768.174438
  0
VERTEX
  8
1
  10
-2470.829468
  20
-3768.455200
  0
VERTEX
  8
1
  10
-2471.171875
  20
-3768.671265
  0
VERTEX
  8
1
  10
-2472.203064
  20
-3768.839417
  0
VERTEX
  8
1
  10
-2476.799927
  20
-3769.020691
  0
VERTEX
  8
1
  10
-2477.409363
  20
-3769.225464
  0
VERTEX
  8
1
  10
-2477.561035
  20
-3769.464722
  0
VERTEX
  8
1
  10
-2477.419434
  20
-3769.838257
  0
VERTEX
  8
1
  10
-2476.700134
  20
-3770.577393
  0
VERTEX
  8
1
  10
-2473.118591
  20
-3773.445129
  0
VERTEX
  8
1
  10
-2472.781982
  20
-3773.957214
  0
VERTEX
  8
1
  10
-2472.828979
  20
-3774.229736
  0
VERTEX
  8
1
  10
-2473.194580
  20
-3774.438477
  0
VERTEX
  8
1
  10
-2474.251099
  20
-3774.599304
  0
VERTEX
  8
1
  10
-2478.782959
  20
-3774.781494
  0
VERTEX
  8
1
  10
-2479.392395
  20
-3774.987183
  0
VERTEX
  8
1
  10
-2479.544067
  20
-3775.227051
  0
VERTEX
  8
1
  10
-2479.401550
  20
-3775.600586
  0
VERTEX
  8
1
  10
-2478.681641
  20
-3776.337891
  0
VERTEX
  8
1
  10
-2475.091858
  20
-3779.197388
  0
VERTEX
  8
1
  10
-2474.754028
  20
-3779.707947
  0
VERTEX
  8
1
  10
-2474.800415
  20
-3779.980469
  0
VERTEX
  8
1
  10
-2475.165100
  20
-3780.189819
  0
VERTEX
  8
1
  10
-2476.221008
  20
-3780.353394
  0
VERTEX
  8
1
  10
-2480.701294
  20
-3780.544739
  0
VERTEX
  8
1
  10
-2481.360779
  20
-3780.762329
  0
VERTEX
  8
1
  10
-2481.511536
  20
-3781.003418
  0
VERTEX
  8
1
  10
-2481.367798
  20
-3781.376038
  0
VERTEX
  8
1
  10
-2480.643921
  20
-3782.110291
  0
VERTEX
  8
1
  10
-2477.041321
  20
-3784.952087
  0
VERTEX
  8
1
  10
-2476.700134
  20
-3785.461121
  0
VERTEX
  8
1
  10
-2476.744995
  20
-3785.733948
  0
VERTEX
  8
1
  10
-2477.108765
  20
-3785.944824
  0
VERTEX
  8
1
  10
-2478.164063
  20
-3786.113586
  0
VERTEX
  8
1
  10
-2482.641296
  20
-3786.329956
  0
VERTEX
  8
1
  10
-2483.299561
  20
-3786.552124
  0
VERTEX
  8
1
  10
-2483.449097
  20
-3786.794128
  0
VERTEX
  8
1
  10
-2483.303223
  20
-3787.166443
  0
VERTEX
  8
1
  10
-2482.575378
  20
-3787.896118
  0
VERTEX
  8
1
  10
-2478.950500
  20
-3790.711975
  0
VERTEX
  8
1
  10
-2478.605652
  20
-3791.217957
  0
VERTEX
  8
1
  10
-2478.648071
  20
-3791.490479
  0
VERTEX
  8
1
  10
-2479.010010
  20
-3791.704102
  0
VERTEX
  8
1
  10
-2480.063782
  20
-3791.881409
  0
VERTEX
  8
1
  10
-2484.539490
  20
-3792.135925
  0
VERTEX
  8
1
  10
-2485.195923
  20
-3792.364197
  0
VERTEX
  8
1
  10
-2485.343628
  20
-3792.608032
  0
VERTEX
  8
1
  10
-2485.194092
  20
-3792.978821
  0
VERTEX
  8
1
  10
-2484.459534
  20
-3793.702087
  0
VERTEX
  8
1
  10
-2480.806580
  20
-3796.482849
  0
VERTEX
  8
1
  10
-2480.456238
  20
-3796.984863
  0
VERTEX
  8
1
  10
-2480.496216
  20
-3797.257385
  0
VERTEX
  8
1
  10
-2480.856018
  20
-3797.474365
  0
VERTEX
  8
1
  10
-2481.908264
  20
-3797.661743
  0
VERTEX
  8
1
  10
-2486.380005
  20
-3797.964172
  0
VERTEX
  8
1
  10
-2487.033691
  20
-3798.200073
  0
VERTEX
  8
1
  10
-2487.178650
  20
-3798.446045
  0
VERTEX
  8
1
  10
-2487.024841
  20
-3798.815308
  0
VERTEX
  8
1
  10
-2486.282043
  20
-3799.530029
  0
VERTEX
  8
1
  10
-2482.594910
  20
-3802.265930
  0
VERTEX
  8
1
  10
-2482.238464
  20
-3802.763367
  0
VERTEX
  8
1
  10
-2482.274475
  20
-3803.036194
  0
VERTEX
  8
1
  10
-2482.631531
  20
-3803.257446
  0
VERTEX
  8
1
  10
-2483.681030
  20
-3803.458862
  0
VERTEX
  8
1
  10
-2488.148499
  20
-3803.821106
  0
VERTEX
  8
1
  10
-2488.799438
  20
-3804.065857
  0
VERTEX
  8
1
  10
-2488.940735
  20
-3804.313660
  0
VERTEX
  8
1
  10
-2488.782349
  20
-3804.681396
  0
VERTEX
  8
1
  10
-2488.078613
  20
-3805.347595
  0
VERTEX
  8
1
  10
-2484.267578
  20
-3808.101807
  0
VERTEX
  8
1
  10
-2483.930359
  20
-3808.586121
  0
VERTEX
  8
1
  10
-2483.985596
  20
-3808.852539
  0
VERTEX
  8
1
  10
-2484.403687
  20
-3809.086304
  0
VERTEX
  8
1
  10
-2485.632019
  20
-3809.304810
  0
VERTEX
  8
1
  10
-2489.726868
  20
-3809.684143
  0
VERTEX
  8
1
  10
-2490.452881
  20
-3809.943542
  0
VERTEX
  8
1
  10
-2490.614014
  20
-3810.188293
  0
VERTEX
  8
1
  10
-2490.494995
  20
-3810.516663
  0
VERTEX
  8
1
  10
-2489.877319
  20
-3811.121521
  0
VERTEX
  8
1
  10
-2487.757874
  20
-3812.565308
  0
VERTEX
  8
1
  10
-2486.025696
  20
-3813.787842
  0
VERTEX
  8
1
  10
-2485.562439
  20
-3814.320374
  0
VERTEX
  8
1
  10
-2485.542908
  20
-3814.605103
  0
VERTEX
  8
1
  10
-2485.809937
  20
-3814.832764
  0
VERTEX
  8
1
  10
-2486.714172
  20
-3815.075989
  0
VERTEX
  8
1
  10
-2491.460876
  20
-3815.637817
  0
VERTEX
  8
1
  10
-2492.052612
  20
-3815.892944
  0
VERTEX
  8
1
  10
-2492.185974
  20
-3816.147156
  0
VERTEX
  8
1
  10
-2492.013855
  20
-3816.509094
  0
VERTEX
  8
1
  10
-2491.287537
  20
-3817.150269
  0
VERTEX
  8
1
  10
-2487.376709
  20
-3819.764709
  0
VERTEX
  8
1
  10
-2487.021484
  20
-3820.235291
  0
VERTEX
  8
1
  10
-2487.067261
  20
-3820.502930
  0
VERTEX
  8
1
  10
-2487.476501
  20
-3820.751953
  0
VERTEX
  8
1
  10
-2488.683777
  20
-3821.015015
  0
VERTEX
  8
1
  10
-2492.665710
  20
-3821.538086
  0
VERTEX
  8
1
  10
-2493.400879
  20
-3821.820374
  0
VERTEX
  8
1
  10
-2493.573303
  20
-3822.066650
  0
VERTEX
  8
1
  10
-2493.461304
  20
-3822.385559
  0
VERTEX
  8
1
  10
-2492.837219
  20
-3822.960510
  0
VERTEX
  8
1
  10
-2490.912781
  20
-3824.161987
  0
VERTEX
  8
1
  10
-2488.825073
  20
-3825.466919
  0
VERTEX
  8
1
  10
-2488.290405
  20
-3826.011353
  0
VERTEX
  8
1
  10
-2488.255920
  20
-3826.293945
  0
VERTEX
  8
1
  10
-2488.509216
  20
-3826.532593
  0
VERTEX
  8
1
  10
-2489.392700
  20
-3826.813354
  0
VERTEX
  8
1
  10
-2494.063721
  20
-3827.579651
  0
VERTEX
  8
1
  10
-2494.637146
  20
-3827.860718
  0
VERTEX
  8
1
  10
-2494.756165
  20
-3828.119812
  0
VERTEX
  8
1
  10
-2494.564209
  20
-3828.474426
  0
VERTEX
  8
1
  10
-2493.799744
  20
-3829.082336
  0
VERTEX
  8
1
  10
-2489.726257
  20
-3831.517029
  0
VERTEX
  8
1
  10
-2489.343567
  20
-3831.971436
  0
VERTEX
  8
1
  10
-2489.374084
  20
-3832.240295
  0
VERTEX
  8
1
  10
-2489.766541
  20
-3832.507324
  0
VERTEX
  8
1
  10
-2490.960388
  20
-3832.825317
  0
VERTEX
  8
1
  10
-2494.914856
  20
-3833.527527
  0
VERTEX
  8
1
  10
-2495.636902
  20
-3833.842773
  0
VERTEX
  8
1
  10
-2495.797424
  20
-3834.096375
  0
VERTEX
  8
1
  10
-2495.670776
  20
-3834.409790
  0
VERTEX
  8
1
  10
-2495.021057
  20
-3834.956055
  0
VERTEX
  8
1
  10
-2493.044434
  20
-3836.071777
  0
VERTEX
  8
1
  10
-2490.901489
  20
-3837.285461
  0
VERTEX
  8
1
  10
-2490.343323
  20
-3837.807007
  0
VERTEX
  8
1
  10
-2490.296326
  20
-3838.088074
  0
VERTEX
  8
1
  10
-2490.538635
  20
-3838.338013
  0
VERTEX
  8
1
  10
-2491.408997
  20
-3838.657227
  0
VERTEX
  8
1
  10
-2496.092529
  20
-3839.632568
  0
VERTEX
  8
1
  10
-2496.627808
  20
-3839.939270
  0
VERTEX
  8
1
  10
-2496.711121
  20
-3840.206299
  0
VERTEX
  8
1
  10
-2496.480103
  20
-3840.555725
  0
VERTEX
  8
1
  10
-2495.611572
  20
-3841.168823
  0
VERTEX
  8
1
  10
-2491.597290
  20
-3843.357239
  0
VERTEX
  8
1
  10
-2491.170959
  20
-3843.802490
  0
VERTEX
  8
1
  10
-2491.167603
  20
-3844.077148
  0
VERTEX
  8
1
  10
-2491.487732
  20
-3844.342957
  0
VERTEX
  8
1
  10
-2492.490540
  20
-3844.680176
  0
VERTEX
  8
1
  10
-2496.776123
  20
-3845.610046
  0
VERTEX
  8
1
  10
-2497.408142
  20
-3845.935059
  0
VERTEX
  8
1
  10
-2497.536011
  20
-3846.195984
  0
VERTEX
  8
1
  10
-2497.375183
  20
-3846.507874
  0
VERTEX
  8
1
  10
-2496.681519
  20
-3847.036133
  0
VERTEX
  8
1
  10
-2494.314575
  20
-3848.255310
  0
VERTEX
  8
1
  10
-2492.499084
  20
-3849.238281
  0
VERTEX
  8
1
  10
-2491.970825
  20
-3849.715271
  0
VERTEX
  8
1
  10
-2491.914673
  20
-3849.996948
  0
VERTEX
  8
1
  10
-2492.150269
  20
-3850.254211
  0
VERTEX
  8
1
  10
-2492.953491
  20
-3850.581665
  0
VERTEX
  8
1
  10
-2497.711792
  20
-3851.715088
  0
VERTEX
  8
1
  10
-2498.211365
  20
-3852.038269
  0
VERTEX
  8
1
  10
-2498.263245
  20
-3852.308960
  0
VERTEX
  8
1
  10
-2497.967529
  20
-3852.683105
  0
VERTEX
  8
1
  10
-2496.974792
  20
-3853.312683
  0
VERTEX
  8
1
  10
-2493.165894
  20
-3855.256958
  0
VERTEX
  8
1
  10
-2492.660522
  20
-3855.726013
  0
VERTEX
  8
1
  10
-2492.626038
  20
-3856.004028
  0
VERTEX
  8
1
  10
-2492.915649
  20
-3856.281128
  0
VERTEX
  8
1
  10
-2493.884583
  20
-3856.643372
  0
VERTEX
  8
1
  10
-2498.308716
  20
-3857.712097
  0
VERTEX
  8
1
  10
-2498.859253
  20
-3858.032532
  0
VERTEX
  8
1
  10
-2498.957825
  20
-3858.297729
  0
VERTEX
  8
1
  10
-2498.739624
  20
-3858.636169
  0
VERTEX
  8
1
  10
-2497.877197
  20
-3859.218140
  0
VERTEX
  8
1
  10
-2493.742981
  20
-3861.314697
  0
VERTEX
  8
1
  10
-2493.303528
  20
-3861.748352
  0
VERTEX
  8
1
  10
-2493.291931
  20
-3862.023926
  0
VERTEX
  8
1
  10
-2493.603516
  20
-3862.299805
  0
VERTEX
  8
1
  10
-2494.596558
  20
-3862.666321
  0
VERTEX
  8
1
  10
-2498.954773
  20
-3863.743591
  0
VERTEX
  8
1
  10
-2499.503479
  20
-3864.066162
  0
VERTEX
  8
1
  10
-2499.600525
  20
-3864.331665
  0
VERTEX
  8
1
  10
-2499.380493
  20
-3864.668579
  0
VERTEX
  8
1
  10
-2498.515015
  20
-3865.246277
  0
VERTEX
  8
1
  10
-2494.372559
  20
-3867.325745
  0
VERTEX
  8
1
  10
-2493.931580
  20
-3867.757874
  0
VERTEX
  8
1
  10
-2493.919373
  20
-3868.034058
  0
VERTEX
  8
1
  10
-2494.230042
  20
-3868.311462
  0
VERTEX
  8
1
  10
-2495.220642
  20
-3868.681335
  0
VERTEX
  8
1
  10
-2499.577026
  20
-3869.770203
  0
VERTEX
  8
1
  10
-2500.125122
  20
-3870.093994
  0
VERTEX
  8
1
  10
-2500.220947
  20
-3870.358887
  0
VERTEX
  8
1
  10
-2500.000916
  20
-3870.695496
  0
VERTEX
  8
1
  10
-2499.133606
  20
-3871.271057
  0
VERTEX
  8
1
  10
-2495.030823
  20
-3873.316956
  0
VERTEX
  8
1
  10
-2494.562988
  20
-3873.752441
  0
VERTEX
  8
1
  10
-2494.525146
  20
-3874.031677
  0
VERTEX
  8
1
  10
-2494.811401
  20
-3874.311829
  0
VERTEX
  8
1
  10
-2495.775757
  20
-3874.685669
  0
VERTEX
  8
1
  10
-2500.239868
  20
-3875.809021
  0
VERTEX
  8
1
  10
-2500.761108
  20
-3876.134949
  0
VERTEX
  8
1
  10
-2500.832825
  20
-3876.401978
  0
VERTEX
  8
1
  10
-2500.588074
  20
-3876.741028
  0
VERTEX
  8
1
  10
-2499.695129
  20
-3877.320251
  0
VERTEX
  8
1
  10
-2495.652771
  20
-3879.343567
  0
VERTEX
  8
1
  10
-2495.185242
  20
-3879.779968
  0
VERTEX
  8
1
  10
-2495.148621
  20
-3880.060120
  0
VERTEX
  8
1
  10
-2495.435486
  20
-3880.339966
  0
VERTEX
  8
1
  10
-2496.400757
  20
-3880.711365
  0
VERTEX
  8
1
  10
-2500.868530
  20
-3881.820374
  0
VERTEX
  8
1
  10
-2501.390991
  20
-3882.143860
  0
VERTEX
  8
1
  10
-2501.464233
  20
-3882.409973
  0
VERTEX
  8
1
  10
-2501.220703
  20
-3882.750244
  0
VERTEX
  8
1
  10
-2500.330200
  20
-3883.332520
  0
VERTEX
  8
1
  10
-2496.340027
  20
-3885.346069
  0
VERTEX
  8
1
  10
-2495.833130
  20
-3885.814819
  0
VERTEX
  8
1
  10
-2495.797729
  20
-3886.094971
  0
VERTEX
  8
1
  10
-2496.086121
  20
-3886.373596
  0
VERTEX
  8
1
  10
-2497.053528
  20
-3886.739197
  0
VERTEX
  8
1
  10
-2501.527405
  20
-3887.822571
  0
VERTEX
  8
1
  10
-2502.051697
  20
-3888.143005
  0
VERTEX
  8
1
  10
-2502.125854
  20
-3888.409119
  0
VERTEX
  8
1
  10
-2501.884460
  20
-3888.750305
  0
VERTEX
  8
1
  10
-2500.997314
  20
-3889.337463
  0
VERTEX
  8
1
  10
-2497.018738
  20
-3891.373291
  0
VERTEX
  8
1
  10
-2496.513977
  20
-3891.844788
  0
VERTEX
  8
1
  10
-2496.480103
  20
-3892.125854
  0
VERTEX
  8
1
  10
-2496.770325
  20
-3892.402649
  0
VERTEX
  8
1
  10
-2497.739563
  20
-3892.763367
  0
VERTEX
  8
1
  10
-2502.218323
  20
-3893.824463
  0
VERTEX
  8
1
  10
-2502.744751
  20
-3894.142761
  0
VERTEX
  8
1
  10
-2502.820435
  20
-3894.408569
  0
VERTEX
  8
1
  10
-2502.580566
  20
-3894.750977
  0
VERTEX
  8
1
  10
-2501.695862
  20
-3895.342407
  0
VERTEX
  8
1
  10
-2497.684631
  20
-3897.423706
  0
VERTEX
  8
1
  10
-2497.224121
  20
-3897.867737
  0
VERTEX
  8
1
  10
-2497.191772
  20
-3898.148193
  0
VERTEX
  8
1
  10
-2497.482300
  20
-3898.423462
  0
VERTEX
  8
1
  10
-2498.453369
  20
-3898.780518
  0
VERTEX
  8
1
  10
-2502.937012
  20
-3899.823608
  0
VERTEX
  8
1
  10
-2503.464661
  20
-3900.139465
  0
VERTEX
  8
1
  10
-2503.541260
  20
-3900.404968
  0
VERTEX
  8
1
  10
-2503.303223
  20
-3900.747986
  0
VERTEX
  8
1
  10
-2502.421265
  20
-3901.343689
  0
VERTEX
  8
1
  10
-2498.418274
  20
-3903.441467
  0
VERTEX
  8
1
  10
-2497.959595
  20
-3903.887024
  0
VERTEX
  8
1
  10
-2497.928162
  20
-3904.167480
  0
VERTEX
  8
1
  10
-2498.219910
  20
-3904.441833
  0
VERTEX
  8
1
  10
-2499.192505
  20
-3904.794617
  0
VERTEX
  8
1
  10
-2503.680115
  20
-3905.819702
  0
VERTEX
  8
1
  10
-2504.208374
  20
-3906.133728
  0
VERTEX
  8
1
  10
-2504.286804
  20
-3906.398621
  0
VERTEX
  8
1
  10
-2504.049683
  20
-3906.743469
  0
VERTEX
  8
1
  10
-2503.170471
  20
-3907.341919
  0
VERTEX
  8
1
  10
-2499.175110
  20
-3909.454956
  0
VERTEX
  8
1
  10
-2498.717957
  20
-3909.902039
  0
VERTEX
  8
1
  10
-2498.687439
  20
-3910.183105
  0
VERTEX
  8
1
  10
-2498.980103
  20
-3910.456543
  0
VERTEX
  8
1
  10
-2499.953613
  20
-3910.805969
  0
VERTEX
  8
1
  10
-2504.447632
  20
-3911.814575
  0
VERTEX
  8
1
  10
-2504.976501
  20
-3912.126770
  0
VERTEX
  8
1
  10
-2505.053711
  20
-3912.391663
  0
VERTEX
  8
1
  10
-2504.814148
  20
-3912.736816
  0
VERTEX
  8
1
  10
-2503.933105
  20
-3913.338623
  0
VERTEX
  8
1
  10
-2500.024109
  20
-3915.432434
  0
VERTEX
  8
1
  10
-2499.516602
  20
-3915.913696
  0
VERTEX
  8
1
  10
-2499.469910
  20
-3916.221619
  0
VERTEX
  8
1
  10
-2499.729004
  20
-3916.494446
  0
VERTEX
  8
1
  10
-2500.535278
  20
-3916.822205
  0
VERTEX
  8
1
  10
-2502.651062
  20
-3917.207336
  0
SEQEND
  8
11
  0
POINT
  8
2
 10
-2464.236755
 20
-3740.115967
  0
TEXT
  8
2
 10
-2464.236755
 20
-3740.115967
 40
0.000000
 50
0.000000
  1
# 91
  0
POINT
  8
2
 10
-2502.651062
 20
-3917.207336
  0
TEXT
  8
2
 10
-2502.651062
 20
-3917.207336
 40
0.000000
 50
0.000000
  1
# 92
  0
POLYLINE
  8
11
  6
2
  66
1
  70
0
  0
VERTEX
  8
1
  10
-2530.775604
  20
-4061.390686
  0
VERTEX
  8
1
  10
-2582.607727
  20
-4044.103394
  0
VERTEX
  8
1
  10
-2614.424744
  20
-4032.896423
  0
VERTEX
  8
1
  10
-2665.990295
  20
-4013.734436
  0
VERTEX
  8
1
  10
-2696.364136
  20
-4001.762390
  0
SEQEND
  8
11
  0
POINT
  8
2
 10
-2530.775604
 20
-4061.390686
  0
TEXT
  8
2
 10
-2530.775604
 20
-4061.390686
 40
0.000000
 50
0.000000
  1
# 93
  0
POINT
  8
2
 10
-2696.364136
 20
-4001.762390
  0
TEXT
  8
2
 10
-2696.364136
 20
-4001.762390
 40
0.000000
 50
0.000000
  1
# 94
  0
POLYLINE
  8
11
  6
2
  66
1
  70
0
  0
VERTEX
  8
1
  10
-2529.757690
  20
-4058.568420
  0
VERTEX
  8
1
  10
-2581.658630
  20
-4041.258240
  0
VERTEX
  8
1
  10
-2613.428345
  20
-4030.067444
  0
VERTEX
  8
1
  10
-2664.945679
  20
-4010.922852
  0
VERTEX
  8
1
  10
-2695.338135
  20
-3998.943481
  0
SEQEND
  8
11
  0
POINT
  8
2
 10
-2529.757690
 20
-4058.568420
  0
TEXT
  8
2
 10
-2529.757690
 20
-4058.568420
 40
0.000000
 50
0.000000
  1
# 95
  0
POINT
  8
2
 10
-2695.338135
 20
-3998.943481
  0
TEXT
  8
2
 10
-2695.338135
 20
-3998.943481
 40
0.000000
 50
0.000000
  1
# 96
 0
LINE
 8
7
 10
-2543.659973
 20
-3623.930359
 11
-2543.659973
 21
-3827.163086
  0
TEXT
  8
1
 10
-2562.843094
 20
-3768.045502
 40
10.000000
 50
0.000000
  1
PIECE NAME: C2490335.前身片
  0
TEXT
  8
1
 10
-2562.843094
 20
-3753.045502
 40
10.000000
 50
0.000000
  1
Size: M
  0
TEXT
  8
1
 10
-2562.843094
 20
-3738.045502
 40
10.000000
 50
0.000000
  1
ANNOTATION: 面料A X2
  0
TEXT
  8
1
 10
-2562.843094
 20
-3723.045502
 40
10.000000
 50
0.000000
  1
QUANTITY: 1,1
  0
TEXT
  8
1
 10
-2562.843094
 20
-3708.045502
 40
10.000000
 50
0.000000
  1
FABRIC: 面料A
  0
TEXT
  8
1
 10
-2562.843094
 20
-3693.045502
 40
10.000000
 50
0.000000
  1
CATEGORY: 前身片
  0
TEXT
  8
1
 10
-2562.843094
 20
-3678.045502
 40
10.000000
 50
0.000000
  1
SHRINKAGE: 经:0.0%，纬:1.0%
0
ENDBLK
0
BLOCK
  8
1
  2
C2490335.领_面料A_M
 70
0
 10
0.0
 20
0.0
  0
POLYLINE
  8
1
  66
1
  70
1
  0
VERTEX
  8
1
  10
-2848.556030
  20
-3327.541016
  0
VERTEX
  8
1
  10
-2848.556030
  20
-3308.541260
  0
VERTEX
  8
1
  10
-2848.556030
  20
-3289.541504
  0
VERTEX
  8
1
  10
-2826.518555
  20
-3289.541504
  0
VERTEX
  8
1
  10
-2812.453308
  20
-3289.541504
  0
VERTEX
  8
1
  10
-2798.480225
  20
-3289.541504
  0
VERTEX
  8
1
  10
-2784.735107
  20
-3289.541504
  0
VERTEX
  8
1
  10
-2778.742981
  20
-3289.541504
  0
VERTEX
  8
1
  10
-2764.399414
  20
-3289.541504
  0
VERTEX
  8
1
  10
-2750.553589
  20
-3289.541504
  0
VERTEX
  8
1
  10
-2736.604309
  20
-3289.541504
  0
VERTEX
  8
1
  10
-2722.941895
  20
-3289.541504
  0
VERTEX
  8
1
  10
-2716.931152
  20
-3289.541504
  0
VERTEX
  8
1
  10
-2702.800598
  20
-3289.541504
  0
VERTEX
  8
1
  10
-2689.140625
  20
-3289.541504
  0
VERTEX
  8
1
  10
-2674.616699
  20
-3289.541504
  0
VERTEX
  8
1
  10
-2670.009460
  20
-3289.541504
  0
VERTEX
  8
1
  10
-2660.917664
  20
-3289.541504
  0
VERTEX
  8
1
  10
-2646.952820
  20
-3289.541504
  0
VERTEX
  8
1
  10
-2633.312683
  20
-3289.541504
  0
VERTEX
  8
1
  10
-2628.558960
  20
-3289.541504
  0
VERTEX
  8
1
  10
-2614.226685
  20
-3289.541504
  0
VERTEX
  8
1
  10
-2600.357971
  20
-3289.541504
  0
VERTEX
  8
1
  10
-2587.108459
  20
-3289.541504
  0
VERTEX
  8
1
  10
-2586.354370
  20
-3289.541504
  0
VERTEX
  8
1
  10
-2572.453308
  20
-3289.541504
  0
VERTEX
  8
1
  10
-2558.374023
  20
-3289.541504
  0
VERTEX
  8
1
  10
-2544.753723
  20
-3289.541504
  0
VERTEX
  8
1
  10
-2532.185852
  20
-3289.541504
  0
VERTEX
  8
1
  10
-2532.185852
  20
-3308.541260
  0
VERTEX
  8
1
  10
-2532.185852
  20
-3327.541016
  0
VERTEX
  8
1
  10
-2544.753723
  20
-3327.541016
  0
VERTEX
  8
1
  10
-2558.374023
  20
-3327.541016
  0
VERTEX
  8
1
  10
-2572.453308
  20
-3327.541016
  0
VERTEX
  8
1
  10
-2586.354370
  20
-3327.541016
  0
VERTEX
  8
1
  10
-2587.108459
  20
-3327.541016
  0
VERTEX
  8
1
  10
-2587.108459
  20
-3327.541016
  0
VERTEX
  8
1
  10
-2600.357971
  20
-3327.541016
  0
VERTEX
  8
1
  10
-2614.226685
  20
-3327.541016
  0
VERTEX
  8
1
  10
-2628.558960
  20
-3327.541016
  0
VERTEX
  8
1
  10
-2628.558960
  20
-3327.541016
  0
VERTEX
  8
1
  10
-2633.312683
  20
-3327.541016
  0
VERTEX
  8
1
  10
-2646.952820
  20
-3327.541016
  0
VERTEX
  8
1
  10
-2660.917664
  20
-3327.541016
  0
VERTEX
  8
1
  10
-2670.009460
  20
-3327.541016
  0
VERTEX
  8
1
  10
-2670.009460
  20
-3327.541016
  0
VERTEX
  8
1
  10
-2674.616699
  20
-3327.541016
  0
VERTEX
  8
1
  10
-2689.140625
  20
-3327.541016
  0
VERTEX
  8
1
  10
-2702.800598
  20
-3327.541016
  0
VERTEX
  8
1
  10
-2716.931152
  20
-3327.541016
  0
VERTEX
  8
1
  10
-2716.931152
  20
-3327.541016
  0
VERTEX
  8
1
  10
-2722.941895
  20
-3327.541016
  0
VERTEX
  8
1
  10
-2736.604309
  20
-3327.541016
  0
VERTEX
  8
1
  10
-2750.553589
  20
-3327.541016
  0
VERTEX
  8
1
  10
-2764.399414
  20
-3327.541016
  0
VERTEX
  8
1
  10
-2778.742981
  20
-3327.541016
  0
VERTEX
  8
1
  10
-2778.744812
  20
-3327.541016
  0
VERTEX
  8
1
  10
-2784.735107
  20
-3327.541016
  0
VERTEX
  8
1
  10
-2798.480225
  20
-3327.541016
  0
VERTEX
  8
1
  10
-2812.453308
  20
-3327.541016
  0
VERTEX
  8
1
  10
-2826.518555
  20
-3327.541016
  0
VERTEX
  8
1
  10
-2830.556030
  20
-3327.541016
  0
VERTEX
  8
1
  10
-2848.556030
  20
-3327.541016
  0
SEQEND
  8
1
  0
POINT
  8
2
 10
-2848.556030
 20
-3327.541016
  0
TEXT
  8
2
 10
-2848.556030
 20
-3327.541016
 40
0.000000
 50
0.000000
  1
# 97
  0
POINT
  8
2
 10
-2848.556030
 20
-3308.541260
  0
TEXT
  8
2
 10
-2848.556030
 20
-3308.541260
 40
0.000000
 50
0.000000
  1
# 98
  0
POINT
  8
2
 10
-2848.556030
 20
-3289.541504
  0
TEXT
  8
2
 10
-2848.556030
 20
-3289.541504
 40
0.000000
 50
0.000000
  1
# 99
  0
POINT
  8
2
 10
-2778.742981
 20
-3289.541504
  0
TEXT
  8
2
 10
-2778.742981
 20
-3289.541504
 40
0.000000
 50
0.000000
  1
# 100
  0
POINT
  8
2
 10
-2716.931152
 20
-3289.541504
  0
TEXT
  8
2
 10
-2716.931152
 20
-3289.541504
 40
0.000000
 50
0.000000
  1
# 101
  0
POINT
  8
2
 10
-2670.009460
 20
-3289.541504
  0
TEXT
  8
2
 10
-2670.009460
 20
-3289.541504
 40
0.000000
 50
0.000000
  1
# 102
  0
POINT
  8
2
 10
-2628.558960
 20
-3289.541504
  0
TEXT
  8
2
 10
-2628.558960
 20
-3289.541504
 40
0.000000
 50
0.000000
  1
# 103
  0
POINT
  8
2
 10
-2587.108459
 20
-3289.541504
  0
TEXT
  8
2
 10
-2587.108459
 20
-3289.541504
 40
0.000000
 50
0.000000
  1
# 104
  0
POINT
  8
2
 10
-2532.185852
 20
-3289.541504
  0
TEXT
  8
2
 10
-2532.185852
 20
-3289.541504
 40
0.000000
 50
0.000000
  1
# 105
  0
POINT
  8
2
 10
-2532.185852
 20
-3308.541260
  0
TEXT
  8
2
 10
-2532.185852
 20
-3308.541260
 40
0.000000
 50
0.000000
  1
# 106
  0
POINT
  8
2
 10
-2532.185852
 20
-3327.541016
  0
TEXT
  8
2
 10
-2532.185852
 20
-3327.541016
 40
0.000000
 50
0.000000
  1
# 107
  0
POINT
  8
2
 10
-2587.108459
 20
-3327.541016
  0
TEXT
  8
2
 10
-2587.108459
 20
-3327.541016
 40
0.000000
 50
0.000000
  1
# 108
  0
POINT
  8
2
 10
-2628.558960
 20
-3327.541016
  0
TEXT
  8
2
 10
-2628.558960
 20
-3327.541016
 40
0.000000
 50
0.000000
  1
# 109
  0
POINT
  8
2
 10
-2670.009460
 20
-3327.541016
  0
TEXT
  8
2
 10
-2670.009460
 20
-3327.541016
 40
0.000000
 50
0.000000
  1
# 110
  0
POINT
  8
2
 10
-2716.931152
 20
-3327.541016
  0
TEXT
  8
2
 10
-2716.931152
 20
-3327.541016
 40
0.000000
 50
0.000000
  1
# 111
  0
POINT
  8
2
 10
-2778.742981
 20
-3327.541016
  0
TEXT
  8
2
 10
-2778.742981
 20
-3327.541016
 40
0.000000
 50
0.000000
  1
# 112
  0
POINT
  8
2
 10
-2848.556030
 20
-3327.541016
  0
TEXT
  8
2
 10
-2848.556030
 20
-3327.541016
 40
0.000000
 50
0.000000
  1
# 113
  0
POINT
  8
3
 10
-2826.518555
 20
-3289.541504
  0
POINT
  8
3
 10
-2812.453308
 20
-3289.541504
  0
POINT
  8
3
 10
-2798.480225
 20
-3289.541504
  0
POINT
  8
3
 10
-2784.735107
 20
-3289.541504
  0
POINT
  8
3
 10
-2764.399414
 20
-3289.541504
  0
POINT
  8
3
 10
-2750.553589
 20
-3289.541504
  0
POINT
  8
3
 10
-2736.604309
 20
-3289.541504
  0
POINT
  8
3
 10
-2722.941895
 20
-3289.541504
  0
POINT
  8
3
 10
-2702.800598
 20
-3289.541504
  0
POINT
  8
3
 10
-2689.140625
 20
-3289.541504
  0
POINT
  8
3
 10
-2674.616699
 20
-3289.541504
  0
POINT
  8
3
 10
-2660.917664
 20
-3289.541504
  0
POINT
  8
3
 10
-2646.952820
 20
-3289.541504
  0
POINT
  8
3
 10
-2633.312683
 20
-3289.541504
  0
POINT
  8
3
 10
-2614.226685
 20
-3289.541504
  0
POINT
  8
3
 10
-2600.357971
 20
-3289.541504
  0
POINT
  8
3
 10
-2586.354370
 20
-3289.541504
  0
POINT
  8
3
 10
-2572.453308
 20
-3289.541504
  0
POINT
  8
3
 10
-2558.374023
 20
-3289.541504
  0
POINT
  8
3
 10
-2544.753723
 20
-3289.541504
  0
POINT
  8
3
 10
-2544.753723
 20
-3327.541016
  0
POINT
  8
3
 10
-2558.374023
 20
-3327.541016
  0
POINT
  8
3
 10
-2572.453308
 20
-3327.541016
  0
POINT
  8
3
 10
-2586.354370
 20
-3327.541016
  0
POINT
  8
3
 10
-2587.108459
 20
-3327.541016
  0
POINT
  8
3
 10
-2600.357971
 20
-3327.541016
  0
POINT
  8
3
 10
-2614.226685
 20
-3327.541016
  0
POINT
  8
3
 10
-2628.558960
 20
-3327.541016
  0
POINT
  8
3
 10
-2633.312683
 20
-3327.541016
  0
POINT
  8
3
 10
-2646.952820
 20
-3327.541016
  0
POINT
  8
3
 10
-2660.917664
 20
-3327.541016
  0
POINT
  8
3
 10
-2670.009460
 20
-3327.541016
  0
POINT
  8
3
 10
-2674.616699
 20
-3327.541016
  0
POINT
  8
3
 10
-2689.140625
 20
-3327.541016
  0
POINT
  8
3
 10
-2702.800598
 20
-3327.541016
  0
POINT
  8
3
 10
-2716.931152
 20
-3327.541016
  0
POINT
  8
3
 10
-2722.941895
 20
-3327.541016
  0
POINT
  8
3
 10
-2736.604309
 20
-3327.541016
  0
POINT
  8
3
 10
-2750.553589
 20
-3327.541016
  0
POINT
  8
3
 10
-2764.399414
 20
-3327.541016
  0
POINT
  8
3
 10
-2778.744812
 20
-3327.541016
  0
POINT
  8
3
 10
-2784.735107
 20
-3327.541016
  0
POINT
  8
3
 10
-2798.480225
 20
-3327.541016
  0
POINT
  8
3
 10
-2812.453308
 20
-3327.541016
  0
POINT
  8
3
 10
-2826.518555
 20
-3327.541016
  0
POINT
  8
3
 10
-2830.556030
 20
-3327.541016
  0
POINT
  8
4
 10
-2587.108459
 20
-3327.541016
 30
0.600000
 50
 90.00
  0
TEXT
  8
4
 10
-2587.108459
 20
-3327.541016
 40
0.000000
 50
0.000000
  1
# 114
  0
POINT
  8
4
 10
-2628.558960
 20
-3327.541016
 30
0.600000
 50
 90.00
  0
TEXT
  8
4
 10
-2628.558960
 20
-3327.541016
 40
0.000000
 50
0.000000
  1
# 115
  0
POINT
  8
4
 10
-2670.009460
 20
-3327.541016
 30
0.600000
 50
 90.00
  0
TEXT
  8
4
 10
-2670.009460
 20
-3327.541016
 40
0.000000
 50
0.000000
  1
# 116
  0
POINT
  8
4
 10
-2716.931152
 20
-3327.541016
 30
0.600000
 50
 90.00
  0
TEXT
  8
4
 10
-2716.931152
 20
-3327.541016
 40
0.000000
 50
0.000000
  1
# 117
  0
POINT
  8
4
 10
-2778.744812
 20
-3327.541016
 30
0.600000
 50
 90.00
  0
TEXT
  8
4
 10
-2778.744812
 20
-3327.541016
 40
0.000000
 50
0.000000
  1
# 118
  0
POINT
  8
4
 10
-2830.556030
 20
-3327.541016
 30
0.600000
 50
 90.00
  0
TEXT
  8
4
 10
-2830.556030
 20
-3327.541016
 40
0.000000
 50
0.000000
  1
# 119
  0
POLYLINE
  8
8
  66
1
  70
1
  0
VERTEX
  8
8
  10
-2840.556030
  20
-3319.541016
  0
VERTEX
  8
8
  10
-2840.556030
  20
-3308.541260
  0
VERTEX
  8
8
  10
-2840.556030
  20
-3297.541504
  0
VERTEX
  8
8
  10
-2826.518555
  20
-3297.541504
  0
VERTEX
  8
8
  10
-2812.453308
  20
-3297.541504
  0
VERTEX
  8
8
  10
-2798.480225
  20
-3297.541504
  0
VERTEX
  8
8
  10
-2784.735107
  20
-3297.541504
  0
VERTEX
  8
8
  10
-2778.742981
  20
-3297.541504
  0
VERTEX
  8
8
  10
-2764.399414
  20
-3297.541504
  0
VERTEX
  8
8
  10
-2750.553589
  20
-3297.541504
  0
VERTEX
  8
8
  10
-2736.604309
  20
-3297.541504
  0
VERTEX
  8
8
  10
-2722.941895
  20
-3297.541504
  0
VERTEX
  8
8
  10
-2716.931152
  20
-3297.541504
  0
VERTEX
  8
8
  10
-2702.800598
  20
-3297.541504
  0
VERTEX
  8
8
  10
-2689.140625
  20
-3297.541504
  0
VERTEX
  8
8
  10
-2674.616699
  20
-3297.541504
  0
VERTEX
  8
8
  10
-2670.009460
  20
-3297.541504
  0
VERTEX
  8
8
  10
-2660.917664
  20
-3297.541504
  0
VERTEX
  8
8
  10
-2646.952820
  20
-3297.541504
  0
VERTEX
  8
8
  10
-2633.312683
  20
-3297.541504
  0
VERTEX
  8
8
  10
-2628.558960
  20
-3297.541504
  0
VERTEX
  8
8
  10
-2614.226685
  20
-3297.541504
  0
VERTEX
  8
8
  10
-2600.357971
  20
-3297.541504
  0
VERTEX
  8
8
  10
-2587.108459
  20
-3297.541504
  0
VERTEX
  8
8
  10
-2586.354370
  20
-3297.541504
  0
VERTEX
  8
8
  10
-2572.453308
  20
-3297.541504
  0
VERTEX
  8
8
  10
-2558.374023
  20
-3297.541504
  0
VERTEX
  8
8
  10
-2544.753723
  20
-3297.541504
  0
VERTEX
  8
8
  10
-2540.185852
  20
-3297.541504
  0
VERTEX
  8
8
  10
-2540.185852
  20
-3308.541260
  0
VERTEX
  8
8
  10
-2540.185852
  20
-3319.541016
  0
VERTEX
  8
8
  10
-2544.753723
  20
-3319.541016
  0
VERTEX
  8
8
  10
-2558.374023
  20
-3319.541016
  0
VERTEX
  8
8
  10
-2572.453308
  20
-3319.541016
  0
VERTEX
  8
8
  10
-2586.354370
  20
-3319.541016
  0
VERTEX
  8
8
  10
-2587.108459
  20
-3319.541016
  0
VERTEX
  8
8
  10
-2587.108459
  20
-3319.541016
  0
VERTEX
  8
8
  10
-2600.357971
  20
-3319.541016
  0
VERTEX
  8
8
  10
-2614.226685
  20
-3319.541016
  0
VERTEX
  8
8
  10
-2628.558960
  20
-3319.541016
  0
VERTEX
  8
8
  10
-2628.558960
  20
-3319.541016
  0
VERTEX
  8
8
  10
-2633.312683
  20
-3319.541016
  0
VERTEX
  8
8
  10
-2646.952820
  20
-3319.541016
  0
VERTEX
  8
8
  10
-2660.917664
  20
-3319.541016
  0
VERTEX
  8
8
  10
-2670.009460
  20
-3319.541016
  0
VERTEX
  8
8
  10
-2670.009460
  20
-3319.541016
  0
VERTEX
  8
8
  10
-2674.616699
  20
-3319.541016
  0
VERTEX
  8
8
  10
-2689.140625
  20
-3319.541016
  0
VERTEX
  8
8
  10
-2702.800598
  20
-3319.541016
  0
VERTEX
  8
8
  10
-2716.931152
  20
-3319.541016
  0
VERTEX
  8
8
  10
-2716.931152
  20
-3319.541016
  0
VERTEX
  8
8
  10
-2722.941895
  20
-3319.541016
  0
VERTEX
  8
8
  10
-2736.604309
  20
-3319.541016
  0
VERTEX
  8
8
  10
-2750.553589
  20
-3319.541016
  0
VERTEX
  8
8
  10
-2764.399414
  20
-3319.541016
  0
VERTEX
  8
8
  10
-2778.742981
  20
-3319.541016
  0
VERTEX
  8
8
  10
-2778.744812
  20
-3319.541016
  0
VERTEX
  8
8
  10
-2784.735107
  20
-3319.541016
  0
VERTEX
  8
8
  10
-2798.480225
  20
-3319.541016
  0
VERTEX
  8
8
  10
-2812.453308
  20
-3319.541016
  0
VERTEX
  8
8
  10
-2826.518555
  20
-3319.541016
  0
VERTEX
  8
8
  10
-2830.556030
  20
-3319.541016
  0
VERTEX
  8
8
  10
-2840.556030
  20
-3319.541016
  0
SEQEND
  8
8
  0
POINT
  8
2
 10
-2840.556030
 20
-3319.541016
  0
TEXT
  8
2
 10
-2840.556030
 20
-3319.541016
 40
0.000000
 50
0.000000
  1
# 120
  0
POINT
  8
2
 10
-2840.556030
 20
-3308.541260
  0
TEXT
  8
2
 10
-2840.556030
 20
-3308.541260
 40
0.000000
 50
0.000000
  1
# 121
  0
POINT
  8
2
 10
-2840.556030
 20
-3297.541504
  0
TEXT
  8
2
 10
-2840.556030
 20
-3297.541504
 40
0.000000
 50
0.000000
  1
# 122
  0
POINT
  8
2
 10
-2778.742981
 20
-3297.541504
  0
TEXT
  8
2
 10
-2778.742981
 20
-3297.541504
 40
0.000000
 50
0.000000
  1
# 123
  0
POINT
  8
2
 10
-2716.931152
 20
-3297.541504
  0
TEXT
  8
2
 10
-2716.931152
 20
-3297.541504
 40
0.000000
 50
0.000000
  1
# 124
  0
POINT
  8
2
 10
-2670.009460
 20
-3297.541504
  0
TEXT
  8
2
 10
-2670.009460
 20
-3297.541504
 40
0.000000
 50
0.000000
  1
# 125
  0
POINT
  8
2
 10
-2628.558960
 20
-3297.541504
  0
TEXT
  8
2
 10
-2628.558960
 20
-3297.541504
 40
0.000000
 50
0.000000
  1
# 126
  0
POINT
  8
2
 10
-2587.108459
 20
-3297.541504
  0
TEXT
  8
2
 10
-2587.108459
 20
-3297.541504
 40
0.000000
 50
0.000000
  1
# 127
  0
POINT
  8
2
 10
-2540.185852
 20
-3297.541504
  0
TEXT
  8
2
 10
-2540.185852
 20
-3297.541504
 40
0.000000
 50
0.000000
  1
# 128
  0
POINT
  8
2
 10
-2540.185852
 20
-3308.541260
  0
TEXT
  8
2
 10
-2540.185852
 20
-3308.541260
 40
0.000000
 50
0.000000
  1
# 129
  0
POINT
  8
2
 10
-2540.185852
 20
-3319.541016
  0
TEXT
  8
2
 10
-2540.185852
 20
-3319.541016
 40
0.000000
 50
0.000000
  1
# 130
  0
POINT
  8
2
 10
-2587.108459
 20
-3319.541016
  0
TEXT
  8
2
 10
-2587.108459
 20
-3319.541016
 40
0.000000
 50
0.000000
  1
# 131
  0
POINT
  8
2
 10
-2628.558960
 20
-3319.541016
  0
TEXT
  8
2
 10
-2628.558960
 20
-3319.541016
 40
0.000000
 50
0.000000
  1
# 132
  0
POINT
  8
2
 10
-2670.009460
 20
-3319.541016
  0
TEXT
  8
2
 10
-2670.009460
 20
-3319.541016
 40
0.000000
 50
0.000000
  1
# 133
  0
POINT
  8
2
 10
-2716.931152
 20
-3319.541016
  0
TEXT
  8
2
 10
-2716.931152
 20
-3319.541016
 40
0.000000
 50
0.000000
  1
# 134
  0
POINT
  8
2
 10
-2778.742981
 20
-3319.541016
  0
TEXT
  8
2
 10
-2778.742981
 20
-3319.541016
 40
0.000000
 50
0.000000
  1
# 135
  0
POINT
  8
2
 10
-2840.556030
 20
-3319.541016
  0
TEXT
  8
2
 10
-2840.556030
 20
-3319.541016
 40
0.000000
 50
0.000000
  1
# 136
  0
POINT
  8
4
 10
-2587.108459
 20
-3319.541016
 30
0.600000
 50
 90.00
  0
TEXT
  8
4
 10
-2587.108459
 20
-3319.541016
 40
0.000000
 50
0.000000
  1
# 137
  0
POINT
  8
4
 10
-2628.558960
 20
-3319.541016
 30
0.600000
 50
 90.00
  0
TEXT
  8
4
 10
-2628.558960
 20
-3319.541016
 40
0.000000
 50
0.000000
  1
# 138
  0
POINT
  8
4
 10
-2670.009460
 20
-3319.541016
 30
0.600000
 50
 90.00
  0
TEXT
  8
4
 10
-2670.009460
 20
-3319.541016
 40
0.000000
 50
0.000000
  1
# 139
  0
POINT
  8
4
 10
-2716.931152
 20
-3319.541016
 30
0.600000
 50
 90.00
  0
TEXT
  8
4
 10
-2716.931152
 20
-3319.541016
 40
0.000000
 50
0.000000
  1
# 140
  0
POINT
  8
4
 10
-2778.744812
 20
-3319.541016
 30
0.600000
 50
 90.00
  0
TEXT
  8
4
 10
-2778.744812
 20
-3319.541016
 40
0.000000
 50
0.000000
  1
# 141
  0
POINT
  8
4
 10
-2830.556030
 20
-3319.541016
 30
0.600000
 50
 90.00
  0
TEXT
  8
4
 10
-2830.556030
 20
-3319.541016
 40
0.000000
 50
0.000000
  1
# 142
  0
POLYLINE
  8
11
  6
2
  66
1
  70
0
  0
VERTEX
  8
1
  10
-2540.185852
  20
-3308.541260
  0
VERTEX
  8
1
  10
-2556.480713
  20
-3308.541260
  0
VERTEX
  8
1
  10
-2570.948486
  20
-3308.541260
  0
VERTEX
  8
1
  10
-2586.645508
  20
-3308.541260
  0
VERTEX
  8
1
  10
-2602.049255
  20
-3308.541260
  0
VERTEX
  8
1
  10
-2616.075439
  20
-3308.541260
  0
VERTEX
  8
1
  10
-2631.032410
  20
-3308.541260
  0
VERTEX
  8
1
  10
-2646.780396
  20
-3308.541260
  0
VERTEX
  8
1
  10
-2663.178406
  20
-3308.541260
  0
VERTEX
  8
1
  10
-2680.085754
  20
-3308.541260
  0
VERTEX
  8
1
  10
-2693.884277
  20
-3308.541260
  0
VERTEX
  8
1
  10
-2707.846985
  20
-3308.541260
  0
VERTEX
  8
1
  10
-2721.901855
  20
-3308.541260
  0
VERTEX
  8
1
  10
-2736.415100
  20
-3308.541260
  0
VERTEX
  8
1
  10
-2750.339966
  20
-3308.541260
  0
VERTEX
  8
1
  10
-2763.934326
  20
-3308.541260
  0
VERTEX
  8
1
  10
-2780.175781
  20
-3308.541260
  0
VERTEX
  8
1
  10
-2795.238647
  20
-3308.541260
  0
VERTEX
  8
1
  10
-2808.753662
  20
-3308.541260
  0
VERTEX
  8
1
  10
-2822.411194
  20
-3308.541260
  0
VERTEX
  8
1
  10
-2835.228882
  20
-3308.541260
  0
VERTEX
  8
1
  10
-2840.556030
  20
-3308.541260
  0
SEQEND
  8
11
  0
POINT
  8
2
 10
-2540.185852
 20
-3308.541260
  0
TEXT
  8
2
 10
-2540.185852
 20
-3308.541260
 40
0.000000
 50
0.000000
  1
# 143
  0
POINT
  8
2
 10
-2840.556030
 20
-3308.541260
  0
TEXT
  8
2
 10
-2840.556030
 20
-3308.541260
 40
0.000000
 50
0.000000
  1
# 144
  0
POLYLINE
  8
11
  66
1
  70
0
  0
VERTEX
  8
1
  10
-2670.009460
  20
-3319.541016
  0
VERTEX
  8
1
  10
-2670.009460
  20
-3308.541260
  0
SEQEND
  8
11
  0
POINT
  8
2
 10
-2670.009460
 20
-3319.541016
  0
TEXT
  8
2
 10
-2670.009460
 20
-3319.541016
 40
0.000000
 50
0.000000
  1
# 145
  0
POINT
  8
2
 10
-2670.009460
 20
-3308.541260
  0
TEXT
  8
2
 10
-2670.009460
 20
-3308.541260
 40
0.000000
 50
0.000000
  1
# 146
  0
POLYLINE
  8
11
  66
1
  70
0
  0
VERTEX
  8
1
  10
-2587.108459
  20
-3319.541016
  0
VERTEX
  8
1
  10
-2587.108459
  20
-3308.541260
  0
SEQEND
  8
11
  0
POINT
  8
2
 10
-2587.108459
 20
-3319.541016
  0
TEXT
  8
2
 10
-2587.108459
 20
-3319.541016
 40
0.000000
 50
0.000000
  1
# 147
  0
POINT
  8
2
 10
-2587.108459
 20
-3308.541260
  0
TEXT
  8
2
 10
-2587.108459
 20
-3308.541260
 40
0.000000
 50
0.000000
  1
# 148
  0
POLYLINE
  8
11
  66
1
  70
0
  0
VERTEX
  8
1
  10
-2628.558960
  20
-3319.541016
  0
VERTEX
  8
1
  10
-2628.558960
  20
-3308.541260
  0
SEQEND
  8
11
  0
POINT
  8
2
 10
-2628.558960
 20
-3319.541016
  0
TEXT
  8
2
 10
-2628.558960
 20
-3319.541016
 40
0.000000
 50
0.000000
  1
# 149
  0
POINT
  8
2
 10
-2628.558960
 20
-3308.541260
  0
TEXT
  8
2
 10
-2628.558960
 20
-3308.541260
 40
0.000000
 50
0.000000
  1
# 150
  0
POLYLINE
  8
11
  66
1
  70
0
  0
VERTEX
  8
1
  10
-2716.931152
  20
-3319.541016
  0
VERTEX
  8
1
  10
-2716.931152
  20
-3308.541260
  0
SEQEND
  8
11
  0
POINT
  8
2
 10
-2716.931152
 20
-3319.541016
  0
TEXT
  8
2
 10
-2716.931152
 20
-3319.541016
 40
0.000000
 50
0.000000
  1
# 151
  0
POINT
  8
2
 10
-2716.931152
 20
-3308.541260
  0
TEXT
  8
2
 10
-2716.931152
 20
-3308.541260
 40
0.000000
 50
0.000000
  1
# 152
  0
POLYLINE
  8
11
  66
1
  70
0
  0
VERTEX
  8
1
  10
-2778.744812
  20
-3319.541016
  0
VERTEX
  8
1
  10
-2778.744812
  20
-3308.541260
  0
SEQEND
  8
11
  0
POINT
  8
2
 10
-2778.744812
 20
-3319.541016
  0
TEXT
  8
2
 10
-2778.744812
 20
-3319.541016
 40
0.000000
 50
0.000000
  1
# 153
  0
POINT
  8
2
 10
-2778.744812
 20
-3308.541260
  0
TEXT
  8
2
 10
-2778.744812
 20
-3308.541260
 40
0.000000
 50
0.000000
  1
# 154
  0
POLYLINE
  8
11
  66
1
  70
0
  0
VERTEX
  8
1
  10
-2670.009460
  20
-3297.541504
  0
VERTEX
  8
1
  10
-2670.009460
  20
-3308.541260
  0
SEQEND
  8
11
  0
POINT
  8
2
 10
-2670.009460
 20
-3297.541504
  0
TEXT
  8
2
 10
-2670.009460
 20
-3297.541504
 40
0.000000
 50
0.000000
  1
# 155
  0
POINT
  8
2
 10
-2670.009460
 20
-3308.541260
  0
TEXT
  8
2
 10
-2670.009460
 20
-3308.541260
 40
0.000000
 50
0.000000
  1
# 156
  0
POLYLINE
  8
11
  66
1
  70
0
  0
VERTEX
  8
1
  10
-2587.108459
  20
-3297.541504
  0
VERTEX
  8
1
  10
-2587.108459
  20
-3308.541260
  0
SEQEND
  8
11
  0
POINT
  8
2
 10
-2587.108459
 20
-3297.541504
  0
TEXT
  8
2
 10
-2587.108459
 20
-3297.541504
 40
0.000000
 50
0.000000
  1
# 157
  0
POINT
  8
2
 10
-2587.108459
 20
-3308.541260
  0
TEXT
  8
2
 10
-2587.108459
 20
-3308.541260
 40
0.000000
 50
0.000000
  1
# 158
  0
POLYLINE
  8
11
  66
1
  70
0
  0
VERTEX
  8
1
  10
-2628.558960
  20
-3297.541504
  0
VERTEX
  8
1
  10
-2628.558960
  20
-3308.541260
  0
SEQEND
  8
11
  0
POINT
  8
2
 10
-2628.558960
 20
-3297.541504
  0
TEXT
  8
2
 10
-2628.558960
 20
-3297.541504
 40
0.000000
 50
0.000000
  1
# 159
  0
POINT
  8
2
 10
-2628.558960
 20
-3308.541260
  0
TEXT
  8
2
 10
-2628.558960
 20
-3308.541260
 40
0.000000
 50
0.000000
  1
# 160
  0
POLYLINE
  8
11
  66
1
  70
0
  0
VERTEX
  8
1
  10
-2716.931152
  20
-3297.541504
  0
VERTEX
  8
1
  10
-2716.931152
  20
-3308.541260
  0
SEQEND
  8
11
  0
POINT
  8
2
 10
-2716.931152
 20
-3297.541504
  0
TEXT
  8
2
 10
-2716.931152
 20
-3297.541504
 40
0.000000
 50
0.000000
  1
# 161
  0
POINT
  8
2
 10
-2716.931152
 20
-3308.541260
  0
TEXT
  8
2
 10
-2716.931152
 20
-3308.541260
 40
0.000000
 50
0.000000
  1
# 162
  0
POLYLINE
  8
11
  66
1
  70
0
  0
VERTEX
  8
1
  10
-2778.744812
  20
-3297.541504
  0
VERTEX
  8
1
  10
-2778.744812
  20
-3308.541260
  0
SEQEND
  8
11
  0
POINT
  8
2
 10
-2778.744812
 20
-3297.541504
  0
TEXT
  8
2
 10
-2778.744812
 20
-3297.541504
 40
0.000000
 50
0.000000
  1
# 163
  0
POINT
  8
2
 10
-2778.744812
 20
-3308.541260
  0
TEXT
  8
2
 10
-2778.744812
 20
-3308.541260
 40
0.000000
 50
0.000000
  1
# 164
 0
LINE
 8
7
 10
-2685.362854
 20
-3300.130615
 11
-2685.362854
 21
-3316.896973
  0
TEXT
  8
1
 10
-2638.766174
 20
-3313.802795
 40
9.000235
 50
359.059313
  1
前中
  0
TEXT
  8
1
 10
-2789.423828
 20
-3314.922791
 40
9.000349
 50
358.854123
  1
后中
  0
TEXT
  8
1
 10
-2726.734314
 20
-3314.731140
 40
9.090000
 50
0.000000
  1
右肩
  0
TEXT
  8
1
 10
-2690.370865
 20
-3308.541260
 40
10.000000
 50
0.000000
  1
PIECE NAME: C2490335.领
  0
TEXT
  8
1
 10
-2690.370865
 20
-3293.541260
 40
10.000000
 50
0.000000
  1
Size: M
  0
TEXT
  8
1
 10
-2690.370865
 20
-3278.541260
 40
10.000000
 50
0.000000
  1
ANNOTATION: 面料A X1
  0
TEXT
  8
1
 10
-2690.370865
 20
-3263.541260
 40
10.000000
 50
0.000000
  1
QUANTITY: 1
  0
TEXT
  8
1
 10
-2690.370865
 20
-3248.541260
 40
10.000000
 50
0.000000
  1
FABRIC: 面料A
  0
TEXT
  8
1
 10
-2690.370865
 20
-3233.541260
 40
10.000000
 50
0.000000
  1
CATEGORY: 领
0
ENDBLK
0
BLOCK
  8
1
  2
C2490335.后身片_面料A_M
 70
0
 10
0.0
 20
0.0
  0
POLYLINE
  8
1
  66
1
  70
1
  0
VERTEX
  8
1
  10
-2999.800763
  20
-4058.796801
  0
VERTEX
  8
1
  10
-2995.120472
  20
-4046.193973
  0
VERTEX
  8
1
  10
-2991.410232
  20
-4036.305973
  0
VERTEX
  8
1
  10
-2983.703554
  20
-4015.291065
  0
VERTEX
  8
1
  10
-2977.787666
  20
-3998.099001
  0
VERTEX
  8
1
  10
-2971.973728
  20
-3979.829324
  0
VERTEX
  8
1
  10
-2964.570765
  20
-3954.901638
  0
VERTEX
  8
1
  10
-2959.952524
  20
-3938.195603
  0
VERTEX
  8
1
  10
-2956.483013
  20
-3924.191097
  0
VERTEX
  8
1
  10
-2953.321283
  20
-3909.729316
  0
VERTEX
  8
1
  10
-2951.947628
  20
-3902.542547
  0
VERTEX
  8
1
  10
-2950.616483
  20
-3895.578178
  0
VERTEX
  8
1
  10
-2948.547771
  20
-3882.655704
  0
VERTEX
  8
1
  10
-2947.174079
  20
-3871.658884
  0
VERTEX
  8
1
  10
-2946.429271
  20
-3862.722493
  0
VERTEX
  8
1
  10
-2946.136830
  20
-3854.771543
  0
VERTEX
  8
1
  10
-2946.248105
  20
-3847.077256
  0
VERTEX
  8
1
  10
-2946.785916
  20
-3839.101666
  0
VERTEX
  8
1
  10
-2947.880000
  20
-3829.809927
  0
VERTEX
  8
1
  10
-2949.556640
  20
-3819.544879
  0
VERTEX
  8
1
  10
-2951.983095
  20
-3807.540796
  0
VERTEX
  8
1
  10
-2961.548507
  20
-3767.105520
  0
VERTEX
  8
1
  10
-2963.830035
  20
-3756.962567
  0
VERTEX
  8
1
  10
-2965.932901
  20
-3747.613893
  0
VERTEX
  8
1
  10
-2969.774055
  20
-3728.628552
  0
VERTEX
  8
1
  10
-2972.964799
  20
-3710.750951
  0
VERTEX
  8
1
  10
-2975.529318
  20
-3694.063772
  0
VERTEX
  8
1
  10
-2977.657557
  20
-3677.405538
  0
VERTEX
  8
1
  10
-2979.375400
  20
-3660.534112
  0
VERTEX
  8
1
  10
-2980.721692
  20
-3642.864698
  0
VERTEX
  8
1
  10
-2981.693376
  20
-3624.070927
  0
VERTEX
  8
1
  10
-2982.253553
  20
-3604.715637
  0
VERTEX
  8
1
  10
-2982.352864
  20
-3591.562701
  0
VERTEX
  8
1
  10
-2982.412317
  20
-3583.688689
  0
VERTEX
  8
1
  10
-2982.128514
  20
-3561.012073
  0
VERTEX
  8
1
  10
-2981.317465
  20
-3534.498114
  0
VERTEX
  8
1
  10
-2979.785195
  20
-3500.205245
  0
VERTEX
  8
1
  10
-2979.077027
  20
-3483.777744
  0
VERTEX
  8
1
  10
-2970.719944
  20
-3483.679995
  0
VERTEX
  8
1
  10
-2961.107419
  20
-3483.677935
  0
VERTEX
  8
1
  10
-2952.410960
  20
-3483.275451
  0
VERTEX
  8
1
  10
-2944.812245
  20
-3482.509101
  0
VERTEX
  8
1
  10
-2938.077370
  20
-3481.415386
  0
VERTEX
  8
1
  10
-2930.979212
  20
-3479.816806
  0
VERTEX
  8
1
  10
-2925.596069
  20
-3478.160267
  0
VERTEX
  8
1
  10
-2921.217666
  20
-3476.386481
  0
VERTEX
  8
1
  10
-2917.774808
  20
-3474.602948
  0
VERTEX
  8
1
  10
-2914.913232
  20
-3472.747980
  0
VERTEX
  8
1
  10
-2911.938171
  20
-3470.378302
  0
VERTEX
  8
1
  10
-2908.512811
  20
-3467.145792
  0
VERTEX
  8
1
  10
-2905.068680
  20
-3463.427207
  0
VERTEX
  8
1
  10
-2901.250460
  20
-3459.459856
  0
VERTEX
  8
1
  10
-2881.793272
  20
-3467.589060
  0
VERTEX
  8
1
  10
-2867.872106
  20
-3473.455627
  0
VERTEX
  8
1
  10
-2853.887731
  20
-3479.405945
  0
VERTEX
  8
1
  10
-2839.521334
  20
-3485.603251
  0
VERTEX
  8
1
  10
-2825.381015
  20
-3491.813508
  0
VERTEX
  8
1
  10
-2811.658527
  20
-3497.954553
  0
VERTEX
  8
1
  10
-2798.167329
  20
-3504.073647
  0
VERTEX
  8
1
  10
-2788.520990
  20
-3508.488592
  0
VERTEX
  8
1
  10
-2791.362483
  20
-3516.462825
  0
VERTEX
  8
1
  10
-2794.977698
  20
-3526.424980
  0
VERTEX
  8
1
  10
-2798.583403
  20
-3537.103211
  0
VERTEX
  8
1
  10
-2801.794644
  20
-3547.429697
  0
VERTEX
  8
1
  10
-2804.432087
  20
-3556.811322
  0
VERTEX
  8
1
  10
-2806.510212
  20
-3565.211236
  0
VERTEX
  8
1
  10
-2808.181738
  20
-3573.085998
  0
VERTEX
  8
1
  10
-2809.596989
  20
-3581.071507
  0
VERTEX
  8
1
  10
-2810.762918
  20
-3589.251805
  0
VERTEX
  8
1
  10
-2811.684618
  20
-3597.715021
  0
VERTEX
  8
1
  10
-2812.352029
  20
-3606.313295
  0
VERTEX
  8
1
  10
-2812.743427
  20
-3614.554164
  0
VERTEX
  8
1
  10
-2812.847034
  20
-3621.665148
  0
VERTEX
  8
1
  10
-2812.737118
  20
-3626.240037
  0
VERTEX
  8
1
  10
-2812.661488
  20
-3629.387926
  0
VERTEX
  8
1
  10
-2812.225860
  20
-3635.753714
  0
VERTEX
  8
1
  10
-2811.644755
  20
-3640.875625
  0
VERTEX
  8
1
  10
-2810.821424
  20
-3646.010838
  0
VERTEX
  8
1
  10
-2809.756019
  20
-3650.921462
  0
VERTEX
  8
1
  10
-2808.428984
  20
-3655.583995
  0
VERTEX
  8
1
  10
-2808.379452
  20
-3655.758025
  0
VERTEX
  8
1
  10
-2807.138077
  20
-3659.188378
  0
VERTEX
  8
1
  10
-2805.656462
  20
-3662.569621
  0
VERTEX
  8
1
  10
-2803.992061
  20
-3665.688313
  0
VERTEX
  8
1
  10
-2802.121792
  20
-3668.564417
  0
VERTEX
  8
1
  10
-2800.531706
  20
-3670.606318
  0
VERTEX
  8
1
  10
-2798.795345
  20
-3672.495802
  0
VERTEX
  8
1
  10
-2796.928163
  20
-3674.205674
  0
VERTEX
  8
1
  10
-2794.885421
  20
-3675.763343
  0
VERTEX
  8
1
  10
-2793.226365
  20
-3676.823995
  0
VERTEX
  8
1
  10
-2790.130547
  20
-3678.442914
  0
VERTEX
  8
1
  10
-2787.173629
  20
-3679.721772
  0
VERTEX
  8
1
  10
-2782.222409
  20
-3681.564328
  0
VERTEX
  8
1
  10
-2775.653660
  20
-3684.100663
  0
VERTEX
  8
1
  10
-2781.025980
  20
-3706.810083
  0
VERTEX
  8
1
  10
-2784.451480
  20
-3721.836369
  0
VERTEX
  8
1
  10
-2787.863405
  20
-3737.644908
  0
VERTEX
  8
1
  10
-2790.911513
  20
-3752.858405
  0
VERTEX
  8
1
  10
-2793.690706
  20
-3768.033462
  0
VERTEX
  8
1
  10
-2795.982109
  20
-3781.515927
  0
VERTEX
  8
1
  10
-2795.964072
  20
-3781.397659
  0
VERTEX
  8
1
  10
-2797.987952
  20
-3794.667787
  0
VERTEX
  8
1
  10
-2799.404315
  20
-3805.621884
  0
VERTEX
  8
1
  10
-2800.334404
  20
-3814.576711
  0
VERTEX
  8
1
  10
-2801.017693
  20
-3823.611745
  0
VERTEX
  8
1
  10
-2801.402379
  20
-3832.009292
  0
VERTEX
  8
1
  10
-2801.517157
  20
-3839.604474
  0
VERTEX
  8
1
  10
-2801.391369
  20
-3846.740312
  0
VERTEX
  8
1
  10
-2800.859049
  20
-3853.946674
  0
VERTEX
  8
1
  10
-2800.030917
  20
-3861.637640
  0
VERTEX
  8
1
  10
-2798.828168
  20
-3870.347749
  0
VERTEX
  8
1
  10
-2797.109996
  20
-3880.827509
  0
VERTEX
  8
1
  10
-2794.426035
  20
-3895.380825
  0
VERTEX
  8
1
  10
-2791.538227
  20
-3910.439828
  0
VERTEX
  8
1
  10
-2788.760089
  20
-3925.643135
  0
VERTEX
  8
1
  10
-2786.685238
  20
-3938.242886
  0
VERTEX
  8
1
  10
-2784.909605
  20
-3950.666556
  0
VERTEX
  8
1
  10
-2784.258339
  20
-3955.692379
  0
VERTEX
  8
1
  10
-2784.006809
  20
-3957.616772
  0
VERTEX
  8
1
  10
-2783.990008
  20
-3957.840361
  0
VERTEX
  8
1
  10
-2783.690843
  20
-3961.821584
  0
VERTEX
  8
1
  10
-2782.768700
  20
-3974.001256
  0
VERTEX
  8
1
  10
-2782.036199
  20
-3990.879862
  0
VERTEX
  8
1
  10
-2781.813291
  20
-4007.610684
  0
VERTEX
  8
1
  10
-2782.119371
  20
-4023.995405
  0
VERTEX
  8
1
  10
-2782.898968
  20
-4038.568170
  0
VERTEX
  8
1
  10
-2782.924504
  20
-4039.045509
  0
VERTEX
  8
1
  10
-2784.024721
  20
-4051.375616
  0
VERTEX
  8
1
  10
-2785.677098
  20
-4064.488510
  0
VERTEX
  8
1
  10
-2787.772617
  20
-4077.516188
  0
VERTEX
  8
1
  10
-2790.695271
  20
-4092.596188
  0
VERTEX
  8
1
  10
-2794.547189
  20
-4109.657506
  0
VERTEX
  8
1
  10
-2797.079988
  20
-4119.952662
  0
VERTEX
  8
1
  10
-2801.832539
  20
-4129.429928
  0
VERTEX
  8
1
  10
-2803.844612
  20
-4133.257276
  0
VERTEX
  8
1
  10
-2839.610641
  20
-4121.077970
  0
VERTEX
  8
1
  10
-2913.624731
  20
-4092.843562
  0
VERTEX
  8
1
  10
-2999.800763
  20
-4058.796801
  0
SEQEND
  8
1
  0
POINT
  8
2
 10
-2999.800763
 20
-4058.796801
  0
TEXT
  8
2
 10
-2999.800763
 20
-4058.796801
 40
0.000000
 50
0.000000
  1
# 165
  0
POINT
  8
2
 10
-2979.077027
 20
-3483.777744
  0
TEXT
  8
2
 10
-2979.077027
 20
-3483.777744
 40
0.000000
 50
0.000000
  1
# 166
  0
POINT
  8
2
 10
-2901.250460
 20
-3459.459856
  0
TEXT
  8
2
 10
-2901.250460
 20
-3459.459856
 40
0.000000
 50
0.000000
  1
# 167
  0
POINT
  8
2
 10
-2788.520990
 20
-3508.488592
  0
TEXT
  8
2
 10
-2788.520990
 20
-3508.488592
 40
0.000000
 50
0.000000
  1
# 168
  0
POINT
  8
2
 10
-2775.653660
 20
-3684.100663
  0
TEXT
  8
2
 10
-2775.653660
 20
-3684.100663
 40
0.000000
 50
0.000000
  1
# 169
  0
POINT
  8
2
 10
-2795.964072
 20
-3781.397659
  0
TEXT
  8
2
 10
-2795.964072
 20
-3781.397659
 40
0.000000
 50
0.000000
  1
# 170
  0
POINT
  8
2
 10
-2784.006809
 20
-3957.616772
  0
TEXT
  8
2
 10
-2784.006809
 20
-3957.616772
 40
0.000000
 50
0.000000
  1
# 171
  0
POINT
  8
2
 10
-2797.079988
 20
-4119.952662
  0
TEXT
  8
2
 10
-2797.079988
 20
-4119.952662
 40
0.000000
 50
0.000000
  1
# 172
  0
POINT
  8
2
 10
-2803.844612
 20
-4133.257276
  0
TEXT
  8
2
 10
-2803.844612
 20
-4133.257276
 40
0.000000
 50
0.000000
  1
# 173
  0
POINT
  8
2
 10
-2999.800763
 20
-4058.796801
  0
TEXT
  8
2
 10
-2999.800763
 20
-4058.796801
 40
0.000000
 50
0.000000
  1
# 174
  0
POINT
  8
3
 10
-2995.120472
 20
-4046.193973
  0
POINT
  8
3
 10
-2991.410232
 20
-4036.305973
  0
POINT
  8
3
 10
-2983.703554
 20
-4015.291065
  0
POINT
  8
3
 10
-2977.787666
 20
-3998.099001
  0
POINT
  8
3
 10
-2971.973728
 20
-3979.829324
  0
POINT
  8
3
 10
-2964.570765
 20
-3954.901638
  0
POINT
  8
3
 10
-2959.952524
 20
-3938.195603
  0
POINT
  8
3
 10
-2956.483013
 20
-3924.191097
  0
POINT
  8
3
 10
-2953.321283
 20
-3909.729316
  0
POINT
  8
3
 10
-2951.947628
 20
-3902.542547
  0
POINT
  8
3
 10
-2950.616483
 20
-3895.578178
  0
POINT
  8
3
 10
-2948.547771
 20
-3882.655704
  0
POINT
  8
3
 10
-2947.174079
 20
-3871.658884
  0
POINT
  8
3
 10
-2946.429271
 20
-3862.722493
  0
POINT
  8
3
 10
-2946.136830
 20
-3854.771543
  0
POINT
  8
3
 10
-2946.248105
 20
-3847.077256
  0
POINT
  8
3
 10
-2946.785916
 20
-3839.101666
  0
POINT
  8
3
 10
-2947.880000
 20
-3829.809927
  0
POINT
  8
3
 10
-2949.556640
 20
-3819.544879
  0
POINT
  8
3
 10
-2951.983095
 20
-3807.540796
  0
POINT
  8
3
 10
-2961.548507
 20
-3767.105520
  0
POINT
  8
3
 10
-2963.830035
 20
-3756.962567
  0
POINT
  8
3
 10
-2965.932901
 20
-3747.613893
  0
POINT
  8
3
 10
-2969.774055
 20
-3728.628552
  0
POINT
  8
3
 10
-2972.964799
 20
-3710.750951
  0
POINT
  8
3
 10
-2975.529318
 20
-3694.063772
  0
POINT
  8
3
 10
-2977.657557
 20
-3677.405538
  0
POINT
  8
3
 10
-2979.375400
 20
-3660.534112
  0
POINT
  8
3
 10
-2980.721692
 20
-3642.864698
  0
POINT
  8
3
 10
-2981.693376
 20
-3624.070927
  0
POINT
  8
3
 10
-2982.253553
 20
-3604.715637
  0
POINT
  8
3
 10
-2982.352864
 20
-3591.562701
  0
POINT
  8
3
 10
-2982.412317
 20
-3583.688689
  0
POINT
  8
3
 10
-2982.128514
 20
-3561.012073
  0
POINT
  8
3
 10
-2981.317465
 20
-3534.498114
  0
POINT
  8
3
 10
-2979.785195
 20
-3500.205245
  0
POINT
  8
3
 10
-2970.719944
 20
-3483.679995
  0
POINT
  8
3
 10
-2961.107419
 20
-3483.677935
  0
POINT
  8
3
 10
-2952.410960
 20
-3483.275451
  0
POINT
  8
3
 10
-2944.812245
 20
-3482.509101
  0
POINT
  8
3
 10
-2938.077370
 20
-3481.415386
  0
POINT
  8
3
 10
-2930.979212
 20
-3479.816806
  0
POINT
  8
3
 10
-2925.596069
 20
-3478.160267
  0
POINT
  8
3
 10
-2921.217666
 20
-3476.386481
  0
POINT
  8
3
 10
-2917.774808
 20
-3474.602948
  0
POINT
  8
3
 10
-2914.913232
 20
-3472.747980
  0
POINT
  8
3
 10
-2911.938171
 20
-3470.378302
  0
POINT
  8
3
 10
-2908.512811
 20
-3467.145792
  0
POINT
  8
3
 10
-2905.068680
 20
-3463.427207
  0
POINT
  8
3
 10
-2881.793272
 20
-3467.589060
  0
POINT
  8
3
 10
-2867.872106
 20
-3473.455627
  0
POINT
  8
3
 10
-2853.887731
 20
-3479.405945
  0
POINT
  8
3
 10
-2839.521334
 20
-3485.603251
  0
POINT
  8
3
 10
-2825.381015
 20
-3491.813508
  0
POINT
  8
3
 10
-2811.658527
 20
-3497.954553
  0
POINT
  8
3
 10
-2798.167329
 20
-3504.073647
  0
POINT
  8
3
 10
-2791.362483
 20
-3516.462825
  0
POINT
  8
3
 10
-2794.977698
 20
-3526.424980
  0
POINT
  8
3
 10
-2798.583403
 20
-3537.103211
  0
POINT
  8
3
 10
-2801.794644
 20
-3547.429697
  0
POINT
  8
3
 10
-2804.432087
 20
-3556.811322
  0
POINT
  8
3
 10
-2806.510212
 20
-3565.211236
  0
POINT
  8
3
 10
-2808.181738
 20
-3573.085998
  0
POINT
  8
3
 10
-2809.596989
 20
-3581.071507
  0
POINT
  8
3
 10
-2810.762918
 20
-3589.251805
  0
POINT
  8
3
 10
-2811.684618
 20
-3597.715021
  0
POINT
  8
3
 10
-2812.352029
 20
-3606.313295
  0
POINT
  8
3
 10
-2812.743427
 20
-3614.554164
  0
POINT
  8
3
 10
-2812.847034
 20
-3621.665148
  0
POINT
  8
3
 10
-2812.737118
 20
-3626.240037
  0
POINT
  8
3
 10
-2812.661488
 20
-3629.387926
  0
POINT
  8
3
 10
-2812.225860
 20
-3635.753714
  0
POINT
  8
3
 10
-2811.644755
 20
-3640.875625
  0
POINT
  8
3
 10
-2810.821424
 20
-3646.010838
  0
POINT
  8
3
 10
-2809.756019
 20
-3650.921462
  0
POINT
  8
3
 10
-2808.428984
 20
-3655.583995
  0
POINT
  8
3
 10
-2808.379452
 20
-3655.758025
  0
POINT
  8
3
 10
-2807.138077
 20
-3659.188378
  0
POINT
  8
3
 10
-2805.656462
 20
-3662.569621
  0
POINT
  8
3
 10
-2803.992061
 20
-3665.688313
  0
POINT
  8
3
 10
-2802.121792
 20
-3668.564417
  0
POINT
  8
3
 10
-2800.531706
 20
-3670.606318
  0
POINT
  8
3
 10
-2798.795345
 20
-3672.495802
  0
POINT
  8
3
 10
-2796.928163
 20
-3674.205674
  0
POINT
  8
3
 10
-2794.885421
 20
-3675.763343
  0
POINT
  8
3
 10
-2793.226365
 20
-3676.823995
  0
POINT
  8
3
 10
-2790.130547
 20
-3678.442914
  0
POINT
  8
3
 10
-2787.173629
 20
-3679.721772
  0
POINT
  8
3
 10
-2782.222409
 20
-3681.564328
  0
POINT
  8
3
 10
-2781.025980
 20
-3706.810083
  0
POINT
  8
3
 10
-2784.451480
 20
-3721.836369
  0
POINT
  8
3
 10
-2787.863405
 20
-3737.644908
  0
POINT
  8
3
 10
-2790.911513
 20
-3752.858405
  0
POINT
  8
3
 10
-2793.690706
 20
-3768.033462
  0
POINT
  8
3
 10
-2795.982109
 20
-3781.515927
  0
POINT
  8
3
 10
-2797.987952
 20
-3794.667787
  0
POINT
  8
3
 10
-2799.404315
 20
-3805.621884
  0
POINT
  8
3
 10
-2800.334404
 20
-3814.576711
  0
POINT
  8
3
 10
-2801.017693
 20
-3823.611745
  0
POINT
  8
3
 10
-2801.402379
 20
-3832.009292
  0
POINT
  8
3
 10
-2801.517157
 20
-3839.604474
  0
POINT
  8
3
 10
-2801.391369
 20
-3846.740312
  0
POINT
  8
3
 10
-2800.859049
 20
-3853.946674
  0
POINT
  8
3
 10
-2800.030917
 20
-3861.637640
  0
POINT
  8
3
 10
-2798.828168
 20
-3870.347749
  0
POINT
  8
3
 10
-2797.109996
 20
-3880.827509
  0
POINT
  8
3
 10
-2794.426035
 20
-3895.380825
  0
POINT
  8
3
 10
-2791.538227
 20
-3910.439828
  0
POINT
  8
3
 10
-2788.760089
 20
-3925.643135
  0
POINT
  8
3
 10
-2786.685238
 20
-3938.242886
  0
POINT
  8
3
 10
-2784.909605
 20
-3950.666556
  0
POINT
  8
3
 10
-2784.258339
 20
-3955.692379
  0
POINT
  8
3
 10
-2783.990008
 20
-3957.840361
  0
POINT
  8
3
 10
-2783.690843
 20
-3961.821584
  0
POINT
  8
3
 10
-2782.768700
 20
-3974.001256
  0
POINT
  8
3
 10
-2782.036199
 20
-3990.879862
  0
POINT
  8
3
 10
-2781.813291
 20
-4007.610684
  0
POINT
  8
3
 10
-2782.119371
 20
-4023.995405
  0
POINT
  8
3
 10
-2782.898968
 20
-4038.568170
  0
POINT
  8
3
 10
-2782.924504
 20
-4039.045509
  0
POINT
  8
3
 10
-2784.024721
 20
-4051.375616
  0
POINT
  8
3
 10
-2785.677098
 20
-4064.488510
  0
POINT
  8
3
 10
-2787.772617
 20
-4077.516188
  0
POINT
  8
3
 10
-2790.695271
 20
-4092.596188
  0
POINT
  8
3
 10
-2794.547189
 20
-4109.657506
  0
POINT
  8
3
 10
-2801.832539
 20
-4129.429928
  0
POINT
  8
3
 10
-2839.610641
 20
-4121.077970
  0
POINT
  8
3
 10
-2913.624731
 20
-4092.843562
  0
POINT
  8
3
 10
-2808.379452
 20
-3655.758025
  0
TEXT
  8
3
 10
-2808.379452
 20
-3655.758025
 40
0.000000
 50
0.000000
  1
# 175
  0
POINT
  8
4
 10
-2951.947628
 20
-3902.542547
 30
0.600000
 50
349.18
  0
TEXT
  8
4
 10
-2951.947628
 20
-3902.542547
 40
0.000000
 50
0.000000
  1
# 176
  0
POINT
  8
4
 10
-2963.830035
 20
-3756.962567
 30
0.600000
 50
 12.68
  0
TEXT
  8
4
 10
-2963.830035
 20
-3756.962567
 40
0.000000
 50
0.000000
  1
# 177
  0
POINT
  8
4
 10
-2982.352864
 20
-3591.562701
 30
0.600000
 50
  0.43
  0
TEXT
  8
4
 10
-2982.352864
 20
-3591.562701
 40
0.000000
 50
0.000000
  1
# 178
  0
POINT
  8
4
 10
-2812.737118
 20
-3626.240037
 30
0.600000
 50
181.38
  0
TEXT
  8
4
 10
-2812.737118
 20
-3626.240037
 40
0.000000
 50
0.000000
  1
# 179
  0
POINT
  8
4
 10
-2795.982109
 20
-3781.515927
 30
0.600000
 50
170.35
  0
TEXT
  8
4
 10
-2795.982109
 20
-3781.515927
 40
0.000000
 50
0.000000
  1
# 180
  0
POINT
  8
4
 10
-2783.990008
 20
-3957.840361
 30
0.600000
 50
184.30
  0
TEXT
  8
4
 10
-2783.990008
 20
-3957.840361
 40
0.000000
 50
0.000000
  1
# 181
  0
POINT
  8
4
 10
-2782.898968
 20
-4038.568170
 30
0.600000
 50
176.94
  0
TEXT
  8
4
 10
-2782.898968
 20
-4038.568170
 40
0.000000
 50
0.000000
  1
# 182
  0
POLYLINE
  8
8
  66
1
  70
1
  0
VERTEX
  8
8
  10
-2987.152405
  20
-4047.665710
  0
VERTEX
  8
8
  10
-2983.922341
  20
-4039.122262
  0
VERTEX
  8
8
  10
-2976.166031
  20
-4017.971690
  0
VERTEX
  8
8
  10
-2970.194032
  20
-4000.616286
  0
VERTEX
  8
8
  10
-2964.325704
  20
-3982.176180
  0
VERTEX
  8
8
  10
-2956.882624
  20
-3957.113536
  0
VERTEX
  8
8
  10
-2952.214757
  20
-3940.227096
  0
VERTEX
  8
8
  10
-2948.691663
  20
-3926.006271
  0
VERTEX
  8
8
  10
-2945.483872
  20
-3911.333993
  0
VERTEX
  8
8
  10
-2944.041748
  20
-3904.053650
  0
VERTEX
  8
8
  10
-2942.737940
  20
-3896.966904
  0
VERTEX
  8
8
  10
-2940.627968
  20
-3883.785620
  0
VERTEX
  8
8
  10
-2939.217341
  20
-3872.489749
  0
VERTEX
  8
8
  10
-2938.443784
  20
-3863.204160
  0
VERTEX
  8
8
  10
-2938.137387
  20
-3854.865995
  0
VERTEX
  8
8
  10
-2938.254779
  20
-3846.750531
  0
VERTEX
  8
8
  10
-2938.819921
  20
-3838.364829
  0
VERTEX
  8
8
  10
-2939.958594
  20
-3828.691299
  0
VERTEX
  8
8
  10
-2941.687982
  20
-3818.101193
  0
VERTEX
  8
8
  10
-2944.166944
  20
-3805.835572
  0
VERTEX
  8
8
  10
-2953.760932
  20
-3765.274217
  0
VERTEX
  8
8
  10
-2956.075134
  20
-3755.218201
  0
VERTEX
  8
8
  10
-2958.109821
  20
-3745.940747
  0
VERTEX
  8
8
  10
-2961.915260
  20
-3727.132108
  0
VERTEX
  8
8
  10
-2965.072903
  20
-3709.440232
  0
VERTEX
  8
8
  10
-2967.607545
  20
-3692.947742
  0
VERTEX
  8
8
  10
-2969.709717
  20
-3676.493481
  0
VERTEX
  8
8
  10
-2971.406895
  20
-3659.824937
  0
VERTEX
  8
8
  10
-2972.737948
  20
-3642.354959
  0
VERTEX
  8
8
  10
-2973.699785
  20
-3623.750763
  0
VERTEX
  8
8
  10
-2974.254884
  20
-3604.569711
  0
VERTEX
  8
8
  10
-2974.404297
  20
-3591.502686
  0
VERTEX
  8
8
  10
-2974.412345
  20
-3583.709932
  0
VERTEX
  8
8
  10
-2974.130409
  20
-3561.186211
  0
VERTEX
  8
8
  10
-2973.323236
  20
-3534.801934
  0
VERTEX
  8
8
  10
-2971.381226
  20
-3491.632080
  0
VERTEX
  8
8
  10
-2960.928298
  20
-3491.675930
  0
VERTEX
  8
8
  10
-2951.833951
  20
-3491.254615
  0
VERTEX
  8
8
  10
-2943.757536
  20
-3490.439271
  0
VERTEX
  8
8
  10
-2936.578414
  20
-3489.273702
  0
VERTEX
  8
8
  10
-2928.922101
  20
-3487.547802
  0
VERTEX
  8
8
  10
-2922.917973
  20
-3485.698689
  0
VERTEX
  8
8
  10
-2917.865013
  20
-3483.650070
  0
VERTEX
  8
8
  10
-2913.753147
  20
-3481.518600
  0
VERTEX
  8
8
  10
-2910.230247
  20
-3479.234092
  0
VERTEX
  8
8
  10
-2906.696769
  20
-3476.422118
  0
VERTEX
  8
8
  10
-2902.799939
  20
-3472.746068
  0
VERTEX
  8
8
  10
-2899.334106
  20
-3468.930664
  0
VERTEX
  8
8
  10
-2884.877319
  20
-3474.970703
  0
VERTEX
  8
8
  10
-2871.004333
  20
-3480.816956
  0
VERTEX
  8
8
  10
-2857.019958
  20
-3486.767273
  0
VERTEX
  8
8
  10
-2842.690125
  20
-3492.948914
  0
VERTEX
  8
8
  10
-2828.598022
  20
-3499.138184
  0
VERTEX
  8
8
  10
-2814.926453
  20
-3505.256653
  0
VERTEX
  8
8
  10
-2801.471863
  20
-3511.359253
  0
VERTEX
  8
8
  10
-2798.489990
  20
-3512.723999
  0
VERTEX
  8
8
  10
-2802.492065
  20
-3523.680115
  0
VERTEX
  8
8
  10
-2806.162415
  20
-3534.542236
  0
VERTEX
  8
8
  10
-2809.433289
  20
-3545.052490
  0
VERTEX
  8
8
  10
-2812.132874
  20
-3554.643860
  0
VERTEX
  8
8
  10
-2814.275208
  20
-3563.286438
  0
VERTEX
  8
8
  10
-2816.006470
  20
-3571.420593
  0
VERTEX
  8
8
  10
-2817.473450
  20
-3579.671021
  0
VERTEX
  8
8
  10
-2818.682251
  20
-3588.118591
  0
VERTEX
  8
8
  10
-2819.637146
  20
-3596.844788
  0
VERTEX
  8
8
  10
-2820.327759
  20
-3605.690613
  0
VERTEX
  8
8
  10
-2820.734253
  20
-3614.171143
  0
VERTEX
  8
8
  10
-2820.844727
  20
-3621.857300
  0
VERTEX
  8
8
  10
-2820.734863
  20
-3626.432190
  0
VERTEX
  8
8
  10
-2820.659180
  20
-3629.580078
  0
VERTEX
  8
8
  10
-2820.207825
  20
-3636.290588
  0
VERTEX
  8
8
  10
-2819.573975
  20
-3641.954346
  0
VERTEX
  8
8
  10
-2818.685913
  20
-3647.493286
  0
VERTEX
  8
8
  10
-2817.520142
  20
-3652.866516
  0
VERTEX
  8
8
  10
-2816.073870
  20
-3657.947986
  0
VERTEX
  8
8
  10
-2816.050415
  20
-3658.030396
  0
VERTEX
  8
8
  10
-2814.576416
  20
-3662.145996
  0
VERTEX
  8
8
  10
-2812.859802
  20
-3666.063538
  0
VERTEX
  8
8
  10
-2810.887146
  20
-3669.759827
  0
VERTEX
  8
8
  10
-2808.642883
  20
-3673.211060
  0
VERTEX
  8
8
  10
-2806.643066
  20
-3675.779114
  0
VERTEX
  8
8
  10
-2804.452515
  20
-3678.162842
  0
VERTEX
  8
8
  10
-2802.065430
  20
-3680.348816
  0
VERTEX
  8
8
  10
-2799.473267
  20
-3682.325439
  0
VERTEX
  8
8
  10
-2797.242126
  20
-3683.751831
  0
VERTEX
  8
8
  10
-2793.576660
  20
-3685.668640
  0
VERTEX
  8
8
  10
-2790.122681
  20
-3687.162476
  0
VERTEX
  8
8
  10
-2785.980225
  20
-3688.658142
  0
VERTEX
  8
8
  10
-2789.784241
  20
-3704.738159
  0
VERTEX
  8
8
  10
-2793.226318
  20
-3719.835815
  0
VERTEX
  8
8
  10
-2796.660767
  20
-3735.745850
  0
VERTEX
  8
8
  10
-2799.736023
  20
-3751.089783
  0
VERTEX
  8
8
  10
-2802.543335
  20
-3766.411438
  0
VERTEX
  8
8
  10
-2804.855957
  20
-3780.006409
  0
VERTEX
  8
8
  10
-2804.855957
  20
-3780.006409
  0
VERTEX
  8
8
  10
-2806.885071
  20
-3793.310852
  0
VERTEX
  8
8
  10
-2808.329773
  20
-3804.465942
  0
VERTEX
  8
8
  10
-2809.308777
  20
-3813.898010
  0
VERTEX
  8
8
  10
-2809.992065
  20
-3822.933044
  0
VERTEX
  8
8
  10
-2810.392761
  20
-3831.593323
  0
VERTEX
  8
8
  10
-2810.516052
  20
-3839.463501
  0
VERTEX
  8
8
  10
-2810.385742
  20
-3847.148438
  0
VERTEX
  8
8
  10
-2809.834595
  20
-3854.609680
  0
VERTEX
  8
8
  10
-2808.979797
  20
-3862.595520
  0
VERTEX
  8
8
  10
-2807.744141
  20
-3871.574707
  0
VERTEX
  8
8
  10
-2805.991821
  20
-3882.281189
  0
VERTEX
  8
8
  10
-2803.276978
  20
-3897.012024
  0
VERTEX
  8
8
  10
-2800.377197
  20
-3912.134705
  0
VERTEX
  8
8
  10
-2797.613525
  20
-3927.260742
  0
VERTEX
  8
8
  10
-2795.565796
  20
-3939.704285
  0
VERTEX
  8
8
  10
-2793.819275
  20
-3951.938477
  0
VERTEX
  8
8
  10
-2792.968140
  20
-3958.515015
  0
VERTEX
  8
8
  10
-2792.968140
  20
-3958.515015
  0
VERTEX
  8
8
  10
-2791.753325
  20
-3974.527098
  0
VERTEX
  8
8
  10
-2791.032556
  20
-3991.135924
  0
VERTEX
  8
8
  10
-2790.813268
  20
-4007.590550
  0
VERTEX
  8
8
  10
-2791.113573
  20
-4023.672388
  0
VERTEX
  8
8
  10
-2791.878967
  20
-4038.087769
  0
VERTEX
  8
8
  10
-2791.901191
  20
-4038.398138
  0
VERTEX
  8
8
  10
-2792.973439
  20
-4050.416224
  0
VERTEX
  8
8
  10
-2794.585024
  20
-4063.204440
  0
VERTEX
  8
8
  10
-2796.635025
  20
-4075.948475
  0
VERTEX
  8
8
  10
-2799.503453
  20
-4090.747968
  0
VERTEX
  8
8
  10
-2803.297619
  20
-4107.552758
  0
VERTEX
  8
8
  10
-2805.589294
  20
-4116.817322
  0
VERTEX
  8
8
  10
-2834.775391
  20
-4106.878662
  0
VERTEX
  8
8
  10
-2908.276672
  20
-4078.829346
  0
VERTEX
  8
8
  10
-2987.152405
  20
-4047.665710
  0
SEQEND
  8
8
  0
POINT
  8
2
 10
-2987.152405
 20
-4047.665710
  0
TEXT
  8
2
 10
-2987.152405
 20
-4047.665710
 40
0.000000
 50
0.000000
  1
# 183
  0
POINT
  8
2
 10
-2971.381226
 20
-3491.632080
  0
TEXT
  8
2
 10
-2971.381226
 20
-3491.632080
 40
0.000000
 50
0.000000
  1
# 184
  0
POINT
  8
2
 10
-2899.334106
 20
-3468.930664
  0
TEXT
  8
2
 10
-2899.334106
 20
-3468.930664
 40
0.000000
 50
0.000000
  1
# 185
  0
POINT
  8
2
 10
-2798.489990
 20
-3512.723999
  0
TEXT
  8
2
 10
-2798.489990
 20
-3512.723999
 40
0.000000
 50
0.000000
  1
# 186
  0
POINT
  8
2
 10
-2785.980225
 20
-3688.658142
  0
TEXT
  8
2
 10
-2785.980225
 20
-3688.658142
 40
0.000000
 50
0.000000
  1
# 187
  0
POINT
  8
2
 10
-2804.855957
 20
-3780.006409
  0
TEXT
  8
2
 10
-2804.855957
 20
-3780.006409
 40
0.000000
 50
0.000000
  1
# 188
  0
POINT
  8
2
 10
-2792.968140
 20
-3958.515015
  0
TEXT
  8
2
 10
-2792.968140
 20
-3958.515015
 40
0.000000
 50
0.000000
  1
# 189
  0
POINT
  8
2
 10
-2805.589294
 20
-4116.817322
  0
TEXT
  8
2
 10
-2805.589294
 20
-4116.817322
 40
0.000000
 50
0.000000
  1
# 190
  0
POINT
  8
2
 10
-2987.152405
 20
-4047.665710
  0
TEXT
  8
2
 10
-2987.152405
 20
-4047.665710
 40
0.000000
 50
0.000000
  1
# 191
  0
POINT
  8
3
 10
-2983.922341
 20
-4039.122262
  0
POINT
  8
3
 10
-2976.166031
 20
-4017.971690
  0
POINT
  8
3
 10
-2970.194032
 20
-4000.616286
  0
POINT
  8
3
 10
-2964.325704
 20
-3982.176180
  0
POINT
  8
3
 10
-2956.882624
 20
-3957.113536
  0
POINT
  8
3
 10
-2952.214757
 20
-3940.227096
  0
POINT
  8
3
 10
-2948.691663
 20
-3926.006271
  0
POINT
  8
3
 10
-2945.483872
 20
-3911.333993
  0
POINT
  8
3
 10
-2944.041748
 20
-3904.053650
  0
POINT
  8
3
 10
-2942.737940
 20
-3896.966904
  0
POINT
  8
3
 10
-2940.627968
 20
-3883.785620
  0
POINT
  8
3
 10
-2939.217341
 20
-3872.489749
  0
POINT
  8
3
 10
-2938.443784
 20
-3863.204160
  0
POINT
  8
3
 10
-2938.137387
 20
-3854.865995
  0
POINT
  8
3
 10
-2938.254779
 20
-3846.750531
  0
POINT
  8
3
 10
-2938.819921
 20
-3838.364829
  0
POINT
  8
3
 10
-2939.958594
 20
-3828.691299
  0
POINT
  8
3
 10
-2941.687982
 20
-3818.101193
  0
POINT
  8
3
 10
-2944.166944
 20
-3805.835572
  0
POINT
  8
3
 10
-2953.760932
 20
-3765.274217
  0
POINT
  8
3
 10
-2956.075134
 20
-3755.218201
  0
POINT
  8
3
 10
-2958.109821
 20
-3745.940747
  0
POINT
  8
3
 10
-2961.915260
 20
-3727.132108
  0
POINT
  8
3
 10
-2965.072903
 20
-3709.440232
  0
POINT
  8
3
 10
-2967.607545
 20
-3692.947742
  0
POINT
  8
3
 10
-2969.709717
 20
-3676.493481
  0
POINT
  8
3
 10
-2971.406895
 20
-3659.824937
  0
POINT
  8
3
 10
-2972.737948
 20
-3642.354959
  0
POINT
  8
3
 10
-2973.699785
 20
-3623.750763
  0
POINT
  8
3
 10
-2974.254884
 20
-3604.569711
  0
POINT
  8
3
 10
-2974.404297
 20
-3591.502686
  0
POINT
  8
3
 10
-2974.412345
 20
-3583.709932
  0
POINT
  8
3
 10
-2974.130409
 20
-3561.186211
  0
POINT
  8
3
 10
-2973.323236
 20
-3534.801934
  0
POINT
  8
3
 10
-2960.928298
 20
-3491.675930
  0
POINT
  8
3
 10
-2951.833951
 20
-3491.254615
  0
POINT
  8
3
 10
-2943.757536
 20
-3490.439271
  0
POINT
  8
3
 10
-2936.578414
 20
-3489.273702
  0
POINT
  8
3
 10
-2928.922101
 20
-3487.547802
  0
POINT
  8
3
 10
-2922.917973
 20
-3485.698689
  0
POINT
  8
3
 10
-2917.865013
 20
-3483.650070
  0
POINT
  8
3
 10
-2913.753147
 20
-3481.518600
  0
POINT
  8
3
 10
-2910.230247
 20
-3479.234092
  0
POINT
  8
3
 10
-2906.696769
 20
-3476.422118
  0
POINT
  8
3
 10
-2902.799939
 20
-3472.746068
  0
POINT
  8
3
 10
-2792.968140
 20
-3958.515015
  0
POINT
  8
3
 10
-2791.753325
 20
-3974.527098
  0
POINT
  8
3
 10
-2791.032556
 20
-3991.135924
  0
POINT
  8
3
 10
-2790.813268
 20
-4007.590550
  0
POINT
  8
3
 10
-2791.113573
 20
-4023.672388
  0
POINT
  8
3
 10
-2791.878967
 20
-4038.087769
  0
POINT
  8
3
 10
-2791.901191
 20
-4038.398138
  0
POINT
  8
3
 10
-2792.973439
 20
-4050.416224
  0
POINT
  8
3
 10
-2794.585024
 20
-4063.204440
  0
POINT
  8
3
 10
-2796.635025
 20
-4075.948475
  0
POINT
  8
3
 10
-2799.503453
 20
-4090.747968
  0
POINT
  8
3
 10
-2803.297619
 20
-4107.552758
  0
POINT
  8
3
 10
-2816.073870
 20
-3657.947986
  0
TEXT
  8
3
 10
-2816.073870
 20
-3657.947986
 40
0.000000
 50
0.000000
  1
# 192
  0
POINT
  8
4
 10
-2944.041748
 20
-3904.053650
 30
0.600000
 50
349.17
  0
TEXT
  8
4
 10
-2944.041748
 20
-3904.053650
 40
0.000000
 50
0.000000
  1
# 193
  0
POINT
  8
4
 10
-2956.075134
 20
-3755.218201
 30
0.600000
 50
 12.66
  0
TEXT
  8
4
 10
-2956.075134
 20
-3755.218201
 40
0.000000
 50
0.000000
  1
# 194
  0
POINT
  8
4
 10
-2974.404297
 20
-3591.502686
 30
0.600000
 50
  0.28
  0
TEXT
  8
4
 10
-2974.404297
 20
-3591.502686
 40
0.000000
 50
0.000000
  1
# 195
  0
POINT
  8
4
 10
-2820.734863
 20
-3626.432190
 30
0.600000
 50
181.38
  0
TEXT
  8
4
 10
-2820.734863
 20
-3626.432190
 40
0.000000
 50
0.000000
  1
# 196
  0
POINT
  8
4
 10
-2804.855957
 20
-3780.006409
 30
0.600000
 50
170.35
  0
TEXT
  8
4
 10
-2804.855957
 20
-3780.006409
 40
0.000000
 50
0.000000
  1
# 197
  0
POINT
  8
4
 10
-2792.968140
 20
-3958.515015
 30
0.600000
 50
184.90
  0
TEXT
  8
4
 10
-2792.968140
 20
-3958.515015
 40
0.000000
 50
0.000000
  1
# 198
  0
POINT
  8
4
 10
-2791.878967
 20
-4038.087769
 30
0.600000
 50
175.92
  0
TEXT
  8
4
 10
-2791.878967
 20
-4038.087769
 40
0.000000
 50
0.000000
  1
# 199
  0
POLYLINE
  8
11
  66
1
  70
0
  0
VERTEX
  8
1
  10
-2785.980225
  20
-3688.658142
  0
VERTEX
  8
1
  10
-2851.565032
  20
-3690.104305
  0
VERTEX
  8
1
  10
-2902.059235
  20
-3691.217716
  0
VERTEX
  8
1
  10
-2950.879169
  20
-3692.294209
  0
VERTEX
  8
1
  10
-2967.644043
  20
-3692.663879
  0
SEQEND
  8
11
  0
POINT
  8
2
 10
-2785.980225
 20
-3688.658142
  0
TEXT
  8
2
 10
-2785.980225
 20
-3688.658142
 40
0.000000
 50
0.000000
  1
# 200
  0
POINT
  8
2
 10
-2967.644043
 20
-3692.663879
  0
TEXT
  8
2
 10
-2967.644043
 20
-3692.663879
 40
0.000000
 50
0.000000
  1
# 201
  0
POINT
  8
3
 10
-2851.565032
 20
-3690.104305
  0
POINT
  8
3
 10
-2902.059235
 20
-3691.217716
  0
POINT
  8
3
 10
-2950.879169
 20
-3692.294209
  0
POLYLINE
  8
11
  6
2
  66
1
  70
0
  0
VERTEX
  8
1
  10
-2971.610107
  20
-3496.628113
  0
VERTEX
  8
1
  10
-2963.319092
  20
-3496.668091
  0
VERTEX
  8
1
  10
-2956.576843
  20
-3496.473999
  0
VERTEX
  8
1
  10
-2950.761414
  20
-3496.080627
  0
VERTEX
  8
1
  10
-2945.218811
  20
-3495.475159
  0
VERTEX
  8
1
  10
-2939.880676
  20
-3494.659729
  0
VERTEX
  8
1
  10
-2934.910583
  20
-3493.670654
  0
VERTEX
  8
1
  10
-2930.152588
  20
-3492.489624
  0
VERTEX
  8
1
  10
-2925.628967
  20
-3491.124878
  0
VERTEX
  8
1
  10
-2921.399231
  20
-3489.603577
  0
VERTEX
  8
1
  10
-2917.454529
  20
-3487.937012
  0
VERTEX
  8
1
  10
-2913.783569
  20
-3486.136475
  0
VERTEX
  8
1
  10
-2910.345764
  20
-3484.189453
  0
VERTEX
  8
1
  10
-2907.146606
  20
-3482.117004
  0
VERTEX
  8
1
  10
-2904.235840
  20
-3479.949646
  0
VERTEX
  8
1
  10
-2901.797180
  20
-3477.909241
  0
VERTEX
  8
1
  10
-2900.471191
  20
-3476.822510
  0
SEQEND
  8
11
  0
POINT
  8
2
 10
-2971.610107
 20
-3496.628113
  0
TEXT
  8
2
 10
-2971.610107
 20
-3496.628113
 40
0.000000
 50
0.000000
  1
# 202
  0
POINT
  8
2
 10
-2900.471191
 20
-3476.822510
  0
TEXT
  8
2
 10
-2900.471191
 20
-3476.822510
 40
0.000000
 50
0.000000
  1
# 203
  0
POLYLINE
  8
11
  66
1
  70
0
  0
VERTEX
  8
1
  10
-2937.969971
  20
-3854.828491
  0
VERTEX
  8
1
  10
-2880.009374
  20
-3853.124895
  0
VERTEX
  8
1
  10
-2830.057878
  20
-3851.656704
  0
VERTEX
  8
1
  10
-2810.074158
  20
-3851.069336
  0
SEQEND
  8
11
  0
POINT
  8
2
 10
-2937.969971
 20
-3854.828491
  0
TEXT
  8
2
 10
-2937.969971
 20
-3854.828491
 40
0.000000
 50
0.000000
  1
# 204
  0
POINT
  8
2
 10
-2810.074158
 20
-3851.069336
  0
TEXT
  8
2
 10
-2810.074158
 20
-3851.069336
 40
0.000000
 50
0.000000
  1
# 205
  0
POINT
  8
3
 10
-2880.009374
 20
-3853.124895
  0
POINT
  8
3
 10
-2830.057878
 20
-3851.656704
  0
POLYLINE
  8
11
  66
1
  70
0
  0
VERTEX
  8
1
  10
-2814.865112
  20
-3778.658752
  0
VERTEX
  8
1
  10
-2813.001099
  20
-3779.592285
  0
VERTEX
  8
1
  10
-2812.255859
  20
-3780.187683
  0
VERTEX
  8
1
  10
-2812.105713
  20
-3780.545044
  0
VERTEX
  8
1
  10
-2812.275391
  20
-3780.813599
  0
VERTEX
  8
1
  10
-2812.940979
  20
-3781.129761
  0
VERTEX
  8
1
  10
-2814.806213
  20
-3781.567078
  0
VERTEX
  8
1
  10
-2817.658997
  20
-3782.174683
  0
VERTEX
  8
1
  10
-2818.410950
  20
-3782.508240
  0
VERTEX
  8
1
  10
-2818.592834
  20
-3782.763062
  0
VERTEX
  8
1
  10
-2818.486328
  20
-3783.069153
  0
VERTEX
  8
1
  10
-2817.903442
  20
-3783.561707
  0
VERTEX
  8
1
  10
-2816.059265
  20
-3784.565735
  0
VERTEX
  8
1
  10
-2813.722229
  20
-3785.812683
  0
VERTEX
  8
1
  10
-2813.130188
  20
-3786.326599
  0
VERTEX
  8
1
  10
-2813.061523
  20
-3786.635742
  0
VERTEX
  8
1
  10
-2813.302002
  20
-3786.893616
  0
VERTEX
  8
1
  10
-2814.116211
  20
-3787.220764
  0
VERTEX
  8
1
  10
-2818.932495
  20
-3788.349609
  0
VERTEX
  8
1
  10
-2819.440308
  20
-3788.673096
  0
VERTEX
  8
1
  10
-2819.496155
  20
-3788.945007
  0
VERTEX
  8
1
  10
-2819.206543
  20
-3789.321594
  0
VERTEX
  8
1
  10
-2818.229370
  20
-3789.955139
  0
VERTEX
  8
1
  10
-2814.473572
  20
-3791.912842
  0
VERTEX
  8
1
  10
-2813.976746
  20
-3792.384338
  0
VERTEX
  8
1
  10
-2813.946228
  20
-3792.663879
  0
VERTEX
  8
1
  10
-2814.240417
  20
-3792.941284
  0
VERTEX
  8
1
  10
-2815.221252
  20
-3793.304443
  0
VERTEX
  8
1
  10
-2819.650269
  20
-3794.357605
  0
VERTEX
  8
1
  10
-2820.256653
  20
-3794.697876
  0
VERTEX
  8
1
  10
-2820.359192
  20
-3794.964600
  0
VERTEX
  8
1
  10
-2820.146484
  20
-3795.304260
  0
VERTEX
  8
1
  10
-2819.350281
  20
-3795.857544
  0
VERTEX
  8
1
  10
-2815.171814
  20
-3798.014526
  0
VERTEX
  8
1
  10
-2814.765930
  20
-3798.445129
  0
VERTEX
  8
1
  10
-2814.780579
  20
-3798.718567
  0
VERTEX
  8
1
  10
-2815.158997
  20
-3799.013062
  0
VERTEX
  8
1
  10
-2816.342468
  20
-3799.412842
  0
VERTEX
  8
1
  10
-2820.342102
  20
-3800.393677
  0
VERTEX
  8
1
  10
-2821.022644
  20
-3800.757141
  0
VERTEX
  8
1
  10
-2821.145935
  20
-3801.022949
  0
VERTEX
  8
1
  10
-2820.980530
  20
-3801.330872
  0
VERTEX
  8
1
  10
-2820.281677
  20
-3801.840210
  0
VERTEX
  8
1
  10
-2817.973938
  20
-3802.960205
  0
VERTEX
  8
1
  10
-2816.083374
  20
-3803.919067
  0
VERTEX
  8
1
  10
-2815.547791
  20
-3804.380188
  0
VERTEX
  8
1
  10
-2815.486145
  20
-3804.660034
  0
VERTEX
  8
1
  10
-2815.716248
  20
-3804.925537
  0
VERTEX
  8
1
  10
-2816.518250
  20
-3805.280457
  0
VERTEX
  8
1
  10
-2821.245728
  20
-3806.561584
  0
VERTEX
  8
1
  10
-2821.767883
  20
-3806.901550
  0
VERTEX
  8
1
  10
-2821.839294
  20
-3807.173462
  0
VERTEX
  8
1
  10
-2821.593018
  20
-3807.510376
  0
VERTEX
  8
1
  10
-2820.700378
  20
-3808.073120
  0
VERTEX
  8
1
  10
-2816.609802
  20
-3810.022583
  0
VERTEX
  8
1
  10
-2816.163940
  20
-3810.442810
  0
VERTEX
  8
1
  10
-2816.146240
  20
-3810.717163
  0
VERTEX
  8
1
  10
-2816.453552
  20
-3811.003723
  0
VERTEX
  8
1
  10
-2817.445984
  20
-3811.403809
  0
VERTEX
  8
1
  10
-2821.713257
  20
-3812.603760
  0
VERTEX
  8
1
  10
-2822.331848
  20
-3812.968750
  0
VERTEX
  8
1
  10
-2822.446899
  20
-3813.239136
  0
VERTEX
  8
1
  10
-2822.270813
  20
-3813.542175
  0
VERTEX
  8
1
  10
-2821.555481
  20
-3814.028625
  0
VERTEX
  8
1
  10
-2819.212036
  20
-3815.072632
  0
VERTEX
  8
1
  10
-2817.288818
  20
-3815.966492
  0
VERTEX
  8
1
  10
-2816.737366
  20
-3816.408081
  0
VERTEX
  8
1
  10
-2816.666260
  20
-3816.685486
  0
VERTEX
  8
1
  10
-2816.886902
  20
-3816.958313
  0
VERTEX
  8
1
  10
-2817.675781
  20
-3817.339783
  0
VERTEX
  8
1
  10
-2822.355347
  20
-3818.782349
  0
VERTEX
  8
1
  10
-2822.864685
  20
-3819.140625
  0
VERTEX
  8
1
  10
-2822.925720
  20
-3819.415588
  0
VERTEX
  8
1
  10
-2822.667847
  20
-3819.743347
  0
VERTEX
  8
1
  10
-2821.756592
  20
-3820.274353
  0
VERTEX
  8
1
  10
-2817.597351
  20
-3822.075500
  0
VERTEX
  8
1
  10
-2817.135925
  20
-3822.479248
  0
VERTEX
  8
1
  10
-2817.108154
  20
-3822.752991
  0
VERTEX
  8
1
  10
-2817.404175
  20
-3823.050232
  0
VERTEX
  8
1
  10
-2818.380737
  20
-3823.485718
  0
VERTEX
  8
1
  10
-2822.600403
  20
-3824.840088
  0
VERTEX
  8
1
  10
-2823.204346
  20
-3825.228271
  0
VERTEX
  8
1
  10
-2823.309326
  20
-3825.502014
  0
VERTEX
  8
1
  10
-2823.122864
  20
-3825.797729
  0
VERTEX
  8
1
  10
-2822.389221
  20
-3826.257324
  0
VERTEX
  8
1
  10
-2820.007324
  20
-3827.211609
  0
VERTEX
  8
1
  10
-2818.051147
  20
-3828.031921
  0
VERTEX
  8
1
  10
-2817.482300
  20
-3828.452148
  0
VERTEX
  8
1
  10
-2817.400208
  20
-3828.726501
  0
VERTEX
  8
1
  10
-2817.610779
  20
-3829.007263
  0
VERTEX
  8
1
  10
-2818.440247
  20
-3829.440613
  0
VERTEX
  8
1
  10
-2822.956848
  20
-3831.017151
  0
VERTEX
  8
1
  10
-2823.479614
  20
-3831.394958
  0
VERTEX
  8
1
  10
-2823.554382
  20
-3831.672668
  0
VERTEX
  8
1
  10
-2823.307800
  20
-3831.989746
  0
VERTEX
  8
1
  10
-2822.458496
  20
-3832.458801
  0
VERTEX
  8
1
  10
-2818.071289
  20
-3834.162903
  0
VERTEX
  8
1
  10
-2817.621460
  20
-3834.545898
  0
VERTEX
  8
1
  10
-2817.606812
  20
-3834.817200
  0
VERTEX
  8
1
  10
-2817.951355
  20
-3835.149231
  0
VERTEX
  8
1
  10
-2819.084473
  20
-3835.671387
  0
VERTEX
  8
1
  10
-2822.897034
  20
-3837.058411
  0
VERTEX
  8
1
  10
-2823.561096
  20
-3837.497253
  0
VERTEX
  8
1
  10
-2823.678589
  20
-3837.777100
  0
VERTEX
  8
1
  10
-2823.502197
  20
-3838.065186
  0
VERTEX
  8
1
  10
-2822.775574
  20
-3838.492737
  0
VERTEX
  8
1
  10
-2820.656433
  20
-3839.250488
  0
VERTEX
  8
1
  10
-2818.356934
  20
-3840.073547
  0
VERTEX
  8
1
  10
-2817.722168
  20
-3840.490417
  0
VERTEX
  8
1
  10
-2817.628479
  20
-3840.759277
  0
VERTEX
  8
1
  10
-2817.825317
  20
-3841.048584
  0
VERTEX
  8
1
  10
-2818.634949
  20
-3841.517944
  0
VERTEX
  8
1
  10
-2823.071594
  20
-3843.298645
  0
VERTEX
  8
1
  10
-2823.576050
  20
-3843.700562
  0
VERTEX
  8
1
  10
-2823.637390
  20
-3843.981934
  0
VERTEX
  8
1
  10
-2823.376160
  20
-3844.287109
  0
VERTEX
  8
1
  10
-2822.506104
  20
-3844.716187
  0
VERTEX
  8
1
  10
-2817.991028
  20
-3846.207581
  0
VERTEX
  8
1
  10
-2817.515869
  20
-3846.568298
  0
VERTEX
  8
1
  10
-2817.485352
  20
-3846.838074
  0
VERTEX
  8
1
  10
-2817.808533
  20
-3847.186584
  0
VERTEX
  8
1
  10
-2818.900452
  20
-3847.762756
  0
VERTEX
  8
1
  10
-2822.598267
  20
-3849.331970
  0
VERTEX
  8
1
  10
-2823.230591
  20
-3849.802551
  0
VERTEX
  8
1
  10
-2823.330688
  20
-3850.087280
  0
VERTEX
  8
1
  10
-2823.136292
  20
-3850.366211
  0
VERTEX
  8
1
  10
-2822.380066
  20
-3850.756836
  0
VERTEX
  8
1
  10
-2820.201721
  20
-3851.408691
  0
VERTEX
  8
1
  10
-2817.837524
  20
-3852.116089
  0
VERTEX
  8
1
  10
-2817.174377
  20
-3852.501221
  0
VERTEX
  8
1
  10
-2817.063599
  20
-3852.765808
  0
VERTEX
  8
1
  10
-2817.242737
  20
-3853.064575
  0
VERTEX
  8
1
  10
-2818.016968
  20
-3853.572998
  0
VERTEX
  8
1
  10
-2822.308350
  20
-3855.569763
  0
VERTEX
  8
1
  10
-2822.785034
  20
-3855.996094
  0
VERTEX
  8
1
  10
-2822.828979
  20
-3856.279602
  0
VERTEX
  8
1
  10
-2822.548218
  20
-3856.571655
  0
VERTEX
  8
1
  10
-2821.646729
  20
-3856.956482
  0
VERTEX
  8
1
  10
-2817.061768
  20
-3858.222961
  0
VERTEX
  8
1
  10
-2816.569214
  20
-3858.560181
  0
VERTEX
  8
1
  10
-2816.525574
  20
-3858.828735
  0
VERTEX
  8
1
  10
-2816.830139
  20
-3859.192505
  0
VERTEX
  8
1
  10
-2817.891846
  20
-3859.822388
  0
VERTEX
  8
1
  10
-2821.506348
  20
-3861.571350
  0
VERTEX
  8
1
  10
-2822.115784
  20
-3862.071533
  0
VERTEX
  8
1
  10
-2822.201233
  20
-3862.360840
  0
VERTEX
  8
1
  10
-2821.993713
  20
-3862.630005
  0
VERTEX
  8
1
  10
-2821.218567
  20
-3862.983093
  0
VERTEX
  8
1
  10
-2819.011841
  20
-3863.529968
  0
VERTEX
  8
1
  10
-2816.616821
  20
-3864.127502
  0
VERTEX
  8
1
  10
-2815.935364
  20
-3864.481812
  0
VERTEX
  8
1
  10
-2815.812378
  20
-3864.741516
  0
VERTEX
  8
1
  10
-2815.977173
  20
-3865.049133
  0
VERTEX
  8
1
  10
-2816.675415
  20
-3865.563354
  0
VERTEX
  8
1
  10
-2820.963745
  20
-3867.808228
  0
VERTEX
  8
1
  10
-2821.394043
  20
-3868.250732
  0
VERTEX
  8
1
  10
-2821.401367
  20
-3868.531799
  0
VERTEX
  8
1
  10
-2821.083374
  20
-3868.807678
  0
VERTEX
  8
1
  10
-2820.080261
  20
-3869.166870
  0
VERTEX
  8
1
  10
-2815.614014
  20
-3870.193787
  0
VERTEX
  8
1
  10
-2815.079956
  20
-3870.507813
  0
VERTEX
  8
1
  10
-2815.000916
  20
-3870.771790
  0
VERTEX
  8
1
  10
-2815.232849
  20
-3871.116333
  0
VERTEX
  8
1
  10
-2816.103821
  20
-3871.717224
  0
VERTEX
  8
1
  10
-2819.966431
  20
-3873.790283
  0
VERTEX
  8
1
  10
-2820.484619
  20
-3874.276733
  0
VERTEX
  8
1
  10
-2820.535583
  20
-3874.564209
  0
VERTEX
  8
1
  10
-2820.295105
  20
-3874.822083
  0
VERTEX
  8
1
  10
-2819.482117
  20
-3875.144348
  0
VERTEX
  8
1
  10
-2816.941223
  20
-3875.664978
  0
VERTEX
  8
1
  10
-2814.848328
  20
-3876.130676
  0
VERTEX
  8
1
  10
-2814.206848
  20
-3876.446228
  0
VERTEX
  8
1
  10
-2814.074097
  20
-3876.702271
  0
VERTEX
  8
1
  10
-2814.227600
  20
-3877.015076
  0
VERTEX
  8
1
  10
-2814.908447
  20
-3877.552185
  0
VERTEX
  8
1
  10
-2819.163208
  20
-3879.960938
  0
VERTEX
  8
1
  10
-2819.553223
  20
-3880.411377
  0
VERTEX
  8
1
  10
-2819.527283
  20
-3880.687866
  0
VERTEX
  8
1
  10
-2819.138489
  20
-3880.968628
  0
VERTEX
  8
1
  10
-2818.009949
  20
-3881.304321
  0
VERTEX
  8
1
  10
-2813.804932
  20
-3882.132874
  0
VERTEX
  8
1
  10
-2813.187256
  20
-3882.445679
  0
VERTEX
  8
1
  10
-2813.076172
  20
-3882.704468
  0
VERTEX
  8
1
  10
-2813.275146
  20
-3883.051453
  0
VERTEX
  8
1
  10
-2814.103088
  20
-3883.670349
  0
VERTEX
  8
1
  10
-2818.009644
  20
-3885.901489
  0
VERTEX
  8
1
  10
-2818.489380
  20
-3886.395264
  0
VERTEX
  8
1
  10
-2818.509521
  20
-3886.678772
  0
VERTEX
  8
1
  10
-2818.205261
  20
-3886.945496
  0
VERTEX
  8
1
  10
-2817.213135
  20
-3887.268677
  0
VERTEX
  8
1
  10
-2812.651367
  20
-3888.145752
  0
VERTEX
  8
1
  10
-2812.106323
  20
-3888.441772
  0
VERTEX
  8
1
  10
-2812.016296
  20
-3888.703613
  0
VERTEX
  8
1
  10
-2812.236328
  20
-3889.057007
  0
VERTEX
  8
1
  10
-2813.085022
  20
-3889.687500
  0
VERTEX
  8
1
  10
-2816.920471
  20
-3891.917725
  0
VERTEX
  8
1
  10
-2817.395325
  20
-3892.415161
  0
VERTEX
  8
1
  10
-2817.413635
  20
-3892.698364
  0
VERTEX
  8
1
  10
-2817.106934
  20
-3892.962646
  0
VERTEX
  8
1
  10
-2816.112061
  20
-3893.277893
  0
VERTEX
  8
1
  10
-2811.546021
  20
-3894.123840
  0
VERTEX
  8
1
  10
-2810.998535
  20
-3894.416809
  0
VERTEX
  8
1
  10
-2810.906982
  20
-3894.679260
  0
VERTEX
  8
1
  10
-2811.125488
  20
-3895.034485
  0
VERTEX
  8
1
  10
-2811.968994
  20
-3895.670776
  0
VERTEX
  8
1
  10
-2815.834045
  20
-3897.952576
  0
VERTEX
  8
1
  10
-2816.266785
  20
-3898.419495
  0
VERTEX
  8
1
  10
-2816.282959
  20
-3898.702393
  0
VERTEX
  8
1
  10
-2815.975952
  20
-3898.964539
  0
VERTEX
  8
1
  10
-2814.978943
  20
-3899.274902
  0
VERTEX
  8
1
  10
-2810.410156
  20
-3900.105286
  0
VERTEX
  8
1
  10
-2809.861755
  20
-3900.397339
  0
VERTEX
  8
1
  10
-2809.769287
  20
-3900.660095
  0
VERTEX
  8
1
  10
-2809.985962
  20
-3901.015320
  0
VERTEX
  8
1
  10
-2810.828552
  20
-3901.654358
  0
VERTEX
  8
1
  10
-2814.687500
  20
-3903.945007
  0
VERTEX
  8
1
  10
-2815.119324
  20
-3904.412842
  0
VERTEX
  8
1
  10
-2815.134888
  20
-3904.695129
  0
VERTEX
  8
1
  10
-2814.826660
  20
-3904.956970
  0
VERTEX
  8
1
  10
-2813.830261
  20
-3905.265808
  0
VERTEX
  8
1
  10
-2809.308167
  20
-3906.076050
  0
VERTEX
  8
1
  10
-2808.733521
  20
-3906.362610
  0
VERTEX
  8
1
  10
-2808.616028
  20
-3906.621704
  0
VERTEX
  8
1
  10
-2808.809204
  20
-3906.972961
  0
VERTEX
  8
1
  10
-2809.624939
  20
-3907.606812
  0
VERTEX
  8
1
  10
-2813.538818
  20
-3909.929199
  0
VERTEX
  8
1
  10
-2813.970642
  20
-3910.396423
  0
VERTEX
  8
1
  10
-2813.986816
  20
-3910.678711
  0
VERTEX
  8
1
  10
-2813.678894
  20
-3910.940247
  0
VERTEX
  8
1
  10
-2812.683105
  20
-3911.250000
  0
VERTEX
  8
1
  10
-2808.163147
  20
-3912.068481
  0
VERTEX
  8
1
  10
-2807.588196
  20
-3912.357178
  0
VERTEX
  8
1
  10
-2807.471313
  20
-3912.616882
  0
VERTEX
  8
1
  10
-2807.664490
  20
-3912.967834
  0
VERTEX
  8
1
  10
-2808.482361
  20
-3913.600464
  0
VERTEX
  8
1
  10
-2812.442627
  20
-3915.941772
  0
VERTEX
  8
1
  10
-2812.849426
  20
-3916.402893
  0
VERTEX
  8
1
  10
-2812.842407
  20
-3916.679993
  0
VERTEX
  8
1
  10
-2812.511292
  20
-3916.938477
  0
VERTEX
  8
1
  10
-2811.489868
  20
-3917.247314
  0
VERTEX
  8
1
  10
-2807.035828
  20
-3918.068848
  0
VERTEX
  8
1
  10
-2806.462097
  20
-3918.359375
  0
VERTEX
  8
1
  10
-2806.346130
  20
-3918.619690
  0
VERTEX
  8
1
  10
-2806.541138
  20
-3918.970337
  0
VERTEX
  8
1
  10
-2807.360229
  20
-3919.599609
  0
VERTEX
  8
1
  10
-2811.332397
  20
-3921.923828
  0
VERTEX
  8
1
  10
-2811.742249
  20
-3922.382507
  0
VERTEX
  8
1
  10
-2811.736755
  20
-3922.659607
  0
VERTEX
  8
1
  10
-2811.406860
  20
-3922.919617
  0
VERTEX
  8
1
  10
-2810.386658
  20
-3923.233032
  0
VERTEX
  8
1
  10
-2805.986328
  20
-3924.063416
  0
VERTEX
  8
1
  10
-2805.365906
  20
-3924.374084
  0
VERTEX
  8
1
  10
-2805.251770
  20
-3924.634399
  0
VERTEX
  8
1
  10
-2805.448608
  20
-3924.983826
  0
VERTEX
  8
1
  10
-2806.272278
  20
-3925.608826
  0
VERTEX
  8
1
  10
-2810.258789
  20
-3927.907104
  0
VERTEX
  8
1
  10
-2810.672302
  20
-3928.363037
  0
VERTEX
  8
1
  10
-2810.668335
  20
-3928.639832
  0
VERTEX
  8
1
  10
-2810.339966
  20
-3928.901672
  0
VERTEX
  8
1
  10
-2809.322205
  20
-3929.221497
  0
VERTEX
  8
1
  10
-2804.929504
  20
-3930.083313
  0
VERTEX
  8
1
  10
-2804.310303
  20
-3930.398865
  0
VERTEX
  8
1
  10
-2804.198608
  20
-3930.661011
  0
VERTEX
  8
1
  10
-2804.396973
  20
-3931.009216
  0
VERTEX
  8
1
  10
-2805.172729
  20
-3931.594849
  0
VERTEX
  8
1
  10
-2809.270325
  20
-3933.924561
  0
VERTEX
  8
1
  10
-2809.660034
  20
-3934.372253
  0
VERTEX
  8
1
  10
-2809.634094
  20
-3934.644775
  0
VERTEX
  8
1
  10
-2809.244080
  20
-3934.923401
  0
VERTEX
  8
1
  10
-2808.049011
  20
-3935.273132
  0
VERTEX
  8
1
  10
-2804.022217
  20
-3936.083374
  0
VERTEX
  8
1
  10
-2803.327942
  20
-3936.417847
  0
VERTEX
  8
1
  10
-2803.194275
  20
-3936.677856
  0
VERTEX
  8
1
  10
-2803.347778
  20
-3936.992798
  0
VERTEX
  8
1
  10
-2804.025574
  20
-3937.531128
  0
VERTEX
  8
1
  10
-2806.353149
  20
-3938.785095
  0
VERTEX
  8
1
  10
-2808.138733
  20
-3939.794617
  0
VERTEX
  8
1
  10
-2808.655090
  20
-3940.279846
  0
VERTEX
  8
1
  10
-2808.703918
  20
-3940.563049
  0
VERTEX
  8
1
  10
-2808.462830
  20
-3940.818481
  0
VERTEX
  8
1
  10
-2807.648621
  20
-3941.137085
  0
VERTEX
  8
1
  10
-2802.833252
  20
-3942.216492
  0
VERTEX
  8
1
  10
-2802.323914
  20
-3942.534790
  0
VERTEX
  8
1
  10
-2802.265930
  20
-3942.806396
  0
VERTEX
  8
1
  10
-2802.552795
  20
-3943.186035
  0
VERTEX
  8
1
  10
-2803.526917
  20
-3943.829346
  0
VERTEX
  8
1
  10
-2807.276917
  20
-3945.823364
  0
VERTEX
  8
1
  10
-2807.771301
  20
-3946.299133
  0
VERTEX
  8
1
  10
-2807.799988
  20
-3946.578674
  0
VERTEX
  8
1
  10
-2807.503967
  20
-3946.853333
  0
VERTEX
  8
1
  10
-2806.522827
  20
-3947.207336
  0
VERTEX
  8
1
  10
-2802.096863
  20
-3948.219299
  0
VERTEX
  8
1
  10
-2801.488647
  20
-3948.553772
  0
VERTEX
  8
1
  10
-2801.384277
  20
-3948.819275
  0
VERTEX
  8
1
  10
-2801.595154
  20
-3949.161072
  0
VERTEX
  8
1
  10
-2802.442932
  20
-3949.752808
  0
VERTEX
  8
1
  10
-2806.517639
  20
-3951.893921
  0
VERTEX
  8
1
  10
-2806.947937
  20
-3952.333069
  0
VERTEX
  8
1
  10
-2806.954956
  20
-3952.609863
  0
VERTEX
  8
1
  10
-2806.637573
  20
-3952.884827
  0
VERTEX
  8
1
  10
-2805.633545
  20
-3953.243713
  0
VERTEX
  8
1
  10
-2801.274414
  20
-3954.274597
  0
VERTEX
  8
1
  10
-2800.669861
  20
-3954.613647
  0
VERTEX
  8
1
  10
-2800.570068
  20
-3954.880371
  0
VERTEX
  8
1
  10
-2800.786133
  20
-3955.220642
  0
VERTEX
  8
1
  10
-2801.641846
  20
-3955.807190
  0
VERTEX
  8
1
  10
-2805.656738
  20
-3957.884827
  0
VERTEX
  8
1
  10
-2806.143188
  20
-3958.350830
  0
VERTEX
  8
1
  10
-2806.179810
  20
-3958.630676
  0
VERTEX
  8
1
  10
-2805.924072
  20
-3958.910522
  0
VERTEX
  8
1
  10
-2805.119019
  20
-3959.259644
  0
VERTEX
  8
1
  10
-2802.997437
  20
-3959.699097
  0
SEQEND
  8
11
  0
POINT
  8
2
 10
-2814.865112
 20
-3778.658752
  0
TEXT
  8
2
 10
-2814.865112
 20
-3778.658752
 40
0.000000
 50
0.000000
  1
# 206
  0
POINT
  8
2
 10
-2802.997437
 20
-3959.699097
  0
TEXT
  8
2
 10
-2802.997437
 20
-3959.699097
 40
0.000000
 50
0.000000
  1
# 207
  0
POLYLINE
  8
11
  6
2
  66
1
  70
0
  0
VERTEX
  8
1
  10
-2802.719421
  20
-4105.120239
  0
VERTEX
  8
1
  10
-2830.907898
  20
-4095.521240
  0
VERTEX
  8
1
  10
-2903.999023
  20
-4067.620239
  0
VERTEX
  8
1
  10
-2982.917175
  20
-4036.439819
  0
SEQEND
  8
11
  0
POINT
  8
2
 10
-2802.719421
 20
-4105.120239
  0
TEXT
  8
2
 10
-2802.719421
 20
-4105.120239
 40
0.000000
 50
0.000000
  1
# 208
  0
POINT
  8
2
 10
-2982.917175
 20
-4036.439819
  0
TEXT
  8
2
 10
-2982.917175
 20
-4036.439819
 40
0.000000
 50
0.000000
  1
# 209
  0
POLYLINE
  8
11
  6
2
  66
1
  70
0
  0
VERTEX
  8
1
  10
-2802.033997
  20
-4102.185059
  0
VERTEX
  8
1
  10
-2829.941101
  20
-4092.681885
  0
VERTEX
  8
1
  10
-2902.929688
  20
-4064.817810
  0
VERTEX
  8
1
  10
-2981.871033
  20
-4033.628235
  0
SEQEND
  8
11
  0
POINT
  8
2
 10
-2802.033997
 20
-4102.185059
  0
TEXT
  8
2
 10
-2802.033997
 20
-4102.185059
 40
0.000000
 50
0.000000
  1
# 210
  0
POINT
  8
2
 10
-2981.871033
 20
-4033.628235
  0
TEXT
  8
2
 10
-2981.871033
 20
-4033.628235
 40
0.000000
 50
0.000000
  1
# 211
  0
POLYLINE
  8
11
  66
1
  70
0
  0
VERTEX
  8
1
  10
-2798.489990
  20
-3512.723999
  0
VERTEX
  8
1
  10
-2861.259043
  20
-3512.723999
  0
VERTEX
  8
1
  10
-2917.342635
  20
-3512.723999
  0
VERTEX
  8
1
  10
-2964.883693
  20
-3512.723999
  0
VERTEX
  8
1
  10
-2972.354431
  20
-3512.723999
  0
SEQEND
  8
11
  0
POINT
  8
2
 10
-2798.489990
 20
-3512.723999
  0
TEXT
  8
2
 10
-2798.489990
 20
-3512.723999
 40
0.000000
 50
0.000000
  1
# 212
  0
POINT
  8
2
 10
-2972.354431
 20
-3512.723999
  0
TEXT
  8
2
 10
-2972.354431
 20
-3512.723999
 40
0.000000
 50
0.000000
  1
# 213
  0
POINT
  8
3
 10
-2861.259043
 20
-3512.723999
  0
POINT
  8
3
 10
-2917.342635
 20
-3512.723999
  0
POINT
  8
3
 10
-2964.883693
 20
-3512.723999
  0
POLYLINE
  8
11
  6
2
  66
1
  70
0
  0
VERTEX
  8
1
  10
-2903.594971
  20
-3473.222656
  0
VERTEX
  8
1
  10
-2900.471191
  20
-3476.822510
  0
SEQEND
  8
11
  0
POINT
  8
2
 10
-2903.594971
 20
-3473.222656
  0
TEXT
  8
2
 10
-2903.594971
 20
-3473.222656
 40
0.000000
 50
0.000000
  1
# 214
  0
POINT
  8
2
 10
-2900.471191
 20
-3476.822510
  0
TEXT
  8
2
 10
-2900.471191
 20
-3476.822510
 40
0.000000
 50
0.000000
  1
# 215
 0
LINE
 8
7
 10
-2898.107605
 20
-3637.915955
 11
-2898.107605
 21
-3924.057922
  0
TEXT
  8
1
 10
-2967.663879
 20
-3503.943787
 40
10.100989
 50
359.189720
  1
后领内缝包滚，
  0
TEXT
  8
1
 10
-2967.808228
 20
-3513.942566
 40
10.100989
 50
359.189720
  1
后领条净14
  0
TEXT
  8
1
 10
-2887.727203
 20
-3796.358490
 40
10.000000
 50
0.000000
  1
PIECE NAME: C2490335.后身片
  0
TEXT
  8
1
 10
-2887.727203
 20
-3781.358490
 40
10.000000
 50
0.000000
  1
Size: M
  0
TEXT
  8
1
 10
-2887.727203
 20
-3766.358490
 40
10.000000
 50
0.000000
  1
ANNOTATION: 面料A X2
  0
TEXT
  8
1
 10
-2887.727203
 20
-3751.358490
 40
10.000000
 50
0.000000
  1
QUANTITY: 1,1
  0
TEXT
  8
1
 10
-2887.727203
 20
-3736.358490
 40
10.000000
 50
0.000000
  1
FABRIC: 面料A
  0
TEXT
  8
1
 10
-2887.727203
 20
-3721.358490
 40
10.000000
 50
0.000000
  1
CATEGORY: 后身片
  0
TEXT
  8
1
 10
-2887.727203
 20
-3706.358490
 40
10.000000
 50
0.000000
  1
SHRINKAGE: 经:0.0%，纬:1.0%
0
ENDBLK
  0
ENDSEC
  0
SECTION
  2
ENTITIES
  0
INSERT
  8
1
  2
C2490335.后领内滚_面料A_M
  10
0.000000
  20
0.000000
  0
INSERT
  8
1
  2
C2490335.袖片_面料A_M
  10
0.000000
  20
0.000000
  0
INSERT
  8
1
  2
C2490335.前身片_面料A_M
  10
0.000000
  20
0.000000
  0
INSERT
  8
1
  2
C2490335.领_面料A_M
  10
0.000000
  20
0.000000
  0
INSERT
  8
1
  2
C2490335.后身片_面料A_M
  10
0.000000
  20
0.000000
  0
TEXT
  8
1
 10
-2340.062408
 20
-4123.257141
 40
10.000000
 50
0.000000
  1
STYLE NAME: C2490335
  0
TEXT
  8
1
 10
-2340.062408
 20
-4138.257141
 40
10.000000
 50
0.000000
  1
CREATION DATE: 2024/5/24/13/16
  0
TEXT
  8
1
 10
-2340.062408
 20
-4153.257141
 40
10.000000
 50
0.000000
  1
AUTHOR: BUYI-TECH
  0
TEXT
  8
1
 10
-2340.062408
 20
-4168.257141
 40
10.000000
 50
0.000000
  1
SAMPLE SIZE: M
  0
TEXT
  8
1
 10
-2340.062408
 20
-4183.257141
 40
10.000000
 50
0.000000
  1
GRADE RULE TABLE: C2490335
  0
TEXT
  8
1
 10
-2340.062408
 20
-4198.257141
 40
10.000000
 50
0.000000
  1
UNITS: METRIC
  0
ENDSEC
  0
EOF
