999
ANSI/AAMA
  0
SECTION
  2
BLOCKS
0
BLOCK
  8
1
  2
C2590551.前片_面料_M
 70
0
 10
0.0
 20
0.0
  0
POLYLINE
  8
1
  66
1
  70
1
  0
VERTEX
  8
1
  10
517.618103
  20
-721.169219
  0
VERTEX
  8
1
  10
246.972153
  20
-721.169219
  0
VERTEX
  8
1
  10
246.913264
  20
-700.169220
  0
VERTEX
  8
1
  10
247.038394
  20
-655.547600
  0
VERTEX
  8
1
  10
247.338914
  20
-602.450878
  0
VERTEX
  8
1
  10
247.825486
  20
-548.101253
  0
VERTEX
  8
1
  10
247.842370
  20
-546.215373
  0
VERTEX
  8
1
  10
248.080972
  20
-495.442666
  0
VERTEX
  8
1
  10
247.565714
  20
-444.837860
  0
VERTEX
  8
1
  10
247.563621
  20
-444.769712
  0
VERTEX
  8
1
  10
246.830029
  20
-420.887696
  0
VERTEX
  8
1
  10
246.116119
  20
-397.646374
  0
VERTEX
  8
1
  10
244.056478
  20
-346.858307
  0
VERTEX
  8
1
  10
242.522046
  20
-307.901770
  0
VERTEX
  8
1
  10
242.082265
  20
-296.736481
  0
VERTEX
  8
1
  10
240.795604
  20
-277.882618
  0
VERTEX
  8
1
  10
238.943821
  20
-250.747823
  0
VERTEX
  8
1
  10
245.612149
  20
-249.432979
  0
VERTEX
  8
1
  10
251.523414
  20
-248.385905
  0
VERTEX
  8
1
  10
259.099951
  20
-246.604024
  0
VERTEX
  8
1
  10
265.852703
  20
-244.210703
  0
VERTEX
  8
1
  10
271.947369
  20
-241.166221
  0
VERTEX
  8
1
  10
272.150354
  20
-241.064824
  0
VERTEX
  8
1
  10
278.106079
  20
-236.935439
  0
VERTEX
  8
1
  10
283.154507
  20
-232.165217
  0
VERTEX
  8
1
  10
287.577546
  20
-226.673636
  0
VERTEX
  8
1
  10
291.497490
  20
-220.252297
  0
VERTEX
  8
1
  10
294.482505
  20
-213.716502
  0
VERTEX
  8
1
  10
297.370315
  20
-204.971858
  0
VERTEX
  8
1
  10
300.121745
  20
-191.956414
  0
VERTEX
  8
1
  10
301.600047
  20
-179.994255
  0
VERTEX
  8
1
  10
302.214743
  20
-168.861609
  0
VERTEX
  8
1
  10
302.346628
  20
-166.473054
  0
VERTEX
  8
1
  10
302.260687
  20
-152.930729
  0
VERTEX
  8
1
  10
302.249131
  20
-151.109838
  0
VERTEX
  8
1
  10
301.178214
  20
-133.493590
  0
VERTEX
  8
1
  10
299.056456
  20
-114.700701
  0
VERTEX
  8
1
  10
296.240023
  20
-97.209886
  0
VERTEX
  8
1
  10
292.607418
  20
-79.898720
  0
VERTEX
  8
1
  10
287.137406
  20
-59.076927
  0
VERTEX
  8
1
  10
284.165331
  20
-47.397367
  0
VERTEX
  8
1
  10
432.658549
  20
6.834310
  0
VERTEX
  8
1
  10
435.051442
  20
-4.098787
  0
VERTEX
  8
1
  10
438.041222
  20
-18.784811
  0
VERTEX
  8
1
  10
441.050745
  20
-29.454470
  0
VERTEX
  8
1
  10
444.392209
  20
-38.231961
  0
VERTEX
  8
1
  10
448.557162
  20
-46.580209
  0
VERTEX
  8
1
  10
451.708743
  20
-51.652173
  0
VERTEX
  8
1
  10
453.544979
  20
-54.607301
  0
VERTEX
  8
1
  10
459.238938
  20
-62.189372
  0
VERTEX
  8
1
  10
464.304613
  20
-67.656444
  0
VERTEX
  8
1
  10
470.334845
  20
-72.841689
  0
VERTEX
  8
1
  10
476.642605
  20
-77.186487
  0
VERTEX
  8
1
  10
480.984808
  20
-79.555170
  0
VERTEX
  8
1
  10
483.646534
  20
-81.007149
  0
VERTEX
  8
1
  10
490.347103
  20
-83.725391
  0
VERTEX
  8
1
  10
498.023461
  20
-85.851354
  0
VERTEX
  8
1
  10
505.814850
  20
-87.149304
  0
VERTEX
  8
1
  10
515.309879
  20
-87.945449
  0
VERTEX
  8
1
  10
517.618103
  20
-88.029385
  0
VERTEX
  8
1
  10
517.618103
  20
-88.029385
  0
VERTEX
  8
1
  10
519.926327
  20
-87.945449
  0
VERTEX
  8
1
  10
529.421356
  20
-87.149304
  0
VERTEX
  8
1
  10
537.212745
  20
-85.851354
  0
VERTEX
  8
1
  10
544.889103
  20
-83.725391
  0
VERTEX
  8
1
  10
551.589672
  20
-81.007149
  0
VERTEX
  8
1
  10
554.251398
  20
-79.555170
  0
VERTEX
  8
1
  10
558.593601
  20
-77.186487
  0
VERTEX
  8
1
  10
564.901361
  20
-72.841689
  0
VERTEX
  8
1
  10
570.931593
  20
-67.656444
  0
VERTEX
  8
1
  10
575.997268
  20
-62.189372
  0
VERTEX
  8
1
  10
581.691227
  20
-54.607301
  0
VERTEX
  8
1
  10
583.527463
  20
-51.652173
  0
VERTEX
  8
1
  10
586.679044
  20
-46.580209
  0
VERTEX
  8
1
  10
590.843997
  20
-38.231961
  0
VERTEX
  8
1
  10
594.185461
  20
-29.454470
  0
VERTEX
  8
1
  10
597.194984
  20
-18.784811
  0
VERTEX
  8
1
  10
600.184764
  20
-4.098787
  0
VERTEX
  8
1
  10
602.577657
  20
6.834310
  0
VERTEX
  8
1
  10
648.311191
  20
-9.868178
  0
VERTEX
  8
1
  10
751.070875
  20
-47.397367
  0
VERTEX
  8
1
  10
748.098800
  20
-59.076927
  0
VERTEX
  8
1
  10
742.628788
  20
-79.898720
  0
VERTEX
  8
1
  10
738.996183
  20
-97.209886
  0
VERTEX
  8
1
  10
737.251452
  20
-108.045142
  0
VERTEX
  8
1
  10
736.179750
  20
-114.700701
  0
VERTEX
  8
1
  10
734.057992
  20
-133.493590
  0
VERTEX
  8
1
  10
732.987075
  20
-151.109838
  0
VERTEX
  8
1
  10
732.975519
  20
-152.930729
  0
VERTEX
  8
1
  10
732.889578
  20
-166.473054
  0
VERTEX
  8
1
  10
733.021463
  20
-168.861609
  0
VERTEX
  8
1
  10
733.636159
  20
-179.994255
  0
VERTEX
  8
1
  10
735.114461
  20
-191.956414
  0
VERTEX
  8
1
  10
737.865891
  20
-204.971858
  0
VERTEX
  8
1
  10
740.753701
  20
-213.716502
  0
VERTEX
  8
1
  10
743.738716
  20
-220.252297
  0
VERTEX
  8
1
  10
747.658660
  20
-226.673636
  0
VERTEX
  8
1
  10
752.081699
  20
-232.165217
  0
VERTEX
  8
1
  10
757.130127
  20
-236.935439
  0
VERTEX
  8
1
  10
763.085852
  20
-241.064824
  0
VERTEX
  8
1
  10
763.288837
  20
-241.166221
  0
VERTEX
  8
1
  10
769.383503
  20
-244.210703
  0
VERTEX
  8
1
  10
776.136255
  20
-246.604024
  0
VERTEX
  8
1
  10
783.712792
  20
-248.385905
  0
VERTEX
  8
1
  10
789.624057
  20
-249.432979
  0
VERTEX
  8
1
  10
796.292385
  20
-250.747823
  0
VERTEX
  8
1
  10
794.440602
  20
-277.882618
  0
VERTEX
  8
1
  10
793.153941
  20
-296.736481
  0
VERTEX
  8
1
  10
792.714160
  20
-307.901770
  0
VERTEX
  8
1
  10
791.179728
  20
-346.858307
  0
VERTEX
  8
1
  10
789.120088
  20
-397.646374
  0
VERTEX
  8
1
  10
788.406177
  20
-420.887696
  0
VERTEX
  8
1
  10
787.672586
  20
-444.769712
  0
VERTEX
  8
1
  10
787.670492
  20
-444.837860
  0
VERTEX
  8
1
  10
787.155234
  20
-495.442666
  0
VERTEX
  8
1
  10
787.393836
  20
-546.215373
  0
VERTEX
  8
1
  10
787.410720
  20
-548.101253
  0
VERTEX
  8
1
  10
787.897292
  20
-602.450878
  0
VERTEX
  8
1
  10
788.197812
  20
-655.547600
  0
VERTEX
  8
1
  10
788.322942
  20
-700.169220
  0
VERTEX
  8
1
  10
788.264053
  20
-721.169219
  0
VERTEX
  8
1
  10
517.618103
  20
-721.169219
  0
SEQEND
  8
1
  0
POINT
  8
2
 10
517.618103
 20
-721.169219
  0
TEXT
  8
2
 10
517.618103
 20
-721.169219
 40
0.000000
 50
0.000000
  1
# 1
  0
POINT
  8
2
 10
246.972153
 20
-721.169219
  0
TEXT
  8
2
 10
246.972153
 20
-721.169219
 40
0.000000
 50
0.000000
  1
# 2
  0
POINT
  8
2
 10
246.913264
 20
-700.169220
  0
TEXT
  8
2
 10
246.913264
 20
-700.169220
 40
0.000000
 50
0.000000
  1
# 3
  0
POINT
  8
2
 10
238.943821
 20
-250.747823
  0
TEXT
  8
2
 10
238.943821
 20
-250.747823
 40
0.000000
 50
0.000000
  1
# 4
  0
POINT
  8
2
 10
284.165331
 20
-47.397367
  0
TEXT
  8
2
 10
284.165331
 20
-47.397367
 40
0.000000
 50
0.000000
  1
# 5
  0
POINT
  8
2
 10
432.658549
 20
6.834310
  0
TEXT
  8
2
 10
432.658549
 20
6.834310
 40
0.000000
 50
0.000000
  1
# 6
  0
POINT
  8
2
 10
517.618103
 20
-88.029385
  0
TEXT
  8
2
 10
517.618103
 20
-88.029385
 40
0.000000
 50
0.000000
  1
# 7
  0
POINT
  8
2
 10
602.577657
 20
6.834310
  0
TEXT
  8
2
 10
602.577657
 20
6.834310
 40
0.000000
 50
0.000000
  1
# 8
  0
POINT
  8
2
 10
751.070875
 20
-47.397367
  0
TEXT
  8
2
 10
751.070875
 20
-47.397367
 40
0.000000
 50
0.000000
  1
# 9
  0
POINT
  8
2
 10
796.292385
 20
-250.747823
  0
TEXT
  8
2
 10
796.292385
 20
-250.747823
 40
0.000000
 50
0.000000
  1
# 10
  0
POINT
  8
2
 10
788.322942
 20
-700.169220
  0
TEXT
  8
2
 10
788.322942
 20
-700.169220
 40
0.000000
 50
0.000000
  1
# 11
  0
POINT
  8
2
 10
788.264053
 20
-721.169219
  0
TEXT
  8
2
 10
788.264053
 20
-721.169219
 40
0.000000
 50
0.000000
  1
# 12
  0
POINT
  8
2
 10
517.618103
 20
-721.169219
  0
TEXT
  8
2
 10
517.618103
 20
-721.169219
 40
0.000000
 50
0.000000
  1
# 13
  0
POINT
  8
3
 10
247.038394
 20
-655.547600
  0
POINT
  8
3
 10
247.338914
 20
-602.450878
  0
POINT
  8
3
 10
247.825486
 20
-548.101253
  0
POINT
  8
3
 10
247.842370
 20
-546.215373
  0
POINT
  8
3
 10
248.080972
 20
-495.442666
  0
POINT
  8
3
 10
247.565714
 20
-444.837860
  0
POINT
  8
3
 10
247.563621
 20
-444.769712
  0
POINT
  8
3
 10
246.830029
 20
-420.887696
  0
POINT
  8
3
 10
246.116119
 20
-397.646374
  0
POINT
  8
3
 10
244.056478
 20
-346.858307
  0
POINT
  8
3
 10
242.522046
 20
-307.901770
  0
POINT
  8
3
 10
242.082265
 20
-296.736481
  0
POINT
  8
3
 10
240.795604
 20
-277.882618
  0
POINT
  8
3
 10
245.612149
 20
-249.432979
  0
POINT
  8
3
 10
251.523414
 20
-248.385905
  0
POINT
  8
3
 10
259.099951
 20
-246.604024
  0
POINT
  8
3
 10
265.852703
 20
-244.210703
  0
POINT
  8
3
 10
271.947369
 20
-241.166221
  0
POINT
  8
3
 10
272.150354
 20
-241.064824
  0
POINT
  8
3
 10
278.106079
 20
-236.935439
  0
POINT
  8
3
 10
283.154507
 20
-232.165217
  0
POINT
  8
3
 10
287.577546
 20
-226.673636
  0
POINT
  8
3
 10
291.497490
 20
-220.252297
  0
POINT
  8
3
 10
294.482505
 20
-213.716502
  0
POINT
  8
3
 10
297.370315
 20
-204.971858
  0
POINT
  8
3
 10
300.121745
 20
-191.956414
  0
POINT
  8
3
 10
301.600047
 20
-179.994255
  0
POINT
  8
3
 10
302.214743
 20
-168.861609
  0
POINT
  8
3
 10
302.346628
 20
-166.473054
  0
POINT
  8
3
 10
302.260687
 20
-152.930729
  0
POINT
  8
3
 10
302.249131
 20
-151.109838
  0
POINT
  8
3
 10
301.178214
 20
-133.493590
  0
POINT
  8
3
 10
299.056456
 20
-114.700701
  0
POINT
  8
3
 10
296.240023
 20
-97.209886
  0
POINT
  8
3
 10
292.607418
 20
-79.898720
  0
POINT
  8
3
 10
287.137406
 20
-59.076927
  0
POINT
  8
3
 10
435.051442
 20
-4.098787
  0
POINT
  8
3
 10
438.041222
 20
-18.784811
  0
POINT
  8
3
 10
441.050745
 20
-29.454470
  0
POINT
  8
3
 10
444.392209
 20
-38.231961
  0
POINT
  8
3
 10
448.557162
 20
-46.580209
  0
POINT
  8
3
 10
451.708743
 20
-51.652173
  0
POINT
  8
3
 10
453.544979
 20
-54.607301
  0
POINT
  8
3
 10
459.238938
 20
-62.189372
  0
POINT
  8
3
 10
464.304613
 20
-67.656444
  0
POINT
  8
3
 10
470.334845
 20
-72.841689
  0
POINT
  8
3
 10
476.642605
 20
-77.186487
  0
POINT
  8
3
 10
480.984808
 20
-79.555170
  0
POINT
  8
3
 10
483.646534
 20
-81.007149
  0
POINT
  8
3
 10
490.347103
 20
-83.725391
  0
POINT
  8
3
 10
498.023461
 20
-85.851354
  0
POINT
  8
3
 10
505.814850
 20
-87.149304
  0
POINT
  8
3
 10
515.309879
 20
-87.945449
  0
POINT
  8
3
 10
517.618103
 20
-88.029385
  0
POINT
  8
3
 10
519.926327
 20
-87.945449
  0
POINT
  8
3
 10
529.421356
 20
-87.149304
  0
POINT
  8
3
 10
537.212745
 20
-85.851354
  0
POINT
  8
3
 10
544.889103
 20
-83.725391
  0
POINT
  8
3
 10
551.589672
 20
-81.007149
  0
POINT
  8
3
 10
554.251398
 20
-79.555170
  0
POINT
  8
3
 10
558.593601
 20
-77.186487
  0
POINT
  8
3
 10
564.901361
 20
-72.841689
  0
POINT
  8
3
 10
570.931593
 20
-67.656444
  0
POINT
  8
3
 10
575.997268
 20
-62.189372
  0
POINT
  8
3
 10
581.691227
 20
-54.607301
  0
POINT
  8
3
 10
583.527463
 20
-51.652173
  0
POINT
  8
3
 10
586.679044
 20
-46.580209
  0
POINT
  8
3
 10
590.843997
 20
-38.231961
  0
POINT
  8
3
 10
594.185461
 20
-29.454470
  0
POINT
  8
3
 10
597.194984
 20
-18.784811
  0
POINT
  8
3
 10
600.184764
 20
-4.098787
  0
POINT
  8
3
 10
648.311191
 20
-9.868178
  0
POINT
  8
3
 10
748.098800
 20
-59.076927
  0
POINT
  8
3
 10
742.628788
 20
-79.898720
  0
POINT
  8
3
 10
738.996183
 20
-97.209886
  0
POINT
  8
3
 10
737.251452
 20
-108.045142
  0
POINT
  8
3
 10
736.179750
 20
-114.700701
  0
POINT
  8
3
 10
734.057992
 20
-133.493590
  0
POINT
  8
3
 10
732.987075
 20
-151.109838
  0
POINT
  8
3
 10
732.975519
 20
-152.930729
  0
POINT
  8
3
 10
732.889578
 20
-166.473054
  0
POINT
  8
3
 10
733.021463
 20
-168.861609
  0
POINT
  8
3
 10
733.636159
 20
-179.994255
  0
POINT
  8
3
 10
735.114461
 20
-191.956414
  0
POINT
  8
3
 10
737.865891
 20
-204.971858
  0
POINT
  8
3
 10
740.753701
 20
-213.716502
  0
POINT
  8
3
 10
743.738716
 20
-220.252297
  0
POINT
  8
3
 10
747.658660
 20
-226.673636
  0
POINT
  8
3
 10
752.081699
 20
-232.165217
  0
POINT
  8
3
 10
757.130127
 20
-236.935439
  0
POINT
  8
3
 10
763.085852
 20
-241.064824
  0
POINT
  8
3
 10
763.288837
 20
-241.166221
  0
POINT
  8
3
 10
769.383503
 20
-244.210703
  0
POINT
  8
3
 10
776.136255
 20
-246.604024
  0
POINT
  8
3
 10
783.712792
 20
-248.385905
  0
POINT
  8
3
 10
789.624057
 20
-249.432979
  0
POINT
  8
3
 10
794.440602
 20
-277.882618
  0
POINT
  8
3
 10
793.153941
 20
-296.736481
  0
POINT
  8
3
 10
792.714160
 20
-307.901770
  0
POINT
  8
3
 10
791.179728
 20
-346.858307
  0
POINT
  8
3
 10
789.120088
 20
-397.646374
  0
POINT
  8
3
 10
788.406177
 20
-420.887696
  0
POINT
  8
3
 10
787.672586
 20
-444.769712
  0
POINT
  8
3
 10
787.670492
 20
-444.837860
  0
POINT
  8
3
 10
787.155234
 20
-495.442666
  0
POINT
  8
3
 10
787.393836
 20
-546.215373
  0
POINT
  8
3
 10
787.410720
 20
-548.101253
  0
POINT
  8
3
 10
787.897292
 20
-602.450878
  0
POINT
  8
3
 10
788.197812
 20
-655.547600
  0
POINT
  8
3
 10
247.565714
 20
-444.837860
  0
TEXT
  8
3
 10
247.565714
 20
-444.837860
 40
0.000000
 50
0.000000
  1
# 14
  0
POINT
  8
3
 10
246.830029
 20
-420.887696
  0
TEXT
  8
3
 10
246.830029
 20
-420.887696
 40
0.000000
 50
0.000000
  1
# 15
  0
POINT
  8
3
 10
240.795604
 20
-277.882618
  0
TEXT
  8
3
 10
240.795604
 20
-277.882618
 40
0.000000
 50
0.000000
  1
# 16
  0
POINT
  8
3
 10
302.260687
 20
-152.930729
  0
TEXT
  8
3
 10
302.260687
 20
-152.930729
 40
0.000000
 50
0.000000
  1
# 17
  0
POINT
  8
3
 10
480.984808
 20
-79.555170
  0
TEXT
  8
3
 10
480.984808
 20
-79.555170
 40
0.000000
 50
0.000000
  1
# 18
  0
POINT
  8
3
 10
554.251398
 20
-79.555170
  0
TEXT
  8
3
 10
554.251398
 20
-79.555170
 40
0.000000
 50
0.000000
  1
# 19
  0
POINT
  8
3
 10
732.975519
 20
-152.930729
  0
TEXT
  8
3
 10
732.975519
 20
-152.930729
 40
0.000000
 50
0.000000
  1
# 20
  0
POINT
  8
3
 10
794.440602
 20
-277.882618
  0
TEXT
  8
3
 10
794.440602
 20
-277.882618
 40
0.000000
 50
0.000000
  1
# 21
  0
POINT
  8
3
 10
788.406177
 20
-420.887696
  0
TEXT
  8
3
 10
788.406177
 20
-420.887696
 40
0.000000
 50
0.000000
  1
# 22
  0
POINT
  8
3
 10
787.670492
 20
-444.837860
  0
TEXT
  8
3
 10
787.670492
 20
-444.837860
 40
0.000000
 50
0.000000
  1
# 23
  0
POINT
  8
4
 10
247.825486
 20
-548.101253
 30
0.600000
 50
359.49
  0
TEXT
  8
4
 10
247.825486
 20
-548.101253
 40
0.000000
 50
0.000000
  1
# 24
  0
POINT
  8
4
 10
242.522046
 20
-307.901770
 30
0.600000
 50
  2.26
  0
TEXT
  8
4
 10
242.522046
 20
-307.901770
 40
0.000000
 50
0.000000
  1
# 25
  0
POINT
  8
4
 10
271.947369
 20
-241.166221
 30
0.600000
 50
296.54
  0
TEXT
  8
4
 10
271.947369
 20
-241.166221
 40
0.000000
 50
0.000000
  1
# 26
  0
POINT
  8
4
 10
302.214743
 20
-168.861609
 30
0.600000
 50
356.84
  0
TEXT
  8
4
 10
302.214743
 20
-168.861609
 40
0.000000
 50
0.000000
  1
# 27
  0
POINT
  8
4
 10
451.708743
 20
-51.652173
 30
0.600000
 50
211.86
  0
TEXT
  8
4
 10
451.708743
 20
-51.652173
 40
0.000000
 50
0.000000
  1
# 28
  0
POINT
  8
4
 10
517.618103
 20
-88.029385
 30
0.600000
 50
270.00
  0
TEXT
  8
4
 10
517.618103
 20
-88.029385
 40
0.000000
 50
0.000000
  1
# 29
  0
POINT
  8
4
 10
583.527463
 20
-51.652173
 30
0.600000
 50
328.14
  0
TEXT
  8
4
 10
583.527463
 20
-51.652173
 40
0.000000
 50
0.000000
  1
# 30
  0
POINT
  8
4
 10
648.311191
 20
-9.868178
 30
0.600000
 50
249.94
  0
TEXT
  8
4
 10
648.311191
 20
-9.868178
 40
0.000000
 50
0.000000
  1
# 31
  0
POINT
  8
4
 10
737.251452
 20
-108.045142
 30
0.600000
 50
170.85
  0
TEXT
  8
4
 10
737.251452
 20
-108.045142
 40
0.000000
 50
0.000000
  1
# 32
  0
POINT
  8
4
 10
733.021463
 20
-168.861609
 30
0.600000
 50
183.16
  0
TEXT
  8
4
 10
733.021463
 20
-168.861609
 40
0.000000
 50
0.000000
  1
# 33
  0
POINT
  8
4
 10
763.288837
 20
-241.166221
 30
0.600000
 50
243.46
  0
TEXT
  8
4
 10
763.288837
 20
-241.166221
 40
0.000000
 50
0.000000
  1
# 34
  0
POINT
  8
4
 10
792.714160
 20
-307.901770
 30
0.600000
 50
177.74
  0
TEXT
  8
4
 10
792.714160
 20
-307.901770
 40
0.000000
 50
0.000000
  1
# 35
  0
POINT
  8
4
 10
787.410720
 20
-548.101253
 30
0.600000
 50
180.51
  0
TEXT
  8
4
 10
787.410720
 20
-548.101253
 40
0.000000
 50
0.000000
  1
# 36
  0
POLYLINE
  8
8
  66
1
  70
1
  0
VERTEX
  8
8
  10
517.618103
  20
-700.169220
  0
VERTEX
  8
8
  10
254.913330
  20
-700.169220
  0
VERTEX
  8
8
  10
255.000003
  20
-665.688642
  0
VERTEX
  8
8
  10
255.440053
  20
-589.823003
  0
VERTEX
  8
8
  10
255.825577
  20
-548.172874
  0
VERTEX
  8
8
  10
256.040310
  20
-517.201344
  0
VERTEX
  8
8
  10
256.033326
  20
-480.895947
  0
VERTEX
  8
8
  10
255.561826
  20
-444.600290
  0
VERTEX
  8
8
  10
255.561656
  20
-444.592246
  0
VERTEX
  8
8
  10
254.924657
  20
-420.639051
  0
VERTEX
  8
8
  10
254.752678
  20
-415.317451
  0
VERTEX
  8
8
  10
253.669715
  20
-386.039223
  0
VERTEX
  8
8
  10
251.304836
  20
-327.477714
  0
VERTEX
  8
8
  10
250.560150
  20
-307.585163
  0
VERTEX
  8
8
  10
250.345418
  20
-302.387067
  0
VERTEX
  8
8
  10
249.698110
  20
-289.024193
  0
VERTEX
  8
8
  10
248.965641
  20
-277.325063
  0
VERTEX
  8
8
  10
248.965590
  20
-277.324350
  0
VERTEX
  8
8
  10
248.215061
  20
-267.627494
  0
VERTEX
  8
8
  10
247.296677
  20
-257.191772
  0
VERTEX
  8
8
  10
253.219380
  20
-256.206593
  0
VERTEX
  8
8
  10
258.673389
  20
-255.008922
  0
VERTEX
  8
8
  10
261.847394
  20
-254.133948
  0
VERTEX
  8
8
  10
264.938528
  20
-253.131460
  0
VERTEX
  8
8
  10
267.936150
  20
-252.004916
  0
VERTEX
  8
8
  10
270.831452
  20
-250.757637
  0
VERTEX
  8
8
  10
273.615220
  20
-249.393711
  0
VERTEX
  8
8
  10
276.282302
  20
-247.915791
  0
VERTEX
  8
8
  10
276.522827
  20
-247.773476
  0
VERTEX
  8
8
  10
278.826855
  20
-246.327120
  0
VERTEX
  8
8
  10
281.244110
  20
-244.630682
  0
VERTEX
  8
8
  10
283.577527
  20
-242.792470
  0
VERTEX
  8
8
  10
285.834179
  20
-240.806009
  0
VERTEX
  8
8
  10
288.007490
  20
-238.677079
  0
VERTEX
  8
8
  10
290.090380
  20
-236.412607
  0
VERTEX
  8
8
  10
292.076538
  20
-234.019299
  0
VERTEX
  8
8
  10
293.957588
  20
-231.507090
  0
VERTEX
  8
8
  10
295.726130
  20
-228.885850
  0
VERTEX
  8
8
  10
297.374587
  20
-226.166801
  0
VERTEX
  8
8
  10
299.200149
  20
-222.763896
  0
VERTEX
  8
8
  10
300.876025
  20
-219.178852
  0
VERTEX
  8
8
  10
302.405477
  20
-215.404743
  0
VERTEX
  8
8
  10
303.792657
  20
-211.431358
  0
VERTEX
  8
8
  10
305.039525
  20
-207.255084
  0
VERTEX
  8
8
  10
306.155034
  20
-202.848112
  0
VERTEX
  8
8
  10
307.145630
  20
-198.185402
  0
VERTEX
  8
8
  10
308.021251
  20
-193.220459
  0
VERTEX
  8
8
  10
308.700484
  20
-188.568724
  0
VERTEX
  8
8
  10
309.265110
  20
-183.818628
  0
VERTEX
  8
8
  10
309.716154
  20
-178.961626
  0
VERTEX
  8
8
  10
310.054653
  20
-173.986597
  0
VERTEX
  8
8
  10
310.267029
  20
-169.306221
  0
VERTEX
  8
8
  10
310.281307
  20
-168.886174
  0
VERTEX
  8
8
  10
310.397302
  20
-163.637974
  0
VERTEX
  8
8
  10
310.403110
  20
-158.221700
  0
VERTEX
  8
8
  10
310.306252
  20
-152.879671
  0
VERTEX
  8
8
  10
310.298779
  20
-152.607286
  0
VERTEX
  8
8
  10
309.938503
  20
-143.913831
  0
VERTEX
  8
8
  10
309.337602
  20
-135.058757
  0
VERTEX
  8
8
  10
308.495366
  20
-126.031441
  0
VERTEX
  8
8
  10
307.410507
  20
-116.818019
  0
VERTEX
  8
8
  10
306.004101
  20
-106.927984
  0
VERTEX
  8
8
  10
304.365340
  20
-97.168951
  0
VERTEX
  8
8
  10
302.495136
  20
-87.546349
  0
VERTEX
  8
8
  10
300.394441
  20
-78.065066
  0
VERTEX
  8
8
  10
297.289862
  20
-65.698420
  0
VERTEX
  8
8
  10
293.622513
  20
-52.460308
  0
VERTEX
  8
8
  10
426.906738
  20
-3.783155
  0
VERTEX
  8
8
  10
427.821894
  20
-9.098706
  0
VERTEX
  8
8
  10
428.920217
  20
-14.673321
  0
VERTEX
  8
8
  10
430.078695
  20
-19.882643
  0
VERTEX
  8
8
  10
431.283093
  20
-24.675374
  0
VERTEX
  8
8
  10
432.664332
  20
-29.485098
  0
VERTEX
  8
8
  10
434.170095
  20
-34.064428
  0
VERTEX
  8
8
  10
435.805618
  20
-38.429232
  0
VERTEX
  8
8
  10
437.574720
  20
-42.589614
  0
VERTEX
  8
8
  10
439.579952
  20
-46.758768
  0
VERTEX
  8
8
  10
441.819587
  20
-50.918825
  0
VERTEX
  8
8
  10
444.293889
  20
-55.070279
  0
VERTEX
  8
8
  10
444.832878
  20
-55.924649
  0
VERTEX
  8
8
  10
447.003332
  20
-59.213927
  0
VERTEX
  8
8
  10
449.677378
  20
-62.971241
  0
VERTEX
  8
8
  10
452.359945
  20
-66.422286
  0
VERTEX
  8
8
  10
455.076009
  20
-69.599098
  0
VERTEX
  8
8
  10
457.840614
  20
-72.519117
  0
VERTEX
  8
8
  10
460.916209
  20
-75.426294
  0
VERTEX
  8
8
  10
464.201816
  20
-78.200511
  0
VERTEX
  8
8
  10
467.687488
  20
-80.833351
  0
VERTEX
  8
8
  10
471.360934
  20
-83.315517
  0
VERTEX
  8
8
  10
474.544314
  20
-85.252659
  0
VERTEX
  8
8
  10
477.102870
  20
-86.671427
  0
VERTEX
  8
8
  10
477.747156
  20
-87.009517
  0
VERTEX
  8
8
  10
480.966750
  20
-88.584604
  0
VERTEX
  8
8
  10
484.200788
  20
-89.976794
  0
VERTEX
  8
8
  10
487.924278
  20
-91.351306
  0
VERTEX
  8
8
  10
491.788334
  20
-92.543105
  0
VERTEX
  8
8
  10
495.782242
  20
-93.548872
  0
VERTEX
  8
8
  10
499.892695
  20
-94.365245
  0
VERTEX
  8
8
  10
503.966441
  20
-94.979239
  0
VERTEX
  8
8
  10
508.388485
  20
-95.472801
  0
VERTEX
  8
8
  10
513.115171
  20
-95.837805
  0
VERTEX
  8
8
  10
517.619095
  20
-96.033373
  0
VERTEX
  8
8
  10
517.618103
  20
-96.033401
  0
VERTEX
  8
8
  10
520.308309
  20
-95.936325
  0
VERTEX
  8
8
  10
530.394483
  20
-95.089898
  0
VERTEX
  8
8
  10
538.915291
  20
-93.668088
  0
VERTEX
  8
8
  10
547.469418
  20
-91.297840
  0
VERTEX
  8
8
  10
555.012235
  20
-88.238060
  0
VERTEX
  8
8
  10
558.133336
  20
-86.671427
  0
VERTEX
  8
8
  10
562.800706
  20
-83.990917
  0
VERTEX
  8
8
  10
569.767467
  20
-79.191572
  0
VERTEX
  8
8
  10
576.492800
  20
-73.407355
  0
VERTEX
  8
8
  10
582.134000
  20
-67.321674
  0
VERTEX
  8
8
  10
588.302122
  20
-59.112417
  0
VERTEX
  8
8
  10
590.403328
  20
-55.924649
  0
VERTEX
  8
8
  10
593.655242
  20
-50.495904
  0
VERTEX
  8
8
  10
598.174944
  20
-41.434650
  0
VERTEX
  8
8
  10
601.781670
  20
-31.963974
  0
VERTEX
  8
8
  10
604.972703
  20
-20.657536
  0
VERTEX
  8
8
  10
608.329468
  20
-3.783155
  0
VERTEX
  8
8
  10
645.566788
  20
-17.382703
  0
VERTEX
  8
8
  10
741.613693
  20
-52.460308
  0
VERTEX
  8
8
  10
734.841766
  20
-78.065066
  0
VERTEX
  8
8
  10
731.129544
  20
-95.755240
  0
VERTEX
  8
8
  10
729.258499
  20
-106.758089
  0
VERTEX
  8
8
  10
728.254558
  20
-113.609218
  0
VERTEX
  8
8
  10
726.088155
  20
-132.799539
  0
VERTEX
  8
8
  10
724.991546
  20
-150.842393
  0
VERTEX
  8
8
  10
724.929954
  20
-152.879671
  0
VERTEX
  8
8
  10
724.891820
  20
-166.662447
  0
VERTEX
  8
8
  10
724.969177
  20
-169.306221
  0
VERTEX
  8
8
  10
725.667814
  20
-180.705229
  0
VERTEX
  8
8
  10
727.214955
  20
-193.220459
  0
VERTEX
  8
8
  10
730.149099
  20
-207.081625
  0
VERTEX
  8
8
  10
733.313263
  20
-216.655871
  0
VERTEX
  8
8
  10
736.657394
  20
-223.974511
  0
VERTEX
  8
8
  10
741.118551
  20
-231.280910
  0
VERTEX
  8
8
  10
746.196510
  20
-237.584125
  0
VERTEX
  8
8
  10
752.069088
  20
-243.131073
  0
VERTEX
  8
8
  10
758.713379
  20
-247.773476
  0
VERTEX
  8
8
  10
759.040734
  20
-247.966782
  0
VERTEX
  8
8
  10
766.270784
  20
-251.580302
  0
VERTEX
  8
8
  10
773.894825
  20
-254.283606
  0
VERTEX
  8
8
  10
782.218845
  20
-256.245174
  0
VERTEX
  8
8
  10
787.939529
  20
-257.191772
  0
VERTEX
  8
8
  10
786.270565
  20
-277.325063
  0
VERTEX
  8
8
  10
785.162985
  20
-296.356198
  0
VERTEX
  8
8
  10
784.676056
  20
-307.585163
  0
VERTEX
  8
8
  10
783.186280
  20
-346.534601
  0
VERTEX
  8
8
  10
781.125839
  20
-397.343082
  0
VERTEX
  8
8
  10
780.311549
  20
-420.639051
  0
VERTEX
  8
8
  10
779.674550
  20
-444.592246
  0
VERTEX
  8
8
  10
779.674380
  20
-444.600290
  0
VERTEX
  8
8
  10
779.155238
  20
-495.434653
  0
VERTEX
  8
8
  10
779.394135
  20
-546.284515
  0
VERTEX
  8
8
  10
779.410629
  20
-548.172874
  0
VERTEX
  8
8
  10
779.897514
  20
-602.510594
  0
VERTEX
  8
8
  10
780.197878
  20
-655.580129
  0
VERTEX
  8
8
  10
780.322876
  20
-700.169220
  0
VERTEX
  8
8
  10
517.618103
  20
-700.169220
  0
SEQEND
  8
8
  0
POINT
  8
2
 10
517.618103
 20
-700.169220
  0
TEXT
  8
2
 10
517.618103
 20
-700.169220
 40
0.000000
 50
0.000000
  1
# 37
  0
POINT
  8
2
 10
254.913330
 20
-700.169220
  0
TEXT
  8
2
 10
254.913330
 20
-700.169220
 40
0.000000
 50
0.000000
  1
# 38
  0
POINT
  8
2
 10
247.296677
 20
-257.191772
  0
TEXT
  8
2
 10
247.296677
 20
-257.191772
 40
0.000000
 50
0.000000
  1
# 39
  0
POINT
  8
2
 10
293.622513
 20
-52.460308
  0
TEXT
  8
2
 10
293.622513
 20
-52.460308
 40
0.000000
 50
0.000000
  1
# 40
  0
POINT
  8
2
 10
426.906738
 20
-3.783155
  0
TEXT
  8
2
 10
426.906738
 20
-3.783155
 40
0.000000
 50
0.000000
  1
# 41
  0
POINT
  8
2
 10
517.619095
 20
-96.033373
  0
TEXT
  8
2
 10
517.619095
 20
-96.033373
 40
0.000000
 50
0.000000
  1
# 42
  0
POINT
  8
2
 10
608.329468
 20
-3.783155
  0
TEXT
  8
2
 10
608.329468
 20
-3.783155
 40
0.000000
 50
0.000000
  1
# 43
  0
POINT
  8
2
 10
741.613693
 20
-52.460308
  0
TEXT
  8
2
 10
741.613693
 20
-52.460308
 40
0.000000
 50
0.000000
  1
# 44
  0
POINT
  8
2
 10
787.939529
 20
-257.191772
  0
TEXT
  8
2
 10
787.939529
 20
-257.191772
 40
0.000000
 50
0.000000
  1
# 45
  0
POINT
  8
2
 10
780.322876
 20
-700.169220
  0
TEXT
  8
2
 10
780.322876
 20
-700.169220
 40
0.000000
 50
0.000000
  1
# 46
  0
POINT
  8
2
 10
517.618103
 20
-700.169220
  0
TEXT
  8
2
 10
517.618103
 20
-700.169220
 40
0.000000
 50
0.000000
  1
# 47
  0
POINT
  8
3
 10
255.000003
 20
-665.688642
  0
POINT
  8
3
 10
255.440053
 20
-589.823003
  0
POINT
  8
3
 10
255.825577
 20
-548.172874
  0
POINT
  8
3
 10
256.040310
 20
-517.201344
  0
POINT
  8
3
 10
256.033326
 20
-480.895947
  0
POINT
  8
3
 10
255.561826
 20
-444.600290
  0
POINT
  8
3
 10
255.561656
 20
-444.592246
  0
POINT
  8
3
 10
254.924657
 20
-420.639051
  0
POINT
  8
3
 10
254.752678
 20
-415.317451
  0
POINT
  8
3
 10
253.669715
 20
-386.039223
  0
POINT
  8
3
 10
251.304836
 20
-327.477714
  0
POINT
  8
3
 10
250.560150
 20
-307.585163
  0
POINT
  8
3
 10
250.345418
 20
-302.387067
  0
POINT
  8
3
 10
249.698110
 20
-289.024193
  0
POINT
  8
3
 10
248.965641
 20
-277.325063
  0
POINT
  8
3
 10
248.965590
 20
-277.324350
  0
POINT
  8
3
 10
248.215061
 20
-267.627494
  0
POINT
  8
3
 10
253.219380
 20
-256.206593
  0
POINT
  8
3
 10
258.673389
 20
-255.008922
  0
POINT
  8
3
 10
261.847394
 20
-254.133948
  0
POINT
  8
3
 10
264.938528
 20
-253.131460
  0
POINT
  8
3
 10
267.936150
 20
-252.004916
  0
POINT
  8
3
 10
270.831452
 20
-250.757637
  0
POINT
  8
3
 10
273.615220
 20
-249.393711
  0
POINT
  8
3
 10
276.282302
 20
-247.915791
  0
POINT
  8
3
 10
276.522827
 20
-247.773476
  0
POINT
  8
3
 10
278.826855
 20
-246.327120
  0
POINT
  8
3
 10
281.244110
 20
-244.630682
  0
POINT
  8
3
 10
283.577527
 20
-242.792470
  0
POINT
  8
3
 10
285.834179
 20
-240.806009
  0
POINT
  8
3
 10
288.007490
 20
-238.677079
  0
POINT
  8
3
 10
290.090380
 20
-236.412607
  0
POINT
  8
3
 10
292.076538
 20
-234.019299
  0
POINT
  8
3
 10
293.957588
 20
-231.507090
  0
POINT
  8
3
 10
295.726130
 20
-228.885850
  0
POINT
  8
3
 10
297.374587
 20
-226.166801
  0
POINT
  8
3
 10
299.200149
 20
-222.763896
  0
POINT
  8
3
 10
300.876025
 20
-219.178852
  0
POINT
  8
3
 10
302.405477
 20
-215.404743
  0
POINT
  8
3
 10
303.792657
 20
-211.431358
  0
POINT
  8
3
 10
305.039525
 20
-207.255084
  0
POINT
  8
3
 10
306.155034
 20
-202.848112
  0
POINT
  8
3
 10
307.145630
 20
-198.185402
  0
POINT
  8
3
 10
308.021251
 20
-193.220459
  0
POINT
  8
3
 10
308.700484
 20
-188.568724
  0
POINT
  8
3
 10
309.265110
 20
-183.818628
  0
POINT
  8
3
 10
309.716154
 20
-178.961626
  0
POINT
  8
3
 10
310.054653
 20
-173.986597
  0
POINT
  8
3
 10
310.267029
 20
-169.306221
  0
POINT
  8
3
 10
310.281307
 20
-168.886174
  0
POINT
  8
3
 10
310.397302
 20
-163.637974
  0
POINT
  8
3
 10
310.403110
 20
-158.221700
  0
POINT
  8
3
 10
310.306252
 20
-152.879671
  0
POINT
  8
3
 10
310.298779
 20
-152.607286
  0
POINT
  8
3
 10
309.938503
 20
-143.913831
  0
POINT
  8
3
 10
309.337602
 20
-135.058757
  0
POINT
  8
3
 10
308.495366
 20
-126.031441
  0
POINT
  8
3
 10
307.410507
 20
-116.818019
  0
POINT
  8
3
 10
306.004101
 20
-106.927984
  0
POINT
  8
3
 10
304.365340
 20
-97.168951
  0
POINT
  8
3
 10
302.495136
 20
-87.546349
  0
POINT
  8
3
 10
300.394441
 20
-78.065066
  0
POINT
  8
3
 10
297.289862
 20
-65.698420
  0
POINT
  8
3
 10
427.821894
 20
-9.098706
  0
POINT
  8
3
 10
428.920217
 20
-14.673321
  0
POINT
  8
3
 10
430.078695
 20
-19.882643
  0
POINT
  8
3
 10
431.283093
 20
-24.675374
  0
POINT
  8
3
 10
432.664332
 20
-29.485098
  0
POINT
  8
3
 10
434.170095
 20
-34.064428
  0
POINT
  8
3
 10
435.805618
 20
-38.429232
  0
POINT
  8
3
 10
437.574720
 20
-42.589614
  0
POINT
  8
3
 10
439.579952
 20
-46.758768
  0
POINT
  8
3
 10
441.819587
 20
-50.918825
  0
POINT
  8
3
 10
444.293889
 20
-55.070279
  0
POINT
  8
3
 10
444.832878
 20
-55.924649
  0
POINT
  8
3
 10
447.003332
 20
-59.213927
  0
POINT
  8
3
 10
449.677378
 20
-62.971241
  0
POINT
  8
3
 10
452.359945
 20
-66.422286
  0
POINT
  8
3
 10
455.076009
 20
-69.599098
  0
POINT
  8
3
 10
457.840614
 20
-72.519117
  0
POINT
  8
3
 10
460.916209
 20
-75.426294
  0
POINT
  8
3
 10
464.201816
 20
-78.200511
  0
POINT
  8
3
 10
467.687488
 20
-80.833351
  0
POINT
  8
3
 10
471.360934
 20
-83.315517
  0
POINT
  8
3
 10
474.544314
 20
-85.252659
  0
POINT
  8
3
 10
477.102870
 20
-86.671427
  0
POINT
  8
3
 10
477.747156
 20
-87.009517
  0
POINT
  8
3
 10
480.966750
 20
-88.584604
  0
POINT
  8
3
 10
484.200788
 20
-89.976794
  0
POINT
  8
3
 10
487.924278
 20
-91.351306
  0
POINT
  8
3
 10
491.788334
 20
-92.543105
  0
POINT
  8
3
 10
495.782242
 20
-93.548872
  0
POINT
  8
3
 10
499.892695
 20
-94.365245
  0
POINT
  8
3
 10
503.966441
 20
-94.979239
  0
POINT
  8
3
 10
508.388485
 20
-95.472801
  0
POINT
  8
3
 10
513.115171
 20
-95.837805
  0
POINT
  8
3
 10
517.618103
 20
-96.033401
  0
POINT
  8
3
 10
520.308309
 20
-95.936325
  0
POINT
  8
3
 10
530.394483
 20
-95.089898
  0
POINT
  8
3
 10
538.915291
 20
-93.668088
  0
POINT
  8
3
 10
547.469418
 20
-91.297840
  0
POINT
  8
3
 10
555.012235
 20
-88.238060
  0
POINT
  8
3
 10
558.133336
 20
-86.671427
  0
POINT
  8
3
 10
562.800706
 20
-83.990917
  0
POINT
  8
3
 10
569.767467
 20
-79.191572
  0
POINT
  8
3
 10
576.492800
 20
-73.407355
  0
POINT
  8
3
 10
582.134000
 20
-67.321674
  0
POINT
  8
3
 10
588.302122
 20
-59.112417
  0
POINT
  8
3
 10
590.403328
 20
-55.924649
  0
POINT
  8
3
 10
593.655242
 20
-50.495904
  0
POINT
  8
3
 10
598.174944
 20
-41.434650
  0
POINT
  8
3
 10
601.781670
 20
-31.963974
  0
POINT
  8
3
 10
604.972703
 20
-20.657536
  0
POINT
  8
3
 10
645.566788
 20
-17.382703
  0
POINT
  8
3
 10
734.841766
 20
-78.065066
  0
POINT
  8
3
 10
731.129544
 20
-95.755240
  0
POINT
  8
3
 10
729.258499
 20
-106.758089
  0
POINT
  8
3
 10
728.254558
 20
-113.609218
  0
POINT
  8
3
 10
726.088155
 20
-132.799539
  0
POINT
  8
3
 10
724.991546
 20
-150.842393
  0
POINT
  8
3
 10
724.929954
 20
-152.879671
  0
POINT
  8
3
 10
724.891820
 20
-166.662447
  0
POINT
  8
3
 10
724.969177
 20
-169.306221
  0
POINT
  8
3
 10
725.667814
 20
-180.705229
  0
POINT
  8
3
 10
727.214955
 20
-193.220459
  0
POINT
  8
3
 10
730.149099
 20
-207.081625
  0
POINT
  8
3
 10
733.313263
 20
-216.655871
  0
POINT
  8
3
 10
736.657394
 20
-223.974511
  0
POINT
  8
3
 10
741.118551
 20
-231.280910
  0
POINT
  8
3
 10
746.196510
 20
-237.584125
  0
POINT
  8
3
 10
752.069088
 20
-243.131073
  0
POINT
  8
3
 10
758.713379
 20
-247.773476
  0
POINT
  8
3
 10
759.040734
 20
-247.966782
  0
POINT
  8
3
 10
766.270784
 20
-251.580302
  0
POINT
  8
3
 10
773.894825
 20
-254.283606
  0
POINT
  8
3
 10
782.218845
 20
-256.245174
  0
POINT
  8
3
 10
786.270565
 20
-277.325063
  0
POINT
  8
3
 10
785.162985
 20
-296.356198
  0
POINT
  8
3
 10
784.676056
 20
-307.585163
  0
POINT
  8
3
 10
783.186280
 20
-346.534601
  0
POINT
  8
3
 10
781.125839
 20
-397.343082
  0
POINT
  8
3
 10
780.311549
 20
-420.639051
  0
POINT
  8
3
 10
779.674550
 20
-444.592246
  0
POINT
  8
3
 10
779.674380
 20
-444.600290
  0
POINT
  8
3
 10
779.155238
 20
-495.434653
  0
POINT
  8
3
 10
779.394135
 20
-546.284515
  0
POINT
  8
3
 10
779.410629
 20
-548.172874
  0
POINT
  8
3
 10
779.897514
 20
-602.510594
  0
POINT
  8
3
 10
780.197878
 20
-655.580129
  0
POINT
  8
3
 10
255.561656
 20
-444.592246
  0
TEXT
  8
3
 10
255.561656
 20
-444.592246
 40
0.000000
 50
0.000000
  1
# 48
  0
POINT
  8
3
 10
254.924657
 20
-420.639051
  0
TEXT
  8
3
 10
254.924657
 20
-420.639051
 40
0.000000
 50
0.000000
  1
# 49
  0
POINT
  8
3
 10
248.965641
 20
-277.325063
  0
TEXT
  8
3
 10
248.965641
 20
-277.325063
 40
0.000000
 50
0.000000
  1
# 50
  0
POINT
  8
3
 10
310.306252
 20
-152.879671
  0
TEXT
  8
3
 10
310.306252
 20
-152.879671
 40
0.000000
 50
0.000000
  1
# 51
  0
POINT
  8
3
 10
477.102870
 20
-86.671427
  0
TEXT
  8
3
 10
477.102870
 20
-86.671427
 40
0.000000
 50
0.000000
  1
# 52
  0
POINT
  8
3
 10
558.133336
 20
-86.671427
  0
TEXT
  8
3
 10
558.133336
 20
-86.671427
 40
0.000000
 50
0.000000
  1
# 53
  0
POINT
  8
3
 10
724.929954
 20
-152.879671
  0
TEXT
  8
3
 10
724.929954
 20
-152.879671
 40
0.000000
 50
0.000000
  1
# 54
  0
POINT
  8
3
 10
786.270565
 20
-277.325063
  0
TEXT
  8
3
 10
786.270565
 20
-277.325063
 40
0.000000
 50
0.000000
  1
# 55
  0
POINT
  8
3
 10
780.311549
 20
-420.639051
  0
TEXT
  8
3
 10
780.311549
 20
-420.639051
 40
0.000000
 50
0.000000
  1
# 56
  0
POINT
  8
3
 10
779.674550
 20
-444.592246
  0
TEXT
  8
3
 10
779.674550
 20
-444.592246
 40
0.000000
 50
0.000000
  1
# 57
  0
POINT
  8
4
 10
255.825577
 20
-548.172874
 30
0.600000
 50
359.50
  0
TEXT
  8
4
 10
255.825577
 20
-548.172874
 40
0.000000
 50
0.000000
  1
# 58
  0
POINT
  8
4
 10
250.560150
 20
-307.585163
 30
0.600000
 50
  2.28
  0
TEXT
  8
4
 10
250.560150
 20
-307.585163
 40
0.000000
 50
0.000000
  1
# 59
  0
POINT
  8
4
 10
276.522827
 20
-247.773476
 30
0.600000
 50
300.75
  0
TEXT
  8
4
 10
276.522827
 20
-247.773476
 40
0.000000
 50
0.000000
  1
# 60
  0
POINT
  8
4
 10
310.267029
 20
-169.306221
 30
0.600000
 50
358.00
  0
TEXT
  8
4
 10
310.267029
 20
-169.306221
 40
0.000000
 50
0.000000
  1
# 61
  0
POINT
  8
4
 10
444.832878
 20
-55.924649
 30
0.600000
 50
212.49
  0
TEXT
  8
4
 10
444.832878
 20
-55.924649
 40
0.000000
 50
0.000000
  1
# 62
  0
POINT
  8
4
 10
517.618103
 20
-96.033401
 30
0.600000
 50
270.00
  0
TEXT
  8
4
 10
517.618103
 20
-96.033401
 40
0.000000
 50
0.000000
  1
# 63
  0
POINT
  8
4
 10
590.403328
 20
-55.924649
 30
0.600000
 50
327.51
  0
TEXT
  8
4
 10
590.403328
 20
-55.924649
 40
0.000000
 50
0.000000
  1
# 64
  0
POINT
  8
4
 10
645.566788
 20
-17.382703
 30
0.600000
 50
249.94
  0
TEXT
  8
4
 10
645.566788
 20
-17.382703
 40
0.000000
 50
0.000000
  1
# 65
  0
POINT
  8
4
 10
729.258499
 20
-106.758089
 30
0.600000
 50
171.17
  0
TEXT
  8
4
 10
729.258499
 20
-106.758089
 40
0.000000
 50
0.000000
  1
# 66
  0
POINT
  8
4
 10
724.969177
 20
-169.306221
 30
0.600000
 50
182.00
  0
TEXT
  8
4
 10
724.969177
 20
-169.306221
 40
0.000000
 50
0.000000
  1
# 67
  0
POINT
  8
4
 10
758.713379
 20
-247.773476
 30
0.600000
 50
239.25
  0
TEXT
  8
4
 10
758.713379
 20
-247.773476
 40
0.000000
 50
0.000000
  1
# 68
  0
POINT
  8
4
 10
784.676056
 20
-307.585163
 30
0.600000
 50
177.72
  0
TEXT
  8
4
 10
784.676056
 20
-307.585163
 40
0.000000
 50
0.000000
  1
# 69
  0
POINT
  8
4
 10
779.410629
 20
-548.172874
 30
0.600000
 50
180.50
  0
TEXT
  8
4
 10
779.410629
 20
-548.172874
 40
0.000000
 50
0.000000
  1
# 70
  0
POLYLINE
  8
11
  6
2
  66
1
  70
0
  0
VERTEX
  8
1
  10
517.618103
  20
-700.169220
  0
VERTEX
  8
1
  10
517.618103
  20
-96.033421
  0
SEQEND
  8
11
  0
POINT
  8
2
 10
517.618103
 20
-700.169220
  0
TEXT
  8
2
 10
517.618103
 20
-700.169220
 40
0.000000
 50
0.000000
  1
# 71
  0
POINT
  8
2
 10
517.618103
 20
-96.033421
  0
TEXT
  8
2
 10
517.618103
 20
-96.033421
 40
0.000000
 50
0.000000
  1
# 72
  0
POLYLINE
  8
11
  66
1
  70
0
  0
VERTEX
  8
1
  10
725.234375
  20
-152.887764
  0
VERTEX
  8
1
  10
517.617493
  20
-152.887764
  0
SEQEND
  8
11
  0
POINT
  8
2
 10
725.234375
 20
-152.887764
  0
TEXT
  8
2
 10
725.234375
 20
-152.887764
 40
0.000000
 50
0.000000
  1
# 73
  0
POINT
  8
2
 10
517.617493
 20
-152.887764
  0
TEXT
  8
2
 10
517.617493
 20
-152.887764
 40
0.000000
 50
0.000000
  1
# 74
  0
POLYLINE
  8
11
  6
2
  66
1
  70
0
  0
VERTEX
  8
1
  10
609.285851
  20
-4.131933
  0
VERTEX
  8
1
  10
606.132167
  20
-20.122939
  0
VERTEX
  8
1
  10
603.219348
  20
-30.766739
  0
VERTEX
  8
1
  10
599.802865
  20
-40.166803
  0
VERTEX
  8
1
  10
595.938892
  20
-48.388972
  0
VERTEX
  8
1
  10
590.976508
  20
-56.884540
  0
VERTEX
  8
1
  10
585.172623
  20
-65.136849
  0
VERTEX
  8
1
  10
579.571404
  20
-71.714180
  0
VERTEX
  8
1
  10
573.656303
  20
-77.333214
  0
VERTEX
  8
1
  10
567.053726
  20
-82.404097
  0
VERTEX
  8
1
  10
559.751787
  20
-86.932471
  0
VERTEX
  8
1
  10
552.659804
  20
-90.388432
  0
VERTEX
  8
1
  10
545.354236
  20
-93.029484
  0
VERTEX
  8
1
  10
537.513873
  20
-94.978764
  0
VERTEX
  8
1
  10
528.249303
  20
-96.342247
  0
VERTEX
  8
1
  10
517.618103
  20
-97.034454
  0
SEQEND
  8
11
  0
POINT
  8
2
 10
609.285851
 20
-4.131933
  0
TEXT
  8
2
 10
609.285851
 20
-4.131933
 40
0.000000
 50
0.000000
  1
# 75
  0
POINT
  8
2
 10
517.618103
 20
-97.034454
  0
TEXT
  8
2
 10
517.618103
 20
-97.034454
 40
0.000000
 50
0.000000
  1
# 76
  0
POINT
  8
3
 10
606.132167
 20
-20.122939
  0
POINT
  8
3
 10
603.219348
 20
-30.766739
  0
POINT
  8
3
 10
599.802865
 20
-40.166803
  0
POINT
  8
3
 10
595.938892
 20
-48.388972
  0
POINT
  8
3
 10
590.976508
 20
-56.884540
  0
POINT
  8
3
 10
585.172623
 20
-65.136849
  0
POINT
  8
3
 10
579.571404
 20
-71.714180
  0
POINT
  8
3
 10
573.656303
 20
-77.333214
  0
POINT
  8
3
 10
567.053726
 20
-82.404097
  0
POINT
  8
3
 10
559.751787
 20
-86.932471
  0
POINT
  8
3
 10
552.659804
 20
-90.388432
  0
POINT
  8
3
 10
545.354236
 20
-93.029484
  0
POINT
  8
3
 10
537.513873
 20
-94.978764
  0
POINT
  8
3
 10
528.249303
 20
-96.342247
  0
POLYLINE
  8
11
  66
1
  70
0
  0
VERTEX
  8
1
  10
786.270447
  20
-277.324905
  0
VERTEX
  8
1
  10
517.618103
  20
-277.324905
  0
SEQEND
  8
11
  0
POINT
  8
2
 10
786.270447
 20
-277.324905
  0
TEXT
  8
2
 10
786.270447
 20
-277.324905
 40
0.000000
 50
0.000000
  1
# 77
  0
POINT
  8
2
 10
517.618103
 20
-277.324905
  0
TEXT
  8
2
 10
517.618103
 20
-277.324905
 40
0.000000
 50
0.000000
  1
# 78
  0
POLYLINE
  8
11
  66
1
  70
0
  0
VERTEX
  8
1
  10
517.618103
  20
-444.601135
  0
VERTEX
  8
1
  10
779.668961
  20
-444.592209
  0
SEQEND
  8
11
  0
POINT
  8
2
 10
517.618103
 20
-444.601135
  0
TEXT
  8
2
 10
517.618103
 20
-444.601135
 40
0.000000
 50
0.000000
  1
# 79
  0
POINT
  8
2
 10
779.668961
 20
-444.592209
  0
TEXT
  8
2
 10
779.668961
 20
-444.592209
 40
0.000000
 50
0.000000
  1
# 80
  0
POLYLINE
  8
11
  6
2
  66
1
  70
0
  0
VERTEX
  8
1
  10
780.270081
  20
-685.169220
  0
VERTEX
  8
1
  10
517.618103
  20
-685.169220
  0
SEQEND
  8
11
  0
POINT
  8
2
 10
780.270081
 20
-685.169220
  0
TEXT
  8
2
 10
780.270081
 20
-685.169220
 40
0.000000
 50
0.000000
  1
# 81
  0
POINT
  8
2
 10
517.618103
 20
-685.169220
  0
TEXT
  8
2
 10
517.618103
 20
-685.169220
 40
0.000000
 50
0.000000
  1
# 82
  0
POLYLINE
  8
11
  6
2
  66
1
  70
0
  0
VERTEX
  8
1
  10
780.252533
  20
-680.169220
  0
VERTEX
  8
1
  10
517.618103
  20
-680.169220
  0
SEQEND
  8
11
  0
POINT
  8
2
 10
780.252533
 20
-680.169220
  0
TEXT
  8
2
 10
780.252533
 20
-680.169220
 40
0.000000
 50
0.000000
  1
# 83
  0
POINT
  8
2
 10
517.618103
 20
-680.169220
  0
TEXT
  8
2
 10
517.618103
 20
-680.169220
 40
0.000000
 50
0.000000
  1
# 84
  0
POLYLINE
  8
11
  6
2
  66
1
  70
0
  0
VERTEX
  8
1
  10
607.812119
  20
-6.788027
  0
VERTEX
  8
1
  10
740.792923
  20
-55.354362
  0
SEQEND
  8
11
  0
POINT
  8
2
 10
607.812119
 20
-6.788027
  0
TEXT
  8
2
 10
607.812119
 20
-6.788027
 40
0.000000
 50
0.000000
  1
# 85
  0
POINT
  8
2
 10
740.792923
 20
-55.354362
  0
TEXT
  8
2
 10
740.792923
 20
-55.354362
 40
0.000000
 50
0.000000
  1
# 86
  0
POLYLINE
  8
11
  66
1
  70
0
  0
VERTEX
  8
1
  10
310.001831
  20
-152.887764
  0
VERTEX
  8
1
  10
517.618713
  20
-152.887764
  0
SEQEND
  8
11
  0
POINT
  8
2
 10
310.001831
 20
-152.887764
  0
TEXT
  8
2
 10
310.001831
 20
-152.887764
 40
0.000000
 50
0.000000
  1
# 87
  0
POINT
  8
2
 10
517.618713
 20
-152.887764
  0
TEXT
  8
2
 10
517.618713
 20
-152.887764
 40
0.000000
 50
0.000000
  1
# 88
  0
POLYLINE
  8
11
  6
2
  66
1
  70
0
  0
VERTEX
  8
1
  10
425.950356
  20
-4.131933
  0
VERTEX
  8
1
  10
427.198627
  20
-11.101539
  0
VERTEX
  8
1
  10
428.515899
  20
-17.540972
  0
VERTEX
  8
1
  10
429.706875
  20
-22.596042
  0
VERTEX
  8
1
  10
430.997135
  20
-27.386316
  0
VERTEX
  8
1
  10
432.078405
  20
-30.960797
  0
VERTEX
  8
1
  10
433.226386
  20
-34.395868
  0
VERTEX
  8
1
  10
434.453212
  20
-37.724258
  0
VERTEX
  8
1
  10
435.752788
  20
-40.925827
  0
VERTEX
  8
1
  10
437.164147
  20
-44.088742
  0
VERTEX
  8
1
  10
438.688785
  20
-47.212932
  0
VERTEX
  8
1
  10
440.359319
  20
-50.358708
  0
VERTEX
  8
1
  10
442.168200
  20
-53.507670
  0
VERTEX
  8
1
  10
444.106999
  20
-56.646333
  0
VERTEX
  8
1
  10
446.177338
  20
-59.777987
  0
VERTEX
  8
1
  10
448.200772
  20
-62.651172
  0
VERTEX
  8
1
  10
450.226257
  20
-65.346697
  0
VERTEX
  8
1
  10
453.297313
  20
-69.094493
  0
VERTEX
  8
1
  10
455.202264
  20
-71.220249
  0
VERTEX
  8
1
  10
457.132946
  20
-73.225978
  0
VERTEX
  8
1
  10
460.249935
  20
-76.172295
  0
VERTEX
  8
1
  10
463.577680
  20
-78.982110
  0
VERTEX
  8
1
  10
465.948520
  20
-80.805303
  0
VERTEX
  8
1
  10
468.409727
  20
-82.560714
  0
VERTEX
  8
1
  10
472.430067
  20
-85.160979
  0
VERTEX
  8
1
  10
477.286531
  20
-87.897359
  0
VERTEX
  8
1
  10
480.959026
  20
-89.680567
  0
VERTEX
  8
1
  10
485.697982
  20
-91.625009
  0
VERTEX
  8
1
  10
488.326405
  20
-92.539358
  0
VERTEX
  8
1
  10
491.029427
  20
-93.368030
  0
VERTEX
  8
1
  10
495.562814
  20
-94.524727
  0
VERTEX
  8
1
  10
498.575398
  20
-95.142213
  0
VERTEX
  8
1
  10
501.732865
  20
-95.675795
  0
VERTEX
  8
1
  10
508.294754
  20
-96.468619
  0
VERTEX
  8
1
  10
512.778931
  20
-96.803196
  0
VERTEX
  8
1
  10
517.618103
  20
-97.034454
  0
SEQEND
  8
11
  0
POINT
  8
2
 10
425.950356
 20
-4.131933
  0
TEXT
  8
2
 10
425.950356
 20
-4.131933
 40
0.000000
 50
0.000000
  1
# 89
  0
POINT
  8
2
 10
517.618103
 20
-97.034454
  0
TEXT
  8
2
 10
517.618103
 20
-97.034454
 40
0.000000
 50
0.000000
  1
# 90
  0
POINT
  8
3
 10
427.198627
 20
-11.101539
  0
POINT
  8
3
 10
428.515899
 20
-17.540972
  0
POINT
  8
3
 10
429.706875
 20
-22.596042
  0
POINT
  8
3
 10
430.997135
 20
-27.386316
  0
POINT
  8
3
 10
432.078405
 20
-30.960797
  0
POINT
  8
3
 10
433.226386
 20
-34.395868
  0
POINT
  8
3
 10
434.453212
 20
-37.724258
  0
POINT
  8
3
 10
435.752788
 20
-40.925827
  0
POINT
  8
3
 10
437.164147
 20
-44.088742
  0
POINT
  8
3
 10
438.688785
 20
-47.212932
  0
POINT
  8
3
 10
440.359319
 20
-50.358708
  0
POINT
  8
3
 10
442.168200
 20
-53.507670
  0
POINT
  8
3
 10
444.106999
 20
-56.646333
  0
POINT
  8
3
 10
446.177338
 20
-59.777987
  0
POINT
  8
3
 10
448.200772
 20
-62.651172
  0
POINT
  8
3
 10
450.226257
 20
-65.346697
  0
POINT
  8
3
 10
453.297313
 20
-69.094493
  0
POINT
  8
3
 10
455.202264
 20
-71.220249
  0
POINT
  8
3
 10
457.132946
 20
-73.225978
  0
POINT
  8
3
 10
460.249935
 20
-76.172295
  0
POINT
  8
3
 10
463.577680
 20
-78.982110
  0
POINT
  8
3
 10
465.948520
 20
-80.805303
  0
POINT
  8
3
 10
468.409727
 20
-82.560714
  0
POINT
  8
3
 10
472.430067
 20
-85.160979
  0
POINT
  8
3
 10
477.286531
 20
-87.897359
  0
POINT
  8
3
 10
480.959026
 20
-89.680567
  0
POINT
  8
3
 10
485.697982
 20
-91.625009
  0
POINT
  8
3
 10
488.326405
 20
-92.539358
  0
POINT
  8
3
 10
491.029427
 20
-93.368030
  0
POINT
  8
3
 10
495.562814
 20
-94.524727
  0
POINT
  8
3
 10
498.575398
 20
-95.142213
  0
POINT
  8
3
 10
501.732865
 20
-95.675795
  0
POINT
  8
3
 10
508.294754
 20
-96.468619
  0
POINT
  8
3
 10
512.778931
 20
-96.803196
  0
POLYLINE
  8
11
  66
1
  70
0
  0
VERTEX
  8
1
  10
248.965759
  20
-277.324905
  0
VERTEX
  8
1
  10
517.618103
  20
-277.324905
  0
SEQEND
  8
11
  0
POINT
  8
2
 10
248.965759
 20
-277.324905
  0
TEXT
  8
2
 10
248.965759
 20
-277.324905
 40
0.000000
 50
0.000000
  1
# 91
  0
POINT
  8
2
 10
517.618103
 20
-277.324905
  0
TEXT
  8
2
 10
517.618103
 20
-277.324905
 40
0.000000
 50
0.000000
  1
# 92
  0
POLYLINE
  8
11
  66
1
  70
0
  0
VERTEX
  8
1
  10
517.618103
  20
-444.601135
  0
VERTEX
  8
1
  10
255.567245
  20
-444.592209
  0
SEQEND
  8
11
  0
POINT
  8
2
 10
517.618103
 20
-444.601135
  0
TEXT
  8
2
 10
517.618103
 20
-444.601135
 40
0.000000
 50
0.000000
  1
# 93
  0
POINT
  8
2
 10
255.567245
 20
-444.592209
  0
TEXT
  8
2
 10
255.567245
 20
-444.592209
 40
0.000000
 50
0.000000
  1
# 94
  0
POLYLINE
  8
11
  6
2
  66
1
  70
0
  0
VERTEX
  8
1
  10
254.966125
  20
-685.169220
  0
VERTEX
  8
1
  10
517.618103
  20
-685.169220
  0
SEQEND
  8
11
  0
POINT
  8
2
 10
254.966125
 20
-685.169220
  0
TEXT
  8
2
 10
254.966125
 20
-685.169220
 40
0.000000
 50
0.000000
  1
# 95
  0
POINT
  8
2
 10
517.618103
 20
-685.169220
  0
TEXT
  8
2
 10
517.618103
 20
-685.169220
 40
0.000000
 50
0.000000
  1
# 96
  0
POLYLINE
  8
11
  6
2
  66
1
  70
0
  0
VERTEX
  8
1
  10
254.983673
  20
-680.169220
  0
VERTEX
  8
1
  10
517.618103
  20
-680.169220
  0
SEQEND
  8
11
  0
POINT
  8
2
 10
254.983673
 20
-680.169220
  0
TEXT
  8
2
 10
254.983673
 20
-680.169220
 40
0.000000
 50
0.000000
  1
# 97
  0
POINT
  8
2
 10
517.618103
 20
-680.169220
  0
TEXT
  8
2
 10
517.618103
 20
-680.169220
 40
0.000000
 50
0.000000
  1
# 98
  0
POLYLINE
  8
11
  6
2
  66
1
  70
0
  0
VERTEX
  8
1
  10
427.424088
  20
-6.788027
  0
VERTEX
  8
1
  10
294.443283
  20
-55.354362
  0
SEQEND
  8
11
  0
POINT
  8
2
 10
427.424088
 20
-6.788027
  0
TEXT
  8
2
 10
427.424088
 20
-6.788027
 40
0.000000
 50
0.000000
  1
# 99
  0
POINT
  8
2
 10
294.443283
 20
-55.354362
  0
TEXT
  8
2
 10
294.443283
 20
-55.354362
 40
0.000000
 50
0.000000
  1
# 100
 0
LINE
 8
7
 10
544.540062
 20
-232.338963
 11
544.540062
 21
-570.088577
  0
TEXT
  8
1
 10
565.120049
 20
-203.768291
 40
18.089997
 50
0.000000
  1
绣花
  0
TEXT
  8
1
 10
528.451309
 20
-115.320654
 40
10.152026
 50
360.000000
  1
前领0.1CM单针
  0
TEXT
  8
1
 10
683.853912
 20
-264.774265
 40
10.101007
 50
0.924046
  1
腋下装织带10CM
 0
LINE
 8
11
 10
609.415588
 20
-211.098270
 11
627.949295
 21
-211.098270
 0
LINE
 8
11
 10
627.949295
 20
-211.098270
 11
627.949295
 21
-185.209961
 0
LINE
 8
11
 10
627.949295
 20
-185.209961
 11
609.415588
 21
-185.209961
 0
LINE
 8
11
 10
609.415588
 20
-185.209961
 11
609.415588
 21
-211.098270
 0
LINE
 8
11
 10
618.682442
 20
-211.098270
 11
618.682442
 21
-185.209961
 0
LINE
 8
11
 10
627.949295
 20
-198.154182
 11
609.415588
 21
-198.154182
  0
TEXT
  8
1
 10
517.618122
 20
-357.167447
 40
10.000000
 50
0.000000
  1
PIECE NAME: C2590551.前片
  0
TEXT
  8
1
 10
517.618122
 20
-342.167447
 40
10.000000
 50
0.000000
  1
Size: M
  0
TEXT
  8
1
 10
517.618122
 20
-327.167447
 40
10.000000
 50
0.000000
  1
ANNOTATION: 面料 X1
  0
TEXT
  8
1
 10
517.618122
 20
-312.167447
 40
10.000000
 50
0.000000
  1
QUANTITY: 1
  0
TEXT
  8
1
 10
517.618122
 20
-297.167447
 40
10.000000
 50
0.000000
  1
FABRIC: 面料
  0
TEXT
  8
1
 10
517.618122
 20
-282.167447
 40
10.000000
 50
0.000000
  1
CATEGORY: 前片
  0
TEXT
  8
1
 10
517.618122
 20
-267.167447
 40
10.000000
 50
0.000000
  1
SHRINKAGE: 经:1.0%，纬:1.0%
0
ENDBLK
0
BLOCK
  8
1
  2
C2590551.后片_面料_M
 70
0
 10
0.0
 20
0.0
  0
POLYLINE
  8
1
  66
1
  70
1
  0
VERTEX
  8
1
  10
-114.629527
  20
-724.780440
  0
VERTEX
  8
1
  10
-385.298460
  20
-724.781305
  0
VERTEX
  8
1
  10
-385.329262
  20
-703.781306
  0
VERTEX
  8
1
  10
-385.267405
  20
-661.609178
  0
VERTEX
  8
1
  10
-384.966447
  20
-608.094799
  0
VERTEX
  8
1
  10
-384.476578
  20
-560.549075
  0
VERTEX
  8
1
  10
-384.402757
  20
-551.717788
  0
VERTEX
  8
1
  10
-384.058128
  20
-510.489477
  0
VERTEX
  8
1
  10
-384.208257
  20
-456.392596
  0
VERTEX
  8
1
  10
-384.351201
  20
-448.402568
  0
VERTEX
  8
1
  10
-384.779920
  20
-424.438909
  0
VERTEX
  8
1
  10
-385.105028
  20
-406.266682
  0
VERTEX
  8
1
  10
-386.792786
  20
-356.315859
  0
VERTEX
  8
1
  10
-389.082728
  20
-312.677662
  0
VERTEX
  8
1
  10
-389.150934
  20
-311.757056
  0
VERTEX
  8
1
  10
-391.389891
  20
-281.536722
  0
VERTEX
  8
1
  10
-393.261490
  20
-256.274796
  0
VERTEX
  8
1
  10
-389.100385
  20
-254.002790
  0
VERTEX
  8
1
  10
-386.154672
  20
-252.477103
  0
VERTEX
  8
1
  10
-378.305049
  20
-247.978738
  0
VERTEX
  8
1
  10
-371.787466
  20
-243.433227
  0
VERTEX
  8
1
  10
-365.307197
  20
-237.670981
  0
VERTEX
  8
1
  10
-359.914796
  20
-231.350814
  0
VERTEX
  8
1
  10
-355.100665
  20
-224.009442
  0
VERTEX
  8
1
  10
-351.296177
  20
-216.426664
  0
VERTEX
  8
1
  10
-348.202110
  20
-208.381872
  0
VERTEX
  8
1
  10
-345.227056
  20
-197.842451
  0
VERTEX
  8
1
  10
-342.902521
  20
-185.618194
  0
VERTEX
  8
1
  10
-341.392447
  20
-172.282551
  0
VERTEX
  8
1
  10
-340.749624
  20
-159.040644
  0
VERTEX
  8
1
  10
-340.607365
  20
-156.110171
  0
VERTEX
  8
1
  10
-340.494064
  20
-153.776206
  0
VERTEX
  8
1
  10
-340.522278
  20
-133.221672
  0
VERTEX
  8
1
  10
-341.568284
  20
-111.793456
  0
VERTEX
  8
1
  10
-343.521178
  20
-91.321208
  0
VERTEX
  8
1
  10
-346.352471
  20
-71.348929
  0
VERTEX
  8
1
  10
-349.735071
  20
-53.423292
  0
VERTEX
  8
1
  10
-354.004505
  20
-35.767543
  0
VERTEX
  8
1
  10
-354.744000
  20
-33.341132
  0
VERTEX
  8
1
  10
-355.493660
  20
-30.881372
  0
VERTEX
  8
1
  10
-360.100457
  20
-15.765681
  0
VERTEX
  8
1
  10
-363.533994
  20
-4.087352
  0
VERTEX
  8
1
  10
-216.345433
  20
45.290524
  0
VERTEX
  8
1
  10
-212.027414
  20
39.277071
  0
VERTEX
  8
1
  10
-206.465551
  20
31.139945
  0
VERTEX
  8
1
  10
-201.187094
  20
24.983083
  0
VERTEX
  8
1
  10
-200.882942
  20
24.694801
  0
VERTEX
  8
1
  10
-199.229549
  20
23.127678
  0
VERTEX
  8
1
  10
-195.254247
  20
19.359798
  0
VERTEX
  8
1
  10
-194.764482
  20
18.895588
  0
VERTEX
  8
1
  10
-191.074168
  20
16.333533
  0
VERTEX
  8
1
  10
-190.636019
  20
16.016325
  0
VERTEX
  8
1
  10
-190.360360
  20
15.816755
  0
VERTEX
  8
1
  10
-187.224243
  20
14.127554
  0
VERTEX
  8
1
  10
-184.917198
  20
12.884914
  0
VERTEX
  8
1
  10
-179.000558
  20
10.539896
  0
VERTEX
  8
1
  10
-172.003584
  20
8.590692
  0
VERTEX
  8
1
  10
-162.841875
  20
6.961615
  0
VERTEX
  8
1
  10
-150.908375
  20
5.800054
  0
VERTEX
  8
1
  10
-133.352042
  20
5.056299
  0
VERTEX
  8
1
  10
-114.629526
  20
4.963376
  0
VERTEX
  8
1
  10
-114.629526
  20
4.963376
  0
VERTEX
  8
1
  10
-95.907010
  20
5.056299
  0
VERTEX
  8
1
  10
-78.350677
  20
5.800054
  0
VERTEX
  8
1
  10
-66.417177
  20
6.961615
  0
VERTEX
  8
1
  10
-57.255468
  20
8.590692
  0
VERTEX
  8
1
  10
-50.258494
  20
10.539896
  0
VERTEX
  8
1
  10
-44.341854
  20
12.884914
  0
VERTEX
  8
1
  10
-42.034810
  20
14.127554
  0
VERTEX
  8
1
  10
-38.898692
  20
15.816755
  0
VERTEX
  8
1
  10
-38.623034
  20
16.016325
  0
VERTEX
  8
1
  10
-38.184884
  20
16.333533
  0
VERTEX
  8
1
  10
-34.494570
  20
18.895588
  0
VERTEX
  8
1
  10
-34.004805
  20
19.359798
  0
VERTEX
  8
1
  10
-30.029504
  20
23.127678
  0
VERTEX
  8
1
  10
-28.376111
  20
24.694801
  0
VERTEX
  8
1
  10
-28.071958
  20
24.983083
  0
VERTEX
  8
1
  10
-22.793501
  20
31.139945
  0
VERTEX
  8
1
  10
-17.231638
  20
39.277071
  0
VERTEX
  8
1
  10
-12.913619
  20
45.290524
  0
VERTEX
  8
1
  10
134.274942
  20
-4.087352
  0
VERTEX
  8
1
  10
130.841405
  20
-15.765681
  0
VERTEX
  8
1
  10
126.234607
  20
-30.881372
  0
VERTEX
  8
1
  10
125.484948
  20
-33.341132
  0
VERTEX
  8
1
  10
124.745453
  20
-35.767543
  0
VERTEX
  8
1
  10
120.476019
  20
-53.423292
  0
VERTEX
  8
1
  10
117.093419
  20
-71.348929
  0
VERTEX
  8
1
  10
115.888543
  20
-79.848269
  0
VERTEX
  8
1
  10
114.262126
  20
-91.321208
  0
VERTEX
  8
1
  10
112.309232
  20
-111.793456
  0
VERTEX
  8
1
  10
111.263226
  20
-133.221672
  0
VERTEX
  8
1
  10
111.235011
  20
-153.776206
  0
VERTEX
  8
1
  10
111.348313
  20
-156.110171
  0
VERTEX
  8
1
  10
111.490571
  20
-159.040644
  0
VERTEX
  8
1
  10
112.133394
  20
-172.282551
  0
VERTEX
  8
1
  10
113.643469
  20
-185.618194
  0
VERTEX
  8
1
  10
115.968004
  20
-197.842451
  0
VERTEX
  8
1
  10
118.943057
  20
-208.381872
  0
VERTEX
  8
1
  10
122.037125
  20
-216.426664
  0
VERTEX
  8
1
  10
125.841613
  20
-224.009442
  0
VERTEX
  8
1
  10
130.655744
  20
-231.350814
  0
VERTEX
  8
1
  10
136.048145
  20
-237.670981
  0
VERTEX
  8
1
  10
142.528414
  20
-243.433227
  0
VERTEX
  8
1
  10
149.045997
  20
-247.978738
  0
VERTEX
  8
1
  10
156.895620
  20
-252.477103
  0
VERTEX
  8
1
  10
159.841332
  20
-254.002790
  0
VERTEX
  8
1
  10
164.002438
  20
-256.274796
  0
VERTEX
  8
1
  10
162.130839
  20
-281.536722
  0
VERTEX
  8
1
  10
159.891882
  20
-311.757056
  0
VERTEX
  8
1
  10
159.823676
  20
-312.677662
  0
VERTEX
  8
1
  10
157.533734
  20
-356.315859
  0
VERTEX
  8
1
  10
155.845976
  20
-406.266682
  0
VERTEX
  8
1
  10
155.520868
  20
-424.438909
  0
VERTEX
  8
1
  10
155.092149
  20
-448.402568
  0
VERTEX
  8
1
  10
154.949204
  20
-456.392596
  0
VERTEX
  8
1
  10
154.799075
  20
-510.489477
  0
VERTEX
  8
1
  10
155.143705
  20
-551.717788
  0
VERTEX
  8
1
  10
155.217526
  20
-560.549075
  0
VERTEX
  8
1
  10
155.707395
  20
-608.094799
  0
VERTEX
  8
1
  10
156.008353
  20
-661.609178
  0
VERTEX
  8
1
  10
156.070209
  20
-703.781306
  0
VERTEX
  8
1
  10
156.039407
  20
-724.781305
  0
VERTEX
  8
1
  10
-114.629527
  20
-724.780440
  0
SEQEND
  8
1
  0
POINT
  8
2
 10
-114.629527
 20
-724.780440
  0
TEXT
  8
2
 10
-114.629527
 20
-724.780440
 40
0.000000
 50
0.000000
  1
# 101
  0
POINT
  8
2
 10
-385.298460
 20
-724.781305
  0
TEXT
  8
2
 10
-385.298460
 20
-724.781305
 40
0.000000
 50
0.000000
  1
# 102
  0
POINT
  8
2
 10
-385.329262
 20
-703.781306
  0
TEXT
  8
2
 10
-385.329262
 20
-703.781306
 40
0.000000
 50
0.000000
  1
# 103
  0
POINT
  8
2
 10
-393.261490
 20
-256.274796
  0
TEXT
  8
2
 10
-393.261490
 20
-256.274796
 40
0.000000
 50
0.000000
  1
# 104
  0
POINT
  8
2
 10
-363.533994
 20
-4.087352
  0
TEXT
  8
2
 10
-363.533994
 20
-4.087352
 40
0.000000
 50
0.000000
  1
# 105
  0
POINT
  8
2
 10
-216.345433
 20
45.290524
  0
TEXT
  8
2
 10
-216.345433
 20
45.290524
 40
0.000000
 50
0.000000
  1
# 106
  0
POINT
  8
2
 10
-114.629526
 20
4.963376
  0
TEXT
  8
2
 10
-114.629526
 20
4.963376
 40
0.000000
 50
0.000000
  1
# 107
  0
POINT
  8
2
 10
-12.913619
 20
45.290524
  0
TEXT
  8
2
 10
-12.913619
 20
45.290524
 40
0.000000
 50
0.000000
  1
# 108
  0
POINT
  8
2
 10
134.274942
 20
-4.087352
  0
TEXT
  8
2
 10
134.274942
 20
-4.087352
 40
0.000000
 50
0.000000
  1
# 109
  0
POINT
  8
2
 10
164.002438
 20
-256.274796
  0
TEXT
  8
2
 10
164.002438
 20
-256.274796
 40
0.000000
 50
0.000000
  1
# 110
  0
POINT
  8
2
 10
156.070209
 20
-703.781306
  0
TEXT
  8
2
 10
156.070209
 20
-703.781306
 40
0.000000
 50
0.000000
  1
# 111
  0
POINT
  8
2
 10
156.039407
 20
-724.781305
  0
TEXT
  8
2
 10
156.039407
 20
-724.781305
 40
0.000000
 50
0.000000
  1
# 112
  0
POINT
  8
2
 10
-114.629527
 20
-724.780440
  0
TEXT
  8
2
 10
-114.629527
 20
-724.780440
 40
0.000000
 50
0.000000
  1
# 113
  0
POINT
  8
3
 10
-385.267405
 20
-661.609178
  0
POINT
  8
3
 10
-384.966447
 20
-608.094799
  0
POINT
  8
3
 10
-384.476578
 20
-560.549075
  0
POINT
  8
3
 10
-384.402757
 20
-551.717788
  0
POINT
  8
3
 10
-384.058128
 20
-510.489477
  0
POINT
  8
3
 10
-384.208257
 20
-456.392596
  0
POINT
  8
3
 10
-384.351201
 20
-448.402568
  0
POINT
  8
3
 10
-384.779920
 20
-424.438909
  0
POINT
  8
3
 10
-385.105028
 20
-406.266682
  0
POINT
  8
3
 10
-386.792786
 20
-356.315859
  0
POINT
  8
3
 10
-389.082728
 20
-312.677662
  0
POINT
  8
3
 10
-389.150934
 20
-311.757056
  0
POINT
  8
3
 10
-391.389891
 20
-281.536722
  0
POINT
  8
3
 10
-389.100385
 20
-254.002790
  0
POINT
  8
3
 10
-386.154672
 20
-252.477103
  0
POINT
  8
3
 10
-378.305049
 20
-247.978738
  0
POINT
  8
3
 10
-371.787466
 20
-243.433227
  0
POINT
  8
3
 10
-365.307197
 20
-237.670981
  0
POINT
  8
3
 10
-359.914796
 20
-231.350814
  0
POINT
  8
3
 10
-355.100665
 20
-224.009442
  0
POINT
  8
3
 10
-351.296177
 20
-216.426664
  0
POINT
  8
3
 10
-348.202110
 20
-208.381872
  0
POINT
  8
3
 10
-345.227056
 20
-197.842451
  0
POINT
  8
3
 10
-342.902521
 20
-185.618194
  0
POINT
  8
3
 10
-341.392447
 20
-172.282551
  0
POINT
  8
3
 10
-340.749624
 20
-159.040644
  0
POINT
  8
3
 10
-340.607365
 20
-156.110171
  0
POINT
  8
3
 10
-340.494064
 20
-153.776206
  0
POINT
  8
3
 10
-340.522278
 20
-133.221672
  0
POINT
  8
3
 10
-341.568284
 20
-111.793456
  0
POINT
  8
3
 10
-343.521178
 20
-91.321208
  0
POINT
  8
3
 10
-346.352471
 20
-71.348929
  0
POINT
  8
3
 10
-349.735071
 20
-53.423292
  0
POINT
  8
3
 10
-354.004505
 20
-35.767543
  0
POINT
  8
3
 10
-354.744000
 20
-33.341132
  0
POINT
  8
3
 10
-355.493660
 20
-30.881372
  0
POINT
  8
3
 10
-360.100457
 20
-15.765681
  0
POINT
  8
3
 10
-212.027414
 20
39.277071
  0
POINT
  8
3
 10
-206.465551
 20
31.139945
  0
POINT
  8
3
 10
-201.187094
 20
24.983083
  0
POINT
  8
3
 10
-200.882942
 20
24.694801
  0
POINT
  8
3
 10
-199.229549
 20
23.127678
  0
POINT
  8
3
 10
-195.254247
 20
19.359798
  0
POINT
  8
3
 10
-194.764482
 20
18.895588
  0
POINT
  8
3
 10
-191.074168
 20
16.333533
  0
POINT
  8
3
 10
-190.636019
 20
16.016325
  0
POINT
  8
3
 10
-190.360360
 20
15.816755
  0
POINT
  8
3
 10
-187.224243
 20
14.127554
  0
POINT
  8
3
 10
-184.917198
 20
12.884914
  0
POINT
  8
3
 10
-179.000558
 20
10.539896
  0
POINT
  8
3
 10
-172.003584
 20
8.590692
  0
POINT
  8
3
 10
-162.841875
 20
6.961615
  0
POINT
  8
3
 10
-150.908375
 20
5.800054
  0
POINT
  8
3
 10
-133.352042
 20
5.056299
  0
POINT
  8
3
 10
-114.629526
 20
4.963376
  0
POINT
  8
3
 10
-95.907010
 20
5.056299
  0
POINT
  8
3
 10
-78.350677
 20
5.800054
  0
POINT
  8
3
 10
-66.417177
 20
6.961615
  0
POINT
  8
3
 10
-57.255468
 20
8.590692
  0
POINT
  8
3
 10
-50.258494
 20
10.539896
  0
POINT
  8
3
 10
-44.341854
 20
12.884914
  0
POINT
  8
3
 10
-42.034810
 20
14.127554
  0
POINT
  8
3
 10
-38.898692
 20
15.816755
  0
POINT
  8
3
 10
-38.623034
 20
16.016325
  0
POINT
  8
3
 10
-38.184884
 20
16.333533
  0
POINT
  8
3
 10
-34.494570
 20
18.895588
  0
POINT
  8
3
 10
-34.004805
 20
19.359798
  0
POINT
  8
3
 10
-30.029504
 20
23.127678
  0
POINT
  8
3
 10
-28.376111
 20
24.694801
  0
POINT
  8
3
 10
-28.071958
 20
24.983083
  0
POINT
  8
3
 10
-22.793501
 20
31.139945
  0
POINT
  8
3
 10
-17.231638
 20
39.277071
  0
POINT
  8
3
 10
130.841405
 20
-15.765681
  0
POINT
  8
3
 10
126.234607
 20
-30.881372
  0
POINT
  8
3
 10
125.484948
 20
-33.341132
  0
POINT
  8
3
 10
124.745453
 20
-35.767543
  0
POINT
  8
3
 10
120.476019
 20
-53.423292
  0
POINT
  8
3
 10
117.093419
 20
-71.348929
  0
POINT
  8
3
 10
115.888543
 20
-79.848269
  0
POINT
  8
3
 10
114.262126
 20
-91.321208
  0
POINT
  8
3
 10
112.309232
 20
-111.793456
  0
POINT
  8
3
 10
111.263226
 20
-133.221672
  0
POINT
  8
3
 10
111.235011
 20
-153.776206
  0
POINT
  8
3
 10
111.348313
 20
-156.110171
  0
POINT
  8
3
 10
111.490571
 20
-159.040644
  0
POINT
  8
3
 10
112.133394
 20
-172.282551
  0
POINT
  8
3
 10
113.643469
 20
-185.618194
  0
POINT
  8
3
 10
115.968004
 20
-197.842451
  0
POINT
  8
3
 10
118.943057
 20
-208.381872
  0
POINT
  8
3
 10
122.037125
 20
-216.426664
  0
POINT
  8
3
 10
125.841613
 20
-224.009442
  0
POINT
  8
3
 10
130.655744
 20
-231.350814
  0
POINT
  8
3
 10
136.048145
 20
-237.670981
  0
POINT
  8
3
 10
142.528414
 20
-243.433227
  0
POINT
  8
3
 10
149.045997
 20
-247.978738
  0
POINT
  8
3
 10
156.895620
 20
-252.477103
  0
POINT
  8
3
 10
159.841332
 20
-254.002790
  0
POINT
  8
3
 10
162.130839
 20
-281.536722
  0
POINT
  8
3
 10
159.891882
 20
-311.757056
  0
POINT
  8
3
 10
159.823676
 20
-312.677662
  0
POINT
  8
3
 10
157.533734
 20
-356.315859
  0
POINT
  8
3
 10
155.845976
 20
-406.266682
  0
POINT
  8
3
 10
155.520868
 20
-424.438909
  0
POINT
  8
3
 10
155.092149
 20
-448.402568
  0
POINT
  8
3
 10
154.949204
 20
-456.392596
  0
POINT
  8
3
 10
154.799075
 20
-510.489477
  0
POINT
  8
3
 10
155.143705
 20
-551.717788
  0
POINT
  8
3
 10
155.217526
 20
-560.549075
  0
POINT
  8
3
 10
155.707395
 20
-608.094799
  0
POINT
  8
3
 10
156.008353
 20
-661.609178
  0
POINT
  8
3
 10
-384.351201
 20
-448.402568
  0
TEXT
  8
3
 10
-384.351201
 20
-448.402568
 40
0.000000
 50
0.000000
  1
# 114
  0
POINT
  8
3
 10
-384.779920
 20
-424.438909
  0
TEXT
  8
3
 10
-384.779920
 20
-424.438909
 40
0.000000
 50
0.000000
  1
# 115
  0
POINT
  8
3
 10
-391.389891
 20
-281.536722
  0
TEXT
  8
3
 10
-391.389891
 20
-281.536722
 40
0.000000
 50
0.000000
  1
# 116
  0
POINT
  8
3
 10
-340.607365
 20
-156.110171
  0
TEXT
  8
3
 10
-340.607365
 20
-156.110171
 40
0.000000
 50
0.000000
  1
# 117
  0
POINT
  8
3
 10
-354.744000
 20
-33.341132
  0
TEXT
  8
3
 10
-354.744000
 20
-33.341132
 40
0.000000
 50
0.000000
  1
# 118
  0
POINT
  8
3
 10
-355.493660
 20
-30.881372
  0
TEXT
  8
3
 10
-355.493660
 20
-30.881372
 40
0.000000
 50
0.000000
  1
# 119
  0
POINT
  8
3
 10
-200.882942
 20
24.694801
  0
TEXT
  8
3
 10
-200.882942
 20
24.694801
 40
0.000000
 50
0.000000
  1
# 120
  0
POINT
  8
3
 10
-199.229549
 20
23.127678
  0
TEXT
  8
3
 10
-199.229549
 20
23.127678
 40
0.000000
 50
0.000000
  1
# 121
  0
POINT
  8
3
 10
-194.764482
 20
18.895588
  0
TEXT
  8
3
 10
-194.764482
 20
18.895588
 40
0.000000
 50
0.000000
  1
# 122
  0
POINT
  8
3
 10
-190.636019
 20
16.016325
  0
TEXT
  8
3
 10
-190.636019
 20
16.016325
 40
0.000000
 50
0.000000
  1
# 123
  0
POINT
  8
3
 10
-187.224243
 20
14.127554
  0
TEXT
  8
3
 10
-187.224243
 20
14.127554
 40
0.000000
 50
0.000000
  1
# 124
  0
POINT
  8
3
 10
-42.034810
 20
14.127554
  0
TEXT
  8
3
 10
-42.034810
 20
14.127554
 40
0.000000
 50
0.000000
  1
# 125
  0
POINT
  8
3
 10
-38.623034
 20
16.016325
  0
TEXT
  8
3
 10
-38.623034
 20
16.016325
 40
0.000000
 50
0.000000
  1
# 126
  0
POINT
  8
3
 10
-34.494570
 20
18.895588
  0
TEXT
  8
3
 10
-34.494570
 20
18.895588
 40
0.000000
 50
0.000000
  1
# 127
  0
POINT
  8
3
 10
-30.029504
 20
23.127678
  0
TEXT
  8
3
 10
-30.029504
 20
23.127678
 40
0.000000
 50
0.000000
  1
# 128
  0
POINT
  8
3
 10
-28.376111
 20
24.694801
  0
TEXT
  8
3
 10
-28.376111
 20
24.694801
 40
0.000000
 50
0.000000
  1
# 129
  0
POINT
  8
3
 10
126.234607
 20
-30.881372
  0
TEXT
  8
3
 10
126.234607
 20
-30.881372
 40
0.000000
 50
0.000000
  1
# 130
  0
POINT
  8
3
 10
125.484948
 20
-33.341132
  0
TEXT
  8
3
 10
125.484948
 20
-33.341132
 40
0.000000
 50
0.000000
  1
# 131
  0
POINT
  8
3
 10
111.348313
 20
-156.110171
  0
TEXT
  8
3
 10
111.348313
 20
-156.110171
 40
0.000000
 50
0.000000
  1
# 132
  0
POINT
  8
3
 10
162.130839
 20
-281.536722
  0
TEXT
  8
3
 10
162.130839
 20
-281.536722
 40
0.000000
 50
0.000000
  1
# 133
  0
POINT
  8
3
 10
155.520868
 20
-424.438909
  0
TEXT
  8
3
 10
155.520868
 20
-424.438909
 40
0.000000
 50
0.000000
  1
# 134
  0
POINT
  8
3
 10
155.092149
 20
-448.402568
  0
TEXT
  8
3
 10
155.092149
 20
-448.402568
 40
0.000000
 50
0.000000
  1
# 135
  0
POINT
  8
4
 10
-384.402757
 20
-551.717788
 30
0.600000
 50
359.52
  0
TEXT
  8
4
 10
-384.402757
 20
-551.717788
 40
0.000000
 50
0.000000
  1
# 136
  0
POINT
  8
4
 10
-389.150934
 20
-311.757056
 30
0.600000
 50
  4.24
  0
TEXT
  8
4
 10
-389.150934
 20
-311.757056
 40
0.000000
 50
0.000000
  1
# 137
  0
POINT
  8
4
 10
-340.749624
 20
-159.040644
 30
0.600000
 50
357.22
  0
TEXT
  8
4
 10
-340.749624
 20
-159.040644
 40
0.000000
 50
0.000000
  1
# 138
  0
POINT
  8
4
 10
-191.074168
 20
16.333533
 30
0.600000
 50
234.10
  0
TEXT
  8
4
 10
-191.074168
 20
16.333533
 40
0.000000
 50
0.000000
  1
# 139
  0
POINT
  8
4
 10
-114.629526
 20
4.963376
 30
0.600000
 50
270.00
  0
TEXT
  8
4
 10
-114.629526
 20
4.963376
 40
0.000000
 50
0.000000
  1
# 140
  0
POINT
  8
4
 10
-38.184884
 20
16.333533
 30
0.600000
 50
305.90
  0
TEXT
  8
4
 10
-38.184884
 20
16.333533
 40
0.000000
 50
0.000000
  1
# 141
  0
POINT
  8
4
 10
115.888543
 20
-79.848269
 30
0.600000
 50
171.93
  0
TEXT
  8
4
 10
115.888543
 20
-79.848269
 40
0.000000
 50
0.000000
  1
# 142
  0
POINT
  8
4
 10
111.490571
 20
-159.040644
 30
0.600000
 50
182.78
  0
TEXT
  8
4
 10
111.490571
 20
-159.040644
 40
0.000000
 50
0.000000
  1
# 143
  0
POINT
  8
4
 10
159.891882
 20
-311.757056
 30
0.600000
 50
175.76
  0
TEXT
  8
4
 10
159.891882
 20
-311.757056
 40
0.000000
 50
0.000000
  1
# 144
  0
POINT
  8
4
 10
155.143705
 20
-551.717788
 30
0.600000
 50
180.48
  0
TEXT
  8
4
 10
155.143705
 20
-551.717788
 40
0.000000
 50
0.000000
  1
# 145
  0
POLYLINE
  8
8
  66
1
  70
1
  0
VERTEX
  8
8
  10
-114.629526
  20
-703.780441
  0
VERTEX
  8
8
  10
-377.329226
  20
-703.781281
  0
VERTEX
  8
8
  10
-377.300548
  20
-673.900426
  0
VERTEX
  8
8
  10
-376.966737
  20
-608.162876
  0
VERTEX
  8
8
  10
-376.383629
  20
-551.784821
  0
VERTEX
  8
8
  10
-376.333379
  20
-546.816147
  0
VERTEX
  8
8
  10
-376.086602
  20
-516.143209
  0
VERTEX
  8
8
  10
-376.022762
  20
-485.470661
  0
VERTEX
  8
8
  10
-376.220391
  20
-455.229961
  0
VERTEX
  8
8
  10
-376.304114
  20
-448.258602
  0
VERTEX
  8
8
  10
-376.684276
  20
-424.989327
  0
VERTEX
  8
8
  10
-376.697981
  20
-424.294320
  0
VERTEX
  8
8
  10
-377.586694
  20
-388.942338
  0
VERTEX
  8
8
  10
-378.934114
  20
-352.908657
  0
VERTEX
  8
8
  10
-380.808765
  20
-316.902049
  0
VERTEX
  8
8
  10
-381.161823
  20
-311.165161
  0
VERTEX
  8
8
  10
-383.292830
  20
-280.936828
  0
VERTEX
  8
8
  10
-383.292873
  20
-280.936280
  0
VERTEX
  8
8
  10
-384.952374
  20
-260.803623
  0
VERTEX
  8
8
  10
-382.169279
  20
-259.422558
  0
VERTEX
  8
8
  10
-379.109808
  20
-257.769429
  0
VERTEX
  8
8
  10
-376.116622
  20
-256.029388
  0
VERTEX
  8
8
  10
-373.222067
  20
-254.223748
  0
VERTEX
  8
8
  10
-370.508843
  20
-252.407107
  0
VERTEX
  8
8
  10
-367.948577
  20
-250.563695
  0
VERTEX
  8
8
  10
-365.555075
  20
-248.703473
  0
VERTEX
  8
8
  10
-363.336379
  20
-246.832733
  0
VERTEX
  8
8
  10
-359.541958
  20
-243.217491
  0
VERTEX
  8
8
  10
-355.962739
  20
-239.243508
  0
VERTEX
  8
8
  10
-352.626943
  20
-234.942031
  0
VERTEX
  8
8
  10
-349.565315
  20
-230.352614
  0
VERTEX
  8
8
  10
-347.515551
  20
-226.839380
  0
VERTEX
  8
8
  10
-345.602283
  20
-223.158189
  0
VERTEX
  8
8
  10
-343.824555
  20
-219.307212
  0
VERTEX
  8
8
  10
-342.181178
  20
-215.283881
  0
VERTEX
  8
8
  10
-340.671419
  20
-211.086689
  0
VERTEX
  8
8
  10
-339.293052
  20
-206.709765
  0
VERTEX
  8
8
  10
-338.044377
  20
-202.147745
  0
VERTEX
  8
8
  10
-336.923131
  20
-197.392404
  0
VERTEX
  8
8
  10
-336.025157
  20
-192.957984
  0
VERTEX
  8
8
  10
-335.234718
  20
-188.386272
  0
VERTEX
  8
8
  10
-334.549038
  20
-183.661341
  0
VERTEX
  8
8
  10
-333.964749
  20
-178.760101
  0
VERTEX
  8
8
  10
-333.480294
  20
-173.676258
  0
VERTEX
  8
8
  10
-333.088758
  20
-168.345214
  0
VERTEX
  8
8
  10
-332.785834
  20
-162.710404
  0
VERTEX
  8
8
  10
-332.654428
  20
-159.433622
  0
VERTEX
  8
8
  10
-332.565261
  20
-156.656686
  0
VERTEX
  8
8
  10
-332.560808
  20
-156.500788
  0
VERTEX
  8
8
  10
-332.393895
  20
-146.776406
  0
VERTEX
  8
8
  10
-332.445990
  20
-136.832707
  0
VERTEX
  8
8
  10
-332.721538
  20
-126.827116
  0
VERTEX
  8
8
  10
-333.220494
  20
-116.761274
  0
VERTEX
  8
8
  10
-334.043533
  20
-105.448271
  0
VERTEX
  8
8
  10
-335.139887
  20
-94.203071
  0
VERTEX
  8
8
  10
-336.508806
  20
-83.033339
  0
VERTEX
  8
8
  10
-338.149397
  20
-71.946364
  0
VERTEX
  8
8
  10
-340.008499
  20
-61.252271
  0
VERTEX
  8
8
  10
-342.082243
  20
-50.957800
  0
VERTEX
  8
8
  10
-344.378289
  20
-41.025067
  0
VERTEX
  8
8
  10
-346.902678
  20
-31.428109
  0
VERTEX
  8
8
  10
-347.025920
  20
-30.988899
  0
VERTEX
  8
8
  10
-347.732102
  20
-28.515888
  0
VERTEX
  8
8
  10
-350.076788
  20
-20.711942
  0
VERTEX
  8
8
  10
-353.784342
  20
-9.254772
  0
VERTEX
  8
8
  10
-219.282720
  20
35.866971
  0
VERTEX
  8
8
  10
-217.382007
  20
32.845218
  0
VERTEX
  8
8
  10
-215.309623
  20
29.717783
  0
VERTEX
  8
8
  10
-213.355572
  20
26.987442
  0
VERTEX
  8
8
  10
-210.025197
  20
22.837042
  0
VERTEX
  8
8
  10
-206.406932
  20
18.866715
  0
VERTEX
  8
8
  10
-206.255233
  20
18.709853
  0
VERTEX
  8
8
  10
-204.804769
  20
17.245542
  0
VERTEX
  8
8
  10
-204.010530
  20
16.472306
  0
VERTEX
  8
8
  10
-201.836506
  20
14.466465
  0
VERTEX
  8
8
  10
-200.249041
  20
13.109104
  0
VERTEX
  8
8
  10
-199.695904
  20
12.658049
  0
VERTEX
  8
8
  10
-197.569419
  20
11.030943
  0
VERTEX
  8
8
  10
-195.800707
  20
9.804922
  0
VERTEX
  8
8
  10
-195.347759
  20
9.508155
  0
VERTEX
  8
8
  10
-194.333447
  20
8.867182
  0
VERTEX
  8
8
  10
-191.062535
  20
7.001504
  0
VERTEX
  8
8
  10
-190.857071
  20
6.893696
  0
VERTEX
  8
8
  10
-187.153736
  20
5.118160
  0
VERTEX
  8
8
  10
-183.241935
  20
3.549475
  0
VERTEX
  8
8
  10
-179.259944
  20
2.229260
  0
VERTEX
  8
8
  10
-175.034287
  20
1.085527
  0
VERTEX
  8
8
  10
-170.532319
  20
0.109219
  0
VERTEX
  8
8
  10
-165.689538
  20
-0.713760
  0
VERTEX
  8
8
  10
-157.868595
  20
-1.662056
  0
VERTEX
  8
8
  10
-148.719558
  20
-2.352902
  0
VERTEX
  8
8
  10
-140.418116
  20
-2.745576
  0
VERTEX
  8
8
  10
-131.681221
  20
-2.976381
  0
VERTEX
  8
8
  10
-123.471731
  20
-3.055673
  0
VERTEX
  8
8
  10
-114.629526
  20
-3.036722
  0
VERTEX
  8
8
  10
-114.629526
  20
-3.036722
  0
VERTEX
  8
8
  10
-95.741589
  20
-2.941991
  0
VERTEX
  8
8
  10
-77.813462
  20
-2.181888
  0
VERTEX
  8
8
  10
-65.343023
  20
-0.965945
  0
VERTEX
  8
8
  10
-55.478377
  20
0.790568
  0
VERTEX
  8
8
  10
-47.711009
  20
2.956340
  0
VERTEX
  8
8
  10
-40.981645
  20
5.624818
  0
VERTEX
  8
8
  10
-38.196517
  20
7.001504
  0
VERTEX
  8
8
  10
-34.661883
  20
9.030781
  0
VERTEX
  8
8
  10
-33.911293
  20
9.508155
  0
VERTEX
  8
8
  10
-33.458345
  20
9.804922
  0
VERTEX
  8
8
  10
-29.010011
  20
13.109104
  0
VERTEX
  8
8
  10
-28.895389
  20
13.203999
  0
VERTEX
  8
8
  10
-24.454284
  20
17.245542
  0
VERTEX
  8
8
  10
-22.852120
  20
18.866715
  0
VERTEX
  8
8
  10
-22.267479
  20
19.477811
  0
VERTEX
  8
8
  10
-16.443473
  20
26.274028
  0
VERTEX
  8
8
  10
-9.976332
  20
35.866971
  0
VERTEX
  8
8
  10
124.525290
  20
-9.254772
  0
VERTEX
  8
8
  10
118.473049
  20
-28.515888
  0
VERTEX
  8
8
  10
117.766868
  20
-30.988899
  0
VERTEX
  8
8
  10
117.025542
  20
-33.669215
  0
VERTEX
  8
8
  10
112.652678
  20
-51.751365
  0
VERTEX
  8
8
  10
109.200558
  20
-70.044035
  0
VERTEX
  8
8
  10
107.855816
  20
-78.709540
  0
VERTEX
  8
8
  10
106.317768
  20
-90.379307
  0
VERTEX
  8
8
  10
104.330171
  20
-111.215017
  0
VERTEX
  8
8
  10
103.265707
  20
-133.022439
  0
VERTEX
  8
8
  10
103.237034
  20
-153.956072
  0
VERTEX
  8
8
  10
103.301755
  20
-156.500788
  0
VERTEX
  8
8
  10
103.395376
  20
-159.433622
  0
VERTEX
  8
8
  10
104.159508
  20
-172.928420
  0
VERTEX
  8
8
  10
105.731346
  20
-186.800698
  0
VERTEX
  8
8
  10
108.179886
  20
-199.671445
  0
VERTEX
  8
8
  10
111.357730
  20
-210.924078
  0
VERTEX
  8
8
  10
114.711951
  20
-219.642537
  0
VERTEX
  8
8
  10
118.895803
  20
-227.978790
  0
VERTEX
  8
8
  10
124.254817
  20
-236.149579
  0
VERTEX
  8
8
  10
130.313965
  20
-243.249438
  0
VERTEX
  8
8
  10
137.635638
  20
-249.762583
  0
VERTEX
  8
8
  10
144.764630
  20
-254.736688
  0
VERTEX
  8
8
  10
153.234915
  20
-259.590417
  0
VERTEX
  8
8
  10
155.693321
  20
-260.803623
  0
VERTEX
  8
8
  10
154.033778
  20
-280.936828
  0
VERTEX
  8
8
  10
151.902771
  20
-311.165161
  0
VERTEX
  8
8
  10
151.839220
  20
-312.179203
  0
VERTEX
  8
8
  10
149.541155
  20
-355.971348
  0
VERTEX
  8
8
  10
147.848519
  20
-406.064989
  0
VERTEX
  8
8
  10
147.438929
  20
-424.294320
  0
VERTEX
  8
8
  10
147.045062
  20
-448.258602
  0
VERTEX
  8
8
  10
146.949661
  20
-456.307128
  0
VERTEX
  8
8
  10
146.799155
  20
-510.525243
  0
VERTEX
  8
8
  10
147.124577
  20
-551.784821
  0
VERTEX
  8
8
  10
147.217989
  20
-560.635174
  0
VERTEX
  8
8
  10
147.707684
  20
-608.162876
  0
VERTEX
  8
8
  10
148.008393
  20
-661.634650
  0
VERTEX
  8
8
  10
148.070173
  20
-703.781281
  0
VERTEX
  8
8
  10
-114.629526
  20
-703.780441
  0
SEQEND
  8
8
  0
POINT
  8
2
 10
-114.629526
 20
-703.780441
  0
TEXT
  8
2
 10
-114.629526
 20
-703.780441
 40
0.000000
 50
0.000000
  1
# 146
  0
POINT
  8
2
 10
-377.329226
 20
-703.781281
  0
TEXT
  8
2
 10
-377.329226
 20
-703.781281
 40
0.000000
 50
0.000000
  1
# 147
  0
POINT
  8
2
 10
-384.952374
 20
-260.803623
  0
TEXT
  8
2
 10
-384.952374
 20
-260.803623
 40
0.000000
 50
0.000000
  1
# 148
  0
POINT
  8
2
 10
-353.784342
 20
-9.254772
  0
TEXT
  8
2
 10
-353.784342
 20
-9.254772
 40
0.000000
 50
0.000000
  1
# 149
  0
POINT
  8
2
 10
-219.282720
 20
35.866971
  0
TEXT
  8
2
 10
-219.282720
 20
35.866971
 40
0.000000
 50
0.000000
  1
# 150
  0
POINT
  8
2
 10
-114.629526
 20
-3.036722
  0
TEXT
  8
2
 10
-114.629526
 20
-3.036722
 40
0.000000
 50
0.000000
  1
# 151
  0
POINT
  8
2
 10
-9.976332
 20
35.866971
  0
TEXT
  8
2
 10
-9.976332
 20
35.866971
 40
0.000000
 50
0.000000
  1
# 152
  0
POINT
  8
2
 10
124.525290
 20
-9.254772
  0
TEXT
  8
2
 10
124.525290
 20
-9.254772
 40
0.000000
 50
0.000000
  1
# 153
  0
POINT
  8
2
 10
155.693321
 20
-260.803623
  0
TEXT
  8
2
 10
155.693321
 20
-260.803623
 40
0.000000
 50
0.000000
  1
# 154
  0
POINT
  8
2
 10
148.070173
 20
-703.781281
  0
TEXT
  8
2
 10
148.070173
 20
-703.781281
 40
0.000000
 50
0.000000
  1
# 155
  0
POINT
  8
2
 10
-114.629526
 20
-703.780441
  0
TEXT
  8
2
 10
-114.629526
 20
-703.780441
 40
0.000000
 50
0.000000
  1
# 156
  0
POINT
  8
3
 10
-377.300548
 20
-673.900426
  0
POINT
  8
3
 10
-376.966737
 20
-608.162876
  0
POINT
  8
3
 10
-376.383629
 20
-551.784821
  0
POINT
  8
3
 10
-376.333379
 20
-546.816147
  0
POINT
  8
3
 10
-376.086602
 20
-516.143209
  0
POINT
  8
3
 10
-376.022762
 20
-485.470661
  0
POINT
  8
3
 10
-376.220391
 20
-455.229961
  0
POINT
  8
3
 10
-376.304114
 20
-448.258602
  0
POINT
  8
3
 10
-376.684276
 20
-424.989327
  0
POINT
  8
3
 10
-376.697981
 20
-424.294320
  0
POINT
  8
3
 10
-377.586694
 20
-388.942338
  0
POINT
  8
3
 10
-378.934114
 20
-352.908657
  0
POINT
  8
3
 10
-380.808765
 20
-316.902049
  0
POINT
  8
3
 10
-381.161823
 20
-311.165161
  0
POINT
  8
3
 10
-383.292830
 20
-280.936828
  0
POINT
  8
3
 10
-383.292873
 20
-280.936280
  0
POINT
  8
3
 10
-382.169279
 20
-259.422558
  0
POINT
  8
3
 10
-379.109808
 20
-257.769429
  0
POINT
  8
3
 10
-376.116622
 20
-256.029388
  0
POINT
  8
3
 10
-373.222067
 20
-254.223748
  0
POINT
  8
3
 10
-370.508843
 20
-252.407107
  0
POINT
  8
3
 10
-367.948577
 20
-250.563695
  0
POINT
  8
3
 10
-365.555075
 20
-248.703473
  0
POINT
  8
3
 10
-363.336379
 20
-246.832733
  0
POINT
  8
3
 10
-359.541958
 20
-243.217491
  0
POINT
  8
3
 10
-355.962739
 20
-239.243508
  0
POINT
  8
3
 10
-352.626943
 20
-234.942031
  0
POINT
  8
3
 10
-349.565315
 20
-230.352614
  0
POINT
  8
3
 10
-347.515551
 20
-226.839380
  0
POINT
  8
3
 10
-345.602283
 20
-223.158189
  0
POINT
  8
3
 10
-343.824555
 20
-219.307212
  0
POINT
  8
3
 10
-342.181178
 20
-215.283881
  0
POINT
  8
3
 10
-340.671419
 20
-211.086689
  0
POINT
  8
3
 10
-339.293052
 20
-206.709765
  0
POINT
  8
3
 10
-338.044377
 20
-202.147745
  0
POINT
  8
3
 10
-336.923131
 20
-197.392404
  0
POINT
  8
3
 10
-336.025157
 20
-192.957984
  0
POINT
  8
3
 10
-335.234718
 20
-188.386272
  0
POINT
  8
3
 10
-334.549038
 20
-183.661341
  0
POINT
  8
3
 10
-333.964749
 20
-178.760101
  0
POINT
  8
3
 10
-333.480294
 20
-173.676258
  0
POINT
  8
3
 10
-333.088758
 20
-168.345214
  0
POINT
  8
3
 10
-332.785834
 20
-162.710404
  0
POINT
  8
3
 10
-332.654428
 20
-159.433622
  0
POINT
  8
3
 10
-332.565261
 20
-156.656686
  0
POINT
  8
3
 10
-332.560808
 20
-156.500788
  0
POINT
  8
3
 10
-332.393895
 20
-146.776406
  0
POINT
  8
3
 10
-332.445990
 20
-136.832707
  0
POINT
  8
3
 10
-332.721538
 20
-126.827116
  0
POINT
  8
3
 10
-333.220494
 20
-116.761274
  0
POINT
  8
3
 10
-334.043533
 20
-105.448271
  0
POINT
  8
3
 10
-335.139887
 20
-94.203071
  0
POINT
  8
3
 10
-336.508806
 20
-83.033339
  0
POINT
  8
3
 10
-338.149397
 20
-71.946364
  0
POINT
  8
3
 10
-340.008499
 20
-61.252271
  0
POINT
  8
3
 10
-342.082243
 20
-50.957800
  0
POINT
  8
3
 10
-344.378289
 20
-41.025067
  0
POINT
  8
3
 10
-346.902678
 20
-31.428109
  0
POINT
  8
3
 10
-347.025920
 20
-30.988899
  0
POINT
  8
3
 10
-347.732102
 20
-28.515888
  0
POINT
  8
3
 10
-350.076788
 20
-20.711942
  0
POINT
  8
3
 10
-217.382007
 20
32.845218
  0
POINT
  8
3
 10
-215.309623
 20
29.717783
  0
POINT
  8
3
 10
-213.355572
 20
26.987442
  0
POINT
  8
3
 10
-210.025197
 20
22.837042
  0
POINT
  8
3
 10
-206.406932
 20
18.866715
  0
POINT
  8
3
 10
-206.255233
 20
18.709853
  0
POINT
  8
3
 10
-204.804769
 20
17.245542
  0
POINT
  8
3
 10
-204.010530
 20
16.472306
  0
POINT
  8
3
 10
-201.836506
 20
14.466465
  0
POINT
  8
3
 10
-200.249041
 20
13.109104
  0
POINT
  8
3
 10
-199.695904
 20
12.658049
  0
POINT
  8
3
 10
-197.569419
 20
11.030943
  0
POINT
  8
3
 10
-195.800707
 20
9.804922
  0
POINT
  8
3
 10
-195.347759
 20
9.508155
  0
POINT
  8
3
 10
-194.333447
 20
8.867182
  0
POINT
  8
3
 10
-191.062535
 20
7.001504
  0
POINT
  8
3
 10
-190.857071
 20
6.893696
  0
POINT
  8
3
 10
-187.153736
 20
5.118160
  0
POINT
  8
3
 10
-183.241935
 20
3.549475
  0
POINT
  8
3
 10
-179.259944
 20
2.229260
  0
POINT
  8
3
 10
-175.034287
 20
1.085527
  0
POINT
  8
3
 10
-170.532319
 20
0.109219
  0
POINT
  8
3
 10
-165.689538
 20
-0.713760
  0
POINT
  8
3
 10
-157.868595
 20
-1.662056
  0
POINT
  8
3
 10
-148.719558
 20
-2.352902
  0
POINT
  8
3
 10
-140.418116
 20
-2.745576
  0
POINT
  8
3
 10
-131.681221
 20
-2.976381
  0
POINT
  8
3
 10
-123.471731
 20
-3.055673
  0
POINT
  8
3
 10
-114.629526
 20
-3.036722
  0
POINT
  8
3
 10
-95.741589
 20
-2.941991
  0
POINT
  8
3
 10
-77.813462
 20
-2.181888
  0
POINT
  8
3
 10
-65.343023
 20
-0.965945
  0
POINT
  8
3
 10
-55.478377
 20
0.790568
  0
POINT
  8
3
 10
-47.711009
 20
2.956340
  0
POINT
  8
3
 10
-40.981645
 20
5.624818
  0
POINT
  8
3
 10
-38.196517
 20
7.001504
  0
POINT
  8
3
 10
-34.661883
 20
9.030781
  0
POINT
  8
3
 10
-33.911293
 20
9.508155
  0
POINT
  8
3
 10
-33.458345
 20
9.804922
  0
POINT
  8
3
 10
-29.010011
 20
13.109104
  0
POINT
  8
3
 10
-28.895389
 20
13.203999
  0
POINT
  8
3
 10
-24.454284
 20
17.245542
  0
POINT
  8
3
 10
-22.852120
 20
18.866715
  0
POINT
  8
3
 10
-22.267479
 20
19.477811
  0
POINT
  8
3
 10
-16.443473
 20
26.274028
  0
POINT
  8
3
 10
118.473049
 20
-28.515888
  0
POINT
  8
3
 10
117.766868
 20
-30.988899
  0
POINT
  8
3
 10
117.025542
 20
-33.669215
  0
POINT
  8
3
 10
112.652678
 20
-51.751365
  0
POINT
  8
3
 10
109.200558
 20
-70.044035
  0
POINT
  8
3
 10
107.855816
 20
-78.709540
  0
POINT
  8
3
 10
106.317768
 20
-90.379307
  0
POINT
  8
3
 10
104.330171
 20
-111.215017
  0
POINT
  8
3
 10
103.265707
 20
-133.022439
  0
POINT
  8
3
 10
103.237034
 20
-153.956072
  0
POINT
  8
3
 10
103.301755
 20
-156.500788
  0
POINT
  8
3
 10
103.395376
 20
-159.433622
  0
POINT
  8
3
 10
104.159508
 20
-172.928420
  0
POINT
  8
3
 10
105.731346
 20
-186.800698
  0
POINT
  8
3
 10
108.179886
 20
-199.671445
  0
POINT
  8
3
 10
111.357730
 20
-210.924078
  0
POINT
  8
3
 10
114.711951
 20
-219.642537
  0
POINT
  8
3
 10
118.895803
 20
-227.978790
  0
POINT
  8
3
 10
124.254817
 20
-236.149579
  0
POINT
  8
3
 10
130.313965
 20
-243.249438
  0
POINT
  8
3
 10
137.635638
 20
-249.762583
  0
POINT
  8
3
 10
144.764630
 20
-254.736688
  0
POINT
  8
3
 10
153.234915
 20
-259.590417
  0
POINT
  8
3
 10
154.033778
 20
-280.936828
  0
POINT
  8
3
 10
151.902771
 20
-311.165161
  0
POINT
  8
3
 10
151.839220
 20
-312.179203
  0
POINT
  8
3
 10
149.541155
 20
-355.971348
  0
POINT
  8
3
 10
147.848519
 20
-406.064989
  0
POINT
  8
3
 10
147.438929
 20
-424.294320
  0
POINT
  8
3
 10
147.045062
 20
-448.258602
  0
POINT
  8
3
 10
146.949661
 20
-456.307128
  0
POINT
  8
3
 10
146.799155
 20
-510.525243
  0
POINT
  8
3
 10
147.124577
 20
-551.784821
  0
POINT
  8
3
 10
147.217989
 20
-560.635174
  0
POINT
  8
3
 10
147.707684
 20
-608.162876
  0
POINT
  8
3
 10
148.008393
 20
-661.634650
  0
POINT
  8
3
 10
-376.304114
 20
-448.258602
  0
TEXT
  8
3
 10
-376.304114
 20
-448.258602
 40
0.000000
 50
0.000000
  1
# 157
  0
POINT
  8
3
 10
-376.697981
 20
-424.294320
  0
TEXT
  8
3
 10
-376.697981
 20
-424.294320
 40
0.000000
 50
0.000000
  1
# 158
  0
POINT
  8
3
 10
-383.292830
 20
-280.936828
  0
TEXT
  8
3
 10
-383.292830
 20
-280.936828
 40
0.000000
 50
0.000000
  1
# 159
  0
POINT
  8
3
 10
-332.560808
 20
-156.500788
  0
TEXT
  8
3
 10
-332.560808
 20
-156.500788
 40
0.000000
 50
0.000000
  1
# 160
  0
POINT
  8
3
 10
-347.025920
 20
-30.988899
  0
TEXT
  8
3
 10
-347.025920
 20
-30.988899
 40
0.000000
 50
0.000000
  1
# 161
  0
POINT
  8
3
 10
-347.732102
 20
-28.515888
  0
TEXT
  8
3
 10
-347.732102
 20
-28.515888
 40
0.000000
 50
0.000000
  1
# 162
  0
POINT
  8
3
 10
-206.406932
 20
18.866715
  0
TEXT
  8
3
 10
-206.406932
 20
18.866715
 40
0.000000
 50
0.000000
  1
# 163
  0
POINT
  8
3
 10
-204.804769
 20
17.245542
  0
TEXT
  8
3
 10
-204.804769
 20
17.245542
 40
0.000000
 50
0.000000
  1
# 164
  0
POINT
  8
3
 10
-200.249041
 20
13.109104
  0
TEXT
  8
3
 10
-200.249041
 20
13.109104
 40
0.000000
 50
0.000000
  1
# 165
  0
POINT
  8
3
 10
-195.347759
 20
9.508155
  0
TEXT
  8
3
 10
-195.347759
 20
9.508155
 40
0.000000
 50
0.000000
  1
# 166
  0
POINT
  8
3
 10
-191.062535
 20
7.001504
  0
TEXT
  8
3
 10
-191.062535
 20
7.001504
 40
0.000000
 50
0.000000
  1
# 167
  0
POINT
  8
3
 10
-38.196517
 20
7.001504
  0
TEXT
  8
3
 10
-38.196517
 20
7.001504
 40
0.000000
 50
0.000000
  1
# 168
  0
POINT
  8
3
 10
-33.911293
 20
9.508155
  0
TEXT
  8
3
 10
-33.911293
 20
9.508155
 40
0.000000
 50
0.000000
  1
# 169
  0
POINT
  8
3
 10
-29.010011
 20
13.109104
  0
TEXT
  8
3
 10
-29.010011
 20
13.109104
 40
0.000000
 50
0.000000
  1
# 170
  0
POINT
  8
3
 10
-24.454284
 20
17.245542
  0
TEXT
  8
3
 10
-24.454284
 20
17.245542
 40
0.000000
 50
0.000000
  1
# 171
  0
POINT
  8
3
 10
-22.852120
 20
18.866715
  0
TEXT
  8
3
 10
-22.852120
 20
18.866715
 40
0.000000
 50
0.000000
  1
# 172
  0
POINT
  8
3
 10
118.473049
 20
-28.515888
  0
TEXT
  8
3
 10
118.473049
 20
-28.515888
 40
0.000000
 50
0.000000
  1
# 173
  0
POINT
  8
3
 10
117.766868
 20
-30.988899
  0
TEXT
  8
3
 10
117.766868
 20
-30.988899
 40
0.000000
 50
0.000000
  1
# 174
  0
POINT
  8
3
 10
103.301755
 20
-156.500788
  0
TEXT
  8
3
 10
103.301755
 20
-156.500788
 40
0.000000
 50
0.000000
  1
# 175
  0
POINT
  8
3
 10
154.033778
 20
-280.936828
  0
TEXT
  8
3
 10
154.033778
 20
-280.936828
 40
0.000000
 50
0.000000
  1
# 176
  0
POINT
  8
3
 10
147.438929
 20
-424.294320
  0
TEXT
  8
3
 10
147.438929
 20
-424.294320
 40
0.000000
 50
0.000000
  1
# 177
  0
POINT
  8
3
 10
147.045062
 20
-448.258602
  0
TEXT
  8
3
 10
147.045062
 20
-448.258602
 40
0.000000
 50
0.000000
  1
# 178
  0
POINT
  8
4
 10
-376.383629
 20
-551.784821
 30
0.600000
 50
359.41
  0
TEXT
  8
4
 10
-376.383629
 20
-551.784821
 40
0.000000
 50
0.000000
  1
# 179
  0
POINT
  8
4
 10
-381.161823
 20
-311.165161
 30
0.600000
 50
  3.60
  0
TEXT
  8
4
 10
-381.161823
 20
-311.165161
 40
0.000000
 50
0.000000
  1
# 180
  0
POINT
  8
4
 10
-332.654428
 20
-159.433622
 30
0.600000
 50
357.96
  0
TEXT
  8
4
 10
-332.654428
 20
-159.433622
 40
0.000000
 50
0.000000
  1
# 181
  0
POINT
  8
4
 10
-195.800707
 20
9.804922
 30
0.600000
 50
236.47
  0
TEXT
  8
4
 10
-195.800707
 20
9.804922
 40
0.000000
 50
0.000000
  1
# 182
  0
POINT
  8
4
 10
-114.629526
 20
-3.036722
 30
0.600000
 50
270.00
  0
TEXT
  8
4
 10
-114.629526
 20
-3.036722
 40
0.000000
 50
0.000000
  1
# 183
  0
POINT
  8
4
 10
-33.458345
 20
9.804922
 30
0.600000
 50
303.53
  0
TEXT
  8
4
 10
-33.458345
 20
9.804922
 40
0.000000
 50
0.000000
  1
# 184
  0
POINT
  8
4
 10
107.855816
 20
-78.709540
 30
0.600000
 50
171.74
  0
TEXT
  8
4
 10
107.855816
 20
-78.709540
 40
0.000000
 50
0.000000
  1
# 185
  0
POINT
  8
4
 10
103.395376
 20
-159.433622
 30
0.600000
 50
182.04
  0
TEXT
  8
4
 10
103.395376
 20
-159.433622
 40
0.000000
 50
0.000000
  1
# 186
  0
POINT
  8
4
 10
151.902771
 20
-311.165161
 30
0.600000
 50
176.40
  0
TEXT
  8
4
 10
151.902771
 20
-311.165161
 40
0.000000
 50
0.000000
  1
# 187
  0
POINT
  8
4
 10
147.124577
 20
-551.784821
 30
0.600000
 50
180.59
  0
TEXT
  8
4
 10
147.124577
 20
-551.784821
 40
0.000000
 50
0.000000
  1
# 188
  0
POLYLINE
  8
11
  6
2
  66
1
  70
0
  0
VERTEX
  8
1
  10
-114.629526
  20
-3.036722
  0
VERTEX
  8
1
  10
-114.629530
  20
-86.691451
  0
VERTEX
  8
1
  10
-114.629532
  20
-156.498704
  0
VERTEX
  8
1
  10
-114.629533
  20
-161.729108
  0
VERTEX
  8
1
  10
-114.629534
  20
-220.003470
  0
VERTEX
  8
1
  10
-114.629535
  20
-282.631349
  0
VERTEX
  8
1
  10
-114.629536
  20
-347.687696
  0
VERTEX
  8
1
  10
-114.629535
  20
-430.190880
  0
VERTEX
  8
1
  10
-114.629535
  20
-448.258342
  0
VERTEX
  8
1
  10
-114.629534
  20
-493.325869
  0
VERTEX
  8
1
  10
-114.629532
  20
-552.072742
  0
VERTEX
  8
1
  10
-114.629531
  20
-604.237441
  0
VERTEX
  8
1
  10
-114.629528
  20
-665.343410
  0
VERTEX
  8
1
  10
-114.629526
  20
-703.780441
  0
SEQEND
  8
11
  0
POINT
  8
2
 10
-114.629526
 20
-3.036722
  0
TEXT
  8
2
 10
-114.629526
 20
-3.036722
 40
0.000000
 50
0.000000
  1
# 189
  0
POINT
  8
2
 10
-114.629526
 20
-703.780441
  0
TEXT
  8
2
 10
-114.629526
 20
-703.780441
 40
0.000000
 50
0.000000
  1
# 190
  0
POINT
  8
3
 10
-114.629530
 20
-86.691451
  0
POINT
  8
3
 10
-114.629532
 20
-156.498704
  0
POINT
  8
3
 10
-114.629533
 20
-161.729108
  0
POINT
  8
3
 10
-114.629534
 20
-220.003470
  0
POINT
  8
3
 10
-114.629535
 20
-282.631349
  0
POINT
  8
3
 10
-114.629536
 20
-347.687696
  0
POINT
  8
3
 10
-114.629535
 20
-430.190880
  0
POINT
  8
3
 10
-114.629535
 20
-448.258342
  0
POINT
  8
3
 10
-114.629534
 20
-493.325869
  0
POINT
  8
3
 10
-114.629532
 20
-552.072742
  0
POINT
  8
3
 10
-114.629531
 20
-604.237441
  0
POINT
  8
3
 10
-114.629528
 20
-665.343410
  0
POINT
  8
3
 10
-114.629532
 20
-156.498704
  0
TEXT
  8
3
 10
-114.629532
 20
-156.498704
 40
0.000000
 50
0.000000
  1
# 191
  0
POINT
  8
3
 10
-114.629535
 20
-448.258342
  0
TEXT
  8
3
 10
-114.629535
 20
-448.258342
 40
0.000000
 50
0.000000
  1
# 192
  0
POLYLINE
  8
11
  66
1
  70
0
  0
VERTEX
  8
1
  10
103.354559
  20
-156.499491
  0
VERTEX
  8
1
  10
-114.628048
  20
-156.498852
  0
SEQEND
  8
11
  0
POINT
  8
2
 10
103.354559
 20
-156.499491
  0
TEXT
  8
2
 10
103.354559
 20
-156.499491
 40
0.000000
 50
0.000000
  1
# 193
  0
POINT
  8
2
 10
-114.628048
 20
-156.498852
  0
TEXT
  8
2
 10
-114.628048
 20
-156.498852
 40
0.000000
 50
0.000000
  1
# 194
  0
POLYLINE
  8
11
  66
1
  70
0
  0
VERTEX
  8
1
  10
117.832680
  20
-31.007333
  0
VERTEX
  8
1
  10
-114.629602
  20
-31.006699
  0
SEQEND
  8
11
  0
POINT
  8
2
 10
117.832680
 20
-31.007333
  0
TEXT
  8
2
 10
117.832680
 20
-31.007333
 40
0.000000
 50
0.000000
  1
# 195
  0
POINT
  8
2
 10
-114.629602
 20
-31.006699
  0
TEXT
  8
2
 10
-114.629602
 20
-31.006699
 40
0.000000
 50
0.000000
  1
# 196
  0
POLYLINE
  8
11
  66
1
  70
0
  0
VERTEX
  8
1
  10
-28.991160
  20
13.134844
  0
VERTEX
  8
1
  10
-25.246019
  20
8.351504
  0
SEQEND
  8
11
  0
POINT
  8
2
 10
-28.991160
 20
13.134844
  0
TEXT
  8
2
 10
-28.991160
 20
13.134844
 40
0.000000
 50
0.000000
  1
# 197
  0
POINT
  8
2
 10
-25.246019
 20
8.351504
  0
TEXT
  8
2
 10
-25.246019
 20
8.351504
 40
0.000000
 50
0.000000
  1
# 198
  0
POLYLINE
  8
11
  66
1
  70
0
  0
VERTEX
  8
1
  10
154.033833
  20
-280.936737
  0
VERTEX
  8
1
  10
-114.629650
  20
-280.936127
  0
SEQEND
  8
11
  0
POINT
  8
2
 10
154.033833
 20
-280.936737
  0
TEXT
  8
2
 10
154.033833
 20
-280.936737
 40
0.000000
 50
0.000000
  1
# 199
  0
POINT
  8
2
 10
-114.629650
 20
-280.936127
  0
TEXT
  8
2
 10
-114.629650
 20
-280.936127
 40
0.000000
 50
0.000000
  1
# 200
  0
POLYLINE
  8
11
  66
1
  70
0
  0
VERTEX
  8
1
  10
-114.629517
  20
-448.258286
  0
VERTEX
  8
1
  10
147.082510
  20
-448.258972
  0
SEQEND
  8
11
  0
POINT
  8
2
 10
-114.629517
 20
-448.258286
  0
TEXT
  8
2
 10
-114.629517
 20
-448.258286
 40
0.000000
 50
0.000000
  1
# 201
  0
POINT
  8
2
 10
147.082510
 20
-448.258972
  0
TEXT
  8
2
 10
147.082510
 20
-448.258972
 40
0.000000
 50
0.000000
  1
# 202
  0
POLYLINE
  8
11
  6
2
  66
1
  70
0
  0
VERTEX
  8
1
  10
-25.286033
  20
8.403018
  0
VERTEX
  8
1
  10
-31.912292
  20
3.677068
  0
VERTEX
  8
1
  10
-38.196306
  20
0.303195
  0
VERTEX
  8
1
  10
-45.325094
  20
-2.569918
  0
VERTEX
  8
1
  10
-53.466591
  20
-4.902236
  0
VERTEX
  8
1
  10
-63.241345
  20
-6.728918
  0
VERTEX
  8
1
  10
-75.467848
  20
-8.043092
  0
VERTEX
  8
1
  10
-92.121306
  20
-8.862869
  0
VERTEX
  8
1
  10
-114.629526
  20
-9.036822
  0
SEQEND
  8
11
  0
POINT
  8
2
 10
-25.286033
 20
8.403018
  0
TEXT
  8
2
 10
-25.286033
 20
8.403018
 40
0.000000
 50
0.000000
  1
# 203
  0
POINT
  8
2
 10
-114.629526
 20
-9.036822
  0
TEXT
  8
2
 10
-114.629526
 20
-9.036822
 40
0.000000
 50
0.000000
  1
# 204
  0
POINT
  8
3
 10
-31.912292
 20
3.677068
  0
POINT
  8
3
 10
-38.196306
 20
0.303195
  0
POINT
  8
3
 10
-45.325094
 20
-2.569918
  0
POINT
  8
3
 10
-53.466591
 20
-4.902236
  0
POINT
  8
3
 10
-63.241345
 20
-6.728918
  0
POINT
  8
3
 10
-75.467848
 20
-8.043092
  0
POINT
  8
3
 10
-92.121306
 20
-8.862869
  0
POLYLINE
  8
11
  6
2
  66
1
  70
0
  0
VERTEX
  8
1
  10
-114.629536
  20
-688.780441
  0
VERTEX
  8
1
  10
148.036900
  20
-688.781281
  0
SEQEND
  8
11
  0
POINT
  8
2
 10
-114.629536
 20
-688.780441
  0
TEXT
  8
2
 10
-114.629536
 20
-688.780441
 40
0.000000
 50
0.000000
  1
# 205
  0
POINT
  8
2
 10
148.036900
 20
-688.781281
  0
TEXT
  8
2
 10
148.036900
 20
-688.781281
 40
0.000000
 50
0.000000
  1
# 206
  0
POLYLINE
  8
11
  6
2
  66
1
  70
0
  0
VERTEX
  8
1
  10
-114.629536
  20
-683.780441
  0
VERTEX
  8
1
  10
148.025808
  20
-683.781281
  0
SEQEND
  8
11
  0
POINT
  8
2
 10
-114.629536
 20
-683.780441
  0
TEXT
  8
2
 10
-114.629536
 20
-683.780441
 40
0.000000
 50
0.000000
  1
# 207
  0
POINT
  8
2
 10
148.025808
 20
-683.781281
  0
TEXT
  8
2
 10
148.025808
 20
-683.781281
 40
0.000000
 50
0.000000
  1
# 208
  0
POLYLINE
  8
11
  6
2
  66
1
  70
0
  0
VERTEX
  8
1
  10
-11.636953
  20
33.259752
  0
VERTEX
  8
1
  10
123.583736
  20
-12.103221
  0
SEQEND
  8
11
  0
POINT
  8
2
 10
-11.636953
 20
33.259752
  0
TEXT
  8
2
 10
-11.636953
 20
33.259752
 40
0.000000
 50
0.000000
  1
# 209
  0
POINT
  8
2
 10
123.583736
 20
-12.103221
  0
TEXT
  8
2
 10
123.583736
 20
-12.103221
 40
0.000000
 50
0.000000
  1
# 210
  0
POLYLINE
  8
11
  66
1
  70
0
  0
VERTEX
  8
1
  10
-22.870584
  20
18.884104
  0
VERTEX
  8
1
  10
118.099928
  20
-28.407786
  0
SEQEND
  8
11
  0
POINT
  8
2
 10
-22.870584
 20
18.884104
  0
TEXT
  8
2
 10
-22.870584
 20
18.884104
 40
0.000000
 50
0.000000
  1
# 211
  0
POINT
  8
2
 10
118.099928
 20
-28.407786
  0
TEXT
  8
2
 10
118.099928
 20
-28.407786
 40
0.000000
 50
0.000000
  1
# 212
  0
POLYLINE
  8
11
  66
1
  70
0
  0
VERTEX
  8
1
  10
-332.613611
  20
-156.499491
  0
VERTEX
  8
1
  10
-114.631004
  20
-156.498852
  0
SEQEND
  8
11
  0
POINT
  8
2
 10
-332.613611
 20
-156.499491
  0
TEXT
  8
2
 10
-332.613611
 20
-156.499491
 40
0.000000
 50
0.000000
  1
# 213
  0
POINT
  8
2
 10
-114.631004
 20
-156.498852
  0
TEXT
  8
2
 10
-114.631004
 20
-156.498852
 40
0.000000
 50
0.000000
  1
# 214
  0
POLYLINE
  8
11
  66
1
  70
0
  0
VERTEX
  8
1
  10
-347.091732
  20
-31.007333
  0
VERTEX
  8
1
  10
-114.629450
  20
-31.006699
  0
SEQEND
  8
11
  0
POINT
  8
2
 10
-347.091732
 20
-31.007333
  0
TEXT
  8
2
 10
-347.091732
 20
-31.007333
 40
0.000000
 50
0.000000
  1
# 215
  0
POINT
  8
2
 10
-114.629450
 20
-31.006699
  0
TEXT
  8
2
 10
-114.629450
 20
-31.006699
 40
0.000000
 50
0.000000
  1
# 216
  0
POLYLINE
  8
11
  66
1
  70
0
  0
VERTEX
  8
1
  10
-200.267892
  20
13.134844
  0
VERTEX
  8
1
  10
-204.013033
  20
8.351504
  0
SEQEND
  8
11
  0
POINT
  8
2
 10
-200.267892
 20
13.134844
  0
TEXT
  8
2
 10
-200.267892
 20
13.134844
 40
0.000000
 50
0.000000
  1
# 217
  0
POINT
  8
2
 10
-204.013033
 20
8.351504
  0
TEXT
  8
2
 10
-204.013033
 20
8.351504
 40
0.000000
 50
0.000000
  1
# 218
  0
POLYLINE
  8
11
  66
1
  70
0
  0
VERTEX
  8
1
  10
-383.292885
  20
-280.936737
  0
VERTEX
  8
1
  10
-114.629402
  20
-280.936127
  0
SEQEND
  8
11
  0
POINT
  8
2
 10
-383.292885
 20
-280.936737
  0
TEXT
  8
2
 10
-383.292885
 20
-280.936737
 40
0.000000
 50
0.000000
  1
# 219
  0
POINT
  8
2
 10
-114.629402
 20
-280.936127
  0
TEXT
  8
2
 10
-114.629402
 20
-280.936127
 40
0.000000
 50
0.000000
  1
# 220
  0
POLYLINE
  8
11
  66
1
  70
0
  0
VERTEX
  8
1
  10
-114.629536
  20
-448.258286
  0
VERTEX
  8
1
  10
-376.341562
  20
-448.258972
  0
SEQEND
  8
11
  0
POINT
  8
2
 10
-114.629536
 20
-448.258286
  0
TEXT
  8
2
 10
-114.629536
 20
-448.258286
 40
0.000000
 50
0.000000
  1
# 221
  0
POINT
  8
2
 10
-376.341562
 20
-448.258972
  0
TEXT
  8
2
 10
-376.341562
 20
-448.258972
 40
0.000000
 50
0.000000
  1
# 222
  0
POLYLINE
  8
11
  6
2
  66
1
  70
0
  0
VERTEX
  8
1
  10
-203.973019
  20
8.403018
  0
VERTEX
  8
1
  10
-201.091520
  20
6.173496
  0
VERTEX
  8
1
  10
-198.408651
  20
4.342663
  0
VERTEX
  8
1
  10
-195.589249
  20
2.639810
  0
VERTEX
  8
1
  10
-191.629074
  20
0.571482
  0
VERTEX
  8
1
  10
-187.457962
  20
-1.260656
  0
VERTEX
  8
1
  10
-183.170510
  20
-2.827498
  0
VERTEX
  8
1
  10
-177.617993
  20
-4.453221
  0
VERTEX
  8
1
  10
-174.067983
  20
-5.291894
  0
VERTEX
  8
1
  10
-170.347566
  20
-6.028517
  0
VERTEX
  8
1
  10
-165.988568
  20
-6.733127
  0
VERTEX
  8
1
  10
-161.277078
  20
-7.337595
  0
VERTEX
  8
1
  10
-153.974727
  20
-8.028958
  0
VERTEX
  8
1
  10
-145.799787
  20
-8.535633
  0
VERTEX
  8
1
  10
-138.590215
  20
-8.819957
  0
VERTEX
  8
1
  10
-130.798328
  20
-9.001755
  0
VERTEX
  8
1
  10
-122.501690
  20
-9.076847
  0
VERTEX
  8
1
  10
-114.629526
  20
-9.036822
  0
SEQEND
  8
11
  0
POINT
  8
2
 10
-203.973019
 20
8.403018
  0
TEXT
  8
2
 10
-203.973019
 20
8.403018
 40
0.000000
 50
0.000000
  1
# 223
  0
POINT
  8
2
 10
-114.629526
 20
-9.036822
  0
TEXT
  8
2
 10
-114.629526
 20
-9.036822
 40
0.000000
 50
0.000000
  1
# 224
  0
POINT
  8
3
 10
-201.091520
 20
6.173496
  0
POINT
  8
3
 10
-198.408651
 20
4.342663
  0
POINT
  8
3
 10
-195.589249
 20
2.639810
  0
POINT
  8
3
 10
-191.629074
 20
0.571482
  0
POINT
  8
3
 10
-187.457962
 20
-1.260656
  0
POINT
  8
3
 10
-183.170510
 20
-2.827498
  0
POINT
  8
3
 10
-177.617993
 20
-4.453221
  0
POINT
  8
3
 10
-174.067983
 20
-5.291894
  0
POINT
  8
3
 10
-170.347566
 20
-6.028517
  0
POINT
  8
3
 10
-165.988568
 20
-6.733127
  0
POINT
  8
3
 10
-161.277078
 20
-7.337595
  0
POINT
  8
3
 10
-153.974727
 20
-8.028958
  0
POINT
  8
3
 10
-145.799787
 20
-8.535633
  0
POINT
  8
3
 10
-138.590215
 20
-8.819957
  0
POINT
  8
3
 10
-130.798328
 20
-9.001755
  0
POINT
  8
3
 10
-122.501690
 20
-9.076847
  0
POLYLINE
  8
11
  6
2
  66
1
  70
0
  0
VERTEX
  8
1
  10
-114.629517
  20
-688.780441
  0
VERTEX
  8
1
  10
-377.295952
  20
-688.781281
  0
SEQEND
  8
11
  0
POINT
  8
2
 10
-114.629517
 20
-688.780441
  0
TEXT
  8
2
 10
-114.629517
 20
-688.780441
 40
0.000000
 50
0.000000
  1
# 225
  0
POINT
  8
2
 10
-377.295952
 20
-688.781281
  0
TEXT
  8
2
 10
-377.295952
 20
-688.781281
 40
0.000000
 50
0.000000
  1
# 226
  0
POLYLINE
  8
11
  6
2
  66
1
  70
0
  0
VERTEX
  8
1
  10
-114.629517
  20
-683.780441
  0
VERTEX
  8
1
  10
-377.284861
  20
-683.781281
  0
SEQEND
  8
11
  0
POINT
  8
2
 10
-114.629517
 20
-683.780441
  0
TEXT
  8
2
 10
-114.629517
 20
-683.780441
 40
0.000000
 50
0.000000
  1
# 227
  0
POINT
  8
2
 10
-377.284861
 20
-683.781281
  0
TEXT
  8
2
 10
-377.284861
 20
-683.781281
 40
0.000000
 50
0.000000
  1
# 228
  0
POLYLINE
  8
11
  6
2
  66
1
  70
0
  0
VERTEX
  8
1
  10
-217.622099
  20
33.259752
  0
VERTEX
  8
1
  10
-352.842789
  20
-12.103221
  0
SEQEND
  8
11
  0
POINT
  8
2
 10
-217.622099
 20
33.259752
  0
TEXT
  8
2
 10
-217.622099
 20
33.259752
 40
0.000000
 50
0.000000
  1
# 229
  0
POINT
  8
2
 10
-352.842789
 20
-12.103221
  0
TEXT
  8
2
 10
-352.842789
 20
-12.103221
 40
0.000000
 50
0.000000
  1
# 230
  0
POLYLINE
  8
11
  66
1
  70
0
  0
VERTEX
  8
1
  10
-206.388469
  20
18.884104
  0
VERTEX
  8
1
  10
-347.358980
  20
-28.407786
  0
SEQEND
  8
11
  0
POINT
  8
2
 10
-206.388469
 20
18.884104
  0
TEXT
  8
2
 10
-206.388469
 20
18.884104
 40
0.000000
 50
0.000000
  1
# 231
  0
POINT
  8
2
 10
-347.358980
 20
-28.407786
  0
TEXT
  8
2
 10
-347.358980
 20
-28.407786
 40
0.000000
 50
0.000000
  1
# 232
 0
LINE
 8
7
 10
-89.999361
 20
-226.967640
 11
-89.999371
 21
-529.415359
  0
TEXT
  8
1
 10
-163.850460
 20
-21.975842
 40
10.151997
 50
0.962712
  1
织带净长18.2，肩缝向后3CM
  0
TEXT
  8
1
 10
-114.629526
 20
-339.745409
 40
10.000000
 50
0.000000
  1
PIECE NAME: C2590551.后片
  0
TEXT
  8
1
 10
-114.629526
 20
-324.745409
 40
10.000000
 50
0.000000
  1
Size: M
  0
TEXT
  8
1
 10
-114.629526
 20
-309.745409
 40
10.000000
 50
0.000000
  1
ANNOTATION: 面料 X1
  0
TEXT
  8
1
 10
-114.629526
 20
-294.745409
 40
10.000000
 50
0.000000
  1
QUANTITY: 1
  0
TEXT
  8
1
 10
-114.629526
 20
-279.745409
 40
10.000000
 50
0.000000
  1
FABRIC: 面料
  0
TEXT
  8
1
 10
-114.629526
 20
-264.745409
 40
10.000000
 50
0.000000
  1
CATEGORY: 后片
  0
TEXT
  8
1
 10
-114.629526
 20
-249.745409
 40
10.000000
 50
0.000000
  1
SHRINKAGE: 经:1.0%，纬:1.0%
0
ENDBLK
0
BLOCK
  8
1
  2
C2590551.领子_罗纹_M
 70
0
 10
0.0
 20
0.0
  0
POLYLINE
  8
1
  66
1
  70
1
  0
VERTEX
  8
1
  10
-114.205637
  20
184.680111
  0
VERTEX
  8
1
  10
-187.994690
  20
184.680111
  0
VERTEX
  8
1
  10
-187.994690
  20
184.680111
  0
VERTEX
  8
1
  10
-207.661257
  20
184.680111
  0
VERTEX
  8
1
  10
-271.429032
  20
184.680111
  0
VERTEX
  8
1
  10
-268.427085
  20
200.295253
  0
VERTEX
  8
1
  10
-267.711625
  20
208.930484
  0
VERTEX
  8
1
  10
-267.680991
  20
208.378185
  0
VERTEX
  8
1
  10
-268.069557
  20
215.383534
  0
VERTEX
  8
1
  10
-271.405370
  20
232.962826
  0
VERTEX
  8
1
  10
-243.878688
  20
232.962826
  0
VERTEX
  8
1
  10
-187.994690
  20
232.962826
  0
VERTEX
  8
1
  10
-134.604985
  20
232.962826
  0
VERTEX
  8
1
  10
-114.205637
  20
232.962826
  0
VERTEX
  8
1
  10
-85.963774
  20
232.962826
  0
VERTEX
  8
1
  10
-38.487678
  20
232.962826
  0
VERTEX
  8
1
  10
27.065187
  20
232.962826
  0
VERTEX
  8
1
  10
92.615709
  20
232.962826
  0
VERTEX
  8
1
  10
140.089350
  20
232.962826
  0
VERTEX
  8
1
  10
178.208686
  20
232.962826
  0
VERTEX
  8
1
  10
174.593366
  20
215.591526
  0
VERTEX
  8
1
  10
174.347805
  20
208.548984
  0
VERTEX
  8
1
  10
174.361138
  20
208.931356
  0
VERTEX
  8
1
  10
174.365834
  20
209.066039
  0
VERTEX
  8
1
  10
174.851196
  20
201.050400
  0
VERTEX
  8
1
  10
178.138611
  20
184.680111
  0
VERTEX
  8
1
  10
140.089350
  20
184.680111
  0
VERTEX
  8
1
  10
140.089350
  20
184.680111
  0
VERTEX
  8
1
  10
92.615709
  20
184.680111
  0
VERTEX
  8
1
  10
92.615709
  20
184.680111
  0
VERTEX
  8
1
  10
27.065187
  20
184.680111
  0
VERTEX
  8
1
  10
27.065187
  20
184.680111
  0
VERTEX
  8
1
  10
-38.487678
  20
184.680111
  0
VERTEX
  8
1
  10
-38.487678
  20
184.680111
  0
VERTEX
  8
1
  10
-85.963774
  20
184.680111
  0
VERTEX
  8
1
  10
-85.963774
  20
184.680111
  0
VERTEX
  8
1
  10
-114.205637
  20
184.680111
  0
VERTEX
  8
1
  10
-114.205637
  20
184.680111
  0
SEQEND
  8
1
  0
POINT
  8
2
 10
-114.205637
 20
184.680111
  0
TEXT
  8
2
 10
-114.205637
 20
184.680111
 40
0.000000
 50
0.000000
  1
# 233
  0
POINT
  8
2
 10
-187.994690
 20
184.680111
  0
TEXT
  8
2
 10
-187.994690
 20
184.680111
 40
0.000000
 50
0.000000
  1
# 234
  0
POINT
  8
2
 10
-271.429032
 20
184.680111
  0
TEXT
  8
2
 10
-271.429032
 20
184.680111
 40
0.000000
 50
0.000000
  1
# 235
  0
POINT
  8
2
 10
-267.711625
 20
208.930484
  0
TEXT
  8
2
 10
-267.711625
 20
208.930484
 40
0.000000
 50
0.000000
  1
# 236
  0
POINT
  8
2
 10
-271.405370
 20
232.962826
  0
TEXT
  8
2
 10
-271.405370
 20
232.962826
 40
0.000000
 50
0.000000
  1
# 237
  0
POINT
  8
2
 10
-187.994690
 20
232.962826
  0
TEXT
  8
2
 10
-187.994690
 20
232.962826
 40
0.000000
 50
0.000000
  1
# 238
  0
POINT
  8
2
 10
-114.205637
 20
232.962826
  0
TEXT
  8
2
 10
-114.205637
 20
232.962826
 40
0.000000
 50
0.000000
  1
# 239
  0
POINT
  8
2
 10
-85.963774
 20
232.962826
  0
TEXT
  8
2
 10
-85.963774
 20
232.962826
 40
0.000000
 50
0.000000
  1
# 240
  0
POINT
  8
2
 10
-38.487678
 20
232.962826
  0
TEXT
  8
2
 10
-38.487678
 20
232.962826
 40
0.000000
 50
0.000000
  1
# 241
  0
POINT
  8
2
 10
27.065187
 20
232.962826
  0
TEXT
  8
2
 10
27.065187
 20
232.962826
 40
0.000000
 50
0.000000
  1
# 242
  0
POINT
  8
2
 10
92.615709
 20
232.962826
  0
TEXT
  8
2
 10
92.615709
 20
232.962826
 40
0.000000
 50
0.000000
  1
# 243
  0
POINT
  8
2
 10
140.089350
 20
232.962826
  0
TEXT
  8
2
 10
140.089350
 20
232.962826
 40
0.000000
 50
0.000000
  1
# 244
  0
POINT
  8
2
 10
178.208686
 20
232.962826
  0
TEXT
  8
2
 10
178.208686
 20
232.962826
 40
0.000000
 50
0.000000
  1
# 245
  0
POINT
  8
2
 10
174.361138
 20
208.931356
  0
TEXT
  8
2
 10
174.361138
 20
208.931356
 40
0.000000
 50
0.000000
  1
# 246
  0
POINT
  8
2
 10
178.138611
 20
184.680111
  0
TEXT
  8
2
 10
178.138611
 20
184.680111
 40
0.000000
 50
0.000000
  1
# 247
  0
POINT
  8
2
 10
140.089350
 20
184.680111
  0
TEXT
  8
2
 10
140.089350
 20
184.680111
 40
0.000000
 50
0.000000
  1
# 248
  0
POINT
  8
2
 10
92.615709
 20
184.680111
  0
TEXT
  8
2
 10
92.615709
 20
184.680111
 40
0.000000
 50
0.000000
  1
# 249
  0
POINT
  8
2
 10
27.065187
 20
184.680111
  0
TEXT
  8
2
 10
27.065187
 20
184.680111
 40
0.000000
 50
0.000000
  1
# 250
  0
POINT
  8
2
 10
-38.487678
 20
184.680111
  0
TEXT
  8
2
 10
-38.487678
 20
184.680111
 40
0.000000
 50
0.000000
  1
# 251
  0
POINT
  8
2
 10
-85.963774
 20
184.680111
  0
TEXT
  8
2
 10
-85.963774
 20
184.680111
 40
0.000000
 50
0.000000
  1
# 252
  0
POINT
  8
2
 10
-114.205637
 20
184.680111
  0
TEXT
  8
2
 10
-114.205637
 20
184.680111
 40
0.000000
 50
0.000000
  1
# 253
  0
POINT
  8
3
 10
-187.994690
 20
184.680111
  0
POINT
  8
3
 10
-207.661257
 20
184.680111
  0
POINT
  8
3
 10
-268.427085
 20
200.295253
  0
POINT
  8
3
 10
-267.680991
 20
208.378185
  0
POINT
  8
3
 10
-268.069557
 20
215.383534
  0
POINT
  8
3
 10
-243.878688
 20
232.962826
  0
POINT
  8
3
 10
-134.604985
 20
232.962826
  0
POINT
  8
3
 10
174.593366
 20
215.591526
  0
POINT
  8
3
 10
174.347805
 20
208.548984
  0
POINT
  8
3
 10
174.365834
 20
209.066039
  0
POINT
  8
3
 10
174.851196
 20
201.050400
  0
POINT
  8
3
 10
140.089350
 20
184.680111
  0
POINT
  8
3
 10
92.615709
 20
184.680111
  0
POINT
  8
3
 10
27.065187
 20
184.680111
  0
POINT
  8
3
 10
-38.487678
 20
184.680111
  0
POINT
  8
3
 10
-85.963774
 20
184.680111
  0
POINT
  8
3
 10
-114.205637
 20
184.680111
  0
POINT
  8
3
 10
-267.680991
 20
208.378185
  0
TEXT
  8
3
 10
-267.680991
 20
208.378185
 40
0.000000
 50
0.000000
  1
# 254
  0
POINT
  8
3
 10
174.347805
 20
208.548984
  0
TEXT
  8
3
 10
174.347805
 20
208.548984
 40
0.000000
 50
0.000000
  1
# 255
  0
POINT
  8
4
 10
-187.994690
 20
184.680111
 30
0.600000
 50
 90.00
  0
TEXT
  8
4
 10
-187.994690
 20
184.680111
 40
0.000000
 50
0.000000
  1
# 256
  0
POINT
  8
4
 10
174.365834
 20
209.066039
 30
0.600000
 50
181.74
  0
TEXT
  8
4
 10
174.365834
 20
209.066039
 40
0.000000
 50
0.000000
  1
# 257
  0
POINT
  8
4
 10
140.089350
 20
184.680111
 30
0.600000
 50
 90.00
  0
TEXT
  8
4
 10
140.089350
 20
184.680111
 40
0.000000
 50
0.000000
  1
# 258
  0
POINT
  8
4
 10
92.615709
 20
184.680111
 30
0.600000
 50
 90.00
  0
TEXT
  8
4
 10
92.615709
 20
184.680111
 40
0.000000
 50
0.000000
  1
# 259
  0
POINT
  8
4
 10
27.065187
 20
184.680111
 30
0.600000
 50
 90.00
  0
TEXT
  8
4
 10
27.065187
 20
184.680111
 40
0.000000
 50
0.000000
  1
# 260
  0
POINT
  8
4
 10
-38.487678
 20
184.680111
 30
0.600000
 50
 90.00
  0
TEXT
  8
4
 10
-38.487678
 20
184.680111
 40
0.000000
 50
0.000000
  1
# 261
  0
POINT
  8
4
 10
-85.963774
 20
184.680111
 30
0.600000
 50
 90.00
  0
TEXT
  8
4
 10
-85.963774
 20
184.680111
 40
0.000000
 50
0.000000
  1
# 262
  0
POINT
  8
4
 10
-114.205637
 20
184.680111
 30
0.600000
 50
 90.00
  0
TEXT
  8
4
 10
-114.205637
 20
184.680111
 40
0.000000
 50
0.000000
  1
# 263
  0
POLYLINE
  8
8
  66
1
  70
1
  0
VERTEX
  8
8
  10
-114.205637
  20
192.680111
  0
VERTEX
  8
8
  10
-187.994690
  20
192.680111
  0
VERTEX
  8
8
  10
-187.994690
  20
192.680111
  0
VERTEX
  8
8
  10
-207.661257
  20
192.680111
  0
VERTEX
  8
8
  10
-261.744576
  20
192.680111
  0
VERTEX
  8
8
  10
-260.518288
  20
199.090709
  0
VERTEX
  8
8
  10
-259.693279
  20
208.821239
  0
VERTEX
  8
8
  10
-259.693279
  20
208.821239
  0
VERTEX
  8
8
  10
-260.118259
  20
216.264935
  0
VERTEX
  8
8
  10
-261.744576
  20
224.962826
  0
VERTEX
  8
8
  10
-243.878688
  20
224.962826
  0
VERTEX
  8
8
  10
-187.994690
  20
224.962826
  0
VERTEX
  8
8
  10
-134.604985
  20
224.962826
  0
VERTEX
  8
8
  10
-114.205637
  20
224.962826
  0
VERTEX
  8
8
  10
-85.963774
  20
224.962826
  0
VERTEX
  8
8
  10
-38.487678
  20
224.962826
  0
VERTEX
  8
8
  10
27.065187
  20
224.962826
  0
VERTEX
  8
8
  10
92.615709
  20
224.962826
  0
VERTEX
  8
8
  10
140.089350
  20
224.962826
  0
VERTEX
  8
8
  10
168.372383
  20
224.962826
  0
VERTEX
  8
8
  10
166.639377
  20
216.448298
  0
VERTEX
  8
8
  10
166.352293
  20
208.827774
  0
VERTEX
  8
8
  10
166.352501
  20
208.822231
  0
VERTEX
  8
8
  10
166.352501
  20
208.822231
  0
VERTEX
  8
8
  10
166.929398
  20
199.934549
  0
VERTEX
  8
8
  10
168.372383
  20
192.680111
  0
VERTEX
  8
8
  10
140.089350
  20
192.680111
  0
VERTEX
  8
8
  10
140.089350
  20
192.680111
  0
VERTEX
  8
8
  10
92.615709
  20
192.680111
  0
VERTEX
  8
8
  10
92.615709
  20
192.680111
  0
VERTEX
  8
8
  10
27.065187
  20
192.680111
  0
VERTEX
  8
8
  10
27.065187
  20
192.680111
  0
VERTEX
  8
8
  10
-38.487678
  20
192.680111
  0
VERTEX
  8
8
  10
-38.487678
  20
192.680111
  0
VERTEX
  8
8
  10
-85.963774
  20
192.680111
  0
VERTEX
  8
8
  10
-85.963774
  20
192.680111
  0
VERTEX
  8
8
  10
-114.205637
  20
192.680111
  0
VERTEX
  8
8
  10
-114.205637
  20
192.680111
  0
SEQEND
  8
8
  0
POINT
  8
2
 10
-114.205637
 20
192.680111
  0
TEXT
  8
2
 10
-114.205637
 20
192.680111
 40
0.000000
 50
0.000000
  1
# 264
  0
POINT
  8
2
 10
-187.994690
 20
192.680111
  0
TEXT
  8
2
 10
-187.994690
 20
192.680111
 40
0.000000
 50
0.000000
  1
# 265
  0
POINT
  8
2
 10
-261.744576
 20
192.680111
  0
TEXT
  8
2
 10
-261.744576
 20
192.680111
 40
0.000000
 50
0.000000
  1
# 266
  0
POINT
  8
2
 10
-259.693279
 20
208.821239
  0
TEXT
  8
2
 10
-259.693279
 20
208.821239
 40
0.000000
 50
0.000000
  1
# 267
  0
POINT
  8
2
 10
-261.744576
 20
224.962826
  0
TEXT
  8
2
 10
-261.744576
 20
224.962826
 40
0.000000
 50
0.000000
  1
# 268
  0
POINT
  8
2
 10
-187.994690
 20
224.962826
  0
TEXT
  8
2
 10
-187.994690
 20
224.962826
 40
0.000000
 50
0.000000
  1
# 269
  0
POINT
  8
2
 10
-114.205637
 20
224.962826
  0
TEXT
  8
2
 10
-114.205637
 20
224.962826
 40
0.000000
 50
0.000000
  1
# 270
  0
POINT
  8
2
 10
-85.963774
 20
224.962826
  0
TEXT
  8
2
 10
-85.963774
 20
224.962826
 40
0.000000
 50
0.000000
  1
# 271
  0
POINT
  8
2
 10
-38.487678
 20
224.962826
  0
TEXT
  8
2
 10
-38.487678
 20
224.962826
 40
0.000000
 50
0.000000
  1
# 272
  0
POINT
  8
2
 10
27.065187
 20
224.962826
  0
TEXT
  8
2
 10
27.065187
 20
224.962826
 40
0.000000
 50
0.000000
  1
# 273
  0
POINT
  8
2
 10
92.615709
 20
224.962826
  0
TEXT
  8
2
 10
92.615709
 20
224.962826
 40
0.000000
 50
0.000000
  1
# 274
  0
POINT
  8
2
 10
140.089350
 20
224.962826
  0
TEXT
  8
2
 10
140.089350
 20
224.962826
 40
0.000000
 50
0.000000
  1
# 275
  0
POINT
  8
2
 10
168.372383
 20
224.962826
  0
TEXT
  8
2
 10
168.372383
 20
224.962826
 40
0.000000
 50
0.000000
  1
# 276
  0
POINT
  8
2
 10
166.352501
 20
208.822231
  0
TEXT
  8
2
 10
166.352501
 20
208.822231
 40
0.000000
 50
0.000000
  1
# 277
  0
POINT
  8
2
 10
168.372383
 20
192.680111
  0
TEXT
  8
2
 10
168.372383
 20
192.680111
 40
0.000000
 50
0.000000
  1
# 278
  0
POINT
  8
2
 10
140.089350
 20
192.680111
  0
TEXT
  8
2
 10
140.089350
 20
192.680111
 40
0.000000
 50
0.000000
  1
# 279
  0
POINT
  8
2
 10
92.615709
 20
192.680111
  0
TEXT
  8
2
 10
92.615709
 20
192.680111
 40
0.000000
 50
0.000000
  1
# 280
  0
POINT
  8
2
 10
27.065187
 20
192.680111
  0
TEXT
  8
2
 10
27.065187
 20
192.680111
 40
0.000000
 50
0.000000
  1
# 281
  0
POINT
  8
2
 10
-38.487678
 20
192.680111
  0
TEXT
  8
2
 10
-38.487678
 20
192.680111
 40
0.000000
 50
0.000000
  1
# 282
  0
POINT
  8
2
 10
-85.963774
 20
192.680111
  0
TEXT
  8
2
 10
-85.963774
 20
192.680111
 40
0.000000
 50
0.000000
  1
# 283
  0
POINT
  8
2
 10
-114.205637
 20
192.680111
  0
TEXT
  8
2
 10
-114.205637
 20
192.680111
 40
0.000000
 50
0.000000
  1
# 284
  0
POINT
  8
3
 10
-187.994690
 20
192.680111
  0
POINT
  8
3
 10
-207.661257
 20
192.680111
  0
POINT
  8
3
 10
-260.518288
 20
199.090709
  0
POINT
  8
3
 10
-259.693279
 20
208.821239
  0
POINT
  8
3
 10
-260.118259
 20
216.264935
  0
POINT
  8
3
 10
-243.878688
 20
224.962826
  0
POINT
  8
3
 10
-134.604985
 20
224.962826
  0
POINT
  8
3
 10
166.639377
 20
216.448298
  0
POINT
  8
3
 10
166.352293
 20
208.827774
  0
POINT
  8
3
 10
166.352501
 20
208.822231
  0
POINT
  8
3
 10
166.929398
 20
199.934549
  0
POINT
  8
3
 10
140.089350
 20
192.680111
  0
POINT
  8
3
 10
92.615709
 20
192.680111
  0
POINT
  8
3
 10
27.065187
 20
192.680111
  0
POINT
  8
3
 10
-38.487678
 20
192.680111
  0
POINT
  8
3
 10
-85.963774
 20
192.680111
  0
POINT
  8
3
 10
-114.205637
 20
192.680111
  0
POINT
  8
3
 10
-259.693279
 20
208.821239
  0
TEXT
  8
3
 10
-259.693279
 20
208.821239
 40
0.000000
 50
0.000000
  1
# 285
  0
POINT
  8
3
 10
166.352293
 20
208.827774
  0
TEXT
  8
3
 10
166.352293
 20
208.827774
 40
0.000000
 50
0.000000
  1
# 286
  0
POINT
  8
4
 10
-187.994690
 20
192.680111
 30
0.600000
 50
 90.00
  0
TEXT
  8
4
 10
-187.994690
 20
192.680111
 40
0.000000
 50
0.000000
  1
# 287
  0
POINT
  8
4
 10
166.352501
 20
208.822231
 30
0.600000
 50
181.74
  0
TEXT
  8
4
 10
166.352501
 20
208.822231
 40
0.000000
 50
0.000000
  1
# 288
  0
POINT
  8
4
 10
140.089350
 20
192.680111
 30
0.600000
 50
 90.00
  0
TEXT
  8
4
 10
140.089350
 20
192.680111
 40
0.000000
 50
0.000000
  1
# 289
  0
POINT
  8
4
 10
92.615709
 20
192.680111
 30
0.600000
 50
 90.00
  0
TEXT
  8
4
 10
92.615709
 20
192.680111
 40
0.000000
 50
0.000000
  1
# 290
  0
POINT
  8
4
 10
27.065187
 20
192.680111
 30
0.600000
 50
 90.00
  0
TEXT
  8
4
 10
27.065187
 20
192.680111
 40
0.000000
 50
0.000000
  1
# 291
  0
POINT
  8
4
 10
-38.487678
 20
192.680111
 30
0.600000
 50
 90.00
  0
TEXT
  8
4
 10
-38.487678
 20
192.680111
 40
0.000000
 50
0.000000
  1
# 292
  0
POINT
  8
4
 10
-85.963774
 20
192.680111
 30
0.600000
 50
 90.00
  0
TEXT
  8
4
 10
-85.963774
 20
192.680111
 40
0.000000
 50
0.000000
  1
# 293
  0
POINT
  8
4
 10
-114.205637
 20
192.680111
 30
0.600000
 50
 90.00
  0
TEXT
  8
4
 10
-114.205637
 20
192.680111
 40
0.000000
 50
0.000000
  1
# 294
  0
POLYLINE
  8
11
  66
1
  70
0
  0
VERTEX
  8
1
  10
-85.963774
  20
224.962826
  0
VERTEX
  8
1
  10
-85.963774
  20
208.821449
  0
SEQEND
  8
11
  0
POINT
  8
2
 10
-85.963774
 20
224.962826
  0
TEXT
  8
2
 10
-85.963774
 20
224.962826
 40
0.000000
 50
0.000000
  1
# 295
  0
POINT
  8
2
 10
-85.963774
 20
208.821449
  0
TEXT
  8
2
 10
-85.963774
 20
208.821449
 40
0.000000
 50
0.000000
  1
# 296
  0
POLYLINE
  8
11
  66
1
  70
0
  0
VERTEX
  8
1
  10
-187.994690
  20
192.680111
  0
VERTEX
  8
1
  10
-187.994690
  20
208.820801
  0
SEQEND
  8
11
  0
POINT
  8
2
 10
-187.994690
 20
192.680111
  0
TEXT
  8
2
 10
-187.994690
 20
192.680111
 40
0.000000
 50
0.000000
  1
# 297
  0
POINT
  8
2
 10
-187.994690
 20
208.820801
  0
TEXT
  8
2
 10
-187.994690
 20
208.820801
 40
0.000000
 50
0.000000
  1
# 298
  0
POLYLINE
  8
11
  66
1
  70
0
  0
VERTEX
  8
1
  10
-38.487678
  20
224.962826
  0
VERTEX
  8
1
  10
-38.487678
  20
208.821449
  0
SEQEND
  8
11
  0
POINT
  8
2
 10
-38.487678
 20
224.962826
  0
TEXT
  8
2
 10
-38.487678
 20
224.962826
 40
0.000000
 50
0.000000
  1
# 299
  0
POINT
  8
2
 10
-38.487678
 20
208.821449
  0
TEXT
  8
2
 10
-38.487678
 20
208.821449
 40
0.000000
 50
0.000000
  1
# 300
  0
POLYLINE
  8
11
  66
1
  70
0
  0
VERTEX
  8
1
  10
27.065187
  20
224.962826
  0
VERTEX
  8
1
  10
27.065187
  20
208.821640
  0
SEQEND
  8
11
  0
POINT
  8
2
 10
27.065187
 20
224.962826
  0
TEXT
  8
2
 10
27.065187
 20
224.962826
 40
0.000000
 50
0.000000
  1
# 301
  0
POINT
  8
2
 10
27.065187
 20
208.821640
  0
TEXT
  8
2
 10
27.065187
 20
208.821640
 40
0.000000
 50
0.000000
  1
# 302
  0
POLYLINE
  8
11
  66
1
  70
0
  0
VERTEX
  8
1
  10
92.615709
  20
224.962826
  0
VERTEX
  8
1
  10
92.615709
  20
208.821449
  0
SEQEND
  8
11
  0
POINT
  8
2
 10
92.615709
 20
224.962826
  0
TEXT
  8
2
 10
92.615709
 20
224.962826
 40
0.000000
 50
0.000000
  1
# 303
  0
POINT
  8
2
 10
92.615709
 20
208.821449
  0
TEXT
  8
2
 10
92.615709
 20
208.821449
 40
0.000000
 50
0.000000
  1
# 304
  0
POLYLINE
  8
11
  66
1
  70
0
  0
VERTEX
  8
1
  10
140.089350
  20
224.962826
  0
VERTEX
  8
1
  10
140.089350
  20
208.822117
  0
SEQEND
  8
11
  0
POINT
  8
2
 10
140.089350
 20
224.962826
  0
TEXT
  8
2
 10
140.089350
 20
224.962826
 40
0.000000
 50
0.000000
  1
# 305
  0
POINT
  8
2
 10
140.089350
 20
208.822117
  0
TEXT
  8
2
 10
140.089350
 20
208.822117
 40
0.000000
 50
0.000000
  1
# 306
  0
POLYLINE
  8
11
  66
1
  70
0
  0
VERTEX
  8
1
  10
-259.693279
  20
208.820553
  0
VERTEX
  8
1
  10
166.352501
  20
208.822231
  0
SEQEND
  8
11
  0
POINT
  8
2
 10
-259.693279
 20
208.820553
  0
TEXT
  8
2
 10
-259.693279
 20
208.820553
 40
0.000000
 50
0.000000
  1
# 307
  0
POINT
  8
2
 10
166.352501
 20
208.822231
  0
TEXT
  8
2
 10
166.352501
 20
208.822231
 40
0.000000
 50
0.000000
  1
# 308
  0
POLYLINE
  8
11
  66
1
  70
0
  0
VERTEX
  8
1
  10
-187.994690
  20
208.820801
  0
VERTEX
  8
1
  10
-187.994690
  20
224.962826
  0
SEQEND
  8
11
  0
POINT
  8
2
 10
-187.994690
 20
208.820801
  0
TEXT
  8
2
 10
-187.994690
 20
208.820801
 40
0.000000
 50
0.000000
  1
# 309
  0
POINT
  8
2
 10
-187.994690
 20
224.962826
  0
TEXT
  8
2
 10
-187.994690
 20
224.962826
 40
0.000000
 50
0.000000
  1
# 310
  0
POLYLINE
  8
11
  66
1
  70
0
  0
VERTEX
  8
1
  10
-85.963774
  20
208.821449
  0
VERTEX
  8
1
  10
-85.963774
  20
192.680111
  0
SEQEND
  8
11
  0
POINT
  8
2
 10
-85.963774
 20
208.821449
  0
TEXT
  8
2
 10
-85.963774
 20
208.821449
 40
0.000000
 50
0.000000
  1
# 311
  0
POINT
  8
2
 10
-85.963774
 20
192.680111
  0
TEXT
  8
2
 10
-85.963774
 20
192.680111
 40
0.000000
 50
0.000000
  1
# 312
  0
POLYLINE
  8
11
  66
1
  70
0
  0
VERTEX
  8
1
  10
-38.487678
  20
208.821449
  0
VERTEX
  8
1
  10
-38.487678
  20
192.680111
  0
SEQEND
  8
11
  0
POINT
  8
2
 10
-38.487678
 20
208.821449
  0
TEXT
  8
2
 10
-38.487678
 20
208.821449
 40
0.000000
 50
0.000000
  1
# 313
  0
POINT
  8
2
 10
-38.487678
 20
192.680111
  0
TEXT
  8
2
 10
-38.487678
 20
192.680111
 40
0.000000
 50
0.000000
  1
# 314
  0
POLYLINE
  8
11
  66
1
  70
0
  0
VERTEX
  8
1
  10
27.065187
  20
208.821640
  0
VERTEX
  8
1
  10
27.065187
  20
192.680111
  0
SEQEND
  8
11
  0
POINT
  8
2
 10
27.065187
 20
208.821640
  0
TEXT
  8
2
 10
27.065187
 20
208.821640
 40
0.000000
 50
0.000000
  1
# 315
  0
POINT
  8
2
 10
27.065187
 20
192.680111
  0
TEXT
  8
2
 10
27.065187
 20
192.680111
 40
0.000000
 50
0.000000
  1
# 316
  0
POLYLINE
  8
11
  66
1
  70
0
  0
VERTEX
  8
1
  10
92.615709
  20
208.821449
  0
VERTEX
  8
1
  10
92.615709
  20
192.680111
  0
SEQEND
  8
11
  0
POINT
  8
2
 10
92.615709
 20
208.821449
  0
TEXT
  8
2
 10
92.615709
 20
208.821449
 40
0.000000
 50
0.000000
  1
# 317
  0
POINT
  8
2
 10
92.615709
 20
192.680111
  0
TEXT
  8
2
 10
92.615709
 20
192.680111
 40
0.000000
 50
0.000000
  1
# 318
  0
POLYLINE
  8
11
  66
1
  70
0
  0
VERTEX
  8
1
  10
140.089350
  20
208.822117
  0
VERTEX
  8
1
  10
140.089350
  20
192.680111
  0
SEQEND
  8
11
  0
POINT
  8
2
 10
140.089350
 20
208.822117
  0
TEXT
  8
2
 10
140.089350
 20
208.822117
 40
0.000000
 50
0.000000
  1
# 319
  0
POINT
  8
2
 10
140.089350
 20
192.680111
  0
TEXT
  8
2
 10
140.089350
 20
192.680111
 40
0.000000
 50
0.000000
  1
# 320
  0
POLYLINE
  8
11
  66
1
  70
0
  0
VERTEX
  8
1
  10
-114.205637
  20
192.680111
  0
VERTEX
  8
1
  10
-114.205637
  20
208.821125
  0
SEQEND
  8
11
  0
POINT
  8
2
 10
-114.205637
 20
192.680111
  0
TEXT
  8
2
 10
-114.205637
 20
192.680111
 40
0.000000
 50
0.000000
  1
# 321
  0
POINT
  8
2
 10
-114.205637
 20
208.821125
  0
TEXT
  8
2
 10
-114.205637
 20
208.821125
 40
0.000000
 50
0.000000
  1
# 322
  0
POLYLINE
  8
11
  66
1
  70
0
  0
VERTEX
  8
1
  10
-114.205637
  20
208.821125
  0
VERTEX
  8
1
  10
-114.205637
  20
224.962826
  0
SEQEND
  8
11
  0
POINT
  8
2
 10
-114.205637
 20
208.821125
  0
TEXT
  8
2
 10
-114.205637
 20
208.821125
 40
0.000000
 50
0.000000
  1
# 323
  0
POINT
  8
2
 10
-114.205637
 20
224.962826
  0
TEXT
  8
2
 10
-114.205637
 20
224.962826
 40
0.000000
 50
0.000000
  1
# 324
 0
LINE
 8
7
 10
-14.497160
 20
216.912441
 11
-14.497160
 21
198.730488
  0
TEXT
  8
1
 10
-198.751221
 20
198.626671
 40
10.101010
 50
358.939088
  1
后中
  0
TEXT
  8
1
 10
16.154219
 20
197.479744
 40
10.101008
 50
359.325963
  1
前中
  0
TEXT
  8
1
 10
-46.610165
 20
208.821468
 40
10.000000
 50
0.000000
  1
PIECE NAME: C2590551.领子
  0
TEXT
  8
1
 10
-46.610165
 20
223.821468
 40
10.000000
 50
0.000000
  1
Size: M
  0
TEXT
  8
1
 10
-46.610165
 20
238.821468
 40
10.000000
 50
0.000000
  1
ANNOTATION: 罗纹 X1
  0
TEXT
  8
1
 10
-46.610165
 20
253.821468
 40
10.000000
 50
0.000000
  1
QUANTITY: 1
  0
TEXT
  8
1
 10
-46.610165
 20
268.821468
 40
10.000000
 50
0.000000
  1
FABRIC: 罗纹
  0
TEXT
  8
1
 10
-46.610165
 20
283.821468
 40
10.000000
 50
0.000000
  1
CATEGORY: 领子
  0
TEXT
  8
1
 10
-46.610165
 20
298.821468
 40
10.000000
 50
0.000000
  1
SHRINKAGE: 经:1.0%，纬:1.0%
0
ENDBLK
0
BLOCK
  8
1
  2
C2590551.袖子_面料_M
 70
0
 10
0.0
 20
0.0
  0
POLYLINE
  8
1
  66
1
  70
1
  0
VERTEX
  8
1
  10
996.549546
  20
-431.215758
  0
VERTEX
  8
1
  10
1004.361351
  20
-410.215759
  0
VERTEX
  8
1
  10
974.721132
  20
-343.371085
  0
VERTEX
  8
1
  10
950.783722
  20
-289.387395
  0
VERTEX
  8
1
  10
959.535331
  20
-286.259853
  0
VERTEX
  8
1
  10
969.341438
  20
-282.897699
  0
VERTEX
  8
1
  10
984.149192
  20
-277.175144
  0
VERTEX
  8
1
  10
996.158826
  20
-271.677101
  0
VERTEX
  8
1
  10
1007.730045
  20
-265.374778
  0
VERTEX
  8
1
  10
1019.676040
  20
-257.673143
  0
VERTEX
  8
1
  10
1032.073686
  20
-248.376299
  0
VERTEX
  8
1
  10
1051.096665
  20
-232.389596
  0
VERTEX
  8
1
  10
1057.044949
  20
-227.299190
  0
VERTEX
  8
1
  10
1071.114047
  20
-215.259178
  0
VERTEX
  8
1
  10
1085.823899
  20
-203.696229
  0
VERTEX
  8
1
  10
1096.985456
  20
-195.873753
  0
VERTEX
  8
1
  10
1097.507434
  20
-195.507929
  0
VERTEX
  8
1
  10
1109.739357
  20
-188.055272
  0
VERTEX
  8
1
  10
1122.643482
  20
-181.556795
  0
VERTEX
  8
1
  10
1131.917208
  20
-177.778096
  0
VERTEX
  8
1
  10
1143.421920
  20
-174.045355
  0
VERTEX
  8
1
  10
1157.561284
  20
-170.778498
  0
VERTEX
  8
1
  10
1167.474447
  20
-169.312639
  0
VERTEX
  8
1
  10
1179.624314
  20
-168.490662
  0
VERTEX
  8
1
  10
1184.676761
  20
-168.708791
  0
VERTEX
  8
1
  10
1193.147342
  20
-169.074492
  0
VERTEX
  8
1
  10
1198.043852
  20
-169.268541
  0
VERTEX
  8
1
  10
1198.684108
  20
-169.397187
  0
VERTEX
  8
1
  10
1203.464462
  20
-170.357696
  0
VERTEX
  8
1
  10
1218.513332
  20
-173.337630
  0
VERTEX
  8
1
  10
1229.578939
  20
-176.743883
  0
VERTEX
  8
1
  10
1239.414562
  20
-180.782146
  0
VERTEX
  8
1
  10
1250.713953
  20
-186.638259
  0
VERTEX
  8
1
  10
1261.392994
  20
-193.452553
  0
VERTEX
  8
1
  10
1271.259787
  20
-200.952898
  0
VERTEX
  8
1
  10
1282.072085
  20
-210.384339
  0
VERTEX
  8
1
  10
1300.894850
  20
-228.444396
  0
VERTEX
  8
1
  10
1301.044341
  20
-228.587830
  0
VERTEX
  8
1
  10
1325.417649
  20
-251.918499
  0
VERTEX
  8
1
  10
1337.021566
  20
-261.981471
  0
VERTEX
  8
1
  10
1346.042155
  20
-268.667554
  0
VERTEX
  8
1
  10
1353.897676
  20
-273.490160
  0
VERTEX
  8
1
  10
1362.104992
  20
-277.542304
  0
VERTEX
  8
1
  10
1366.749981
  20
-279.303132
  0
VERTEX
  8
1
  10
1369.984204
  20
-280.529165
  0
VERTEX
  8
1
  10
1380.018130
  20
-283.366803
  0
VERTEX
  8
1
  10
1390.434186
  20
-285.489727
  0
VERTEX
  8
1
  10
1395.783057
  20
-286.392212
  0
VERTEX
  8
1
  10
1404.375462
  20
-287.983785
  0
VERTEX
  8
1
  10
1392.232791
  20
-315.368336
  0
VERTEX
  8
1
  10
1379.815896
  20
-343.371331
  0
VERTEX
  8
1
  10
1372.100221
  20
-360.771979
  0
VERTEX
  8
1
  10
1350.176210
  20
-410.215759
  0
VERTEX
  8
1
  10
1357.987881
  20
-431.215758
  0
VERTEX
  8
1
  10
1184.339523
  20
-431.215758
  0
VERTEX
  8
1
  10
996.549546
  20
-431.215758
  0
SEQEND
  8
1
  0
POINT
  8
2
 10
996.549546
 20
-431.215758
  0
TEXT
  8
2
 10
996.549546
 20
-431.215758
 40
0.000000
 50
0.000000
  1
# 325
  0
POINT
  8
2
 10
1004.361351
 20
-410.215759
  0
TEXT
  8
2
 10
1004.361351
 20
-410.215759
 40
0.000000
 50
0.000000
  1
# 326
  0
POINT
  8
2
 10
950.783722
 20
-289.387395
  0
TEXT
  8
2
 10
950.783722
 20
-289.387395
 40
0.000000
 50
0.000000
  1
# 327
  0
POINT
  8
2
 10
1198.043852
 20
-169.268541
  0
TEXT
  8
2
 10
1198.043852
 20
-169.268541
 40
0.000000
 50
0.000000
  1
# 328
  0
POINT
  8
2
 10
1404.375462
 20
-287.983785
  0
TEXT
  8
2
 10
1404.375462
 20
-287.983785
 40
0.000000
 50
0.000000
  1
# 329
  0
POINT
  8
2
 10
1350.176210
 20
-410.215759
  0
TEXT
  8
2
 10
1350.176210
 20
-410.215759
 40
0.000000
 50
0.000000
  1
# 330
  0
POINT
  8
2
 10
1357.987881
 20
-431.215758
  0
TEXT
  8
2
 10
1357.987881
 20
-431.215758
 40
0.000000
 50
0.000000
  1
# 331
  0
POINT
  8
2
 10
996.549546
 20
-431.215758
  0
TEXT
  8
2
 10
996.549546
 20
-431.215758
 40
0.000000
 50
0.000000
  1
# 332
  0
POINT
  8
3
 10
974.721132
 20
-343.371085
  0
POINT
  8
3
 10
959.535331
 20
-286.259853
  0
POINT
  8
3
 10
969.341438
 20
-282.897699
  0
POINT
  8
3
 10
984.149192
 20
-277.175144
  0
POINT
  8
3
 10
996.158826
 20
-271.677101
  0
POINT
  8
3
 10
1007.730045
 20
-265.374778
  0
POINT
  8
3
 10
1019.676040
 20
-257.673143
  0
POINT
  8
3
 10
1032.073686
 20
-248.376299
  0
POINT
  8
3
 10
1051.096665
 20
-232.389596
  0
POINT
  8
3
 10
1057.044949
 20
-227.299190
  0
POINT
  8
3
 10
1071.114047
 20
-215.259178
  0
POINT
  8
3
 10
1085.823899
 20
-203.696229
  0
POINT
  8
3
 10
1096.985456
 20
-195.873753
  0
POINT
  8
3
 10
1097.507434
 20
-195.507929
  0
POINT
  8
3
 10
1109.739357
 20
-188.055272
  0
POINT
  8
3
 10
1122.643482
 20
-181.556795
  0
POINT
  8
3
 10
1131.917208
 20
-177.778096
  0
POINT
  8
3
 10
1143.421920
 20
-174.045355
  0
POINT
  8
3
 10
1157.561284
 20
-170.778498
  0
POINT
  8
3
 10
1167.474447
 20
-169.312639
  0
POINT
  8
3
 10
1179.624314
 20
-168.490662
  0
POINT
  8
3
 10
1184.676761
 20
-168.708791
  0
POINT
  8
3
 10
1193.147342
 20
-169.074492
  0
POINT
  8
3
 10
1198.684108
 20
-169.397187
  0
POINT
  8
3
 10
1203.464462
 20
-170.357696
  0
POINT
  8
3
 10
1218.513332
 20
-173.337630
  0
POINT
  8
3
 10
1229.578939
 20
-176.743883
  0
POINT
  8
3
 10
1239.414562
 20
-180.782146
  0
POINT
  8
3
 10
1250.713953
 20
-186.638259
  0
POINT
  8
3
 10
1261.392994
 20
-193.452553
  0
POINT
  8
3
 10
1271.259787
 20
-200.952898
  0
POINT
  8
3
 10
1282.072085
 20
-210.384339
  0
POINT
  8
3
 10
1300.894850
 20
-228.444396
  0
POINT
  8
3
 10
1301.044341
 20
-228.587830
  0
POINT
  8
3
 10
1325.417649
 20
-251.918499
  0
POINT
  8
3
 10
1337.021566
 20
-261.981471
  0
POINT
  8
3
 10
1346.042155
 20
-268.667554
  0
POINT
  8
3
 10
1353.897676
 20
-273.490160
  0
POINT
  8
3
 10
1362.104992
 20
-277.542304
  0
POINT
  8
3
 10
1366.749981
 20
-279.303132
  0
POINT
  8
3
 10
1369.984204
 20
-280.529165
  0
POINT
  8
3
 10
1380.018130
 20
-283.366803
  0
POINT
  8
3
 10
1390.434186
 20
-285.489727
  0
POINT
  8
3
 10
1395.783057
 20
-286.392212
  0
POINT
  8
3
 10
1392.232791
 20
-315.368336
  0
POINT
  8
3
 10
1379.815896
 20
-343.371331
  0
POINT
  8
3
 10
1372.100221
 20
-360.771979
  0
POINT
  8
3
 10
1184.339523
 20
-431.215758
  0
POINT
  8
3
 10
1184.676761
 20
-168.708791
  0
TEXT
  8
3
 10
1184.676761
 20
-168.708791
 40
0.000000
 50
0.000000
  1
# 333
  0
POINT
  8
3
 10
1184.339523
 20
-431.215758
  0
TEXT
  8
3
 10
1184.339523
 20
-431.215758
 40
0.000000
 50
0.000000
  1
# 334
  0
POINT
  8
4
 10
974.721132
 20
-343.371085
 30
0.600000
 50
 23.91
  0
TEXT
  8
4
 10
974.721132
 20
-343.371085
 40
0.000000
 50
0.000000
  1
# 335
  0
POINT
  8
4
 10
1057.044949
 20
-227.299190
 30
0.600000
 50
310.56
  0
TEXT
  8
4
 10
1057.044949
 20
-227.299190
 40
0.000000
 50
0.000000
  1
# 336
  0
POINT
  8
4
 10
1096.985456
 20
-195.873753
 30
0.600000
 50
305.02
  0
TEXT
  8
4
 10
1096.985456
 20
-195.873753
 40
0.000000
 50
0.000000
  1
# 337
  0
POINT
  8
4
 10
1198.684108
 20
-169.397187
 30
0.600000
 50
258.64
  0
TEXT
  8
4
 10
1198.684108
 20
-169.397187
 40
0.000000
 50
0.000000
  1
# 338
  0
POINT
  8
4
 10
1300.894850
 20
-228.444396
 30
0.600000
 50
226.18
  0
TEXT
  8
4
 10
1300.894850
 20
-228.444396
 40
0.000000
 50
0.000000
  1
# 339
  0
POINT
  8
4
 10
1366.749981
 20
-279.303132
 30
0.600000
 50
249.24
  0
TEXT
  8
4
 10
1366.749981
 20
-279.303132
 40
0.000000
 50
0.000000
  1
# 340
  0
POINT
  8
4
 10
1379.815896
 20
-343.371331
 30
0.600000
 50
156.09
  0
TEXT
  8
4
 10
1379.815896
 20
-343.371331
 40
0.000000
 50
0.000000
  1
# 341
  0
POLYLINE
  8
8
  66
1
  70
1
  0
VERTEX
  8
8
  10
1013.112564
  20
-410.215759
  0
VERTEX
  8
8
  10
982.034378
  20
-340.128250
  0
VERTEX
  8
8
  10
961.561890
  20
-293.958588
  0
VERTEX
  8
8
  10
972.029773
  20
-290.432475
  0
VERTEX
  8
8
  10
987.247620
  20
-284.550762
  0
VERTEX
  8
8
  10
999.736233
  20
-278.832670
  0
VERTEX
  8
8
  10
1011.802358
  20
-272.260725
  0
VERTEX
  8
8
  10
1024.260582
  20
-264.229207
  0
VERTEX
  8
8
  10
1037.053918
  20
-254.637073
  0
VERTEX
  8
8
  10
1056.339209
  20
-238.432421
  0
VERTEX
  8
8
  10
1062.209930
  20
-233.334618
  0
VERTEX
  8
8
  10
1076.206236
  20
-221.429236
  0
VERTEX
  8
8
  10
1090.589785
  20
-210.121673
  0
VERTEX
  8
8
  10
1101.568298
  20
-202.412815
  0
VERTEX
  8
8
  10
1101.904605
  20
-202.191108
  0
VERTEX
  8
8
  10
1113.643304
  20
-195.038050
  0
VERTEX
  8
8
  10
1125.909175
  20
-188.859894
  0
VERTEX
  8
8
  10
1134.687118
  20
-185.283267
  0
VERTEX
  8
8
  10
1145.587648
  20
-181.746629
  0
VERTEX
  8
8
  10
1158.994713
  20
-178.649031
  0
VERTEX
  8
8
  10
1168.371700
  20
-177.262164
  0
VERTEX
  8
8
  10
1179.792219
  20
-176.488900
  0
VERTEX
  8
8
  10
1184.341151
  20
-176.482390
  0
VERTEX
  8
8
  10
1197.103958
  20
-177.261429
  0
VERTEX
  8
8
  10
1197.103958
  20
-177.261429
  0
VERTEX
  8
8
  10
1216.542375
  20
-181.091037
  0
VERTEX
  8
8
  10
1226.856844
  20
-184.266529
  0
VERTEX
  8
8
  10
1236.072412
  20
-188.050573
  0
VERTEX
  8
8
  10
1246.710083
  20
-193.564227
  0
VERTEX
  8
8
  10
1256.803783
  20
-200.005349
  0
VERTEX
  8
8
  10
1266.194821
  20
-207.145323
  0
VERTEX
  8
8
  10
1276.655987
  20
-216.272114
  0
VERTEX
  8
8
  10
1295.357056
  20
-234.216061
  0
VERTEX
  8
8
  10
1295.460295
  20
-234.316567
  0
VERTEX
  8
8
  10
1320.006550
  20
-257.810867
  0
VERTEX
  8
8
  10
1332.009856
  20
-268.217076
  0
VERTEX
  8
8
  10
1341.567779
  20
-275.299293
  0
VERTEX
  8
8
  10
1350.019849
  20
-280.487478
  0
VERTEX
  8
8
  10
1358.921126
  20
-284.881445
  0
VERTEX
  8
8
  10
1363.881226
  20
-286.870785
  0
VERTEX
  8
8
  10
1367.477120
  20
-288.126174
  0
VERTEX
  8
8
  10
1378.143488
  20
-291.144059
  0
VERTEX
  8
8
  10
1389.119696
  20
-293.380995
  0
VERTEX
  8
8
  10
1392.974701
  20
-293.959179
  0
VERTEX
  8
8
  10
1384.919502
  20
-312.125527
  0
VERTEX
  8
8
  10
1372.502594
  20
-340.128517
  0
VERTEX
  8
8
  10
1364.786931
  20
-357.529172
  0
VERTEX
  8
8
  10
1341.425018
  20
-410.215759
  0
VERTEX
  8
8
  10
1184.339523
  20
-410.215759
  0
VERTEX
  8
8
  10
1013.112564
  20
-410.215759
  0
SEQEND
  8
8
  0
POINT
  8
2
 10
1013.112564
 20
-410.215759
  0
TEXT
  8
2
 10
1013.112564
 20
-410.215759
 40
0.000000
 50
0.000000
  1
# 342
  0
POINT
  8
2
 10
961.561890
 20
-293.958588
  0
TEXT
  8
2
 10
961.561890
 20
-293.958588
 40
0.000000
 50
0.000000
  1
# 343
  0
POINT
  8
2
 10
1197.103958
 20
-177.261429
  0
TEXT
  8
2
 10
1197.103958
 20
-177.261429
 40
0.000000
 50
0.000000
  1
# 344
  0
POINT
  8
2
 10
1392.974701
 20
-293.959179
  0
TEXT
  8
2
 10
1392.974701
 20
-293.959179
 40
0.000000
 50
0.000000
  1
# 345
  0
POINT
  8
2
 10
1341.425018
 20
-410.215759
  0
TEXT
  8
2
 10
1341.425018
 20
-410.215759
 40
0.000000
 50
0.000000
  1
# 346
  0
POINT
  8
2
 10
1013.112564
 20
-410.215759
  0
TEXT
  8
2
 10
1013.112564
 20
-410.215759
 40
0.000000
 50
0.000000
  1
# 347
  0
POINT
  8
3
 10
982.034378
 20
-340.128250
  0
POINT
  8
3
 10
972.029773
 20
-290.432475
  0
POINT
  8
3
 10
987.247620
 20
-284.550762
  0
POINT
  8
3
 10
999.736233
 20
-278.832670
  0
POINT
  8
3
 10
1011.802358
 20
-272.260725
  0
POINT
  8
3
 10
1024.260582
 20
-264.229207
  0
POINT
  8
3
 10
1037.053918
 20
-254.637073
  0
POINT
  8
3
 10
1056.339209
 20
-238.432421
  0
POINT
  8
3
 10
1062.209930
 20
-233.334618
  0
POINT
  8
3
 10
1076.206236
 20
-221.429236
  0
POINT
  8
3
 10
1090.589785
 20
-210.121673
  0
POINT
  8
3
 10
1101.568298
 20
-202.412815
  0
POINT
  8
3
 10
1101.904605
 20
-202.191108
  0
POINT
  8
3
 10
1113.643304
 20
-195.038050
  0
POINT
  8
3
 10
1125.909175
 20
-188.859894
  0
POINT
  8
3
 10
1134.687118
 20
-185.283267
  0
POINT
  8
3
 10
1145.587648
 20
-181.746629
  0
POINT
  8
3
 10
1158.994713
 20
-178.649031
  0
POINT
  8
3
 10
1168.371700
 20
-177.262164
  0
POINT
  8
3
 10
1179.792219
 20
-176.488900
  0
POINT
  8
3
 10
1184.341151
 20
-176.482390
  0
POINT
  8
3
 10
1197.103958
 20
-177.261429
  0
POINT
  8
3
 10
1216.542375
 20
-181.091037
  0
POINT
  8
3
 10
1226.856844
 20
-184.266529
  0
POINT
  8
3
 10
1236.072412
 20
-188.050573
  0
POINT
  8
3
 10
1246.710083
 20
-193.564227
  0
POINT
  8
3
 10
1256.803783
 20
-200.005349
  0
POINT
  8
3
 10
1266.194821
 20
-207.145323
  0
POINT
  8
3
 10
1276.655987
 20
-216.272114
  0
POINT
  8
3
 10
1295.357056
 20
-234.216061
  0
POINT
  8
3
 10
1295.460295
 20
-234.316567
  0
POINT
  8
3
 10
1320.006550
 20
-257.810867
  0
POINT
  8
3
 10
1332.009856
 20
-268.217076
  0
POINT
  8
3
 10
1341.567779
 20
-275.299293
  0
POINT
  8
3
 10
1350.019849
 20
-280.487478
  0
POINT
  8
3
 10
1358.921126
 20
-284.881445
  0
POINT
  8
3
 10
1363.881226
 20
-286.870785
  0
POINT
  8
3
 10
1367.477120
 20
-288.126174
  0
POINT
  8
3
 10
1378.143488
 20
-291.144059
  0
POINT
  8
3
 10
1389.119696
 20
-293.380995
  0
POINT
  8
3
 10
1384.919502
 20
-312.125527
  0
POINT
  8
3
 10
1372.502594
 20
-340.128517
  0
POINT
  8
3
 10
1364.786931
 20
-357.529172
  0
POINT
  8
3
 10
1184.339523
 20
-410.215759
  0
POINT
  8
3
 10
1184.341151
 20
-176.482390
  0
TEXT
  8
3
 10
1184.341151
 20
-176.482390
 40
0.000000
 50
0.000000
  1
# 348
  0
POINT
  8
3
 10
1184.339523
 20
-410.215759
  0
TEXT
  8
3
 10
1184.339523
 20
-410.215759
 40
0.000000
 50
0.000000
  1
# 349
  0
POINT
  8
4
 10
982.034378
 20
-340.128250
 30
0.600000
 50
 23.91
  0
TEXT
  8
4
 10
982.034378
 20
-340.128250
 40
0.000000
 50
0.000000
  1
# 350
  0
POINT
  8
4
 10
1062.209930
 20
-233.334618
 30
0.600000
 50
310.93
  0
TEXT
  8
4
 10
1062.209930
 20
-233.334618
 40
0.000000
 50
0.000000
  1
# 351
  0
POINT
  8
4
 10
1101.568298
 20
-202.412815
 30
0.600000
 50
303.45
  0
TEXT
  8
4
 10
1101.568298
 20
-202.412815
 40
0.000000
 50
0.000000
  1
# 352
  0
POINT
  8
4
 10
1197.103958
 20
-177.261429
 30
0.600000
 50
260.26
  0
TEXT
  8
4
 10
1197.103958
 20
-177.261429
 40
0.000000
 50
0.000000
  1
# 353
  0
POINT
  8
4
 10
1295.357056
 20
-234.216061
 30
0.600000
 50
225.73
  0
TEXT
  8
4
 10
1295.357056
 20
-234.216061
 40
0.000000
 50
0.000000
  1
# 354
  0
POINT
  8
4
 10
1363.881226
 20
-286.870785
 30
0.600000
 50
249.73
  0
TEXT
  8
4
 10
1363.881226
 20
-286.870785
 40
0.000000
 50
0.000000
  1
# 355
  0
POINT
  8
4
 10
1372.502594
 20
-340.128517
 30
0.600000
 50
156.09
  0
TEXT
  8
4
 10
1372.502594
 20
-340.128517
 40
0.000000
 50
0.000000
  1
# 356
  0
POLYLINE
  8
11
  66
1
  70
0
  0
VERTEX
  8
1
  10
1184.339828
  20
-176.517830
  0
VERTEX
  8
1
  10
1184.339828
  20
-232.286134
  0
VERTEX
  8
1
  10
1184.339828
  20
-285.014805
  0
VERTEX
  8
1
  10
1184.339828
  20
-336.492945
  0
VERTEX
  8
1
  10
1184.339828
  20
-387.973843
  0
VERTEX
  8
1
  10
1184.339828
  20
-410.215759
  0
SEQEND
  8
11
  0
POINT
  8
2
 10
1184.339828
 20
-176.517830
  0
TEXT
  8
2
 10
1184.339828
 20
-176.517830
 40
0.000000
 50
0.000000
  1
# 357
  0
POINT
  8
2
 10
1184.339828
 20
-410.215759
  0
TEXT
  8
2
 10
1184.339828
 20
-410.215759
 40
0.000000
 50
0.000000
  1
# 358
  0
POINT
  8
3
 10
1184.339828
 20
-232.286134
  0
POINT
  8
3
 10
1184.339828
 20
-285.014805
  0
POINT
  8
3
 10
1184.339828
 20
-336.492945
  0
POINT
  8
3
 10
1184.339828
 20
-387.973843
  0
POLYLINE
  8
11
  66
1
  70
0
  0
VERTEX
  8
1
  10
969.781113
  20
-313.443012
  0
VERTEX
  8
1
  10
1384.755859
  20
-313.443661
  0
SEQEND
  8
11
  0
POINT
  8
2
 10
969.781113
 20
-313.443012
  0
TEXT
  8
2
 10
969.781113
 20
-313.443012
 40
0.000000
 50
0.000000
  1
# 359
  0
POINT
  8
2
 10
1384.755859
 20
-313.443661
  0
TEXT
  8
2
 10
1384.755859
 20
-313.443661
 40
0.000000
 50
0.000000
  1
# 360
  0
POLYLINE
  8
11
  6
2
  66
1
  70
0
  0
VERTEX
  8
1
  10
1348.076172
  20
-395.215759
  0
VERTEX
  8
1
  10
1006.461258
  20
-395.215759
  0
SEQEND
  8
11
  0
POINT
  8
2
 10
1348.076172
 20
-395.215759
  0
TEXT
  8
2
 10
1348.076172
 20
-395.215759
 40
0.000000
 50
0.000000
  1
# 361
  0
POINT
  8
2
 10
1006.461258
 20
-395.215759
  0
TEXT
  8
2
 10
1006.461258
 20
-395.215759
 40
0.000000
 50
0.000000
  1
# 362
  0
POLYLINE
  8
11
  6
2
  66
1
  70
0
  0
VERTEX
  8
1
  10
1350.293274
  20
-390.215759
  0
VERTEX
  8
1
  10
1004.244156
  20
-390.215759
  0
SEQEND
  8
11
  0
POINT
  8
2
 10
1350.293274
 20
-390.215759
  0
TEXT
  8
2
 10
1350.293274
 20
-390.215759
 40
0.000000
 50
0.000000
  1
# 363
  0
POINT
  8
2
 10
1004.244156
 20
-390.215759
  0
TEXT
  8
2
 10
1004.244156
 20
-390.215759
 40
0.000000
 50
0.000000
  1
# 364
 0
LINE
 8
7
 10
1174.856644
 20
-219.191227
 11
1174.856644
 21
-355.601578
  0
TEXT
  8
1
 10
1177.579575
 20
-299.853201
 40
10.000000
 50
0.000000
  1
PIECE NAME: C2590551.袖子
  0
TEXT
  8
1
 10
1177.579575
 20
-284.853201
 40
10.000000
 50
0.000000
  1
Size: M
  0
TEXT
  8
1
 10
1177.579575
 20
-269.853201
 40
10.000000
 50
0.000000
  1
ANNOTATION: 面料 X2
  0
TEXT
  8
1
 10
1177.579575
 20
-254.853201
 40
10.000000
 50
0.000000
  1
QUANTITY: 1,1
  0
TEXT
  8
1
 10
1177.579575
 20
-239.853201
 40
10.000000
 50
0.000000
  1
FABRIC: 面料
  0
TEXT
  8
1
 10
1177.579575
 20
-224.853201
 40
10.000000
 50
0.000000
  1
CATEGORY: 袖子
  0
TEXT
  8
1
 10
1177.579575
 20
-209.853201
 40
10.000000
 50
0.000000
  1
SHRINKAGE: 经:1.0%，纬:1.0%
0
ENDBLK
0
BLOCK
  8
1
  2
C2590551.领子粉色_粉色罗文_M
 70
0
 10
0.0
 20
0.0
  0
POLYLINE
  8
1
  66
1
  70
1
  0
VERTEX
  8
1
  10
480.666199
  20
263.326637
  0
VERTEX
  8
1
  10
406.877136
  20
263.326637
  0
VERTEX
  8
1
  10
406.877136
  20
263.326637
  0
VERTEX
  8
1
  10
387.210581
  20
263.326637
  0
VERTEX
  8
1
  10
323.442776
  20
263.326637
  0
VERTEX
  8
1
  10
326.444754
  20
278.941785
  0
VERTEX
  8
1
  10
327.157369
  20
287.542628
  0
VERTEX
  8
1
  10
327.194937
  20
286.956277
  0
VERTEX
  8
1
  10
326.844797
  20
292.421262
  0
VERTEX
  8
1
  10
323.718197
  20
311.609371
  0
VERTEX
  8
1
  10
350.993180
  20
311.609371
  0
VERTEX
  8
1
  10
406.877136
  20
311.609371
  0
VERTEX
  8
1
  10
460.266842
  20
311.609371
  0
VERTEX
  8
1
  10
480.666199
  20
311.609371
  0
VERTEX
  8
1
  10
508.908081
  20
311.609371
  0
VERTEX
  8
1
  10
558.384171
  20
311.609371
  0
VERTEX
  8
1
  10
624.937019
  20
311.609371
  0
VERTEX
  8
1
  10
691.487579
  20
311.609371
  0
VERTEX
  8
1
  10
740.961227
  20
311.609371
  0
VERTEX
  8
1
  10
778.955738
  20
311.609371
  0
VERTEX
  8
1
  10
775.639106
  20
294.608741
  0
VERTEX
  8
1
  10
775.211985
  20
287.024487
  0
VERTEX
  8
1
  10
775.238322
  20
287.492147
  0
VERTEX
  8
1
  10
775.250762
  20
287.713049
  0
VERTEX
  8
1
  10
775.723093
  20
279.696931
  0
VERTEX
  8
1
  10
779.010391
  20
263.326637
  0
VERTEX
  8
1
  10
740.961227
  20
263.326637
  0
VERTEX
  8
1
  10
740.961227
  20
263.326637
  0
VERTEX
  8
1
  10
691.487579
  20
263.326637
  0
VERTEX
  8
1
  10
691.487579
  20
263.326637
  0
VERTEX
  8
1
  10
624.937019
  20
263.326637
  0
VERTEX
  8
1
  10
624.937019
  20
263.326637
  0
VERTEX
  8
1
  10
558.384171
  20
263.326637
  0
VERTEX
  8
1
  10
558.384171
  20
263.326637
  0
VERTEX
  8
1
  10
508.908081
  20
263.326637
  0
VERTEX
  8
1
  10
508.908081
  20
263.326637
  0
VERTEX
  8
1
  10
480.666199
  20
263.326637
  0
VERTEX
  8
1
  10
480.666199
  20
263.326637
  0
SEQEND
  8
1
  0
POINT
  8
2
 10
480.666199
 20
263.326637
  0
TEXT
  8
2
 10
480.666199
 20
263.326637
 40
0.000000
 50
0.000000
  1
# 365
  0
POINT
  8
2
 10
406.877136
 20
263.326637
  0
TEXT
  8
2
 10
406.877136
 20
263.326637
 40
0.000000
 50
0.000000
  1
# 366
  0
POINT
  8
2
 10
323.442776
 20
263.326637
  0
TEXT
  8
2
 10
323.442776
 20
263.326637
 40
0.000000
 50
0.000000
  1
# 367
  0
POINT
  8
2
 10
327.157369
 20
287.542628
  0
TEXT
  8
2
 10
327.157369
 20
287.542628
 40
0.000000
 50
0.000000
  1
# 368
  0
POINT
  8
2
 10
323.718197
 20
311.609371
  0
TEXT
  8
2
 10
323.718197
 20
311.609371
 40
0.000000
 50
0.000000
  1
# 369
  0
POINT
  8
2
 10
406.877136
 20
311.609371
  0
TEXT
  8
2
 10
406.877136
 20
311.609371
 40
0.000000
 50
0.000000
  1
# 370
  0
POINT
  8
2
 10
480.666199
 20
311.609371
  0
TEXT
  8
2
 10
480.666199
 20
311.609371
 40
0.000000
 50
0.000000
  1
# 371
  0
POINT
  8
2
 10
508.908081
 20
311.609371
  0
TEXT
  8
2
 10
508.908081
 20
311.609371
 40
0.000000
 50
0.000000
  1
# 372
  0
POINT
  8
2
 10
558.384171
 20
311.609371
  0
TEXT
  8
2
 10
558.384171
 20
311.609371
 40
0.000000
 50
0.000000
  1
# 373
  0
POINT
  8
2
 10
624.937019
 20
311.609371
  0
TEXT
  8
2
 10
624.937019
 20
311.609371
 40
0.000000
 50
0.000000
  1
# 374
  0
POINT
  8
2
 10
691.487579
 20
311.609371
  0
TEXT
  8
2
 10
691.487579
 20
311.609371
 40
0.000000
 50
0.000000
  1
# 375
  0
POINT
  8
2
 10
740.961227
 20
311.609371
  0
TEXT
  8
2
 10
740.961227
 20
311.609371
 40
0.000000
 50
0.000000
  1
# 376
  0
POINT
  8
2
 10
778.955738
 20
311.609371
  0
TEXT
  8
2
 10
778.955738
 20
311.609371
 40
0.000000
 50
0.000000
  1
# 377
  0
POINT
  8
2
 10
775.238322
 20
287.492147
  0
TEXT
  8
2
 10
775.238322
 20
287.492147
 40
0.000000
 50
0.000000
  1
# 378
  0
POINT
  8
2
 10
779.010391
 20
263.326637
  0
TEXT
  8
2
 10
779.010391
 20
263.326637
 40
0.000000
 50
0.000000
  1
# 379
  0
POINT
  8
2
 10
740.961227
 20
263.326637
  0
TEXT
  8
2
 10
740.961227
 20
263.326637
 40
0.000000
 50
0.000000
  1
# 380
  0
POINT
  8
2
 10
691.487579
 20
263.326637
  0
TEXT
  8
2
 10
691.487579
 20
263.326637
 40
0.000000
 50
0.000000
  1
# 381
  0
POINT
  8
2
 10
624.937019
 20
263.326637
  0
TEXT
  8
2
 10
624.937019
 20
263.326637
 40
0.000000
 50
0.000000
  1
# 382
  0
POINT
  8
2
 10
558.384171
 20
263.326637
  0
TEXT
  8
2
 10
558.384171
 20
263.326637
 40
0.000000
 50
0.000000
  1
# 383
  0
POINT
  8
2
 10
508.908081
 20
263.326637
  0
TEXT
  8
2
 10
508.908081
 20
263.326637
 40
0.000000
 50
0.000000
  1
# 384
  0
POINT
  8
2
 10
480.666199
 20
263.326637
  0
TEXT
  8
2
 10
480.666199
 20
263.326637
 40
0.000000
 50
0.000000
  1
# 385
  0
POINT
  8
3
 10
406.877136
 20
263.326637
  0
POINT
  8
3
 10
387.210581
 20
263.326637
  0
POINT
  8
3
 10
326.444754
 20
278.941785
  0
POINT
  8
3
 10
327.194937
 20
286.956277
  0
POINT
  8
3
 10
326.844797
 20
292.421262
  0
POINT
  8
3
 10
350.993180
 20
311.609371
  0
POINT
  8
3
 10
460.266842
 20
311.609371
  0
POINT
  8
3
 10
775.639106
 20
294.608741
  0
POINT
  8
3
 10
775.211985
 20
287.024487
  0
POINT
  8
3
 10
775.250762
 20
287.713049
  0
POINT
  8
3
 10
775.723093
 20
279.696931
  0
POINT
  8
3
 10
740.961227
 20
263.326637
  0
POINT
  8
3
 10
691.487579
 20
263.326637
  0
POINT
  8
3
 10
624.937019
 20
263.326637
  0
POINT
  8
3
 10
558.384171
 20
263.326637
  0
POINT
  8
3
 10
508.908081
 20
263.326637
  0
POINT
  8
3
 10
480.666199
 20
263.326637
  0
POINT
  8
3
 10
327.194937
 20
286.956277
  0
TEXT
  8
3
 10
327.194937
 20
286.956277
 40
0.000000
 50
0.000000
  1
# 386
  0
POINT
  8
3
 10
775.211985
 20
287.024487
  0
TEXT
  8
3
 10
775.211985
 20
287.024487
 40
0.000000
 50
0.000000
  1
# 387
  0
POINT
  8
4
 10
406.877136
 20
263.326637
 30
0.600000
 50
 90.00
  0
TEXT
  8
4
 10
406.877136
 20
263.326637
 40
0.000000
 50
0.000000
  1
# 388
  0
POINT
  8
4
 10
775.250762
 20
287.713049
 30
0.600000
 50
181.74
  0
TEXT
  8
4
 10
775.250762
 20
287.713049
 40
0.000000
 50
0.000000
  1
# 389
  0
POINT
  8
4
 10
740.961227
 20
263.326637
 30
0.600000
 50
 90.00
  0
TEXT
  8
4
 10
740.961227
 20
263.326637
 40
0.000000
 50
0.000000
  1
# 390
  0
POINT
  8
4
 10
691.487579
 20
263.326637
 30
0.600000
 50
 90.00
  0
TEXT
  8
4
 10
691.487579
 20
263.326637
 40
0.000000
 50
0.000000
  1
# 391
  0
POINT
  8
4
 10
624.937019
 20
263.326637
 30
0.600000
 50
 90.00
  0
TEXT
  8
4
 10
624.937019
 20
263.326637
 40
0.000000
 50
0.000000
  1
# 392
  0
POINT
  8
4
 10
558.384171
 20
263.326637
 30
0.600000
 50
 90.00
  0
TEXT
  8
4
 10
558.384171
 20
263.326637
 40
0.000000
 50
0.000000
  1
# 393
  0
POINT
  8
4
 10
508.908081
 20
263.326637
 30
0.600000
 50
 90.00
  0
TEXT
  8
4
 10
508.908081
 20
263.326637
 40
0.000000
 50
0.000000
  1
# 394
  0
POINT
  8
4
 10
480.666199
 20
263.326637
 30
0.600000
 50
 90.00
  0
TEXT
  8
4
 10
480.666199
 20
263.326637
 40
0.000000
 50
0.000000
  1
# 395
  0
POLYLINE
  8
8
  66
1
  70
1
  0
VERTEX
  8
8
  10
480.666199
  20
271.326637
  0
VERTEX
  8
8
  10
406.877136
  20
271.326637
  0
VERTEX
  8
8
  10
406.877136
  20
271.326637
  0
VERTEX
  8
8
  10
387.210581
  20
271.326637
  0
VERTEX
  8
8
  10
333.127251
  20
271.326637
  0
VERTEX
  8
8
  10
334.353550
  20
277.737231
  0
VERTEX
  8
8
  10
335.178566
  20
287.467785
  0
VERTEX
  8
8
  10
335.178566
  20
287.467785
  0
VERTEX
  8
8
  10
334.809552
  20
293.171382
  0
VERTEX
  8
8
  10
333.127251
  20
303.609371
  0
VERTEX
  8
8
  10
350.993180
  20
303.609371
  0
VERTEX
  8
8
  10
406.877136
  20
303.609371
  0
VERTEX
  8
8
  10
460.266842
  20
303.609371
  0
VERTEX
  8
8
  10
480.666199
  20
303.609371
  0
VERTEX
  8
8
  10
508.908081
  20
303.609371
  0
VERTEX
  8
8
  10
558.384171
  20
303.609371
  0
VERTEX
  8
8
  10
624.937019
  20
303.609371
  0
VERTEX
  8
8
  10
691.487579
  20
303.609371
  0
VERTEX
  8
8
  10
740.961227
  20
303.609371
  0
VERTEX
  8
8
  10
769.244232
  20
303.609371
  0
VERTEX
  8
8
  10
767.700956
  20
295.601599
  0
VERTEX
  8
8
  10
767.224317
  20
287.474328
  0
VERTEX
  8
8
  10
767.224350
  20
287.468777
  0
VERTEX
  8
8
  10
767.224350
  20
287.468777
  0
VERTEX
  8
8
  10
767.801294
  20
278.581093
  0
VERTEX
  8
8
  10
769.244232
  20
271.326637
  0
VERTEX
  8
8
  10
740.961227
  20
271.326637
  0
VERTEX
  8
8
  10
740.961227
  20
271.326637
  0
VERTEX
  8
8
  10
691.487579
  20
271.326637
  0
VERTEX
  8
8
  10
691.487579
  20
271.326637
  0
VERTEX
  8
8
  10
624.937019
  20
271.326637
  0
VERTEX
  8
8
  10
624.937019
  20
271.326637
  0
VERTEX
  8
8
  10
558.384171
  20
271.326637
  0
VERTEX
  8
8
  10
558.384171
  20
271.326637
  0
VERTEX
  8
8
  10
508.908081
  20
271.326637
  0
VERTEX
  8
8
  10
508.908081
  20
271.326637
  0
VERTEX
  8
8
  10
480.666199
  20
271.326637
  0
VERTEX
  8
8
  10
480.666199
  20
271.326637
  0
SEQEND
  8
8
  0
POINT
  8
2
 10
480.666199
 20
271.326637
  0
TEXT
  8
2
 10
480.666199
 20
271.326637
 40
0.000000
 50
0.000000
  1
# 396
  0
POINT
  8
2
 10
406.877136
 20
271.326637
  0
TEXT
  8
2
 10
406.877136
 20
271.326637
 40
0.000000
 50
0.000000
  1
# 397
  0
POINT
  8
2
 10
333.127251
 20
271.326637
  0
TEXT
  8
2
 10
333.127251
 20
271.326637
 40
0.000000
 50
0.000000
  1
# 398
  0
POINT
  8
2
 10
335.178566
 20
287.467785
  0
TEXT
  8
2
 10
335.178566
 20
287.467785
 40
0.000000
 50
0.000000
  1
# 399
  0
POINT
  8
2
 10
333.127251
 20
303.609371
  0
TEXT
  8
2
 10
333.127251
 20
303.609371
 40
0.000000
 50
0.000000
  1
# 400
  0
POINT
  8
2
 10
406.877136
 20
303.609371
  0
TEXT
  8
2
 10
406.877136
 20
303.609371
 40
0.000000
 50
0.000000
  1
# 401
  0
POINT
  8
2
 10
480.666199
 20
303.609371
  0
TEXT
  8
2
 10
480.666199
 20
303.609371
 40
0.000000
 50
0.000000
  1
# 402
  0
POINT
  8
2
 10
508.908081
 20
303.609371
  0
TEXT
  8
2
 10
508.908081
 20
303.609371
 40
0.000000
 50
0.000000
  1
# 403
  0
POINT
  8
2
 10
558.384171
 20
303.609371
  0
TEXT
  8
2
 10
558.384171
 20
303.609371
 40
0.000000
 50
0.000000
  1
# 404
  0
POINT
  8
2
 10
624.937019
 20
303.609371
  0
TEXT
  8
2
 10
624.937019
 20
303.609371
 40
0.000000
 50
0.000000
  1
# 405
  0
POINT
  8
2
 10
691.487579
 20
303.609371
  0
TEXT
  8
2
 10
691.487579
 20
303.609371
 40
0.000000
 50
0.000000
  1
# 406
  0
POINT
  8
2
 10
740.961227
 20
303.609371
  0
TEXT
  8
2
 10
740.961227
 20
303.609371
 40
0.000000
 50
0.000000
  1
# 407
  0
POINT
  8
2
 10
769.244232
 20
303.609371
  0
TEXT
  8
2
 10
769.244232
 20
303.609371
 40
0.000000
 50
0.000000
  1
# 408
  0
POINT
  8
2
 10
767.224350
 20
287.468777
  0
TEXT
  8
2
 10
767.224350
 20
287.468777
 40
0.000000
 50
0.000000
  1
# 409
  0
POINT
  8
2
 10
769.244232
 20
271.326637
  0
TEXT
  8
2
 10
769.244232
 20
271.326637
 40
0.000000
 50
0.000000
  1
# 410
  0
POINT
  8
2
 10
740.961227
 20
271.326637
  0
TEXT
  8
2
 10
740.961227
 20
271.326637
 40
0.000000
 50
0.000000
  1
# 411
  0
POINT
  8
2
 10
691.487579
 20
271.326637
  0
TEXT
  8
2
 10
691.487579
 20
271.326637
 40
0.000000
 50
0.000000
  1
# 412
  0
POINT
  8
2
 10
624.937019
 20
271.326637
  0
TEXT
  8
2
 10
624.937019
 20
271.326637
 40
0.000000
 50
0.000000
  1
# 413
  0
POINT
  8
2
 10
558.384171
 20
271.326637
  0
TEXT
  8
2
 10
558.384171
 20
271.326637
 40
0.000000
 50
0.000000
  1
# 414
  0
POINT
  8
2
 10
508.908081
 20
271.326637
  0
TEXT
  8
2
 10
508.908081
 20
271.326637
 40
0.000000
 50
0.000000
  1
# 415
  0
POINT
  8
2
 10
480.666199
 20
271.326637
  0
TEXT
  8
2
 10
480.666199
 20
271.326637
 40
0.000000
 50
0.000000
  1
# 416
  0
POINT
  8
3
 10
406.877136
 20
271.326637
  0
POINT
  8
3
 10
387.210581
 20
271.326637
  0
POINT
  8
3
 10
334.353550
 20
277.737231
  0
POINT
  8
3
 10
335.178566
 20
287.467785
  0
POINT
  8
3
 10
334.809552
 20
293.171382
  0
POINT
  8
3
 10
350.993180
 20
303.609371
  0
POINT
  8
3
 10
460.266842
 20
303.609371
  0
POINT
  8
3
 10
767.700956
 20
295.601599
  0
POINT
  8
3
 10
767.224317
 20
287.474328
  0
POINT
  8
3
 10
767.224350
 20
287.468777
  0
POINT
  8
3
 10
767.801294
 20
278.581093
  0
POINT
  8
3
 10
740.961227
 20
271.326637
  0
POINT
  8
3
 10
691.487579
 20
271.326637
  0
POINT
  8
3
 10
624.937019
 20
271.326637
  0
POINT
  8
3
 10
558.384171
 20
271.326637
  0
POINT
  8
3
 10
508.908081
 20
271.326637
  0
POINT
  8
3
 10
480.666199
 20
271.326637
  0
POINT
  8
3
 10
335.178566
 20
287.467785
  0
TEXT
  8
3
 10
335.178566
 20
287.467785
 40
0.000000
 50
0.000000
  1
# 417
  0
POINT
  8
3
 10
767.224317
 20
287.474328
  0
TEXT
  8
3
 10
767.224317
 20
287.474328
 40
0.000000
 50
0.000000
  1
# 418
  0
POINT
  8
4
 10
406.877136
 20
271.326637
 30
0.600000
 50
 90.00
  0
TEXT
  8
4
 10
406.877136
 20
271.326637
 40
0.000000
 50
0.000000
  1
# 419
  0
POINT
  8
4
 10
767.224350
 20
287.468777
 30
0.600000
 50
181.74
  0
TEXT
  8
4
 10
767.224350
 20
287.468777
 40
0.000000
 50
0.000000
  1
# 420
  0
POINT
  8
4
 10
740.961227
 20
271.326637
 30
0.600000
 50
 90.00
  0
TEXT
  8
4
 10
740.961227
 20
271.326637
 40
0.000000
 50
0.000000
  1
# 421
  0
POINT
  8
4
 10
691.487579
 20
271.326637
 30
0.600000
 50
 90.00
  0
TEXT
  8
4
 10
691.487579
 20
271.326637
 40
0.000000
 50
0.000000
  1
# 422
  0
POINT
  8
4
 10
624.937019
 20
271.326637
 30
0.600000
 50
 90.00
  0
TEXT
  8
4
 10
624.937019
 20
271.326637
 40
0.000000
 50
0.000000
  1
# 423
  0
POINT
  8
4
 10
558.384171
 20
271.326637
 30
0.600000
 50
 90.00
  0
TEXT
  8
4
 10
558.384171
 20
271.326637
 40
0.000000
 50
0.000000
  1
# 424
  0
POINT
  8
4
 10
508.908081
 20
271.326637
 30
0.600000
 50
 90.00
  0
TEXT
  8
4
 10
508.908081
 20
271.326637
 40
0.000000
 50
0.000000
  1
# 425
  0
POINT
  8
4
 10
480.666199
 20
271.326637
 30
0.600000
 50
 90.00
  0
TEXT
  8
4
 10
480.666199
 20
271.326637
 40
0.000000
 50
0.000000
  1
# 426
  0
POLYLINE
  8
11
  66
1
  70
0
  0
VERTEX
  8
1
  10
508.908081
  20
303.609371
  0
VERTEX
  8
1
  10
508.908081
  20
287.467995
  0
SEQEND
  8
11
  0
POINT
  8
2
 10
508.908081
 20
303.609371
  0
TEXT
  8
2
 10
508.908081
 20
303.609371
 40
0.000000
 50
0.000000
  1
# 427
  0
POINT
  8
2
 10
508.908081
 20
287.467995
  0
TEXT
  8
2
 10
508.908081
 20
287.467995
 40
0.000000
 50
0.000000
  1
# 428
  0
POLYLINE
  8
11
  66
1
  70
0
  0
VERTEX
  8
1
  10
406.877136
  20
271.326637
  0
VERTEX
  8
1
  10
406.877136
  20
287.467346
  0
SEQEND
  8
11
  0
POINT
  8
2
 10
406.877136
 20
271.326637
  0
TEXT
  8
2
 10
406.877136
 20
271.326637
 40
0.000000
 50
0.000000
  1
# 429
  0
POINT
  8
2
 10
406.877136
 20
287.467346
  0
TEXT
  8
2
 10
406.877136
 20
287.467346
 40
0.000000
 50
0.000000
  1
# 430
  0
POLYLINE
  8
11
  66
1
  70
0
  0
VERTEX
  8
1
  10
558.384171
  20
303.609371
  0
VERTEX
  8
1
  10
558.384171
  20
287.467995
  0
SEQEND
  8
11
  0
POINT
  8
2
 10
558.384171
 20
303.609371
  0
TEXT
  8
2
 10
558.384171
 20
303.609371
 40
0.000000
 50
0.000000
  1
# 431
  0
POINT
  8
2
 10
558.384171
 20
287.467995
  0
TEXT
  8
2
 10
558.384171
 20
287.467995
 40
0.000000
 50
0.000000
  1
# 432
  0
POLYLINE
  8
11
  66
1
  70
0
  0
VERTEX
  8
1
  10
624.937019
  20
303.609371
  0
VERTEX
  8
1
  10
624.937019
  20
287.468185
  0
SEQEND
  8
11
  0
POINT
  8
2
 10
624.937019
 20
303.609371
  0
TEXT
  8
2
 10
624.937019
 20
303.609371
 40
0.000000
 50
0.000000
  1
# 433
  0
POINT
  8
2
 10
624.937019
 20
287.468185
  0
TEXT
  8
2
 10
624.937019
 20
287.468185
 40
0.000000
 50
0.000000
  1
# 434
  0
POLYLINE
  8
11
  66
1
  70
0
  0
VERTEX
  8
1
  10
691.487579
  20
303.609371
  0
VERTEX
  8
1
  10
691.487579
  20
287.467995
  0
SEQEND
  8
11
  0
POINT
  8
2
 10
691.487579
 20
303.609371
  0
TEXT
  8
2
 10
691.487579
 20
303.609371
 40
0.000000
 50
0.000000
  1
# 435
  0
POINT
  8
2
 10
691.487579
 20
287.467995
  0
TEXT
  8
2
 10
691.487579
 20
287.467995
 40
0.000000
 50
0.000000
  1
# 436
  0
POLYLINE
  8
11
  66
1
  70
0
  0
VERTEX
  8
1
  10
740.961227
  20
303.609371
  0
VERTEX
  8
1
  10
740.961227
  20
287.468662
  0
SEQEND
  8
11
  0
POINT
  8
2
 10
740.961227
 20
303.609371
  0
TEXT
  8
2
 10
740.961227
 20
303.609371
 40
0.000000
 50
0.000000
  1
# 437
  0
POINT
  8
2
 10
740.961227
 20
287.468662
  0
TEXT
  8
2
 10
740.961227
 20
287.468662
 40
0.000000
 50
0.000000
  1
# 438
  0
POLYLINE
  8
11
  66
1
  70
0
  0
VERTEX
  8
1
  10
335.178566
  20
287.467098
  0
VERTEX
  8
1
  10
767.224350
  20
287.468777
  0
SEQEND
  8
11
  0
POINT
  8
2
 10
335.178566
 20
287.467098
  0
TEXT
  8
2
 10
335.178566
 20
287.467098
 40
0.000000
 50
0.000000
  1
# 439
  0
POINT
  8
2
 10
767.224350
 20
287.468777
  0
TEXT
  8
2
 10
767.224350
 20
287.468777
 40
0.000000
 50
0.000000
  1
# 440
  0
POLYLINE
  8
11
  66
1
  70
0
  0
VERTEX
  8
1
  10
406.877136
  20
287.467346
  0
VERTEX
  8
1
  10
406.877136
  20
303.609371
  0
SEQEND
  8
11
  0
POINT
  8
2
 10
406.877136
 20
287.467346
  0
TEXT
  8
2
 10
406.877136
 20
287.467346
 40
0.000000
 50
0.000000
  1
# 441
  0
POINT
  8
2
 10
406.877136
 20
303.609371
  0
TEXT
  8
2
 10
406.877136
 20
303.609371
 40
0.000000
 50
0.000000
  1
# 442
  0
POLYLINE
  8
11
  66
1
  70
0
  0
VERTEX
  8
1
  10
508.908081
  20
287.467995
  0
VERTEX
  8
1
  10
508.908081
  20
271.326637
  0
SEQEND
  8
11
  0
POINT
  8
2
 10
508.908081
 20
287.467995
  0
TEXT
  8
2
 10
508.908081
 20
287.467995
 40
0.000000
 50
0.000000
  1
# 443
  0
POINT
  8
2
 10
508.908081
 20
271.326637
  0
TEXT
  8
2
 10
508.908081
 20
271.326637
 40
0.000000
 50
0.000000
  1
# 444
  0
POLYLINE
  8
11
  66
1
  70
0
  0
VERTEX
  8
1
  10
558.384171
  20
287.467995
  0
VERTEX
  8
1
  10
558.384171
  20
271.326637
  0
SEQEND
  8
11
  0
POINT
  8
2
 10
558.384171
 20
287.467995
  0
TEXT
  8
2
 10
558.384171
 20
287.467995
 40
0.000000
 50
0.000000
  1
# 445
  0
POINT
  8
2
 10
558.384171
 20
271.326637
  0
TEXT
  8
2
 10
558.384171
 20
271.326637
 40
0.000000
 50
0.000000
  1
# 446
  0
POLYLINE
  8
11
  66
1
  70
0
  0
VERTEX
  8
1
  10
624.937019
  20
287.468185
  0
VERTEX
  8
1
  10
624.937019
  20
271.326637
  0
SEQEND
  8
11
  0
POINT
  8
2
 10
624.937019
 20
287.468185
  0
TEXT
  8
2
 10
624.937019
 20
287.468185
 40
0.000000
 50
0.000000
  1
# 447
  0
POINT
  8
2
 10
624.937019
 20
271.326637
  0
TEXT
  8
2
 10
624.937019
 20
271.326637
 40
0.000000
 50
0.000000
  1
# 448
  0
POLYLINE
  8
11
  66
1
  70
0
  0
VERTEX
  8
1
  10
691.487579
  20
287.467995
  0
VERTEX
  8
1
  10
691.487579
  20
271.326637
  0
SEQEND
  8
11
  0
POINT
  8
2
 10
691.487579
 20
287.467995
  0
TEXT
  8
2
 10
691.487579
 20
287.467995
 40
0.000000
 50
0.000000
  1
# 449
  0
POINT
  8
2
 10
691.487579
 20
271.326637
  0
TEXT
  8
2
 10
691.487579
 20
271.326637
 40
0.000000
 50
0.000000
  1
# 450
  0
POLYLINE
  8
11
  66
1
  70
0
  0
VERTEX
  8
1
  10
740.961227
  20
287.468662
  0
VERTEX
  8
1
  10
740.961227
  20
271.326637
  0
SEQEND
  8
11
  0
POINT
  8
2
 10
740.961227
 20
287.468662
  0
TEXT
  8
2
 10
740.961227
 20
287.468662
 40
0.000000
 50
0.000000
  1
# 451
  0
POINT
  8
2
 10
740.961227
 20
271.326637
  0
TEXT
  8
2
 10
740.961227
 20
271.326637
 40
0.000000
 50
0.000000
  1
# 452
  0
POLYLINE
  8
11
  66
1
  70
0
  0
VERTEX
  8
1
  10
480.666199
  20
271.326637
  0
VERTEX
  8
1
  10
480.666199
  20
287.467670
  0
SEQEND
  8
11
  0
POINT
  8
2
 10
480.666199
 20
271.326637
  0
TEXT
  8
2
 10
480.666199
 20
271.326637
 40
0.000000
 50
0.000000
  1
# 453
  0
POINT
  8
2
 10
480.666199
 20
287.467670
  0
TEXT
  8
2
 10
480.666199
 20
287.467670
 40
0.000000
 50
0.000000
  1
# 454
  0
POLYLINE
  8
11
  66
1
  70
0
  0
VERTEX
  8
1
  10
480.666199
  20
287.467670
  0
VERTEX
  8
1
  10
480.666199
  20
303.609371
  0
SEQEND
  8
11
  0
POINT
  8
2
 10
480.666199
 20
287.467670
  0
TEXT
  8
2
 10
480.666199
 20
287.467670
 40
0.000000
 50
0.000000
  1
# 455
  0
POINT
  8
2
 10
480.666199
 20
303.609371
  0
TEXT
  8
2
 10
480.666199
 20
303.609371
 40
0.000000
 50
0.000000
  1
# 456
 0
LINE
 8
7
 10
528.223267
 20
298.522816
 11
528.223267
 21
278.773594
  0
TEXT
  8
1
 10
396.120644
 20
277.273197
 40
10.101010
 50
358.939088
  1
后中
  0
TEXT
  8
1
 10
614.026070
 20
276.126289
 40
10.101008
 50
359.325963
  1
前中
  0
TEXT
  8
1
 10
551.226578
 20
287.468004
 40
10.000000
 50
0.000000
  1
PIECE NAME: C2590551.领子粉色
  0
TEXT
  8
1
 10
551.226578
 20
302.468004
 40
10.000000
 50
0.000000
  1
Size: M
  0
TEXT
  8
1
 10
551.226578
 20
317.468004
 40
10.000000
 50
0.000000
  1
ANNOTATION: 粉色罗文 X1
  0
TEXT
  8
1
 10
551.226578
 20
332.468004
 40
10.000000
 50
0.000000
  1
QUANTITY: 1
  0
TEXT
  8
1
 10
551.226578
 20
347.468004
 40
10.000000
 50
0.000000
  1
FABRIC: 粉色罗文
  0
TEXT
  8
1
 10
551.226578
 20
362.468004
 40
10.000000
 50
0.000000
  1
CATEGORY: 领子粉色
  0
TEXT
  8
1
 10
551.226578
 20
377.468004
 40
10.000000
 50
0.000000
  1
SHRINKAGE: 经:1.0%，纬:1.0%
0
ENDBLK
0
BLOCK
  8
1
  2
C2590551.绣花衬_弹力衬_M
 70
0
 10
0.0
 20
0.0
  0
POLYLINE
  8
1
  66
1
  70
1
  0
VERTEX
  8
1
  10
858.706435
  20
-33.797541
  0
VERTEX
  8
1
  10
856.829221
  20
-33.649801
  0
VERTEX
  8
1
  10
854.998231
  20
-33.210219
  0
VERTEX
  8
1
  10
853.258549
  20
-32.489618
  0
VERTEX
  8
1
  10
851.653012
  20
-31.505744
  0
VERTEX
  8
1
  10
850.221154
  20
-30.282821
  0
VERTEX
  8
1
  10
848.998232
  20
-28.850963
  0
VERTEX
  8
1
  10
848.014357
  20
-27.245426
  0
VERTEX
  8
1
  10
847.293757
  20
-25.505744
  0
VERTEX
  8
1
  10
846.854176
  20
-23.674754
  0
VERTEX
  8
1
  10
846.706436
  20
-21.797540
  0
VERTEX
  8
1
  10
846.706436
  20
6.202459
  0
VERTEX
  8
1
  10
846.828578
  20
7.910237
  0
VERTEX
  8
1
  10
847.192520
  20
9.583250
  0
VERTEX
  8
1
  10
847.790852
  20
11.187440
  0
VERTEX
  8
1
  10
848.611393
  20
12.690149
  0
VERTEX
  8
1
  10
849.637441
  20
14.060788
  0
VERTEX
  8
1
  10
850.848107
  20
15.271455
  0
VERTEX
  8
1
  10
852.218746
  20
16.297502
  0
VERTEX
  8
1
  10
853.721456
  20
17.118044
  0
VERTEX
  8
1
  10
855.325645
  20
17.716375
  0
VERTEX
  8
1
  10
856.998658
  20
18.080317
  0
VERTEX
  8
1
  10
858.706436
  20
18.202460
  0
VERTEX
  8
1
  10
878.706436
  20
18.202460
  0
VERTEX
  8
1
  10
880.414214
  20
18.080317
  0
VERTEX
  8
1
  10
882.087227
  20
17.716375
  0
VERTEX
  8
1
  10
883.691417
  20
17.118044
  0
VERTEX
  8
1
  10
885.194126
  20
16.297502
  0
VERTEX
  8
1
  10
886.564765
  20
15.271455
  0
VERTEX
  8
1
  10
887.775431
  20
14.060788
  0
VERTEX
  8
1
  10
888.801479
  20
12.690149
  0
VERTEX
  8
1
  10
889.622021
  20
11.187440
  0
VERTEX
  8
1
  10
890.220352
  20
9.583250
  0
VERTEX
  8
1
  10
890.584294
  20
7.910237
  0
VERTEX
  8
1
  10
890.706437
  20
6.202459
  0
VERTEX
  8
1
  10
890.706437
  20
-21.797540
  0
VERTEX
  8
1
  10
890.584294
  20
-23.505318
  0
VERTEX
  8
1
  10
890.220352
  20
-25.178331
  0
VERTEX
  8
1
  10
889.622020
  20
-26.782521
  0
VERTEX
  8
1
  10
888.801479
  20
-28.285231
  0
VERTEX
  8
1
  10
887.775431
  20
-29.655870
  0
VERTEX
  8
1
  10
886.564765
  20
-30.866536
  0
VERTEX
  8
1
  10
885.194126
  20
-31.892583
  0
VERTEX
  8
1
  10
883.691416
  20
-32.713125
  0
VERTEX
  8
1
  10
882.087226
  20
-33.311457
  0
VERTEX
  8
1
  10
880.414213
  20
-33.675398
  0
VERTEX
  8
1
  10
878.706435
  20
-33.797541
  0
VERTEX
  8
1
  10
858.706435
  20
-33.797541
  0
SEQEND
  8
1
  0
POINT
  8
2
 10
858.706435
 20
-33.797541
  0
TEXT
  8
2
 10
858.706435
 20
-33.797541
 40
0.000000
 50
0.000000
  1
# 457
  0
POINT
  8
2
 10
846.706436
 20
-21.797540
  0
TEXT
  8
2
 10
846.706436
 20
-21.797540
 40
0.000000
 50
0.000000
  1
# 458
  0
POINT
  8
2
 10
846.706436
 20
6.202459
  0
TEXT
  8
2
 10
846.706436
 20
6.202459
 40
0.000000
 50
0.000000
  1
# 459
  0
POINT
  8
2
 10
858.706436
 20
18.202460
  0
TEXT
  8
2
 10
858.706436
 20
18.202460
 40
0.000000
 50
0.000000
  1
# 460
  0
POINT
  8
2
 10
878.706436
 20
18.202460
  0
TEXT
  8
2
 10
878.706436
 20
18.202460
 40
0.000000
 50
0.000000
  1
# 461
  0
POINT
  8
2
 10
890.706437
 20
6.202459
  0
TEXT
  8
2
 10
890.706437
 20
6.202459
 40
0.000000
 50
0.000000
  1
# 462
  0
POINT
  8
2
 10
890.706437
 20
-21.797540
  0
TEXT
  8
2
 10
890.706437
 20
-21.797540
 40
0.000000
 50
0.000000
  1
# 463
  0
POINT
  8
2
 10
878.706435
 20
-33.797541
  0
TEXT
  8
2
 10
878.706435
 20
-33.797541
 40
0.000000
 50
0.000000
  1
# 464
  0
POINT
  8
2
 10
858.706435
 20
-33.797541
  0
TEXT
  8
2
 10
858.706435
 20
-33.797541
 40
0.000000
 50
0.000000
  1
# 465
  0
POINT
  8
3
 10
856.829221
 20
-33.649801
  0
POINT
  8
3
 10
854.998231
 20
-33.210219
  0
POINT
  8
3
 10
853.258549
 20
-32.489618
  0
POINT
  8
3
 10
851.653012
 20
-31.505744
  0
POINT
  8
3
 10
850.221154
 20
-30.282821
  0
POINT
  8
3
 10
848.998232
 20
-28.850963
  0
POINT
  8
3
 10
848.014357
 20
-27.245426
  0
POINT
  8
3
 10
847.293757
 20
-25.505744
  0
POINT
  8
3
 10
846.854176
 20
-23.674754
  0
POINT
  8
3
 10
846.828578
 20
7.910237
  0
POINT
  8
3
 10
847.192520
 20
9.583250
  0
POINT
  8
3
 10
847.790852
 20
11.187440
  0
POINT
  8
3
 10
848.611393
 20
12.690149
  0
POINT
  8
3
 10
849.637441
 20
14.060788
  0
POINT
  8
3
 10
850.848107
 20
15.271455
  0
POINT
  8
3
 10
852.218746
 20
16.297502
  0
POINT
  8
3
 10
853.721456
 20
17.118044
  0
POINT
  8
3
 10
855.325645
 20
17.716375
  0
POINT
  8
3
 10
856.998658
 20
18.080317
  0
POINT
  8
3
 10
880.414214
 20
18.080317
  0
POINT
  8
3
 10
882.087227
 20
17.716375
  0
POINT
  8
3
 10
883.691417
 20
17.118044
  0
POINT
  8
3
 10
885.194126
 20
16.297502
  0
POINT
  8
3
 10
886.564765
 20
15.271455
  0
POINT
  8
3
 10
887.775431
 20
14.060788
  0
POINT
  8
3
 10
888.801479
 20
12.690149
  0
POINT
  8
3
 10
889.622021
 20
11.187440
  0
POINT
  8
3
 10
890.220352
 20
9.583250
  0
POINT
  8
3
 10
890.584294
 20
7.910237
  0
POINT
  8
3
 10
890.584294
 20
-23.505318
  0
POINT
  8
3
 10
890.220352
 20
-25.178331
  0
POINT
  8
3
 10
889.622020
 20
-26.782521
  0
POINT
  8
3
 10
888.801479
 20
-28.285231
  0
POINT
  8
3
 10
887.775431
 20
-29.655870
  0
POINT
  8
3
 10
886.564765
 20
-30.866536
  0
POINT
  8
3
 10
885.194126
 20
-31.892583
  0
POINT
  8
3
 10
883.691416
 20
-32.713125
  0
POINT
  8
3
 10
882.087226
 20
-33.311457
  0
POINT
  8
3
 10
880.414213
 20
-33.675398
  0
POLYLINE
  8
8
  66
1
  70
1
  0
VERTEX
  8
8
  10
858.706436
  20
-21.797540
  0
VERTEX
  8
8
  10
858.706436
  20
6.202459
  0
VERTEX
  8
8
  10
878.706436
  20
6.202459
  0
VERTEX
  8
8
  10
878.706436
  20
-21.797540
  0
VERTEX
  8
8
  10
858.706436
  20
-21.797540
  0
SEQEND
  8
8
  0
POINT
  8
2
 10
858.706436
 20
-21.797540
  0
TEXT
  8
2
 10
858.706436
 20
-21.797540
 40
0.000000
 50
0.000000
  1
# 466
  0
POINT
  8
2
 10
858.706436
 20
6.202459
  0
TEXT
  8
2
 10
858.706436
 20
6.202459
 40
0.000000
 50
0.000000
  1
# 467
  0
POINT
  8
2
 10
878.706436
 20
6.202459
  0
TEXT
  8
2
 10
878.706436
 20
6.202459
 40
0.000000
 50
0.000000
  1
# 468
  0
POINT
  8
2
 10
878.706436
 20
-21.797540
  0
TEXT
  8
2
 10
878.706436
 20
-21.797540
 40
0.000000
 50
0.000000
  1
# 469
  0
POINT
  8
2
 10
858.706436
 20
-21.797540
  0
TEXT
  8
2
 10
858.706436
 20
-21.797540
 40
0.000000
 50
0.000000
  1
# 470
 0
LINE
 8
7
 10
868.512268
 20
0.728721
 11
868.512268
 21
-14.978765
  0
TEXT
  8
1
 10
868.706436
 20
-7.797540
 40
10.000000
 50
0.000000
  1
PIECE NAME: C2590551.绣花衬
  0
TEXT
  8
1
 10
868.706436
 20
7.202460
 40
10.000000
 50
0.000000
  1
Size: M
  0
TEXT
  8
1
 10
868.706436
 20
22.202460
 40
10.000000
 50
0.000000
  1
ANNOTATION: 弹力衬 X1
  0
TEXT
  8
1
 10
868.706436
 20
37.202460
 40
10.000000
 50
0.000000
  1
QUANTITY: 1
  0
TEXT
  8
1
 10
868.706436
 20
52.202460
 40
10.000000
 50
0.000000
  1
FABRIC: 弹力衬
  0
TEXT
  8
1
 10
868.706436
 20
67.202460
 40
10.000000
 50
0.000000
  1
CATEGORY: 绣花衬
0
ENDBLK
  0
ENDSEC
  0
SECTION
  2
ENTITIES
  0
INSERT
  8
1
  2
C2590551.前片_面料_M
  10
0.000000
  20
0.000000
  0
INSERT
  8
1
  2
C2590551.后片_面料_M
  10
0.000000
  20
0.000000
  0
INSERT
  8
1
  2
C2590551.领子_罗纹_M
  10
0.000000
  20
0.000000
  0
INSERT
  8
1
  2
C2590551.袖子_面料_M
  10
0.000000
  20
0.000000
  0
INSERT
  8
1
  2
C2590551.领子粉色_粉色罗文_M
  10
0.000000
  20
0.000000
  0
INSERT
  8
1
  2
C2590551.绣花衬_弹力衬_M
  10
0.000000
  20
0.000000
  0
TEXT
  8
1
 10
505.556984
 20
-714.781342
 40
10.000000
 50
0.000000
  1
STYLE NAME: C2590551
  0
TEXT
  8
1
 10
505.556984
 20
-729.781342
 40
10.000000
 50
0.000000
  1
CREATION DATE: 2025/11/6/13/27
  0
TEXT
  8
1
 10
505.556984
 20
-744.781342
 40
10.000000
 50
0.000000
  1
AUTHOR: BUYI-TECH
  0
TEXT
  8
1
 10
505.556984
 20
-759.781342
 40
10.000000
 50
0.000000
  1
SAMPLE SIZE: M
  0
TEXT
  8
1
 10
505.556984
 20
-774.781342
 40
10.000000
 50
0.000000
  1
GRADE RULE TABLE: C2590551
  0
TEXT
  8
1
 10
505.556984
 20
-789.781342
 40
10.000000
 50
0.000000
  1
UNITS: METRIC
  0
ENDSEC
  0
EOF
