999
ANSI/AAMA
  0
SECTION
  2
BLOCKS
0
BLOCK
  8
1
  2
C2590428.前身片_面料1_M
 70
0
 10
0.0
 20
0.0
  0
POLYLINE
  8
1
  66
1
  70
1
  0
VERTEX
  8
1
  10
10475.439453
  20
-898.450479
  0
VERTEX
  8
1
  10
10461.906793
  20
-898.320463
  0
VERTEX
  8
1
  10
10415.841678
  20
-897.306733
  0
VERTEX
  8
1
  10
10369.869210
  20
-895.415439
  0
VERTEX
  8
1
  10
10330.517615
  20
-892.868347
  0
VERTEX
  8
1
  10
10282.605407
  20
-888.577586
  0
VERTEX
  8
1
  10
10234.910493
  20
-883.197805
  0
VERTEX
  8
1
  10
10167.245640
  20
-874.301411
  0
VERTEX
  8
1
  10
10172.429278
  20
-849.928698
  0
VERTEX
  8
1
  10
10172.895284
  20
-821.868854
  0
VERTEX
  8
1
  10
10173.668251
  20
-770.821588
  0
VERTEX
  8
1
  10
10173.681052
  20
-769.976196
  0
VERTEX
  8
1
  10
10174.508394
  20
-705.810511
  0
VERTEX
  8
1
  10
10174.916274
  20
-664.588756
  0
VERTEX
  8
1
  10
10175.188876
  20
-611.651946
  0
VERTEX
  8
1
  10
10174.932056
  20
-546.590603
  0
VERTEX
  8
1
  10
10174.927829
  20
-545.519697
  0
VERTEX
  8
1
  10
10174.264979
  20
-500.198888
  0
VERTEX
  8
1
  10
10174.231284
  20
-498.726511
  0
VERTEX
  8
1
  10
10172.901802
  20
-440.630961
  0
VERTEX
  8
1
  10
10170.570861
  20
-365.139973
  0
VERTEX
  8
1
  10
10179.231210
  20
-364.654986
  0
VERTEX
  8
1
  10
10187.300024
  20
-364.334711
  0
VERTEX
  8
1
  10
10199.721643
  20
-363.293358
  0
VERTEX
  8
1
  10
10211.768332
  20
-361.395465
  0
VERTEX
  8
1
  10
10220.703428
  20
-359.186441
  0
VERTEX
  8
1
  10
10230.012307
  20
-356.010097
  0
VERTEX
  8
1
  10
10241.140659
  20
-350.840963
  0
VERTEX
  8
1
  10
10247.916765
  20
-346.804010
  0
VERTEX
  8
1
  10
10255.732789
  20
-341.051330
  0
VERTEX
  8
1
  10
10257.291876
  20
-339.591235
  0
VERTEX
  8
1
  10
10262.699490
  20
-334.526971
  0
VERTEX
  8
1
  10
10268.729095
  20
-327.169749
  0
VERTEX
  8
1
  10
10273.863661
  20
-319.008373
  0
VERTEX
  8
1
  10
10279.320563
  20
-307.825809
  0
VERTEX
  8
1
  10
10281.835081
  20
-301.354038
  0
VERTEX
  8
1
  10
10283.335762
  20
-297.491646
  0
VERTEX
  8
1
  10
10286.996086
  20
-285.437659
  0
VERTEX
  8
1
  10
10289.694532
  20
-273.136566
  0
VERTEX
  8
1
  10
10291.385010
  20
-261.222871
  0
VERTEX
  8
1
  10
10292.389923
  20
-245.996737
  0
VERTEX
  8
1
  10
10292.296673
  20
-230.590388
  0
VERTEX
  8
1
  10
10291.146390
  20
-213.756951
  0
VERTEX
  8
1
  10
10289.266841
  20
-198.353764
  0
VERTEX
  8
1
  10
10286.585164
  20
-183.143277
  0
VERTEX
  8
1
  10
10282.316330
  20
-165.379361
  0
VERTEX
  8
1
  10
10277.103973
  20
-148.019242
  0
VERTEX
  8
1
  10
10274.658394
  20
-139.650228
  0
VERTEX
  8
1
  10
10285.774919
  20
-133.122474
  0
VERTEX
  8
1
  10
10301.730797
  20
-124.286657
  0
VERTEX
  8
1
  10
10322.611506
  20
-114.079540
  0
VERTEX
  8
1
  10
10340.484168
  20
-106.063321
  0
VERTEX
  8
1
  10
10348.007654
  20
-103.266524
  0
VERTEX
  8
1
  10
10374.726976
  20
-93.333824
  0
VERTEX
  8
1
  10
10382.147571
  20
-90.575276
  0
VERTEX
  8
1
  10
10384.865542
  20
-100.215968
  0
VERTEX
  8
1
  10
10389.293388
  20
-116.530098
  0
VERTEX
  8
1
  10
10393.824316
  20
-130.086075
  0
VERTEX
  8
1
  10
10398.543451
  20
-141.695096
  0
VERTEX
  8
1
  10
10403.302889
  20
-151.152180
  0
VERTEX
  8
1
  10
10407.627723
  20
-158.145849
  0
VERTEX
  8
1
  10
10409.565051
  20
-160.689264
  0
VERTEX
  8
1
  10
10412.961951
  20
-165.148875
  0
VERTEX
  8
1
  10
10418.524471
  20
-171.039000
  0
VERTEX
  8
1
  10
10424.328891
  20
-176.024288
  0
VERTEX
  8
1
  10
10430.057219
  20
-180.053531
  0
VERTEX
  8
1
  10
10437.690877
  20
-184.315180
  0
VERTEX
  8
1
  10
10443.867277
  20
-186.958870
  0
VERTEX
  8
1
  10
10452.224237
  20
-189.529295
  0
VERTEX
  8
1
  10
10460.848802
  20
-191.165676
  0
VERTEX
  8
1
  10
10470.937452
  20
-192.100926
  0
VERTEX
  8
1
  10
10475.439453
  20
-192.273015
  0
VERTEX
  8
1
  10
10475.439453
  20
-192.273015
  0
VERTEX
  8
1
  10
10479.941454
  20
-192.100926
  0
VERTEX
  8
1
  10
10490.030104
  20
-191.165676
  0
VERTEX
  8
1
  10
10498.654669
  20
-189.529295
  0
VERTEX
  8
1
  10
10507.011629
  20
-186.958870
  0
VERTEX
  8
1
  10
10513.188029
  20
-184.315180
  0
VERTEX
  8
1
  10
10520.821687
  20
-180.053531
  0
VERTEX
  8
1
  10
10526.550015
  20
-176.024288
  0
VERTEX
  8
1
  10
10532.354435
  20
-171.039000
  0
VERTEX
  8
1
  10
10537.916955
  20
-165.148875
  0
VERTEX
  8
1
  10
10541.313855
  20
-160.689264
  0
VERTEX
  8
1
  10
10543.251183
  20
-158.145849
  0
VERTEX
  8
1
  10
10547.576018
  20
-151.152180
  0
VERTEX
  8
1
  10
10552.335455
  20
-141.695096
  0
VERTEX
  8
1
  10
10557.054590
  20
-130.086075
  0
VERTEX
  8
1
  10
10561.585518
  20
-116.530098
  0
VERTEX
  8
1
  10
10566.013364
  20
-100.215968
  0
VERTEX
  8
1
  10
10568.731335
  20
-90.575276
  0
VERTEX
  8
1
  10
10576.151930
  20
-93.333824
  0
VERTEX
  8
1
  10
10602.871253
  20
-103.266524
  0
VERTEX
  8
1
  10
10610.394738
  20
-106.063321
  0
VERTEX
  8
1
  10
10628.267400
  20
-114.079540
  0
VERTEX
  8
1
  10
10649.148109
  20
-124.286657
  0
VERTEX
  8
1
  10
10665.103987
  20
-133.122474
  0
VERTEX
  8
1
  10
10676.220513
  20
-139.650228
  0
VERTEX
  8
1
  10
10673.774933
  20
-148.019242
  0
VERTEX
  8
1
  10
10668.562576
  20
-165.379361
  0
VERTEX
  8
1
  10
10664.293742
  20
-183.143277
  0
VERTEX
  8
1
  10
10661.612065
  20
-198.353764
  0
VERTEX
  8
1
  10
10659.732516
  20
-213.756951
  0
VERTEX
  8
1
  10
10658.582233
  20
-230.590388
  0
VERTEX
  8
1
  10
10658.488983
  20
-245.996737
  0
VERTEX
  8
1
  10
10659.493896
  20
-261.222871
  0
VERTEX
  8
1
  10
10661.184374
  20
-273.136566
  0
VERTEX
  8
1
  10
10663.882820
  20
-285.437659
  0
VERTEX
  8
1
  10
10667.543144
  20
-297.491646
  0
VERTEX
  8
1
  10
10669.043825
  20
-301.354038
  0
VERTEX
  8
1
  10
10671.558343
  20
-307.825809
  0
VERTEX
  8
1
  10
10677.015245
  20
-319.008373
  0
VERTEX
  8
1
  10
10682.149812
  20
-327.169749
  0
VERTEX
  8
1
  10
10688.179416
  20
-334.526971
  0
VERTEX
  8
1
  10
10693.587031
  20
-339.591235
  0
VERTEX
  8
1
  10
10695.146118
  20
-341.051330
  0
VERTEX
  8
1
  10
10702.962141
  20
-346.804010
  0
VERTEX
  8
1
  10
10709.738247
  20
-350.840963
  0
VERTEX
  8
1
  10
10720.866599
  20
-356.010097
  0
VERTEX
  8
1
  10
10730.175478
  20
-359.186441
  0
VERTEX
  8
1
  10
10739.110574
  20
-361.395465
  0
VERTEX
  8
1
  10
10751.157263
  20
-363.293358
  0
VERTEX
  8
1
  10
10763.578882
  20
-364.334711
  0
VERTEX
  8
1
  10
10771.647696
  20
-364.654986
  0
VERTEX
  8
1
  10
10780.308045
  20
-365.139973
  0
VERTEX
  8
1
  10
10777.977105
  20
-440.630961
  0
VERTEX
  8
1
  10
10776.647622
  20
-498.726511
  0
VERTEX
  8
1
  10
10776.613928
  20
-500.198888
  0
VERTEX
  8
1
  10
10775.951077
  20
-545.519697
  0
VERTEX
  8
1
  10
10775.946850
  20
-546.590603
  0
VERTEX
  8
1
  10
10775.690030
  20
-611.651946
  0
VERTEX
  8
1
  10
10775.840747
  20
-640.919697
  0
VERTEX
  8
1
  10
10775.962633
  20
-664.588756
  0
VERTEX
  8
1
  10
10776.370512
  20
-705.810511
  0
VERTEX
  8
1
  10
10777.197855
  20
-769.976196
  0
VERTEX
  8
1
  10
10777.210656
  20
-770.821588
  0
VERTEX
  8
1
  10
10777.983622
  20
-821.868854
  0
VERTEX
  8
1
  10
10778.449628
  20
-849.928698
  0
VERTEX
  8
1
  10
10783.633266
  20
-874.301411
  0
VERTEX
  8
1
  10
10715.968413
  20
-883.197805
  0
VERTEX
  8
1
  10
10668.273499
  20
-888.577586
  0
VERTEX
  8
1
  10
10620.361291
  20
-892.868347
  0
VERTEX
  8
1
  10
10581.009697
  20
-895.415439
  0
VERTEX
  8
1
  10
10535.037228
  20
-897.306733
  0
VERTEX
  8
1
  10
10488.972114
  20
-898.320463
  0
VERTEX
  8
1
  10
10475.439453
  20
-898.450479
  0
SEQEND
  8
1
  0
POINT
  8
2
 10
10475.439453
 20
-898.450479
  0
TEXT
  8
2
 10
10475.439453
 20
-898.450479
 40
0.000000
 50
0.000000
  1
# 1
  0
POINT
  8
2
 10
10167.245640
 20
-874.301411
  0
TEXT
  8
2
 10
10167.245640
 20
-874.301411
 40
0.000000
 50
0.000000
  1
# 2
  0
POINT
  8
2
 10
10172.429278
 20
-849.928698
  0
TEXT
  8
2
 10
10172.429278
 20
-849.928698
 40
0.000000
 50
0.000000
  1
# 3
  0
POINT
  8
2
 10
10170.570861
 20
-365.139973
  0
TEXT
  8
2
 10
10170.570861
 20
-365.139973
 40
0.000000
 50
0.000000
  1
# 4
  0
POINT
  8
2
 10
10274.658394
 20
-139.650228
  0
TEXT
  8
2
 10
10274.658394
 20
-139.650228
 40
0.000000
 50
0.000000
  1
# 5
  0
POINT
  8
2
 10
10382.147571
 20
-90.575276
  0
TEXT
  8
2
 10
10382.147571
 20
-90.575276
 40
0.000000
 50
0.000000
  1
# 6
  0
POINT
  8
2
 10
10475.439453
 20
-192.273015
  0
TEXT
  8
2
 10
10475.439453
 20
-192.273015
 40
0.000000
 50
0.000000
  1
# 7
  0
POINT
  8
2
 10
10568.731335
 20
-90.575276
  0
TEXT
  8
2
 10
10568.731335
 20
-90.575276
 40
0.000000
 50
0.000000
  1
# 8
  0
POINT
  8
2
 10
10676.220513
 20
-139.650228
  0
TEXT
  8
2
 10
10676.220513
 20
-139.650228
 40
0.000000
 50
0.000000
  1
# 9
  0
POINT
  8
2
 10
10780.308045
 20
-365.139973
  0
TEXT
  8
2
 10
10780.308045
 20
-365.139973
 40
0.000000
 50
0.000000
  1
# 10
  0
POINT
  8
2
 10
10778.449628
 20
-849.928698
  0
TEXT
  8
2
 10
10778.449628
 20
-849.928698
 40
0.000000
 50
0.000000
  1
# 11
  0
POINT
  8
2
 10
10783.633266
 20
-874.301411
  0
TEXT
  8
2
 10
10783.633266
 20
-874.301411
 40
0.000000
 50
0.000000
  1
# 12
  0
POINT
  8
2
 10
10475.439453
 20
-898.450479
  0
TEXT
  8
2
 10
10475.439453
 20
-898.450479
 40
0.000000
 50
0.000000
  1
# 13
  0
POINT
  8
3
 10
10461.906793
 20
-898.320463
  0
POINT
  8
3
 10
10415.841678
 20
-897.306733
  0
POINT
  8
3
 10
10369.869210
 20
-895.415439
  0
POINT
  8
3
 10
10330.517615
 20
-892.868347
  0
POINT
  8
3
 10
10282.605407
 20
-888.577586
  0
POINT
  8
3
 10
10234.910493
 20
-883.197805
  0
POINT
  8
3
 10
10172.895284
 20
-821.868854
  0
POINT
  8
3
 10
10173.668251
 20
-770.821588
  0
POINT
  8
3
 10
10173.681052
 20
-769.976196
  0
POINT
  8
3
 10
10174.508394
 20
-705.810511
  0
POINT
  8
3
 10
10174.916274
 20
-664.588756
  0
POINT
  8
3
 10
10175.188876
 20
-611.651946
  0
POINT
  8
3
 10
10174.932056
 20
-546.590603
  0
POINT
  8
3
 10
10174.927829
 20
-545.519697
  0
POINT
  8
3
 10
10174.264979
 20
-500.198888
  0
POINT
  8
3
 10
10174.231284
 20
-498.726511
  0
POINT
  8
3
 10
10172.901802
 20
-440.630961
  0
POINT
  8
3
 10
10179.231210
 20
-364.654986
  0
POINT
  8
3
 10
10187.300024
 20
-364.334711
  0
POINT
  8
3
 10
10199.721643
 20
-363.293358
  0
POINT
  8
3
 10
10211.768332
 20
-361.395465
  0
POINT
  8
3
 10
10220.703428
 20
-359.186441
  0
POINT
  8
3
 10
10230.012307
 20
-356.010097
  0
POINT
  8
3
 10
10241.140659
 20
-350.840963
  0
POINT
  8
3
 10
10247.916765
 20
-346.804010
  0
POINT
  8
3
 10
10255.732789
 20
-341.051330
  0
POINT
  8
3
 10
10257.291876
 20
-339.591235
  0
POINT
  8
3
 10
10262.699490
 20
-334.526971
  0
POINT
  8
3
 10
10268.729095
 20
-327.169749
  0
POINT
  8
3
 10
10273.863661
 20
-319.008373
  0
POINT
  8
3
 10
10279.320563
 20
-307.825809
  0
POINT
  8
3
 10
10281.835081
 20
-301.354038
  0
POINT
  8
3
 10
10283.335762
 20
-297.491646
  0
POINT
  8
3
 10
10286.996086
 20
-285.437659
  0
POINT
  8
3
 10
10289.694532
 20
-273.136566
  0
POINT
  8
3
 10
10291.385010
 20
-261.222871
  0
POINT
  8
3
 10
10292.389923
 20
-245.996737
  0
POINT
  8
3
 10
10292.296673
 20
-230.590388
  0
POINT
  8
3
 10
10291.146390
 20
-213.756951
  0
POINT
  8
3
 10
10289.266841
 20
-198.353764
  0
POINT
  8
3
 10
10286.585164
 20
-183.143277
  0
POINT
  8
3
 10
10282.316330
 20
-165.379361
  0
POINT
  8
3
 10
10277.103973
 20
-148.019242
  0
POINT
  8
3
 10
10285.774919
 20
-133.122474
  0
POINT
  8
3
 10
10301.730797
 20
-124.286657
  0
POINT
  8
3
 10
10322.611506
 20
-114.079540
  0
POINT
  8
3
 10
10340.484168
 20
-106.063321
  0
POINT
  8
3
 10
10348.007654
 20
-103.266524
  0
POINT
  8
3
 10
10374.726976
 20
-93.333824
  0
POINT
  8
3
 10
10384.865542
 20
-100.215968
  0
POINT
  8
3
 10
10389.293388
 20
-116.530098
  0
POINT
  8
3
 10
10393.824316
 20
-130.086075
  0
POINT
  8
3
 10
10398.543451
 20
-141.695096
  0
POINT
  8
3
 10
10403.302889
 20
-151.152180
  0
POINT
  8
3
 10
10407.627723
 20
-158.145849
  0
POINT
  8
3
 10
10409.565051
 20
-160.689264
  0
POINT
  8
3
 10
10412.961951
 20
-165.148875
  0
POINT
  8
3
 10
10418.524471
 20
-171.039000
  0
POINT
  8
3
 10
10424.328891
 20
-176.024288
  0
POINT
  8
3
 10
10430.057219
 20
-180.053531
  0
POINT
  8
3
 10
10437.690877
 20
-184.315180
  0
POINT
  8
3
 10
10443.867277
 20
-186.958870
  0
POINT
  8
3
 10
10452.224237
 20
-189.529295
  0
POINT
  8
3
 10
10460.848802
 20
-191.165676
  0
POINT
  8
3
 10
10470.937452
 20
-192.100926
  0
POINT
  8
3
 10
10475.439453
 20
-192.273015
  0
POINT
  8
3
 10
10479.941454
 20
-192.100926
  0
POINT
  8
3
 10
10490.030104
 20
-191.165676
  0
POINT
  8
3
 10
10498.654669
 20
-189.529295
  0
POINT
  8
3
 10
10507.011629
 20
-186.958870
  0
POINT
  8
3
 10
10513.188029
 20
-184.315180
  0
POINT
  8
3
 10
10520.821687
 20
-180.053531
  0
POINT
  8
3
 10
10526.550015
 20
-176.024288
  0
POINT
  8
3
 10
10532.354435
 20
-171.039000
  0
POINT
  8
3
 10
10537.916955
 20
-165.148875
  0
POINT
  8
3
 10
10541.313855
 20
-160.689264
  0
POINT
  8
3
 10
10543.251183
 20
-158.145849
  0
POINT
  8
3
 10
10547.576018
 20
-151.152180
  0
POINT
  8
3
 10
10552.335455
 20
-141.695096
  0
POINT
  8
3
 10
10557.054590
 20
-130.086075
  0
POINT
  8
3
 10
10561.585518
 20
-116.530098
  0
POINT
  8
3
 10
10566.013364
 20
-100.215968
  0
POINT
  8
3
 10
10576.151930
 20
-93.333824
  0
POINT
  8
3
 10
10602.871253
 20
-103.266524
  0
POINT
  8
3
 10
10610.394738
 20
-106.063321
  0
POINT
  8
3
 10
10628.267400
 20
-114.079540
  0
POINT
  8
3
 10
10649.148109
 20
-124.286657
  0
POINT
  8
3
 10
10665.103987
 20
-133.122474
  0
POINT
  8
3
 10
10673.774933
 20
-148.019242
  0
POINT
  8
3
 10
10668.562576
 20
-165.379361
  0
POINT
  8
3
 10
10664.293742
 20
-183.143277
  0
POINT
  8
3
 10
10661.612065
 20
-198.353764
  0
POINT
  8
3
 10
10659.732516
 20
-213.756951
  0
POINT
  8
3
 10
10658.582233
 20
-230.590388
  0
POINT
  8
3
 10
10658.488983
 20
-245.996737
  0
POINT
  8
3
 10
10659.493896
 20
-261.222871
  0
POINT
  8
3
 10
10661.184374
 20
-273.136566
  0
POINT
  8
3
 10
10663.882820
 20
-285.437659
  0
POINT
  8
3
 10
10667.543144
 20
-297.491646
  0
POINT
  8
3
 10
10669.043825
 20
-301.354038
  0
POINT
  8
3
 10
10671.558343
 20
-307.825809
  0
POINT
  8
3
 10
10677.015245
 20
-319.008373
  0
POINT
  8
3
 10
10682.149812
 20
-327.169749
  0
POINT
  8
3
 10
10688.179416
 20
-334.526971
  0
POINT
  8
3
 10
10693.587031
 20
-339.591235
  0
POINT
  8
3
 10
10695.146118
 20
-341.051330
  0
POINT
  8
3
 10
10702.962141
 20
-346.804010
  0
POINT
  8
3
 10
10709.738247
 20
-350.840963
  0
POINT
  8
3
 10
10720.866599
 20
-356.010097
  0
POINT
  8
3
 10
10730.175478
 20
-359.186441
  0
POINT
  8
3
 10
10739.110574
 20
-361.395465
  0
POINT
  8
3
 10
10751.157263
 20
-363.293358
  0
POINT
  8
3
 10
10763.578882
 20
-364.334711
  0
POINT
  8
3
 10
10771.647696
 20
-364.654986
  0
POINT
  8
3
 10
10777.977105
 20
-440.630961
  0
POINT
  8
3
 10
10776.647622
 20
-498.726511
  0
POINT
  8
3
 10
10776.613928
 20
-500.198888
  0
POINT
  8
3
 10
10775.951077
 20
-545.519697
  0
POINT
  8
3
 10
10775.946850
 20
-546.590603
  0
POINT
  8
3
 10
10775.690030
 20
-611.651946
  0
POINT
  8
3
 10
10775.840747
 20
-640.919697
  0
POINT
  8
3
 10
10775.962633
 20
-664.588756
  0
POINT
  8
3
 10
10776.370512
 20
-705.810511
  0
POINT
  8
3
 10
10777.197855
 20
-769.976196
  0
POINT
  8
3
 10
10777.210656
 20
-770.821588
  0
POINT
  8
3
 10
10777.983622
 20
-821.868854
  0
POINT
  8
3
 10
10715.968413
 20
-883.197805
  0
POINT
  8
3
 10
10668.273499
 20
-888.577586
  0
POINT
  8
3
 10
10620.361291
 20
-892.868347
  0
POINT
  8
3
 10
10581.009697
 20
-895.415439
  0
POINT
  8
3
 10
10535.037228
 20
-897.306733
  0
POINT
  8
3
 10
10488.972114
 20
-898.320463
  0
POINT
  8
3
 10
10174.932056
 20
-546.590603
  0
TEXT
  8
3
 10
10174.932056
 20
-546.590603
 40
0.000000
 50
0.000000
  1
# 14
  0
POINT
  8
3
 10
10374.726976
 20
-93.333824
  0
TEXT
  8
3
 10
10374.726976
 20
-93.333824
 40
0.000000
 50
0.000000
  1
# 15
  0
POINT
  8
3
 10
10576.151930
 20
-93.333824
  0
TEXT
  8
3
 10
10576.151930
 20
-93.333824
 40
0.000000
 50
0.000000
  1
# 16
  0
POINT
  8
3
 10
10775.946850
 20
-546.590603
  0
TEXT
  8
3
 10
10775.946850
 20
-546.590603
 40
0.000000
 50
0.000000
  1
# 17
  0
POINT
  8
4
 10
10173.668251
 20
-770.821588
 30
0.600000
 50
359.13
  0
TEXT
  8
4
 10
10173.668251
 20
-770.821588
 40
0.000000
 50
0.000000
  1
# 18
  0
POINT
  8
4
 10
10174.231284
 20
-498.726511
 30
0.600000
 50
  1.31
  0
TEXT
  8
4
 10
10174.231284
 20
-498.726511
 40
0.000000
 50
0.000000
  1
# 19
  0
POINT
  8
4
 10
10257.291876
 20
-339.591235
 30
0.600000
 50
313.12
  0
TEXT
  8
4
 10
10257.291876
 20
-339.591235
 40
0.000000
 50
0.000000
  1
# 20
  0
POINT
  8
4
 10
10281.835081
 20
-301.354038
 30
0.600000
 50
338.77
  0
TEXT
  8
4
 10
10281.835081
 20
-301.354038
 40
0.000000
 50
0.000000
  1
# 21
  0
POINT
  8
4
 10
10348.007654
 20
-103.266524
 30
0.600000
 50
290.39
  0
TEXT
  8
4
 10
10348.007654
 20
-103.266524
 40
0.000000
 50
0.000000
  1
# 22
  0
POINT
  8
4
 10
10409.565051
 20
-160.689264
 30
0.600000
 50
217.30
  0
TEXT
  8
4
 10
10409.565051
 20
-160.689264
 40
0.000000
 50
0.000000
  1
# 23
  0
POINT
  8
4
 10
10475.439453
 20
-192.273015
 30
0.600000
 50
270.00
  0
TEXT
  8
4
 10
10475.439453
 20
-192.273015
 40
0.000000
 50
0.000000
  1
# 24
  0
POINT
  8
4
 10
10541.313855
 20
-160.689264
 30
0.600000
 50
322.70
  0
TEXT
  8
4
 10
10541.313855
 20
-160.689264
 40
0.000000
 50
0.000000
  1
# 25
  0
POINT
  8
4
 10
10602.871253
 20
-103.266524
 30
0.600000
 50
249.61
  0
TEXT
  8
4
 10
10602.871253
 20
-103.266524
 40
0.000000
 50
0.000000
  1
# 26
  0
POINT
  8
4
 10
10669.043825
 20
-301.354038
 30
0.600000
 50
201.23
  0
TEXT
  8
4
 10
10669.043825
 20
-301.354038
 40
0.000000
 50
0.000000
  1
# 27
  0
POINT
  8
4
 10
10693.587031
 20
-339.591235
 30
0.600000
 50
226.88
  0
TEXT
  8
4
 10
10693.587031
 20
-339.591235
 40
0.000000
 50
0.000000
  1
# 28
  0
POINT
  8
4
 10
10776.647622
 20
-498.726511
 30
0.600000
 50
178.69
  0
TEXT
  8
4
 10
10776.647622
 20
-498.726511
 40
0.000000
 50
0.000000
  1
# 29
  0
POINT
  8
4
 10
10775.840747
 20
-640.919697
 30
0.600000
 50
180.30
  0
TEXT
  8
4
 10
10775.840747
 20
-640.919697
 40
0.000000
 50
0.000000
  1
# 30
  0
POINT
  8
4
 10
10777.210656
 20
-770.821588
 30
0.600000
 50
180.87
  0
TEXT
  8
4
 10
10777.210656
 20
-770.821588
 40
0.000000
 50
0.000000
  1
# 31
  0
POLYLINE
  8
8
  66
1
  70
1
  0
VERTEX
  8
8
  10
10475.439453
  20
-873.449326
  0
VERTEX
  8
8
  10
10440.366349
  20
-872.941290
  0
VERTEX
  8
8
  10
10404.441227
  20
-871.911926
  0
VERTEX
  8
8
  10
10384.190433
  20
-871.088398
  0
VERTEX
  8
8
  10
10363.293735
  20
-870.015158
  0
VERTEX
  8
8
  10
10331.898643
  20
-867.900873
  0
VERTEX
  8
8
  10
10300.540733
  20
-865.216364
  0
VERTEX
  8
8
  10
10269.226347
  20
-862.023642
  0
VERTEX
  8
8
  10
10237.961825
  20
-858.384717
  0
VERTEX
  8
8
  10
10219.408724
  20
-856.042388
  0
VERTEX
  8
8
  10
10199.071920
  20
-853.361418
  0
VERTEX
  8
8
  10
10181.413574
  20
-850.949020
  0
VERTEX
  8
8
  10
10182.152190
  20
-805.627536
  0
VERTEX
  8
8
  10
10182.668457
  20
-770.957870
  0
VERTEX
  8
8
  10
10183.507815
  20
-705.912595
  0
VERTEX
  8
8
  10
10183.906691
  20
-665.790731
  0
VERTEX
  8
8
  10
10184.151337
  20
-625.668028
  0
VERTEX
  8
8
  10
10184.179107
  20
-585.546255
  0
VERTEX
  8
8
  10
10183.938813
  20
-546.555050
  0
VERTEX
  8
8
  10
10183.927353
  20
-545.427183
  0
VERTEX
  8
8
  10
10183.496546
  20
-513.367063
  0
VERTEX
  8
8
  10
10183.234863
  20
-498.520470
  0
VERTEX
  8
8
  10
10182.910460
  20
-482.316273
  0
VERTEX
  8
8
  10
10181.534708
  20
-427.268460
  0
VERTEX
  8
8
  10
10179.804688
  20
-373.568344
  0
VERTEX
  8
8
  10
10183.863408
  20
-373.488827
  0
VERTEX
  8
8
  10
10188.418489
  20
-373.287557
  0
VERTEX
  8
8
  10
10192.959762
  20
-372.987076
  0
VERTEX
  8
8
  10
10197.436414
  20
-372.592750
  0
VERTEX
  8
8
  10
10201.718461
  20
-372.118386
  0
VERTEX
  8
8
  10
10205.848453
  20
-371.561744
  0
VERTEX
  8
8
  10
10209.804102
  20
-370.925845
  0
VERTEX
  8
8
  10
10213.572089
  20
-370.212860
  0
VERTEX
  8
8
  10
10217.804504
  20
-369.269182
  0
VERTEX
  8
8
  10
10221.978618
  20
-368.181845
  0
VERTEX
  8
8
  10
10226.087157
  20
-366.952747
  0
VERTEX
  8
8
  10
10230.123454
  20
-365.583885
  0
VERTEX
  8
8
  10
10234.080644
  20
-364.077621
  0
VERTEX
  8
8
  10
10237.953506
  20
-362.435977
  0
VERTEX
  8
8
  10
10241.736589
  20
-360.661267
  0
VERTEX
  8
8
  10
10245.424980
  20
-358.755797
  0
VERTEX
  8
8
  10
10249.449078
  20
-356.462312
  0
VERTEX
  8
8
  10
10253.322766
  20
-354.020204
  0
VERTEX
  8
8
  10
10257.032554
  20
-351.437989
  0
VERTEX
  8
8
  10
10260.567083
  20
-348.723584
  0
VERTEX
  8
8
  10
10263.516846
  20
-346.238251
  0
VERTEX
  8
8
  10
10263.914774
  20
-345.886060
  0
VERTEX
  8
8
  10
10267.068679
  20
-342.931492
  0
VERTEX
  8
8
  10
10270.021277
  20
-339.866935
  0
VERTEX
  8
8
  10
10272.766428
  20
-336.698774
  0
VERTEX
  8
8
  10
10274.823445
  20
-334.079095
  0
VERTEX
  8
8
  10
10276.814463
  20
-331.315748
  0
VERTEX
  8
8
  10
10278.742388
  20
-328.404717
  0
VERTEX
  8
8
  10
10280.610941
  20
-325.340390
  0
VERTEX
  8
8
  10
10282.422306
  20
-322.119617
  0
VERTEX
  8
8
  10
10284.184057
  20
-318.729363
  0
VERTEX
  8
8
  10
10285.902471
  20
-315.157617
  0
VERTEX
  8
8
  10
10287.586879
  20
-311.385025
  0
VERTEX
  8
8
  10
10289.521459
  20
-306.691350
  0
VERTEX
  8
8
  10
10290.311279
  20
-304.647350
  0
VERTEX
  8
8
  10
10291.314111
  20
-301.926308
  0
VERTEX
  8
8
  10
10292.963151
  20
-297.094373
  0
VERTEX
  8
8
  10
10294.466965
  20
-292.200270
  0
VERTEX
  8
8
  10
10295.824112
  20
-287.248657
  0
VERTEX
  8
8
  10
10297.033127
  20
-282.244835
  0
VERTEX
  8
8
  10
10298.092748
  20
-277.194030
  0
VERTEX
  8
8
  10
10299.001831
  20
-272.101686
  0
VERTEX
  8
8
  10
10299.989722
  20
-265.181397
  0
VERTEX
  8
8
  10
10300.726426
  20
-258.076467
  0
VERTEX
  8
8
  10
10301.212847
  20
-250.778296
  0
VERTEX
  8
8
  10
10301.449768
  20
-243.275272
  0
VERTEX
  8
8
  10
10301.449947
  20
-236.329031
  0
VERTEX
  8
8
  10
10301.247995
  20
-229.191743
  0
VERTEX
  8
8
  10
10300.843479
  20
-221.847328
  0
VERTEX
  8
8
  10
10300.235124
  20
-214.272343
  0
VERTEX
  8
8
  10
10299.088569
  20
-203.742245
  0
VERTEX
  8
8
  10
10297.615304
  20
-193.448219
  0
VERTEX
  8
8
  10
10295.814854
  20
-183.386957
  0
VERTEX
  8
8
  10
10293.686752
  20
-173.555863
  0
VERTEX
  8
8
  10
10291.783034
  20
-165.941217
  0
VERTEX
  8
8
  10
10289.532689
  20
-157.761599
  0
VERTEX
  8
8
  10
10286.954477
  20
-149.099377
  0
VERTEX
  8
8
  10
10284.337158
  20
-140.924721
  0
VERTEX
  8
8
  10
10294.583961
  20
-135.003809
  0
VERTEX
  8
8
  10
10304.228318
  20
-129.751837
  0
VERTEX
  8
8
  10
10313.497004
  20
-125.065328
  0
VERTEX
  8
8
  10
10325.151084
  20
-119.515582
  0
VERTEX
  8
8
  10
10337.310127
  20
-113.963223
  0
VERTEX
  8
8
  10
10347.055481
  20
-109.855265
  0
VERTEX
  8
8
  10
10350.024414
  20
-108.691683
  0
VERTEX
  8
8
  10
10353.863958
  20
-107.239007
  0
VERTEX
  8
8
  10
10363.410752
  20
-103.771106
  0
VERTEX
  8
8
  10
10376.812705
  20
-98.944508
  0
VERTEX
  8
8
  10
10378.216553
  20
-98.437767
  0
VERTEX
  8
8
  10
10380.378399
  20
-106.985572
  0
VERTEX
  8
8
  10
10382.548641
  20
-114.877587
  0
VERTEX
  8
8
  10
10385.065518
  20
-123.104236
  0
VERTEX
  8
8
  10
10387.789055
  20
-131.050173
  0
VERTEX
  8
8
  10
10389.384599
  20
-135.319551
  0
VERTEX
  8
8
  10
10390.986822
  20
-139.332518
  0
VERTEX
  8
8
  10
10392.614585
  20
-143.136222
  0
VERTEX
  8
8
  10
10394.279417
  20
-146.757431
  0
VERTEX
  8
8
  10
10396.272577
  20
-150.761559
  0
VERTEX
  8
8
  10
10398.330232
  20
-154.548213
  0
VERTEX
  8
8
  10
10400.461016
  20
-158.133243
  0
VERTEX
  8
8
  10
10402.671007
  20
-161.526821
  0
VERTEX
  8
8
  10
10404.705811
  20
-164.390564
  0
VERTEX
  8
8
  10
10405.190608
  20
-165.039130
  0
VERTEX
  8
8
  10
10407.847037
  20
-168.389430
  0
VERTEX
  8
8
  10
10410.632433
  20
-171.567817
  0
VERTEX
  8
8
  10
10413.539475
  20
-174.565951
  0
VERTEX
  8
8
  10
10416.641669
  20
-177.449851
  0
VERTEX
  8
8
  10
10419.899434
  20
-180.175668
  0
VERTEX
  8
8
  10
10423.301096
  20
-182.733631
  0
VERTEX
  8
8
  10
10426.834229
  20
-185.114395
  0
VERTEX
  8
8
  10
10430.445750
  20
-187.286011
  0
VERTEX
  8
8
  10
10434.146936
  20
-189.258461
  0
VERTEX
  8
8
  10
10437.924681
  20
-191.024765
  0
VERTEX
  8
8
  10
10441.766353
  20
-192.579023
  0
VERTEX
  8
8
  10
10445.853580
  20
-193.979617
  0
VERTEX
  8
8
  10
10450.075379
  20
-195.176292
  0
VERTEX
  8
8
  10
10454.419091
  20
-196.165448
  0
VERTEX
  8
8
  10
10458.869498
  20
-196.943606
  0
VERTEX
  8
8
  10
10462.684311
  20
-197.439000
  0
VERTEX
  8
8
  10
10466.820479
  20
-197.835136
  0
VERTEX
  8
8
  10
10471.237080
  20
-198.125440
  0
VERTEX
  8
8
  10
10475.439453
  20
-198.277397
  0
VERTEX
  8
8
  10
10475.439453
  20
-198.277397
  0
VERTEX
  8
8
  10
10480.273393
  20
-198.091738
  0
VERTEX
  8
8
  10
10490.843390
  20
-197.110301
  0
VERTEX
  8
8
  10
10500.087670
  20
-195.355658
  0
VERTEX
  8
8
  10
10509.112554
  20
-192.579023
  0
VERTEX
  8
8
  10
10515.800936
  20
-189.716358
  0
VERTEX
  8
8
  10
10524.044677
  20
-185.114395
  0
VERTEX
  8
8
  10
10530.223976
  20
-180.767917
  0
VERTEX
  8
8
  10
10536.490276
  20
-175.385818
  0
VERTEX
  8
8
  10
10542.487945
  20
-169.035525
  0
VERTEX
  8
8
  10
10546.173096
  20
-164.390564
  0
VERTEX
  8
8
  10
10548.207899
  20
-161.526821
  0
VERTEX
  8
8
  10
10552.806761
  20
-154.091453
  0
VERTEX
  8
8
  10
10557.801881
  20
-144.168593
  0
VERTEX
  8
8
  10
10562.685602
  20
-132.157717
  0
VERTEX
  8
8
  10
10567.328223
  20
-118.268299
  0
VERTEX
  8
8
  10
10572.662354
  20
-98.437767
  0
VERTEX
  8
8
  10
10574.066202
  20
-98.944508
  0
VERTEX
  8
8
  10
10600.854492
  20
-108.691683
  0
VERTEX
  8
8
  10
10608.073530
  20
-111.596132
  0
VERTEX
  8
8
  10
10625.727822
  20
-119.515582
  0
VERTEX
  8
8
  10
10646.365307
  20
-129.602296
  0
VERTEX
  8
8
  10
10662.095840
  20
-138.313914
  0
VERTEX
  8
8
  10
10666.541748
  20
-140.924721
  0
VERTEX
  8
8
  10
10659.877905
  20
-163.017906
  0
VERTEX
  8
8
  10
10655.477603
  20
-181.333393
  0
VERTEX
  8
8
  10
10652.709508
  20
-197.032981
  0
VERTEX
  8
8
  10
10650.774216
  20
-212.891587
  0
VERTEX
  8
8
  10
10649.588705
  20
-230.249152
  0
VERTEX
  8
8
  10
10649.492492
  20
-246.248036
  0
VERTEX
  8
8
  10
10650.544507
  20
-262.175982
  0
VERTEX
  8
8
  10
10652.325093
  20
-274.721855
  0
VERTEX
  8
8
  10
10655.174050
  20
-287.708630
  0
VERTEX
  8
8
  10
10659.042978
  20
-300.449207
  0
VERTEX
  8
8
  10
10660.567627
  20
-304.647350
  0
VERTEX
  8
8
  10
10663.292028
  20
-311.385025
  0
VERTEX
  8
8
  10
10669.154036
  20
-323.390311
  0
VERTEX
  8
8
  10
10674.823503
  20
-332.397100
  0
VERTEX
  8
8
  10
10681.622295
  20
-340.691723
  0
VERTEX
  8
8
  10
10687.362061
  20
-346.238251
  0
VERTEX
  8
8
  10
10689.405805
  20
-347.983054
  0
VERTEX
  8
8
  10
10698.034292
  20
-354.335033
  0
VERTEX
  8
8
  10
10705.453927
  20
-358.755797
  0
VERTEX
  8
8
  10
10717.570665
  20
-364.384869
  0
VERTEX
  8
8
  10
10727.658007
  20
-367.827177
  0
VERTEX
  8
8
  10
10737.306818
  20
-370.212860
  0
VERTEX
  8
8
  10
10750.109435
  20
-372.232153
  0
VERTEX
  8
8
  10
10763.109556
  20
-373.322465
  0
VERTEX
  8
8
  10
10771.074219
  20
-373.568344
  0
VERTEX
  8
8
  10
10768.980359
  20
-440.388959
  0
VERTEX
  8
8
  10
10767.644043
  20
-498.520470
  0
VERTEX
  8
8
  10
10767.615478
  20
-500.031848
  0
VERTEX
  8
8
  10
10766.951553
  20
-545.427183
  0
VERTEX
  8
8
  10
10766.940094
  20
-546.555050
  0
VERTEX
  8
8
  10
10766.690043
  20
-611.667010
  0
VERTEX
  8
8
  10
10766.798096
  20
-640.966263
  0
VERTEX
  8
8
  10
10766.962933
  20
-664.662292
  0
VERTEX
  8
8
  10
10767.371091
  20
-705.912595
  0
VERTEX
  8
8
  10
10768.198766
  20
-770.104287
  0
VERTEX
  8
8
  10
10768.210449
  20
-770.957870
  0
VERTEX
  8
8
  10
10768.984779
  20
-822.013110
  0
VERTEX
  8
8
  10
10769.465332
  20
-850.949020
  0
VERTEX
  8
8
  10
10712.917081
  20
-858.384717
  0
VERTEX
  8
8
  10
10665.738884
  20
-863.706404
  0
VERTEX
  8
8
  10
10618.454569
  20
-867.941165
  0
VERTEX
  8
8
  10
10579.693296
  20
-870.450121
  0
VERTEX
  8
8
  10
10534.265507
  20
-872.318647
  0
VERTEX
  8
8
  10
10488.646335
  20
-873.322586
  0
VERTEX
  8
8
  10
10475.439453
  20
-873.449326
  0
SEQEND
  8
8
  0
POINT
  8
2
 10
10475.439453
 20
-873.449326
  0
TEXT
  8
2
 10
10475.439453
 20
-873.449326
 40
0.000000
 50
0.000000
  1
# 32
  0
POINT
  8
2
 10
10181.413574
 20
-850.949020
  0
TEXT
  8
2
 10
10181.413574
 20
-850.949020
 40
0.000000
 50
0.000000
  1
# 33
  0
POINT
  8
2
 10
10179.804688
 20
-373.568344
  0
TEXT
  8
2
 10
10179.804688
 20
-373.568344
 40
0.000000
 50
0.000000
  1
# 34
  0
POINT
  8
2
 10
10284.337158
 20
-140.924721
  0
TEXT
  8
2
 10
10284.337158
 20
-140.924721
 40
0.000000
 50
0.000000
  1
# 35
  0
POINT
  8
2
 10
10378.216553
 20
-98.437767
  0
TEXT
  8
2
 10
10378.216553
 20
-98.437767
 40
0.000000
 50
0.000000
  1
# 36
  0
POINT
  8
2
 10
10475.439453
 20
-198.277397
  0
TEXT
  8
2
 10
10475.439453
 20
-198.277397
 40
0.000000
 50
0.000000
  1
# 37
  0
POINT
  8
2
 10
10572.662354
 20
-98.437767
  0
TEXT
  8
2
 10
10572.662354
 20
-98.437767
 40
0.000000
 50
0.000000
  1
# 38
  0
POINT
  8
2
 10
10666.541748
 20
-140.924721
  0
TEXT
  8
2
 10
10666.541748
 20
-140.924721
 40
0.000000
 50
0.000000
  1
# 39
  0
POINT
  8
2
 10
10771.074219
 20
-373.568344
  0
TEXT
  8
2
 10
10771.074219
 20
-373.568344
 40
0.000000
 50
0.000000
  1
# 40
  0
POINT
  8
2
 10
10769.465332
 20
-850.949020
  0
TEXT
  8
2
 10
10769.465332
 20
-850.949020
 40
0.000000
 50
0.000000
  1
# 41
  0
POINT
  8
2
 10
10475.439453
 20
-873.449326
  0
TEXT
  8
2
 10
10475.439453
 20
-873.449326
 40
0.000000
 50
0.000000
  1
# 42
  0
POINT
  8
3
 10
10440.366349
 20
-872.941290
  0
POINT
  8
3
 10
10404.441227
 20
-871.911926
  0
POINT
  8
3
 10
10384.190433
 20
-871.088398
  0
POINT
  8
3
 10
10363.293735
 20
-870.015158
  0
POINT
  8
3
 10
10331.898643
 20
-867.900873
  0
POINT
  8
3
 10
10300.540733
 20
-865.216364
  0
POINT
  8
3
 10
10269.226347
 20
-862.023642
  0
POINT
  8
3
 10
10237.961825
 20
-858.384717
  0
POINT
  8
3
 10
10219.408724
 20
-856.042388
  0
POINT
  8
3
 10
10199.071920
 20
-853.361418
  0
POINT
  8
3
 10
10182.152190
 20
-805.627536
  0
POINT
  8
3
 10
10182.668457
 20
-770.957870
  0
POINT
  8
3
 10
10183.507815
 20
-705.912595
  0
POINT
  8
3
 10
10183.906691
 20
-665.790731
  0
POINT
  8
3
 10
10184.151337
 20
-625.668028
  0
POINT
  8
3
 10
10184.179107
 20
-585.546255
  0
POINT
  8
3
 10
10183.938813
 20
-546.555050
  0
POINT
  8
3
 10
10183.927353
 20
-545.427183
  0
POINT
  8
3
 10
10183.496546
 20
-513.367063
  0
POINT
  8
3
 10
10183.234863
 20
-498.520470
  0
POINT
  8
3
 10
10182.910460
 20
-482.316273
  0
POINT
  8
3
 10
10181.534708
 20
-427.268460
  0
POINT
  8
3
 10
10183.863408
 20
-373.488827
  0
POINT
  8
3
 10
10188.418489
 20
-373.287557
  0
POINT
  8
3
 10
10192.959762
 20
-372.987076
  0
POINT
  8
3
 10
10197.436414
 20
-372.592750
  0
POINT
  8
3
 10
10201.718461
 20
-372.118386
  0
POINT
  8
3
 10
10205.848453
 20
-371.561744
  0
POINT
  8
3
 10
10209.804102
 20
-370.925845
  0
POINT
  8
3
 10
10213.572089
 20
-370.212860
  0
POINT
  8
3
 10
10217.804504
 20
-369.269182
  0
POINT
  8
3
 10
10221.978618
 20
-368.181845
  0
POINT
  8
3
 10
10226.087157
 20
-366.952747
  0
POINT
  8
3
 10
10230.123454
 20
-365.583885
  0
POINT
  8
3
 10
10234.080644
 20
-364.077621
  0
POINT
  8
3
 10
10237.953506
 20
-362.435977
  0
POINT
  8
3
 10
10241.736589
 20
-360.661267
  0
POINT
  8
3
 10
10245.424980
 20
-358.755797
  0
POINT
  8
3
 10
10249.449078
 20
-356.462312
  0
POINT
  8
3
 10
10253.322766
 20
-354.020204
  0
POINT
  8
3
 10
10257.032554
 20
-351.437989
  0
POINT
  8
3
 10
10260.567083
 20
-348.723584
  0
POINT
  8
3
 10
10263.516846
 20
-346.238251
  0
POINT
  8
3
 10
10263.914774
 20
-345.886060
  0
POINT
  8
3
 10
10267.068679
 20
-342.931492
  0
POINT
  8
3
 10
10270.021277
 20
-339.866935
  0
POINT
  8
3
 10
10272.766428
 20
-336.698774
  0
POINT
  8
3
 10
10274.823445
 20
-334.079095
  0
POINT
  8
3
 10
10276.814463
 20
-331.315748
  0
POINT
  8
3
 10
10278.742388
 20
-328.404717
  0
POINT
  8
3
 10
10280.610941
 20
-325.340390
  0
POINT
  8
3
 10
10282.422306
 20
-322.119617
  0
POINT
  8
3
 10
10284.184057
 20
-318.729363
  0
POINT
  8
3
 10
10285.902471
 20
-315.157617
  0
POINT
  8
3
 10
10287.586879
 20
-311.385025
  0
POINT
  8
3
 10
10289.521459
 20
-306.691350
  0
POINT
  8
3
 10
10290.311279
 20
-304.647350
  0
POINT
  8
3
 10
10291.314111
 20
-301.926308
  0
POINT
  8
3
 10
10292.963151
 20
-297.094373
  0
POINT
  8
3
 10
10294.466965
 20
-292.200270
  0
POINT
  8
3
 10
10295.824112
 20
-287.248657
  0
POINT
  8
3
 10
10297.033127
 20
-282.244835
  0
POINT
  8
3
 10
10298.092748
 20
-277.194030
  0
POINT
  8
3
 10
10299.001831
 20
-272.101686
  0
POINT
  8
3
 10
10299.989722
 20
-265.181397
  0
POINT
  8
3
 10
10300.726426
 20
-258.076467
  0
POINT
  8
3
 10
10301.212847
 20
-250.778296
  0
POINT
  8
3
 10
10301.449768
 20
-243.275272
  0
POINT
  8
3
 10
10301.449947
 20
-236.329031
  0
POINT
  8
3
 10
10301.247995
 20
-229.191743
  0
POINT
  8
3
 10
10300.843479
 20
-221.847328
  0
POINT
  8
3
 10
10300.235124
 20
-214.272343
  0
POINT
  8
3
 10
10299.088569
 20
-203.742245
  0
POINT
  8
3
 10
10297.615304
 20
-193.448219
  0
POINT
  8
3
 10
10295.814854
 20
-183.386957
  0
POINT
  8
3
 10
10293.686752
 20
-173.555863
  0
POINT
  8
3
 10
10291.783034
 20
-165.941217
  0
POINT
  8
3
 10
10289.532689
 20
-157.761599
  0
POINT
  8
3
 10
10286.954477
 20
-149.099377
  0
POINT
  8
3
 10
10294.583961
 20
-135.003809
  0
POINT
  8
3
 10
10304.228318
 20
-129.751837
  0
POINT
  8
3
 10
10313.497004
 20
-125.065328
  0
POINT
  8
3
 10
10325.151084
 20
-119.515582
  0
POINT
  8
3
 10
10337.310127
 20
-113.963223
  0
POINT
  8
3
 10
10347.055481
 20
-109.855265
  0
POINT
  8
3
 10
10350.024414
 20
-108.691683
  0
POINT
  8
3
 10
10353.863958
 20
-107.239007
  0
POINT
  8
3
 10
10363.410752
 20
-103.771106
  0
POINT
  8
3
 10
10376.812705
 20
-98.944508
  0
POINT
  8
3
 10
10380.378399
 20
-106.985572
  0
POINT
  8
3
 10
10382.548641
 20
-114.877587
  0
POINT
  8
3
 10
10385.065518
 20
-123.104236
  0
POINT
  8
3
 10
10387.789055
 20
-131.050173
  0
POINT
  8
3
 10
10389.384599
 20
-135.319551
  0
POINT
  8
3
 10
10390.986822
 20
-139.332518
  0
POINT
  8
3
 10
10392.614585
 20
-143.136222
  0
POINT
  8
3
 10
10394.279417
 20
-146.757431
  0
POINT
  8
3
 10
10396.272577
 20
-150.761559
  0
POINT
  8
3
 10
10398.330232
 20
-154.548213
  0
POINT
  8
3
 10
10400.461016
 20
-158.133243
  0
POINT
  8
3
 10
10402.671007
 20
-161.526821
  0
POINT
  8
3
 10
10404.705811
 20
-164.390564
  0
POINT
  8
3
 10
10405.190608
 20
-165.039130
  0
POINT
  8
3
 10
10407.847037
 20
-168.389430
  0
POINT
  8
3
 10
10410.632433
 20
-171.567817
  0
POINT
  8
3
 10
10413.539475
 20
-174.565951
  0
POINT
  8
3
 10
10416.641669
 20
-177.449851
  0
POINT
  8
3
 10
10419.899434
 20
-180.175668
  0
POINT
  8
3
 10
10423.301096
 20
-182.733631
  0
POINT
  8
3
 10
10426.834229
 20
-185.114395
  0
POINT
  8
3
 10
10430.445750
 20
-187.286011
  0
POINT
  8
3
 10
10434.146936
 20
-189.258461
  0
POINT
  8
3
 10
10437.924681
 20
-191.024765
  0
POINT
  8
3
 10
10441.766353
 20
-192.579023
  0
POINT
  8
3
 10
10445.853580
 20
-193.979617
  0
POINT
  8
3
 10
10450.075379
 20
-195.176292
  0
POINT
  8
3
 10
10454.419091
 20
-196.165448
  0
POINT
  8
3
 10
10458.869498
 20
-196.943606
  0
POINT
  8
3
 10
10462.684311
 20
-197.439000
  0
POINT
  8
3
 10
10466.820479
 20
-197.835136
  0
POINT
  8
3
 10
10471.237080
 20
-198.125440
  0
POINT
  8
3
 10
10475.439453
 20
-198.277397
  0
POINT
  8
3
 10
10480.273393
 20
-198.091738
  0
POINT
  8
3
 10
10490.843390
 20
-197.110301
  0
POINT
  8
3
 10
10500.087670
 20
-195.355658
  0
POINT
  8
3
 10
10509.112554
 20
-192.579023
  0
POINT
  8
3
 10
10515.800936
 20
-189.716358
  0
POINT
  8
3
 10
10524.044677
 20
-185.114395
  0
POINT
  8
3
 10
10530.223976
 20
-180.767917
  0
POINT
  8
3
 10
10536.490276
 20
-175.385818
  0
POINT
  8
3
 10
10542.487945
 20
-169.035525
  0
POINT
  8
3
 10
10546.173096
 20
-164.390564
  0
POINT
  8
3
 10
10548.207899
 20
-161.526821
  0
POINT
  8
3
 10
10552.806761
 20
-154.091453
  0
POINT
  8
3
 10
10557.801881
 20
-144.168593
  0
POINT
  8
3
 10
10562.685602
 20
-132.157717
  0
POINT
  8
3
 10
10567.328223
 20
-118.268299
  0
POINT
  8
3
 10
10574.066202
 20
-98.944508
  0
POINT
  8
3
 10
10600.854492
 20
-108.691683
  0
POINT
  8
3
 10
10608.073530
 20
-111.596132
  0
POINT
  8
3
 10
10625.727822
 20
-119.515582
  0
POINT
  8
3
 10
10646.365307
 20
-129.602296
  0
POINT
  8
3
 10
10662.095840
 20
-138.313914
  0
POINT
  8
3
 10
10659.877905
 20
-163.017906
  0
POINT
  8
3
 10
10655.477603
 20
-181.333393
  0
POINT
  8
3
 10
10652.709508
 20
-197.032981
  0
POINT
  8
3
 10
10650.774216
 20
-212.891587
  0
POINT
  8
3
 10
10649.588705
 20
-230.249152
  0
POINT
  8
3
 10
10649.492492
 20
-246.248036
  0
POINT
  8
3
 10
10650.544507
 20
-262.175982
  0
POINT
  8
3
 10
10652.325093
 20
-274.721855
  0
POINT
  8
3
 10
10655.174050
 20
-287.708630
  0
POINT
  8
3
 10
10659.042978
 20
-300.449207
  0
POINT
  8
3
 10
10660.567627
 20
-304.647350
  0
POINT
  8
3
 10
10663.292028
 20
-311.385025
  0
POINT
  8
3
 10
10669.154036
 20
-323.390311
  0
POINT
  8
3
 10
10674.823503
 20
-332.397100
  0
POINT
  8
3
 10
10681.622295
 20
-340.691723
  0
POINT
  8
3
 10
10687.362061
 20
-346.238251
  0
POINT
  8
3
 10
10689.405805
 20
-347.983054
  0
POINT
  8
3
 10
10698.034292
 20
-354.335033
  0
POINT
  8
3
 10
10705.453927
 20
-358.755797
  0
POINT
  8
3
 10
10717.570665
 20
-364.384869
  0
POINT
  8
3
 10
10727.658007
 20
-367.827177
  0
POINT
  8
3
 10
10737.306818
 20
-370.212860
  0
POINT
  8
3
 10
10750.109435
 20
-372.232153
  0
POINT
  8
3
 10
10763.109556
 20
-373.322465
  0
POINT
  8
3
 10
10768.980359
 20
-440.388959
  0
POINT
  8
3
 10
10767.644043
 20
-498.520470
  0
POINT
  8
3
 10
10767.615478
 20
-500.031848
  0
POINT
  8
3
 10
10766.951553
 20
-545.427183
  0
POINT
  8
3
 10
10766.940094
 20
-546.555050
  0
POINT
  8
3
 10
10766.690043
 20
-611.667010
  0
POINT
  8
3
 10
10766.798096
 20
-640.966263
  0
POINT
  8
3
 10
10766.962933
 20
-664.662292
  0
POINT
  8
3
 10
10767.371091
 20
-705.912595
  0
POINT
  8
3
 10
10768.198766
 20
-770.104287
  0
POINT
  8
3
 10
10768.210449
 20
-770.957870
  0
POINT
  8
3
 10
10768.984779
 20
-822.013110
  0
POINT
  8
3
 10
10712.917081
 20
-858.384717
  0
POINT
  8
3
 10
10665.738884
 20
-863.706404
  0
POINT
  8
3
 10
10618.454569
 20
-867.941165
  0
POINT
  8
3
 10
10579.693296
 20
-870.450121
  0
POINT
  8
3
 10
10534.265507
 20
-872.318647
  0
POINT
  8
3
 10
10488.646335
 20
-873.322586
  0
POINT
  8
3
 10
10183.938813
 20
-546.555050
  0
TEXT
  8
3
 10
10183.938813
 20
-546.555050
 40
0.000000
 50
0.000000
  1
# 43
  0
POINT
  8
3
 10
10376.812705
 20
-98.944508
  0
TEXT
  8
3
 10
10376.812705
 20
-98.944508
 40
0.000000
 50
0.000000
  1
# 44
  0
POINT
  8
3
 10
10574.066202
 20
-98.944508
  0
TEXT
  8
3
 10
10574.066202
 20
-98.944508
 40
0.000000
 50
0.000000
  1
# 45
  0
POINT
  8
3
 10
10766.940094
 20
-546.555050
  0
TEXT
  8
3
 10
10766.940094
 20
-546.555050
 40
0.000000
 50
0.000000
  1
# 46
  0
POINT
  8
4
 10
10182.668457
 20
-770.957870
 30
0.600000
 50
359.18
  0
TEXT
  8
4
 10
10182.668457
 20
-770.957870
 40
0.000000
 50
0.000000
  1
# 47
  0
POINT
  8
4
 10
10183.234863
 20
-498.520470
 30
0.600000
 50
  1.08
  0
TEXT
  8
4
 10
10183.234863
 20
-498.520470
 40
0.000000
 50
0.000000
  1
# 48
  0
POINT
  8
4
 10
10263.516846
 20
-346.238251
 30
0.600000
 50
311.35
  0
TEXT
  8
4
 10
10263.516846
 20
-346.238251
 40
0.000000
 50
0.000000
  1
# 49
  0
POINT
  8
4
 10
10290.311279
 20
-304.647350
 30
0.600000
 50
339.26
  0
TEXT
  8
4
 10
10290.311279
 20
-304.647350
 40
0.000000
 50
0.000000
  1
# 50
  0
POINT
  8
4
 10
10350.024414
 20
-108.691683
 30
0.600000
 50
291.08
  0
TEXT
  8
4
 10
10350.024414
 20
-108.691683
 40
0.000000
 50
0.000000
  1
# 51
  0
POINT
  8
4
 10
10404.705811
 20
-164.390564
 30
0.600000
 50
216.51
  0
TEXT
  8
4
 10
10404.705811
 20
-164.390564
 40
0.000000
 50
0.000000
  1
# 52
  0
POINT
  8
4
 10
10475.439453
 20
-198.277397
 30
0.600000
 50
270.00
  0
TEXT
  8
4
 10
10475.439453
 20
-198.277397
 40
0.000000
 50
0.000000
  1
# 53
  0
POINT
  8
4
 10
10546.173096
 20
-164.390564
 30
0.600000
 50
323.49
  0
TEXT
  8
4
 10
10546.173096
 20
-164.390564
 40
0.000000
 50
0.000000
  1
# 54
  0
POINT
  8
4
 10
10600.854492
 20
-108.691683
 30
0.600000
 50
248.92
  0
TEXT
  8
4
 10
10600.854492
 20
-108.691683
 40
0.000000
 50
0.000000
  1
# 55
  0
POINT
  8
4
 10
10660.567627
 20
-304.647350
 30
0.600000
 50
200.74
  0
TEXT
  8
4
 10
10660.567627
 20
-304.647350
 40
0.000000
 50
0.000000
  1
# 56
  0
POINT
  8
4
 10
10687.362061
 20
-346.238251
 30
0.600000
 50
228.65
  0
TEXT
  8
4
 10
10687.362061
 20
-346.238251
 40
0.000000
 50
0.000000
  1
# 57
  0
POINT
  8
4
 10
10767.644043
 20
-498.520470
 30
0.600000
 50
178.92
  0
TEXT
  8
4
 10
10767.644043
 20
-498.520470
 40
0.000000
 50
0.000000
  1
# 58
  0
POINT
  8
4
 10
10766.798096
 20
-640.966263
 30
0.600000
 50
180.32
  0
TEXT
  8
4
 10
10766.798096
 20
-640.966263
 40
0.000000
 50
0.000000
  1
# 59
  0
POINT
  8
4
 10
10768.210449
 20
-770.957870
 30
0.600000
 50
180.82
  0
TEXT
  8
4
 10
10768.210449
 20
-770.957870
 40
0.000000
 50
0.000000
  1
# 60
  0
POLYLINE
  8
11
  6
2
  66
1
  70
0
  0
VERTEX
  8
1
  10
10475.439453
  20
-873.449326
  0
VERTEX
  8
1
  10
10475.439453
  20
-198.277397
  0
SEQEND
  8
11
  0
POINT
  8
2
 10
10475.439453
 20
-873.449326
  0
TEXT
  8
2
 10
10475.439453
 20
-873.449326
 40
0.000000
 50
0.000000
  1
# 61
  0
POINT
  8
2
 10
10475.439453
 20
-198.277397
  0
TEXT
  8
2
 10
10475.439453
 20
-198.277397
 40
0.000000
 50
0.000000
  1
# 62
  0
POLYLINE
  8
11
  66
1
  70
0
  0
VERTEX
  8
1
  10
10767.194824
  20
-377.808685
  0
VERTEX
  8
1
  10
10750.131836
  20
-400.759544
  0
SEQEND
  8
11
  0
POINT
  8
2
 10
10767.194824
 20
-377.808685
  0
TEXT
  8
2
 10
10767.194824
 20
-377.808685
 40
0.000000
 50
0.000000
  1
# 63
  0
POINT
  8
2
 10
10750.131836
 20
-400.759544
  0
TEXT
  8
2
 10
10750.131836
 20
-400.759544
 40
0.000000
 50
0.000000
  1
# 64
  0
POLYLINE
  8
11
  66
1
  70
0
  0
VERTEX
  8
1
  10
10747.022705
  20
-464.573631
  0
VERTEX
  8
1
  10
10761.600342
  20
-492.763901
  0
SEQEND
  8
11
  0
POINT
  8
2
 10
10747.022705
 20
-464.573631
  0
TEXT
  8
2
 10
10747.022705
 20
-464.573631
 40
0.000000
 50
0.000000
  1
# 65
  0
POINT
  8
2
 10
10761.600342
 20
-492.763901
  0
TEXT
  8
2
 10
10761.600342
 20
-492.763901
 40
0.000000
 50
0.000000
  1
# 66
  0
POLYLINE
  8
11
  66
1
  70
0
  0
VERTEX
  8
1
  10
10771.074219
  20
-373.568344
  0
VERTEX
  8
1
  10
10475.439453
  20
-373.567886
  0
SEQEND
  8
11
  0
POINT
  8
2
 10
10771.074219
 20
-373.568344
  0
TEXT
  8
2
 10
10771.074219
 20
-373.568344
 40
0.000000
 50
0.000000
  1
# 67
  0
POINT
  8
2
 10
10475.439453
 20
-373.567886
  0
TEXT
  8
2
 10
10475.439453
 20
-373.567886
 40
0.000000
 50
0.000000
  1
# 68
  0
POLYLINE
  8
11
  66
1
  70
0
  0
VERTEX
  8
1
  10
10768.096924
  20
-546.564751
  0
VERTEX
  8
1
  10
10475.439453
  20
-546.564293
  0
SEQEND
  8
11
  0
POINT
  8
2
 10
10768.096924
 20
-546.564751
  0
TEXT
  8
2
 10
10768.096924
 20
-546.564751
 40
0.000000
 50
0.000000
  1
# 69
  0
POINT
  8
2
 10
10475.439453
 20
-546.564293
  0
TEXT
  8
2
 10
10475.439453
 20
-546.564293
 40
0.000000
 50
0.000000
  1
# 70
  0
POLYLINE
  8
11
  6
2
  66
1
  70
0
  0
VERTEX
  8
1
  10
10766.688232
  20
-826.103745
  0
VERTEX
  8
1
  10
10714.731853
  20
-832.635963
  0
VERTEX
  8
1
  10
10670.163795
  20
-837.448302
  0
VERTEX
  8
1
  10
10627.693952
  20
-841.212834
  0
VERTEX
  8
1
  10
10586.498693
  20
-844.067431
  0
VERTEX
  8
1
  10
10541.304121
  20
-846.334648
  0
VERTEX
  8
1
  10
10490.117237
  20
-848.095624
  0
VERTEX
  8
1
  10
10475.327148
  20
-848.449554
  0
SEQEND
  8
11
  0
POINT
  8
2
 10
10766.688232
 20
-826.103745
  0
TEXT
  8
2
 10
10766.688232
 20
-826.103745
 40
0.000000
 50
0.000000
  1
# 71
  0
POINT
  8
2
 10
10475.327148
 20
-848.449554
  0
TEXT
  8
2
 10
10475.327148
 20
-848.449554
 40
0.000000
 50
0.000000
  1
# 72
  0
POINT
  8
3
 10
10714.731853
 20
-832.635963
  0
POINT
  8
3
 10
10670.163795
 20
-837.448302
  0
POINT
  8
3
 10
10627.693952
 20
-841.212834
  0
POINT
  8
3
 10
10586.498693
 20
-844.067431
  0
POINT
  8
3
 10
10541.304121
 20
-846.334648
  0
POINT
  8
3
 10
10490.117237
 20
-848.095624
  0
POLYLINE
  8
11
  6
2
  66
1
  70
0
  0
VERTEX
  8
1
  10
10767.357178
  20
-832.066269
  0
VERTEX
  8
1
  10
10714.813806
  20
-838.664841
  0
VERTEX
  8
1
  10
10670.682478
  20
-843.424861
  0
VERTEX
  8
1
  10
10628.063757
  20
-847.201344
  0
VERTEX
  8
1
  10
10586.769999
  20
-850.061511
  0
VERTEX
  8
1
  10
10541.472354
  20
-852.331536
  0
VERTEX
  8
1
  10
10490.116413
  20
-854.094972
  0
VERTEX
  8
1
  10
10475.354004
  20
-854.449539
  0
SEQEND
  8
11
  0
POINT
  8
2
 10
10767.357178
 20
-832.066269
  0
TEXT
  8
2
 10
10767.357178
 20
-832.066269
 40
0.000000
 50
0.000000
  1
# 73
  0
POINT
  8
2
 10
10475.354004
 20
-854.449539
  0
TEXT
  8
2
 10
10475.354004
 20
-854.449539
 40
0.000000
 50
0.000000
  1
# 74
  0
POINT
  8
3
 10
10714.813806
 20
-838.664841
  0
POINT
  8
3
 10
10670.682478
 20
-843.424861
  0
POINT
  8
3
 10
10628.063757
 20
-847.201344
  0
POINT
  8
3
 10
10586.769999
 20
-850.061511
  0
POINT
  8
3
 10
10541.472354
 20
-852.331536
  0
POINT
  8
3
 10
10490.116413
 20
-854.094972
  0
POLYLINE
  8
11
  6
2
  66
1
  70
0
  0
VERTEX
  8
1
  10
10574.122314
  20
-98.782892
  0
VERTEX
  8
1
  10
10568.932156
  20
-118.146789
  0
VERTEX
  8
1
  10
10564.460461
  20
-131.684723
  0
VERTEX
  8
1
  10
10559.798953
  20
-143.383711
  0
VERTEX
  8
1
  10
10555.019154
  20
-153.193157
  0
VERTEX
  8
1
  10
10550.157859
  20
-161.320766
  0
VERTEX
  8
1
  10
10544.947825
  20
-168.423862
  0
VERTEX
  8
1
  10
10539.311066
  20
-174.722062
  0
VERTEX
  8
1
  10
10533.109026
  20
-180.388407
  0
VERTEX
  8
1
  10
10526.675016
  20
-185.187704
  0
VERTEX
  8
1
  10
10519.204622
  20
-189.657957
  0
VERTEX
  8
1
  10
10511.673328
  20
-193.144887
  0
VERTEX
  8
1
  10
10504.080257
  20
-195.738512
  0
VERTEX
  8
1
  10
10495.470579
  20
-197.746800
  0
VERTEX
  8
1
  10
10485.570625
  20
-199.102742
  0
VERTEX
  8
1
  10
10475.517578
  20
-199.775391
  0
SEQEND
  8
11
  0
POINT
  8
2
 10
10574.122314
 20
-98.782892
  0
TEXT
  8
2
 10
10574.122314
 20
-98.782892
 40
0.000000
 50
0.000000
  1
# 75
  0
POINT
  8
2
 10
10475.517578
 20
-199.775391
  0
TEXT
  8
2
 10
10475.517578
 20
-199.775391
 40
0.000000
 50
0.000000
  1
# 76
  0
POINT
  8
3
 10
10568.932156
 20
-118.146789
  0
POINT
  8
3
 10
10564.460461
 20
-131.684723
  0
POINT
  8
3
 10
10559.798953
 20
-143.383711
  0
POINT
  8
3
 10
10555.019154
 20
-153.193157
  0
POINT
  8
3
 10
10550.157859
 20
-161.320766
  0
POINT
  8
3
 10
10544.947825
 20
-168.423862
  0
POINT
  8
3
 10
10539.311066
 20
-174.722062
  0
POINT
  8
3
 10
10533.109026
 20
-180.388407
  0
POINT
  8
3
 10
10526.675016
 20
-185.187704
  0
POINT
  8
3
 10
10519.204622
 20
-189.657957
  0
POINT
  8
3
 10
10511.673328
 20
-193.144887
  0
POINT
  8
3
 10
10504.080257
 20
-195.738512
  0
POINT
  8
3
 10
10495.470579
 20
-197.746800
  0
POINT
  8
3
 10
10485.570625
 20
-199.102742
  0
POLYLINE
  8
11
  66
1
  70
0
  0
VERTEX
  8
1
  10
10357.126465
  20
-320.277405
  0
VERTEX
  8
1
  10
10357.126465
  20
-377.302589
  0
SEQEND
  8
11
  0
POINT
  8
2
 10
10357.126465
 20
-320.277405
  0
TEXT
  8
2
 10
10357.126465
 20
-320.277405
 40
0.000000
 50
0.000000
  1
# 77
  0
POINT
  8
2
 10
10357.126465
 20
-377.302589
  0
TEXT
  8
2
 10
10357.126465
 20
-377.302589
 40
0.000000
 50
0.000000
  1
# 78
  0
POLYLINE
  8
11
  66
1
  70
0
  0
VERTEX
  8
1
  10
10357.126465
  20
-320.277405
  0
VERTEX
  8
1
  10
10431.996789
  20
-320.277405
  0
VERTEX
  8
1
  10
10497.508323
  20
-320.277405
  0
VERTEX
  8
1
  10
10556.780663
  20
-320.277405
  0
VERTEX
  8
1
  10
10593.753662
  20
-320.277405
  0
SEQEND
  8
11
  0
POINT
  8
2
 10
10357.126465
 20
-320.277405
  0
TEXT
  8
2
 10
10357.126465
 20
-320.277405
 40
0.000000
 50
0.000000
  1
# 79
  0
POINT
  8
2
 10
10593.753662
 20
-320.277405
  0
TEXT
  8
2
 10
10593.753662
 20
-320.277405
 40
0.000000
 50
0.000000
  1
# 80
  0
POINT
  8
3
 10
10431.996789
 20
-320.277405
  0
POINT
  8
3
 10
10497.508323
 20
-320.277405
  0
POINT
  8
3
 10
10556.780663
 20
-320.277405
  0
POLYLINE
  8
11
  66
1
  70
0
  0
VERTEX
  8
1
  10
10593.753662
  20
-320.277405
  0
VERTEX
  8
1
  10
10593.753662
  20
-377.302589
  0
SEQEND
  8
11
  0
POINT
  8
2
 10
10593.753662
 20
-320.277405
  0
TEXT
  8
2
 10
10593.753662
 20
-320.277405
 40
0.000000
 50
0.000000
  1
# 81
  0
POINT
  8
2
 10
10593.753662
 20
-377.302589
  0
TEXT
  8
2
 10
10593.753662
 20
-377.302589
 40
0.000000
 50
0.000000
  1
# 82
  0
POLYLINE
  8
11
  66
1
  70
0
  0
VERTEX
  8
1
  10
10357.126465
  20
-377.302589
  0
VERTEX
  8
1
  10
10421.785886
  20
-377.302589
  0
VERTEX
  8
1
  10
10475.440063
  20
-377.302589
  0
VERTEX
  8
1
  10
10529.095067
  20
-377.302589
  0
VERTEX
  8
1
  10
10578.228374
  20
-377.302589
  0
VERTEX
  8
1
  10
10593.753662
  20
-377.302589
  0
SEQEND
  8
11
  0
POINT
  8
2
 10
10357.126465
 20
-377.302589
  0
TEXT
  8
2
 10
10357.126465
 20
-377.302589
 40
0.000000
 50
0.000000
  1
# 83
  0
POINT
  8
2
 10
10593.753662
 20
-377.302589
  0
TEXT
  8
2
 10
10593.753662
 20
-377.302589
 40
0.000000
 50
0.000000
  1
# 84
  0
POINT
  8
3
 10
10421.785886
 20
-377.302589
  0
POINT
  8
3
 10
10475.440063
 20
-377.302589
  0
POINT
  8
3
 10
10529.095067
 20
-377.302589
  0
POINT
  8
3
 10
10578.228374
 20
-377.302589
  0
POLYLINE
  8
11
  66
1
  70
0
  0
VERTEX
  8
1
  10
10183.684082
  20
-377.808685
  0
VERTEX
  8
1
  10
10200.747070
  20
-400.759544
  0
SEQEND
  8
11
  0
POINT
  8
2
 10
10183.684082
 20
-377.808685
  0
TEXT
  8
2
 10
10183.684082
 20
-377.808685
 40
0.000000
 50
0.000000
  1
# 85
  0
POINT
  8
2
 10
10200.747070
 20
-400.759544
  0
TEXT
  8
2
 10
10200.747070
 20
-400.759544
 40
0.000000
 50
0.000000
  1
# 86
  0
POLYLINE
  8
11
  66
1
  70
0
  0
VERTEX
  8
1
  10
10203.856201
  20
-464.573631
  0
VERTEX
  8
1
  10
10189.278564
  20
-492.763901
  0
SEQEND
  8
11
  0
POINT
  8
2
 10
10203.856201
 20
-464.573631
  0
TEXT
  8
2
 10
10203.856201
 20
-464.573631
 40
0.000000
 50
0.000000
  1
# 87
  0
POINT
  8
2
 10
10189.278564
 20
-492.763901
  0
TEXT
  8
2
 10
10189.278564
 20
-492.763901
 40
0.000000
 50
0.000000
  1
# 88
  0
POLYLINE
  8
11
  66
1
  70
0
  0
VERTEX
  8
1
  10
10179.804688
  20
-373.568344
  0
VERTEX
  8
1
  10
10475.439453
  20
-373.567886
  0
SEQEND
  8
11
  0
POINT
  8
2
 10
10179.804688
 20
-373.568344
  0
TEXT
  8
2
 10
10179.804688
 20
-373.568344
 40
0.000000
 50
0.000000
  1
# 89
  0
POINT
  8
2
 10
10475.439453
 20
-373.567886
  0
TEXT
  8
2
 10
10475.439453
 20
-373.567886
 40
0.000000
 50
0.000000
  1
# 90
  0
POLYLINE
  8
11
  66
1
  70
0
  0
VERTEX
  8
1
  10
10182.781982
  20
-546.564751
  0
VERTEX
  8
1
  10
10475.439453
  20
-546.564293
  0
SEQEND
  8
11
  0
POINT
  8
2
 10
10182.781982
 20
-546.564751
  0
TEXT
  8
2
 10
10182.781982
 20
-546.564751
 40
0.000000
 50
0.000000
  1
# 91
  0
POINT
  8
2
 10
10475.439453
 20
-546.564293
  0
TEXT
  8
2
 10
10475.439453
 20
-546.564293
 40
0.000000
 50
0.000000
  1
# 92
  0
POLYLINE
  8
11
  6
2
  66
1
  70
0
  0
VERTEX
  8
1
  10
10184.190674
  20
-826.103745
  0
VERTEX
  8
1
  10
10207.691471
  20
-829.148788
  0
VERTEX
  8
1
  10
10229.528935
  20
-831.849619
  0
VERTEX
  8
1
  10
10254.199025
  20
-834.689481
  0
VERTEX
  8
1
  10
10270.348662
  20
-836.406791
  0
VERTEX
  8
1
  10
10286.461104
  20
-838.005015
  0
VERTEX
  8
1
  10
10302.636898
  20
-839.492964
  0
VERTEX
  8
1
  10
10318.755907
  20
-840.858353
  0
VERTEX
  8
1
  10
10335.008928
  20
-842.114733
  0
VERTEX
  8
1
  10
10351.076548
  20
-843.234264
  0
VERTEX
  8
1
  10
10368.916028
  20
-844.332814
  0
VERTEX
  8
1
  10
10387.381783
  20
-845.321643
  0
VERTEX
  8
1
  10
10405.650710
  20
-846.167988
  0
VERTEX
  8
1
  10
10425.234804
  20
-846.953473
  0
VERTEX
  8
1
  10
10446.335307
  20
-847.679263
  0
VERTEX
  8
1
  10
10466.212241
  20
-848.234002
  0
VERTEX
  8
1
  10
10475.551758
  20
-848.449554
  0
SEQEND
  8
11
  0
POINT
  8
2
 10
10184.190674
 20
-826.103745
  0
TEXT
  8
2
 10
10184.190674
 20
-826.103745
 40
0.000000
 50
0.000000
  1
# 93
  0
POINT
  8
2
 10
10475.551758
 20
-848.449554
  0
TEXT
  8
2
 10
10475.551758
 20
-848.449554
 40
0.000000
 50
0.000000
  1
# 94
  0
POINT
  8
3
 10
10207.691471
 20
-829.148788
  0
POINT
  8
3
 10
10229.528935
 20
-831.849619
  0
POINT
  8
3
 10
10254.199025
 20
-834.689481
  0
POINT
  8
3
 10
10270.348662
 20
-836.406791
  0
POINT
  8
3
 10
10286.461104
 20
-838.005015
  0
POINT
  8
3
 10
10302.636898
 20
-839.492964
  0
POINT
  8
3
 10
10318.755907
 20
-840.858353
  0
POINT
  8
3
 10
10335.008928
 20
-842.114733
  0
POINT
  8
3
 10
10351.076548
 20
-843.234264
  0
POINT
  8
3
 10
10368.916028
 20
-844.332814
  0
POINT
  8
3
 10
10387.381783
 20
-845.321643
  0
POINT
  8
3
 10
10405.650710
 20
-846.167988
  0
POINT
  8
3
 10
10425.234804
 20
-846.953473
  0
POINT
  8
3
 10
10446.335307
 20
-847.679263
  0
POINT
  8
3
 10
10466.212241
 20
-848.234002
  0
POLYLINE
  8
11
  6
2
  66
1
  70
0
  0
VERTEX
  8
1
  10
10183.521729
  20
-832.066269
  0
VERTEX
  8
1
  10
10218.403630
  20
-836.535598
  0
VERTEX
  8
1
  10
10236.428530
  20
-838.707431
  0
VERTEX
  8
1
  10
10253.656514
  20
-840.664295
  0
VERTEX
  8
1
  10
10269.825821
  20
-842.383366
  0
VERTEX
  8
1
  10
10286.001989
  20
-843.987078
  0
VERTEX
  8
1
  10
10302.228075
  20
-845.478945
  0
VERTEX
  8
1
  10
10318.382012
  20
-846.846703
  0
VERTEX
  8
1
  10
10334.674655
  20
-848.105474
  0
VERTEX
  8
1
  10
10350.792973
  20
-849.227905
  0
VERTEX
  8
1
  10
10368.696064
  20
-850.329761
  0
VERTEX
  8
1
  10
10387.193319
  20
-851.319273
  0
VERTEX
  8
1
  10
10405.417266
  20
-852.162278
  0
VERTEX
  8
1
  10
10425.120385
  20
-852.952691
  0
VERTEX
  8
1
  10
10456.352169
  20
-853.977415
  0
VERTEX
  8
1
  10
10475.524902
  20
-854.449539
  0
SEQEND
  8
11
  0
POINT
  8
2
 10
10183.521729
 20
-832.066269
  0
TEXT
  8
2
 10
10183.521729
 20
-832.066269
 40
0.000000
 50
0.000000
  1
# 95
  0
POINT
  8
2
 10
10475.524902
 20
-854.449539
  0
TEXT
  8
2
 10
10475.524902
 20
-854.449539
 40
0.000000
 50
0.000000
  1
# 96
  0
POINT
  8
3
 10
10218.403630
 20
-836.535598
  0
POINT
  8
3
 10
10236.428530
 20
-838.707431
  0
POINT
  8
3
 10
10253.656514
 20
-840.664295
  0
POINT
  8
3
 10
10269.825821
 20
-842.383366
  0
POINT
  8
3
 10
10286.001989
 20
-843.987078
  0
POINT
  8
3
 10
10302.228075
 20
-845.478945
  0
POINT
  8
3
 10
10318.382012
 20
-846.846703
  0
POINT
  8
3
 10
10334.674655
 20
-848.105474
  0
POINT
  8
3
 10
10350.792973
 20
-849.227905
  0
POINT
  8
3
 10
10368.696064
 20
-850.329761
  0
POINT
  8
3
 10
10387.193319
 20
-851.319273
  0
POINT
  8
3
 10
10405.417266
 20
-852.162278
  0
POINT
  8
3
 10
10425.120385
 20
-852.952691
  0
POINT
  8
3
 10
10456.352169
 20
-853.977415
  0
POLYLINE
  8
11
  6
2
  66
1
  70
0
  0
VERTEX
  8
1
  10
10376.756592
  20
-98.782892
  0
VERTEX
  8
1
  10
10379.506820
  20
-109.541520
  0
VERTEX
  8
1
  10
10382.340095
  20
-119.450871
  0
VERTEX
  8
1
  10
10384.664710
  20
-126.687136
  0
VERTEX
  8
1
  10
10387.172682
  20
-133.728958
  0
VERTEX
  8
1
  10
10389.195797
  20
-138.923491
  0
VERTEX
  8
1
  10
10391.231669
  20
-143.727349
  0
VERTEX
  8
1
  10
10393.053398
  20
-147.681084
  0
VERTEX
  8
1
  10
10394.930082
  20
-151.440220
  0
VERTEX
  8
1
  10
10398.085135
  20
-157.118944
  0
VERTEX
  8
1
  10
10401.418759
  20
-162.358611
  0
VERTEX
  8
1
  10
10403.323080
  20
-165.047103
  0
VERTEX
  8
1
  10
10405.310491
  20
-167.649776
  0
VERTEX
  8
1
  10
10407.376725
  20
-170.160872
  0
VERTEX
  8
1
  10
10409.512799
  20
-172.568957
  0
VERTEX
  8
1
  10
10411.737173
  20
-174.892802
  0
VERTEX
  8
1
  10
10414.039182
  20
-177.119861
  0
VERTEX
  8
1
  10
10416.458841
  20
-179.284556
  0
VERTEX
  8
1
  10
10418.963092
  20
-181.353641
  0
VERTEX
  8
1
  10
10421.546517
  20
-183.322674
  0
VERTEX
  8
1
  10
10424.203890
  20
-185.187704
  0
VERTEX
  8
1
  10
10427.876302
  20
-187.520225
  0
VERTEX
  8
1
  10
10431.674284
  20
-189.657957
  0
VERTEX
  8
1
  10
10435.560802
  20
-191.577161
  0
VERTEX
  8
1
  10
10439.520466
  20
-193.270093
  0
VERTEX
  8
1
  10
10443.481846
  20
-194.711472
  0
VERTEX
  8
1
  10
10446.487357
  20
-195.648636
  0
VERTEX
  8
1
  10
10449.591244
  20
-196.488187
  0
VERTEX
  8
1
  10
10452.786874
  20
-197.228160
  0
VERTEX
  8
1
  10
10456.048443
  20
-197.861821
  0
VERTEX
  8
1
  10
10459.999796
  20
-198.479140
  0
VERTEX
  8
1
  10
10464.321235
  20
-199.001507
  0
VERTEX
  8
1
  10
10468.859068
  20
-199.415472
  0
VERTEX
  8
1
  10
10473.331146
  20
-199.691362
  0
VERTEX
  8
1
  10
10475.361328
  20
-199.775391
  0
SEQEND
  8
11
  0
POINT
  8
2
 10
10376.756592
 20
-98.782892
  0
TEXT
  8
2
 10
10376.756592
 20
-98.782892
 40
0.000000
 50
0.000000
  1
# 97
  0
POINT
  8
2
 10
10475.361328
 20
-199.775391
  0
TEXT
  8
2
 10
10475.361328
 20
-199.775391
 40
0.000000
 50
0.000000
  1
# 98
  0
POINT
  8
3
 10
10379.506820
 20
-109.541520
  0
POINT
  8
3
 10
10382.340095
 20
-119.450871
  0
POINT
  8
3
 10
10384.664710
 20
-126.687136
  0
POINT
  8
3
 10
10387.172682
 20
-133.728958
  0
POINT
  8
3
 10
10389.195797
 20
-138.923491
  0
POINT
  8
3
 10
10391.231669
 20
-143.727349
  0
POINT
  8
3
 10
10393.053398
 20
-147.681084
  0
POINT
  8
3
 10
10394.930082
 20
-151.440220
  0
POINT
  8
3
 10
10398.085135
 20
-157.118944
  0
POINT
  8
3
 10
10401.418759
 20
-162.358611
  0
POINT
  8
3
 10
10403.323080
 20
-165.047103
  0
POINT
  8
3
 10
10405.310491
 20
-167.649776
  0
POINT
  8
3
 10
10407.376725
 20
-170.160872
  0
POINT
  8
3
 10
10409.512799
 20
-172.568957
  0
POINT
  8
3
 10
10411.737173
 20
-174.892802
  0
POINT
  8
3
 10
10414.039182
 20
-177.119861
  0
POINT
  8
3
 10
10416.458841
 20
-179.284556
  0
POINT
  8
3
 10
10418.963092
 20
-181.353641
  0
POINT
  8
3
 10
10421.546517
 20
-183.322674
  0
POINT
  8
3
 10
10424.203890
 20
-185.187704
  0
POINT
  8
3
 10
10427.876302
 20
-187.520225
  0
POINT
  8
3
 10
10431.674284
 20
-189.657957
  0
POINT
  8
3
 10
10435.560802
 20
-191.577161
  0
POINT
  8
3
 10
10439.520466
 20
-193.270093
  0
POINT
  8
3
 10
10443.481846
 20
-194.711472
  0
POINT
  8
3
 10
10446.487357
 20
-195.648636
  0
POINT
  8
3
 10
10449.591244
 20
-196.488187
  0
POINT
  8
3
 10
10452.786874
 20
-197.228160
  0
POINT
  8
3
 10
10456.048443
 20
-197.861821
  0
POINT
  8
3
 10
10459.999796
 20
-198.479140
  0
POINT
  8
3
 10
10464.321235
 20
-199.001507
  0
POINT
  8
3
 10
10468.859068
 20
-199.415472
  0
POINT
  8
3
 10
10473.331146
 20
-199.691362
 0
LINE
 8
7
 10
10482.287598
 20
-384.791183
 11
10482.287598
 21
-726.270294
  0
TEXT
  8
1
 10
10446.289063
 20
-341.165123
 40
30.999999
 50
359.396909
  1
花位
 0
LINE
 8
11
 10
10352.655029
 20
-377.392120
 11
10596.072998
 21
-377.392120
 0
LINE
 8
11
 10
10596.072998
 20
-377.392120
 11
10596.072998
 21
-317.551689
 0
LINE
 8
11
 10
10596.072998
 20
-317.551689
 11
10352.655029
 21
-317.551689
 0
LINE
 8
11
 10
10352.655029
 20
-317.551689
 11
10352.655029
 21
-377.392120
 0
LINE
 8
11
 10
10474.364014
 20
-377.392120
 11
10474.364014
 21
-317.551689
 0
LINE
 8
11
 10
10596.072998
 20
-347.471886
 11
10352.655029
 21
-347.471886
  0
TEXT
  8
1
 10
10475.439148
 20
-494.512873
 40
10.000000
 50
0.000000
  1
PIECE NAME: C2590428.前身片
  0
TEXT
  8
1
 10
10475.439148
 20
-479.512873
 40
10.000000
 50
0.000000
  1
Size: M
  0
TEXT
  8
1
 10
10475.439148
 20
-464.512873
 40
10.000000
 50
0.000000
  1
ANNOTATION: 面料1 X1
  0
TEXT
  8
1
 10
10475.439148
 20
-449.512873
 40
10.000000
 50
0.000000
  1
QUANTITY: 1
  0
TEXT
  8
1
 10
10475.439148
 20
-434.512873
 40
10.000000
 50
0.000000
  1
FABRIC: 面料1
  0
TEXT
  8
1
 10
10475.439148
 20
-419.512873
 40
10.000000
 50
0.000000
  1
CATEGORY: 前身片
0
ENDBLK
0
BLOCK
  8
1
  2
C2590428.后身片_面料1_M
 70
0
 10
0.0
 20
0.0
  0
POLYLINE
  8
1
  66
1
  70
1
  0
VERTEX
  8
1
  10
9451.929561
  20
-868.034955
  0
VERTEX
  8
1
  10
9454.507472
  20
-843.341043
  0
VERTEX
  8
1
  10
9454.879447
  20
-816.522063
  0
VERTEX
  8
1
  10
9455.565821
  20
-763.761630
  0
VERTEX
  8
1
  10
9455.569725
  20
-763.461546
  0
VERTEX
  8
1
  10
9456.177335
  20
-711.420872
  0
VERTEX
  8
1
  10
9456.505842
  20
-674.799804
  0
VERTEX
  8
1
  10
9456.664948
  20
-657.063046
  0
VERTEX
  8
1
  10
9456.864417
  20
-604.544040
  0
VERTEX
  8
1
  10
9456.679044
  20
-552.772673
  0
VERTEX
  8
1
  10
9456.669910
  20
-550.221650
  0
VERTEX
  8
1
  10
9456.039674
  20
-499.826068
  0
VERTEX
  8
1
  10
9455.968072
  20
-494.100581
  0
VERTEX
  8
1
  10
9454.847689
  20
-441.738096
  0
VERTEX
  8
1
  10
9452.901039
  20
-372.108978
  0
VERTEX
  8
1
  10
9459.509615
  20
-371.073058
  0
VERTEX
  8
1
  10
9463.188793
  20
-370.542570
  0
VERTEX
  8
1
  10
9473.672233
  20
-368.793530
  0
VERTEX
  8
1
  10
9484.929702
  20
-366.093914
  0
VERTEX
  8
1
  10
9495.610277
  20
-362.352681
  0
VERTEX
  8
1
  10
9506.295897
  20
-357.199796
  0
VERTEX
  8
1
  10
9516.300163
  20
-350.838887
  0
VERTEX
  8
1
  10
9523.330536
  20
-345.243346
  0
VERTEX
  8
1
  10
9531.799684
  20
-336.908436
  0
VERTEX
  8
1
  10
9539.252313
  20
-327.632185
  0
VERTEX
  8
1
  10
9545.572037
  20
-317.585607
  0
VERTEX
  8
1
  10
9549.803866
  20
-308.977523
  0
VERTEX
  8
1
  10
9554.020124
  20
-297.784928
  0
VERTEX
  8
1
  10
9555.001246
  20
-294.225367
  0
VERTEX
  8
1
  10
9557.248371
  20
-286.072681
  0
VERTEX
  8
1
  10
9559.621980
  20
-273.977280
  0
VERTEX
  8
1
  10
9561.761686
  20
-256.804779
  0
VERTEX
  8
1
  10
9562.853471
  20
-238.117470
  0
VERTEX
  8
1
  10
9562.885309
  20
-216.133569
  0
VERTEX
  8
1
  10
9561.907300
  20
-192.846803
  0
VERTEX
  8
1
  10
9560.113364
  20
-170.808854
  0
VERTEX
  8
1
  10
9557.773602
  20
-152.080510
  0
VERTEX
  8
1
  10
9554.575646
  20
-133.558510
  0
VERTEX
  8
1
  10
9553.217043
  20
-127.593112
  0
VERTEX
  8
1
  10
9549.716110
  20
-112.221110
  0
VERTEX
  8
1
  10
9547.346971
  20
-101.471720
  0
VERTEX
  8
1
  10
9605.150051
  20
-85.188789
  0
VERTEX
  8
1
  10
9625.806629
  20
-79.369936
  0
VERTEX
  8
1
  10
9659.409556
  20
-69.904162
  0
VERTEX
  8
1
  10
9661.353184
  20
-73.752522
  0
VERTEX
  8
1
  10
9662.441400
  20
-76.013655
  0
VERTEX
  8
1
  10
9665.639155
  20
-82.098825
  0
VERTEX
  8
1
  10
9667.218951
  20
-84.446765
  0
VERTEX
  8
1
  10
9669.325619
  20
-87.577757
  0
VERTEX
  8
1
  10
9674.461110
  20
-93.182651
  0
VERTEX
  8
1
  10
9676.447526
  20
-94.844286
  0
VERTEX
  8
1
  10
9680.345632
  20
-98.105049
  0
VERTEX
  8
1
  10
9686.876386
  20
-102.429369
  0
VERTEX
  8
1
  10
9694.258556
  20
-106.145171
  0
VERTEX
  8
1
  10
9701.661145
  20
-108.861339
  0
VERTEX
  8
1
  10
9710.323362
  20
-111.082842
  0
VERTEX
  8
1
  10
9720.974929
  20
-112.757362
  0
VERTEX
  8
1
  10
9734.678478
  20
-113.749706
  0
VERTEX
  8
1
  10
9758.592600
  20
-113.976418
  0
VERTEX
  8
1
  10
9758.685303
  20
-113.977296
  0
VERTEX
  8
1
  10
9758.778006
  20
-113.976418
  0
VERTEX
  8
1
  10
9782.692127
  20
-113.749706
  0
VERTEX
  8
1
  10
9796.395676
  20
-112.757362
  0
VERTEX
  8
1
  10
9807.047244
  20
-111.082842
  0
VERTEX
  8
1
  10
9815.709461
  20
-108.861339
  0
VERTEX
  8
1
  10
9823.112049
  20
-106.145171
  0
VERTEX
  8
1
  10
9830.494219
  20
-102.429369
  0
VERTEX
  8
1
  10
9837.024974
  20
-98.105049
  0
VERTEX
  8
1
  10
9842.909495
  20
-93.182651
  0
VERTEX
  8
1
  10
9848.044987
  20
-87.577757
  0
VERTEX
  8
1
  10
9850.151654
  20
-84.446765
  0
VERTEX
  8
1
  10
9851.731450
  20
-82.098825
  0
VERTEX
  8
1
  10
9854.929206
  20
-76.013655
  0
VERTEX
  8
1
  10
9856.017421
  20
-73.752522
  0
VERTEX
  8
1
  10
9857.961049
  20
-69.904162
  0
VERTEX
  8
1
  10
9891.563977
  20
-79.369936
  0
VERTEX
  8
1
  10
9912.220554
  20
-85.188789
  0
VERTEX
  8
1
  10
9970.023634
  20
-101.471720
  0
VERTEX
  8
1
  10
9967.654495
  20
-112.221110
  0
VERTEX
  8
1
  10
9964.153563
  20
-127.593112
  0
VERTEX
  8
1
  10
9962.794959
  20
-133.558510
  0
VERTEX
  8
1
  10
9959.597004
  20
-152.080510
  0
VERTEX
  8
1
  10
9957.257242
  20
-170.808854
  0
VERTEX
  8
1
  10
9955.463306
  20
-192.846803
  0
VERTEX
  8
1
  10
9954.485296
  20
-216.133569
  0
VERTEX
  8
1
  10
9954.517135
  20
-238.117470
  0
VERTEX
  8
1
  10
9955.608920
  20
-256.804779
  0
VERTEX
  8
1
  10
9957.748625
  20
-273.977280
  0
VERTEX
  8
1
  10
9960.122235
  20
-286.072681
  0
VERTEX
  8
1
  10
9962.369359
  20
-294.225367
  0
VERTEX
  8
1
  10
9963.350481
  20
-297.784928
  0
VERTEX
  8
1
  10
9967.566739
  20
-308.977523
  0
VERTEX
  8
1
  10
9971.798569
  20
-317.585607
  0
VERTEX
  8
1
  10
9978.118292
  20
-327.632185
  0
VERTEX
  8
1
  10
9985.570922
  20
-336.908436
  0
VERTEX
  8
1
  10
9994.040070
  20
-345.243346
  0
VERTEX
  8
1
  10
10001.070442
  20
-350.838887
  0
VERTEX
  8
1
  10
10011.074709
  20
-357.199796
  0
VERTEX
  8
1
  10
10021.760329
  20
-362.352681
  0
VERTEX
  8
1
  10
10032.440903
  20
-366.093914
  0
VERTEX
  8
1
  10
10043.698373
  20
-368.793530
  0
VERTEX
  8
1
  10
10054.181813
  20
-370.542570
  0
VERTEX
  8
1
  10
10057.860991
  20
-371.073058
  0
VERTEX
  8
1
  10
10064.469567
  20
-372.108978
  0
VERTEX
  8
1
  10
10062.522917
  20
-441.738096
  0
VERTEX
  8
1
  10
10061.402534
  20
-494.100581
  0
VERTEX
  8
1
  10
10061.330932
  20
-499.826068
  0
VERTEX
  8
1
  10
10060.700695
  20
-550.221650
  0
VERTEX
  8
1
  10
10060.691561
  20
-552.772673
  0
VERTEX
  8
1
  10
10060.506189
  20
-604.544040
  0
VERTEX
  8
1
  10
10060.705658
  20
-657.063046
  0
VERTEX
  8
1
  10
10061.193270
  20
-711.420872
  0
VERTEX
  8
1
  10
10061.800880
  20
-763.461546
  0
VERTEX
  8
1
  10
10061.804784
  20
-763.761630
  0
VERTEX
  8
1
  10
10062.491159
  20
-816.522063
  0
VERTEX
  8
1
  10
10062.863133
  20
-843.341043
  0
VERTEX
  8
1
  10
10065.441044
  20
-868.034955
  0
VERTEX
  8
1
  10
10032.660232
  20
-870.626550
  0
VERTEX
  8
1
  10
9981.852752
  20
-874.113390
  0
VERTEX
  8
1
  10
9929.350506
  20
-876.734972
  0
VERTEX
  8
1
  10
9876.876930
  20
-878.452995
  0
VERTEX
  8
1
  10
9823.006755
  20
-879.437044
  0
VERTEX
  8
1
  10
9758.677123
  20
-879.870584
  0
VERTEX
  8
1
  10
9694.363851
  20
-879.437044
  0
VERTEX
  8
1
  10
9640.493676
  20
-878.452995
  0
VERTEX
  8
1
  10
9588.020099
  20
-876.734972
  0
VERTEX
  8
1
  10
9535.517853
  20
-874.113390
  0
VERTEX
  8
1
  10
9484.710373
  20
-870.626550
  0
VERTEX
  8
1
  10
9451.929561
  20
-868.034955
  0
SEQEND
  8
1
  0
POINT
  8
2
 10
9451.929561
 20
-868.034955
  0
TEXT
  8
2
 10
9451.929561
 20
-868.034955
 40
0.000000
 50
0.000000
  1
# 99
  0
POINT
  8
2
 10
9454.507472
 20
-843.341043
  0
TEXT
  8
2
 10
9454.507472
 20
-843.341043
 40
0.000000
 50
0.000000
  1
# 100
  0
POINT
  8
2
 10
9452.901039
 20
-372.108978
  0
TEXT
  8
2
 10
9452.901039
 20
-372.108978
 40
0.000000
 50
0.000000
  1
# 101
  0
POINT
  8
2
 10
9547.346971
 20
-101.471720
  0
TEXT
  8
2
 10
9547.346971
 20
-101.471720
 40
0.000000
 50
0.000000
  1
# 102
  0
POINT
  8
2
 10
9659.409556
 20
-69.904162
  0
TEXT
  8
2
 10
9659.409556
 20
-69.904162
 40
0.000000
 50
0.000000
  1
# 103
  0
POINT
  8
2
 10
9758.685303
 20
-113.977296
  0
TEXT
  8
2
 10
9758.685303
 20
-113.977296
 40
0.000000
 50
0.000000
  1
# 104
  0
POINT
  8
2
 10
9857.961049
 20
-69.904162
  0
TEXT
  8
2
 10
9857.961049
 20
-69.904162
 40
0.000000
 50
0.000000
  1
# 105
  0
POINT
  8
2
 10
9970.023634
 20
-101.471720
  0
TEXT
  8
2
 10
9970.023634
 20
-101.471720
 40
0.000000
 50
0.000000
  1
# 106
  0
POINT
  8
2
 10
10064.469567
 20
-372.108978
  0
TEXT
  8
2
 10
10064.469567
 20
-372.108978
 40
0.000000
 50
0.000000
  1
# 107
  0
POINT
  8
2
 10
10062.863133
 20
-843.341043
  0
TEXT
  8
2
 10
10062.863133
 20
-843.341043
 40
0.000000
 50
0.000000
  1
# 108
  0
POINT
  8
2
 10
10065.441044
 20
-868.034955
  0
TEXT
  8
2
 10
10065.441044
 20
-868.034955
 40
0.000000
 50
0.000000
  1
# 109
  0
POINT
  8
2
 10
9758.677123
 20
-879.870584
  0
TEXT
  8
2
 10
9758.677123
 20
-879.870584
 40
0.000000
 50
0.000000
  1
# 110
  0
POINT
  8
2
 10
9451.929561
 20
-868.034955
  0
TEXT
  8
2
 10
9451.929561
 20
-868.034955
 40
0.000000
 50
0.000000
  1
# 111
  0
POINT
  8
3
 10
9454.879447
 20
-816.522063
  0
POINT
  8
3
 10
9455.565821
 20
-763.761630
  0
POINT
  8
3
 10
9455.569725
 20
-763.461546
  0
POINT
  8
3
 10
9456.177335
 20
-711.420872
  0
POINT
  8
3
 10
9456.505842
 20
-674.799804
  0
POINT
  8
3
 10
9456.664948
 20
-657.063046
  0
POINT
  8
3
 10
9456.864417
 20
-604.544040
  0
POINT
  8
3
 10
9456.679044
 20
-552.772673
  0
POINT
  8
3
 10
9456.669910
 20
-550.221650
  0
POINT
  8
3
 10
9456.039674
 20
-499.826068
  0
POINT
  8
3
 10
9455.968072
 20
-494.100581
  0
POINT
  8
3
 10
9454.847689
 20
-441.738096
  0
POINT
  8
3
 10
9459.509615
 20
-371.073058
  0
POINT
  8
3
 10
9463.188793
 20
-370.542570
  0
POINT
  8
3
 10
9473.672233
 20
-368.793530
  0
POINT
  8
3
 10
9484.929702
 20
-366.093914
  0
POINT
  8
3
 10
9495.610277
 20
-362.352681
  0
POINT
  8
3
 10
9506.295897
 20
-357.199796
  0
POINT
  8
3
 10
9516.300163
 20
-350.838887
  0
POINT
  8
3
 10
9523.330536
 20
-345.243346
  0
POINT
  8
3
 10
9531.799684
 20
-336.908436
  0
POINT
  8
3
 10
9539.252313
 20
-327.632185
  0
POINT
  8
3
 10
9545.572037
 20
-317.585607
  0
POINT
  8
3
 10
9549.803866
 20
-308.977523
  0
POINT
  8
3
 10
9554.020124
 20
-297.784928
  0
POINT
  8
3
 10
9555.001246
 20
-294.225367
  0
POINT
  8
3
 10
9557.248371
 20
-286.072681
  0
POINT
  8
3
 10
9559.621980
 20
-273.977280
  0
POINT
  8
3
 10
9561.761686
 20
-256.804779
  0
POINT
  8
3
 10
9562.853471
 20
-238.117470
  0
POINT
  8
3
 10
9562.885309
 20
-216.133569
  0
POINT
  8
3
 10
9561.907300
 20
-192.846803
  0
POINT
  8
3
 10
9560.113364
 20
-170.808854
  0
POINT
  8
3
 10
9557.773602
 20
-152.080510
  0
POINT
  8
3
 10
9554.575646
 20
-133.558510
  0
POINT
  8
3
 10
9553.217043
 20
-127.593112
  0
POINT
  8
3
 10
9549.716110
 20
-112.221110
  0
POINT
  8
3
 10
9605.150051
 20
-85.188789
  0
POINT
  8
3
 10
9625.806629
 20
-79.369936
  0
POINT
  8
3
 10
9661.353184
 20
-73.752522
  0
POINT
  8
3
 10
9662.441400
 20
-76.013655
  0
POINT
  8
3
 10
9665.639155
 20
-82.098825
  0
POINT
  8
3
 10
9667.218951
 20
-84.446765
  0
POINT
  8
3
 10
9669.325619
 20
-87.577757
  0
POINT
  8
3
 10
9674.461110
 20
-93.182651
  0
POINT
  8
3
 10
9676.447526
 20
-94.844286
  0
POINT
  8
3
 10
9680.345632
 20
-98.105049
  0
POINT
  8
3
 10
9686.876386
 20
-102.429369
  0
POINT
  8
3
 10
9694.258556
 20
-106.145171
  0
POINT
  8
3
 10
9701.661145
 20
-108.861339
  0
POINT
  8
3
 10
9710.323362
 20
-111.082842
  0
POINT
  8
3
 10
9720.974929
 20
-112.757362
  0
POINT
  8
3
 10
9734.678478
 20
-113.749706
  0
POINT
  8
3
 10
9758.592600
 20
-113.976418
  0
POINT
  8
3
 10
9758.778006
 20
-113.976418
  0
POINT
  8
3
 10
9782.692127
 20
-113.749706
  0
POINT
  8
3
 10
9796.395676
 20
-112.757362
  0
POINT
  8
3
 10
9807.047244
 20
-111.082842
  0
POINT
  8
3
 10
9815.709461
 20
-108.861339
  0
POINT
  8
3
 10
9823.112049
 20
-106.145171
  0
POINT
  8
3
 10
9830.494219
 20
-102.429369
  0
POINT
  8
3
 10
9837.024974
 20
-98.105049
  0
POINT
  8
3
 10
9842.909495
 20
-93.182651
  0
POINT
  8
3
 10
9848.044987
 20
-87.577757
  0
POINT
  8
3
 10
9850.151654
 20
-84.446765
  0
POINT
  8
3
 10
9851.731450
 20
-82.098825
  0
POINT
  8
3
 10
9854.929206
 20
-76.013655
  0
POINT
  8
3
 10
9856.017421
 20
-73.752522
  0
POINT
  8
3
 10
9891.563977
 20
-79.369936
  0
POINT
  8
3
 10
9912.220554
 20
-85.188789
  0
POINT
  8
3
 10
9967.654495
 20
-112.221110
  0
POINT
  8
3
 10
9964.153563
 20
-127.593112
  0
POINT
  8
3
 10
9962.794959
 20
-133.558510
  0
POINT
  8
3
 10
9959.597004
 20
-152.080510
  0
POINT
  8
3
 10
9957.257242
 20
-170.808854
  0
POINT
  8
3
 10
9955.463306
 20
-192.846803
  0
POINT
  8
3
 10
9954.485296
 20
-216.133569
  0
POINT
  8
3
 10
9954.517135
 20
-238.117470
  0
POINT
  8
3
 10
9955.608920
 20
-256.804779
  0
POINT
  8
3
 10
9957.748625
 20
-273.977280
  0
POINT
  8
3
 10
9960.122235
 20
-286.072681
  0
POINT
  8
3
 10
9962.369359
 20
-294.225367
  0
POINT
  8
3
 10
9963.350481
 20
-297.784928
  0
POINT
  8
3
 10
9967.566739
 20
-308.977523
  0
POINT
  8
3
 10
9971.798569
 20
-317.585607
  0
POINT
  8
3
 10
9978.118292
 20
-327.632185
  0
POINT
  8
3
 10
9985.570922
 20
-336.908436
  0
POINT
  8
3
 10
9994.040070
 20
-345.243346
  0
POINT
  8
3
 10
10001.070442
 20
-350.838887
  0
POINT
  8
3
 10
10011.074709
 20
-357.199796
  0
POINT
  8
3
 10
10021.760329
 20
-362.352681
  0
POINT
  8
3
 10
10032.440903
 20
-366.093914
  0
POINT
  8
3
 10
10043.698373
 20
-368.793530
  0
POINT
  8
3
 10
10054.181813
 20
-370.542570
  0
POINT
  8
3
 10
10057.860991
 20
-371.073058
  0
POINT
  8
3
 10
10062.522917
 20
-441.738096
  0
POINT
  8
3
 10
10061.402534
 20
-494.100581
  0
POINT
  8
3
 10
10061.330932
 20
-499.826068
  0
POINT
  8
3
 10
10060.700695
 20
-550.221650
  0
POINT
  8
3
 10
10060.691561
 20
-552.772673
  0
POINT
  8
3
 10
10060.506189
 20
-604.544040
  0
POINT
  8
3
 10
10060.705658
 20
-657.063046
  0
POINT
  8
3
 10
10061.193270
 20
-711.420872
  0
POINT
  8
3
 10
10061.800880
 20
-763.461546
  0
POINT
  8
3
 10
10061.804784
 20
-763.761630
  0
POINT
  8
3
 10
10062.491159
 20
-816.522063
  0
POINT
  8
3
 10
10032.660232
 20
-870.626550
  0
POINT
  8
3
 10
9981.852752
 20
-874.113390
  0
POINT
  8
3
 10
9929.350506
 20
-876.734972
  0
POINT
  8
3
 10
9876.876930
 20
-878.452995
  0
POINT
  8
3
 10
9823.006755
 20
-879.437044
  0
POINT
  8
3
 10
9694.363851
 20
-879.437044
  0
POINT
  8
3
 10
9640.493676
 20
-878.452995
  0
POINT
  8
3
 10
9588.020099
 20
-876.734972
  0
POINT
  8
3
 10
9535.517853
 20
-874.113390
  0
POINT
  8
3
 10
9484.710373
 20
-870.626550
  0
POINT
  8
3
 10
9456.679044
 20
-552.772673
  0
TEXT
  8
3
 10
9456.679044
 20
-552.772673
 40
0.000000
 50
0.000000
  1
# 112
  0
POINT
  8
3
 10
9553.217043
 20
-127.593112
  0
TEXT
  8
3
 10
9553.217043
 20
-127.593112
 40
0.000000
 50
0.000000
  1
# 113
  0
POINT
  8
3
 10
9667.218951
 20
-84.446765
  0
TEXT
  8
3
 10
9667.218951
 20
-84.446765
 40
0.000000
 50
0.000000
  1
# 114
  0
POINT
  8
3
 10
9850.151654
 20
-84.446765
  0
TEXT
  8
3
 10
9850.151654
 20
-84.446765
 40
0.000000
 50
0.000000
  1
# 115
  0
POINT
  8
3
 10
9964.153563
 20
-127.593112
  0
TEXT
  8
3
 10
9964.153563
 20
-127.593112
 40
0.000000
 50
0.000000
  1
# 116
  0
POINT
  8
3
 10
10060.691561
 20
-552.772673
  0
TEXT
  8
3
 10
10060.691561
 20
-552.772673
 40
0.000000
 50
0.000000
  1
# 117
  0
POINT
  8
4
 10
9455.565821
 20
-763.761630
 30
0.600000
 50
359.25
  0
TEXT
  8
4
 10
9455.565821
 20
-763.761630
 40
0.000000
 50
0.000000
  1
# 118
  0
POINT
  8
4
 10
9456.505842
 20
-674.799804
 30
0.600000
 50
359.49
  0
TEXT
  8
4
 10
9456.505842
 20
-674.799804
 40
0.000000
 50
0.000000
  1
# 119
  0
POINT
  8
4
 10
9456.039674
 20
-499.826068
 30
0.600000
 50
  0.72
  0
TEXT
  8
4
 10
9456.039674
 20
-499.826068
 40
0.000000
 50
0.000000
  1
# 120
  0
POINT
  8
4
 10
9555.001246
 20
-294.225367
 30
0.600000
 50
344.59
  0
TEXT
  8
4
 10
9555.001246
 20
-294.225367
 40
0.000000
 50
0.000000
  1
# 121
  0
POINT
  8
4
 10
9625.806629
 20
-79.369936
 30
0.600000
 50
285.73
  0
TEXT
  8
4
 10
9625.806629
 20
-79.369936
 40
0.000000
 50
0.000000
  1
# 122
  0
POINT
  8
4
 10
9676.447526
 20
-94.844286
 30
0.600000
 50
230.09
  0
TEXT
  8
4
 10
9676.447526
 20
-94.844286
 40
0.000000
 50
0.000000
  1
# 123
  0
POINT
  8
4
 10
9758.592600
 20
-113.976418
 30
0.600000
 50
270.89
  0
TEXT
  8
4
 10
9758.592600
 20
-113.976418
 40
0.000000
 50
0.000000
  1
# 124
  0
POINT
  8
4
 10
9758.778006
 20
-113.976418
 30
0.600000
 50
269.11
  0
TEXT
  8
4
 10
9758.778006
 20
-113.976418
 40
0.000000
 50
0.000000
  1
# 125
  0
POINT
  8
4
 10
9891.563977
 20
-79.369936
 30
0.600000
 50
254.27
  0
TEXT
  8
4
 10
9891.563977
 20
-79.369936
 40
0.000000
 50
0.000000
  1
# 126
  0
POINT
  8
4
 10
9962.369359
 20
-294.225367
 30
0.600000
 50
195.41
  0
TEXT
  8
4
 10
9962.369359
 20
-294.225367
 40
0.000000
 50
0.000000
  1
# 127
  0
POINT
  8
4
 10
10061.330932
 20
-499.826068
 30
0.600000
 50
179.28
  0
TEXT
  8
4
 10
10061.330932
 20
-499.826068
 40
0.000000
 50
0.000000
  1
# 128
  0
POINT
  8
4
 10
10061.804784
 20
-763.761630
 30
0.600000
 50
180.75
  0
TEXT
  8
4
 10
10061.804784
 20
-763.761630
 40
0.000000
 50
0.000000
  1
# 129
  0
POLYLINE
  8
8
  66
1
  70
1
  0
VERTEX
  8
8
  10
9463.500977
  20
-843.871765
  0
VERTEX
  8
8
  10
9463.878619
  20
-816.644074
  0
VERTEX
  8
8
  10
9464.565430
  20
-763.878708
  0
VERTEX
  8
8
  10
9464.569030
  20
-763.573358
  0
VERTEX
  8
8
  10
9465.176817
  20
-711.517459
  0
VERTEX
  8
8
  10
9465.529785
  20
-674.880753
  0
VERTEX
  8
8
  10
9465.664741
  20
-657.123943
  0
VERTEX
  8
8
  10
9465.864416
  20
-604.547902
  0
VERTEX
  8
8
  10
9465.689232
  20
-552.740411
  0
VERTEX
  8
8
  10
9465.669638
  20
-550.151658
  0
VERTEX
  8
8
  10
9465.064087
  20
-499.713211
  0
VERTEX
  8
8
  10
9464.966705
  20
-493.943727
  0
VERTEX
  8
8
  10
9463.844915
  20
-441.514700
  0
VERTEX
  8
8
  10
9462.095947
  20
-379.750175
  0
VERTEX
  8
8
  10
9464.392005
  20
-379.461779
  0
VERTEX
  8
8
  10
9475.422267
  20
-377.621745
  0
VERTEX
  8
8
  10
9487.434849
  20
-374.738232
  0
VERTEX
  8
8
  10
9499.045999
  20
-370.671083
  0
VERTEX
  8
8
  10
9510.668334
  20
-365.066294
  0
VERTEX
  8
8
  10
9521.574163
  20
-358.131687
  0
VERTEX
  8
8
  10
9529.252180
  20
-352.020818
  0
VERTEX
  8
8
  10
9538.477856
  20
-342.941844
  0
VERTEX
  8
8
  10
9546.581844
  20
-332.855018
  0
VERTEX
  8
8
  10
9553.454594
  20
-321.929025
  0
VERTEX
  8
8
  10
9558.052372
  20
-312.577821
  0
VERTEX
  8
8
  10
9562.585687
  20
-300.547379
  0
VERTEX
  8
8
  10
9563.782959
  20
-296.645870
  0
VERTEX
  8
8
  10
9566.013737
  20
-288.114333
  0
VERTEX
  8
8
  10
9568.505046
  20
-275.423357
  0
VERTEX
  8
8
  10
9570.725249
  20
-257.613809
  0
VERTEX
  8
8
  10
9571.849635
  20
-238.380214
  0
VERTEX
  8
8
  10
9571.882974
  20
-215.928588
  0
VERTEX
  8
8
  10
9570.890687
  20
-192.300226
  0
VERTEX
  8
8
  10
9569.065515
  20
-169.882044
  0
VERTEX
  8
8
  10
9566.677141
  20
-150.766363
  0
VERTEX
  8
8
  10
9563.402369
  20
-131.800964
  0
VERTEX
  8
8
  10
9562.109101
  20
-125.567970
  0
VERTEX
  8
8
  10
9557.243652
  20
-104.917374
  0
VERTEX
  8
8
  10
9606.776910
  20
-90.964023
  0
VERTEX
  8
8
  10
9627.433472
  20
-85.145130
  0
VERTEX
  8
8
  10
9656.310425
  20
-77.010684
  0
VERTEX
  8
8
  10
9657.005767
  20
-78.554108
  0
VERTEX
  8
8
  10
9660.467416
  20
-85.140719
  0
VERTEX
  8
8
  10
9662.152758
  20
-87.855520
  0
VERTEX
  8
8
  10
9664.597644
  20
-91.271842
  0
VERTEX
  8
8
  10
9670.339333
  20
-97.542806
  0
VERTEX
  8
8
  10
9672.532349
  20
-99.524717
  0
VERTEX
  8
8
  10
9676.759773
  20
-102.915622
  0
VERTEX
  8
8
  10
9683.852839
  20
-107.611855
  0
VERTEX
  8
8
  10
9691.895073
  20
-111.660055
  0
VERTEX
  8
8
  10
9699.879808
  20
-114.590810
  0
VERTEX
  8
8
  10
9709.108525
  20
-116.958570
  0
VERTEX
  8
8
  10
9720.298576
  20
-118.719120
  0
VERTEX
  8
8
  10
9734.443424
  20
-119.745100
  0
VERTEX
  8
8
  10
9758.685913
  20
-119.977894
  0
VERTEX
  8
8
  10
9758.671875
  20
-119.977694
  0
VERTEX
  8
8
  10
9758.684692
  20
-119.977894
  0
VERTEX
  8
8
  10
9769.036158
  20
-120.020120
  0
VERTEX
  8
8
  10
9778.673651
  20
-119.881435
  0
VERTEX
  8
8
  10
9788.055638
  20
-119.490886
  0
VERTEX
  8
8
  10
9796.227532
  20
-118.812493
  0
VERTEX
  8
8
  10
9803.706009
  20
-117.802625
  0
VERTEX
  8
8
  10
9810.641000
  20
-116.438126
  0
VERTEX
  8
8
  10
9815.439098
  20
-115.202178
  0
VERTEX
  8
8
  10
9820.021156
  20
-113.761798
  0
VERTEX
  8
8
  10
9824.383048
  20
-112.118289
  0
VERTEX
  8
8
  10
9828.521562
  20
-110.272866
  0
VERTEX
  8
8
  10
9831.910534
  20
-108.522692
  0
VERTEX
  8
8
  10
9835.226326
  20
-106.584003
  0
VERTEX
  8
8
  10
9838.462014
  20
-104.460846
  0
VERTEX
  8
8
  10
9841.610397
  20
-102.157941
  0
VERTEX
  8
8
  10
9845.207803
  20
-99.202784
  0
VERTEX
  8
8
  10
9848.458347
  20
-96.150227
  0
VERTEX
  8
8
  10
9851.357292
  20
-93.004732
  0
VERTEX
  8
8
  10
9853.901356
  20
-89.769877
  0
VERTEX
  8
8
  10
9855.217848
  20
-87.855520
  0
VERTEX
  8
8
  10
9855.787270
  20
-86.971682
  0
VERTEX
  8
8
  10
9857.654037
  20
-83.833492
  0
VERTEX
  8
8
  10
9859.479837
  20
-80.384393
  0
VERTEX
  8
8
  10
9861.060181
  20
-77.010684
  0
VERTEX
  8
8
  10
9876.539375
  20
-81.371087
  0
VERTEX
  8
8
  10
9889.937134
  20
-85.145130
  0
VERTEX
  8
8
  10
9910.593695
  20
-90.964023
  0
VERTEX
  8
8
  10
9944.647781
  20
-100.556936
  0
VERTEX
  8
8
  10
9960.126953
  20
-104.917374
  0
VERTEX
  8
8
  10
9956.761483
  20
-118.821888
  0
VERTEX
  8
8
  10
9955.261504
  20
-125.567970
  0
VERTEX
  8
8
  10
9953.968237
  20
-131.800964
  0
VERTEX
  8
8
  10
9952.273084
  20
-140.911544
  0
VERTEX
  8
8
  10
9950.768314
  20
-150.261412
  0
VERTEX
  8
8
  10
9949.505575
  20
-159.436399
  0
VERTEX
  8
8
  10
9948.411411
  20
-168.865663
  0
VERTEX
  8
8
  10
9946.787545
  20
-187.562967
  0
VERTEX
  8
8
  10
9945.786734
  20
-206.302577
  0
VERTEX
  8
8
  10
9945.385932
  20
-221.916126
  0
VERTEX
  8
8
  10
9945.460927
  20
-236.074457
  0
VERTEX
  8
8
  10
9945.724594
  20
-243.876578
  0
VERTEX
  8
8
  10
9946.152456
  20
-251.409398
  0
VERTEX
  8
8
  10
9946.746939
  20
-258.715188
  0
VERTEX
  8
8
  10
9947.510439
  20
-265.822888
  0
VERTEX
  8
8
  10
9948.511626
  20
-273.175521
  0
VERTEX
  8
8
  10
9949.692735
  20
-280.160786
  0
VERTEX
  8
8
  10
9951.061375
  20
-286.823390
  0
VERTEX
  8
8
  10
9952.623011
  20
-293.189551
  0
VERTEX
  8
8
  10
9953.587646
  20
-296.645870
  0
VERTEX
  8
8
  10
9954.661204
  20
-300.161885
  0
VERTEX
  8
8
  10
9956.966943
  20
-306.791949
  0
VERTEX
  8
8
  10
9959.546030
  20
-313.096347
  0
VERTEX
  8
8
  10
9962.403042
  20
-319.086175
  0
VERTEX
  8
8
  10
9965.329548
  20
-324.417952
  0
VERTEX
  8
8
  10
9968.552611
  20
-329.597072
  0
VERTEX
  8
8
  10
9972.057319
  20
-334.599575
  0
VERTEX
  8
8
  10
9975.827487
  20
-339.402358
  0
VERTEX
  8
8
  10
9979.845260
  20
-343.982789
  0
VERTEX
  8
8
  10
9984.093145
  20
-348.321030
  0
VERTEX
  8
8
  10
9988.552439
  20
-352.397992
  0
VERTEX
  8
8
  10
9993.204433
  20
-356.196580
  0
VERTEX
  8
8
  10
9997.326427
  20
-359.217854
  0
VERTEX
  8
8
  10
10001.609915
  20
-362.053941
  0
VERTEX
  8
8
  10
10006.042322
  20
-364.696512
  0
VERTEX
  8
8
  10
10010.609954
  20
-367.137398
  0
VERTEX
  8
8
  10
10015.299047
  20
-369.369187
  0
VERTEX
  8
8
  10
10020.093707
  20
-371.384257
  0
VERTEX
  8
8
  10
10024.978093
  20
-373.175951
  0
VERTEX
  8
8
  10
10029.935756
  20
-374.738232
  0
VERTEX
  8
8
  10
10035.714277
  20
-376.261176
  0
VERTEX
  8
8
  10
10042.020840
  20
-377.636101
  0
VERTEX
  8
8
  10
10048.793825
  20
-378.844203
  0
VERTEX
  8
8
  10
10055.274658
  20
-379.750175
  0
VERTEX
  8
8
  10
10054.195700
  20
-415.999801
  0
VERTEX
  8
8
  10
10053.244609
  20
-453.158786
  0
VERTEX
  8
8
  10
10052.372536
  20
-495.760067
  0
VERTEX
  8
8
  10
10052.306519
  20
-499.713211
  0
VERTEX
  8
8
  10
10051.951351
  20
-524.766399
  0
VERTEX
  8
8
  10
10051.681374
  20
-552.740411
  0
VERTEX
  8
8
  10
10051.673844
  20
-553.774873
  0
VERTEX
  8
8
  10
10051.512966
  20
-611.794505
  0
VERTEX
  8
8
  10
10051.799280
  20
-669.816721
  0
VERTEX
  8
8
  10
10052.374754
  20
-727.836777
  0
VERTEX
  8
8
  10
10052.805176
  20
-763.878708
  0
VERTEX
  8
8
  10
10053.370347
  20
-807.611296
  0
VERTEX
  8
8
  10
10053.869629
  20
-843.871765
  0
VERTEX
  8
8
  10
10035.759262
  20
-845.315163
  0
VERTEX
  8
8
  10
10014.909259
  20
-846.874086
  0
VERTEX
  8
8
  10
9995.895825
  20
-848.186330
  0
VERTEX
  8
8
  10
9953.001118
  20
-850.644761
  0
VERTEX
  8
8
  10
9910.069650
  20
-852.447827
  0
VERTEX
  8
8
  10
9867.114745
  20
-853.678913
  0
VERTEX
  8
8
  10
9824.149728
  20
-854.421405
  0
VERTEX
  8
8
  10
9779.142411
  20
-854.796011
  0
VERTEX
  8
8
  10
9758.685303
  20
-854.870071
  0
VERTEX
  8
8
  10
9694.662088
  20
-854.438823
  0
VERTEX
  8
8
  10
9641.121197
  20
-853.460872
  0
VERTEX
  8
8
  10
9589.040551
  20
-851.755807
  0
VERTEX
  8
8
  10
9537.002701
  20
-849.157524
  0
VERTEX
  8
8
  10
9486.608634
  20
-845.698722
  0
VERTEX
  8
8
  10
9463.500977
  20
-843.871765
  0
SEQEND
  8
8
  0
POINT
  8
2
 10
9463.500977
 20
-843.871765
  0
TEXT
  8
2
 10
9463.500977
 20
-843.871765
 40
0.000000
 50
0.000000
  1
# 130
  0
POINT
  8
2
 10
9462.095947
 20
-379.750175
  0
TEXT
  8
2
 10
9462.095947
 20
-379.750175
 40
0.000000
 50
0.000000
  1
# 131
  0
POINT
  8
2
 10
9557.243652
 20
-104.917374
  0
TEXT
  8
2
 10
9557.243652
 20
-104.917374
 40
0.000000
 50
0.000000
  1
# 132
  0
POINT
  8
2
 10
9656.310425
 20
-77.010684
  0
TEXT
  8
2
 10
9656.310425
 20
-77.010684
 40
0.000000
 50
0.000000
  1
# 133
  0
POINT
  8
2
 10
9758.671875
 20
-119.977694
  0
TEXT
  8
2
 10
9758.671875
 20
-119.977694
 40
0.000000
 50
0.000000
  1
# 134
  0
POINT
  8
2
 10
9861.060181
 20
-77.010684
  0
TEXT
  8
2
 10
9861.060181
 20
-77.010684
 40
0.000000
 50
0.000000
  1
# 135
  0
POINT
  8
2
 10
9960.126953
 20
-104.917374
  0
TEXT
  8
2
 10
9960.126953
 20
-104.917374
 40
0.000000
 50
0.000000
  1
# 136
  0
POINT
  8
2
 10
10055.274658
 20
-379.750175
  0
TEXT
  8
2
 10
10055.274658
 20
-379.750175
 40
0.000000
 50
0.000000
  1
# 137
  0
POINT
  8
2
 10
10053.869629
 20
-843.871765
  0
TEXT
  8
2
 10
10053.869629
 20
-843.871765
 40
0.000000
 50
0.000000
  1
# 138
  0
POINT
  8
2
 10
9758.685303
 20
-854.870071
  0
TEXT
  8
2
 10
9758.685303
 20
-854.870071
 40
0.000000
 50
0.000000
  1
# 139
  0
POINT
  8
2
 10
9463.500977
 20
-843.871765
  0
TEXT
  8
2
 10
9463.500977
 20
-843.871765
 40
0.000000
 50
0.000000
  1
# 140
  0
POINT
  8
3
 10
9463.878619
 20
-816.644074
  0
POINT
  8
3
 10
9464.565430
 20
-763.878708
  0
POINT
  8
3
 10
9464.569030
 20
-763.573358
  0
POINT
  8
3
 10
9465.176817
 20
-711.517459
  0
POINT
  8
3
 10
9465.529785
 20
-674.880753
  0
POINT
  8
3
 10
9465.664741
 20
-657.123943
  0
POINT
  8
3
 10
9465.864416
 20
-604.547902
  0
POINT
  8
3
 10
9465.689232
 20
-552.740411
  0
POINT
  8
3
 10
9465.669638
 20
-550.151658
  0
POINT
  8
3
 10
9465.064087
 20
-499.713211
  0
POINT
  8
3
 10
9464.966705
 20
-493.943727
  0
POINT
  8
3
 10
9463.844915
 20
-441.514700
  0
POINT
  8
3
 10
9464.392005
 20
-379.461779
  0
POINT
  8
3
 10
9475.422267
 20
-377.621745
  0
POINT
  8
3
 10
9487.434849
 20
-374.738232
  0
POINT
  8
3
 10
9499.045999
 20
-370.671083
  0
POINT
  8
3
 10
9510.668334
 20
-365.066294
  0
POINT
  8
3
 10
9521.574163
 20
-358.131687
  0
POINT
  8
3
 10
9529.252180
 20
-352.020818
  0
POINT
  8
3
 10
9538.477856
 20
-342.941844
  0
POINT
  8
3
 10
9546.581844
 20
-332.855018
  0
POINT
  8
3
 10
9553.454594
 20
-321.929025
  0
POINT
  8
3
 10
9558.052372
 20
-312.577821
  0
POINT
  8
3
 10
9562.585687
 20
-300.547379
  0
POINT
  8
3
 10
9563.782959
 20
-296.645870
  0
POINT
  8
3
 10
9566.013737
 20
-288.114333
  0
POINT
  8
3
 10
9568.505046
 20
-275.423357
  0
POINT
  8
3
 10
9570.725249
 20
-257.613809
  0
POINT
  8
3
 10
9571.849635
 20
-238.380214
  0
POINT
  8
3
 10
9571.882974
 20
-215.928588
  0
POINT
  8
3
 10
9570.890687
 20
-192.300226
  0
POINT
  8
3
 10
9569.065515
 20
-169.882044
  0
POINT
  8
3
 10
9566.677141
 20
-150.766363
  0
POINT
  8
3
 10
9563.402369
 20
-131.800964
  0
POINT
  8
3
 10
9562.109101
 20
-125.567970
  0
POINT
  8
3
 10
9606.776910
 20
-90.964023
  0
POINT
  8
3
 10
9627.433472
 20
-85.145130
  0
POINT
  8
3
 10
9657.005767
 20
-78.554108
  0
POINT
  8
3
 10
9660.467416
 20
-85.140719
  0
POINT
  8
3
 10
9662.152758
 20
-87.855520
  0
POINT
  8
3
 10
9664.597644
 20
-91.271842
  0
POINT
  8
3
 10
9670.339333
 20
-97.542806
  0
POINT
  8
3
 10
9672.532349
 20
-99.524717
  0
POINT
  8
3
 10
9676.759773
 20
-102.915622
  0
POINT
  8
3
 10
9683.852839
 20
-107.611855
  0
POINT
  8
3
 10
9691.895073
 20
-111.660055
  0
POINT
  8
3
 10
9699.879808
 20
-114.590810
  0
POINT
  8
3
 10
9709.108525
 20
-116.958570
  0
POINT
  8
3
 10
9720.298576
 20
-118.719120
  0
POINT
  8
3
 10
9734.443424
 20
-119.745100
  0
POINT
  8
3
 10
9758.685913
 20
-119.977894
  0
POINT
  8
3
 10
9758.684692
 20
-119.977894
  0
POINT
  8
3
 10
9769.036158
 20
-120.020120
  0
POINT
  8
3
 10
9778.673651
 20
-119.881435
  0
POINT
  8
3
 10
9788.055638
 20
-119.490886
  0
POINT
  8
3
 10
9796.227532
 20
-118.812493
  0
POINT
  8
3
 10
9803.706009
 20
-117.802625
  0
POINT
  8
3
 10
9810.641000
 20
-116.438126
  0
POINT
  8
3
 10
9815.439098
 20
-115.202178
  0
POINT
  8
3
 10
9820.021156
 20
-113.761798
  0
POINT
  8
3
 10
9824.383048
 20
-112.118289
  0
POINT
  8
3
 10
9828.521562
 20
-110.272866
  0
POINT
  8
3
 10
9831.910534
 20
-108.522692
  0
POINT
  8
3
 10
9835.226326
 20
-106.584003
  0
POINT
  8
3
 10
9838.462014
 20
-104.460846
  0
POINT
  8
3
 10
9841.610397
 20
-102.157941
  0
POINT
  8
3
 10
9845.207803
 20
-99.202784
  0
POINT
  8
3
 10
9848.458347
 20
-96.150227
  0
POINT
  8
3
 10
9851.357292
 20
-93.004732
  0
POINT
  8
3
 10
9853.901356
 20
-89.769877
  0
POINT
  8
3
 10
9855.217848
 20
-87.855520
  0
POINT
  8
3
 10
9855.787270
 20
-86.971682
  0
POINT
  8
3
 10
9857.654037
 20
-83.833492
  0
POINT
  8
3
 10
9859.479837
 20
-80.384393
  0
POINT
  8
3
 10
9876.539375
 20
-81.371087
  0
POINT
  8
3
 10
9889.937134
 20
-85.145130
  0
POINT
  8
3
 10
9910.593695
 20
-90.964023
  0
POINT
  8
3
 10
9944.647781
 20
-100.556936
  0
POINT
  8
3
 10
9956.761483
 20
-118.821888
  0
POINT
  8
3
 10
9955.261504
 20
-125.567970
  0
POINT
  8
3
 10
9953.968237
 20
-131.800964
  0
POINT
  8
3
 10
9952.273084
 20
-140.911544
  0
POINT
  8
3
 10
9950.768314
 20
-150.261412
  0
POINT
  8
3
 10
9949.505575
 20
-159.436399
  0
POINT
  8
3
 10
9948.411411
 20
-168.865663
  0
POINT
  8
3
 10
9946.787545
 20
-187.562967
  0
POINT
  8
3
 10
9945.786734
 20
-206.302577
  0
POINT
  8
3
 10
9945.385932
 20
-221.916126
  0
POINT
  8
3
 10
9945.460927
 20
-236.074457
  0
POINT
  8
3
 10
9945.724594
 20
-243.876578
  0
POINT
  8
3
 10
9946.152456
 20
-251.409398
  0
POINT
  8
3
 10
9946.746939
 20
-258.715188
  0
POINT
  8
3
 10
9947.510439
 20
-265.822888
  0
POINT
  8
3
 10
9948.511626
 20
-273.175521
  0
POINT
  8
3
 10
9949.692735
 20
-280.160786
  0
POINT
  8
3
 10
9951.061375
 20
-286.823390
  0
POINT
  8
3
 10
9952.623011
 20
-293.189551
  0
POINT
  8
3
 10
9953.587646
 20
-296.645870
  0
POINT
  8
3
 10
9954.661204
 20
-300.161885
  0
POINT
  8
3
 10
9956.966943
 20
-306.791949
  0
POINT
  8
3
 10
9959.546030
 20
-313.096347
  0
POINT
  8
3
 10
9962.403042
 20
-319.086175
  0
POINT
  8
3
 10
9965.329548
 20
-324.417952
  0
POINT
  8
3
 10
9968.552611
 20
-329.597072
  0
POINT
  8
3
 10
9972.057319
 20
-334.599575
  0
POINT
  8
3
 10
9975.827487
 20
-339.402358
  0
POINT
  8
3
 10
9979.845260
 20
-343.982789
  0
POINT
  8
3
 10
9984.093145
 20
-348.321030
  0
POINT
  8
3
 10
9988.552439
 20
-352.397992
  0
POINT
  8
3
 10
9993.204433
 20
-356.196580
  0
POINT
  8
3
 10
9997.326427
 20
-359.217854
  0
POINT
  8
3
 10
10001.609915
 20
-362.053941
  0
POINT
  8
3
 10
10006.042322
 20
-364.696512
  0
POINT
  8
3
 10
10010.609954
 20
-367.137398
  0
POINT
  8
3
 10
10015.299047
 20
-369.369187
  0
POINT
  8
3
 10
10020.093707
 20
-371.384257
  0
POINT
  8
3
 10
10024.978093
 20
-373.175951
  0
POINT
  8
3
 10
10029.935756
 20
-374.738232
  0
POINT
  8
3
 10
10035.714277
 20
-376.261176
  0
POINT
  8
3
 10
10042.020840
 20
-377.636101
  0
POINT
  8
3
 10
10048.793825
 20
-378.844203
  0
POINT
  8
3
 10
10054.195700
 20
-415.999801
  0
POINT
  8
3
 10
10053.244609
 20
-453.158786
  0
POINT
  8
3
 10
10052.372536
 20
-495.760067
  0
POINT
  8
3
 10
10052.306519
 20
-499.713211
  0
POINT
  8
3
 10
10051.951351
 20
-524.766399
  0
POINT
  8
3
 10
10051.681374
 20
-552.740411
  0
POINT
  8
3
 10
10051.673844
 20
-553.774873
  0
POINT
  8
3
 10
10051.512966
 20
-611.794505
  0
POINT
  8
3
 10
10051.799280
 20
-669.816721
  0
POINT
  8
3
 10
10052.374754
 20
-727.836777
  0
POINT
  8
3
 10
10052.805176
 20
-763.878708
  0
POINT
  8
3
 10
10053.370347
 20
-807.611296
  0
POINT
  8
3
 10
10035.759262
 20
-845.315163
  0
POINT
  8
3
 10
10014.909259
 20
-846.874086
  0
POINT
  8
3
 10
9995.895825
 20
-848.186330
  0
POINT
  8
3
 10
9953.001118
 20
-850.644761
  0
POINT
  8
3
 10
9910.069650
 20
-852.447827
  0
POINT
  8
3
 10
9867.114745
 20
-853.678913
  0
POINT
  8
3
 10
9824.149728
 20
-854.421405
  0
POINT
  8
3
 10
9779.142411
 20
-854.796011
  0
POINT
  8
3
 10
9694.662088
 20
-854.438823
  0
POINT
  8
3
 10
9641.121197
 20
-853.460872
  0
POINT
  8
3
 10
9589.040551
 20
-851.755807
  0
POINT
  8
3
 10
9537.002701
 20
-849.157524
  0
POINT
  8
3
 10
9486.608634
 20
-845.698722
  0
POINT
  8
3
 10
9465.689232
 20
-552.740411
  0
TEXT
  8
3
 10
9465.689232
 20
-552.740411
 40
0.000000
 50
0.000000
  1
# 141
  0
POINT
  8
3
 10
9562.109101
 20
-125.567970
  0
TEXT
  8
3
 10
9562.109101
 20
-125.567970
 40
0.000000
 50
0.000000
  1
# 142
  0
POINT
  8
3
 10
9662.152758
 20
-87.855520
  0
TEXT
  8
3
 10
9662.152758
 20
-87.855520
 40
0.000000
 50
0.000000
  1
# 143
  0
POINT
  8
3
 10
9855.217848
 20
-87.855520
  0
TEXT
  8
3
 10
9855.217848
 20
-87.855520
 40
0.000000
 50
0.000000
  1
# 144
  0
POINT
  8
3
 10
9955.261504
 20
-125.567970
  0
TEXT
  8
3
 10
9955.261504
 20
-125.567970
 40
0.000000
 50
0.000000
  1
# 145
  0
POINT
  8
3
 10
10051.681374
 20
-552.740411
  0
TEXT
  8
3
 10
10051.681374
 20
-552.740411
 40
0.000000
 50
0.000000
  1
# 146
  0
POINT
  8
4
 10
9464.565430
 20
-763.878708
 30
0.600000
 50
359.29
  0
TEXT
  8
4
 10
9464.565430
 20
-763.878708
 40
0.000000
 50
0.000000
  1
# 147
  0
POINT
  8
4
 10
9465.529785
 20
-674.880753
 30
0.600000
 50
359.52
  0
TEXT
  8
4
 10
9465.529785
 20
-674.880753
 40
0.000000
 50
0.000000
  1
# 148
  0
POINT
  8
4
 10
9465.064087
 20
-499.713211
 30
0.600000
 50
  0.94
  0
TEXT
  8
4
 10
9465.064087
 20
-499.713211
 40
0.000000
 50
0.000000
  1
# 149
  0
POINT
  8
4
 10
9563.782959
 20
-296.645870
 30
0.600000
 50
343.73
  0
TEXT
  8
4
 10
9563.782959
 20
-296.645870
 40
0.000000
 50
0.000000
  1
# 150
  0
POINT
  8
4
 10
9627.433472
 20
-85.145130
 30
0.600000
 50
285.73
  0
TEXT
  8
4
 10
9627.433472
 20
-85.145130
 40
0.000000
 50
0.000000
  1
# 151
  0
POINT
  8
4
 10
9672.532349
 20
-99.524717
 30
0.600000
 50
229.15
  0
TEXT
  8
4
 10
9672.532349
 20
-99.524717
 40
0.000000
 50
0.000000
  1
# 152
  0
POINT
  8
4
 10
9758.685913
 20
-119.977894
 30
0.600000
 50
270.89
  0
TEXT
  8
4
 10
9758.685913
 20
-119.977894
 40
0.000000
 50
0.000000
  1
# 153
  0
POINT
  8
4
 10
9758.684692
 20
-119.977894
 30
0.600000
 50
269.11
  0
TEXT
  8
4
 10
9758.684692
 20
-119.977894
 40
0.000000
 50
0.000000
  1
# 154
  0
POINT
  8
4
 10
9889.937134
 20
-85.145130
 30
0.600000
 50
254.27
  0
TEXT
  8
4
 10
9889.937134
 20
-85.145130
 40
0.000000
 50
0.000000
  1
# 155
  0
POINT
  8
4
 10
9953.587646
 20
-296.645870
 30
0.600000
 50
196.27
  0
TEXT
  8
4
 10
9953.587646
 20
-296.645870
 40
0.000000
 50
0.000000
  1
# 156
  0
POINT
  8
4
 10
10052.306519
 20
-499.713211
 30
0.600000
 50
179.06
  0
TEXT
  8
4
 10
10052.306519
 20
-499.713211
 40
0.000000
 50
0.000000
  1
# 157
  0
POINT
  8
4
 10
10052.805176
 20
-763.878708
 30
0.600000
 50
180.71
  0
TEXT
  8
4
 10
10052.805176
 20
-763.878708
 40
0.000000
 50
0.000000
  1
# 158
  0
POLYLINE
  8
11
  6
2
  66
1
  70
0
  0
VERTEX
  8
1
  10
9758.685303
  20
-854.859924
  0
VERTEX
  8
1
  10
9758.685303
  20
-119.977722
  0
SEQEND
  8
11
  0
POINT
  8
2
 10
9758.685303
 20
-854.859924
  0
TEXT
  8
2
 10
9758.685303
 20
-854.859924
 40
0.000000
 50
0.000000
  1
# 159
  0
POINT
  8
2
 10
9758.685303
 20
-119.977722
  0
TEXT
  8
2
 10
9758.685303
 20
-119.977722
 40
0.000000
 50
0.000000
  1
# 160
  0
POLYLINE
  8
11
  66
1
  70
0
  0
VERTEX
  8
1
  10
9462.095947
  20
-379.750175
  0
VERTEX
  8
1
  10
9758.685303
  20
-379.750175
  0
SEQEND
  8
11
  0
POINT
  8
2
 10
9462.095947
 20
-379.750175
  0
TEXT
  8
2
 10
9462.095947
 20
-379.750175
 40
0.000000
 50
0.000000
  1
# 161
  0
POINT
  8
2
 10
9758.685303
 20
-379.750175
  0
TEXT
  8
2
 10
9758.685303
 20
-379.750175
 40
0.000000
 50
0.000000
  1
# 162
  0
POLYLINE
  8
11
  66
1
  70
0
  0
VERTEX
  8
1
  10
9472.468262
  20
-510.547981
  0
VERTEX
  8
1
  10
9497.111206
  20
-557.106133
  0
SEQEND
  8
11
  0
POINT
  8
2
 10
9472.468262
 20
-510.547981
  0
TEXT
  8
2
 10
9472.468262
 20
-510.547981
 40
0.000000
 50
0.000000
  1
# 163
  0
POINT
  8
2
 10
9497.111206
 20
-557.106133
  0
TEXT
  8
2
 10
9497.111206
 20
-557.106133
 40
0.000000
 50
0.000000
  1
# 164
  0
POLYLINE
  8
11
  66
1
  70
0
  0
VERTEX
  8
1
  10
9470.087280
  20
-671.638870
  0
VERTEX
  8
1
  10
9488.660278
  20
-635.092316
  0
SEQEND
  8
11
  0
POINT
  8
2
 10
9470.087280
 20
-671.638870
  0
TEXT
  8
2
 10
9470.087280
 20
-671.638870
 40
0.000000
 50
0.000000
  1
# 165
  0
POINT
  8
2
 10
9488.660278
 20
-635.092316
  0
TEXT
  8
2
 10
9488.660278
 20
-635.092316
 40
0.000000
 50
0.000000
  1
# 166
  0
POLYLINE
  8
11
  66
1
  70
0
  0
VERTEX
  8
1
  10
9464.492188
  20
-552.747383
  0
VERTEX
  8
1
  10
9758.685303
  20
-552.747383
  0
SEQEND
  8
11
  0
POINT
  8
2
 10
9464.492188
 20
-552.747383
  0
TEXT
  8
2
 10
9464.492188
 20
-552.747383
 40
0.000000
 50
0.000000
  1
# 167
  0
POINT
  8
2
 10
9758.685303
 20
-552.747383
  0
TEXT
  8
2
 10
9758.685303
 20
-552.747383
 40
0.000000
 50
0.000000
  1
# 168
  0
POLYLINE
  8
11
  6
2
  66
1
  70
0
  0
VERTEX
  8
1
  10
9758.754883
  20
-835.870972
  0
VERTEX
  8
1
  10
9705.957096
  20
-834.633260
  0
VERTEX
  8
1
  10
9653.540930
  20
-833.563074
  0
VERTEX
  8
1
  10
9603.432802
  20
-832.378557
  0
VERTEX
  8
1
  10
9553.388054
  20
-830.602974
  0
VERTEX
  8
1
  10
9511.086468
  20
-828.307789
  0
VERTEX
  8
1
  10
9465.657452
  20
-824.989278
  0
VERTEX
  8
1
  10
9464.589233
  20
-824.903641
  0
SEQEND
  8
11
  0
POINT
  8
2
 10
9758.754883
 20
-835.870972
  0
TEXT
  8
2
 10
9758.754883
 20
-835.870972
 40
0.000000
 50
0.000000
  1
# 169
  0
POINT
  8
2
 10
9464.589233
 20
-824.903641
  0
TEXT
  8
2
 10
9464.589233
 20
-824.903641
 40
0.000000
 50
0.000000
  1
# 170
  0
POINT
  8
3
 10
9705.957096
 20
-834.633260
  0
POINT
  8
3
 10
9653.540930
 20
-833.563074
  0
POINT
  8
3
 10
9603.432802
 20
-832.378557
  0
POINT
  8
3
 10
9553.388054
 20
-830.602974
  0
POINT
  8
3
 10
9511.086468
 20
-828.307789
  0
POINT
  8
3
 10
9465.657452
 20
-824.989278
  0
POLYLINE
  8
11
  6
2
  66
1
  70
0
  0
VERTEX
  8
1
  10
9758.775635
  20
-829.871140
  0
VERTEX
  8
1
  10
9705.143736
  20
-828.613977
  0
VERTEX
  8
1
  10
9653.867615
  20
-827.567005
  0
VERTEX
  8
1
  10
9602.958060
  20
-826.361444
  0
VERTEX
  8
1
  10
9551.935682
  20
-824.529666
  0
VERTEX
  8
1
  10
9509.218717
  20
-822.175225
  0
VERTEX
  8
1
  10
9464.932251
  20
-818.913651
  0
SEQEND
  8
11
  0
POINT
  8
2
 10
9758.775635
 20
-829.871140
  0
TEXT
  8
2
 10
9758.775635
 20
-829.871140
 40
0.000000
 50
0.000000
  1
# 171
  0
POINT
  8
2
 10
9464.932251
 20
-818.913651
  0
TEXT
  8
2
 10
9464.932251
 20
-818.913651
 40
0.000000
 50
0.000000
  1
# 172
  0
POINT
  8
3
 10
9705.143736
 20
-828.613977
  0
POINT
  8
3
 10
9653.867615
 20
-827.567005
  0
POINT
  8
3
 10
9602.958060
 20
-826.361444
  0
POINT
  8
3
 10
9551.935682
 20
-824.529666
  0
POINT
  8
3
 10
9509.218717
 20
-822.175225
  0
POLYLINE
  8
11
  66
1
  70
0
  0
VERTEX
  8
1
  10
9562.276611
  20
-125.531244
  0
VERTEX
  8
1
  10
9662.131958
  20
-87.869959
  0
SEQEND
  8
11
  0
POINT
  8
2
 10
9562.276611
 20
-125.531244
  0
TEXT
  8
2
 10
9562.276611
 20
-125.531244
 40
0.000000
 50
0.000000
  1
# 173
  0
POINT
  8
2
 10
9662.131958
 20
-87.869959
  0
TEXT
  8
2
 10
9662.131958
 20
-87.869959
 40
0.000000
 50
0.000000
  1
# 174
  0
POLYLINE
  8
11
  66
1
  70
0
  0
VERTEX
  8
1
  10
9562.276611
  20
-125.531225
  0
VERTEX
  8
1
  10
9758.685303
  20
-125.531225
  0
SEQEND
  8
11
  0
POINT
  8
2
 10
9562.276611
 20
-125.531225
  0
TEXT
  8
2
 10
9562.276611
 20
-125.531225
 40
0.000000
 50
0.000000
  1
# 175
  0
POINT
  8
2
 10
9758.685303
 20
-125.531225
  0
TEXT
  8
2
 10
9758.685303
 20
-125.531225
 40
0.000000
 50
0.000000
  1
# 176
  0
POLYLINE
  8
11
  66
1
  70
0
  0
VERTEX
  8
1
  10
10055.274658
  20
-379.750175
  0
VERTEX
  8
1
  10
9758.685303
  20
-379.750175
  0
SEQEND
  8
11
  0
POINT
  8
2
 10
10055.274658
 20
-379.750175
  0
TEXT
  8
2
 10
10055.274658
 20
-379.750175
 40
0.000000
 50
0.000000
  1
# 177
  0
POINT
  8
2
 10
9758.685303
 20
-379.750175
  0
TEXT
  8
2
 10
9758.685303
 20
-379.750175
 40
0.000000
 50
0.000000
  1
# 178
  0
POLYLINE
  8
11
  66
1
  70
0
  0
VERTEX
  8
1
  10
10044.902344
  20
-510.547981
  0
VERTEX
  8
1
  10
10020.259399
  20
-557.106133
  0
SEQEND
  8
11
  0
POINT
  8
2
 10
10044.902344
 20
-510.547981
  0
TEXT
  8
2
 10
10044.902344
 20
-510.547981
 40
0.000000
 50
0.000000
  1
# 179
  0
POINT
  8
2
 10
10020.259399
 20
-557.106133
  0
TEXT
  8
2
 10
10020.259399
 20
-557.106133
 40
0.000000
 50
0.000000
  1
# 180
  0
POLYLINE
  8
11
  66
1
  70
0
  0
VERTEX
  8
1
  10
10047.283325
  20
-671.638870
  0
VERTEX
  8
1
  10
10028.710327
  20
-635.092316
  0
SEQEND
  8
11
  0
POINT
  8
2
 10
10047.283325
 20
-671.638870
  0
TEXT
  8
2
 10
10047.283325
 20
-671.638870
 40
0.000000
 50
0.000000
  1
# 181
  0
POINT
  8
2
 10
10028.710327
 20
-635.092316
  0
TEXT
  8
2
 10
10028.710327
 20
-635.092316
 40
0.000000
 50
0.000000
  1
# 182
  0
POLYLINE
  8
11
  66
1
  70
0
  0
VERTEX
  8
1
  10
10052.878418
  20
-552.747383
  0
VERTEX
  8
1
  10
9758.685303
  20
-552.747383
  0
SEQEND
  8
11
  0
POINT
  8
2
 10
10052.878418
 20
-552.747383
  0
TEXT
  8
2
 10
10052.878418
 20
-552.747383
 40
0.000000
 50
0.000000
  1
# 183
  0
POINT
  8
2
 10
9758.685303
 20
-552.747383
  0
TEXT
  8
2
 10
9758.685303
 20
-552.747383
 40
0.000000
 50
0.000000
  1
# 184
  0
POLYLINE
  8
11
  6
2
  66
1
  70
0
  0
VERTEX
  8
1
  10
9758.615723
  20
-835.870972
  0
VERTEX
  8
1
  10
9798.796934
  20
-834.913833
  0
VERTEX
  8
1
  10
9818.408224
  20
-834.483347
  0
VERTEX
  8
1
  10
9852.296233
  20
-833.796862
  0
VERTEX
  8
1
  10
9886.183489
  20
-833.080468
  0
VERTEX
  8
1
  10
9909.975333
  20
-832.488165
  0
VERTEX
  8
1
  10
9931.195024
  20
-831.855522
  0
VERTEX
  8
1
  10
9954.522205
  20
-831.005218
  0
VERTEX
  8
1
  10
9976.046208
  20
-830.033892
  0
VERTEX
  8
1
  10
9991.470670
  20
-829.206729
  0
VERTEX
  8
1
  10
10007.036203
  20
-828.259469
  0
VERTEX
  8
1
  10
10035.748287
  20
-826.236593
  0
VERTEX
  8
1
  10
10052.781372
  20
-824.903641
  0
SEQEND
  8
11
  0
POINT
  8
2
 10
9758.615723
 20
-835.870972
  0
TEXT
  8
2
 10
9758.615723
 20
-835.870972
 40
0.000000
 50
0.000000
  1
# 185
  0
POINT
  8
2
 10
10052.781372
 20
-824.903641
  0
TEXT
  8
2
 10
10052.781372
 20
-824.903641
 40
0.000000
 50
0.000000
  1
# 186
  0
POINT
  8
3
 10
9798.796934
 20
-834.913833
  0
POINT
  8
3
 10
9818.408224
 20
-834.483347
  0
POINT
  8
3
 10
9852.296233
 20
-833.796862
  0
POINT
  8
3
 10
9886.183489
 20
-833.080468
  0
POINT
  8
3
 10
9909.975333
 20
-832.488165
  0
POINT
  8
3
 10
9931.195024
 20
-831.855522
  0
POINT
  8
3
 10
9954.522205
 20
-831.005218
  0
POINT
  8
3
 10
9976.046208
 20
-830.033892
  0
POINT
  8
3
 10
9991.470670
 20
-829.206729
  0
POINT
  8
3
 10
10007.036203
 20
-828.259469
  0
POINT
  8
3
 10
10035.748287
 20
-826.236593
  0
POLYLINE
  8
11
  6
2
  66
1
  70
0
  0
VERTEX
  8
1
  10
9758.594971
  20
-829.871140
  0
VERTEX
  8
1
  10
9798.782926
  20
-828.912779
  0
VERTEX
  8
1
  10
9818.404953
  20
-828.481679
  0
VERTEX
  8
1
  10
9852.299040
  20
-827.794423
  0
VERTEX
  8
1
  10
9881.116652
  20
-827.191254
  0
VERTEX
  8
1
  10
9909.931784
  20
-826.485563
  0
VERTEX
  8
1
  10
9943.040994
  20
-825.441706
  0
VERTEX
  8
1
  10
9963.886833
  20
-824.599140
  0
VERTEX
  8
1
  10
9983.541909
  20
-823.637428
  0
VERTEX
  8
1
  10
9998.459506
  20
-822.784832
  0
VERTEX
  8
1
  10
10013.716812
  20
-821.806291
  0
VERTEX
  8
1
  10
10035.418441
  20
-820.245838
  0
VERTEX
  8
1
  10
10052.438354
  20
-818.913651
  0
SEQEND
  8
11
  0
POINT
  8
2
 10
9758.594971
 20
-829.871140
  0
TEXT
  8
2
 10
9758.594971
 20
-829.871140
 40
0.000000
 50
0.000000
  1
# 187
  0
POINT
  8
2
 10
10052.438354
 20
-818.913651
  0
TEXT
  8
2
 10
10052.438354
 20
-818.913651
 40
0.000000
 50
0.000000
  1
# 188
  0
POINT
  8
3
 10
9798.782926
 20
-828.912779
  0
POINT
  8
3
 10
9818.404953
 20
-828.481679
  0
POINT
  8
3
 10
9852.299040
 20
-827.794423
  0
POINT
  8
3
 10
9881.116652
 20
-827.191254
  0
POINT
  8
3
 10
9909.931784
 20
-826.485563
  0
POINT
  8
3
 10
9943.040994
 20
-825.441706
  0
POINT
  8
3
 10
9963.886833
 20
-824.599140
  0
POINT
  8
3
 10
9983.541909
 20
-823.637428
  0
POINT
  8
3
 10
9998.459506
 20
-822.784832
  0
POINT
  8
3
 10
10013.716812
 20
-821.806291
  0
POINT
  8
3
 10
10035.418441
 20
-820.245838
  0
POLYLINE
  8
11
  66
1
  70
0
  0
VERTEX
  8
1
  10
9955.093994
  20
-125.531244
  0
VERTEX
  8
1
  10
9855.238647
  20
-87.869959
  0
SEQEND
  8
11
  0
POINT
  8
2
 10
9955.093994
 20
-125.531244
  0
TEXT
  8
2
 10
9955.093994
 20
-125.531244
 40
0.000000
 50
0.000000
  1
# 189
  0
POINT
  8
2
 10
9855.238647
 20
-87.869959
  0
TEXT
  8
2
 10
9855.238647
 20
-87.869959
 40
0.000000
 50
0.000000
  1
# 190
  0
POLYLINE
  8
11
  66
1
  70
0
  0
VERTEX
  8
1
  10
9955.093994
  20
-125.531225
  0
VERTEX
  8
1
  10
9758.685303
  20
-125.531225
  0
SEQEND
  8
11
  0
POINT
  8
2
 10
9955.093994
 20
-125.531225
  0
TEXT
  8
2
 10
9955.093994
 20
-125.531225
 40
0.000000
 50
0.000000
  1
# 191
  0
POINT
  8
2
 10
9758.685303
 20
-125.531225
  0
TEXT
  8
2
 10
9758.685303
 20
-125.531225
 40
0.000000
 50
0.000000
  1
# 192
 0
LINE
 8
7
 10
9741.232910
 20
-339.239426
 11
9741.232910
 21
-682.821732
  0
TEXT
  8
1
 10
9758.685303
 20
-474.887383
 40
10.000000
 50
0.000000
  1
PIECE NAME: C2590428.后身片
  0
TEXT
  8
1
 10
9758.685303
 20
-459.887383
 40
10.000000
 50
0.000000
  1
Size: M
  0
TEXT
  8
1
 10
9758.685303
 20
-444.887383
 40
10.000000
 50
0.000000
  1
ANNOTATION: 面料1 X1
  0
TEXT
  8
1
 10
9758.685303
 20
-429.887383
 40
10.000000
 50
0.000000
  1
QUANTITY: 1
  0
TEXT
  8
1
 10
9758.685303
 20
-414.887383
 40
10.000000
 50
0.000000
  1
FABRIC: 面料1
  0
TEXT
  8
1
 10
9758.685303
 20
-399.887383
 40
10.000000
 50
0.000000
  1
CATEGORY: 后身片
0
ENDBLK
0
BLOCK
  8
1
  2
C2590428.袖长_面料1_M
 70
0
 10
0.0
 20
0.0
  0
POLYLINE
  8
1
  66
1
  70
1
  0
VERTEX
  8
1
  10
10918.109059
  20
-421.873634
  0
VERTEX
  8
1
  10
10929.845090
  20
-396.466645
  0
VERTEX
  8
1
  10
10906.577151
  20
-351.305760
  0
VERTEX
  8
1
  10
10876.395681
  20
-292.726359
  0
VERTEX
  8
1
  10
10888.363322
  20
-288.530807
  0
VERTEX
  8
1
  10
10904.577675
  20
-283.061127
  0
VERTEX
  8
1
  10
10917.962150
  20
-277.701011
  0
VERTEX
  8
1
  10
10931.717374
  20
-271.322188
  0
VERTEX
  8
1
  10
10942.489270
  20
-265.492482
  0
VERTEX
  8
1
  10
10953.330294
  20
-258.638245
  0
VERTEX
  8
1
  10
10964.344158
  20
-250.662049
  0
VERTEX
  8
1
  10
10977.591708
  20
-239.934949
  0
VERTEX
  8
1
  10
10995.440212
  20
-224.163469
  0
VERTEX
  8
1
  10
10999.755377
  20
-220.261511
  0
VERTEX
  8
1
  10
11028.919480
  20
-193.890076
  0
VERTEX
  8
1
  10
11044.140576
  20
-181.174396
  0
VERTEX
  8
1
  10
11057.678462
  20
-170.922321
  0
VERTEX
  8
1
  10
11070.191620
  20
-162.493686
  0
VERTEX
  8
1
  10
11082.145727
  20
-155.447408
  0
VERTEX
  8
1
  10
11093.222664
  20
-149.813108
  0
VERTEX
  8
1
  10
11106.254407
  20
-144.301956
  0
VERTEX
  8
1
  10
11118.018388
  20
-140.382468
  0
VERTEX
  8
1
  10
11129.835875
  20
-137.478795
  0
VERTEX
  8
1
  10
11140.403055
  20
-135.758919
  0
VERTEX
  8
1
  10
11152.787471
  20
-134.776782
  0
VERTEX
  8
1
  10
11165.143988
  20
-134.775436
  0
VERTEX
  8
1
  10
11169.968665
  20
-134.970202
  0
VERTEX
  8
1
  10
11171.835055
  20
-135.038673
  0
VERTEX
  8
1
  10
11172.181667
  20
-135.081400
  0
VERTEX
  8
1
  10
11176.239105
  20
-135.581556
  0
VERTEX
  8
1
  10
11188.811935
  20
-137.106952
  0
VERTEX
  8
1
  10
11190.211093
  20
-137.409372
  0
VERTEX
  8
1
  10
11201.137887
  20
-139.771135
  0
VERTEX
  8
1
  10
11212.144549
  20
-143.335361
  0
VERTEX
  8
1
  10
11222.846552
  20
-148.216056
  0
VERTEX
  8
1
  10
11224.363478
  20
-148.907856
  0
VERTEX
  8
1
  10
11235.300666
  20
-155.653965
  0
VERTEX
  8
1
  10
11245.677441
  20
-164.044173
  0
VERTEX
  8
1
  10
11254.925971
  20
-173.410979
  0
VERTEX
  8
1
  10
11263.227055
  20
-183.433200
  0
VERTEX
  8
1
  10
11272.818484
  20
-196.839753
  0
VERTEX
  8
1
  10
11286.246081
  20
-217.622295
  0
VERTEX
  8
1
  10
11297.919999
  20
-234.835278
  0
VERTEX
  8
1
  10
11298.347828
  20
-235.373142
  0
VERTEX
  8
1
  10
11306.233030
  20
-245.286358
  0
VERTEX
  8
1
  10
11314.112720
  20
-253.598805
  0
VERTEX
  8
1
  10
11322.675485
  20
-261.058939
  0
VERTEX
  8
1
  10
11330.666162
  20
-266.706974
  0
VERTEX
  8
1
  10
11331.719833
  20
-267.294327
  0
VERTEX
  8
1
  10
11340.530260
  20
-272.205570
  0
VERTEX
  8
1
  10
11350.885225
  20
-276.490599
  0
VERTEX
  8
1
  10
11360.319117
  20
-279.192198
  0
VERTEX
  8
1
  10
11371.153608
  20
-281.127328
  0
VERTEX
  8
1
  10
11381.664880
  20
-282.085447
  0
VERTEX
  8
1
  10
11392.757503
  20
-282.263988
  0
VERTEX
  8
1
  10
11393.485960
  20
-282.275713
  0
VERTEX
  8
1
  10
11404.300339
  20
-281.698118
  0
VERTEX
  8
1
  10
11404.383862
  20
-281.690167
  0
VERTEX
  8
1
  10
11412.715260
  20
-280.897144
  0
VERTEX
  8
1
  10
11425.895041
  20
-279.855342
  0
VERTEX
  8
1
  10
11374.981171
  20
-390.504983
  0
VERTEX
  8
1
  10
11386.825931
  20
-415.548741
  0
VERTEX
  8
1
  10
11298.628418
  20
-415.583372
  0
VERTEX
  8
1
  10
11230.605720
  20
-415.901372
  0
VERTEX
  8
1
  10
11172.548586
  20
-416.429127
  0
VERTEX
  8
1
  10
11113.354540
  20
-417.276272
  0
VERTEX
  8
1
  10
11056.701452
  20
-418.360181
  0
VERTEX
  8
1
  10
11007.021330
  20
-419.487464
  0
VERTEX
  8
1
  10
10958.895285
  20
-420.724949
  0
VERTEX
  8
1
  10
10918.109059
  20
-421.873634
  0
SEQEND
  8
1
  0
POINT
  8
2
 10
10918.109059
 20
-421.873634
  0
TEXT
  8
2
 10
10918.109059
 20
-421.873634
 40
0.000000
 50
0.000000
  1
# 193
  0
POINT
  8
2
 10
10929.845090
 20
-396.466645
  0
TEXT
  8
2
 10
10929.845090
 20
-396.466645
 40
0.000000
 50
0.000000
  1
# 194
  0
POINT
  8
2
 10
10876.395681
 20
-292.726359
  0
TEXT
  8
2
 10
10876.395681
 20
-292.726359
 40
0.000000
 50
0.000000
  1
# 195
  0
POINT
  8
2
 10
11171.835055
 20
-135.038673
  0
TEXT
  8
2
 10
11171.835055
 20
-135.038673
 40
0.000000
 50
0.000000
  1
# 196
  0
POINT
  8
2
 10
11425.895041
 20
-279.855342
  0
TEXT
  8
2
 10
11425.895041
 20
-279.855342
 40
0.000000
 50
0.000000
  1
# 197
  0
POINT
  8
2
 10
11374.981171
 20
-390.504983
  0
TEXT
  8
2
 10
11374.981171
 20
-390.504983
 40
0.000000
 50
0.000000
  1
# 198
  0
POINT
  8
2
 10
11386.825931
 20
-415.548741
  0
TEXT
  8
2
 10
11386.825931
 20
-415.548741
 40
0.000000
 50
0.000000
  1
# 199
  0
POINT
  8
2
 10
10918.109059
 20
-421.873634
  0
TEXT
  8
2
 10
10918.109059
 20
-421.873634
 40
0.000000
 50
0.000000
  1
# 200
  0
POINT
  8
3
 10
10906.577151
 20
-351.305760
  0
POINT
  8
3
 10
10888.363322
 20
-288.530807
  0
POINT
  8
3
 10
10904.577675
 20
-283.061127
  0
POINT
  8
3
 10
10917.962150
 20
-277.701011
  0
POINT
  8
3
 10
10931.717374
 20
-271.322188
  0
POINT
  8
3
 10
10942.489270
 20
-265.492482
  0
POINT
  8
3
 10
10953.330294
 20
-258.638245
  0
POINT
  8
3
 10
10964.344158
 20
-250.662049
  0
POINT
  8
3
 10
10977.591708
 20
-239.934949
  0
POINT
  8
3
 10
10995.440212
 20
-224.163469
  0
POINT
  8
3
 10
10999.755377
 20
-220.261511
  0
POINT
  8
3
 10
11028.919480
 20
-193.890076
  0
POINT
  8
3
 10
11044.140576
 20
-181.174396
  0
POINT
  8
3
 10
11057.678462
 20
-170.922321
  0
POINT
  8
3
 10
11070.191620
 20
-162.493686
  0
POINT
  8
3
 10
11082.145727
 20
-155.447408
  0
POINT
  8
3
 10
11093.222664
 20
-149.813108
  0
POINT
  8
3
 10
11106.254407
 20
-144.301956
  0
POINT
  8
3
 10
11118.018388
 20
-140.382468
  0
POINT
  8
3
 10
11129.835875
 20
-137.478795
  0
POINT
  8
3
 10
11140.403055
 20
-135.758919
  0
POINT
  8
3
 10
11152.787471
 20
-134.776782
  0
POINT
  8
3
 10
11165.143988
 20
-134.775436
  0
POINT
  8
3
 10
11169.968665
 20
-134.970202
  0
POINT
  8
3
 10
11172.181667
 20
-135.081400
  0
POINT
  8
3
 10
11176.239105
 20
-135.581556
  0
POINT
  8
3
 10
11188.811935
 20
-137.106952
  0
POINT
  8
3
 10
11190.211093
 20
-137.409372
  0
POINT
  8
3
 10
11201.137887
 20
-139.771135
  0
POINT
  8
3
 10
11212.144549
 20
-143.335361
  0
POINT
  8
3
 10
11222.846552
 20
-148.216056
  0
POINT
  8
3
 10
11224.363478
 20
-148.907856
  0
POINT
  8
3
 10
11235.300666
 20
-155.653965
  0
POINT
  8
3
 10
11245.677441
 20
-164.044173
  0
POINT
  8
3
 10
11254.925971
 20
-173.410979
  0
POINT
  8
3
 10
11263.227055
 20
-183.433200
  0
POINT
  8
3
 10
11272.818484
 20
-196.839753
  0
POINT
  8
3
 10
11286.246081
 20
-217.622295
  0
POINT
  8
3
 10
11297.919999
 20
-234.835278
  0
POINT
  8
3
 10
11298.347828
 20
-235.373142
  0
POINT
  8
3
 10
11306.233030
 20
-245.286358
  0
POINT
  8
3
 10
11314.112720
 20
-253.598805
  0
POINT
  8
3
 10
11322.675485
 20
-261.058939
  0
POINT
  8
3
 10
11330.666162
 20
-266.706974
  0
POINT
  8
3
 10
11331.719833
 20
-267.294327
  0
POINT
  8
3
 10
11340.530260
 20
-272.205570
  0
POINT
  8
3
 10
11350.885225
 20
-276.490599
  0
POINT
  8
3
 10
11360.319117
 20
-279.192198
  0
POINT
  8
3
 10
11371.153608
 20
-281.127328
  0
POINT
  8
3
 10
11381.664880
 20
-282.085447
  0
POINT
  8
3
 10
11392.757503
 20
-282.263988
  0
POINT
  8
3
 10
11393.485960
 20
-282.275713
  0
POINT
  8
3
 10
11404.300339
 20
-281.698118
  0
POINT
  8
3
 10
11404.383862
 20
-281.690167
  0
POINT
  8
3
 10
11412.715260
 20
-280.897144
  0
POINT
  8
3
 10
11298.628418
 20
-415.583372
  0
POINT
  8
3
 10
11230.605720
 20
-415.901372
  0
POINT
  8
3
 10
11172.548586
 20
-416.429127
  0
POINT
  8
3
 10
11113.354540
 20
-417.276272
  0
POINT
  8
3
 10
11056.701452
 20
-418.360181
  0
POINT
  8
3
 10
11007.021330
 20
-419.487464
  0
POINT
  8
3
 10
10958.895285
 20
-420.724949
  0
POINT
  8
3
 10
11190.211093
 20
-137.409372
  0
TEXT
  8
3
 10
11190.211093
 20
-137.409372
 40
0.000000
 50
0.000000
  1
# 201
  0
POINT
  8
3
 10
11222.846552
 20
-148.216056
  0
TEXT
  8
3
 10
11222.846552
 20
-148.216056
 40
0.000000
 50
0.000000
  1
# 202
  0
POINT
  8
3
 10
11392.757503
 20
-282.263988
  0
TEXT
  8
3
 10
11392.757503
 20
-282.263988
 40
0.000000
 50
0.000000
  1
# 203
  0
POINT
  8
3
 10
11404.383862
 20
-281.690167
  0
TEXT
  8
3
 10
11404.383862
 20
-281.690167
 40
0.000000
 50
0.000000
  1
# 204
  0
POINT
  8
4
 10
10906.577151
 20
-351.305760
 30
0.600000
 50
 27.26
  0
TEXT
  8
4
 10
10906.577151
 20
-351.305760
 40
0.000000
 50
0.000000
  1
# 205
  0
POINT
  8
4
 10
10999.755377
 20
-220.261511
 30
0.600000
 50
312.12
  0
TEXT
  8
4
 10
10999.755377
 20
-220.261511
 40
0.000000
 50
0.000000
  1
# 206
  0
POINT
  8
4
 10
11172.181667
 20
-135.081400
 30
0.600000
 50
262.97
  0
TEXT
  8
4
 10
11172.181667
 20
-135.081400
 40
0.000000
 50
0.000000
  1
# 207
  0
POINT
  8
4
 10
11298.347828
 20
-235.373142
 30
0.600000
 50
218.50
  0
TEXT
  8
4
 10
11298.347828
 20
-235.373142
 40
0.000000
 50
0.000000
  1
# 208
  0
POINT
  8
4
 10
11331.719833
 20
-267.294327
 30
0.600000
 50
240.86
  0
TEXT
  8
4
 10
11331.719833
 20
-267.294327
 40
0.000000
 50
0.000000
  1
# 209
  0
POLYLINE
  8
8
  66
1
  70
1
  0
VERTEX
  8
8
  10
10939.858398
  20
-396.251183
  0
VERTEX
  8
8
  10
10914.577637
  20
-347.183723
  0
VERTEX
  8
8
  10
10889.085693
  20
-297.706127
  0
VERTEX
  8
8
  10
10907.700657
  20
-291.501920
  0
VERTEX
  8
8
  10
10921.517285
  20
-285.969083
  0
VERTEX
  8
8
  10
10935.757171
  20
-279.364578
  0
VERTEX
  8
8
  10
10947.031501
  20
-273.262175
  0
VERTEX
  8
8
  10
10958.389381
  20
-266.081741
  0
VERTEX
  8
8
  10
10969.818425
  20
-257.805745
  0
VERTEX
  8
8
  10
10983.414623
  20
-246.797432
  0
VERTEX
  8
8
  10
11001.491200
  20
-230.825717
  0
VERTEX
  8
8
  10
11005.776367
  20
-226.920109
  0
VERTEX
  8
8
  10
11034.823901
  20
-200.682558
  0
VERTEX
  8
8
  10
11049.750719
  20
-188.211888
  0
VERTEX
  8
8
  10
11062.914235
  20
-178.242613
  0
VERTEX
  8
8
  10
11074.994483
  20
-170.105026
  0
VERTEX
  8
8
  10
11086.468983
  20
-163.341041
  0
VERTEX
  8
8
  10
11097.047213
  20
-157.960060
  0
VERTEX
  8
8
  10
11109.422562
  20
-152.725897
  0
VERTEX
  8
8
  10
11120.524073
  20
-149.026631
  0
VERTEX
  8
8
  10
11131.615540
  20
-146.301084
  0
VERTEX
  8
8
  10
11141.508978
  20
-144.690712
  0
VERTEX
  8
8
  10
11153.113513
  20
-143.770874
  0
VERTEX
  8
8
  10
11164.875167
  20
-143.771420
  0
VERTEX
  8
8
  10
11171.079102
  20
-144.025793
  0
VERTEX
  8
8
  10
11171.079102
  20
-144.025793
  0
VERTEX
  8
8
  10
11187.287125
  20
-145.976842
  0
VERTEX
  8
8
  10
11188.320118
  20
-146.158049
  0
VERTEX
  8
8
  10
11198.817233
  20
-148.466798
  0
VERTEX
  8
8
  10
11208.924398
  20
-151.739563
  0
VERTEX
  8
8
  10
11220.123087
  20
-156.846312
  0
VERTEX
  8
8
  10
11230.100050
  20
-162.999276
  0
VERTEX
  8
8
  10
11239.608218
  20
-170.689813
  0
VERTEX
  8
8
  10
11248.227200
  20
-179.421509
  0
VERTEX
  8
8
  10
11256.094637
  20
-188.922154
  0
VERTEX
  8
8
  10
11265.350371
  20
-201.862430
  0
VERTEX
  8
8
  10
11278.675174
  20
-222.488645
  0
VERTEX
  8
8
  10
11290.667000
  20
-240.163880
  0
VERTEX
  8
8
  10
11291.280518
  20
-240.994644
  0
VERTEX
  8
8
  10
11299.440234
  20
-251.190417
  0
VERTEX
  8
8
  10
11307.869231
  20
-260.080999
  0
VERTEX
  8
8
  10
11317.127562
  20
-268.145584
  0
VERTEX
  8
8
  10
11325.841403
  20
-274.304453
  0
VERTEX
  8
8
  10
11327.303467
  20
-275.216980
  0
VERTEX
  8
8
  10
11336.607896
  20
-280.305882
  0
VERTEX
  8
8
  10
11347.946301
  20
-284.997227
  0
VERTEX
  8
8
  10
11358.293295
  20
-287.961236
  0
VERTEX
  8
8
  10
11369.986038
  20
-290.051272
  0
VERTEX
  8
8
  10
11381.180575
  20
-291.072407
  0
VERTEX
  8
8
  10
11393.669270
  20
-291.273846
  0
VERTEX
  8
8
  10
11405.088729
  20
-290.663520
  0
VERTEX
  8
8
  10
11411.337891
  20
-289.961262
  0
VERTEX
  8
8
  10
11365.050049
  20
-390.557289
  0
VERTEX
  8
8
  10
11298.564407
  20
-390.583454
  0
VERTEX
  8
8
  10
11230.433328
  20
-390.901966
  0
VERTEX
  8
8
  10
11172.261390
  20
-391.430777
  0
VERTEX
  8
8
  10
11112.929815
  20
-392.279881
  0
VERTEX
  8
8
  10
11056.173563
  20
-393.365755
  0
VERTEX
  8
8
  10
11006.416066
  20
-394.494792
  0
VERTEX
  8
8
  10
10958.212647
  20
-395.734271
  0
VERTEX
  8
8
  10
10939.858398
  20
-396.251183
  0
SEQEND
  8
8
  0
POINT
  8
2
 10
10939.858398
 20
-396.251183
  0
TEXT
  8
2
 10
10939.858398
 20
-396.251183
 40
0.000000
 50
0.000000
  1
# 210
  0
POINT
  8
2
 10
10889.085693
 20
-297.706127
  0
TEXT
  8
2
 10
10889.085693
 20
-297.706127
 40
0.000000
 50
0.000000
  1
# 211
  0
POINT
  8
2
 10
11171.079102
 20
-144.025793
  0
TEXT
  8
2
 10
11171.079102
 20
-144.025793
 40
0.000000
 50
0.000000
  1
# 212
  0
POINT
  8
2
 10
11411.337891
 20
-289.961262
  0
TEXT
  8
2
 10
11411.337891
 20
-289.961262
 40
0.000000
 50
0.000000
  1
# 213
  0
POINT
  8
2
 10
11365.050049
 20
-390.557289
  0
TEXT
  8
2
 10
11365.050049
 20
-390.557289
 40
0.000000
 50
0.000000
  1
# 214
  0
POINT
  8
2
 10
10939.858398
 20
-396.251183
  0
TEXT
  8
2
 10
10939.858398
 20
-396.251183
 40
0.000000
 50
0.000000
  1
# 215
  0
POINT
  8
3
 10
10914.577637
 20
-347.183723
  0
POINT
  8
3
 10
10907.700657
 20
-291.501920
  0
POINT
  8
3
 10
10921.517285
 20
-285.969083
  0
POINT
  8
3
 10
10935.757171
 20
-279.364578
  0
POINT
  8
3
 10
10947.031501
 20
-273.262175
  0
POINT
  8
3
 10
10958.389381
 20
-266.081741
  0
POINT
  8
3
 10
10969.818425
 20
-257.805745
  0
POINT
  8
3
 10
10983.414623
 20
-246.797432
  0
POINT
  8
3
 10
11001.491200
 20
-230.825717
  0
POINT
  8
3
 10
11005.776367
 20
-226.920109
  0
POINT
  8
3
 10
11034.823901
 20
-200.682558
  0
POINT
  8
3
 10
11049.750719
 20
-188.211888
  0
POINT
  8
3
 10
11062.914235
 20
-178.242613
  0
POINT
  8
3
 10
11074.994483
 20
-170.105026
  0
POINT
  8
3
 10
11086.468983
 20
-163.341041
  0
POINT
  8
3
 10
11097.047213
 20
-157.960060
  0
POINT
  8
3
 10
11109.422562
 20
-152.725897
  0
POINT
  8
3
 10
11120.524073
 20
-149.026631
  0
POINT
  8
3
 10
11131.615540
 20
-146.301084
  0
POINT
  8
3
 10
11141.508978
 20
-144.690712
  0
POINT
  8
3
 10
11153.113513
 20
-143.770874
  0
POINT
  8
3
 10
11164.875167
 20
-143.771420
  0
POINT
  8
3
 10
11171.079102
 20
-144.025793
  0
POINT
  8
3
 10
11187.287125
 20
-145.976842
  0
POINT
  8
3
 10
11188.320118
 20
-146.158049
  0
POINT
  8
3
 10
11198.817233
 20
-148.466798
  0
POINT
  8
3
 10
11208.924398
 20
-151.739563
  0
POINT
  8
3
 10
11220.123087
 20
-156.846312
  0
POINT
  8
3
 10
11230.100050
 20
-162.999276
  0
POINT
  8
3
 10
11239.608218
 20
-170.689813
  0
POINT
  8
3
 10
11248.227200
 20
-179.421509
  0
POINT
  8
3
 10
11256.094637
 20
-188.922154
  0
POINT
  8
3
 10
11265.350371
 20
-201.862430
  0
POINT
  8
3
 10
11278.675174
 20
-222.488645
  0
POINT
  8
3
 10
11290.667000
 20
-240.163880
  0
POINT
  8
3
 10
11291.280518
 20
-240.994644
  0
POINT
  8
3
 10
11299.440234
 20
-251.190417
  0
POINT
  8
3
 10
11307.869231
 20
-260.080999
  0
POINT
  8
3
 10
11317.127562
 20
-268.145584
  0
POINT
  8
3
 10
11325.841403
 20
-274.304453
  0
POINT
  8
3
 10
11327.303467
 20
-275.216980
  0
POINT
  8
3
 10
11336.607896
 20
-280.305882
  0
POINT
  8
3
 10
11347.946301
 20
-284.997227
  0
POINT
  8
3
 10
11358.293295
 20
-287.961236
  0
POINT
  8
3
 10
11369.986038
 20
-290.051272
  0
POINT
  8
3
 10
11381.180575
 20
-291.072407
  0
POINT
  8
3
 10
11393.669270
 20
-291.273846
  0
POINT
  8
3
 10
11405.088729
 20
-290.663520
  0
POINT
  8
3
 10
11298.564407
 20
-390.583454
  0
POINT
  8
3
 10
11230.433328
 20
-390.901966
  0
POINT
  8
3
 10
11172.261390
 20
-391.430777
  0
POINT
  8
3
 10
11112.929815
 20
-392.279881
  0
POINT
  8
3
 10
11056.173563
 20
-393.365755
  0
POINT
  8
3
 10
11006.416066
 20
-394.494792
  0
POINT
  8
3
 10
10958.212647
 20
-395.734271
  0
POINT
  8
3
 10
11188.320118
 20
-146.158049
  0
TEXT
  8
3
 10
11188.320118
 20
-146.158049
 40
0.000000
 50
0.000000
  1
# 216
  0
POINT
  8
4
 10
10914.577637
 20
-347.183723
 30
0.600000
 50
 27.26
  0
TEXT
  8
4
 10
10914.577637
 20
-347.183723
 40
0.000000
 50
0.000000
  1
# 217
  0
POINT
  8
4
 10
11005.776367
 20
-226.920109
 30
0.600000
 50
312.42
  0
TEXT
  8
4
 10
11005.776367
 20
-226.920109
 40
0.000000
 50
0.000000
  1
# 218
  0
POINT
  8
4
 10
11171.079102
 20
-144.025793
 30
0.600000
 50
266.00
  0
TEXT
  8
4
 10
11171.079102
 20
-144.025793
 40
0.000000
 50
0.000000
  1
# 219
  0
POINT
  8
4
 10
11291.280518
 20
-240.994644
 30
0.600000
 50
216.59
  0
TEXT
  8
4
 10
11291.280518
 20
-240.994644
 40
0.000000
 50
0.000000
  1
# 220
  0
POINT
  8
4
 10
11327.303467
 20
-275.216980
 30
0.600000
 50
238.50
  0
TEXT
  8
4
 10
11327.303467
 20
-275.216980
 40
0.000000
 50
0.000000
  1
# 221
  0
POLYLINE
  8
11
  66
1
  70
0
  0
VERTEX
  8
1
  10
11152.585449
  20
-391.650734
  0
VERTEX
  8
1
  10
11152.585449
  20
-336.508958
  0
VERTEX
  8
1
  10
11152.585449
  20
-285.670164
  0
VERTEX
  8
1
  10
11152.585449
  20
-234.141406
  0
VERTEX
  8
1
  10
11152.585449
  20
-182.106325
  0
VERTEX
  8
1
  10
11152.585449
  20
-143.772154
  0
SEQEND
  8
11
  0
POINT
  8
2
 10
11152.585449
 20
-391.650734
  0
TEXT
  8
2
 10
11152.585449
 20
-391.650734
 40
0.000000
 50
0.000000
  1
# 222
  0
POINT
  8
2
 10
11152.585449
 20
-143.772154
  0
TEXT
  8
2
 10
11152.585449
 20
-143.772154
 40
0.000000
 50
0.000000
  1
# 223
  0
POINT
  8
3
 10
11152.585449
 20
-336.508958
  0
POINT
  8
3
 10
11152.585449
 20
-285.670164
  0
POINT
  8
3
 10
11152.585449
 20
-234.141406
  0
POINT
  8
3
 10
11152.585449
 20
-182.106325
  0
POLYLINE
  8
11
  66
1
  70
0
  0
VERTEX
  8
1
  10
10889.085693
  20
-297.706127
  0
VERTEX
  8
1
  10
11411.337891
  20
-289.961262
  0
SEQEND
  8
11
  0
POINT
  8
2
 10
10889.085693
 20
-297.706127
  0
TEXT
  8
2
 10
10889.085693
 20
-297.706127
 40
0.000000
 50
0.000000
  1
# 224
  0
POINT
  8
2
 10
11411.337891
 20
-289.961262
  0
TEXT
  8
2
 10
11411.337891
 20
-289.961262
 40
0.000000
 50
0.000000
  1
# 225
  0
POLYLINE
  8
11
  6
2
  66
1
  70
0
  0
VERTEX
  8
1
  10
11378.104248
  20
-365.573006
  0
VERTEX
  8
1
  10
11325.072813
  20
-365.528171
  0
VERTEX
  8
1
  10
11273.951324
  20
-365.655893
  0
VERTEX
  8
1
  10
11222.629492
  20
-365.943292
  0
VERTEX
  8
1
  10
11172.506811
  20
-366.405435
  0
VERTEX
  8
1
  10
11121.107279
  20
-367.109658
  0
VERTEX
  8
1
  10
11070.651742
  20
-368.018907
  0
VERTEX
  8
1
  10
11018.574380
  20
-369.139046
  0
VERTEX
  8
1
  10
10968.077195
  20
-370.398778
  0
VERTEX
  8
1
  10
10925.614014
  20
-371.549873
  0
SEQEND
  8
11
  0
POINT
  8
2
 10
11378.104248
 20
-365.573006
  0
TEXT
  8
2
 10
11378.104248
 20
-365.573006
 40
0.000000
 50
0.000000
  1
# 226
  0
POINT
  8
2
 10
10925.614014
 20
-371.549873
  0
TEXT
  8
2
 10
10925.614014
 20
-371.549873
 40
0.000000
 50
0.000000
  1
# 227
  0
POINT
  8
3
 10
11325.072813
 20
-365.528171
  0
POINT
  8
3
 10
11273.951324
 20
-365.655893
  0
POINT
  8
3
 10
11222.629492
 20
-365.943292
  0
POINT
  8
3
 10
11172.506811
 20
-366.405435
  0
POINT
  8
3
 10
11121.107279
 20
-367.109658
  0
POINT
  8
3
 10
11070.651742
 20
-368.018907
  0
POINT
  8
3
 10
11018.574380
 20
-369.139046
  0
POINT
  8
3
 10
10968.077195
 20
-370.398778
  0
POLYLINE
  8
11
  6
2
  66
1
  70
0
  0
VERTEX
  8
1
  10
11375.692139
  20
-371.567230
  0
VERTEX
  8
1
  10
11320.443440
  20
-371.533685
  0
VERTEX
  8
1
  10
11269.484801
  20
-371.674621
  0
VERTEX
  8
1
  10
11218.505248
  20
-371.974198
  0
VERTEX
  8
1
  10
11166.429107
  20
-372.476369
  0
VERTEX
  8
1
  10
11115.545392
  20
-373.200637
  0
VERTEX
  8
1
  10
11064.389026
  20
-374.146011
  0
VERTEX
  8
1
  10
11013.829768
  20
-375.253345
  0
VERTEX
  8
1
  10
10962.258468
  20
-376.550734
  0
VERTEX
  8
1
  10
10928.311768
  20
-377.477379
  0
SEQEND
  8
11
  0
POINT
  8
2
 10
11375.692139
 20
-371.567230
  0
TEXT
  8
2
 10
11375.692139
 20
-371.567230
 40
0.000000
 50
0.000000
  1
# 228
  0
POINT
  8
2
 10
10928.311768
 20
-377.477379
  0
TEXT
  8
2
 10
10928.311768
 20
-377.477379
 40
0.000000
 50
0.000000
  1
# 229
  0
POINT
  8
3
 10
11320.443440
 20
-371.533685
  0
POINT
  8
3
 10
11269.484801
 20
-371.674621
  0
POINT
  8
3
 10
11218.505248
 20
-371.974198
  0
POINT
  8
3
 10
11166.429107
 20
-372.476369
  0
POINT
  8
3
 10
11115.545392
 20
-373.200637
  0
POINT
  8
3
 10
11064.389026
 20
-374.146011
  0
POINT
  8
3
 10
11013.829768
 20
-375.253345
  0
POINT
  8
3
 10
10962.258468
 20
-376.550734
 0
LINE
 8
7
 10
11143.497314
 20
-190.553455
 11
11143.497314
 21
-361.306381
  0
TEXT
  8
1
 10
11151.145020
 20
-278.324533
 40
10.000000
 50
0.000000
  1
PIECE NAME: C2590428.袖长
  0
TEXT
  8
1
 10
11151.145020
 20
-263.324533
 40
10.000000
 50
0.000000
  1
Size: M
  0
TEXT
  8
1
 10
11151.145020
 20
-248.324533
 40
10.000000
 50
0.000000
  1
ANNOTATION: 面料1 X2
  0
TEXT
  8
1
 10
11151.145020
 20
-233.324533
 40
10.000000
 50
0.000000
  1
QUANTITY: 1,1
  0
TEXT
  8
1
 10
11151.145020
 20
-218.324533
 40
10.000000
 50
0.000000
  1
FABRIC: 面料1
  0
TEXT
  8
1
 10
11151.145020
 20
-203.324533
 40
10.000000
 50
0.000000
  1
CATEGORY: 袖长
0
ENDBLK
0
BLOCK
  8
1
  2
C2590428.通肩压条_面料1_M
 70
0
 10
0.0
 20
0.0
  0
POLYLINE
  8
1
  66
1
  70
1
  0
VERTEX
  8
1
  10
10331.762695
  20
119.494505
  0
VERTEX
  8
1
  10
10331.762695
  20
142.494507
  0
VERTEX
  8
1
  10
10411.117057
  20
142.494507
  0
VERTEX
  8
1
  10
10478.548142
  20
142.494507
  0
VERTEX
  8
1
  10
10554.205932
  20
142.494507
  0
VERTEX
  8
1
  10
10605.935178
  20
142.494507
  0
VERTEX
  8
1
  10
10657.296537
  20
142.494507
  0
VERTEX
  8
1
  10
10708.657897
  20
142.494507
  0
VERTEX
  8
1
  10
10760.019258
  20
142.494507
  0
VERTEX
  8
1
  10
10811.380620
  20
142.494507
  0
VERTEX
  8
1
  10
10862.741982
  20
142.494507
  0
VERTEX
  8
1
  10
10914.103346
  20
142.494507
  0
VERTEX
  8
1
  10
10965.464710
  20
142.494507
  0
VERTEX
  8
1
  10
11016.826075
  20
142.494507
  0
VERTEX
  8
1
  10
11044.753002
  20
142.494507
  0
VERTEX
  8
1
  10
11121.795050
  20
142.494507
  0
VERTEX
  8
1
  10
11173.156420
  20
142.494507
  0
VERTEX
  8
1
  10
11224.517794
  20
142.494507
  0
VERTEX
  8
1
  10
11275.879176
  20
142.494507
  0
VERTEX
  8
1
  10
11327.240568
  20
142.494507
  0
VERTEX
  8
1
  10
11378.601971
  20
142.494507
  0
VERTEX
  8
1
  10
11429.963388
  20
142.494507
  0
VERTEX
  8
1
  10
11467.444650
  20
142.494507
  0
VERTEX
  8
1
  10
11543.517143
  20
142.494507
  0
VERTEX
  8
1
  10
11613.771579
  20
142.494507
  0
VERTEX
  8
1
  10
11672.389864
  20
142.494507
  0
VERTEX
  8
1
  10
11722.390930
  20
142.494507
  0
VERTEX
  8
1
  10
11731.762695
  20
142.494507
  0
VERTEX
  8
1
  10
11731.762695
  20
119.494505
  0
VERTEX
  8
1
  10
10331.762695
  20
119.494505
  0
SEQEND
  8
1
  0
POINT
  8
2
 10
10331.762695
 20
119.494505
  0
TEXT
  8
2
 10
10331.762695
 20
119.494505
 40
0.000000
 50
0.000000
  1
# 230
  0
POINT
  8
2
 10
10331.762695
 20
142.494507
  0
TEXT
  8
2
 10
10331.762695
 20
142.494507
 40
0.000000
 50
0.000000
  1
# 231
  0
POINT
  8
2
 10
11731.762695
 20
142.494507
  0
TEXT
  8
2
 10
11731.762695
 20
142.494507
 40
0.000000
 50
0.000000
  1
# 232
  0
POINT
  8
2
 10
11731.762695
 20
119.494505
  0
TEXT
  8
2
 10
11731.762695
 20
119.494505
 40
0.000000
 50
0.000000
  1
# 233
  0
POINT
  8
2
 10
10331.762695
 20
119.494505
  0
TEXT
  8
2
 10
10331.762695
 20
119.494505
 40
0.000000
 50
0.000000
  1
# 234
  0
POINT
  8
3
 10
10411.117057
 20
142.494507
  0
POINT
  8
3
 10
10478.548142
 20
142.494507
  0
POINT
  8
3
 10
10554.205932
 20
142.494507
  0
POINT
  8
3
 10
10605.935178
 20
142.494507
  0
POINT
  8
3
 10
10657.296537
 20
142.494507
  0
POINT
  8
3
 10
10708.657897
 20
142.494507
  0
POINT
  8
3
 10
10760.019258
 20
142.494507
  0
POINT
  8
3
 10
10811.380620
 20
142.494507
  0
POINT
  8
3
 10
10862.741982
 20
142.494507
  0
POINT
  8
3
 10
10914.103346
 20
142.494507
  0
POINT
  8
3
 10
10965.464710
 20
142.494507
  0
POINT
  8
3
 10
11016.826075
 20
142.494507
  0
POINT
  8
3
 10
11044.753002
 20
142.494507
  0
POINT
  8
3
 10
11121.795050
 20
142.494507
  0
POINT
  8
3
 10
11173.156420
 20
142.494507
  0
POINT
  8
3
 10
11224.517794
 20
142.494507
  0
POINT
  8
3
 10
11275.879176
 20
142.494507
  0
POINT
  8
3
 10
11327.240568
 20
142.494507
  0
POINT
  8
3
 10
11378.601971
 20
142.494507
  0
POINT
  8
3
 10
11429.963388
 20
142.494507
  0
POINT
  8
3
 10
11467.444650
 20
142.494507
  0
POINT
  8
3
 10
11543.517143
 20
142.494507
  0
POINT
  8
3
 10
11613.771579
 20
142.494507
  0
POINT
  8
3
 10
11672.389864
 20
142.494507
  0
POINT
  8
3
 10
11722.390930
 20
142.494507
 0
LINE
 8
7
 10
11027.137451
 20
137.628965
 11
11027.137451
 21
124.030390
  0
TEXT
  8
1
 10
11031.762695
 20
130.994506
 40
10.000000
 50
0.000000
  1
PIECE NAME: C2590428.通肩压条
  0
TEXT
  8
1
 10
11031.762695
 20
145.994506
 40
10.000000
 50
0.000000
  1
Size: M
  0
TEXT
  8
1
 10
11031.762695
 20
160.994506
 40
10.000000
 50
0.000000
  1
ANNOTATION: 面料1 X2
  0
TEXT
  8
1
 10
11031.762695
 20
175.994506
 40
10.000000
 50
0.000000
  1
QUANTITY: 2
  0
TEXT
  8
1
 10
11031.762695
 20
190.994506
 40
10.000000
 50
0.000000
  1
FABRIC: 面料1
  0
TEXT
  8
1
 10
11031.762695
 20
205.994506
 40
10.000000
 50
0.000000
  1
CATEGORY: 通肩压条
0
ENDBLK
0
BLOCK
  8
1
  2
C2590428.领_罗纹_M
 70
0
 10
0.0
 20
0.0
  0
POLYLINE
  8
1
  66
1
  70
1
  0
VERTEX
  8
1
  10
9666.369009
  20
72.922462
  0
VERTEX
  8
1
  10
9668.894503
  20
89.995002
  0
VERTEX
  8
1
  10
9669.557957
  20
100.580596
  0
VERTEX
  8
1
  10
9669.543335
  20
100.922459
  0
VERTEX
  8
1
  10
9669.225101
  20
108.362714
  0
VERTEX
  8
1
  10
9666.467096
  20
128.922468
  0
VERTEX
  8
1
  10
9729.849813
  20
128.922468
  0
VERTEX
  8
1
  10
9750.344238
  20
128.922468
  0
VERTEX
  8
1
  10
9808.625510
  20
128.922468
  0
VERTEX
  8
1
  10
9848.583984
  20
128.922468
  0
VERTEX
  8
1
  10
9899.880750
  20
128.922468
  0
VERTEX
  8
1
  10
9902.184448
  20
128.922468
  0
VERTEX
  8
1
  10
9953.947900
  20
128.922468
  0
VERTEX
  8
1
  10
9957.583618
  20
128.922468
  0
VERTEX
  8
1
  10
10009.348622
  20
128.922468
  0
VERTEX
  8
1
  10
10012.984009
  20
128.922468
  0
VERTEX
  8
1
  10
10064.280038
  20
128.922468
  0
VERTEX
  8
1
  10
10066.583862
  20
128.922468
  0
VERTEX
  8
1
  10
10097.660101
  20
128.922468
  0
VERTEX
  8
1
  10
10094.902096
  20
108.362714
  0
VERTEX
  8
1
  10
10094.583862
  20
100.922459
  0
VERTEX
  8
1
  10
10095.180006
  20
90.882352
  0
VERTEX
  8
1
  10
10095.232694
  20
89.995002
  0
VERTEX
  8
1
  10
10097.758188
  20
72.922462
  0
VERTEX
  8
1
  10
10066.583862
  20
72.922462
  0
VERTEX
  8
1
  10
10066.583862
  20
72.922462
  0
VERTEX
  8
1
  10
10064.280038
  20
72.922462
  0
VERTEX
  8
1
  10
10012.984009
  20
72.922462
  0
VERTEX
  8
1
  10
10012.984009
  20
72.922462
  0
VERTEX
  8
1
  10
10009.348622
  20
72.922462
  0
VERTEX
  8
1
  10
9957.583618
  20
72.922462
  0
VERTEX
  8
1
  10
9957.583618
  20
72.922462
  0
VERTEX
  8
1
  10
9953.947900
  20
72.922462
  0
VERTEX
  8
1
  10
9902.184448
  20
72.922462
  0
VERTEX
  8
1
  10
9902.184448
  20
72.922462
  0
VERTEX
  8
1
  10
9899.880750
  20
72.922462
  0
VERTEX
  8
1
  10
9848.583984
  20
72.922462
  0
VERTEX
  8
1
  10
9848.583984
  20
72.922462
  0
VERTEX
  8
1
  10
9808.625510
  20
72.922462
  0
VERTEX
  8
1
  10
9750.344238
  20
72.922462
  0
VERTEX
  8
1
  10
9750.344238
  20
72.922462
  0
VERTEX
  8
1
  10
9729.849813
  20
72.922462
  0
VERTEX
  8
1
  10
9666.369009
  20
72.922462
  0
SEQEND
  8
1
  0
POINT
  8
2
 10
9666.369009
 20
72.922462
  0
TEXT
  8
2
 10
9666.369009
 20
72.922462
 40
0.000000
 50
0.000000
  1
# 235
  0
POINT
  8
2
 10
9666.467096
 20
128.922468
  0
TEXT
  8
2
 10
9666.467096
 20
128.922468
 40
0.000000
 50
0.000000
  1
# 236
  0
POINT
  8
2
 10
9750.344238
 20
128.922468
  0
TEXT
  8
2
 10
9750.344238
 20
128.922468
 40
0.000000
 50
0.000000
  1
# 237
  0
POINT
  8
2
 10
9848.583984
 20
128.922468
  0
TEXT
  8
2
 10
9848.583984
 20
128.922468
 40
0.000000
 50
0.000000
  1
# 238
  0
POINT
  8
2
 10
9902.184448
 20
128.922468
  0
TEXT
  8
2
 10
9902.184448
 20
128.922468
 40
0.000000
 50
0.000000
  1
# 239
  0
POINT
  8
2
 10
9957.583618
 20
128.922468
  0
TEXT
  8
2
 10
9957.583618
 20
128.922468
 40
0.000000
 50
0.000000
  1
# 240
  0
POINT
  8
2
 10
10012.984009
 20
128.922468
  0
TEXT
  8
2
 10
10012.984009
 20
128.922468
 40
0.000000
 50
0.000000
  1
# 241
  0
POINT
  8
2
 10
10066.583862
 20
128.922468
  0
TEXT
  8
2
 10
10066.583862
 20
128.922468
 40
0.000000
 50
0.000000
  1
# 242
  0
POINT
  8
2
 10
10097.660101
 20
128.922468
  0
TEXT
  8
2
 10
10097.660101
 20
128.922468
 40
0.000000
 50
0.000000
  1
# 243
  0
POINT
  8
2
 10
10097.758188
 20
72.922462
  0
TEXT
  8
2
 10
10097.758188
 20
72.922462
 40
0.000000
 50
0.000000
  1
# 244
  0
POINT
  8
2
 10
10066.583862
 20
72.922462
  0
TEXT
  8
2
 10
10066.583862
 20
72.922462
 40
0.000000
 50
0.000000
  1
# 245
  0
POINT
  8
2
 10
10012.984009
 20
72.922462
  0
TEXT
  8
2
 10
10012.984009
 20
72.922462
 40
0.000000
 50
0.000000
  1
# 246
  0
POINT
  8
2
 10
9957.583618
 20
72.922462
  0
TEXT
  8
2
 10
9957.583618
 20
72.922462
 40
0.000000
 50
0.000000
  1
# 247
  0
POINT
  8
2
 10
9902.184448
 20
72.922462
  0
TEXT
  8
2
 10
9902.184448
 20
72.922462
 40
0.000000
 50
0.000000
  1
# 248
  0
POINT
  8
2
 10
9848.583984
 20
72.922462
  0
TEXT
  8
2
 10
9848.583984
 20
72.922462
 40
0.000000
 50
0.000000
  1
# 249
  0
POINT
  8
2
 10
9750.344238
 20
72.922462
  0
TEXT
  8
2
 10
9750.344238
 20
72.922462
 40
0.000000
 50
0.000000
  1
# 250
  0
POINT
  8
2
 10
9666.369009
 20
72.922462
  0
TEXT
  8
2
 10
9666.369009
 20
72.922462
 40
0.000000
 50
0.000000
  1
# 251
  0
POINT
  8
3
 10
9668.894503
 20
89.995002
  0
POINT
  8
3
 10
9669.557957
 20
100.580596
  0
POINT
  8
3
 10
9669.543335
 20
100.922459
  0
POINT
  8
3
 10
9669.225101
 20
108.362714
  0
POINT
  8
3
 10
9729.849813
 20
128.922468
  0
POINT
  8
3
 10
9808.625510
 20
128.922468
  0
POINT
  8
3
 10
9899.880750
 20
128.922468
  0
POINT
  8
3
 10
9953.947900
 20
128.922468
  0
POINT
  8
3
 10
10009.348622
 20
128.922468
  0
POINT
  8
3
 10
10064.280038
 20
128.922468
  0
POINT
  8
3
 10
10094.902096
 20
108.362714
  0
POINT
  8
3
 10
10094.583862
 20
100.922459
  0
POINT
  8
3
 10
10095.180006
 20
90.882352
  0
POINT
  8
3
 10
10095.232694
 20
89.995002
  0
POINT
  8
3
 10
10066.583862
 20
72.922462
  0
POINT
  8
3
 10
10064.280038
 20
72.922462
  0
POINT
  8
3
 10
10012.984009
 20
72.922462
  0
POINT
  8
3
 10
10009.348622
 20
72.922462
  0
POINT
  8
3
 10
9957.583618
 20
72.922462
  0
POINT
  8
3
 10
9953.947900
 20
72.922462
  0
POINT
  8
3
 10
9902.184448
 20
72.922462
  0
POINT
  8
3
 10
9899.880750
 20
72.922462
  0
POINT
  8
3
 10
9848.583984
 20
72.922462
  0
POINT
  8
3
 10
9808.625510
 20
72.922462
  0
POINT
  8
3
 10
9750.344238
 20
72.922462
  0
POINT
  8
3
 10
9729.849813
 20
72.922462
  0
POINT
  8
3
 10
9669.557957
 20
100.580596
  0
TEXT
  8
3
 10
9669.557957
 20
100.580596
 40
0.000000
 50
0.000000
  1
# 252
  0
POINT
  8
4
 10
10095.180006
 20
90.882352
 30
0.600000
 50
183.40
  0
TEXT
  8
4
 10
10095.180006
 20
90.882352
 40
0.000000
 50
0.000000
  1
# 253
  0
POINT
  8
4
 10
10066.583862
 20
72.922462
 30
0.600000
 50
 90.00
  0
TEXT
  8
4
 10
10066.583862
 20
72.922462
 40
0.000000
 50
0.000000
  1
# 254
  0
POINT
  8
4
 10
10012.984009
 20
72.922462
 30
0.600000
 50
 90.00
  0
TEXT
  8
4
 10
10012.984009
 20
72.922462
 40
0.000000
 50
0.000000
  1
# 255
  0
POINT
  8
4
 10
9957.583618
 20
72.922462
 30
0.600000
 50
 90.00
  0
TEXT
  8
4
 10
9957.583618
 20
72.922462
 40
0.000000
 50
0.000000
  1
# 256
  0
POINT
  8
4
 10
9902.184448
 20
72.922462
 30
0.600000
 50
 90.00
  0
TEXT
  8
4
 10
9902.184448
 20
72.922462
 40
0.000000
 50
0.000000
  1
# 257
  0
POINT
  8
4
 10
9848.583984
 20
72.922462
 30
0.600000
 50
 90.00
  0
TEXT
  8
4
 10
9848.583984
 20
72.922462
 40
0.000000
 50
0.000000
  1
# 258
  0
POINT
  8
4
 10
9750.344238
 20
72.922462
 30
0.600000
 50
 90.00
  0
TEXT
  8
4
 10
9750.344238
 20
72.922462
 40
0.000000
 50
0.000000
  1
# 259
  0
POLYLINE
  8
8
  66
1
  70
1
  0
VERTEX
  8
8
  10
9675.343628
  20
78.922462
  0
VERTEX
  8
8
  10
9676.847333
  20
89.127536
  0
VERTEX
  8
8
  10
9677.543335
  20
100.922145
  0
VERTEX
  8
8
  10
9677.543335
  20
100.922458
  0
VERTEX
  8
8
  10
9677.199631
  20
109.000591
  0
VERTEX
  8
8
  10
9675.343628
  20
122.922468
  0
VERTEX
  8
8
  10
9729.849813
  20
122.922468
  0
VERTEX
  8
8
  10
9750.344238
  20
122.922468
  0
VERTEX
  8
8
  10
9808.625510
  20
122.922468
  0
VERTEX
  8
8
  10
9848.583984
  20
122.922468
  0
VERTEX
  8
8
  10
9899.880750
  20
122.922468
  0
VERTEX
  8
8
  10
9902.184448
  20
122.922468
  0
VERTEX
  8
8
  10
9953.947900
  20
122.922468
  0
VERTEX
  8
8
  10
9957.583618
  20
122.922468
  0
VERTEX
  8
8
  10
10009.348622
  20
122.922468
  0
VERTEX
  8
8
  10
10012.984009
  20
122.922468
  0
VERTEX
  8
8
  10
10064.280038
  20
122.922468
  0
VERTEX
  8
8
  10
10066.583862
  20
122.922468
  0
VERTEX
  8
8
  10
10088.783569
  20
122.922468
  0
VERTEX
  8
8
  10
10086.927567
  20
109.000591
  0
VERTEX
  8
8
  10
10086.583862
  20
100.922458
  0
VERTEX
  8
8
  10
10087.146606
  20
90.405359
  0
VERTEX
  8
8
  10
10087.279864
  20
89.127536
  0
VERTEX
  8
8
  10
10088.783569
  20
78.922462
  0
VERTEX
  8
8
  10
10066.583862
  20
78.922462
  0
VERTEX
  8
8
  10
10066.583862
  20
78.922462
  0
VERTEX
  8
8
  10
10064.280038
  20
78.922462
  0
VERTEX
  8
8
  10
10012.984009
  20
78.922462
  0
VERTEX
  8
8
  10
10012.984009
  20
78.922462
  0
VERTEX
  8
8
  10
10009.348622
  20
78.922462
  0
VERTEX
  8
8
  10
9957.583618
  20
78.922462
  0
VERTEX
  8
8
  10
9957.583618
  20
78.922462
  0
VERTEX
  8
8
  10
9953.947900
  20
78.922462
  0
VERTEX
  8
8
  10
9902.184448
  20
78.922462
  0
VERTEX
  8
8
  10
9902.184448
  20
78.922462
  0
VERTEX
  8
8
  10
9899.880750
  20
78.922462
  0
VERTEX
  8
8
  10
9848.583984
  20
78.922462
  0
VERTEX
  8
8
  10
9848.583984
  20
78.922462
  0
VERTEX
  8
8
  10
9808.625510
  20
78.922462
  0
VERTEX
  8
8
  10
9750.344238
  20
78.922462
  0
VERTEX
  8
8
  10
9750.344238
  20
78.922462
  0
VERTEX
  8
8
  10
9729.849813
  20
78.922462
  0
VERTEX
  8
8
  10
9675.343628
  20
78.922462
  0
SEQEND
  8
8
  0
POINT
  8
2
 10
9675.343628
 20
78.922462
  0
TEXT
  8
2
 10
9675.343628
 20
78.922462
 40
0.000000
 50
0.000000
  1
# 260
  0
POINT
  8
2
 10
9675.343628
 20
122.922468
  0
TEXT
  8
2
 10
9675.343628
 20
122.922468
 40
0.000000
 50
0.000000
  1
# 261
  0
POINT
  8
2
 10
9750.344238
 20
122.922468
  0
TEXT
  8
2
 10
9750.344238
 20
122.922468
 40
0.000000
 50
0.000000
  1
# 262
  0
POINT
  8
2
 10
9848.583984
 20
122.922468
  0
TEXT
  8
2
 10
9848.583984
 20
122.922468
 40
0.000000
 50
0.000000
  1
# 263
  0
POINT
  8
2
 10
9902.184448
 20
122.922468
  0
TEXT
  8
2
 10
9902.184448
 20
122.922468
 40
0.000000
 50
0.000000
  1
# 264
  0
POINT
  8
2
 10
9957.583618
 20
122.922468
  0
TEXT
  8
2
 10
9957.583618
 20
122.922468
 40
0.000000
 50
0.000000
  1
# 265
  0
POINT
  8
2
 10
10012.984009
 20
122.922468
  0
TEXT
  8
2
 10
10012.984009
 20
122.922468
 40
0.000000
 50
0.000000
  1
# 266
  0
POINT
  8
2
 10
10066.583862
 20
122.922468
  0
TEXT
  8
2
 10
10066.583862
 20
122.922468
 40
0.000000
 50
0.000000
  1
# 267
  0
POINT
  8
2
 10
10088.783569
 20
122.922468
  0
TEXT
  8
2
 10
10088.783569
 20
122.922468
 40
0.000000
 50
0.000000
  1
# 268
  0
POINT
  8
2
 10
10088.783569
 20
78.922462
  0
TEXT
  8
2
 10
10088.783569
 20
78.922462
 40
0.000000
 50
0.000000
  1
# 269
  0
POINT
  8
2
 10
10066.583862
 20
78.922462
  0
TEXT
  8
2
 10
10066.583862
 20
78.922462
 40
0.000000
 50
0.000000
  1
# 270
  0
POINT
  8
2
 10
10012.984009
 20
78.922462
  0
TEXT
  8
2
 10
10012.984009
 20
78.922462
 40
0.000000
 50
0.000000
  1
# 271
  0
POINT
  8
2
 10
9957.583618
 20
78.922462
  0
TEXT
  8
2
 10
9957.583618
 20
78.922462
 40
0.000000
 50
0.000000
  1
# 272
  0
POINT
  8
2
 10
9902.184448
 20
78.922462
  0
TEXT
  8
2
 10
9902.184448
 20
78.922462
 40
0.000000
 50
0.000000
  1
# 273
  0
POINT
  8
2
 10
9848.583984
 20
78.922462
  0
TEXT
  8
2
 10
9848.583984
 20
78.922462
 40
0.000000
 50
0.000000
  1
# 274
  0
POINT
  8
2
 10
9750.344238
 20
78.922462
  0
TEXT
  8
2
 10
9750.344238
 20
78.922462
 40
0.000000
 50
0.000000
  1
# 275
  0
POINT
  8
2
 10
9675.343628
 20
78.922462
  0
TEXT
  8
2
 10
9675.343628
 20
78.922462
 40
0.000000
 50
0.000000
  1
# 276
  0
POINT
  8
3
 10
9676.847333
 20
89.127536
  0
POINT
  8
3
 10
9677.543335
 20
100.922145
  0
POINT
  8
3
 10
9677.543335
 20
100.922458
  0
POINT
  8
3
 10
9677.199631
 20
109.000591
  0
POINT
  8
3
 10
9729.849813
 20
122.922468
  0
POINT
  8
3
 10
9808.625510
 20
122.922468
  0
POINT
  8
3
 10
9899.880750
 20
122.922468
  0
POINT
  8
3
 10
9953.947900
 20
122.922468
  0
POINT
  8
3
 10
10009.348622
 20
122.922468
  0
POINT
  8
3
 10
10064.280038
 20
122.922468
  0
POINT
  8
3
 10
10086.927567
 20
109.000591
  0
POINT
  8
3
 10
10086.583862
 20
100.922458
  0
POINT
  8
3
 10
10087.146606
 20
90.405359
  0
POINT
  8
3
 10
10087.279864
 20
89.127536
  0
POINT
  8
3
 10
10066.583862
 20
78.922462
  0
POINT
  8
3
 10
10064.280038
 20
78.922462
  0
POINT
  8
3
 10
10012.984009
 20
78.922462
  0
POINT
  8
3
 10
10009.348622
 20
78.922462
  0
POINT
  8
3
 10
9957.583618
 20
78.922462
  0
POINT
  8
3
 10
9953.947900
 20
78.922462
  0
POINT
  8
3
 10
9902.184448
 20
78.922462
  0
POINT
  8
3
 10
9899.880750
 20
78.922462
  0
POINT
  8
3
 10
9848.583984
 20
78.922462
  0
POINT
  8
3
 10
9808.625510
 20
78.922462
  0
POINT
  8
3
 10
9750.344238
 20
78.922462
  0
POINT
  8
3
 10
9729.849813
 20
78.922462
  0
POINT
  8
3
 10
9677.543335
 20
100.922145
  0
TEXT
  8
3
 10
9677.543335
 20
100.922145
 40
0.000000
 50
0.000000
  1
# 277
  0
POINT
  8
4
 10
10087.146606
 20
90.405359
 30
0.600000
 50
185.68
  0
TEXT
  8
4
 10
10087.146606
 20
90.405359
 40
0.000000
 50
0.000000
  1
# 278
  0
POINT
  8
4
 10
10066.583862
 20
78.922462
 30
0.600000
 50
 90.00
  0
TEXT
  8
4
 10
10066.583862
 20
78.922462
 40
0.000000
 50
0.000000
  1
# 279
  0
POINT
  8
4
 10
10012.984009
 20
78.922462
 30
0.600000
 50
 90.00
  0
TEXT
  8
4
 10
10012.984009
 20
78.922462
 40
0.000000
 50
0.000000
  1
# 280
  0
POINT
  8
4
 10
9957.583618
 20
78.922462
 30
0.600000
 50
 90.00
  0
TEXT
  8
4
 10
9957.583618
 20
78.922462
 40
0.000000
 50
0.000000
  1
# 281
  0
POINT
  8
4
 10
9902.184448
 20
78.922462
 30
0.600000
 50
 90.00
  0
TEXT
  8
4
 10
9902.184448
 20
78.922462
 40
0.000000
 50
0.000000
  1
# 282
  0
POINT
  8
4
 10
9848.583984
 20
78.922462
 30
0.600000
 50
 90.00
  0
TEXT
  8
4
 10
9848.583984
 20
78.922462
 40
0.000000
 50
0.000000
  1
# 283
  0
POINT
  8
4
 10
9750.344238
 20
78.922462
 30
0.600000
 50
 90.00
  0
TEXT
  8
4
 10
9750.344238
 20
78.922462
 40
0.000000
 50
0.000000
  1
# 284
  0
POLYLINE
  8
11
  66
1
  70
0
  0
VERTEX
  8
1
  10
9677.802734
  20
100.922461
  0
VERTEX
  8
1
  10
10086.324463
  20
100.922461
  0
SEQEND
  8
11
  0
POINT
  8
2
 10
9677.802734
 20
100.922461
  0
TEXT
  8
2
 10
9677.802734
 20
100.922461
 40
0.000000
 50
0.000000
  1
# 285
  0
POINT
  8
2
 10
10086.324463
 20
100.922461
  0
TEXT
  8
2
 10
10086.324463
 20
100.922461
 40
0.000000
 50
0.000000
  1
# 286
  0
POLYLINE
  8
11
  66
1
  70
0
  0
VERTEX
  8
1
  10
9750.344238
  20
78.922462
  0
VERTEX
  8
1
  10
9750.344238
  20
100.922461
  0
SEQEND
  8
11
  0
POINT
  8
2
 10
9750.344238
 20
78.922462
  0
TEXT
  8
2
 10
9750.344238
 20
78.922462
 40
0.000000
 50
0.000000
  1
# 287
  0
POINT
  8
2
 10
9750.344238
 20
100.922461
  0
TEXT
  8
2
 10
9750.344238
 20
100.922461
 40
0.000000
 50
0.000000
  1
# 288
  0
POLYLINE
  8
11
  66
1
  70
0
  0
VERTEX
  8
1
  10
9848.583984
  20
78.922462
  0
VERTEX
  8
1
  10
9848.583984
  20
100.922461
  0
SEQEND
  8
11
  0
POINT
  8
2
 10
9848.583984
 20
78.922462
  0
TEXT
  8
2
 10
9848.583984
 20
78.922462
 40
0.000000
 50
0.000000
  1
# 289
  0
POINT
  8
2
 10
9848.583984
 20
100.922461
  0
TEXT
  8
2
 10
9848.583984
 20
100.922461
 40
0.000000
 50
0.000000
  1
# 290
  0
POLYLINE
  8
11
  66
1
  70
0
  0
VERTEX
  8
1
  10
9902.184448
  20
78.922462
  0
VERTEX
  8
1
  10
9902.184448
  20
100.922461
  0
SEQEND
  8
11
  0
POINT
  8
2
 10
9902.184448
 20
78.922462
  0
TEXT
  8
2
 10
9902.184448
 20
78.922462
 40
0.000000
 50
0.000000
  1
# 291
  0
POINT
  8
2
 10
9902.184448
 20
100.922461
  0
TEXT
  8
2
 10
9902.184448
 20
100.922461
 40
0.000000
 50
0.000000
  1
# 292
  0
POLYLINE
  8
11
  66
1
  70
0
  0
VERTEX
  8
1
  10
9957.583618
  20
78.922462
  0
VERTEX
  8
1
  10
9957.583618
  20
100.922461
  0
SEQEND
  8
11
  0
POINT
  8
2
 10
9957.583618
 20
78.922462
  0
TEXT
  8
2
 10
9957.583618
 20
78.922462
 40
0.000000
 50
0.000000
  1
# 293
  0
POINT
  8
2
 10
9957.583618
 20
100.922461
  0
TEXT
  8
2
 10
9957.583618
 20
100.922461
 40
0.000000
 50
0.000000
  1
# 294
  0
POLYLINE
  8
11
  66
1
  70
0
  0
VERTEX
  8
1
  10
10012.984009
  20
78.922462
  0
VERTEX
  8
1
  10
10012.984009
  20
100.922461
  0
SEQEND
  8
11
  0
POINT
  8
2
 10
10012.984009
 20
78.922462
  0
TEXT
  8
2
 10
10012.984009
 20
78.922462
 40
0.000000
 50
0.000000
  1
# 295
  0
POINT
  8
2
 10
10012.984009
 20
100.922461
  0
TEXT
  8
2
 10
10012.984009
 20
100.922461
 40
0.000000
 50
0.000000
  1
# 296
  0
POLYLINE
  8
11
  66
1
  70
0
  0
VERTEX
  8
1
  10
10066.583862
  20
78.922462
  0
VERTEX
  8
1
  10
10066.583862
  20
100.922461
  0
SEQEND
  8
11
  0
POINT
  8
2
 10
10066.583862
 20
78.922462
  0
TEXT
  8
2
 10
10066.583862
 20
78.922462
 40
0.000000
 50
0.000000
  1
# 297
  0
POINT
  8
2
 10
10066.583862
 20
100.922461
  0
TEXT
  8
2
 10
10066.583862
 20
100.922461
 40
0.000000
 50
0.000000
  1
# 298
  0
POLYLINE
  8
11
  66
1
  70
0
  0
VERTEX
  8
1
  10
9750.344238
  20
122.922468
  0
VERTEX
  8
1
  10
9750.344238
  20
100.922461
  0
SEQEND
  8
11
  0
POINT
  8
2
 10
9750.344238
 20
122.922468
  0
TEXT
  8
2
 10
9750.344238
 20
122.922468
 40
0.000000
 50
0.000000
  1
# 299
  0
POINT
  8
2
 10
9750.344238
 20
100.922461
  0
TEXT
  8
2
 10
9750.344238
 20
100.922461
 40
0.000000
 50
0.000000
  1
# 300
  0
POLYLINE
  8
11
  66
1
  70
0
  0
VERTEX
  8
1
  10
9848.583984
  20
122.922468
  0
VERTEX
  8
1
  10
9848.583984
  20
100.922461
  0
SEQEND
  8
11
  0
POINT
  8
2
 10
9848.583984
 20
122.922468
  0
TEXT
  8
2
 10
9848.583984
 20
122.922468
 40
0.000000
 50
0.000000
  1
# 301
  0
POINT
  8
2
 10
9848.583984
 20
100.922461
  0
TEXT
  8
2
 10
9848.583984
 20
100.922461
 40
0.000000
 50
0.000000
  1
# 302
  0
POLYLINE
  8
11
  66
1
  70
0
  0
VERTEX
  8
1
  10
9902.184448
  20
122.922468
  0
VERTEX
  8
1
  10
9902.184448
  20
100.922461
  0
SEQEND
  8
11
  0
POINT
  8
2
 10
9902.184448
 20
122.922468
  0
TEXT
  8
2
 10
9902.184448
 20
122.922468
 40
0.000000
 50
0.000000
  1
# 303
  0
POINT
  8
2
 10
9902.184448
 20
100.922461
  0
TEXT
  8
2
 10
9902.184448
 20
100.922461
 40
0.000000
 50
0.000000
  1
# 304
  0
POLYLINE
  8
11
  66
1
  70
0
  0
VERTEX
  8
1
  10
9957.583618
  20
122.922468
  0
VERTEX
  8
1
  10
9957.583618
  20
100.922461
  0
SEQEND
  8
11
  0
POINT
  8
2
 10
9957.583618
 20
122.922468
  0
TEXT
  8
2
 10
9957.583618
 20
122.922468
 40
0.000000
 50
0.000000
  1
# 305
  0
POINT
  8
2
 10
9957.583618
 20
100.922461
  0
TEXT
  8
2
 10
9957.583618
 20
100.922461
 40
0.000000
 50
0.000000
  1
# 306
  0
POLYLINE
  8
11
  66
1
  70
0
  0
VERTEX
  8
1
  10
10012.984009
  20
122.922468
  0
VERTEX
  8
1
  10
10012.984009
  20
100.922461
  0
SEQEND
  8
11
  0
POINT
  8
2
 10
10012.984009
 20
122.922468
  0
TEXT
  8
2
 10
10012.984009
 20
122.922468
 40
0.000000
 50
0.000000
  1
# 307
  0
POINT
  8
2
 10
10012.984009
 20
100.922461
  0
TEXT
  8
2
 10
10012.984009
 20
100.922461
 40
0.000000
 50
0.000000
  1
# 308
  0
POLYLINE
  8
11
  66
1
  70
0
  0
VERTEX
  8
1
  10
10066.583862
  20
122.922468
  0
VERTEX
  8
1
  10
10066.583862
  20
100.922461
  0
SEQEND
  8
11
  0
POINT
  8
2
 10
10066.583862
 20
122.922468
  0
TEXT
  8
2
 10
10066.583862
 20
122.922468
 40
0.000000
 50
0.000000
  1
# 309
  0
POINT
  8
2
 10
10066.583862
 20
100.922461
  0
TEXT
  8
2
 10
10066.583862
 20
100.922461
 40
0.000000
 50
0.000000
  1
# 310
 0
LINE
 8
7
 10
9892.200928
 20
118.753204
 11
9892.200928
 21
83.411674
  0
TEXT
  8
1
 10
9737.516479
 20
88.562956
 40
12.000002
 50
0.000000
  1
后中
  0
TEXT
  8
1
 10
9836.518555
 20
87.572317
 40
12.000002
 50
0.609507
  1
肩缝
  0
TEXT
  8
1
 10
9946.027832
 20
89.120569
 40
12.000002
 50
0.000000
  1
前中
  0
TEXT
  8
1
 10
9882.063599
 20
100.922468
 40
10.000000
 50
0.000000
  1
PIECE NAME: C2590428.领
  0
TEXT
  8
1
 10
9882.063599
 20
115.922468
 40
10.000000
 50
0.000000
  1
Size: M
  0
TEXT
  8
1
 10
9882.063599
 20
130.922468
 40
10.000000
 50
0.000000
  1
ANNOTATION: 罗纹 X1
  0
TEXT
  8
1
 10
9882.063599
 20
145.922468
 40
10.000000
 50
0.000000
  1
QUANTITY: 1
  0
TEXT
  8
1
 10
9882.063599
 20
160.922468
 40
10.000000
 50
0.000000
  1
FABRIC: 罗纹
  0
TEXT
  8
1
 10
9882.063599
 20
175.922468
 40
10.000000
 50
0.000000
  1
CATEGORY: 领
0
ENDBLK
  0
ENDSEC
  0
SECTION
  2
ENTITIES
  0
INSERT
  8
1
  2
C2590428.前身片_面料1_M
  10
0.000000
  20
0.000000
  0
INSERT
  8
1
  2
C2590428.后身片_面料1_M
  10
0.000000
  20
0.000000
  0
INSERT
  8
1
  2
C2590428.袖长_面料1_M
  10
0.000000
  20
0.000000
  0
INSERT
  8
1
  2
C2590428.通肩压条_面料1_M
  10
0.000000
  20
0.000000
  0
INSERT
  8
1
  2
C2590428.领_罗纹_M
  10
0.000000
  20
0.000000
  0
TEXT
  8
1
 10
10591.846008
 20
-888.450470
 40
10.000000
 50
0.000000
  1
STYLE NAME: C2590428
  0
TEXT
  8
1
 10
10591.846008
 20
-903.450470
 40
10.000000
 50
0.000000
  1
CREATION DATE: 2025/7/21/10/45
  0
TEXT
  8
1
 10
10591.846008
 20
-918.450470
 40
10.000000
 50
0.000000
  1
AUTHOR: BUYI-TECH
  0
TEXT
  8
1
 10
10591.846008
 20
-933.450470
 40
10.000000
 50
0.000000
  1
SAMPLE SIZE: M
  0
TEXT
  8
1
 10
10591.846008
 20
-948.450470
 40
10.000000
 50
0.000000
  1
GRADE RULE TABLE: C2590428
  0
TEXT
  8
1
 10
10591.846008
 20
-963.450470
 40
10.000000
 50
0.000000
  1
UNITS: METRIC
  0
ENDSEC
  0
EOF
