999
ANSI/AAMA
  0
SECTION
  2
BLOCKS
0
BLOCK
  8
1
  2
C2590045莓汁红.领_面料C_L
 70
0
 10
0.0
 20
0.0
  0
POLYLINE
  8
1
  66
1
  70
1
  0
VERTEX
  8
1
  10
4877.228032
  20
-1044.501190
  0
VERTEX
  8
1
  10
4801.327768
  20
-1044.498444
  0
VERTEX
  8
1
  10
4801.327768
  20
-1044.498444
  0
VERTEX
  8
1
  10
4725.427819
  20
-1044.495773
  0
VERTEX
  8
1
  10
4725.427819
  20
-1044.495773
  0
VERTEX
  8
1
  10
4640.928010
  20
-1044.492874
  0
VERTEX
  8
1
  10
4640.928010
  20
-1044.492874
  0
VERTEX
  8
1
  10
4579.428077
  20
-1044.490814
  0
VERTEX
  8
1
  10
4579.428077
  20
-1044.490814
  0
VERTEX
  8
1
  10
4508.928241
  20
-1044.488540
  0
VERTEX
  8
1
  10
4508.929303
  20
-997.488625
  0
VERTEX
  8
1
  10
4970.730380
  20
-997.504661
  0
VERTEX
  8
1
  10
4970.729816
  20
-1014.158096
  0
VERTEX
  8
1
  10
4970.728787
  20
-1044.504567
  0
VERTEX
  8
1
  10
4877.228032
  20
-1044.501190
  0
VERTEX
  8
1
  10
4877.228032
  20
-1044.501190
  0
SEQEND
  8
1
  0
POINT
  8
2
 10
4877.228032
 20
-1044.501190
  0
TEXT
  8
2
 10
4877.228032
 20
-1044.501190
 40
0.000000
 50
0.000000
  1
# 1
  0
POINT
  8
2
 10
4801.327768
 20
-1044.498444
  0
TEXT
  8
2
 10
4801.327768
 20
-1044.498444
 40
0.000000
 50
0.000000
  1
# 2
  0
POINT
  8
2
 10
4725.427819
 20
-1044.495773
  0
TEXT
  8
2
 10
4725.427819
 20
-1044.495773
 40
0.000000
 50
0.000000
  1
# 3
  0
POINT
  8
2
 10
4640.928010
 20
-1044.492874
  0
TEXT
  8
2
 10
4640.928010
 20
-1044.492874
 40
0.000000
 50
0.000000
  1
# 4
  0
POINT
  8
2
 10
4579.428077
 20
-1044.490814
  0
TEXT
  8
2
 10
4579.428077
 20
-1044.490814
 40
0.000000
 50
0.000000
  1
# 5
  0
POINT
  8
2
 10
4508.928241
 20
-1044.488540
  0
TEXT
  8
2
 10
4508.928241
 20
-1044.488540
 40
0.000000
 50
0.000000
  1
# 6
  0
POINT
  8
2
 10
4508.929303
 20
-997.488625
  0
TEXT
  8
2
 10
4508.929303
 20
-997.488625
 40
0.000000
 50
0.000000
  1
# 7
  0
POINT
  8
2
 10
4970.730380
 20
-997.504661
  0
TEXT
  8
2
 10
4970.730380
 20
-997.504661
 40
0.000000
 50
0.000000
  1
# 8
  0
POINT
  8
2
 10
4970.728787
 20
-1044.504567
  0
TEXT
  8
2
 10
4970.728787
 20
-1044.504567
 40
0.000000
 50
0.000000
  1
# 9
  0
POINT
  8
2
 10
4877.228032
 20
-1044.501190
  0
TEXT
  8
2
 10
4877.228032
 20
-1044.501190
 40
0.000000
 50
0.000000
  1
# 10
  0
POINT
  8
3
 10
4801.327768
 20
-1044.498444
  0
POINT
  8
3
 10
4725.427819
 20
-1044.495773
  0
POINT
  8
3
 10
4640.928010
 20
-1044.492874
  0
POINT
  8
3
 10
4579.428077
 20
-1044.490814
  0
POINT
  8
3
 10
4970.729816
 20
-1014.158096
  0
POINT
  8
3
 10
4877.228032
 20
-1044.501190
  0
POINT
  8
4
 10
4801.327768
 20
-1044.498444
 30
0.600000
 50
 90.00
  0
TEXT
  8
4
 10
4801.327768
 20
-1044.498444
 40
0.000000
 50
0.000000
  1
# 11
  0
POINT
  8
4
 10
4725.427819
 20
-1044.495773
 30
0.600000
 50
 90.00
  0
TEXT
  8
4
 10
4725.427819
 20
-1044.495773
 40
0.000000
 50
0.000000
  1
# 12
  0
POINT
  8
4
 10
4640.928010
 20
-1044.492874
 30
0.600000
 50
 90.00
  0
TEXT
  8
4
 10
4640.928010
 20
-1044.492874
 40
0.000000
 50
0.000000
  1
# 13
  0
POINT
  8
4
 10
4579.428077
 20
-1044.490814
 30
0.600000
 50
 90.00
  0
TEXT
  8
4
 10
4579.428077
 20
-1044.490814
 40
0.000000
 50
0.000000
  1
# 14
  0
POINT
  8
4
 10
4970.729816
 20
-1014.158096
 30
0.600000
 50
180.00
  0
TEXT
  8
4
 10
4970.729816
 20
-1014.158096
 40
0.000000
 50
0.000000
  1
# 15
  0
POINT
  8
4
 10
4877.228032
 20
-1044.501190
 30
0.600000
 50
 90.00
  0
TEXT
  8
4
 10
4877.228032
 20
-1044.501190
 40
0.000000
 50
0.000000
  1
# 16
  0
POLYLINE
  8
8
  66
1
  70
1
  0
VERTEX
  8
8
  10
4877.228394
  20
-1034.501190
  0
VERTEX
  8
8
  10
4801.328125
  20
-1034.498444
  0
VERTEX
  8
8
  10
4801.328125
  20
-1034.498444
  0
VERTEX
  8
8
  10
4725.428162
  20
-1034.495773
  0
VERTEX
  8
8
  10
4725.428162
  20
-1034.495773
  0
VERTEX
  8
8
  10
4640.928345
  20
-1034.492874
  0
VERTEX
  8
8
  10
4640.928345
  20
-1034.492874
  0
VERTEX
  8
8
  10
4579.428406
  20
-1034.490814
  0
VERTEX
  8
8
  10
4579.428406
  20
-1034.490814
  0
VERTEX
  8
8
  10
4517.928467
  20
-1034.488831
  0
VERTEX
  8
8
  10
4517.929077
  20
-1007.488937
  0
VERTEX
  8
8
  10
4961.730042
  20
-1007.504349
  0
VERTEX
  8
8
  10
4961.729736
  20
-1014.157791
  0
VERTEX
  8
8
  10
4961.729126
  20
-1034.504242
  0
VERTEX
  8
8
  10
4877.228394
  20
-1034.501190
  0
VERTEX
  8
8
  10
4877.228394
  20
-1034.501190
  0
SEQEND
  8
8
  0
POINT
  8
2
 10
4877.228394
 20
-1034.501190
  0
TEXT
  8
2
 10
4877.228394
 20
-1034.501190
 40
0.000000
 50
0.000000
  1
# 17
  0
POINT
  8
2
 10
4801.328125
 20
-1034.498444
  0
TEXT
  8
2
 10
4801.328125
 20
-1034.498444
 40
0.000000
 50
0.000000
  1
# 18
  0
POINT
  8
2
 10
4725.428162
 20
-1034.495773
  0
TEXT
  8
2
 10
4725.428162
 20
-1034.495773
 40
0.000000
 50
0.000000
  1
# 19
  0
POINT
  8
2
 10
4640.928345
 20
-1034.492874
  0
TEXT
  8
2
 10
4640.928345
 20
-1034.492874
 40
0.000000
 50
0.000000
  1
# 20
  0
POINT
  8
2
 10
4579.428406
 20
-1034.490814
  0
TEXT
  8
2
 10
4579.428406
 20
-1034.490814
 40
0.000000
 50
0.000000
  1
# 21
  0
POINT
  8
2
 10
4517.928467
 20
-1034.488831
  0
TEXT
  8
2
 10
4517.928467
 20
-1034.488831
 40
0.000000
 50
0.000000
  1
# 22
  0
POINT
  8
2
 10
4517.929077
 20
-1007.488937
  0
TEXT
  8
2
 10
4517.929077
 20
-1007.488937
 40
0.000000
 50
0.000000
  1
# 23
  0
POINT
  8
2
 10
4961.730042
 20
-1007.504349
  0
TEXT
  8
2
 10
4961.730042
 20
-1007.504349
 40
0.000000
 50
0.000000
  1
# 24
  0
POINT
  8
2
 10
4961.729126
 20
-1034.504242
  0
TEXT
  8
2
 10
4961.729126
 20
-1034.504242
 40
0.000000
 50
0.000000
  1
# 25
  0
POINT
  8
2
 10
4877.228394
 20
-1034.501190
  0
TEXT
  8
2
 10
4877.228394
 20
-1034.501190
 40
0.000000
 50
0.000000
  1
# 26
  0
POINT
  8
3
 10
4801.328125
 20
-1034.498444
  0
POINT
  8
3
 10
4725.428162
 20
-1034.495773
  0
POINT
  8
3
 10
4640.928345
 20
-1034.492874
  0
POINT
  8
3
 10
4579.428406
 20
-1034.490814
  0
POINT
  8
3
 10
4961.729736
 20
-1014.157791
  0
POINT
  8
3
 10
4877.228394
 20
-1034.501190
  0
POINT
  8
4
 10
4801.328125
 20
-1034.498444
 30
0.600000
 50
 90.00
  0
TEXT
  8
4
 10
4801.328125
 20
-1034.498444
 40
0.000000
 50
0.000000
  1
# 27
  0
POINT
  8
4
 10
4725.428162
 20
-1034.495773
 30
0.600000
 50
 90.00
  0
TEXT
  8
4
 10
4725.428162
 20
-1034.495773
 40
0.000000
 50
0.000000
  1
# 28
  0
POINT
  8
4
 10
4640.928345
 20
-1034.492874
 30
0.600000
 50
 90.00
  0
TEXT
  8
4
 10
4640.928345
 20
-1034.492874
 40
0.000000
 50
0.000000
  1
# 29
  0
POINT
  8
4
 10
4579.428406
 20
-1034.490814
 30
0.600000
 50
 90.00
  0
TEXT
  8
4
 10
4579.428406
 20
-1034.490814
 40
0.000000
 50
0.000000
  1
# 30
  0
POINT
  8
4
 10
4961.729736
 20
-1014.157791
 30
0.600000
 50
180.00
  0
TEXT
  8
4
 10
4961.729736
 20
-1014.157791
 40
0.000000
 50
0.000000
  1
# 31
  0
POINT
  8
4
 10
4877.228394
 20
-1034.501190
 30
0.600000
 50
 90.00
  0
TEXT
  8
4
 10
4877.228394
 20
-1034.501190
 40
0.000000
 50
0.000000
  1
# 32
  0
POLYLINE
  8
11
  66
1
  70
0
  0
VERTEX
  8
1
  10
4517.928772
  20
-1020.988922
  0
VERTEX
  8
1
  10
4961.729736
  20
-1021.004333
  0
SEQEND
  8
11
  0
POINT
  8
2
 10
4517.928772
 20
-1020.988922
  0
TEXT
  8
2
 10
4517.928772
 20
-1020.988922
 40
0.000000
 50
0.000000
  1
# 33
  0
POINT
  8
2
 10
4961.729736
 20
-1021.004333
  0
TEXT
  8
2
 10
4961.729736
 20
-1021.004333
 40
0.000000
 50
0.000000
  1
# 34
  0
POLYLINE
  8
11
  66
1
  70
0
  0
VERTEX
  8
1
  10
4579.428406
  20
-1034.490967
  0
VERTEX
  8
1
  10
4579.429321
  20
-1007.491074
  0
SEQEND
  8
11
  0
POINT
  8
2
 10
4579.428406
 20
-1034.490967
  0
TEXT
  8
2
 10
4579.428406
 20
-1034.490967
 40
0.000000
 50
0.000000
  1
# 35
  0
POINT
  8
2
 10
4579.429321
 20
-1007.491074
  0
TEXT
  8
2
 10
4579.429321
 20
-1007.491074
 40
0.000000
 50
0.000000
  1
# 36
  0
POLYLINE
  8
11
  66
1
  70
0
  0
VERTEX
  8
1
  10
4640.928345
  20
-1034.493027
  0
VERTEX
  8
1
  10
4640.929260
  20
-1007.493134
  0
SEQEND
  8
11
  0
POINT
  8
2
 10
4640.928345
 20
-1034.493027
  0
TEXT
  8
2
 10
4640.928345
 20
-1034.493027
 40
0.000000
 50
0.000000
  1
# 37
  0
POINT
  8
2
 10
4640.929260
 20
-1007.493134
  0
TEXT
  8
2
 10
4640.929260
 20
-1007.493134
 40
0.000000
 50
0.000000
  1
# 38
  0
POLYLINE
  8
11
  66
1
  70
0
  0
VERTEX
  8
1
  10
4725.428162
  20
-1034.496078
  0
VERTEX
  8
1
  10
4725.429077
  20
-1007.496185
  0
SEQEND
  8
11
  0
POINT
  8
2
 10
4725.428162
 20
-1034.496078
  0
TEXT
  8
2
 10
4725.428162
 20
-1034.496078
 40
0.000000
 50
0.000000
  1
# 39
  0
POINT
  8
2
 10
4725.429077
 20
-1007.496185
  0
TEXT
  8
2
 10
4725.429077
 20
-1007.496185
 40
0.000000
 50
0.000000
  1
# 40
  0
POLYLINE
  8
11
  66
1
  70
0
  0
VERTEX
  8
1
  10
4801.328125
  20
-1034.498901
  0
VERTEX
  8
1
  10
4801.329041
  20
-1007.499008
  0
SEQEND
  8
11
  0
POINT
  8
2
 10
4801.328125
 20
-1034.498901
  0
TEXT
  8
2
 10
4801.328125
 20
-1034.498901
 40
0.000000
 50
0.000000
  1
# 41
  0
POINT
  8
2
 10
4801.329041
 20
-1007.499008
  0
TEXT
  8
2
 10
4801.329041
 20
-1007.499008
 40
0.000000
 50
0.000000
  1
# 42
  0
POLYLINE
  8
11
  66
1
  70
0
  0
VERTEX
  8
1
  10
4877.228394
  20
-1034.501724
  0
VERTEX
  8
1
  10
4877.229309
  20
-1007.501831
  0
SEQEND
  8
11
  0
POINT
  8
2
 10
4877.228394
 20
-1034.501724
  0
TEXT
  8
2
 10
4877.228394
 20
-1034.501724
 40
0.000000
 50
0.000000
  1
# 43
  0
POINT
  8
2
 10
4877.229309
 20
-1007.501831
  0
TEXT
  8
2
 10
4877.229309
 20
-1007.501831
 40
0.000000
 50
0.000000
  1
# 44
 0
LINE
 8
7
 10
4735.957031
 20
-1014.547272
 11
4735.957031
 21
-1027.154465
  0
TEXT
  8
1
 10
4571.606750
 20
-1019.003067
 40
15.000000
 50
0.855097
  1
后中
  0
TEXT
  8
1
 10
4796.088562
 20
-1019.695892
 40
15.000000
 50
2.337306
  1
前中
  0
TEXT
  8
1
 10
4739.829254
 20
-1020.996590
 40
10.000000
 50
0.000000
  1
PIECE NAME: C2590045莓汁红.领
  0
TEXT
  8
1
 10
4739.829254
 20
-1005.996590
 40
10.000000
 50
0.000000
  1
Size: L
  0
TEXT
  8
1
 10
4739.829254
 20
-990.996590
 40
10.000000
 50
0.000000
  1
ANNOTATION: 面料C X1
  0
TEXT
  8
1
 10
4739.829254
 20
-975.996590
 40
10.000000
 50
0.000000
  1
QUANTITY: 1
  0
TEXT
  8
1
 10
4739.829254
 20
-960.996590
 40
10.000000
 50
0.000000
  1
FABRIC: 面料C
  0
TEXT
  8
1
 10
4739.829254
 20
-945.996590
 40
10.000000
 50
0.000000
  1
CATEGORY: 领
0
ENDBLK
0
BLOCK
  8
1
  2
C2590045莓汁红.后片_面料A_L
 70
0
 10
0.0
 20
0.0
  0
POLYLINE
  8
1
  66
1
  70
1
  0
VERTEX
  8
1
  10
4316.882019
  20
-1382.691306
  0
VERTEX
  8
1
  10
4334.524772
  20
-1382.291597
  0
VERTEX
  8
1
  10
4347.390144
  20
-1381.584075
  0
VERTEX
  8
1
  10
4355.314138
  20
-1380.777486
  0
VERTEX
  8
1
  10
4362.093958
  20
-1379.661453
  0
VERTEX
  8
1
  10
4368.008604
  20
-1378.219741
  0
VERTEX
  8
1
  10
4374.165537
  20
-1376.224883
  0
VERTEX
  8
1
  10
4379.048131
  20
-1374.314743
  0
VERTEX
  8
1
  10
4382.376371
  20
-1370.263672
  0
VERTEX
  8
1
  10
4383.795310
  20
-1368.310083
  0
VERTEX
  8
1
  10
4403.145288
  20
-1389.038334
  0
VERTEX
  8
1
  10
4414.875034
  20
-1402.199853
  0
VERTEX
  8
1
  10
4423.255594
  20
-1412.177821
  0
VERTEX
  8
1
  10
4425.475190
  20
-1414.820492
  0
VERTEX
  8
1
  10
4434.082854
  20
-1425.800474
  0
VERTEX
  8
1
  10
4442.039845
  20
-1436.663503
  0
VERTEX
  8
1
  10
4449.645100
  20
-1447.784845
  0
VERTEX
  8
1
  10
4456.883670
  20
-1459.152382
  0
VERTEX
  8
1
  10
4463.081202
  20
-1469.598924
  0
VERTEX
  8
1
  10
4470.367984
  20
-1482.844956
  0
VERTEX
  8
1
  10
4475.597173
  20
-1493.065557
  0
VERTEX
  8
1
  10
4477.975022
  20
-1497.713130
  0
VERTEX
  8
1
  10
4488.020483
  20
-1518.503397
  0
VERTEX
  8
1
  10
4502.219048
  20
-1548.042043
  0
VERTEX
  8
1
  10
4509.630876
  20
-1562.506742
  0
VERTEX
  8
1
  10
4516.682165
  20
-1575.267655
  0
VERTEX
  8
1
  10
4522.732429
  20
-1585.344081
  0
VERTEX
  8
1
  10
4527.993997
  20
-1593.282267
  0
VERTEX
  8
1
  10
4532.637538
  20
-1599.517466
  0
VERTEX
  8
1
  10
4537.572136
  20
-1605.317469
  0
VERTEX
  8
1
  10
4541.764071
  20
-1609.593186
  0
VERTEX
  8
1
  10
4546.054897
  20
-1613.454408
  0
VERTEX
  8
1
  10
4549.568372
  20
-1616.721914
  0
VERTEX
  8
1
  10
4549.101215
  20
-1622.223766
  0
VERTEX
  8
1
  10
4548.331689
  20
-1630.314647
  0
VERTEX
  8
1
  10
4547.664817
  20
-1642.068671
  0
VERTEX
  8
1
  10
4547.442370
  20
-1653.267671
  0
VERTEX
  8
1
  10
4547.672663
  20
-1666.048607
  0
VERTEX
  8
1
  10
4548.347950
  20
-1677.606690
  0
VERTEX
  8
1
  10
4549.578132
  20
-1689.730411
  0
VERTEX
  8
1
  10
4551.032679
  20
-1699.672462
  0
VERTEX
  8
1
  10
4551.556902
  20
-1702.395735
  0
VERTEX
  8
1
  10
4552.961900
  20
-1709.694519
  0
VERTEX
  8
1
  10
4555.482769
  20
-1719.913526
  0
VERTEX
  8
1
  10
4558.521890
  20
-1729.763165
  0
VERTEX
  8
1
  10
4562.134383
  20
-1739.459594
  0
VERTEX
  8
1
  10
4565.930206
  20
-1748.105024
  0
VERTEX
  8
1
  10
4566.301938
  20
-1748.951688
  0
VERTEX
  8
1
  10
4570.561593
  20
-1757.371591
  0
VERTEX
  8
1
  10
4575.741135
  20
-1766.376817
  0
VERTEX
  8
1
  10
4581.409483
  20
-1775.117471
  0
VERTEX
  8
1
  10
4587.529301
  20
-1783.584671
  0
VERTEX
  8
1
  10
4594.062539
  20
-1791.769171
  0
VERTEX
  8
1
  10
4600.970484
  20
-1799.661541
  0
VERTEX
  8
1
  10
4608.213836
  20
-1807.252309
  0
VERTEX
  8
1
  10
4617.040221
  20
-1815.732945
  0
VERTEX
  8
1
  10
4626.478669
  20
-1824.117632
  0
VERTEX
  8
1
  10
4638.448615
  20
-1834.008881
  0
VERTEX
  8
1
  10
4649.086214
  20
-1842.162428
  0
VERTEX
  8
1
  10
4654.898134
  20
-1846.679249
  0
VERTEX
  8
1
  10
4654.299931
  20
-1887.360669
  0
VERTEX
  8
1
  10
4654.301882
  20
-1923.800223
  0
VERTEX
  8
1
  10
4654.715559
  20
-1973.138968
  0
VERTEX
  8
1
  10
4655.183659
  20
-2003.353167
  0
VERTEX
  8
1
  10
4655.499882
  20
-2023.764216
  0
VERTEX
  8
1
  10
4656.612644
  20
-2074.403618
  0
VERTEX
  8
1
  10
4656.868386
  20
-2084.424177
  0
VERTEX
  8
1
  10
4656.261943
  20
-2094.429637
  0
VERTEX
  8
1
  10
4655.692720
  20
-2104.406655
  0
VERTEX
  8
1
  10
4533.991723
  20
-2102.275395
  0
VERTEX
  8
1
  10
4316.881485
  20
-2102.281189
  0
VERTEX
  8
1
  10
4099.772315
  20
-2102.275395
  0
VERTEX
  8
1
  10
3978.071318
  20
-2104.406655
  0
VERTEX
  8
1
  10
3977.502095
  20
-2094.429637
  0
VERTEX
  8
1
  10
3976.895652
  20
-2084.424177
  0
VERTEX
  8
1
  10
3977.151394
  20
-2074.403618
  0
VERTEX
  8
1
  10
3978.264156
  20
-2023.764216
  0
VERTEX
  8
1
  10
3978.580379
  20
-2003.353167
  0
VERTEX
  8
1
  10
3979.048479
  20
-1973.138968
  0
VERTEX
  8
1
  10
3979.462156
  20
-1923.800223
  0
VERTEX
  8
1
  10
3979.464107
  20
-1887.360669
  0
VERTEX
  8
1
  10
3978.865904
  20
-1846.679249
  0
VERTEX
  8
1
  10
3984.677824
  20
-1842.162428
  0
VERTEX
  8
1
  10
3995.315423
  20
-1834.008881
  0
VERTEX
  8
1
  10
4007.285369
  20
-1824.117632
  0
VERTEX
  8
1
  10
4016.723817
  20
-1815.732945
  0
VERTEX
  8
1
  10
4025.550202
  20
-1807.252309
  0
VERTEX
  8
1
  10
4032.793554
  20
-1799.661541
  0
VERTEX
  8
1
  10
4039.701499
  20
-1791.769171
  0
VERTEX
  8
1
  10
4046.234737
  20
-1783.584671
  0
VERTEX
  8
1
  10
4052.354555
  20
-1775.117471
  0
VERTEX
  8
1
  10
4058.022903
  20
-1766.376817
  0
VERTEX
  8
1
  10
4063.202445
  20
-1757.371591
  0
VERTEX
  8
1
  10
4067.462100
  20
-1748.951688
  0
VERTEX
  8
1
  10
4071.629655
  20
-1739.459594
  0
VERTEX
  8
1
  10
4075.242148
  20
-1729.763165
  0
VERTEX
  8
1
  10
4078.281269
  20
-1719.913526
  0
VERTEX
  8
1
  10
4080.802138
  20
-1709.694519
  0
VERTEX
  8
1
  10
4082.207136
  20
-1702.395735
  0
VERTEX
  8
1
  10
4082.731359
  20
-1699.672462
  0
VERTEX
  8
1
  10
4084.185906
  20
-1689.730411
  0
VERTEX
  8
1
  10
4085.416088
  20
-1677.606690
  0
VERTEX
  8
1
  10
4086.091375
  20
-1666.048607
  0
VERTEX
  8
1
  10
4086.321668
  20
-1653.267671
  0
VERTEX
  8
1
  10
4086.099221
  20
-1642.068671
  0
VERTEX
  8
1
  10
4085.432349
  20
-1630.314647
  0
VERTEX
  8
1
  10
4084.662823
  20
-1622.223766
  0
VERTEX
  8
1
  10
4084.195666
  20
-1616.721914
  0
VERTEX
  8
1
  10
4087.709141
  20
-1613.454408
  0
VERTEX
  8
1
  10
4091.999967
  20
-1609.593186
  0
VERTEX
  8
1
  10
4096.191902
  20
-1605.317469
  0
VERTEX
  8
1
  10
4101.126500
  20
-1599.517466
  0
VERTEX
  8
1
  10
4105.770041
  20
-1593.282267
  0
VERTEX
  8
1
  10
4111.031610
  20
-1585.344081
  0
VERTEX
  8
1
  10
4117.081873
  20
-1575.267655
  0
VERTEX
  8
1
  10
4124.133162
  20
-1562.506742
  0
VERTEX
  8
1
  10
4131.544990
  20
-1548.042043
  0
VERTEX
  8
1
  10
4145.743555
  20
-1518.503397
  0
VERTEX
  8
1
  10
4155.789016
  20
-1497.713130
  0
VERTEX
  8
1
  10
4158.166865
  20
-1493.065557
  0
VERTEX
  8
1
  10
4163.396055
  20
-1482.844956
  0
VERTEX
  8
1
  10
4170.682836
  20
-1469.598924
  0
VERTEX
  8
1
  10
4176.880368
  20
-1459.152382
  0
VERTEX
  8
1
  10
4184.118938
  20
-1447.784845
  0
VERTEX
  8
1
  10
4191.724193
  20
-1436.663503
  0
VERTEX
  8
1
  10
4199.681184
  20
-1425.800474
  0
VERTEX
  8
1
  10
4208.288848
  20
-1414.820492
  0
VERTEX
  8
1
  10
4218.889004
  20
-1402.199853
  0
VERTEX
  8
1
  10
4230.618750
  20
-1389.038334
  0
VERTEX
  8
1
  10
4249.968728
  20
-1368.310083
  0
VERTEX
  8
1
  10
4251.387667
  20
-1370.263672
  0
VERTEX
  8
1
  10
4254.715907
  20
-1374.314743
  0
VERTEX
  8
1
  10
4259.598501
  20
-1376.224883
  0
VERTEX
  8
1
  10
4265.755434
  20
-1378.219741
  0
VERTEX
  8
1
  10
4271.670080
  20
-1379.661453
  0
VERTEX
  8
1
  10
4278.449900
  20
-1380.777486
  0
VERTEX
  8
1
  10
4286.373895
  20
-1381.584075
  0
VERTEX
  8
1
  10
4299.239266
  20
-1382.291597
  0
VERTEX
  8
1
  10
4316.882019
  20
-1382.691306
  0
VERTEX
  8
1
  10
4316.882019
  20
-1382.691306
  0
SEQEND
  8
1
  0
POINT
  8
2
 10
4316.882019
 20
-1382.691306
  0
TEXT
  8
2
 10
4316.882019
 20
-1382.691306
 40
0.000000
 50
0.000000
  1
# 45
  0
POINT
  8
2
 10
4379.048131
 20
-1374.314743
  0
TEXT
  8
2
 10
4379.048131
 20
-1374.314743
 40
0.000000
 50
0.000000
  1
# 46
  0
POINT
  8
2
 10
4383.795310
 20
-1368.310083
  0
TEXT
  8
2
 10
4383.795310
 20
-1368.310083
 40
0.000000
 50
0.000000
  1
# 47
  0
POINT
  8
2
 10
4549.568372
 20
-1616.721914
  0
TEXT
  8
2
 10
4549.568372
 20
-1616.721914
 40
0.000000
 50
0.000000
  1
# 48
  0
POINT
  8
2
 10
4654.898134
 20
-1846.679249
  0
TEXT
  8
2
 10
4654.898134
 20
-1846.679249
 40
0.000000
 50
0.000000
  1
# 49
  0
POINT
  8
2
 10
4656.868386
 20
-2084.424177
  0
TEXT
  8
2
 10
4656.868386
 20
-2084.424177
 40
0.000000
 50
0.000000
  1
# 50
  0
POINT
  8
2
 10
4655.692720
 20
-2104.406655
  0
TEXT
  8
2
 10
4655.692720
 20
-2104.406655
 40
0.000000
 50
0.000000
  1
# 51
  0
POINT
  8
2
 10
4533.991723
 20
-2102.275395
  0
TEXT
  8
2
 10
4533.991723
 20
-2102.275395
 40
0.000000
 50
0.000000
  1
# 52
  0
POINT
  8
2
 10
4316.881485
 20
-2102.281189
  0
TEXT
  8
2
 10
4316.881485
 20
-2102.281189
 40
0.000000
 50
0.000000
  1
# 53
  0
POINT
  8
2
 10
4099.772315
 20
-2102.275395
  0
TEXT
  8
2
 10
4099.772315
 20
-2102.275395
 40
0.000000
 50
0.000000
  1
# 54
  0
POINT
  8
2
 10
3978.071318
 20
-2104.406655
  0
TEXT
  8
2
 10
3978.071318
 20
-2104.406655
 40
0.000000
 50
0.000000
  1
# 55
  0
POINT
  8
2
 10
3976.895652
 20
-2084.424177
  0
TEXT
  8
2
 10
3976.895652
 20
-2084.424177
 40
0.000000
 50
0.000000
  1
# 56
  0
POINT
  8
2
 10
3978.865904
 20
-1846.679249
  0
TEXT
  8
2
 10
3978.865904
 20
-1846.679249
 40
0.000000
 50
0.000000
  1
# 57
  0
POINT
  8
2
 10
4084.195666
 20
-1616.721914
  0
TEXT
  8
2
 10
4084.195666
 20
-1616.721914
 40
0.000000
 50
0.000000
  1
# 58
  0
POINT
  8
2
 10
4249.968728
 20
-1368.310083
  0
TEXT
  8
2
 10
4249.968728
 20
-1368.310083
 40
0.000000
 50
0.000000
  1
# 59
  0
POINT
  8
2
 10
4254.715907
 20
-1374.314743
  0
TEXT
  8
2
 10
4254.715907
 20
-1374.314743
 40
0.000000
 50
0.000000
  1
# 60
  0
POINT
  8
2
 10
4316.882019
 20
-1382.691306
  0
TEXT
  8
2
 10
4316.882019
 20
-1382.691306
 40
0.000000
 50
0.000000
  1
# 61
  0
POINT
  8
3
 10
4334.524772
 20
-1382.291597
  0
POINT
  8
3
 10
4347.390144
 20
-1381.584075
  0
POINT
  8
3
 10
4355.314138
 20
-1380.777486
  0
POINT
  8
3
 10
4362.093958
 20
-1379.661453
  0
POINT
  8
3
 10
4368.008604
 20
-1378.219741
  0
POINT
  8
3
 10
4374.165537
 20
-1376.224883
  0
POINT
  8
3
 10
4382.376371
 20
-1370.263672
  0
POINT
  8
3
 10
4403.145288
 20
-1389.038334
  0
POINT
  8
3
 10
4414.875034
 20
-1402.199853
  0
POINT
  8
3
 10
4423.255594
 20
-1412.177821
  0
POINT
  8
3
 10
4425.475190
 20
-1414.820492
  0
POINT
  8
3
 10
4434.082854
 20
-1425.800474
  0
POINT
  8
3
 10
4442.039845
 20
-1436.663503
  0
POINT
  8
3
 10
4449.645100
 20
-1447.784845
  0
POINT
  8
3
 10
4456.883670
 20
-1459.152382
  0
POINT
  8
3
 10
4463.081202
 20
-1469.598924
  0
POINT
  8
3
 10
4470.367984
 20
-1482.844956
  0
POINT
  8
3
 10
4475.597173
 20
-1493.065557
  0
POINT
  8
3
 10
4477.975022
 20
-1497.713130
  0
POINT
  8
3
 10
4488.020483
 20
-1518.503397
  0
POINT
  8
3
 10
4502.219048
 20
-1548.042043
  0
POINT
  8
3
 10
4509.630876
 20
-1562.506742
  0
POINT
  8
3
 10
4516.682165
 20
-1575.267655
  0
POINT
  8
3
 10
4522.732429
 20
-1585.344081
  0
POINT
  8
3
 10
4527.993997
 20
-1593.282267
  0
POINT
  8
3
 10
4532.637538
 20
-1599.517466
  0
POINT
  8
3
 10
4537.572136
 20
-1605.317469
  0
POINT
  8
3
 10
4541.764071
 20
-1609.593186
  0
POINT
  8
3
 10
4546.054897
 20
-1613.454408
  0
POINT
  8
3
 10
4549.101215
 20
-1622.223766
  0
POINT
  8
3
 10
4548.331689
 20
-1630.314647
  0
POINT
  8
3
 10
4547.664817
 20
-1642.068671
  0
POINT
  8
3
 10
4547.442370
 20
-1653.267671
  0
POINT
  8
3
 10
4547.672663
 20
-1666.048607
  0
POINT
  8
3
 10
4548.347950
 20
-1677.606690
  0
POINT
  8
3
 10
4549.578132
 20
-1689.730411
  0
POINT
  8
3
 10
4551.032679
 20
-1699.672462
  0
POINT
  8
3
 10
4551.556902
 20
-1702.395735
  0
POINT
  8
3
 10
4552.961900
 20
-1709.694519
  0
POINT
  8
3
 10
4555.482769
 20
-1719.913526
  0
POINT
  8
3
 10
4558.521890
 20
-1729.763165
  0
POINT
  8
3
 10
4562.134383
 20
-1739.459594
  0
POINT
  8
3
 10
4565.930206
 20
-1748.105024
  0
POINT
  8
3
 10
4566.301938
 20
-1748.951688
  0
POINT
  8
3
 10
4570.561593
 20
-1757.371591
  0
POINT
  8
3
 10
4575.741135
 20
-1766.376817
  0
POINT
  8
3
 10
4581.409483
 20
-1775.117471
  0
POINT
  8
3
 10
4587.529301
 20
-1783.584671
  0
POINT
  8
3
 10
4594.062539
 20
-1791.769171
  0
POINT
  8
3
 10
4600.970484
 20
-1799.661541
  0
POINT
  8
3
 10
4608.213836
 20
-1807.252309
  0
POINT
  8
3
 10
4617.040221
 20
-1815.732945
  0
POINT
  8
3
 10
4626.478669
 20
-1824.117632
  0
POINT
  8
3
 10
4638.448615
 20
-1834.008881
  0
POINT
  8
3
 10
4649.086214
 20
-1842.162428
  0
POINT
  8
3
 10
4654.299931
 20
-1887.360669
  0
POINT
  8
3
 10
4654.301882
 20
-1923.800223
  0
POINT
  8
3
 10
4654.715559
 20
-1973.138968
  0
POINT
  8
3
 10
4655.183659
 20
-2003.353167
  0
POINT
  8
3
 10
4655.499882
 20
-2023.764216
  0
POINT
  8
3
 10
4656.612644
 20
-2074.403618
  0
POINT
  8
3
 10
4656.261943
 20
-2094.429637
  0
POINT
  8
3
 10
3977.502095
 20
-2094.429637
  0
POINT
  8
3
 10
3977.151394
 20
-2074.403618
  0
POINT
  8
3
 10
3978.264156
 20
-2023.764216
  0
POINT
  8
3
 10
3978.580379
 20
-2003.353167
  0
POINT
  8
3
 10
3979.048479
 20
-1973.138968
  0
POINT
  8
3
 10
3979.462156
 20
-1923.800223
  0
POINT
  8
3
 10
3979.464107
 20
-1887.360669
  0
POINT
  8
3
 10
3984.677824
 20
-1842.162428
  0
POINT
  8
3
 10
3995.315423
 20
-1834.008881
  0
POINT
  8
3
 10
4007.285369
 20
-1824.117632
  0
POINT
  8
3
 10
4016.723817
 20
-1815.732945
  0
POINT
  8
3
 10
4025.550202
 20
-1807.252309
  0
POINT
  8
3
 10
4032.793554
 20
-1799.661541
  0
POINT
  8
3
 10
4039.701499
 20
-1791.769171
  0
POINT
  8
3
 10
4046.234737
 20
-1783.584671
  0
POINT
  8
3
 10
4052.354555
 20
-1775.117471
  0
POINT
  8
3
 10
4058.022903
 20
-1766.376817
  0
POINT
  8
3
 10
4063.202445
 20
-1757.371591
  0
POINT
  8
3
 10
4067.462100
 20
-1748.951688
  0
POINT
  8
3
 10
4071.629655
 20
-1739.459594
  0
POINT
  8
3
 10
4075.242148
 20
-1729.763165
  0
POINT
  8
3
 10
4078.281269
 20
-1719.913526
  0
POINT
  8
3
 10
4080.802138
 20
-1709.694519
  0
POINT
  8
3
 10
4082.207136
 20
-1702.395735
  0
POINT
  8
3
 10
4082.731359
 20
-1699.672462
  0
POINT
  8
3
 10
4084.185906
 20
-1689.730411
  0
POINT
  8
3
 10
4085.416088
 20
-1677.606690
  0
POINT
  8
3
 10
4086.091375
 20
-1666.048607
  0
POINT
  8
3
 10
4086.321668
 20
-1653.267671
  0
POINT
  8
3
 10
4086.099221
 20
-1642.068671
  0
POINT
  8
3
 10
4085.432349
 20
-1630.314647
  0
POINT
  8
3
 10
4084.662823
 20
-1622.223766
  0
POINT
  8
3
 10
4087.709141
 20
-1613.454408
  0
POINT
  8
3
 10
4091.999967
 20
-1609.593186
  0
POINT
  8
3
 10
4096.191902
 20
-1605.317469
  0
POINT
  8
3
 10
4101.126500
 20
-1599.517466
  0
POINT
  8
3
 10
4105.770041
 20
-1593.282267
  0
POINT
  8
3
 10
4111.031610
 20
-1585.344081
  0
POINT
  8
3
 10
4117.081873
 20
-1575.267655
  0
POINT
  8
3
 10
4124.133162
 20
-1562.506742
  0
POINT
  8
3
 10
4131.544990
 20
-1548.042043
  0
POINT
  8
3
 10
4145.743555
 20
-1518.503397
  0
POINT
  8
3
 10
4155.789016
 20
-1497.713130
  0
POINT
  8
3
 10
4158.166865
 20
-1493.065557
  0
POINT
  8
3
 10
4163.396055
 20
-1482.844956
  0
POINT
  8
3
 10
4170.682836
 20
-1469.598924
  0
POINT
  8
3
 10
4176.880368
 20
-1459.152382
  0
POINT
  8
3
 10
4184.118938
 20
-1447.784845
  0
POINT
  8
3
 10
4191.724193
 20
-1436.663503
  0
POINT
  8
3
 10
4199.681184
 20
-1425.800474
  0
POINT
  8
3
 10
4208.288848
 20
-1414.820492
  0
POINT
  8
3
 10
4218.889004
 20
-1402.199853
  0
POINT
  8
3
 10
4230.618750
 20
-1389.038334
  0
POINT
  8
3
 10
4251.387667
 20
-1370.263672
  0
POINT
  8
3
 10
4259.598501
 20
-1376.224883
  0
POINT
  8
3
 10
4265.755434
 20
-1378.219741
  0
POINT
  8
3
 10
4271.670080
 20
-1379.661453
  0
POINT
  8
3
 10
4278.449900
 20
-1380.777486
  0
POINT
  8
3
 10
4286.373895
 20
-1381.584075
  0
POINT
  8
3
 10
4299.239266
 20
-1382.291597
  0
POINT
  8
3
 10
4316.882019
 20
-1382.691306
  0
POINT
  8
3
 10
4551.556902
 20
-1702.395735
  0
TEXT
  8
3
 10
4551.556902
 20
-1702.395735
 40
0.000000
 50
0.000000
  1
# 62
  0
POINT
  8
3
 10
4082.207136
 20
-1702.395735
  0
TEXT
  8
3
 10
4082.207136
 20
-1702.395735
 40
0.000000
 50
0.000000
  1
# 63
  0
POINT
  8
4
 10
4423.255594
 20
-1412.177821
 30
0.600000
 50
220.03
  0
TEXT
  8
4
 10
4423.255594
 20
-1412.177821
 40
0.000000
 50
0.000000
  1
# 64
  0
POINT
  8
4
 10
4475.597173
 20
-1493.065557
 30
0.600000
 50
207.10
  0
TEXT
  8
4
 10
4475.597173
 20
-1493.065557
 40
0.000000
 50
0.000000
  1
# 65
  0
POINT
  8
4
 10
4565.930206
 20
-1748.105024
 30
0.600000
 50
203.70
  0
TEXT
  8
4
 10
4565.930206
 20
-1748.105024
 40
0.000000
 50
0.000000
  1
# 66
  0
POINT
  8
4
 10
4655.183659
 20
-2003.353167
 30
0.600000
 50
180.89
  0
TEXT
  8
4
 10
4655.183659
 20
-2003.353167
 40
0.000000
 50
0.000000
  1
# 67
  0
POINT
  8
4
 10
3978.580379
 20
-2003.353167
 30
0.600000
 50
359.11
  0
TEXT
  8
4
 10
3978.580379
 20
-2003.353167
 40
0.000000
 50
0.000000
  1
# 68
  0
POINT
  8
4
 10
4158.166865
 20
-1493.065557
 30
0.600000
 50
332.90
  0
TEXT
  8
4
 10
4158.166865
 20
-1493.065557
 40
0.000000
 50
0.000000
  1
# 69
  0
POINT
  8
4
 10
4316.882019
 20
-1382.691306
 30
0.600000
 50
270.00
  0
TEXT
  8
4
 10
4316.882019
 20
-1382.691306
 40
0.000000
 50
0.000000
  1
# 70
  0
POLYLINE
  8
8
  66
1
  70
1
  0
VERTEX
  8
8
  10
4316.882019
  20
-1390.693359
  0
VERTEX
  8
8
  10
4334.834477
  20
-1390.285600
  0
VERTEX
  8
8
  10
4348.007421
  20
-1389.560225
  0
VERTEX
  8
8
  10
4356.353545
  20
-1388.709676
  0
VERTEX
  8
8
  10
4363.682689
  20
-1387.502112
  0
VERTEX
  8
8
  10
4370.215409
  20
-1385.909345
  0
VERTEX
  8
8
  10
4376.856427
  20
-1383.758747
  0
VERTEX
  8
8
  10
4383.905334
  20
-1381.004944
  0
VERTEX
  8
8
  10
4396.874121
  20
-1394.776145
  0
VERTEX
  8
8
  10
4408.451446
  20
-1407.766497
  0
VERTEX
  8
8
  10
4416.781616
  20
-1417.615356
  0
VERTEX
  8
8
  10
4418.873388
  20
-1420.174576
  0
VERTEX
  8
8
  10
4427.307339
  20
-1430.932959
  0
VERTEX
  8
8
  10
4435.102460
  20
-1441.574988
  0
VERTEX
  8
8
  10
4442.551427
  20
-1452.467772
  0
VERTEX
  8
8
  10
4449.639386
  20
-1463.598768
  0
VERTEX
  8
8
  10
4455.706179
  20
-1473.824919
  0
VERTEX
  8
8
  10
4462.856209
  20
-1486.822801
  0
VERTEX
  8
8
  10
4468.070984
  20
-1496.916199
  0
VERTEX
  8
8
  10
4470.361072
  20
-1501.491724
  0
VERTEX
  8
8
  10
4480.342831
  20
-1522.150816
  0
VERTEX
  8
8
  10
4494.606135
  20
-1551.822724
  0
VERTEX
  8
8
  10
4502.123771
  20
-1566.493392
  0
VERTEX
  8
8
  10
4509.318744
  20
-1579.513834
  0
VERTEX
  8
8
  10
4515.537753
  20
-1589.870298
  0
VERTEX
  8
8
  10
4521.039380
  20
-1598.169323
  0
VERTEX
  8
8
  10
4525.976390
  20
-1604.797534
  0
VERTEX
  8
8
  10
4531.308451
  20
-1611.063447
  0
VERTEX
  8
8
  10
4535.905637
  20
-1615.751819
  0
VERTEX
  8
8
  10
4540.792847
  20
-1620.101013
  0
VERTEX
  8
8
  10
4539.856819
  20
-1629.661504
  0
VERTEX
  8
8
  10
4539.170772
  20
-1641.750549
  0
VERTEX
  8
8
  10
4538.942393
  20
-1653.247879
  0
VERTEX
  8
8
  10
4539.179035
  20
-1666.377679
  0
VERTEX
  8
8
  10
4539.874142
  20
-1678.273463
  0
VERTEX
  8
8
  10
4541.143970
  20
-1690.786304
  0
VERTEX
  8
8
  10
4542.650542
  20
-1701.083058
  0
VERTEX
  8
8
  10
4543.162668
  20
-1704.011604
  0
VERTEX
  8
8
  10
4544.656781
  20
-1711.504216
  0
VERTEX
  8
8
  10
4547.291585
  20
-1722.183878
  0
VERTEX
  8
8
  10
4550.475089
  20
-1732.501595
  0
VERTEX
  8
8
  10
4554.257136
  20
-1742.653177
  0
VERTEX
  8
8
  10
4558.123169
  20
-1751.532745
  0
VERTEX
  8
8
  10
4558.619842
  20
-1752.589737
  0
VERTEX
  8
8
  10
4563.079025
  20
-1761.404107
  0
VERTEX
  8
8
  10
4568.490739
  20
-1770.813230
  0
VERTEX
  8
8
  10
4574.399094
  20
-1779.924179
  0
VERTEX
  8
8
  10
4580.763525
  20
-1788.729987
  0
VERTEX
  8
8
  10
4587.543471
  20
-1797.223687
  0
VERTEX
  8
8
  10
4594.698367
  20
-1805.398313
  0
VERTEX
  8
8
  10
4602.187650
  20
-1813.246897
  0
VERTEX
  8
8
  10
4611.279885
  20
-1821.983428
  0
VERTEX
  8
8
  10
4620.942687
  20
-1830.567663
  0
VERTEX
  8
8
  10
4633.152823
  20
-1840.657535
  0
VERTEX
  8
8
  10
4646.337585
  20
-1850.734406
  0
VERTEX
  8
8
  10
4645.800115
  20
-1887.304849
  0
VERTEX
  8
8
  10
4645.801960
  20
-1923.836857
  0
VERTEX
  8
8
  10
4646.216198
  20
-1973.243210
  0
VERTEX
  8
8
  10
4646.647644
  20
-2003.485413
  0
VERTEX
  8
8
  10
4647.001341
  20
-2023.921721
  0
VERTEX
  8
8
  10
4648.115308
  20
-2074.616430
  0
VERTEX
  8
8
  10
4648.361816
  20
-2084.275208
  0
VERTEX
  8
8
  10
4534.166565
  20
-2082.275391
  0
VERTEX
  8
8
  10
4316.882019
  20
-2082.281189
  0
VERTEX
  8
8
  10
4099.597473
  20
-2082.275391
  0
VERTEX
  8
8
  10
3985.402222
  20
-2084.275208
  0
VERTEX
  8
8
  10
3985.648730
  20
-2074.616430
  0
VERTEX
  8
8
  10
3986.762697
  20
-2023.921721
  0
VERTEX
  8
8
  10
3987.116394
  20
-2003.485413
  0
VERTEX
  8
8
  10
3987.547840
  20
-1973.243210
  0
VERTEX
  8
8
  10
3987.962078
  20
-1923.836857
  0
VERTEX
  8
8
  10
3987.963924
  20
-1887.304849
  0
VERTEX
  8
8
  10
3987.426453
  20
-1850.734253
  0
VERTEX
  8
8
  10
4000.611215
  20
-1840.657535
  0
VERTEX
  8
8
  10
4012.821351
  20
-1830.567663
  0
VERTEX
  8
8
  10
4022.484153
  20
-1821.983428
  0
VERTEX
  8
8
  10
4031.576388
  20
-1813.246897
  0
VERTEX
  8
8
  10
4039.065671
  20
-1805.398313
  0
VERTEX
  8
8
  10
4046.220567
  20
-1797.223687
  0
VERTEX
  8
8
  10
4053.000513
  20
-1788.729987
  0
VERTEX
  8
8
  10
4059.364945
  20
-1779.924179
  0
VERTEX
  8
8
  10
4065.273299
  20
-1770.813230
  0
VERTEX
  8
8
  10
4070.685013
  20
-1761.404107
  0
VERTEX
  8
8
  10
4075.144196
  20
-1752.589737
  0
VERTEX
  8
8
  10
4079.506902
  20
-1742.653177
  0
VERTEX
  8
8
  10
4083.288949
  20
-1732.501595
  0
VERTEX
  8
8
  10
4086.472453
  20
-1722.183878
  0
VERTEX
  8
8
  10
4089.107257
  20
-1711.504216
  0
VERTEX
  8
8
  10
4090.601370
  20
-1704.011604
  0
VERTEX
  8
8
  10
4091.113496
  20
-1701.083058
  0
VERTEX
  8
8
  10
4092.620068
  20
-1690.786304
  0
VERTEX
  8
8
  10
4093.889896
  20
-1678.273463
  0
VERTEX
  8
8
  10
4094.585003
  20
-1666.377679
  0
VERTEX
  8
8
  10
4094.821645
  20
-1653.247879
  0
VERTEX
  8
8
  10
4094.593266
  20
-1641.750549
  0
VERTEX
  8
8
  10
4093.907219
  20
-1629.661504
  0
VERTEX
  8
8
  10
4092.971191
  20
-1620.101013
  0
VERTEX
  8
8
  10
4097.858401
  20
-1615.751819
  0
VERTEX
  8
8
  10
4102.455587
  20
-1611.063447
  0
VERTEX
  8
8
  10
4107.787648
  20
-1604.797534
  0
VERTEX
  8
8
  10
4112.724658
  20
-1598.169323
  0
VERTEX
  8
8
  10
4118.226286
  20
-1589.870298
  0
VERTEX
  8
8
  10
4124.445294
  20
-1579.513834
  0
VERTEX
  8
8
  10
4131.640267
  20
-1566.493392
  0
VERTEX
  8
8
  10
4139.157903
  20
-1551.822724
  0
VERTEX
  8
8
  10
4153.421207
  20
-1522.150816
  0
VERTEX
  8
8
  10
4163.402966
  20
-1501.491724
  0
VERTEX
  8
8
  10
4165.693054
  20
-1496.916199
  0
VERTEX
  8
8
  10
4170.907829
  20
-1486.822801
  0
VERTEX
  8
8
  10
4178.057859
  20
-1473.824919
  0
VERTEX
  8
8
  10
4184.124652
  20
-1463.598768
  0
VERTEX
  8
8
  10
4191.212611
  20
-1452.467772
  0
VERTEX
  8
8
  10
4198.661578
  20
-1441.574988
  0
VERTEX
  8
8
  10
4206.456699
  20
-1430.932959
  0
VERTEX
  8
8
  10
4214.890650
  20
-1420.174576
  0
VERTEX
  8
8
  10
4225.312592
  20
-1407.766497
  0
VERTEX
  8
8
  10
4236.889917
  20
-1394.776145
  0
VERTEX
  8
8
  10
4249.858704
  20
-1381.004944
  0
VERTEX
  8
8
  10
4256.907611
  20
-1383.758747
  0
VERTEX
  8
8
  10
4263.548629
  20
-1385.909345
  0
VERTEX
  8
8
  10
4270.081349
  20
-1387.502112
  0
VERTEX
  8
8
  10
4277.410493
  20
-1388.709676
  0
VERTEX
  8
8
  10
4285.756617
  20
-1389.560225
  0
VERTEX
  8
8
  10
4298.929561
  20
-1390.285600
  0
VERTEX
  8
8
  10
4316.882019
  20
-1390.693359
  0
VERTEX
  8
8
  10
4316.882019
  20
-1390.693359
  0
SEQEND
  8
8
  0
POINT
  8
2
 10
4316.882019
 20
-1390.693359
  0
TEXT
  8
2
 10
4316.882019
 20
-1390.693359
 40
0.000000
 50
0.000000
  1
# 71
  0
POINT
  8
2
 10
4383.905334
 20
-1381.004944
  0
TEXT
  8
2
 10
4383.905334
 20
-1381.004944
 40
0.000000
 50
0.000000
  1
# 72
  0
POINT
  8
2
 10
4540.792847
 20
-1620.101013
  0
TEXT
  8
2
 10
4540.792847
 20
-1620.101013
 40
0.000000
 50
0.000000
  1
# 73
  0
POINT
  8
2
 10
4646.337585
 20
-1850.734406
  0
TEXT
  8
2
 10
4646.337585
 20
-1850.734406
 40
0.000000
 50
0.000000
  1
# 74
  0
POINT
  8
2
 10
4648.361816
 20
-2084.275208
  0
TEXT
  8
2
 10
4648.361816
 20
-2084.275208
 40
0.000000
 50
0.000000
  1
# 75
  0
POINT
  8
2
 10
4534.166565
 20
-2082.275391
  0
TEXT
  8
2
 10
4534.166565
 20
-2082.275391
 40
0.000000
 50
0.000000
  1
# 76
  0
POINT
  8
2
 10
4316.882019
 20
-2082.281189
  0
TEXT
  8
2
 10
4316.882019
 20
-2082.281189
 40
0.000000
 50
0.000000
  1
# 77
  0
POINT
  8
2
 10
4099.597473
 20
-2082.275391
  0
TEXT
  8
2
 10
4099.597473
 20
-2082.275391
 40
0.000000
 50
0.000000
  1
# 78
  0
POINT
  8
2
 10
3985.402222
 20
-2084.275208
  0
TEXT
  8
2
 10
3985.402222
 20
-2084.275208
 40
0.000000
 50
0.000000
  1
# 79
  0
POINT
  8
2
 10
3987.426453
 20
-1850.734253
  0
TEXT
  8
2
 10
3987.426453
 20
-1850.734253
 40
0.000000
 50
0.000000
  1
# 80
  0
POINT
  8
2
 10
4092.971191
 20
-1620.101013
  0
TEXT
  8
2
 10
4092.971191
 20
-1620.101013
 40
0.000000
 50
0.000000
  1
# 81
  0
POINT
  8
2
 10
4249.858704
 20
-1381.004944
  0
TEXT
  8
2
 10
4249.858704
 20
-1381.004944
 40
0.000000
 50
0.000000
  1
# 82
  0
POINT
  8
2
 10
4316.882019
 20
-1390.693359
  0
TEXT
  8
2
 10
4316.882019
 20
-1390.693359
 40
0.000000
 50
0.000000
  1
# 83
  0
POINT
  8
3
 10
4334.834477
 20
-1390.285600
  0
POINT
  8
3
 10
4348.007421
 20
-1389.560225
  0
POINT
  8
3
 10
4356.353545
 20
-1388.709676
  0
POINT
  8
3
 10
4363.682689
 20
-1387.502112
  0
POINT
  8
3
 10
4370.215409
 20
-1385.909345
  0
POINT
  8
3
 10
4376.856427
 20
-1383.758747
  0
POINT
  8
3
 10
4396.874121
 20
-1394.776145
  0
POINT
  8
3
 10
4408.451446
 20
-1407.766497
  0
POINT
  8
3
 10
4416.781616
 20
-1417.615356
  0
POINT
  8
3
 10
4418.873388
 20
-1420.174576
  0
POINT
  8
3
 10
4427.307339
 20
-1430.932959
  0
POINT
  8
3
 10
4435.102460
 20
-1441.574988
  0
POINT
  8
3
 10
4442.551427
 20
-1452.467772
  0
POINT
  8
3
 10
4449.639386
 20
-1463.598768
  0
POINT
  8
3
 10
4455.706179
 20
-1473.824919
  0
POINT
  8
3
 10
4462.856209
 20
-1486.822801
  0
POINT
  8
3
 10
4468.070984
 20
-1496.916199
  0
POINT
  8
3
 10
4470.361072
 20
-1501.491724
  0
POINT
  8
3
 10
4480.342831
 20
-1522.150816
  0
POINT
  8
3
 10
4494.606135
 20
-1551.822724
  0
POINT
  8
3
 10
4502.123771
 20
-1566.493392
  0
POINT
  8
3
 10
4509.318744
 20
-1579.513834
  0
POINT
  8
3
 10
4515.537753
 20
-1589.870298
  0
POINT
  8
3
 10
4521.039380
 20
-1598.169323
  0
POINT
  8
3
 10
4525.976390
 20
-1604.797534
  0
POINT
  8
3
 10
4531.308451
 20
-1611.063447
  0
POINT
  8
3
 10
4535.905637
 20
-1615.751819
  0
POINT
  8
3
 10
4539.856819
 20
-1629.661504
  0
POINT
  8
3
 10
4539.170772
 20
-1641.750549
  0
POINT
  8
3
 10
4538.942393
 20
-1653.247879
  0
POINT
  8
3
 10
4539.179035
 20
-1666.377679
  0
POINT
  8
3
 10
4539.874142
 20
-1678.273463
  0
POINT
  8
3
 10
4541.143970
 20
-1690.786304
  0
POINT
  8
3
 10
4542.650542
 20
-1701.083058
  0
POINT
  8
3
 10
4543.162668
 20
-1704.011604
  0
POINT
  8
3
 10
4544.656781
 20
-1711.504216
  0
POINT
  8
3
 10
4547.291585
 20
-1722.183878
  0
POINT
  8
3
 10
4550.475089
 20
-1732.501595
  0
POINT
  8
3
 10
4554.257136
 20
-1742.653177
  0
POINT
  8
3
 10
4558.123169
 20
-1751.532745
  0
POINT
  8
3
 10
4558.619842
 20
-1752.589737
  0
POINT
  8
3
 10
4563.079025
 20
-1761.404107
  0
POINT
  8
3
 10
4568.490739
 20
-1770.813230
  0
POINT
  8
3
 10
4574.399094
 20
-1779.924179
  0
POINT
  8
3
 10
4580.763525
 20
-1788.729987
  0
POINT
  8
3
 10
4587.543471
 20
-1797.223687
  0
POINT
  8
3
 10
4594.698367
 20
-1805.398313
  0
POINT
  8
3
 10
4602.187650
 20
-1813.246897
  0
POINT
  8
3
 10
4611.279885
 20
-1821.983428
  0
POINT
  8
3
 10
4620.942687
 20
-1830.567663
  0
POINT
  8
3
 10
4633.152823
 20
-1840.657535
  0
POINT
  8
3
 10
4645.800115
 20
-1887.304849
  0
POINT
  8
3
 10
4645.801960
 20
-1923.836857
  0
POINT
  8
3
 10
4646.216198
 20
-1973.243210
  0
POINT
  8
3
 10
4646.647644
 20
-2003.485413
  0
POINT
  8
3
 10
4647.001341
 20
-2023.921721
  0
POINT
  8
3
 10
4648.115308
 20
-2074.616430
  0
POINT
  8
3
 10
3985.648730
 20
-2074.616430
  0
POINT
  8
3
 10
3986.762697
 20
-2023.921721
  0
POINT
  8
3
 10
3987.116394
 20
-2003.485413
  0
POINT
  8
3
 10
3987.547840
 20
-1973.243210
  0
POINT
  8
3
 10
3987.962078
 20
-1923.836857
  0
POINT
  8
3
 10
3987.963924
 20
-1887.304849
  0
POINT
  8
3
 10
4000.611215
 20
-1840.657535
  0
POINT
  8
3
 10
4012.821351
 20
-1830.567663
  0
POINT
  8
3
 10
4022.484153
 20
-1821.983428
  0
POINT
  8
3
 10
4031.576388
 20
-1813.246897
  0
POINT
  8
3
 10
4039.065671
 20
-1805.398313
  0
POINT
  8
3
 10
4046.220567
 20
-1797.223687
  0
POINT
  8
3
 10
4053.000513
 20
-1788.729987
  0
POINT
  8
3
 10
4059.364945
 20
-1779.924179
  0
POINT
  8
3
 10
4065.273299
 20
-1770.813230
  0
POINT
  8
3
 10
4070.685013
 20
-1761.404107
  0
POINT
  8
3
 10
4075.144196
 20
-1752.589737
  0
POINT
  8
3
 10
4079.506902
 20
-1742.653177
  0
POINT
  8
3
 10
4083.288949
 20
-1732.501595
  0
POINT
  8
3
 10
4086.472453
 20
-1722.183878
  0
POINT
  8
3
 10
4089.107257
 20
-1711.504216
  0
POINT
  8
3
 10
4090.601370
 20
-1704.011604
  0
POINT
  8
3
 10
4091.113496
 20
-1701.083058
  0
POINT
  8
3
 10
4092.620068
 20
-1690.786304
  0
POINT
  8
3
 10
4093.889896
 20
-1678.273463
  0
POINT
  8
3
 10
4094.585003
 20
-1666.377679
  0
POINT
  8
3
 10
4094.821645
 20
-1653.247879
  0
POINT
  8
3
 10
4094.593266
 20
-1641.750549
  0
POINT
  8
3
 10
4093.907219
 20
-1629.661504
  0
POINT
  8
3
 10
4097.858401
 20
-1615.751819
  0
POINT
  8
3
 10
4102.455587
 20
-1611.063447
  0
POINT
  8
3
 10
4107.787648
 20
-1604.797534
  0
POINT
  8
3
 10
4112.724658
 20
-1598.169323
  0
POINT
  8
3
 10
4118.226286
 20
-1589.870298
  0
POINT
  8
3
 10
4124.445294
 20
-1579.513834
  0
POINT
  8
3
 10
4131.640267
 20
-1566.493392
  0
POINT
  8
3
 10
4139.157903
 20
-1551.822724
  0
POINT
  8
3
 10
4153.421207
 20
-1522.150816
  0
POINT
  8
3
 10
4163.402966
 20
-1501.491724
  0
POINT
  8
3
 10
4165.693054
 20
-1496.916199
  0
POINT
  8
3
 10
4170.907829
 20
-1486.822801
  0
POINT
  8
3
 10
4178.057859
 20
-1473.824919
  0
POINT
  8
3
 10
4184.124652
 20
-1463.598768
  0
POINT
  8
3
 10
4191.212611
 20
-1452.467772
  0
POINT
  8
3
 10
4198.661578
 20
-1441.574988
  0
POINT
  8
3
 10
4206.456699
 20
-1430.932959
  0
POINT
  8
3
 10
4214.890650
 20
-1420.174576
  0
POINT
  8
3
 10
4225.312592
 20
-1407.766497
  0
POINT
  8
3
 10
4236.889917
 20
-1394.776145
  0
POINT
  8
3
 10
4256.907611
 20
-1383.758747
  0
POINT
  8
3
 10
4263.548629
 20
-1385.909345
  0
POINT
  8
3
 10
4270.081349
 20
-1387.502112
  0
POINT
  8
3
 10
4277.410493
 20
-1388.709676
  0
POINT
  8
3
 10
4285.756617
 20
-1389.560225
  0
POINT
  8
3
 10
4298.929561
 20
-1390.285600
  0
POINT
  8
3
 10
4316.882019
 20
-1390.693359
  0
POINT
  8
3
 10
4543.162668
 20
-1704.011604
  0
TEXT
  8
3
 10
4543.162668
 20
-1704.011604
 40
0.000000
 50
0.000000
  1
# 84
  0
POINT
  8
3
 10
4090.601370
 20
-1704.011604
  0
TEXT
  8
3
 10
4090.601370
 20
-1704.011604
 40
0.000000
 50
0.000000
  1
# 85
  0
POINT
  8
4
 10
4416.781616
 20
-1417.615356
 30
0.600000
 50
219.48
  0
TEXT
  8
4
 10
4416.781616
 20
-1417.615356
 40
0.000000
 50
0.000000
  1
# 86
  0
POINT
  8
4
 10
4468.070984
 20
-1496.916199
 30
0.600000
 50
206.79
  0
TEXT
  8
4
 10
4468.070984
 20
-1496.916199
 40
0.000000
 50
0.000000
  1
# 87
  0
POINT
  8
4
 10
4558.123169
 20
-1751.532745
 30
0.600000
 50
204.99
  0
TEXT
  8
4
 10
4558.123169
 20
-1751.532745
 40
0.000000
 50
0.000000
  1
# 88
  0
POINT
  8
4
 10
4646.647644
 20
-2003.485413
 30
0.600000
 50
180.92
  0
TEXT
  8
4
 10
4646.647644
 20
-2003.485413
 40
0.000000
 50
0.000000
  1
# 89
  0
POINT
  8
4
 10
3987.116394
 20
-2003.485413
 30
0.600000
 50
359.08
  0
TEXT
  8
4
 10
3987.116394
 20
-2003.485413
 40
0.000000
 50
0.000000
  1
# 90
  0
POINT
  8
4
 10
4165.693054
 20
-1496.916199
 30
0.600000
 50
333.21
  0
TEXT
  8
4
 10
4165.693054
 20
-1496.916199
 40
0.000000
 50
0.000000
  1
# 91
  0
POINT
  8
4
 10
4316.882019
 20
-1390.693359
 30
0.600000
 50
270.00
  0
TEXT
  8
4
 10
4316.882019
 20
-1390.693359
 40
0.000000
 50
0.000000
  1
# 92
  0
POLYLINE
  8
11
  66
1
  70
0
  0
VERTEX
  8
1
  10
4325.104675
  20
-1419.575500
  0
VERTEX
  8
1
  10
4323.410986
  20
-1417.976257
  0
VERTEX
  8
1
  10
4321.639212
  20
-1416.895397
  0
VERTEX
  8
1
  10
4319.689521
  20
-1416.173064
  0
VERTEX
  8
1
  10
4317.639562
  20
-1415.842755
  0
VERTEX
  8
1
  10
4315.561040
  20
-1415.915542
  0
VERTEX
  8
1
  10
4313.539868
  20
-1416.388154
  0
VERTEX
  8
1
  10
4311.649242
  20
-1417.242439
  0
VERTEX
  8
1
  10
4309.955347
  20
-1418.449335
  0
VERTEX
  8
1
  10
4308.529593
  20
-1419.958054
  0
VERTEX
  8
1
  10
4307.422937
  20
-1421.713555
  0
VERTEX
  8
1
  10
4306.675249
  20
-1423.654422
  0
VERTEX
  8
1
  10
4306.317982
  20
-1425.698747
  0
VERTEX
  8
1
  10
4306.362768
  20
-1427.773554
  0
VERTEX
  8
1
  10
4306.808948
  20
-1429.805022
  0
VERTEX
  8
1
  10
4307.638271
  20
-1431.707517
  0
VERTEX
  8
1
  10
4308.840027
  20
-1433.438263
  0
SEQEND
  8
11
  0
POINT
  8
2
 10
4325.104675
 20
-1419.575500
  0
TEXT
  8
2
 10
4325.104675
 20
-1419.575500
 40
0.000000
 50
0.000000
  1
# 93
  0
POINT
  8
2
 10
4308.840027
 20
-1433.438263
  0
TEXT
  8
2
 10
4308.840027
 20
-1433.438263
 40
0.000000
 50
0.000000
  1
# 94
  0
POINT
  8
3
 10
4323.410986
 20
-1417.976257
  0
POINT
  8
3
 10
4321.639212
 20
-1416.895397
  0
POINT
  8
3
 10
4319.689521
 20
-1416.173064
  0
POINT
  8
3
 10
4317.639562
 20
-1415.842755
  0
POINT
  8
3
 10
4315.561040
 20
-1415.915542
  0
POINT
  8
3
 10
4313.539868
 20
-1416.388154
  0
POINT
  8
3
 10
4311.649242
 20
-1417.242439
  0
POINT
  8
3
 10
4309.955347
 20
-1418.449335
  0
POINT
  8
3
 10
4308.529593
 20
-1419.958054
  0
POINT
  8
3
 10
4307.422937
 20
-1421.713555
  0
POINT
  8
3
 10
4306.675249
 20
-1423.654422
  0
POINT
  8
3
 10
4306.317982
 20
-1425.698747
  0
POINT
  8
3
 10
4306.362768
 20
-1427.773554
  0
POINT
  8
3
 10
4306.808948
 20
-1429.805022
  0
POINT
  8
3
 10
4307.638271
 20
-1431.707517
  0
POLYLINE
  8
11
  66
1
  70
0
  0
VERTEX
  8
1
  10
4308.840027
  20
-1433.438263
  0
VERTEX
  8
1
  10
4310.401036
  20
-1434.932387
  0
VERTEX
  8
1
  10
4312.153509
  20
-1436.044002
  0
VERTEX
  8
1
  10
4314.092451
  20
-1436.797065
  0
VERTEX
  8
1
  10
4316.135676
  20
-1437.159614
  0
VERTEX
  8
1
  10
4318.210796
  20
-1437.120485
  0
VERTEX
  8
1
  10
4320.243722
  20
-1436.679546
  0
VERTEX
  8
1
  10
4322.148052
  20
-1435.855427
  0
VERTEX
  8
1
  10
4323.857641
  20
-1434.678724
  0
VERTEX
  8
1
  10
4325.310321
  20
-1433.190098
  0
VERTEX
  8
1
  10
4326.444826
  20
-1431.452093
  0
VERTEX
  8
1
  10
4327.221862
  20
-1429.527939
  0
VERTEX
  8
1
  10
4327.613112
  20
-1427.485225
  0
VERTEX
  8
1
  10
4327.601425
  20
-1425.409721
  0
VERTEX
  8
1
  10
4327.188053
  20
-1423.376083
  0
VERTEX
  8
1
  10
4326.382754
  20
-1421.440409
  0
VERTEX
  8
1
  10
4325.104675
  20
-1419.575500
  0
SEQEND
  8
11
  0
POINT
  8
2
 10
4308.840027
 20
-1433.438263
  0
TEXT
  8
2
 10
4308.840027
 20
-1433.438263
 40
0.000000
 50
0.000000
  1
# 95
  0
POINT
  8
2
 10
4325.104675
 20
-1419.575500
  0
TEXT
  8
2
 10
4325.104675
 20
-1419.575500
 40
0.000000
 50
0.000000
  1
# 96
  0
POINT
  8
3
 10
4310.401036
 20
-1434.932387
  0
POINT
  8
3
 10
4312.153509
 20
-1436.044002
  0
POINT
  8
3
 10
4314.092451
 20
-1436.797065
  0
POINT
  8
3
 10
4316.135676
 20
-1437.159614
  0
POINT
  8
3
 10
4318.210796
 20
-1437.120485
  0
POINT
  8
3
 10
4320.243722
 20
-1436.679546
  0
POINT
  8
3
 10
4322.148052
 20
-1435.855427
  0
POINT
  8
3
 10
4323.857641
 20
-1434.678724
  0
POINT
  8
3
 10
4325.310321
 20
-1433.190098
  0
POINT
  8
3
 10
4326.444826
 20
-1431.452093
  0
POINT
  8
3
 10
4327.221862
 20
-1429.527939
  0
POINT
  8
3
 10
4327.613112
 20
-1427.485225
  0
POINT
  8
3
 10
4327.601425
 20
-1425.409721
  0
POINT
  8
3
 10
4327.188053
 20
-1423.376083
  0
POINT
  8
3
 10
4326.382754
 20
-1421.440409
  0
POLYLINE
  8
11
  66
1
  70
0
  0
VERTEX
  8
1
  10
4316.882019
  20
-2082.281189
  0
VERTEX
  8
1
  10
4316.882019
  20
-1704.010162
  0
VERTEX
  8
1
  10
4316.882019
  20
-1390.693359
  0
SEQEND
  8
11
  0
POINT
  8
2
 10
4316.882019
 20
-2082.281189
  0
TEXT
  8
2
 10
4316.882019
 20
-2082.281189
 40
0.000000
 50
0.000000
  1
# 97
  0
POINT
  8
2
 10
4316.882019
 20
-1390.693359
  0
TEXT
  8
2
 10
4316.882019
 20
-1390.693359
 40
0.000000
 50
0.000000
  1
# 98
  0
POINT
  8
3
 10
4316.882019
 20
-1704.010162
  0
POINT
  8
3
 10
4316.882019
 20
-1704.010162
  0
TEXT
  8
3
 10
4316.882019
 20
-1704.010162
 40
0.000000
 50
0.000000
  1
# 99
  0
POLYLINE
  8
11
  6
2
  66
1
  70
0
  0
VERTEX
  8
1
  10
4316.882019
  20
-1397.190247
  0
VERTEX
  8
1
  10
4299.952095
  20
-1396.832018
  0
VERTEX
  8
1
  10
4286.885854
  20
-1396.156155
  0
VERTEX
  8
1
  10
4278.095633
  20
-1395.342628
  0
VERTEX
  8
1
  10
4271.152587
  20
-1394.318502
  0
VERTEX
  8
1
  10
4264.816942
  20
-1392.974040
  0
VERTEX
  8
1
  10
4258.574837
  20
-1391.186003
  0
VERTEX
  8
1
  10
4251.735690
  20
-1388.771395
  0
VERTEX
  8
1
  10
4245.080261
  20
-1386.060638
  0
SEQEND
  8
11
  0
POINT
  8
2
 10
4316.882019
 20
-1397.190247
  0
TEXT
  8
2
 10
4316.882019
 20
-1397.190247
 40
0.000000
 50
0.000000
  1
# 100
  0
POINT
  8
2
 10
4245.080261
 20
-1386.060638
  0
TEXT
  8
2
 10
4245.080261
 20
-1386.060638
 40
0.000000
 50
0.000000
  1
# 101
  0
POINT
  8
3
 10
4299.952095
 20
-1396.832018
  0
POINT
  8
3
 10
4286.885854
 20
-1396.156155
  0
POINT
  8
3
 10
4278.095633
 20
-1395.342628
  0
POINT
  8
3
 10
4271.152587
 20
-1394.318502
  0
POINT
  8
3
 10
4264.816942
 20
-1392.974040
  0
POINT
  8
3
 10
4258.574837
 20
-1391.186003
  0
POINT
  8
3
 10
4251.735690
 20
-1388.771395
  0
POLYLINE
  8
11
  66
1
  70
0
  0
VERTEX
  8
1
  10
4090.594482
  20
-1704.010315
  0
VERTEX
  8
1
  10
4142.106255
  20
-1704.010315
  0
VERTEX
  8
1
  10
4192.478020
  20
-1704.010315
  0
VERTEX
  8
1
  10
4242.514392
  20
-1704.010315
  0
VERTEX
  8
1
  10
4293.304128
  20
-1704.010315
  0
VERTEX
  8
1
  10
4316.882019
  20
-1704.010315
  0
SEQEND
  8
11
  0
POINT
  8
2
 10
4090.594482
 20
-1704.010315
  0
TEXT
  8
2
 10
4090.594482
 20
-1704.010315
 40
0.000000
 50
0.000000
  1
# 102
  0
POINT
  8
2
 10
4316.882019
 20
-1704.010315
  0
TEXT
  8
2
 10
4316.882019
 20
-1704.010315
 40
0.000000
 50
0.000000
  1
# 103
  0
POINT
  8
3
 10
4142.106255
 20
-1704.010315
  0
POINT
  8
3
 10
4192.478020
 20
-1704.010315
  0
POINT
  8
3
 10
4242.514392
 20
-1704.010315
  0
POINT
  8
3
 10
4293.304128
 20
-1704.010315
  0
POLYLINE
  8
11
  6
2
  66
1
  70
0
  0
VERTEX
  8
1
  10
4099.448853
  20
-2065.275269
  0
VERTEX
  8
1
  10
4316.882019
  20
-2065.281219
  0
SEQEND
  8
11
  0
POINT
  8
2
 10
4099.448853
 20
-2065.275269
  0
TEXT
  8
2
 10
4099.448853
 20
-2065.275269
 40
0.000000
 50
0.000000
  1
# 104
  0
POINT
  8
2
 10
4316.882019
 20
-2065.281219
  0
TEXT
  8
2
 10
4316.882019
 20
-2065.281219
 40
0.000000
 50
0.000000
  1
# 105
  0
POLYLINE
  8
11
  6
2
  66
1
  70
0
  0
VERTEX
  8
1
  10
4099.422607
  20
-2062.275391
  0
VERTEX
  8
1
  10
4316.882019
  20
-2062.281189
  0
SEQEND
  8
11
  0
POINT
  8
2
 10
4099.422607
 20
-2062.275391
  0
TEXT
  8
2
 10
4099.422607
 20
-2062.275391
 40
0.000000
 50
0.000000
  1
# 106
  0
POINT
  8
2
 10
4316.882019
 20
-2062.281189
  0
TEXT
  8
2
 10
4316.882019
 20
-2062.281189
 40
0.000000
 50
0.000000
  1
# 107
  0
POLYLINE
  8
11
  6
2
  66
1
  70
0
  0
VERTEX
  8
1
  10
3985.817871
  20
-2067.265320
  0
VERTEX
  8
1
  10
4099.448853
  20
-2065.275269
  0
SEQEND
  8
11
  0
POINT
  8
2
 10
3985.817871
 20
-2067.265320
  0
TEXT
  8
2
 10
3985.817871
 20
-2067.265320
 40
0.000000
 50
0.000000
  1
# 108
  0
POINT
  8
2
 10
4099.448853
 20
-2065.275269
  0
TEXT
  8
2
 10
4099.448853
 20
-2065.275269
 40
0.000000
 50
0.000000
  1
# 109
  0
POLYLINE
  8
11
  6
2
  66
1
  70
0
  0
VERTEX
  8
1
  10
3985.891113
  20
-2064.263458
  0
VERTEX
  8
1
  10
4099.422607
  20
-2062.275391
  0
SEQEND
  8
11
  0
POINT
  8
2
 10
3985.891113
 20
-2064.263458
  0
TEXT
  8
2
 10
3985.891113
 20
-2064.263458
 40
0.000000
 50
0.000000
  1
# 110
  0
POINT
  8
2
 10
4099.422607
 20
-2062.275391
  0
TEXT
  8
2
 10
4099.422607
 20
-2062.275391
 40
0.000000
 50
0.000000
  1
# 111
  0
POLYLINE
  8
11
  66
1
  70
0
  0
VERTEX
  8
1
  10
4298.448792
  20
-1421.462708
  0
VERTEX
  8
1
  10
4335.198059
  20
-1421.462708
  0
SEQEND
  8
11
  0
POINT
  8
2
 10
4298.448792
 20
-1421.462708
  0
TEXT
  8
2
 10
4298.448792
 20
-1421.462708
 40
0.000000
 50
0.000000
  1
# 112
  0
POINT
  8
2
 10
4335.198059
 20
-1421.462708
  0
TEXT
  8
2
 10
4335.198059
 20
-1421.462708
 40
0.000000
 50
0.000000
  1
# 113
  0
POLYLINE
  8
11
  66
1
  70
0
  0
VERTEX
  8
1
  10
4298.271790
  20
-1432.620239
  0
VERTEX
  8
1
  10
4309.429016
  20
-1431.956177
  0
SEQEND
  8
11
  0
POINT
  8
2
 10
4298.271790
 20
-1432.620239
  0
TEXT
  8
2
 10
4298.271790
 20
-1432.620239
 40
0.000000
 50
0.000000
  1
# 114
  0
POINT
  8
2
 10
4309.429016
 20
-1431.956177
  0
TEXT
  8
2
 10
4309.429016
 20
-1431.956177
 40
0.000000
 50
0.000000
  1
# 115
  0
POLYLINE
  8
11
  6
2
  66
1
  70
0
  0
VERTEX
  8
1
  10
4316.882019
  20
-1397.190247
  0
VERTEX
  8
1
  10
4333.811897
  20
-1396.832020
  0
VERTEX
  8
1
  10
4346.878159
  20
-1396.156157
  0
VERTEX
  8
1
  10
4355.668291
  20
-1395.342629
  0
VERTEX
  8
1
  10
4362.611250
  20
-1394.318502
  0
VERTEX
  8
1
  10
4368.947060
  20
-1392.974040
  0
VERTEX
  8
1
  10
4375.189167
  20
-1391.185998
  0
VERTEX
  8
1
  10
4382.028201
  20
-1388.771363
  0
VERTEX
  8
1
  10
4388.683472
  20
-1386.060638
  0
SEQEND
  8
11
  0
POINT
  8
2
 10
4316.882019
 20
-1397.190247
  0
TEXT
  8
2
 10
4316.882019
 20
-1397.190247
 40
0.000000
 50
0.000000
  1
# 116
  0
POINT
  8
2
 10
4388.683472
 20
-1386.060638
  0
TEXT
  8
2
 10
4388.683472
 20
-1386.060638
 40
0.000000
 50
0.000000
  1
# 117
  0
POINT
  8
3
 10
4333.811897
 20
-1396.832020
  0
POINT
  8
3
 10
4346.878159
 20
-1396.156157
  0
POINT
  8
3
 10
4355.668291
 20
-1395.342629
  0
POINT
  8
3
 10
4362.611250
 20
-1394.318502
  0
POINT
  8
3
 10
4368.947060
 20
-1392.974040
  0
POINT
  8
3
 10
4375.189167
 20
-1391.185998
  0
POINT
  8
3
 10
4382.028201
 20
-1388.771363
  0
POLYLINE
  8
11
  66
1
  70
0
  0
VERTEX
  8
1
  10
4543.169556
  20
-1704.010315
  0
VERTEX
  8
1
  10
4491.657783
  20
-1704.010315
  0
VERTEX
  8
1
  10
4441.286018
  20
-1704.010315
  0
VERTEX
  8
1
  10
4391.249646
  20
-1704.010315
  0
VERTEX
  8
1
  10
4340.459910
  20
-1704.010315
  0
VERTEX
  8
1
  10
4316.882019
  20
-1704.010315
  0
SEQEND
  8
11
  0
POINT
  8
2
 10
4543.169556
 20
-1704.010315
  0
TEXT
  8
2
 10
4543.169556
 20
-1704.010315
 40
0.000000
 50
0.000000
  1
# 118
  0
POINT
  8
2
 10
4316.882019
 20
-1704.010315
  0
TEXT
  8
2
 10
4316.882019
 20
-1704.010315
 40
0.000000
 50
0.000000
  1
# 119
  0
POINT
  8
3
 10
4491.657783
 20
-1704.010315
  0
POINT
  8
3
 10
4441.286018
 20
-1704.010315
  0
POINT
  8
3
 10
4391.249646
 20
-1704.010315
  0
POINT
  8
3
 10
4340.459910
 20
-1704.010315
  0
POLYLINE
  8
11
  6
2
  66
1
  70
0
  0
VERTEX
  8
1
  10
4534.315186
  20
-2065.275269
  0
VERTEX
  8
1
  10
4316.882019
  20
-2065.281219
  0
SEQEND
  8
11
  0
POINT
  8
2
 10
4534.315186
 20
-2065.275269
  0
TEXT
  8
2
 10
4534.315186
 20
-2065.275269
 40
0.000000
 50
0.000000
  1
# 120
  0
POINT
  8
2
 10
4316.882019
 20
-2065.281219
  0
TEXT
  8
2
 10
4316.882019
 20
-2065.281219
 40
0.000000
 50
0.000000
  1
# 121
  0
POLYLINE
  8
11
  6
2
  66
1
  70
0
  0
VERTEX
  8
1
  10
4534.341431
  20
-2062.275391
  0
VERTEX
  8
1
  10
4316.882019
  20
-2062.281189
  0
SEQEND
  8
11
  0
POINT
  8
2
 10
4534.341431
 20
-2062.275391
  0
TEXT
  8
2
 10
4534.341431
 20
-2062.275391
 40
0.000000
 50
0.000000
  1
# 122
  0
POINT
  8
2
 10
4316.882019
 20
-2062.281189
  0
TEXT
  8
2
 10
4316.882019
 20
-2062.281189
 40
0.000000
 50
0.000000
  1
# 123
  0
POLYLINE
  8
11
  6
2
  66
1
  70
0
  0
VERTEX
  8
1
  10
4647.946167
  20
-2067.265320
  0
VERTEX
  8
1
  10
4534.315186
  20
-2065.275269
  0
SEQEND
  8
11
  0
POINT
  8
2
 10
4647.946167
 20
-2067.265320
  0
TEXT
  8
2
 10
4647.946167
 20
-2067.265320
 40
0.000000
 50
0.000000
  1
# 124
  0
POINT
  8
2
 10
4534.315186
 20
-2065.275269
  0
TEXT
  8
2
 10
4534.315186
 20
-2065.275269
 40
0.000000
 50
0.000000
  1
# 125
  0
POLYLINE
  8
11
  6
2
  66
1
  70
0
  0
VERTEX
  8
1
  10
4647.872925
  20
-2064.263458
  0
VERTEX
  8
1
  10
4534.341431
  20
-2062.275391
  0
SEQEND
  8
11
  0
POINT
  8
2
 10
4647.872925
 20
-2064.263458
  0
TEXT
  8
2
 10
4647.872925
 20
-2064.263458
 40
0.000000
 50
0.000000
  1
# 126
  0
POINT
  8
2
 10
4534.341431
 20
-2062.275391
  0
TEXT
  8
2
 10
4534.341431
 20
-2062.275391
 40
0.000000
 50
0.000000
  1
# 127
 0
LINE
 8
7
 10
4293.409729
 20
-1612.255554
 11
4293.409729
 21
-1917.033234
  0
TEXT
  8
1
 10
4268.457336
 20
-1405.981903
 40
10.101010
 50
359.002264
  1
后领织带18.8cm距后缝2.5cm
  0
TEXT
  8
1
 10
4183.778992
 20
-1957.250824
 40
53.000002
 50
0.000000
  1
裁片印花
  0
TEXT
  8
1
 10
4297.571411
 20
-1460.853271
 40
20.000000
 50
0.000000
  1
画位
 0
LINE
 8
11
 10
4305.855408
 20
-1415.881653
 11
4305.423584
 21
-1437.800140
 0
LINE
 8
11
 10
4305.423584
 20
-1437.800140
 11
4328.016663
 21
-1438.252869
 0
LINE
 8
11
 10
4328.016663
 20
-1438.252869
 11
4328.449097
 21
-1416.334839
 0
LINE
 8
11
 10
4328.449097
 20
-1416.334839
 11
4305.855408
 21
-1415.881653
 0
LINE
 8
11
 10
4305.639648
 20
-1426.840820
 11
4328.232727
 21
-1427.294006
 0
LINE
 8
11
 10
4316.720276
 20
-1438.026581
 11
4317.152405
 21
-1416.108398
  0
TEXT
  8
1
 10
4316.882019
 20
-1736.358337
 40
10.000000
 50
0.000000
  1
PIECE NAME: C2590045莓汁红.后片
  0
TEXT
  8
1
 10
4316.882019
 20
-1721.358337
 40
10.000000
 50
0.000000
  1
Size: L
  0
TEXT
  8
1
 10
4316.882019
 20
-1706.358337
 40
10.000000
 50
0.000000
  1
ANNOTATION: 面料A X1
  0
TEXT
  8
1
 10
4316.882019
 20
-1691.358337
 40
10.000000
 50
0.000000
  1
QUANTITY: 1
  0
TEXT
  8
1
 10
4316.882019
 20
-1676.358337
 40
10.000000
 50
0.000000
  1
FABRIC: 面料A
  0
TEXT
  8
1
 10
4316.882019
 20
-1661.358337
 40
10.000000
 50
0.000000
  1
CATEGORY: 后片
  0
TEXT
  8
1
 10
4316.882019
 20
-1646.358337
 40
10.000000
 50
0.000000
  1
SHRINKAGE: 经:1.0%，纬:0.0%
0
ENDBLK
0
BLOCK
  8
1
  2
C2590045莓汁红.前片_面料A_L
 70
0
 10
0.0
 20
0.0
  0
POLYLINE
  8
1
  66
1
  70
1
  0
VERTEX
  8
1
  10
5297.247408
  20
-2093.506775
  0
VERTEX
  8
1
  10
5099.395254
  20
-2093.501665
  0
VERTEX
  8
1
  10
5099.699089
  20
-2073.501673
  0
VERTEX
  8
1
  10
5099.008911
  20
-2028.070562
  0
VERTEX
  8
1
  10
5098.063291
  20
-1992.737008
  0
VERTEX
  8
1
  10
5097.650566
  20
-1977.315320
  0
VERTEX
  8
1
  10
5097.265771
  20
-1962.637432
  0
VERTEX
  8
1
  10
5096.306214
  20
-1926.035434
  0
VERTEX
  8
1
  10
5095.266808
  20
-1875.186456
  0
VERTEX
  8
1
  10
5094.511148
  20
-1839.895271
  0
VERTEX
  8
1
  10
5094.172188
  20
-1824.064986
  0
VERTEX
  8
1
  10
5092.840946
  20
-1773.299283
  0
VERTEX
  8
1
  10
5091.188190
  20
-1722.801434
  0
VERTEX
  8
1
  10
5090.496896
  20
-1707.915031
  0
VERTEX
  8
1
  10
5090.095236
  20
-1699.265652
  0
VERTEX
  8
1
  10
5089.820372
  20
-1695.193297
  0
VERTEX
  8
1
  10
5088.588804
  20
-1676.946542
  0
VERTEX
  8
1
  10
5086.807558
  20
-1655.980871
  0
VERTEX
  8
1
  10
5086.538127
  20
-1654.238824
  0
VERTEX
  8
1
  10
5085.613026
  20
-1648.257437
  0
VERTEX
  8
1
  10
5084.220163
  20
-1642.551793
  0
VERTEX
  8
1
  10
5082.253878
  20
-1636.940152
  0
VERTEX
  8
1
  10
5079.735010
  20
-1631.300260
  0
VERTEX
  8
1
  10
5075.984082
  20
-1624.204819
  0
VERTEX
  8
1
  10
5073.364850
  20
-1619.751206
  0
VERTEX
  8
1
  10
5066.094564
  20
-1620.829432
  0
VERTEX
  8
1
  10
5061.847162
  20
-1613.428846
  0
VERTEX
  8
1
  10
5032.878064
  20
-1611.246093
  0
VERTEX
  8
1
  10
5026.610019
  20
-1610.887497
  0
VERTEX
  8
1
  10
5009.620211
  20
-1609.915508
  0
VERTEX
  8
1
  10
4992.717307
  20
-1609.398081
  0
VERTEX
  8
1
  10
4986.660336
  20
-1609.429958
  0
VERTEX
  8
1
  10
4980.166420
  20
-1609.464135
  0
VERTEX
  8
1
  10
4967.763377
  20
-1610.059756
  0
VERTEX
  8
1
  10
4957.564892
  20
-1611.049291
  0
VERTEX
  8
1
  10
4947.246058
  20
-1612.606161
  0
VERTEX
  8
1
  10
4937.424502
  20
-1614.599464
  0
VERTEX
  8
1
  10
4926.729589
  20
-1617.225923
  0
VERTEX
  8
1
  10
4915.983179
  20
-1620.289361
  0
VERTEX
  8
1
  10
4911.601211
  20
-1621.680118
  0
VERTEX
  8
1
  10
4907.364068
  20
-1623.464064
  0
VERTEX
  8
1
  10
4897.198095
  20
-1628.103349
  0
VERTEX
  8
1
  10
4893.362366
  20
-1630.027756
  0
VERTEX
  8
1
  10
4867.826134
  20
-1560.698571
  0
VERTEX
  8
1
  10
4846.775620
  20
-1503.547812
  0
VERTEX
  8
1
  10
4843.380829
  20
-1494.331179
  0
VERTEX
  8
1
  10
4829.098995
  20
-1455.556941
  0
VERTEX
  8
1
  10
4809.616382
  20
-1402.662928
  0
VERTEX
  8
1
  10
4791.381711
  20
-1353.156999
  0
VERTEX
  8
1
  10
4800.035194
  20
-1350.830459
  0
VERTEX
  8
1
  10
4810.577649
  20
-1347.407803
  0
VERTEX
  8
1
  10
4820.821408
  20
-1343.174209
  0
VERTEX
  8
1
  10
4829.685240
  20
-1338.966797
  0
VERTEX
  8
1
  10
4837.953402
  20
-1334.543953
  0
VERTEX
  8
1
  10
4844.675255
  20
-1330.490253
  0
VERTEX
  8
1
  10
4850.572293
  20
-1326.470992
  0
VERTEX
  8
1
  10
4856.867085
  20
-1321.626497
  0
VERTEX
  8
1
  10
4862.985308
  20
-1316.391155
  0
VERTEX
  8
1
  10
4870.434464
  20
-1309.382536
  0
VERTEX
  8
1
  10
4879.167315
  20
-1300.443624
  0
VERTEX
  8
1
  10
4890.655109
  20
-1287.969895
  0
VERTEX
  8
1
  10
4923.639376
  20
-1251.744791
  0
VERTEX
  8
1
  10
4926.252281
  20
-1248.879964
  0
VERTEX
  8
1
  10
4929.915548
  20
-1244.858859
  0
VERTEX
  8
1
  10
4939.261003
  20
-1249.257070
  0
VERTEX
  8
1
  10
4955.793809
  20
-1257.131526
  0
VERTEX
  8
1
  10
4969.326571
  20
-1263.085700
  0
VERTEX
  8
1
  10
4980.938995
  20
-1267.750292
  0
VERTEX
  8
1
  10
4992.663057
  20
-1271.990883
  0
VERTEX
  8
1
  10
5002.659051
  20
-1275.200011
  0
VERTEX
  8
1
  10
5014.648832
  20
-1278.552464
  0
VERTEX
  8
1
  10
5028.206551
  20
-1281.852945
  0
VERTEX
  8
1
  10
5048.151934
  20
-1286.189587
  0
VERTEX
  8
1
  10
5070.079543
  20
-1290.823949
  0
VERTEX
  8
1
  10
5088.540522
  20
-1294.725645
  0
VERTEX
  8
1
  10
5106.474215
  20
-1298.935485
  0
VERTEX
  8
1
  10
5125.612542
  20
-1303.434720
  0
VERTEX
  8
1
  10
5138.459260
  20
-1305.984744
  0
VERTEX
  8
1
  10
5153.634280
  20
-1308.513228
  0
VERTEX
  8
1
  10
5160.468347
  20
-1309.486816
  0
VERTEX
  8
1
  10
5174.140147
  20
-1311.434515
  0
VERTEX
  8
1
  10
5202.814920
  20
-1315.141441
  0
VERTEX
  8
1
  10
5202.830272
  20
-1315.143426
  0
VERTEX
  8
1
  10
5218.926912
  20
-1317.254380
  0
VERTEX
  8
1
  10
5212.813370
  20
-1335.147748
  0
VERTEX
  8
1
  10
5211.165567
  20
-1341.205816
  0
VERTEX
  8
1
  10
5210.173804
  20
-1346.301202
  0
VERTEX
  8
1
  10
5210.131648
  20
-1346.672061
  0
VERTEX
  8
1
  10
5209.635366
  20
-1351.037964
  0
VERTEX
  8
1
  10
5209.396897
  20
-1356.776846
  0
VERTEX
  8
1
  10
5209.394449
  20
-1357.513802
  0
VERTEX
  8
1
  10
5210.762358
  20
-1368.645326
  0
VERTEX
  8
1
  10
5212.474979
  20
-1378.660552
  0
VERTEX
  8
1
  10
5214.405769
  20
-1387.289413
  0
VERTEX
  8
1
  10
5216.507771
  20
-1394.643680
  0
VERTEX
  8
1
  10
5219.042924
  20
-1401.820506
  0
VERTEX
  8
1
  10
5221.582279
  20
-1407.801113
  0
VERTEX
  8
1
  10
5223.986031
  20
-1412.676090
  0
VERTEX
  8
1
  10
5226.318644
  20
-1416.710552
  0
VERTEX
  8
1
  10
5227.761673
  20
-1419.206399
  0
VERTEX
  8
1
  10
5231.393474
  20
-1424.497829
  0
VERTEX
  8
1
  10
5235.383875
  20
-1429.436353
  0
VERTEX
  8
1
  10
5238.978487
  20
-1433.237263
  0
VERTEX
  8
1
  10
5242.814728
  20
-1436.716919
  0
VERTEX
  8
1
  10
5246.591646
  20
-1439.636197
  0
VERTEX
  8
1
  10
5250.939175
  20
-1442.484139
  0
VERTEX
  8
1
  10
5255.532906
  20
-1445.011755
  0
VERTEX
  8
1
  10
5260.332698
  20
-1447.212342
  0
VERTEX
  8
1
  10
5266.304893
  20
-1449.412977
  0
VERTEX
  8
1
  10
5272.437007
  20
-1451.125714
  0
VERTEX
  8
1
  10
5278.649949
  20
-1452.360306
  0
VERTEX
  8
1
  10
5285.666161
  20
-1453.295032
  0
VERTEX
  8
1
  10
5293.027976
  20
-1453.866400
  0
VERTEX
  8
1
  10
5297.248230
  20
-1454.000950
  0
VERTEX
  8
1
  10
5297.248535
  20
-1454.000940
  0
VERTEX
  8
1
  10
5301.468484
  20
-1453.866400
  0
VERTEX
  8
1
  10
5308.830299
  20
-1453.295032
  0
VERTEX
  8
1
  10
5315.846510
  20
-1452.360306
  0
VERTEX
  8
1
  10
5322.059453
  20
-1451.125714
  0
VERTEX
  8
1
  10
5328.191567
  20
-1449.412977
  0
VERTEX
  8
1
  10
5334.163762
  20
-1447.212342
  0
VERTEX
  8
1
  10
5338.963554
  20
-1445.011755
  0
VERTEX
  8
1
  10
5343.557285
  20
-1442.484139
  0
VERTEX
  8
1
  10
5347.904814
  20
-1439.636197
  0
VERTEX
  8
1
  10
5351.681732
  20
-1436.716919
  0
VERTEX
  8
1
  10
5355.517973
  20
-1433.237263
  0
VERTEX
  8
1
  10
5359.112585
  20
-1429.436353
  0
VERTEX
  8
1
  10
5363.102986
  20
-1424.497829
  0
VERTEX
  8
1
  10
5366.734787
  20
-1419.206399
  0
VERTEX
  8
1
  10
5368.177816
  20
-1416.710552
  0
VERTEX
  8
1
  10
5370.510429
  20
-1412.676090
  0
VERTEX
  8
1
  10
5372.914181
  20
-1407.801113
  0
VERTEX
  8
1
  10
5375.453536
  20
-1401.820506
  0
VERTEX
  8
1
  10
5377.988689
  20
-1394.643680
  0
VERTEX
  8
1
  10
5380.090691
  20
-1387.289413
  0
VERTEX
  8
1
  10
5382.021481
  20
-1378.660552
  0
VERTEX
  8
1
  10
5383.734102
  20
-1368.645326
  0
VERTEX
  8
1
  10
5385.102011
  20
-1357.513802
  0
VERTEX
  8
1
  10
5385.099563
  20
-1356.776846
  0
VERTEX
  8
1
  10
5384.861094
  20
-1351.037964
  0
VERTEX
  8
1
  10
5384.364812
  20
-1346.672061
  0
VERTEX
  8
1
  10
5384.322656
  20
-1346.301202
  0
VERTEX
  8
1
  10
5383.330892
  20
-1341.205816
  0
VERTEX
  8
1
  10
5381.683090
  20
-1335.147748
  0
VERTEX
  8
1
  10
5375.569548
  20
-1317.254381
  0
VERTEX
  8
1
  10
5391.666193
  20
-1315.143425
  0
VERTEX
  8
1
  10
5391.681541
  20
-1315.141441
  0
VERTEX
  8
1
  10
5420.356333
  20
-1311.434512
  0
VERTEX
  8
1
  10
5440.862226
  20
-1308.513220
  0
VERTEX
  8
1
  10
5456.037246
  20
-1305.984732
  0
VERTEX
  8
1
  10
5468.883648
  20
-1303.434765
  0
VERTEX
  8
1
  10
5488.021882
  20
-1298.935534
  0
VERTEX
  8
1
  10
5505.955855
  20
-1294.725619
  0
VERTEX
  8
1
  10
5524.416913
  20
-1290.823915
  0
VERTEX
  8
1
  10
5546.344573
  20
-1286.189553
  0
VERTEX
  8
1
  10
5566.289630
  20
-1281.852979
  0
VERTEX
  8
1
  10
5579.847286
  20
-1278.552507
  0
VERTEX
  8
1
  10
5591.837036
  20
-1275.200062
  0
VERTEX
  8
1
  10
5601.833308
  20
-1271.990849
  0
VERTEX
  8
1
  10
5613.557414
  20
-1267.750253
  0
VERTEX
  8
1
  10
5625.169888
  20
-1263.085662
  0
VERTEX
  8
1
  10
5638.702681
  20
-1257.131496
  0
VERTEX
  8
1
  10
5655.235469
  20
-1249.257062
  0
VERTEX
  8
1
  10
5664.580922
  20
-1244.858861
  0
VERTEX
  8
1
  10
5668.244187
  20
-1248.879971
  0
VERTEX
  8
1
  10
5670.857104
  20
-1251.744814
  0
VERTEX
  8
1
  10
5703.841243
  20
-1287.969848
  0
VERTEX
  8
1
  10
5715.328991
  20
-1300.443585
  0
VERTEX
  8
1
  10
5724.061798
  20
-1309.382502
  0
VERTEX
  8
1
  10
5731.510917
  20
-1316.391123
  0
VERTEX
  8
1
  10
5737.629112
  20
-1321.626467
  0
VERTEX
  8
1
  10
5743.923878
  20
-1326.470963
  0
VERTEX
  8
1
  10
5749.820951
  20
-1330.490260
  0
VERTEX
  8
1
  10
5756.542789
  20
-1334.543958
  0
VERTEX
  8
1
  10
5764.810936
  20
-1338.966801
  0
VERTEX
  8
1
  10
5773.674757
  20
-1343.174212
  0
VERTEX
  8
1
  10
5783.918498
  20
-1347.407800
  0
VERTEX
  8
1
  10
5794.460942
  20
-1350.830426
  0
VERTEX
  8
1
  10
5803.114451
  20
-1353.156951
  0
VERTEX
  8
1
  10
5784.879828
  20
-1402.662908
  0
VERTEX
  8
1
  10
5765.397277
  20
-1455.556921
  0
VERTEX
  8
1
  10
5751.115488
  20
-1494.331159
  0
VERTEX
  8
1
  10
5747.720709
  20
-1503.547793
  0
VERTEX
  8
1
  10
5726.670262
  20
-1560.698551
  0
VERTEX
  8
1
  10
5701.134109
  20
-1630.027747
  0
VERTEX
  8
1
  10
5697.298624
  20
-1628.103464
  0
VERTEX
  8
1
  10
5687.132532
  20
-1623.464124
  0
VERTEX
  8
1
  10
5682.895257
  20
-1621.680121
  0
VERTEX
  8
1
  10
5678.513149
  20
-1620.289331
  0
VERTEX
  8
1
  10
5667.766607
  20
-1617.225880
  0
VERTEX
  8
1
  10
5657.071604
  20
-1614.599421
  0
VERTEX
  8
1
  10
5647.249985
  20
-1612.606121
  0
VERTEX
  8
1
  10
5636.931577
  20
-1611.049317
  0
VERTEX
  8
1
  10
5626.733062
  20
-1610.059767
  0
VERTEX
  8
1
  10
5614.329997
  20
-1609.464134
  0
VERTEX
  8
1
  10
5607.835814
  20
-1609.429952
  0
VERTEX
  8
1
  10
5601.779095
  20
-1609.398073
  0
VERTEX
  8
1
  10
5584.876180
  20
-1609.915496
  0
VERTEX
  8
1
  10
5567.885963
  20
-1610.887508
  0
VERTEX
  8
1
  10
5561.618069
  20
-1611.246095
  0
VERTEX
  8
1
  10
5532.648993
  20
-1613.428846
  0
VERTEX
  8
1
  10
5528.401591
  20
-1620.829432
  0
VERTEX
  8
1
  10
5521.131306
  20
-1619.751206
  0
VERTEX
  8
1
  10
5518.512070
  20
-1624.204828
  0
VERTEX
  8
1
  10
5514.761138
  20
-1631.300284
  0
VERTEX
  8
1
  10
5512.242269
  20
-1636.940186
  0
VERTEX
  8
1
  10
5510.275985
  20
-1642.551833
  0
VERTEX
  8
1
  10
5508.883130
  20
-1648.257443
  0
VERTEX
  8
1
  10
5507.957956
  20
-1654.239329
  0
VERTEX
  8
1
  10
5507.688606
  20
-1655.980862
  0
VERTEX
  8
1
  10
5505.907451
  20
-1676.946483
  0
VERTEX
  8
1
  10
5504.675990
  20
-1695.193459
  0
VERTEX
  8
1
  10
5504.401166
  20
-1699.265619
  0
VERTEX
  8
1
  10
5503.999527
  20
-1707.915009
  0
VERTEX
  8
1
  10
5503.308267
  20
-1722.801432
  0
VERTEX
  8
1
  10
5501.655514
  20
-1773.299309
  0
VERTEX
  8
1
  10
5500.324271
  20
-1824.064995
  0
VERTEX
  8
1
  10
5499.985311
  20
-1839.895271
  0
VERTEX
  8
1
  10
5499.229651
  20
-1875.186478
  0
VERTEX
  8
1
  10
5498.190221
  20
-1926.035449
  0
VERTEX
  8
1
  10
5497.230591
  20
-1962.637447
  0
VERTEX
  8
1
  10
5496.845766
  20
-1977.315363
  0
VERTEX
  8
1
  10
5496.433026
  20
-1992.737013
  0
VERTEX
  8
1
  10
5495.487370
  20
-2028.070558
  0
VERTEX
  8
1
  10
5494.797371
  20
-2073.501673
  0
VERTEX
  8
1
  10
5495.101127
  20
-2093.501665
  0
VERTEX
  8
1
  10
5297.247408
  20
-2093.506775
  0
SEQEND
  8
1
  0
POINT
  8
2
 10
5297.247408
 20
-2093.506775
  0
TEXT
  8
2
 10
5297.247408
 20
-2093.506775
 40
0.000000
 50
0.000000
  1
# 128
  0
POINT
  8
2
 10
5099.395254
 20
-2093.501665
  0
TEXT
  8
2
 10
5099.395254
 20
-2093.501665
 40
0.000000
 50
0.000000
  1
# 129
  0
POINT
  8
2
 10
5099.699089
 20
-2073.501673
  0
TEXT
  8
2
 10
5099.699089
 20
-2073.501673
 40
0.000000
 50
0.000000
  1
# 130
  0
POINT
  8
2
 10
5073.364850
 20
-1619.751206
  0
TEXT
  8
2
 10
5073.364850
 20
-1619.751206
 40
0.000000
 50
0.000000
  1
# 131
  0
POINT
  8
2
 10
5066.094564
 20
-1620.829432
  0
TEXT
  8
2
 10
5066.094564
 20
-1620.829432
 40
0.000000
 50
0.000000
  1
# 132
  0
POINT
  8
2
 10
5061.847162
 20
-1613.428846
  0
TEXT
  8
2
 10
5061.847162
 20
-1613.428846
 40
0.000000
 50
0.000000
  1
# 133
  0
POINT
  8
2
 10
4911.601211
 20
-1621.680118
  0
TEXT
  8
2
 10
4911.601211
 20
-1621.680118
 40
0.000000
 50
0.000000
  1
# 134
  0
POINT
  8
2
 10
4893.362366
 20
-1630.027756
  0
TEXT
  8
2
 10
4893.362366
 20
-1630.027756
 40
0.000000
 50
0.000000
  1
# 135
  0
POINT
  8
2
 10
4791.381711
 20
-1353.156999
  0
TEXT
  8
2
 10
4791.381711
 20
-1353.156999
 40
0.000000
 50
0.000000
  1
# 136
  0
POINT
  8
2
 10
4810.577649
 20
-1347.407803
  0
TEXT
  8
2
 10
4810.577649
 20
-1347.407803
 40
0.000000
 50
0.000000
  1
# 137
  0
POINT
  8
2
 10
4929.915548
 20
-1244.858859
  0
TEXT
  8
2
 10
4929.915548
 20
-1244.858859
 40
0.000000
 50
0.000000
  1
# 138
  0
POINT
  8
2
 10
5218.926912
 20
-1317.254380
  0
TEXT
  8
2
 10
5218.926912
 20
-1317.254380
 40
0.000000
 50
0.000000
  1
# 139
  0
POINT
  8
2
 10
5209.394449
 20
-1357.513802
  0
TEXT
  8
2
 10
5209.394449
 20
-1357.513802
 40
0.000000
 50
0.000000
  1
# 140
  0
POINT
  8
2
 10
5297.248230
 20
-1454.000950
  0
TEXT
  8
2
 10
5297.248230
 20
-1454.000950
 40
0.000000
 50
0.000000
  1
# 141
  0
POINT
  8
2
 10
5385.102011
 20
-1357.513802
  0
TEXT
  8
2
 10
5385.102011
 20
-1357.513802
 40
0.000000
 50
0.000000
  1
# 142
  0
POINT
  8
2
 10
5375.569548
 20
-1317.254381
  0
TEXT
  8
2
 10
5375.569548
 20
-1317.254381
 40
0.000000
 50
0.000000
  1
# 143
  0
POINT
  8
2
 10
5664.580922
 20
-1244.858861
  0
TEXT
  8
2
 10
5664.580922
 20
-1244.858861
 40
0.000000
 50
0.000000
  1
# 144
  0
POINT
  8
2
 10
5783.918498
 20
-1347.407800
  0
TEXT
  8
2
 10
5783.918498
 20
-1347.407800
 40
0.000000
 50
0.000000
  1
# 145
  0
POINT
  8
2
 10
5803.114451
 20
-1353.156951
  0
TEXT
  8
2
 10
5803.114451
 20
-1353.156951
 40
0.000000
 50
0.000000
  1
# 146
  0
POINT
  8
2
 10
5701.134109
 20
-1630.027747
  0
TEXT
  8
2
 10
5701.134109
 20
-1630.027747
 40
0.000000
 50
0.000000
  1
# 147
  0
POINT
  8
2
 10
5682.895257
 20
-1621.680121
  0
TEXT
  8
2
 10
5682.895257
 20
-1621.680121
 40
0.000000
 50
0.000000
  1
# 148
  0
POINT
  8
2
 10
5532.648993
 20
-1613.428846
  0
TEXT
  8
2
 10
5532.648993
 20
-1613.428846
 40
0.000000
 50
0.000000
  1
# 149
  0
POINT
  8
2
 10
5528.401591
 20
-1620.829432
  0
TEXT
  8
2
 10
5528.401591
 20
-1620.829432
 40
0.000000
 50
0.000000
  1
# 150
  0
POINT
  8
2
 10
5521.131306
 20
-1619.751206
  0
TEXT
  8
2
 10
5521.131306
 20
-1619.751206
 40
0.000000
 50
0.000000
  1
# 151
  0
POINT
  8
2
 10
5494.797371
 20
-2073.501673
  0
TEXT
  8
2
 10
5494.797371
 20
-2073.501673
 40
0.000000
 50
0.000000
  1
# 152
  0
POINT
  8
2
 10
5495.101127
 20
-2093.501665
  0
TEXT
  8
2
 10
5495.101127
 20
-2093.501665
 40
0.000000
 50
0.000000
  1
# 153
  0
POINT
  8
2
 10
5297.247408
 20
-2093.506775
  0
TEXT
  8
2
 10
5297.247408
 20
-2093.506775
 40
0.000000
 50
0.000000
  1
# 154
  0
POINT
  8
3
 10
5099.008911
 20
-2028.070562
  0
POINT
  8
3
 10
5098.063291
 20
-1992.737008
  0
POINT
  8
3
 10
5097.650566
 20
-1977.315320
  0
POINT
  8
3
 10
5097.265771
 20
-1962.637432
  0
POINT
  8
3
 10
5096.306214
 20
-1926.035434
  0
POINT
  8
3
 10
5095.266808
 20
-1875.186456
  0
POINT
  8
3
 10
5094.511148
 20
-1839.895271
  0
POINT
  8
3
 10
5094.172188
 20
-1824.064986
  0
POINT
  8
3
 10
5092.840946
 20
-1773.299283
  0
POINT
  8
3
 10
5091.188190
 20
-1722.801434
  0
POINT
  8
3
 10
5090.496896
 20
-1707.915031
  0
POINT
  8
3
 10
5090.095236
 20
-1699.265652
  0
POINT
  8
3
 10
5089.820372
 20
-1695.193297
  0
POINT
  8
3
 10
5088.588804
 20
-1676.946542
  0
POINT
  8
3
 10
5086.807558
 20
-1655.980871
  0
POINT
  8
3
 10
5086.538127
 20
-1654.238824
  0
POINT
  8
3
 10
5085.613026
 20
-1648.257437
  0
POINT
  8
3
 10
5084.220163
 20
-1642.551793
  0
POINT
  8
3
 10
5082.253878
 20
-1636.940152
  0
POINT
  8
3
 10
5079.735010
 20
-1631.300260
  0
POINT
  8
3
 10
5075.984082
 20
-1624.204819
  0
POINT
  8
3
 10
5032.878064
 20
-1611.246093
  0
POINT
  8
3
 10
5026.610019
 20
-1610.887497
  0
POINT
  8
3
 10
5009.620211
 20
-1609.915508
  0
POINT
  8
3
 10
4992.717307
 20
-1609.398081
  0
POINT
  8
3
 10
4986.660336
 20
-1609.429958
  0
POINT
  8
3
 10
4980.166420
 20
-1609.464135
  0
POINT
  8
3
 10
4967.763377
 20
-1610.059756
  0
POINT
  8
3
 10
4957.564892
 20
-1611.049291
  0
POINT
  8
3
 10
4947.246058
 20
-1612.606161
  0
POINT
  8
3
 10
4937.424502
 20
-1614.599464
  0
POINT
  8
3
 10
4926.729589
 20
-1617.225923
  0
POINT
  8
3
 10
4915.983179
 20
-1620.289361
  0
POINT
  8
3
 10
4907.364068
 20
-1623.464064
  0
POINT
  8
3
 10
4897.198095
 20
-1628.103349
  0
POINT
  8
3
 10
4867.826134
 20
-1560.698571
  0
POINT
  8
3
 10
4846.775620
 20
-1503.547812
  0
POINT
  8
3
 10
4843.380829
 20
-1494.331179
  0
POINT
  8
3
 10
4829.098995
 20
-1455.556941
  0
POINT
  8
3
 10
4809.616382
 20
-1402.662928
  0
POINT
  8
3
 10
4800.035194
 20
-1350.830459
  0
POINT
  8
3
 10
4820.821408
 20
-1343.174209
  0
POINT
  8
3
 10
4829.685240
 20
-1338.966797
  0
POINT
  8
3
 10
4837.953402
 20
-1334.543953
  0
POINT
  8
3
 10
4844.675255
 20
-1330.490253
  0
POINT
  8
3
 10
4850.572293
 20
-1326.470992
  0
POINT
  8
3
 10
4856.867085
 20
-1321.626497
  0
POINT
  8
3
 10
4862.985308
 20
-1316.391155
  0
POINT
  8
3
 10
4870.434464
 20
-1309.382536
  0
POINT
  8
3
 10
4879.167315
 20
-1300.443624
  0
POINT
  8
3
 10
4890.655109
 20
-1287.969895
  0
POINT
  8
3
 10
4923.639376
 20
-1251.744791
  0
POINT
  8
3
 10
4926.252281
 20
-1248.879964
  0
POINT
  8
3
 10
4939.261003
 20
-1249.257070
  0
POINT
  8
3
 10
4955.793809
 20
-1257.131526
  0
POINT
  8
3
 10
4969.326571
 20
-1263.085700
  0
POINT
  8
3
 10
4980.938995
 20
-1267.750292
  0
POINT
  8
3
 10
4992.663057
 20
-1271.990883
  0
POINT
  8
3
 10
5002.659051
 20
-1275.200011
  0
POINT
  8
3
 10
5014.648832
 20
-1278.552464
  0
POINT
  8
3
 10
5028.206551
 20
-1281.852945
  0
POINT
  8
3
 10
5048.151934
 20
-1286.189587
  0
POINT
  8
3
 10
5070.079543
 20
-1290.823949
  0
POINT
  8
3
 10
5088.540522
 20
-1294.725645
  0
POINT
  8
3
 10
5106.474215
 20
-1298.935485
  0
POINT
  8
3
 10
5125.612542
 20
-1303.434720
  0
POINT
  8
3
 10
5138.459260
 20
-1305.984744
  0
POINT
  8
3
 10
5153.634280
 20
-1308.513228
  0
POINT
  8
3
 10
5160.468347
 20
-1309.486816
  0
POINT
  8
3
 10
5174.140147
 20
-1311.434515
  0
POINT
  8
3
 10
5202.814920
 20
-1315.141441
  0
POINT
  8
3
 10
5202.830272
 20
-1315.143426
  0
POINT
  8
3
 10
5212.813370
 20
-1335.147748
  0
POINT
  8
3
 10
5211.165567
 20
-1341.205816
  0
POINT
  8
3
 10
5210.173804
 20
-1346.301202
  0
POINT
  8
3
 10
5210.131648
 20
-1346.672061
  0
POINT
  8
3
 10
5209.635366
 20
-1351.037964
  0
POINT
  8
3
 10
5209.396897
 20
-1356.776846
  0
POINT
  8
3
 10
5210.762358
 20
-1368.645326
  0
POINT
  8
3
 10
5212.474979
 20
-1378.660552
  0
POINT
  8
3
 10
5214.405769
 20
-1387.289413
  0
POINT
  8
3
 10
5216.507771
 20
-1394.643680
  0
POINT
  8
3
 10
5219.042924
 20
-1401.820506
  0
POINT
  8
3
 10
5221.582279
 20
-1407.801113
  0
POINT
  8
3
 10
5223.986031
 20
-1412.676090
  0
POINT
  8
3
 10
5226.318644
 20
-1416.710552
  0
POINT
  8
3
 10
5227.761673
 20
-1419.206399
  0
POINT
  8
3
 10
5231.393474
 20
-1424.497829
  0
POINT
  8
3
 10
5235.383875
 20
-1429.436353
  0
POINT
  8
3
 10
5238.978487
 20
-1433.237263
  0
POINT
  8
3
 10
5242.814728
 20
-1436.716919
  0
POINT
  8
3
 10
5246.591646
 20
-1439.636197
  0
POINT
  8
3
 10
5250.939175
 20
-1442.484139
  0
POINT
  8
3
 10
5255.532906
 20
-1445.011755
  0
POINT
  8
3
 10
5260.332698
 20
-1447.212342
  0
POINT
  8
3
 10
5266.304893
 20
-1449.412977
  0
POINT
  8
3
 10
5272.437007
 20
-1451.125714
  0
POINT
  8
3
 10
5278.649949
 20
-1452.360306
  0
POINT
  8
3
 10
5285.666161
 20
-1453.295032
  0
POINT
  8
3
 10
5293.027976
 20
-1453.866400
  0
POINT
  8
3
 10
5297.248535
 20
-1454.000940
  0
POINT
  8
3
 10
5301.468484
 20
-1453.866400
  0
POINT
  8
3
 10
5308.830299
 20
-1453.295032
  0
POINT
  8
3
 10
5315.846510
 20
-1452.360306
  0
POINT
  8
3
 10
5322.059453
 20
-1451.125714
  0
POINT
  8
3
 10
5328.191567
 20
-1449.412977
  0
POINT
  8
3
 10
5334.163762
 20
-1447.212342
  0
POINT
  8
3
 10
5338.963554
 20
-1445.011755
  0
POINT
  8
3
 10
5343.557285
 20
-1442.484139
  0
POINT
  8
3
 10
5347.904814
 20
-1439.636197
  0
POINT
  8
3
 10
5351.681732
 20
-1436.716919
  0
POINT
  8
3
 10
5355.517973
 20
-1433.237263
  0
POINT
  8
3
 10
5359.112585
 20
-1429.436353
  0
POINT
  8
3
 10
5363.102986
 20
-1424.497829
  0
POINT
  8
3
 10
5366.734787
 20
-1419.206399
  0
POINT
  8
3
 10
5368.177816
 20
-1416.710552
  0
POINT
  8
3
 10
5370.510429
 20
-1412.676090
  0
POINT
  8
3
 10
5372.914181
 20
-1407.801113
  0
POINT
  8
3
 10
5375.453536
 20
-1401.820506
  0
POINT
  8
3
 10
5377.988689
 20
-1394.643680
  0
POINT
  8
3
 10
5380.090691
 20
-1387.289413
  0
POINT
  8
3
 10
5382.021481
 20
-1378.660552
  0
POINT
  8
3
 10
5383.734102
 20
-1368.645326
  0
POINT
  8
3
 10
5385.099563
 20
-1356.776846
  0
POINT
  8
3
 10
5384.861094
 20
-1351.037964
  0
POINT
  8
3
 10
5384.364812
 20
-1346.672061
  0
POINT
  8
3
 10
5384.322656
 20
-1346.301202
  0
POINT
  8
3
 10
5383.330892
 20
-1341.205816
  0
POINT
  8
3
 10
5381.683090
 20
-1335.147748
  0
POINT
  8
3
 10
5391.666193
 20
-1315.143425
  0
POINT
  8
3
 10
5391.681541
 20
-1315.141441
  0
POINT
  8
3
 10
5420.356333
 20
-1311.434512
  0
POINT
  8
3
 10
5440.862226
 20
-1308.513220
  0
POINT
  8
3
 10
5456.037246
 20
-1305.984732
  0
POINT
  8
3
 10
5468.883648
 20
-1303.434765
  0
POINT
  8
3
 10
5488.021882
 20
-1298.935534
  0
POINT
  8
3
 10
5505.955855
 20
-1294.725619
  0
POINT
  8
3
 10
5524.416913
 20
-1290.823915
  0
POINT
  8
3
 10
5546.344573
 20
-1286.189553
  0
POINT
  8
3
 10
5566.289630
 20
-1281.852979
  0
POINT
  8
3
 10
5579.847286
 20
-1278.552507
  0
POINT
  8
3
 10
5591.837036
 20
-1275.200062
  0
POINT
  8
3
 10
5601.833308
 20
-1271.990849
  0
POINT
  8
3
 10
5613.557414
 20
-1267.750253
  0
POINT
  8
3
 10
5625.169888
 20
-1263.085662
  0
POINT
  8
3
 10
5638.702681
 20
-1257.131496
  0
POINT
  8
3
 10
5655.235469
 20
-1249.257062
  0
POINT
  8
3
 10
5668.244187
 20
-1248.879971
  0
POINT
  8
3
 10
5670.857104
 20
-1251.744814
  0
POINT
  8
3
 10
5703.841243
 20
-1287.969848
  0
POINT
  8
3
 10
5715.328991
 20
-1300.443585
  0
POINT
  8
3
 10
5724.061798
 20
-1309.382502
  0
POINT
  8
3
 10
5731.510917
 20
-1316.391123
  0
POINT
  8
3
 10
5737.629112
 20
-1321.626467
  0
POINT
  8
3
 10
5743.923878
 20
-1326.470963
  0
POINT
  8
3
 10
5749.820951
 20
-1330.490260
  0
POINT
  8
3
 10
5756.542789
 20
-1334.543958
  0
POINT
  8
3
 10
5764.810936
 20
-1338.966801
  0
POINT
  8
3
 10
5773.674757
 20
-1343.174212
  0
POINT
  8
3
 10
5794.460942
 20
-1350.830426
  0
POINT
  8
3
 10
5784.879828
 20
-1402.662908
  0
POINT
  8
3
 10
5765.397277
 20
-1455.556921
  0
POINT
  8
3
 10
5751.115488
 20
-1494.331159
  0
POINT
  8
3
 10
5747.720709
 20
-1503.547793
  0
POINT
  8
3
 10
5726.670262
 20
-1560.698551
  0
POINT
  8
3
 10
5697.298624
 20
-1628.103464
  0
POINT
  8
3
 10
5687.132532
 20
-1623.464124
  0
POINT
  8
3
 10
5678.513149
 20
-1620.289331
  0
POINT
  8
3
 10
5667.766607
 20
-1617.225880
  0
POINT
  8
3
 10
5657.071604
 20
-1614.599421
  0
POINT
  8
3
 10
5647.249985
 20
-1612.606121
  0
POINT
  8
3
 10
5636.931577
 20
-1611.049317
  0
POINT
  8
3
 10
5626.733062
 20
-1610.059767
  0
POINT
  8
3
 10
5614.329997
 20
-1609.464134
  0
POINT
  8
3
 10
5607.835814
 20
-1609.429952
  0
POINT
  8
3
 10
5601.779095
 20
-1609.398073
  0
POINT
  8
3
 10
5584.876180
 20
-1609.915496
  0
POINT
  8
3
 10
5567.885963
 20
-1610.887508
  0
POINT
  8
3
 10
5561.618069
 20
-1611.246095
  0
POINT
  8
3
 10
5518.512070
 20
-1624.204828
  0
POINT
  8
3
 10
5514.761138
 20
-1631.300284
  0
POINT
  8
3
 10
5512.242269
 20
-1636.940186
  0
POINT
  8
3
 10
5510.275985
 20
-1642.551833
  0
POINT
  8
3
 10
5508.883130
 20
-1648.257443
  0
POINT
  8
3
 10
5507.957956
 20
-1654.239329
  0
POINT
  8
3
 10
5507.688606
 20
-1655.980862
  0
POINT
  8
3
 10
5505.907451
 20
-1676.946483
  0
POINT
  8
3
 10
5504.675990
 20
-1695.193459
  0
POINT
  8
3
 10
5504.401166
 20
-1699.265619
  0
POINT
  8
3
 10
5503.999527
 20
-1707.915009
  0
POINT
  8
3
 10
5503.308267
 20
-1722.801432
  0
POINT
  8
3
 10
5501.655514
 20
-1773.299309
  0
POINT
  8
3
 10
5500.324271
 20
-1824.064995
  0
POINT
  8
3
 10
5499.985311
 20
-1839.895271
  0
POINT
  8
3
 10
5499.229651
 20
-1875.186478
  0
POINT
  8
3
 10
5498.190221
 20
-1926.035449
  0
POINT
  8
3
 10
5497.230591
 20
-1962.637447
  0
POINT
  8
3
 10
5496.845766
 20
-1977.315363
  0
POINT
  8
3
 10
5496.433026
 20
-1992.737013
  0
POINT
  8
3
 10
5495.487370
 20
-2028.070558
  0
POINT
  8
3
 10
5097.265771
 20
-1962.637432
  0
TEXT
  8
3
 10
5097.265771
 20
-1962.637432
 40
0.000000
 50
0.000000
  1
# 155
  0
POINT
  8
3
 10
5089.820372
 20
-1695.193297
  0
TEXT
  8
3
 10
5089.820372
 20
-1695.193297
 40
0.000000
 50
0.000000
  1
# 156
  0
POINT
  8
3
 10
5086.538127
 20
-1654.238824
  0
TEXT
  8
3
 10
5086.538127
 20
-1654.238824
 40
0.000000
 50
0.000000
  1
# 157
  0
POINT
  8
3
 10
5026.610019
 20
-1610.887497
  0
TEXT
  8
3
 10
5026.610019
 20
-1610.887497
 40
0.000000
 50
0.000000
  1
# 158
  0
POINT
  8
3
 10
4843.380829
 20
-1494.331179
  0
TEXT
  8
3
 10
4843.380829
 20
-1494.331179
 40
0.000000
 50
0.000000
  1
# 159
  0
POINT
  8
3
 10
5202.814920
 20
-1315.141441
  0
TEXT
  8
3
 10
5202.814920
 20
-1315.141441
 40
0.000000
 50
0.000000
  1
# 160
  0
POINT
  8
3
 10
5210.131648
 20
-1346.672061
  0
TEXT
  8
3
 10
5210.131648
 20
-1346.672061
 40
0.000000
 50
0.000000
  1
# 161
  0
POINT
  8
3
 10
5384.364812
 20
-1346.672061
  0
TEXT
  8
3
 10
5384.364812
 20
-1346.672061
 40
0.000000
 50
0.000000
  1
# 162
  0
POINT
  8
3
 10
5391.681541
 20
-1315.141441
  0
TEXT
  8
3
 10
5391.681541
 20
-1315.141441
 40
0.000000
 50
0.000000
  1
# 163
  0
POINT
  8
3
 10
5751.115488
 20
-1494.331159
  0
TEXT
  8
3
 10
5751.115488
 20
-1494.331159
 40
0.000000
 50
0.000000
  1
# 164
  0
POINT
  8
3
 10
5567.885963
 20
-1610.887508
  0
TEXT
  8
3
 10
5567.885963
 20
-1610.887508
 40
0.000000
 50
0.000000
  1
# 165
  0
POINT
  8
3
 10
5507.957956
 20
-1654.239329
  0
TEXT
  8
3
 10
5507.957956
 20
-1654.239329
 40
0.000000
 50
0.000000
  1
# 166
  0
POINT
  8
3
 10
5504.675990
 20
-1695.193459
  0
TEXT
  8
3
 10
5504.675990
 20
-1695.193459
 40
0.000000
 50
0.000000
  1
# 167
  0
POINT
  8
3
 10
5497.230591
 20
-1962.637447
  0
TEXT
  8
3
 10
5497.230591
 20
-1962.637447
 40
0.000000
 50
0.000000
  1
# 168
  0
POINT
  8
4
 10
5098.063291
 20
-1992.737008
 30
0.600000
 50
  1.53
  0
TEXT
  8
4
 10
5098.063291
 20
-1992.737008
 40
0.000000
 50
0.000000
  1
# 169
  0
POINT
  8
4
 10
5094.511148
 20
-1839.895271
 30
0.600000
 50
  1.23
  0
TEXT
  8
4
 10
5094.511148
 20
-1839.895271
 40
0.000000
 50
0.000000
  1
# 170
  0
POINT
  8
4
 10
5090.496896
 20
-1707.915031
 30
0.600000
 50
  2.66
  0
TEXT
  8
4
 10
5090.496896
 20
-1707.915031
 40
0.000000
 50
0.000000
  1
# 171
  0
POINT
  8
4
 10
4986.660336
 20
-1609.429958
 30
0.600000
 50
 90.30
  0
TEXT
  8
4
 10
4986.660336
 20
-1609.429958
 40
0.000000
 50
0.000000
  1
# 172
  0
POINT
  8
4
 10
5070.079543
 20
-1290.823949
 30
0.600000
 50
258.07
  0
TEXT
  8
4
 10
5070.079543
 20
-1290.823949
 40
0.000000
 50
0.000000
  1
# 173
  0
POINT
  8
4
 10
5160.468347
 20
-1309.486816
 30
0.600000
 50
261.89
  0
TEXT
  8
4
 10
5160.468347
 20
-1309.486816
 40
0.000000
 50
0.000000
  1
# 174
  0
POINT
  8
4
 10
5226.318644
 20
-1416.710552
 30
0.600000
 50
210.04
  0
TEXT
  8
4
 10
5226.318644
 20
-1416.710552
 40
0.000000
 50
0.000000
  1
# 175
  0
POINT
  8
4
 10
5297.248535
 20
-1454.000940
 30
0.600000
 50
270.00
  0
TEXT
  8
4
 10
5297.248535
 20
-1454.000940
 40
0.000000
 50
0.000000
  1
# 176
  0
POINT
  8
4
 10
5368.177816
 20
-1416.710552
 30
0.600000
 50
329.96
  0
TEXT
  8
4
 10
5368.177816
 20
-1416.710552
 40
0.000000
 50
0.000000
  1
# 177
  0
POINT
  8
4
 10
5524.416913
 20
-1290.823915
 30
0.600000
 50
281.93
  0
TEXT
  8
4
 10
5524.416913
 20
-1290.823915
 40
0.000000
 50
0.000000
  1
# 178
  0
POINT
  8
4
 10
5607.835814
 20
-1609.429952
 30
0.600000
 50
 89.70
  0
TEXT
  8
4
 10
5607.835814
 20
-1609.429952
 40
0.000000
 50
0.000000
  1
# 179
  0
POINT
  8
4
 10
5503.999527
 20
-1707.915009
 30
0.600000
 50
177.34
  0
TEXT
  8
4
 10
5503.999527
 20
-1707.915009
 40
0.000000
 50
0.000000
  1
# 180
  0
POINT
  8
4
 10
5499.985311
 20
-1839.895271
 30
0.600000
 50
178.77
  0
TEXT
  8
4
 10
5499.985311
 20
-1839.895271
 40
0.000000
 50
0.000000
  1
# 181
  0
POINT
  8
4
 10
5496.433026
 20
-1992.737013
 30
0.600000
 50
178.47
  0
TEXT
  8
4
 10
5496.433026
 20
-1992.737013
 40
0.000000
 50
0.000000
  1
# 182
  0
POLYLINE
  8
8
  66
1
  70
1
  0
VERTEX
  8
8
  10
5297.247925
  20
-2073.506775
  0
VERTEX
  8
8
  10
5108.200073
  20
-2073.501892
  0
VERTEX
  8
8
  10
5107.506918
  20
-2027.886505
  0
VERTEX
  8
8
  10
5106.594238
  20
-1992.508698
  0
VERTEX
  8
8
  10
5106.146973
  20
-1977.068193
  0
VERTEX
  8
8
  10
5105.726084
  20
-1962.415636
  0
VERTEX
  8
8
  10
5104.804091
  20
-1925.845469
  0
VERTEX
  8
8
  10
5103.765143
  20
-1875.018219
  0
VERTEX
  8
8
  10
5103.031616
  20
-1839.712830
  0
VERTEX
  8
8
  10
5102.669832
  20
-1823.864821
  0
VERTEX
  8
8
  10
5101.337339
  20
-1773.051702
  0
VERTEX
  8
8
  10
5099.681933
  20
-1722.475335
  0
VERTEX
  8
8
  10
5099.039917
  20
-1707.518311
  0
VERTEX
  8
8
  10
5098.581528
  20
-1698.783109
  0
VERTEX
  8
8
  10
5098.335120
  20
-1694.618592
  0
VERTEX
  8
8
  10
5097.064780
  20
-1676.307922
  0
VERTEX
  8
8
  10
5095.248162
  20
-1654.977773
  0
VERTEX
  8
8
  10
5094.989761
  20
-1652.931667
  0
VERTEX
  8
8
  10
5093.949807
  20
-1646.599697
  0
VERTEX
  8
8
  10
5092.371060
  20
-1640.140801
  0
VERTEX
  8
8
  10
5090.141007
  20
-1633.771051
  0
VERTEX
  8
8
  10
5087.374609
  20
-1627.573796
  0
VERTEX
  8
8
  10
5083.390563
  20
-1620.034203
  0
VERTEX
  8
8
  10
5077.786560
  20
-1610.502472
  0
VERTEX
  8
8
  10
5070.581360
  20
-1611.571045
  0
VERTEX
  8
8
  10
5066.977234
  20
-1605.291290
  0
VERTEX
  8
8
  10
5033.437532
  20
-1602.764525
  0
VERTEX
  8
8
  10
5027.097920
  20
-1602.359276
  0
VERTEX
  8
8
  10
5010.007534
  20
-1601.424337
  0
VERTEX
  8
8
  10
4992.823100
  20
-1600.898740
  0
VERTEX
  8
8
  10
4986.615295
  20
-1600.871735
  0
VERTEX
  8
8
  10
4979.955321
  20
-1600.966756
  0
VERTEX
  8
8
  10
4967.142881
  20
-1601.582434
  0
VERTEX
  8
8
  10
4956.532618
  20
-1602.612206
  0
VERTEX
  8
8
  10
4945.744423
  20
-1604.239853
  0
VERTEX
  8
8
  10
4935.561060
  20
-1606.306239
  0
VERTEX
  8
8
  10
4924.548114
  20
-1609.010622
  0
VERTEX
  8
8
  10
4913.499907
  20
-1612.160193
  0
VERTEX
  8
8
  10
4908.660278
  20
-1613.695679
  0
VERTEX
  8
8
  10
4886.593532
  20
-1553.785918
  0
VERTEX
  8
8
  10
4865.543018
  20
-1496.635159
  0
VERTEX
  8
8
  10
4862.148227
  20
-1487.418526
  0
VERTEX
  8
8
  10
4847.866393
  20
-1448.644287
  0
VERTEX
  8
8
  10
4828.383780
  20
-1395.750275
  0
VERTEX
  8
8
  10
4813.517761
  20
-1355.390015
  0
VERTEX
  8
8
  10
4824.290352
  20
-1350.934134
  0
VERTEX
  8
8
  10
4833.508870
  20
-1346.558230
  0
VERTEX
  8
8
  10
4842.157815
  20
-1341.931301
  0
VERTEX
  8
8
  10
4849.261217
  20
-1337.646995
  0
VERTEX
  8
8
  10
4855.558414
  20
-1333.354930
  0
VERTEX
  8
8
  10
4862.233900
  20
-1328.217954
  0
VERTEX
  8
8
  10
4868.657432
  20
-1322.721795
  0
VERTEX
  8
8
  10
4876.392950
  20
-1315.444421
  0
VERTEX
  8
8
  10
4885.346763
  20
-1306.280097
  0
VERTEX
  8
8
  10
4896.946969
  20
-1293.685006
  0
VERTEX
  8
8
  10
4929.917365
  20
-1257.475137
  0
VERTEX
  8
8
  10
4932.004395
  20
-1255.189209
  0
VERTEX
  8
8
  10
4952.252630
  20
-1264.858754
  0
VERTEX
  8
8
  10
4966.033558
  20
-1270.921903
  0
VERTEX
  8
8
  10
4977.902585
  20
-1275.689449
  0
VERTEX
  8
8
  10
4989.924801
  20
-1280.037743
  0
VERTEX
  8
8
  10
5000.206492
  20
-1283.338497
  0
VERTEX
  8
8
  10
5012.508571
  20
-1286.778598
  0
VERTEX
  8
8
  10
5026.306598
  20
-1290.137883
  0
VERTEX
  8
8
  10
5046.406800
  20
-1294.508512
  0
VERTEX
  8
8
  10
5068.336792
  20
-1299.069824
  0
VERTEX
  8
8
  10
5086.686183
  20
-1303.020910
  0
VERTEX
  8
8
  10
5104.464483
  20
-1307.194479
  0
VERTEX
  8
8
  10
5123.812244
  20
-1311.741881
  0
VERTEX
  8
8
  10
5136.937676
  20
-1314.347446
  0
VERTEX
  8
8
  10
5152.344702
  20
-1316.914835
  0
VERTEX
  8
8
  10
5159.263306
  20
-1317.945557
  0
VERTEX
  8
8
  10
5173.002590
  20
-1319.858051
  0
VERTEX
  8
8
  10
5201.723014
  20
-1323.587835
  0
VERTEX
  8
8
  10
5208.040771
  20
-1324.372711
  0
VERTEX
  8
8
  10
5205.162183
  20
-1332.811227
  0
VERTEX
  8
8
  10
5203.374437
  20
-1339.389696
  0
VERTEX
  8
8
  10
5202.267356
  20
-1345.081334
  0
VERTEX
  8
8
  10
5202.165119
  20
-1345.766488
  0
VERTEX
  8
8
  10
5201.657613
  20
-1350.441766
  0
VERTEX
  8
8
  10
5201.397416
  20
-1356.685770
  0
VERTEX
  8
8
  10
5201.392822
  20
-1357.990265
  0
VERTEX
  8
8
  10
5202.848636
  20
-1369.817078
  0
VERTEX
  8
8
  10
5204.624609
  20
-1380.200582
  0
VERTEX
  8
8
  10
5206.653963
  20
-1389.266660
  0
VERTEX
  8
8
  10
5208.884336
  20
-1397.069220
  0
VERTEX
  8
8
  10
5211.590417
  20
-1404.729138
  0
VERTEX
  8
8
  10
5214.316261
  20
-1411.148496
  0
VERTEX
  8
8
  10
5216.908602
  20
-1416.405701
  0
VERTEX
  8
8
  10
5219.331055
  20
-1420.750580
  0
VERTEX
  8
8
  10
5221.003804
  20
-1423.487895
  0
VERTEX
  8
8
  10
5224.974226
  20
-1429.272058
  0
VERTEX
  8
8
  10
5229.375324
  20
-1434.718144
  0
VERTEX
  8
8
  10
5233.375881
  20
-1438.947850
  0
VERTEX
  8
8
  10
5237.682550
  20
-1442.853756
  0
VERTEX
  8
8
  10
5241.944329
  20
-1446.147913
  0
VERTEX
  8
8
  10
5246.820217
  20
-1449.342287
  0
VERTEX
  8
8
  10
5251.938972
  20
-1452.159037
  0
VERTEX
  8
8
  10
5257.258414
  20
-1454.598056
  0
VERTEX
  8
8
  10
5263.847265
  20
-1457.026128
  0
VERTEX
  8
8
  10
5270.591486
  20
-1458.909933
  0
VERTEX
  8
8
  10
5277.351408
  20
-1460.254214
  0
VERTEX
  8
8
  10
5284.834432
  20
-1461.251679
  0
VERTEX
  8
8
  10
5292.620983
  20
-1461.856041
  0
VERTEX
  8
8
  10
5297.248535
  20
-1462.005005
  0
VERTEX
  8
8
  10
5297.248535
  20
-1462.005005
  0
VERTEX
  8
8
  10
5301.875477
  20
-1461.856041
  0
VERTEX
  8
8
  10
5309.662028
  20
-1461.251679
  0
VERTEX
  8
8
  10
5317.145052
  20
-1460.254214
  0
VERTEX
  8
8
  10
5323.904973
  20
-1458.909933
  0
VERTEX
  8
8
  10
5330.649194
  20
-1457.026128
  0
VERTEX
  8
8
  10
5337.238046
  20
-1454.598056
  0
VERTEX
  8
8
  10
5342.557488
  20
-1452.159037
  0
VERTEX
  8
8
  10
5347.676243
  20
-1449.342287
  0
VERTEX
  8
8
  10
5352.552131
  20
-1446.147913
  0
VERTEX
  8
8
  10
5356.813910
  20
-1442.853756
  0
VERTEX
  8
8
  10
5361.120579
  20
-1438.947850
  0
VERTEX
  8
8
  10
5365.121135
  20
-1434.718144
  0
VERTEX
  8
8
  10
5369.522234
  20
-1429.272058
  0
VERTEX
  8
8
  10
5373.492656
  20
-1423.487895
  0
VERTEX
  8
8
  10
5375.165405
  20
-1420.750580
  0
VERTEX
  8
8
  10
5377.587858
  20
-1416.405701
  0
VERTEX
  8
8
  10
5380.180199
  20
-1411.148496
  0
VERTEX
  8
8
  10
5382.906043
  20
-1404.729138
  0
VERTEX
  8
8
  10
5385.612124
  20
-1397.069220
  0
VERTEX
  8
8
  10
5387.842497
  20
-1389.266660
  0
VERTEX
  8
8
  10
5389.871851
  20
-1380.200582
  0
VERTEX
  8
8
  10
5391.647824
  20
-1369.817078
  0
VERTEX
  8
8
  10
5393.103638
  20
-1357.990265
  0
VERTEX
  8
8
  10
5393.099044
  20
-1356.685770
  0
VERTEX
  8
8
  10
5392.838847
  20
-1350.441766
  0
VERTEX
  8
8
  10
5392.331341
  20
-1345.766488
  0
VERTEX
  8
8
  10
5392.229104
  20
-1345.081334
  0
VERTEX
  8
8
  10
5391.122023
  20
-1339.389696
  0
VERTEX
  8
8
  10
5389.334277
  20
-1332.811227
  0
VERTEX
  8
8
  10
5386.455688
  20
-1324.372711
  0
VERTEX
  8
8
  10
5392.773447
  20
-1323.587835
  0
VERTEX
  8
8
  10
5421.493890
  20
-1319.858048
  0
VERTEX
  8
8
  10
5442.151805
  20
-1316.914827
  0
VERTEX
  8
8
  10
5457.558834
  20
-1314.347434
  0
VERTEX
  8
8
  10
5470.683949
  20
-1311.741926
  0
VERTEX
  8
8
  10
5490.031623
  20
-1307.194526
  0
VERTEX
  8
8
  10
5507.810192
  20
-1303.020885
  0
VERTEX
  8
8
  10
5526.159668
  20
-1299.069824
  0
VERTEX
  8
8
  10
5548.089706
  20
-1294.508478
  0
VERTEX
  8
8
  10
5568.189586
  20
-1290.137915
  0
VERTEX
  8
8
  10
5581.987550
  20
-1286.778641
  0
VERTEX
  8
8
  10
5594.289592
  20
-1283.338549
  0
VERTEX
  8
8
  10
5604.571561
  20
-1280.037710
  0
VERTEX
  8
8
  10
5616.593814
  20
-1275.689414
  0
VERTEX
  8
8
  10
5628.462889
  20
-1270.921870
  0
VERTEX
  8
8
  10
5642.243852
  20
-1264.858728
  0
VERTEX
  8
8
  10
5662.492065
  20
-1255.189209
  0
VERTEX
  8
8
  10
5664.579114
  20
-1257.475159
  0
VERTEX
  8
8
  10
5697.549371
  20
-1293.684947
  0
VERTEX
  8
8
  10
5709.149527
  20
-1306.280042
  0
VERTEX
  8
8
  10
5718.103296
  20
-1315.444371
  0
VERTEX
  8
8
  10
5725.838777
  20
-1322.721749
  0
VERTEX
  8
8
  10
5732.262281
  20
-1328.217911
  0
VERTEX
  8
8
  10
5738.937744
  20
-1333.354891
  0
VERTEX
  8
8
  10
5745.234982
  20
-1337.646998
  0
VERTEX
  8
8
  10
5752.338371
  20
-1341.931303
  0
VERTEX
  8
8
  10
5760.987303
  20
-1346.558232
  0
VERTEX
  8
8
  10
5770.205811
  20
-1350.934135
  0
VERTEX
  8
8
  10
5780.978394
  20
-1355.390015
  0
VERTEX
  8
8
  10
5766.112423
  20
-1395.750275
  0
VERTEX
  8
8
  10
5746.629872
  20
-1448.644287
  0
VERTEX
  8
8
  10
5732.348083
  20
-1487.418526
  0
VERTEX
  8
8
  10
5728.953303
  20
-1496.635159
  0
VERTEX
  8
8
  10
5707.902857
  20
-1553.785918
  0
VERTEX
  8
8
  10
5685.836182
  20
-1613.695679
  0
VERTEX
  8
8
  10
5680.996403
  20
-1612.160158
  0
VERTEX
  8
8
  10
5669.948065
  20
-1609.010575
  0
VERTEX
  8
8
  10
5658.935032
  20
-1606.306192
  0
VERTEX
  8
8
  10
5648.751606
  20
-1604.239811
  0
VERTEX
  8
8
  10
5637.963861
  20
-1602.612232
  0
VERTEX
  8
8
  10
5627.353567
  20
-1601.582445
  0
VERTEX
  8
8
  10
5614.541102
  20
-1600.966755
  0
VERTEX
  8
8
  10
5607.880859
  20
-1600.871735
  0
VERTEX
  8
8
  10
5601.673306
  20
-1600.898732
  0
VERTEX
  8
8
  10
5584.488858
  20
-1601.424325
  0
VERTEX
  8
8
  10
5567.398062
  20
-1602.359287
  0
VERTEX
  8
8
  10
5561.058601
  20
-1602.764526
  0
VERTEX
  8
8
  10
5527.518921
  20
-1605.291290
  0
VERTEX
  8
8
  10
5523.914795
  20
-1611.571045
  0
VERTEX
  8
8
  10
5516.709595
  20
-1610.502472
  0
VERTEX
  8
8
  10
5511.105587
  20
-1620.034215
  0
VERTEX
  8
8
  10
5507.121537
  20
-1627.573824
  0
VERTEX
  8
8
  10
5504.355139
  20
-1633.771088
  0
VERTEX
  8
8
  10
5502.125087
  20
-1640.140844
  0
VERTEX
  8
8
  10
5500.546350
  20
-1646.599704
  0
VERTEX
  8
8
  10
5499.506330
  20
-1652.932179
  0
VERTEX
  8
8
  10
5499.248000
  20
-1654.977774
  0
VERTEX
  8
8
  10
5497.431470
  20
-1676.307920
  0
VERTEX
  8
8
  10
5496.161244
  20
-1694.618812
  0
VERTEX
  8
8
  10
5495.914871
  20
-1698.783117
  0
VERTEX
  8
8
  10
5495.456543
  20
-1707.518311
  0
VERTEX
  8
8
  10
5494.814524
  20
-1722.475339
  0
VERTEX
  8
8
  10
5493.159120
  20
-1773.051728
  0
VERTEX
  8
8
  10
5491.826628
  20
-1823.864831
  0
VERTEX
  8
8
  10
5491.464844
  20
-1839.712830
  0
VERTEX
  8
8
  10
5490.731316
  20
-1875.018240
  0
VERTEX
  8
8
  10
5489.692344
  20
-1925.845474
  0
VERTEX
  8
8
  10
5488.770285
  20
-1962.415635
  0
VERTEX
  8
8
  10
5488.349360
  20
-1977.068215
  0
VERTEX
  8
8
  10
5487.902222
  20
-1992.508698
  0
VERTEX
  8
8
  10
5486.989363
  20
-2027.886512
  0
VERTEX
  8
8
  10
5486.296387
  20
-2073.501892
  0
VERTEX
  8
8
  10
5297.247925
  20
-2073.506775
  0
SEQEND
  8
8
  0
POINT
  8
2
 10
5297.247925
 20
-2073.506775
  0
TEXT
  8
2
 10
5297.247925
 20
-2073.506775
 40
0.000000
 50
0.000000
  1
# 183
  0
POINT
  8
2
 10
5108.200073
 20
-2073.501892
  0
TEXT
  8
2
 10
5108.200073
 20
-2073.501892
 40
0.000000
 50
0.000000
  1
# 184
  0
POINT
  8
2
 10
5077.786560
 20
-1610.502472
  0
TEXT
  8
2
 10
5077.786560
 20
-1610.502472
 40
0.000000
 50
0.000000
  1
# 185
  0
POINT
  8
2
 10
5070.581360
 20
-1611.571045
  0
TEXT
  8
2
 10
5070.581360
 20
-1611.571045
 40
0.000000
 50
0.000000
  1
# 186
  0
POINT
  8
2
 10
5066.977234
 20
-1605.291290
  0
TEXT
  8
2
 10
5066.977234
 20
-1605.291290
 40
0.000000
 50
0.000000
  1
# 187
  0
POINT
  8
2
 10
4908.660278
 20
-1613.695679
  0
TEXT
  8
2
 10
4908.660278
 20
-1613.695679
 40
0.000000
 50
0.000000
  1
# 188
  0
POINT
  8
2
 10
4813.517761
 20
-1355.390015
  0
TEXT
  8
2
 10
4813.517761
 20
-1355.390015
 40
0.000000
 50
0.000000
  1
# 189
  0
POINT
  8
2
 10
4932.004395
 20
-1255.189209
  0
TEXT
  8
2
 10
4932.004395
 20
-1255.189209
 40
0.000000
 50
0.000000
  1
# 190
  0
POINT
  8
2
 10
5208.040771
 20
-1324.372711
  0
TEXT
  8
2
 10
5208.040771
 20
-1324.372711
 40
0.000000
 50
0.000000
  1
# 191
  0
POINT
  8
2
 10
5201.392822
 20
-1357.990265
  0
TEXT
  8
2
 10
5201.392822
 20
-1357.990265
 40
0.000000
 50
0.000000
  1
# 192
  0
POINT
  8
2
 10
5297.248535
 20
-1462.005005
  0
TEXT
  8
2
 10
5297.248535
 20
-1462.005005
 40
0.000000
 50
0.000000
  1
# 193
  0
POINT
  8
2
 10
5393.103638
 20
-1357.990265
  0
TEXT
  8
2
 10
5393.103638
 20
-1357.990265
 40
0.000000
 50
0.000000
  1
# 194
  0
POINT
  8
2
 10
5386.455688
 20
-1324.372711
  0
TEXT
  8
2
 10
5386.455688
 20
-1324.372711
 40
0.000000
 50
0.000000
  1
# 195
  0
POINT
  8
2
 10
5662.492065
 20
-1255.189209
  0
TEXT
  8
2
 10
5662.492065
 20
-1255.189209
 40
0.000000
 50
0.000000
  1
# 196
  0
POINT
  8
2
 10
5780.978394
 20
-1355.390015
  0
TEXT
  8
2
 10
5780.978394
 20
-1355.390015
 40
0.000000
 50
0.000000
  1
# 197
  0
POINT
  8
2
 10
5685.836182
 20
-1613.695679
  0
TEXT
  8
2
 10
5685.836182
 20
-1613.695679
 40
0.000000
 50
0.000000
  1
# 198
  0
POINT
  8
2
 10
5527.518921
 20
-1605.291290
  0
TEXT
  8
2
 10
5527.518921
 20
-1605.291290
 40
0.000000
 50
0.000000
  1
# 199
  0
POINT
  8
2
 10
5523.914795
 20
-1611.571045
  0
TEXT
  8
2
 10
5523.914795
 20
-1611.571045
 40
0.000000
 50
0.000000
  1
# 200
  0
POINT
  8
2
 10
5516.709595
 20
-1610.502472
  0
TEXT
  8
2
 10
5516.709595
 20
-1610.502472
 40
0.000000
 50
0.000000
  1
# 201
  0
POINT
  8
2
 10
5486.296387
 20
-2073.501892
  0
TEXT
  8
2
 10
5486.296387
 20
-2073.501892
 40
0.000000
 50
0.000000
  1
# 202
  0
POINT
  8
2
 10
5297.247925
 20
-2073.506775
  0
TEXT
  8
2
 10
5297.247925
 20
-2073.506775
 40
0.000000
 50
0.000000
  1
# 203
  0
POINT
  8
3
 10
5107.506918
 20
-2027.886505
  0
POINT
  8
3
 10
5106.594238
 20
-1992.508698
  0
POINT
  8
3
 10
5106.146973
 20
-1977.068193
  0
POINT
  8
3
 10
5105.726084
 20
-1962.415636
  0
POINT
  8
3
 10
5104.804091
 20
-1925.845469
  0
POINT
  8
3
 10
5103.765143
 20
-1875.018219
  0
POINT
  8
3
 10
5103.031616
 20
-1839.712830
  0
POINT
  8
3
 10
5102.669832
 20
-1823.864821
  0
POINT
  8
3
 10
5101.337339
 20
-1773.051702
  0
POINT
  8
3
 10
5099.681933
 20
-1722.475335
  0
POINT
  8
3
 10
5099.039917
 20
-1707.518311
  0
POINT
  8
3
 10
5098.581528
 20
-1698.783109
  0
POINT
  8
3
 10
5098.335120
 20
-1694.618592
  0
POINT
  8
3
 10
5097.064780
 20
-1676.307922
  0
POINT
  8
3
 10
5095.248162
 20
-1654.977773
  0
POINT
  8
3
 10
5094.989761
 20
-1652.931667
  0
POINT
  8
3
 10
5093.949807
 20
-1646.599697
  0
POINT
  8
3
 10
5092.371060
 20
-1640.140801
  0
POINT
  8
3
 10
5090.141007
 20
-1633.771051
  0
POINT
  8
3
 10
5087.374609
 20
-1627.573796
  0
POINT
  8
3
 10
5083.390563
 20
-1620.034203
  0
POINT
  8
3
 10
5033.437532
 20
-1602.764525
  0
POINT
  8
3
 10
5027.097920
 20
-1602.359276
  0
POINT
  8
3
 10
5010.007534
 20
-1601.424337
  0
POINT
  8
3
 10
4992.823100
 20
-1600.898740
  0
POINT
  8
3
 10
4986.615295
 20
-1600.871735
  0
POINT
  8
3
 10
4979.955321
 20
-1600.966756
  0
POINT
  8
3
 10
4967.142881
 20
-1601.582434
  0
POINT
  8
3
 10
4956.532618
 20
-1602.612206
  0
POINT
  8
3
 10
4945.744423
 20
-1604.239853
  0
POINT
  8
3
 10
4935.561060
 20
-1606.306239
  0
POINT
  8
3
 10
4924.548114
 20
-1609.010622
  0
POINT
  8
3
 10
4913.499907
 20
-1612.160193
  0
POINT
  8
3
 10
4886.593532
 20
-1553.785918
  0
POINT
  8
3
 10
4865.543018
 20
-1496.635159
  0
POINT
  8
3
 10
4862.148227
 20
-1487.418526
  0
POINT
  8
3
 10
4847.866393
 20
-1448.644287
  0
POINT
  8
3
 10
4828.383780
 20
-1395.750275
  0
POINT
  8
3
 10
4824.290352
 20
-1350.934134
  0
POINT
  8
3
 10
4833.508870
 20
-1346.558230
  0
POINT
  8
3
 10
4842.157815
 20
-1341.931301
  0
POINT
  8
3
 10
4849.261217
 20
-1337.646995
  0
POINT
  8
3
 10
4855.558414
 20
-1333.354930
  0
POINT
  8
3
 10
4862.233900
 20
-1328.217954
  0
POINT
  8
3
 10
4868.657432
 20
-1322.721795
  0
POINT
  8
3
 10
4876.392950
 20
-1315.444421
  0
POINT
  8
3
 10
4885.346763
 20
-1306.280097
  0
POINT
  8
3
 10
4896.946969
 20
-1293.685006
  0
POINT
  8
3
 10
4929.917365
 20
-1257.475137
  0
POINT
  8
3
 10
4952.252630
 20
-1264.858754
  0
POINT
  8
3
 10
4966.033558
 20
-1270.921903
  0
POINT
  8
3
 10
4977.902585
 20
-1275.689449
  0
POINT
  8
3
 10
4989.924801
 20
-1280.037743
  0
POINT
  8
3
 10
5000.206492
 20
-1283.338497
  0
POINT
  8
3
 10
5012.508571
 20
-1286.778598
  0
POINT
  8
3
 10
5026.306598
 20
-1290.137883
  0
POINT
  8
3
 10
5046.406800
 20
-1294.508512
  0
POINT
  8
3
 10
5068.336792
 20
-1299.069824
  0
POINT
  8
3
 10
5086.686183
 20
-1303.020910
  0
POINT
  8
3
 10
5104.464483
 20
-1307.194479
  0
POINT
  8
3
 10
5123.812244
 20
-1311.741881
  0
POINT
  8
3
 10
5136.937676
 20
-1314.347446
  0
POINT
  8
3
 10
5152.344702
 20
-1316.914835
  0
POINT
  8
3
 10
5159.263306
 20
-1317.945557
  0
POINT
  8
3
 10
5173.002590
 20
-1319.858051
  0
POINT
  8
3
 10
5201.723014
 20
-1323.587835
  0
POINT
  8
3
 10
5205.162183
 20
-1332.811227
  0
POINT
  8
3
 10
5203.374437
 20
-1339.389696
  0
POINT
  8
3
 10
5202.267356
 20
-1345.081334
  0
POINT
  8
3
 10
5202.165119
 20
-1345.766488
  0
POINT
  8
3
 10
5201.657613
 20
-1350.441766
  0
POINT
  8
3
 10
5201.397416
 20
-1356.685770
  0
POINT
  8
3
 10
5202.848636
 20
-1369.817078
  0
POINT
  8
3
 10
5204.624609
 20
-1380.200582
  0
POINT
  8
3
 10
5206.653963
 20
-1389.266660
  0
POINT
  8
3
 10
5208.884336
 20
-1397.069220
  0
POINT
  8
3
 10
5211.590417
 20
-1404.729138
  0
POINT
  8
3
 10
5214.316261
 20
-1411.148496
  0
POINT
  8
3
 10
5216.908602
 20
-1416.405701
  0
POINT
  8
3
 10
5219.331055
 20
-1420.750580
  0
POINT
  8
3
 10
5221.003804
 20
-1423.487895
  0
POINT
  8
3
 10
5224.974226
 20
-1429.272058
  0
POINT
  8
3
 10
5229.375324
 20
-1434.718144
  0
POINT
  8
3
 10
5233.375881
 20
-1438.947850
  0
POINT
  8
3
 10
5237.682550
 20
-1442.853756
  0
POINT
  8
3
 10
5241.944329
 20
-1446.147913
  0
POINT
  8
3
 10
5246.820217
 20
-1449.342287
  0
POINT
  8
3
 10
5251.938972
 20
-1452.159037
  0
POINT
  8
3
 10
5257.258414
 20
-1454.598056
  0
POINT
  8
3
 10
5263.847265
 20
-1457.026128
  0
POINT
  8
3
 10
5270.591486
 20
-1458.909933
  0
POINT
  8
3
 10
5277.351408
 20
-1460.254214
  0
POINT
  8
3
 10
5284.834432
 20
-1461.251679
  0
POINT
  8
3
 10
5292.620983
 20
-1461.856041
  0
POINT
  8
3
 10
5297.248535
 20
-1462.005005
  0
POINT
  8
3
 10
5301.875477
 20
-1461.856041
  0
POINT
  8
3
 10
5309.662028
 20
-1461.251679
  0
POINT
  8
3
 10
5317.145052
 20
-1460.254214
  0
POINT
  8
3
 10
5323.904973
 20
-1458.909933
  0
POINT
  8
3
 10
5330.649194
 20
-1457.026128
  0
POINT
  8
3
 10
5337.238046
 20
-1454.598056
  0
POINT
  8
3
 10
5342.557488
 20
-1452.159037
  0
POINT
  8
3
 10
5347.676243
 20
-1449.342287
  0
POINT
  8
3
 10
5352.552131
 20
-1446.147913
  0
POINT
  8
3
 10
5356.813910
 20
-1442.853756
  0
POINT
  8
3
 10
5361.120579
 20
-1438.947850
  0
POINT
  8
3
 10
5365.121135
 20
-1434.718144
  0
POINT
  8
3
 10
5369.522234
 20
-1429.272058
  0
POINT
  8
3
 10
5373.492656
 20
-1423.487895
  0
POINT
  8
3
 10
5375.165405
 20
-1420.750580
  0
POINT
  8
3
 10
5377.587858
 20
-1416.405701
  0
POINT
  8
3
 10
5380.180199
 20
-1411.148496
  0
POINT
  8
3
 10
5382.906043
 20
-1404.729138
  0
POINT
  8
3
 10
5385.612124
 20
-1397.069220
  0
POINT
  8
3
 10
5387.842497
 20
-1389.266660
  0
POINT
  8
3
 10
5389.871851
 20
-1380.200582
  0
POINT
  8
3
 10
5391.647824
 20
-1369.817078
  0
POINT
  8
3
 10
5393.099044
 20
-1356.685770
  0
POINT
  8
3
 10
5392.838847
 20
-1350.441766
  0
POINT
  8
3
 10
5392.331341
 20
-1345.766488
  0
POINT
  8
3
 10
5392.229104
 20
-1345.081334
  0
POINT
  8
3
 10
5391.122023
 20
-1339.389696
  0
POINT
  8
3
 10
5389.334277
 20
-1332.811227
  0
POINT
  8
3
 10
5392.773447
 20
-1323.587835
  0
POINT
  8
3
 10
5421.493890
 20
-1319.858048
  0
POINT
  8
3
 10
5442.151805
 20
-1316.914827
  0
POINT
  8
3
 10
5457.558834
 20
-1314.347434
  0
POINT
  8
3
 10
5470.683949
 20
-1311.741926
  0
POINT
  8
3
 10
5490.031623
 20
-1307.194526
  0
POINT
  8
3
 10
5507.810192
 20
-1303.020885
  0
POINT
  8
3
 10
5526.159668
 20
-1299.069824
  0
POINT
  8
3
 10
5548.089706
 20
-1294.508478
  0
POINT
  8
3
 10
5568.189586
 20
-1290.137915
  0
POINT
  8
3
 10
5581.987550
 20
-1286.778641
  0
POINT
  8
3
 10
5594.289592
 20
-1283.338549
  0
POINT
  8
3
 10
5604.571561
 20
-1280.037710
  0
POINT
  8
3
 10
5616.593814
 20
-1275.689414
  0
POINT
  8
3
 10
5628.462889
 20
-1270.921870
  0
POINT
  8
3
 10
5642.243852
 20
-1264.858728
  0
POINT
  8
3
 10
5664.579114
 20
-1257.475159
  0
POINT
  8
3
 10
5697.549371
 20
-1293.684947
  0
POINT
  8
3
 10
5709.149527
 20
-1306.280042
  0
POINT
  8
3
 10
5718.103296
 20
-1315.444371
  0
POINT
  8
3
 10
5725.838777
 20
-1322.721749
  0
POINT
  8
3
 10
5732.262281
 20
-1328.217911
  0
POINT
  8
3
 10
5738.937744
 20
-1333.354891
  0
POINT
  8
3
 10
5745.234982
 20
-1337.646998
  0
POINT
  8
3
 10
5752.338371
 20
-1341.931303
  0
POINT
  8
3
 10
5760.987303
 20
-1346.558232
  0
POINT
  8
3
 10
5770.205811
 20
-1350.934135
  0
POINT
  8
3
 10
5766.112423
 20
-1395.750275
  0
POINT
  8
3
 10
5746.629872
 20
-1448.644287
  0
POINT
  8
3
 10
5732.348083
 20
-1487.418526
  0
POINT
  8
3
 10
5728.953303
 20
-1496.635159
  0
POINT
  8
3
 10
5707.902857
 20
-1553.785918
  0
POINT
  8
3
 10
5680.996403
 20
-1612.160158
  0
POINT
  8
3
 10
5669.948065
 20
-1609.010575
  0
POINT
  8
3
 10
5658.935032
 20
-1606.306192
  0
POINT
  8
3
 10
5648.751606
 20
-1604.239811
  0
POINT
  8
3
 10
5637.963861
 20
-1602.612232
  0
POINT
  8
3
 10
5627.353567
 20
-1601.582445
  0
POINT
  8
3
 10
5614.541102
 20
-1600.966755
  0
POINT
  8
3
 10
5607.880859
 20
-1600.871735
  0
POINT
  8
3
 10
5601.673306
 20
-1600.898732
  0
POINT
  8
3
 10
5584.488858
 20
-1601.424325
  0
POINT
  8
3
 10
5567.398062
 20
-1602.359287
  0
POINT
  8
3
 10
5561.058601
 20
-1602.764526
  0
POINT
  8
3
 10
5511.105587
 20
-1620.034215
  0
POINT
  8
3
 10
5507.121537
 20
-1627.573824
  0
POINT
  8
3
 10
5504.355139
 20
-1633.771088
  0
POINT
  8
3
 10
5502.125087
 20
-1640.140844
  0
POINT
  8
3
 10
5500.546350
 20
-1646.599704
  0
POINT
  8
3
 10
5499.506330
 20
-1652.932179
  0
POINT
  8
3
 10
5499.248000
 20
-1654.977774
  0
POINT
  8
3
 10
5497.431470
 20
-1676.307920
  0
POINT
  8
3
 10
5496.161244
 20
-1694.618812
  0
POINT
  8
3
 10
5495.914871
 20
-1698.783117
  0
POINT
  8
3
 10
5495.456543
 20
-1707.518311
  0
POINT
  8
3
 10
5494.814524
 20
-1722.475339
  0
POINT
  8
3
 10
5493.159120
 20
-1773.051728
  0
POINT
  8
3
 10
5491.826628
 20
-1823.864831
  0
POINT
  8
3
 10
5491.464844
 20
-1839.712830
  0
POINT
  8
3
 10
5490.731316
 20
-1875.018240
  0
POINT
  8
3
 10
5489.692344
 20
-1925.845474
  0
POINT
  8
3
 10
5488.770285
 20
-1962.415635
  0
POINT
  8
3
 10
5488.349360
 20
-1977.068215
  0
POINT
  8
3
 10
5487.902222
 20
-1992.508698
  0
POINT
  8
3
 10
5486.989363
 20
-2027.886512
  0
POINT
  8
3
 10
5105.726084
 20
-1962.415636
  0
TEXT
  8
3
 10
5105.726084
 20
-1962.415636
 40
0.000000
 50
0.000000
  1
# 204
  0
POINT
  8
3
 10
5098.335120
 20
-1694.618592
  0
TEXT
  8
3
 10
5098.335120
 20
-1694.618592
 40
0.000000
 50
0.000000
  1
# 205
  0
POINT
  8
3
 10
5094.989761
 20
-1652.931667
  0
TEXT
  8
3
 10
5094.989761
 20
-1652.931667
 40
0.000000
 50
0.000000
  1
# 206
  0
POINT
  8
3
 10
5027.097920
 20
-1602.359276
  0
TEXT
  8
3
 10
5027.097920
 20
-1602.359276
 40
0.000000
 50
0.000000
  1
# 207
  0
POINT
  8
3
 10
4862.148227
 20
-1487.418526
  0
TEXT
  8
3
 10
4862.148227
 20
-1487.418526
 40
0.000000
 50
0.000000
  1
# 208
  0
POINT
  8
3
 10
5201.723014
 20
-1323.587835
  0
TEXT
  8
3
 10
5201.723014
 20
-1323.587835
 40
0.000000
 50
0.000000
  1
# 209
  0
POINT
  8
3
 10
5202.165119
 20
-1345.766488
  0
TEXT
  8
3
 10
5202.165119
 20
-1345.766488
 40
0.000000
 50
0.000000
  1
# 210
  0
POINT
  8
3
 10
5392.331341
 20
-1345.766488
  0
TEXT
  8
3
 10
5392.331341
 20
-1345.766488
 40
0.000000
 50
0.000000
  1
# 211
  0
POINT
  8
3
 10
5392.773447
 20
-1323.587835
  0
TEXT
  8
3
 10
5392.773447
 20
-1323.587835
 40
0.000000
 50
0.000000
  1
# 212
  0
POINT
  8
3
 10
5732.348083
 20
-1487.418526
  0
TEXT
  8
3
 10
5732.348083
 20
-1487.418526
 40
0.000000
 50
0.000000
  1
# 213
  0
POINT
  8
3
 10
5567.398062
 20
-1602.359287
  0
TEXT
  8
3
 10
5567.398062
 20
-1602.359287
 40
0.000000
 50
0.000000
  1
# 214
  0
POINT
  8
3
 10
5499.506330
 20
-1652.932179
  0
TEXT
  8
3
 10
5499.506330
 20
-1652.932179
 40
0.000000
 50
0.000000
  1
# 215
  0
POINT
  8
3
 10
5496.161244
 20
-1694.618812
  0
TEXT
  8
3
 10
5496.161244
 20
-1694.618812
 40
0.000000
 50
0.000000
  1
# 216
  0
POINT
  8
3
 10
5488.770285
 20
-1962.415635
  0
TEXT
  8
3
 10
5488.770285
 20
-1962.415635
 40
0.000000
 50
0.000000
  1
# 217
  0
POINT
  8
4
 10
5106.594238
 20
-1992.508698
 30
0.600000
 50
  1.64
  0
TEXT
  8
4
 10
5106.594238
 20
-1992.508698
 40
0.000000
 50
0.000000
  1
# 218
  0
POINT
  8
4
 10
5103.031616
 20
-1839.712830
 30
0.600000
 50
  1.27
  0
TEXT
  8
4
 10
5103.031616
 20
-1839.712830
 40
0.000000
 50
0.000000
  1
# 219
  0
POINT
  8
4
 10
5099.039917
 20
-1707.518311
 30
0.600000
 50
  2.77
  0
TEXT
  8
4
 10
5099.039917
 20
-1707.518311
 40
0.000000
 50
0.000000
  1
# 220
  0
POINT
  8
4
 10
4986.615295
 20
-1600.871735
 30
0.600000
 50
 90.24
  0
TEXT
  8
4
 10
4986.615295
 20
-1600.871735
 40
0.000000
 50
0.000000
  1
# 221
  0
POINT
  8
4
 10
5068.336792
 20
-1299.069824
 30
0.600000
 50
258.18
  0
TEXT
  8
4
 10
5068.336792
 20
-1299.069824
 40
0.000000
 50
0.000000
  1
# 222
  0
POINT
  8
4
 10
5159.263306
 20
-1317.945557
 30
0.600000
 50
261.76
  0
TEXT
  8
4
 10
5159.263306
 20
-1317.945557
 40
0.000000
 50
0.000000
  1
# 223
  0
POINT
  8
4
 10
5219.331055
 20
-1420.750580
 30
0.600000
 50
210.52
  0
TEXT
  8
4
 10
5219.331055
 20
-1420.750580
 40
0.000000
 50
0.000000
  1
# 224
  0
POINT
  8
4
 10
5297.248535
 20
-1462.005005
 30
0.600000
 50
270.00
  0
TEXT
  8
4
 10
5297.248535
 20
-1462.005005
 40
0.000000
 50
0.000000
  1
# 225
  0
POINT
  8
4
 10
5375.165405
 20
-1420.750580
 30
0.600000
 50
329.48
  0
TEXT
  8
4
 10
5375.165405
 20
-1420.750580
 40
0.000000
 50
0.000000
  1
# 226
  0
POINT
  8
4
 10
5526.159668
 20
-1299.069824
 30
0.600000
 50
281.82
  0
TEXT
  8
4
 10
5526.159668
 20
-1299.069824
 40
0.000000
 50
0.000000
  1
# 227
  0
POINT
  8
4
 10
5607.880859
 20
-1600.871735
 30
0.600000
 50
 89.76
  0
TEXT
  8
4
 10
5607.880859
 20
-1600.871735
 40
0.000000
 50
0.000000
  1
# 228
  0
POINT
  8
4
 10
5495.456543
 20
-1707.518311
 30
0.600000
 50
177.23
  0
TEXT
  8
4
 10
5495.456543
 20
-1707.518311
 40
0.000000
 50
0.000000
  1
# 229
  0
POINT
  8
4
 10
5491.464844
 20
-1839.712830
 30
0.600000
 50
178.73
  0
TEXT
  8
4
 10
5491.464844
 20
-1839.712830
 40
0.000000
 50
0.000000
  1
# 230
  0
POINT
  8
4
 10
5487.902222
 20
-1992.508698
 30
0.600000
 50
178.36
  0
TEXT
  8
4
 10
5487.902222
 20
-1992.508698
 40
0.000000
 50
0.000000
  1
# 231
  0
POLYLINE
  8
11
  66
1
  70
0
  0
VERTEX
  8
1
  10
5673.778687
  20
-1516.582947
  0
VERTEX
  8
1
  10
5702.914429
  20
-1436.200409
  0
SEQEND
  8
11
  0
POINT
  8
2
 10
5673.778687
 20
-1516.582947
  0
TEXT
  8
2
 10
5673.778687
 20
-1516.582947
 40
0.000000
 50
0.000000
  1
# 232
  0
POINT
  8
2
 10
5702.914429
 20
-1436.200409
  0
TEXT
  8
2
 10
5702.914429
 20
-1436.200409
 40
0.000000
 50
0.000000
  1
# 233
  0
POLYLINE
  8
11
  66
1
  70
0
  0
VERTEX
  8
1
  10
5702.914429
  20
-1436.200409
  0
VERTEX
  8
1
  10
5707.614746
  20
-1437.904358
  0
SEQEND
  8
11
  0
POINT
  8
2
 10
5702.914429
 20
-1436.200409
  0
TEXT
  8
2
 10
5702.914429
 20
-1436.200409
 40
0.000000
 50
0.000000
  1
# 234
  0
POINT
  8
2
 10
5707.614746
 20
-1437.904358
  0
TEXT
  8
2
 10
5707.614746
 20
-1437.904358
 40
0.000000
 50
0.000000
  1
# 235
  0
POLYLINE
  8
11
  66
1
  70
0
  0
VERTEX
  8
1
  10
5707.614746
  20
-1437.904358
  0
VERTEX
  8
1
  10
5678.479004
  20
-1518.286896
  0
SEQEND
  8
11
  0
POINT
  8
2
 10
5707.614746
 20
-1437.904358
  0
TEXT
  8
2
 10
5707.614746
 20
-1437.904358
 40
0.000000
 50
0.000000
  1
# 236
  0
POINT
  8
2
 10
5678.479004
 20
-1518.286896
  0
TEXT
  8
2
 10
5678.479004
 20
-1518.286896
 40
0.000000
 50
0.000000
  1
# 237
  0
POLYLINE
  8
11
  66
1
  70
0
  0
VERTEX
  8
1
  10
5678.479004
  20
-1518.286896
  0
VERTEX
  8
1
  10
5673.778687
  20
-1516.582947
  0
SEQEND
  8
11
  0
POINT
  8
2
 10
5678.479004
 20
-1518.286896
  0
TEXT
  8
2
 10
5678.479004
 20
-1518.286896
 40
0.000000
 50
0.000000
  1
# 238
  0
POINT
  8
2
 10
5673.778687
 20
-1516.582947
  0
TEXT
  8
2
 10
5673.778687
 20
-1516.582947
 40
0.000000
 50
0.000000
  1
# 239
  0
POLYLINE
  8
11
  66
1
  70
0
  0
VERTEX
  8
1
  10
5297.248535
  20
-1462.005005
  0
VERTEX
  8
1
  10
5297.248535
  20
-2073.506775
  0
SEQEND
  8
11
  0
POINT
  8
2
 10
5297.248535
 20
-1462.005005
  0
TEXT
  8
2
 10
5297.248535
 20
-1462.005005
 40
0.000000
 50
0.000000
  1
# 240
  0
POINT
  8
2
 10
5297.248535
 20
-2073.506775
  0
TEXT
  8
2
 10
5297.248535
 20
-2073.506775
 40
0.000000
 50
0.000000
  1
# 241
  0
POLYLINE
  8
11
  66
1
  70
0
  0
VERTEX
  8
1
  10
5490.097656
  20
-1516.327515
  0
VERTEX
  8
1
  10
5489.990948
  20
-1527.147215
  0
VERTEX
  8
1
  10
5490.414916
  20
-1537.933740
  0
VERTEX
  8
1
  10
5491.295928
  20
-1548.028111
  0
VERTEX
  8
1
  10
5492.612082
  20
-1557.390530
  0
VERTEX
  8
1
  10
5494.176911
  20
-1565.223620
  0
VERTEX
  8
1
  10
5496.300304
  20
-1573.222036
  0
VERTEX
  8
1
  10
5498.979544
  20
-1581.040079
  0
VERTEX
  8
1
  10
5501.666720
  20
-1587.357288
  0
VERTEX
  8
1
  10
5504.792612
  20
-1593.443283
  0
VERTEX
  8
1
  10
5508.528118
  20
-1599.505210
  0
VERTEX
  8
1
  10
5512.706750
  20
-1605.410095
  0
VERTEX
  8
1
  10
5516.709595
  20
-1610.502472
  0
SEQEND
  8
11
  0
POINT
  8
2
 10
5490.097656
 20
-1516.327515
  0
TEXT
  8
2
 10
5490.097656
 20
-1516.327515
 40
0.000000
 50
0.000000
  1
# 242
  0
POINT
  8
2
 10
5516.709595
 20
-1610.502472
  0
TEXT
  8
2
 10
5516.709595
 20
-1610.502472
 40
0.000000
 50
0.000000
  1
# 243
  0
POINT
  8
3
 10
5489.990948
 20
-1527.147215
  0
POINT
  8
3
 10
5490.414916
 20
-1537.933740
  0
POINT
  8
3
 10
5491.295928
 20
-1548.028111
  0
POINT
  8
3
 10
5492.612082
 20
-1557.390530
  0
POINT
  8
3
 10
5494.176911
 20
-1565.223620
  0
POINT
  8
3
 10
5496.300304
 20
-1573.222036
  0
POINT
  8
3
 10
5498.979544
 20
-1581.040079
  0
POINT
  8
3
 10
5501.666720
 20
-1587.357288
  0
POINT
  8
3
 10
5504.792612
 20
-1593.443283
  0
POINT
  8
3
 10
5508.528118
 20
-1599.505210
  0
POINT
  8
3
 10
5512.706750
 20
-1605.410095
  0
POLYLINE
  8
11
  66
1
  70
0
  0
VERTEX
  8
1
  10
5527.518921
  20
-1605.291290
  0
VERTEX
  8
1
  10
5523.197350
  20
-1595.155978
  0
VERTEX
  8
1
  10
5519.186674
  20
-1587.104142
  0
VERTEX
  8
1
  10
5515.280724
  20
-1580.368622
  0
VERTEX
  8
1
  10
5503.747662
  20
-1561.966952
  0
VERTEX
  8
1
  10
5500.539174
  20
-1555.753132
  0
VERTEX
  8
1
  10
5497.949055
  20
-1549.638399
  0
VERTEX
  8
1
  10
5495.431649
  20
-1542.346572
  0
VERTEX
  8
1
  10
5493.493912
  20
-1535.392541
  0
VERTEX
  8
1
  10
5491.874357
  20
-1528.112953
  0
VERTEX
  8
1
  10
5490.638975
  20
-1520.817181
  0
VERTEX
  8
1
  10
5490.097656
  20
-1516.327515
  0
SEQEND
  8
11
  0
POINT
  8
2
 10
5527.518921
 20
-1605.291290
  0
TEXT
  8
2
 10
5527.518921
 20
-1605.291290
 40
0.000000
 50
0.000000
  1
# 244
  0
POINT
  8
2
 10
5490.097656
 20
-1516.327515
  0
TEXT
  8
2
 10
5490.097656
 20
-1516.327515
 40
0.000000
 50
0.000000
  1
# 245
  0
POINT
  8
3
 10
5523.197350
 20
-1595.155978
  0
POINT
  8
3
 10
5519.186674
 20
-1587.104142
  0
POINT
  8
3
 10
5515.280724
 20
-1580.368622
  0
POINT
  8
3
 10
5503.747662
 20
-1561.966952
  0
POINT
  8
3
 10
5500.539174
 20
-1555.753132
  0
POINT
  8
3
 10
5497.949055
 20
-1549.638399
  0
POINT
  8
3
 10
5495.431649
 20
-1542.346572
  0
POINT
  8
3
 10
5493.493912
 20
-1535.392541
  0
POINT
  8
3
 10
5491.874357
 20
-1528.112953
  0
POINT
  8
3
 10
5490.638975
 20
-1520.817181
  0
POLYLINE
  8
11
  66
1
  70
0
  0
VERTEX
  8
1
  10
5733.407593
  20
-1484.542847
  0
VERTEX
  8
1
  10
5393.103638
  20
-1357.990265
  0
SEQEND
  8
11
  0
POINT
  8
2
 10
5733.407593
 20
-1484.542847
  0
TEXT
  8
2
 10
5733.407593
 20
-1484.542847
 40
0.000000
 50
0.000000
  1
# 246
  0
POINT
  8
2
 10
5393.103638
 20
-1357.990265
  0
TEXT
  8
2
 10
5393.103638
 20
-1357.990265
 40
0.000000
 50
0.000000
  1
# 247
  0
POLYLINE
  8
11
  6
2
  66
1
  70
0
  0
VERTEX
  8
1
  10
5392.720337
  20
-1323.157196
  0
VERTEX
  8
1
  10
5395.557330
  20
-1331.792033
  0
VERTEX
  8
1
  10
5397.384407
  20
-1338.845234
  0
VERTEX
  8
1
  10
5398.754740
  20
-1346.062604
  0
VERTEX
  8
1
  10
5398.978882
  20
-1347.493896
  0
SEQEND
  8
11
  0
POINT
  8
2
 10
5392.720337
 20
-1323.157196
  0
TEXT
  8
2
 10
5392.720337
 20
-1323.157196
 40
0.000000
 50
0.000000
  1
# 248
  0
POINT
  8
2
 10
5398.978882
 20
-1347.493896
  0
TEXT
  8
2
 10
5398.978882
 20
-1347.493896
 40
0.000000
 50
0.000000
  1
# 249
  0
POINT
  8
3
 10
5395.557330
 20
-1331.792033
  0
POINT
  8
3
 10
5397.384407
 20
-1338.845234
  0
POINT
  8
3
 10
5398.754740
 20
-1346.062604
  0
POLYLINE
  8
11
  66
1
  70
0
  0
VERTEX
  8
1
  10
5398.978882
  20
-1347.493896
  0
VERTEX
  8
1
  10
5392.662964
  20
-1348.463135
  0
SEQEND
  8
11
  0
POINT
  8
2
 10
5398.978882
 20
-1347.493896
  0
TEXT
  8
2
 10
5398.978882
 20
-1347.493896
 40
0.000000
 50
0.000000
  1
# 250
  0
POINT
  8
2
 10
5392.662964
 20
-1348.463135
  0
TEXT
  8
2
 10
5392.662964
 20
-1348.463135
 40
0.000000
 50
0.000000
  1
# 251
  0
POLYLINE
  8
11
  66
1
  70
0
  0
VERTEX
  8
1
  10
5490.097656
  20
-1516.327515
  0
VERTEX
  8
1
  10
5490.671420
  20
-1525.833609
  0
VERTEX
  8
1
  10
5491.794382
  20
-1535.344892
  0
VERTEX
  8
1
  10
5493.296463
  20
-1544.064377
  0
VERTEX
  8
1
  10
5495.131380
  20
-1552.062987
  0
VERTEX
  8
1
  10
5497.558979
  20
-1560.230472
  0
VERTEX
  8
1
  10
5499.958828
  20
-1566.647140
  0
VERTEX
  8
1
  10
5503.508302
  20
-1574.554773
  0
VERTEX
  8
1
  10
5508.155432
  20
-1583.594038
  0
VERTEX
  8
1
  10
5517.132798
  20
-1599.736341
  0
VERTEX
  8
1
  10
5523.914795
  20
-1611.571045
  0
SEQEND
  8
11
  0
POINT
  8
2
 10
5490.097656
 20
-1516.327515
  0
TEXT
  8
2
 10
5490.097656
 20
-1516.327515
 40
0.000000
 50
0.000000
  1
# 252
  0
POINT
  8
2
 10
5523.914795
 20
-1611.571045
  0
TEXT
  8
2
 10
5523.914795
 20
-1611.571045
 40
0.000000
 50
0.000000
  1
# 253
  0
POINT
  8
3
 10
5490.671420
 20
-1525.833609
  0
POINT
  8
3
 10
5491.794382
 20
-1535.344892
  0
POINT
  8
3
 10
5493.296463
 20
-1544.064377
  0
POINT
  8
3
 10
5495.131380
 20
-1552.062987
  0
POINT
  8
3
 10
5497.558979
 20
-1560.230472
  0
POINT
  8
3
 10
5499.958828
 20
-1566.647140
  0
POINT
  8
3
 10
5503.508302
 20
-1574.554773
  0
POINT
  8
3
 10
5508.155432
 20
-1583.594038
  0
POINT
  8
3
 10
5517.132798
 20
-1599.736341
  0
POLYLINE
  8
11
  66
1
  70
0
  0
VERTEX
  8
1
  10
5496.139526
  20
-1695.039673
  0
VERTEX
  8
1
  10
5297.247925
  20
-1695.039673
  0
SEQEND
  8
11
  0
POINT
  8
2
 10
5496.139526
 20
-1695.039673
  0
TEXT
  8
2
 10
5496.139526
 20
-1695.039673
 40
0.000000
 50
0.000000
  1
# 254
  0
POINT
  8
2
 10
5297.247925
 20
-1695.039673
  0
TEXT
  8
2
 10
5297.247925
 20
-1695.039673
 40
0.000000
 50
0.000000
  1
# 255
  0
POLYLINE
  8
11
  66
1
  70
0
  0
VERTEX
  8
1
  10
5106.659241
  20
-1992.733459
  0
VERTEX
  8
1
  10
5124.602051
  20
-1989.826202
  0
SEQEND
  8
11
  0
POINT
  8
2
 10
5106.659241
 20
-1992.733459
  0
TEXT
  8
2
 10
5106.659241
 20
-1992.733459
 40
0.000000
 50
0.000000
  1
# 256
  0
POINT
  8
2
 10
5124.602051
 20
-1989.826202
  0
TEXT
  8
2
 10
5124.602051
 20
-1989.826202
 40
0.000000
 50
0.000000
  1
# 257
  0
POLYLINE
  8
11
  66
1
  70
0
  0
VERTEX
  8
1
  10
5123.796997
  20
-1978.710938
  0
VERTEX
  8
1
  10
5107.890625
  20
-1962.451935
  0
SEQEND
  8
11
  0
POINT
  8
2
 10
5123.796997
 20
-1978.710938
  0
TEXT
  8
2
 10
5123.796997
 20
-1978.710938
 40
0.000000
 50
0.000000
  1
# 258
  0
POINT
  8
2
 10
5107.890625
 20
-1962.451935
  0
TEXT
  8
2
 10
5107.890625
 20
-1962.451935
 40
0.000000
 50
0.000000
  1
# 259
  0
POLYLINE
  8
11
  6
2
  66
1
  70
0
  0
VERTEX
  8
1
  10
5297.248535
  20
-2056.506805
  0
VERTEX
  8
1
  10
5486.500854
  20
-2056.501923
  0
SEQEND
  8
11
  0
POINT
  8
2
 10
5297.248535
 20
-2056.506805
  0
TEXT
  8
2
 10
5297.248535
 20
-2056.506805
 40
0.000000
 50
0.000000
  1
# 260
  0
POINT
  8
2
 10
5486.500854
 20
-2056.501923
  0
TEXT
  8
2
 10
5486.500854
 20
-2056.501923
 40
0.000000
 50
0.000000
  1
# 261
  0
POLYLINE
  8
11
  6
2
  66
1
  70
0
  0
VERTEX
  8
1
  10
5297.248535
  20
-2053.506775
  0
VERTEX
  8
1
  10
5486.537476
  20
-2053.501892
  0
SEQEND
  8
11
  0
POINT
  8
2
 10
5297.248535
 20
-2053.506775
  0
TEXT
  8
2
 10
5297.248535
 20
-2053.506775
 40
0.000000
 50
0.000000
  1
# 262
  0
POINT
  8
2
 10
5486.537476
 20
-2053.501892
  0
TEXT
  8
2
 10
5486.537476
 20
-2053.501892
 40
0.000000
 50
0.000000
  1
# 263
  0
POLYLINE
  8
11
  6
2
  66
1
  70
0
  0
VERTEX
  8
1
  10
5669.488525
  20
-1608.893433
  0
VERTEX
  8
1
  10
5689.800199
  20
-1553.748390
  0
VERTEX
  8
1
  10
5708.450369
  20
-1503.114223
  0
VERTEX
  8
1
  10
5726.393412
  20
-1454.399854
  0
VERTEX
  8
1
  10
5745.047779
  20
-1403.754269
  0
VERTEX
  8
1
  10
5762.166497
  20
-1357.277879
  0
VERTEX
  8
1
  10
5765.332031
  20
-1348.683624
  0
SEQEND
  8
11
  0
POINT
  8
2
 10
5669.488525
 20
-1608.893433
  0
TEXT
  8
2
 10
5669.488525
 20
-1608.893433
 40
0.000000
 50
0.000000
  1
# 264
  0
POINT
  8
2
 10
5765.332031
 20
-1348.683624
  0
TEXT
  8
2
 10
5765.332031
 20
-1348.683624
 40
0.000000
 50
0.000000
  1
# 265
  0
POINT
  8
3
 10
5689.800199
 20
-1553.748390
  0
POINT
  8
3
 10
5708.450369
 20
-1503.114223
  0
POINT
  8
3
 10
5726.393412
 20
-1454.399854
  0
POINT
  8
3
 10
5745.047779
 20
-1403.754269
  0
POINT
  8
3
 10
5762.166497
 20
-1357.277879
  0
POLYLINE
  8
11
  6
2
  66
1
  70
0
  0
VERTEX
  8
1
  10
5666.566772
  20
-1608.145447
  0
VERTEX
  8
1
  10
5686.924269
  20
-1552.876147
  0
VERTEX
  8
1
  10
5705.616391
  20
-1502.128221
  0
VERTEX
  8
1
  10
5723.598304
  20
-1453.308455
  0
VERTEX
  8
1
  10
5742.294547
  20
-1402.549317
  0
VERTEX
  8
1
  10
5759.452014
  20
-1355.967851
  0
VERTEX
  8
1
  10
5762.625122
  20
-1347.353058
  0
SEQEND
  8
11
  0
POINT
  8
2
 10
5666.566772
 20
-1608.145447
  0
TEXT
  8
2
 10
5666.566772
 20
-1608.145447
 40
0.000000
 50
0.000000
  1
# 266
  0
POINT
  8
2
 10
5762.625122
 20
-1347.353058
  0
TEXT
  8
2
 10
5762.625122
 20
-1347.353058
 40
0.000000
 50
0.000000
  1
# 267
  0
POINT
  8
3
 10
5686.924269
 20
-1552.876147
  0
POINT
  8
3
 10
5705.616391
 20
-1502.128221
  0
POINT
  8
3
 10
5723.598304
 20
-1453.308455
  0
POINT
  8
3
 10
5742.294547
 20
-1402.549317
  0
POINT
  8
3
 10
5759.452014
 20
-1355.967851
  0
POLYLINE
  8
11
  66
1
  70
0
  0
VERTEX
  8
1
  10
5689.039307
  20
-1285.085449
  0
VERTEX
  8
1
  10
5567.402954
  20
-1602.367706
  0
SEQEND
  8
11
  0
POINT
  8
2
 10
5689.039307
 20
-1285.085449
  0
TEXT
  8
2
 10
5689.039307
 20
-1285.085449
 40
0.000000
 50
0.000000
  1
# 268
  0
POINT
  8
2
 10
5567.402954
 20
-1602.367706
  0
TEXT
  8
2
 10
5567.402954
 20
-1602.367706
 40
0.000000
 50
0.000000
  1
# 269
  0
POLYLINE
  8
11
  66
1
  70
0
  0
VERTEX
  8
1
  10
5104.398804
  20
-1516.327515
  0
VERTEX
  8
1
  10
5104.505504
  20
-1527.147220
  0
VERTEX
  8
1
  10
5104.081517
  20
-1537.933749
  0
VERTEX
  8
1
  10
5103.200478
  20
-1548.028121
  0
VERTEX
  8
1
  10
5101.884290
  20
-1557.390540
  0
VERTEX
  8
1
  10
5100.319435
  20
-1565.223580
  0
VERTEX
  8
1
  10
5098.196001
  20
-1573.221996
  0
VERTEX
  8
1
  10
5095.516719
  20
-1581.040038
  0
VERTEX
  8
1
  10
5092.829514
  20
-1587.357247
  0
VERTEX
  8
1
  10
5089.703599
  20
-1593.443242
  0
VERTEX
  8
1
  10
5085.968039
  20
-1599.505229
  0
VERTEX
  8
1
  10
5081.789398
  20
-1605.410109
  0
VERTEX
  8
1
  10
5077.786560
  20
-1610.502472
  0
SEQEND
  8
11
  0
POINT
  8
2
 10
5104.398804
 20
-1516.327515
  0
TEXT
  8
2
 10
5104.398804
 20
-1516.327515
 40
0.000000
 50
0.000000
  1
# 270
  0
POINT
  8
2
 10
5077.786560
 20
-1610.502472
  0
TEXT
  8
2
 10
5077.786560
 20
-1610.502472
 40
0.000000
 50
0.000000
  1
# 271
  0
POINT
  8
3
 10
5104.505504
 20
-1527.147220
  0
POINT
  8
3
 10
5104.081517
 20
-1537.933749
  0
POINT
  8
3
 10
5103.200478
 20
-1548.028121
  0
POINT
  8
3
 10
5101.884290
 20
-1557.390540
  0
POINT
  8
3
 10
5100.319435
 20
-1565.223580
  0
POINT
  8
3
 10
5098.196001
 20
-1573.221996
  0
POINT
  8
3
 10
5095.516719
 20
-1581.040038
  0
POINT
  8
3
 10
5092.829514
 20
-1587.357247
  0
POINT
  8
3
 10
5089.703599
 20
-1593.443242
  0
POINT
  8
3
 10
5085.968039
 20
-1599.505229
  0
POINT
  8
3
 10
5081.789398
 20
-1605.410109
  0
POLYLINE
  8
11
  66
1
  70
0
  0
VERTEX
  8
1
  10
5066.977234
  20
-1605.291290
  0
VERTEX
  8
1
  10
5071.298933
  20
-1595.155963
  0
VERTEX
  8
1
  10
5075.309676
  20
-1587.104119
  0
VERTEX
  8
1
  10
5079.215630
  20
-1580.368625
  0
VERTEX
  8
1
  10
5090.748637
  20
-1561.966953
  0
VERTEX
  8
1
  10
5093.957099
  20
-1555.753160
  0
VERTEX
  8
1
  10
5096.547221
  20
-1549.638429
  0
VERTEX
  8
1
  10
5099.064645
  20
-1542.346603
  0
VERTEX
  8
1
  10
5101.002413
  20
-1535.392573
  0
VERTEX
  8
1
  10
5102.622010
  20
-1528.112984
  0
VERTEX
  8
1
  10
5103.857445
  20
-1520.817205
  0
VERTEX
  8
1
  10
5104.398804
  20
-1516.327515
  0
SEQEND
  8
11
  0
POINT
  8
2
 10
5066.977234
 20
-1605.291290
  0
TEXT
  8
2
 10
5066.977234
 20
-1605.291290
 40
0.000000
 50
0.000000
  1
# 272
  0
POINT
  8
2
 10
5104.398804
 20
-1516.327515
  0
TEXT
  8
2
 10
5104.398804
 20
-1516.327515
 40
0.000000
 50
0.000000
  1
# 273
  0
POINT
  8
3
 10
5071.298933
 20
-1595.155963
  0
POINT
  8
3
 10
5075.309676
 20
-1587.104119
  0
POINT
  8
3
 10
5079.215630
 20
-1580.368625
  0
POINT
  8
3
 10
5090.748637
 20
-1561.966953
  0
POINT
  8
3
 10
5093.957099
 20
-1555.753160
  0
POINT
  8
3
 10
5096.547221
 20
-1549.638429
  0
POINT
  8
3
 10
5099.064645
 20
-1542.346603
  0
POINT
  8
3
 10
5101.002413
 20
-1535.392573
  0
POINT
  8
3
 10
5102.622010
 20
-1528.112984
  0
POINT
  8
3
 10
5103.857445
 20
-1520.817205
  0
POLYLINE
  8
11
  66
1
  70
0
  0
VERTEX
  8
1
  10
4861.088867
  20
-1484.542847
  0
VERTEX
  8
1
  10
5201.392822
  20
-1357.990265
  0
SEQEND
  8
11
  0
POINT
  8
2
 10
4861.088867
 20
-1484.542847
  0
TEXT
  8
2
 10
4861.088867
 20
-1484.542847
 40
0.000000
 50
0.000000
  1
# 274
  0
POINT
  8
2
 10
5201.392822
 20
-1357.990265
  0
TEXT
  8
2
 10
5201.392822
 20
-1357.990265
 40
0.000000
 50
0.000000
  1
# 275
  0
POLYLINE
  8
11
  6
2
  66
1
  70
0
  0
VERTEX
  8
1
  10
5201.776123
  20
-1323.157196
  0
VERTEX
  8
1
  10
5198.939130
  20
-1331.792033
  0
VERTEX
  8
1
  10
5197.112053
  20
-1338.845234
  0
VERTEX
  8
1
  10
5195.741720
  20
-1346.062604
  0
VERTEX
  8
1
  10
5195.517578
  20
-1347.493896
  0
SEQEND
  8
11
  0
POINT
  8
2
 10
5201.776123
 20
-1323.157196
  0
TEXT
  8
2
 10
5201.776123
 20
-1323.157196
 40
0.000000
 50
0.000000
  1
# 276
  0
POINT
  8
2
 10
5195.517578
 20
-1347.493896
  0
TEXT
  8
2
 10
5195.517578
 20
-1347.493896
 40
0.000000
 50
0.000000
  1
# 277
  0
POINT
  8
3
 10
5198.939130
 20
-1331.792033
  0
POINT
  8
3
 10
5197.112053
 20
-1338.845234
  0
POINT
  8
3
 10
5195.741720
 20
-1346.062604
  0
POLYLINE
  8
11
  66
1
  70
0
  0
VERTEX
  8
1
  10
5195.517578
  20
-1347.493896
  0
VERTEX
  8
1
  10
5201.833496
  20
-1348.463135
  0
SEQEND
  8
11
  0
POINT
  8
2
 10
5195.517578
 20
-1347.493896
  0
TEXT
  8
2
 10
5195.517578
 20
-1347.493896
 40
0.000000
 50
0.000000
  1
# 278
  0
POINT
  8
2
 10
5201.833496
 20
-1348.463135
  0
TEXT
  8
2
 10
5201.833496
 20
-1348.463135
 40
0.000000
 50
0.000000
  1
# 279
  0
POLYLINE
  8
11
  66
1
  70
0
  0
VERTEX
  8
1
  10
5104.398804
  20
-1516.327515
  0
VERTEX
  8
1
  10
5103.824968
  20
-1525.833625
  0
VERTEX
  8
1
  10
5102.701952
  20
-1535.344921
  0
VERTEX
  8
1
  10
5101.199835
  20
-1544.064417
  0
VERTEX
  8
1
  10
5099.364898
  20
-1552.063034
  0
VERTEX
  8
1
  10
5096.937294
  20
-1560.230524
  0
VERTEX
  8
1
  10
5094.537459
  20
-1566.647187
  0
VERTEX
  8
1
  10
5090.988009
  20
-1574.554821
  0
VERTEX
  8
1
  10
5086.340900
  20
-1583.594085
  0
VERTEX
  8
1
  10
5077.363550
  20
-1599.736243
  0
VERTEX
  8
1
  10
5070.581360
  20
-1611.571045
  0
SEQEND
  8
11
  0
POINT
  8
2
 10
5104.398804
 20
-1516.327515
  0
TEXT
  8
2
 10
5104.398804
 20
-1516.327515
 40
0.000000
 50
0.000000
  1
# 280
  0
POINT
  8
2
 10
5070.581360
 20
-1611.571045
  0
TEXT
  8
2
 10
5070.581360
 20
-1611.571045
 40
0.000000
 50
0.000000
  1
# 281
  0
POINT
  8
3
 10
5103.824968
 20
-1525.833625
  0
POINT
  8
3
 10
5102.701952
 20
-1535.344921
  0
POINT
  8
3
 10
5101.199835
 20
-1544.064417
  0
POINT
  8
3
 10
5099.364898
 20
-1552.063034
  0
POINT
  8
3
 10
5096.937294
 20
-1560.230524
  0
POINT
  8
3
 10
5094.537459
 20
-1566.647187
  0
POINT
  8
3
 10
5090.988009
 20
-1574.554821
  0
POINT
  8
3
 10
5086.340900
 20
-1583.594085
  0
POINT
  8
3
 10
5077.363550
 20
-1599.736243
  0
POLYLINE
  8
11
  66
1
  70
0
  0
VERTEX
  8
1
  10
5098.356934
  20
-1695.039673
  0
VERTEX
  8
1
  10
5297.248535
  20
-1695.039673
  0
SEQEND
  8
11
  0
POINT
  8
2
 10
5098.356934
 20
-1695.039673
  0
TEXT
  8
2
 10
5098.356934
 20
-1695.039673
 40
0.000000
 50
0.000000
  1
# 282
  0
POINT
  8
2
 10
5297.248535
 20
-1695.039673
  0
TEXT
  8
2
 10
5297.248535
 20
-1695.039673
 40
0.000000
 50
0.000000
  1
# 283
  0
POLYLINE
  8
11
  6
2
  66
1
  70
0
  0
VERTEX
  8
1
  10
5297.247925
  20
-2056.506805
  0
VERTEX
  8
1
  10
5107.995300
  20
-2056.501923
  0
SEQEND
  8
11
  0
POINT
  8
2
 10
5297.247925
 20
-2056.506805
  0
TEXT
  8
2
 10
5297.247925
 20
-2056.506805
 40
0.000000
 50
0.000000
  1
# 284
  0
POINT
  8
2
 10
5107.995300
 20
-2056.501923
  0
TEXT
  8
2
 10
5107.995300
 20
-2056.501923
 40
0.000000
 50
0.000000
  1
# 285
  0
POLYLINE
  8
11
  6
2
  66
1
  70
0
  0
VERTEX
  8
1
  10
5297.247925
  20
-2053.506775
  0
VERTEX
  8
1
  10
5107.958984
  20
-2053.501892
  0
SEQEND
  8
11
  0
POINT
  8
2
 10
5297.247925
 20
-2053.506775
  0
TEXT
  8
2
 10
5297.247925
 20
-2053.506775
 40
0.000000
 50
0.000000
  1
# 286
  0
POINT
  8
2
 10
5107.958984
 20
-2053.501892
  0
TEXT
  8
2
 10
5107.958984
 20
-2053.501892
 40
0.000000
 50
0.000000
  1
# 287
  0
POLYLINE
  8
11
  6
2
  66
1
  70
0
  0
VERTEX
  8
1
  10
4925.007935
  20
-1608.893433
  0
VERTEX
  8
1
  10
4904.696251
  20
-1553.748406
  0
VERTEX
  8
1
  10
4886.046049
  20
-1503.114246
  0
VERTEX
  8
1
  10
4868.102922
  20
-1454.399805
  0
VERTEX
  8
1
  10
4849.448472
  20
-1403.754223
  0
VERTEX
  8
1
  10
4832.329667
  20
-1357.277853
  0
VERTEX
  8
1
  10
4829.164124
  20
-1348.683624
  0
SEQEND
  8
11
  0
POINT
  8
2
 10
4925.007935
 20
-1608.893433
  0
TEXT
  8
2
 10
4925.007935
 20
-1608.893433
 40
0.000000
 50
0.000000
  1
# 288
  0
POINT
  8
2
 10
4829.164124
 20
-1348.683624
  0
TEXT
  8
2
 10
4829.164124
 20
-1348.683624
 40
0.000000
 50
0.000000
  1
# 289
  0
POINT
  8
3
 10
4904.696251
 20
-1553.748406
  0
POINT
  8
3
 10
4886.046049
 20
-1503.114246
  0
POINT
  8
3
 10
4868.102922
 20
-1454.399805
  0
POINT
  8
3
 10
4849.448472
 20
-1403.754223
  0
POINT
  8
3
 10
4832.329667
 20
-1357.277853
  0
POLYLINE
  8
11
  6
2
  66
1
  70
0
  0
VERTEX
  8
1
  10
4927.929688
  20
-1608.145447
  0
VERTEX
  8
1
  10
4907.572170
  20
-1552.876132
  0
VERTEX
  8
1
  10
4888.880009
  20
-1502.128197
  0
VERTEX
  8
1
  10
4870.898066
  20
-1453.308504
  0
VERTEX
  8
1
  10
4852.201738
  20
-1402.549364
  0
VERTEX
  8
1
  10
4835.044169
  20
-1355.967876
  0
VERTEX
  8
1
  10
4831.871033
  20
-1347.353058
  0
SEQEND
  8
11
  0
POINT
  8
2
 10
4927.929688
 20
-1608.145447
  0
TEXT
  8
2
 10
4927.929688
 20
-1608.145447
 40
0.000000
 50
0.000000
  1
# 290
  0
POINT
  8
2
 10
4831.871033
 20
-1347.353058
  0
TEXT
  8
2
 10
4831.871033
 20
-1347.353058
 40
0.000000
 50
0.000000
  1
# 291
  0
POINT
  8
3
 10
4907.572170
 20
-1552.876132
  0
POINT
  8
3
 10
4888.880009
 20
-1502.128197
  0
POINT
  8
3
 10
4870.898066
 20
-1453.308504
  0
POINT
  8
3
 10
4852.201738
 20
-1402.549364
  0
POINT
  8
3
 10
4835.044169
 20
-1355.967876
  0
POLYLINE
  8
11
  66
1
  70
0
  0
VERTEX
  8
1
  10
4905.457153
  20
-1285.085449
  0
VERTEX
  8
1
  10
5027.093506
  20
-1602.367706
  0
SEQEND
  8
11
  0
POINT
  8
2
 10
4905.457153
 20
-1285.085449
  0
TEXT
  8
2
 10
4905.457153
 20
-1285.085449
 40
0.000000
 50
0.000000
  1
# 292
  0
POINT
  8
2
 10
5027.093506
 20
-1602.367706
  0
TEXT
  8
2
 10
5027.093506
 20
-1602.367706
 40
0.000000
 50
0.000000
  1
# 293
 0
LINE
 8
7
 10
5307.804565
 20
-1636.251526
 11
5307.804565
 21
-1920.363007
  0
TEXT
  8
1
 10
5111.189575
 20
-1979.388580
 40
10.000000
 50
357.622847
  1
夹标
  0
TEXT
  8
1
 10
5198.648071
 20
-1964.501801
 40
53.000002
 50
0.000000
  1
裁片印花
  0
TEXT
  8
1
 10
5662.028198
 20
-1485.919952
 40
20.000000
 50
70.015021
  1
画位
 0
LINE
 8
11
 10
5677.426147
 20
-1520.002899
 11
5707.214966
 21
-1440.668793
 0
LINE
 8
11
 10
5707.214966
 20
-1440.668793
 11
5701.605225
 21
-1438.519440
 0
LINE
 8
11
 10
5701.605225
 20
-1438.519440
 11
5671.816406
 21
-1517.853546
 0
LINE
 8
11
 10
5671.816406
 20
-1517.853546
 11
5677.426147
 21
-1520.002899
 0
LINE
 8
11
 10
5692.320557
 20
-1480.335846
 11
5686.710815
 21
-1478.186493
 0
LINE
 8
11
 10
5704.410400
 20
-1439.594116
 11
5674.621582
 21
-1518.927917
  0
TEXT
  8
1
 10
5297.248230
 20
-1669.182816
 40
10.000000
 50
0.000000
  1
PIECE NAME: C2590045莓汁红.前片
  0
TEXT
  8
1
 10
5297.248230
 20
-1654.182816
 40
10.000000
 50
0.000000
  1
Size: L
  0
TEXT
  8
1
 10
5297.248230
 20
-1639.182816
 40
10.000000
 50
0.000000
  1
ANNOTATION: 面料A X1
  0
TEXT
  8
1
 10
5297.248230
 20
-1624.182816
 40
10.000000
 50
0.000000
  1
QUANTITY: 1
  0
TEXT
  8
1
 10
5297.248230
 20
-1609.182816
 40
10.000000
 50
0.000000
  1
FABRIC: 面料A
  0
TEXT
  8
1
 10
5297.248230
 20
-1594.182816
 40
10.000000
 50
0.000000
  1
CATEGORY: 前片
  0
TEXT
  8
1
 10
5297.248230
 20
-1579.182816
 40
10.000000
 50
0.000000
  1
SHRINKAGE: 经:1.0%，纬:0.0%
0
ENDBLK
0
BLOCK
  8
1
  2
C2590045莓汁红.左侧片_面料B_L
 70
0
 10
0.0
 20
0.0
  0
POLYLINE
  8
1
  66
1
  70
1
  0
VERTEX
  8
1
  10
3870.344527
  20
-1812.756695
  0
VERTEX
  8
1
  10
3869.399022
  20
-1763.849077
  0
VERTEX
  8
1
  10
3868.898579
  20
-1725.820403
  0
VERTEX
  8
1
  10
3868.929257
  20
-1703.404903
  0
VERTEX
  8
1
  10
3869.331840
  20
-1685.414819
  0
VERTEX
  8
1
  10
3870.079580
  20
-1669.645700
  0
VERTEX
  8
1
  10
3870.574496
  20
-1663.271878
  0
VERTEX
  8
1
  10
3871.307516
  20
-1653.831599
  0
VERTEX
  8
1
  10
3871.347329
  20
-1653.318859
  0
VERTEX
  8
1
  10
3873.090386
  20
-1637.607307
  0
VERTEX
  8
1
  10
3876.164612
  20
-1615.385207
  0
VERTEX
  8
1
  10
3884.151270
  20
-1563.266254
  0
VERTEX
  8
1
  10
3884.151280
  20
-1563.266192
  0
VERTEX
  8
1
  10
3888.246850
  20
-1537.739477
  0
VERTEX
  8
1
  10
3896.658183
  20
-1490.660230
  0
VERTEX
  8
1
  10
3897.737830
  20
-1484.094628
  0
VERTEX
  8
1
  10
3899.476859
  20
-1473.519157
  0
VERTEX
  8
1
  10
3901.287138
  20
-1460.154392
  0
VERTEX
  8
1
  10
3903.016219
  20
-1443.398698
  0
VERTEX
  8
1
  10
3904.385425
  20
-1424.812646
  0
VERTEX
  8
1
  10
3905.259002
  20
-1405.548994
  0
VERTEX
  8
1
  10
3905.488084
  20
-1386.266905
  0
VERTEX
  8
1
  10
3905.476321
  20
-1385.547029
  0
VERTEX
  8
1
  10
3997.501138
  20
-1388.179538
  0
VERTEX
  8
1
  10
3997.289873
  20
-1393.481043
  0
VERTEX
  8
1
  10
3996.935024
  20
-1408.171525
  0
VERTEX
  8
1
  10
3996.449493
  20
-1422.858269
  0
VERTEX
  8
1
  10
3996.072562
  20
-1444.558240
  0
VERTEX
  8
1
  10
3996.124775
  20
-1462.779399
  0
VERTEX
  8
1
  10
3996.736078
  20
-1486.088050
  0
VERTEX
  8
1
  10
3996.951356
  20
-1494.296485
  0
VERTEX
  8
1
  10
3997.544648
  20
-1517.640426
  0
VERTEX
  8
1
  10
3997.611402
  20
-1538.349287
  0
VERTEX
  8
1
  10
3997.075091
  20
-1564.785624
  0
VERTEX
  8
1
  10
3997.077653
  20
-1564.659355
  0
VERTEX
  8
1
  10
3997.069684
  20
-1575.482226
  0
VERTEX
  8
1
  10
3996.699118
  20
-1591.590800
  0
VERTEX
  8
1
  10
3995.912667
  20
-1607.142534
  0
VERTEX
  8
1
  10
3994.832642
  20
-1620.188470
  0
VERTEX
  8
1
  10
3993.378593
  20
-1632.429279
  0
VERTEX
  8
1
  10
3991.436746
  20
-1644.642034
  0
VERTEX
  8
1
  10
3988.948192
  20
-1656.791702
  0
VERTEX
  8
1
  10
3985.853477
  20
-1668.842154
  0
VERTEX
  8
1
  10
3983.375855
  20
-1676.953692
  0
VERTEX
  8
1
  10
3979.908888
  20
-1686.775029
  0
VERTEX
  8
1
  10
3975.953299
  20
-1696.430793
  0
VERTEX
  8
1
  10
3971.443594
  20
-1705.984660
  0
VERTEX
  8
1
  10
3966.476382
  20
-1715.188947
  0
VERTEX
  8
1
  10
3961.047391
  20
-1724.113351
  0
VERTEX
  8
1
  10
3955.194177
  20
-1732.753531
  0
VERTEX
  8
1
  10
3948.953668
  20
-1741.105509
  0
VERTEX
  8
1
  10
3942.362202
  20
-1749.165509
  0
VERTEX
  8
1
  10
3934.039564
  20
-1758.446882
  0
VERTEX
  8
1
  10
3926.036867
  20
-1766.601732
  0
VERTEX
  8
1
  10
3917.129843
  20
-1774.971394
  0
VERTEX
  8
1
  10
3907.019028
  20
-1783.811339
  0
VERTEX
  8
1
  10
3895.555808
  20
-1793.182106
  0
VERTEX
  8
1
  10
3883.329421
  20
-1802.589220
  0
VERTEX
  8
1
  10
3870.344527
  20
-1812.756695
  0
SEQEND
  8
1
  0
POINT
  8
2
 10
3870.344527
 20
-1812.756695
  0
TEXT
  8
2
 10
3870.344527
 20
-1812.756695
 40
0.000000
 50
0.000000
  1
# 294
  0
POINT
  8
2
 10
3884.151270
 20
-1563.266254
  0
TEXT
  8
2
 10
3884.151270
 20
-1563.266254
 40
0.000000
 50
0.000000
  1
# 295
  0
POINT
  8
2
 10
3905.259002
 20
-1405.548994
  0
TEXT
  8
2
 10
3905.259002
 20
-1405.548994
 40
0.000000
 50
0.000000
  1
# 296
  0
POINT
  8
2
 10
3905.476321
 20
-1385.547029
  0
TEXT
  8
2
 10
3905.476321
 20
-1385.547029
 40
0.000000
 50
0.000000
  1
# 297
  0
POINT
  8
2
 10
3997.501138
 20
-1388.179538
  0
TEXT
  8
2
 10
3997.501138
 20
-1388.179538
 40
0.000000
 50
0.000000
  1
# 298
  0
POINT
  8
2
 10
3996.935024
 20
-1408.171525
  0
TEXT
  8
2
 10
3996.935024
 20
-1408.171525
 40
0.000000
 50
0.000000
  1
# 299
  0
POINT
  8
2
 10
3997.075091
 20
-1564.785624
  0
TEXT
  8
2
 10
3997.075091
 20
-1564.785624
 40
0.000000
 50
0.000000
  1
# 300
  0
POINT
  8
2
 10
3870.344527
 20
-1812.756695
  0
TEXT
  8
2
 10
3870.344527
 20
-1812.756695
 40
0.000000
 50
0.000000
  1
# 301
  0
POINT
  8
3
 10
3869.399022
 20
-1763.849077
  0
POINT
  8
3
 10
3868.898579
 20
-1725.820403
  0
POINT
  8
3
 10
3868.929257
 20
-1703.404903
  0
POINT
  8
3
 10
3869.331840
 20
-1685.414819
  0
POINT
  8
3
 10
3870.079580
 20
-1669.645700
  0
POINT
  8
3
 10
3870.574496
 20
-1663.271878
  0
POINT
  8
3
 10
3871.307516
 20
-1653.831599
  0
POINT
  8
3
 10
3871.347329
 20
-1653.318859
  0
POINT
  8
3
 10
3873.090386
 20
-1637.607307
  0
POINT
  8
3
 10
3876.164612
 20
-1615.385207
  0
POINT
  8
3
 10
3884.151280
 20
-1563.266192
  0
POINT
  8
3
 10
3888.246850
 20
-1537.739477
  0
POINT
  8
3
 10
3896.658183
 20
-1490.660230
  0
POINT
  8
3
 10
3897.737830
 20
-1484.094628
  0
POINT
  8
3
 10
3899.476859
 20
-1473.519157
  0
POINT
  8
3
 10
3901.287138
 20
-1460.154392
  0
POINT
  8
3
 10
3903.016219
 20
-1443.398698
  0
POINT
  8
3
 10
3904.385425
 20
-1424.812646
  0
POINT
  8
3
 10
3905.488084
 20
-1386.266905
  0
POINT
  8
3
 10
3997.289873
 20
-1393.481043
  0
POINT
  8
3
 10
3996.449493
 20
-1422.858269
  0
POINT
  8
3
 10
3996.072562
 20
-1444.558240
  0
POINT
  8
3
 10
3996.124775
 20
-1462.779399
  0
POINT
  8
3
 10
3996.736078
 20
-1486.088050
  0
POINT
  8
3
 10
3996.951356
 20
-1494.296485
  0
POINT
  8
3
 10
3997.544648
 20
-1517.640426
  0
POINT
  8
3
 10
3997.611402
 20
-1538.349287
  0
POINT
  8
3
 10
3997.077653
 20
-1564.659355
  0
POINT
  8
3
 10
3997.069684
 20
-1575.482226
  0
POINT
  8
3
 10
3996.699118
 20
-1591.590800
  0
POINT
  8
3
 10
3995.912667
 20
-1607.142534
  0
POINT
  8
3
 10
3994.832642
 20
-1620.188470
  0
POINT
  8
3
 10
3993.378593
 20
-1632.429279
  0
POINT
  8
3
 10
3991.436746
 20
-1644.642034
  0
POINT
  8
3
 10
3988.948192
 20
-1656.791702
  0
POINT
  8
3
 10
3985.853477
 20
-1668.842154
  0
POINT
  8
3
 10
3983.375855
 20
-1676.953692
  0
POINT
  8
3
 10
3979.908888
 20
-1686.775029
  0
POINT
  8
3
 10
3975.953299
 20
-1696.430793
  0
POINT
  8
3
 10
3971.443594
 20
-1705.984660
  0
POINT
  8
3
 10
3966.476382
 20
-1715.188947
  0
POINT
  8
3
 10
3961.047391
 20
-1724.113351
  0
POINT
  8
3
 10
3955.194177
 20
-1732.753531
  0
POINT
  8
3
 10
3948.953668
 20
-1741.105509
  0
POINT
  8
3
 10
3942.362202
 20
-1749.165509
  0
POINT
  8
3
 10
3934.039564
 20
-1758.446882
  0
POINT
  8
3
 10
3926.036867
 20
-1766.601732
  0
POINT
  8
3
 10
3917.129843
 20
-1774.971394
  0
POINT
  8
3
 10
3907.019028
 20
-1783.811339
  0
POINT
  8
3
 10
3895.555808
 20
-1793.182106
  0
POINT
  8
3
 10
3883.329421
 20
-1802.589220
  0
POINT
  8
3
 10
3871.307516
 20
-1653.831599
  0
TEXT
  8
3
 10
3871.307516
 20
-1653.831599
 40
0.000000
 50
0.000000
  1
# 302
  0
POINT
  8
4
 10
3870.574496
 20
-1663.271878
 30
0.600000
 50
355.56
  0
TEXT
  8
4
 10
3870.574496
 20
-1663.271878
 40
0.000000
 50
0.000000
  1
# 303
  0
POINT
  8
4
 10
3884.151280
 20
-1563.266192
 30
0.600000
 50
350.89
  0
TEXT
  8
4
 10
3884.151280
 20
-1563.266192
 40
0.000000
 50
0.000000
  1
# 304
  0
POINT
  8
4
 10
3897.737830
 20
-1484.094628
 30
0.600000
 50
350.66
  0
TEXT
  8
4
 10
3897.737830
 20
-1484.094628
 40
0.000000
 50
0.000000
  1
# 305
  0
POINT
  8
4
 10
3996.736078
 20
-1486.088050
 30
0.600000
 50
181.50
  0
TEXT
  8
4
 10
3996.736078
 20
-1486.088050
 40
0.000000
 50
0.000000
  1
# 306
  0
POINT
  8
4
 10
3997.077653
 20
-1564.659355
 30
0.600000
 50
180.26
  0
TEXT
  8
4
 10
3997.077653
 20
-1564.659355
 40
0.000000
 50
0.000000
  1
# 307
  0
POLYLINE
  8
8
  66
1
  70
1
  0
VERTEX
  8
8
  10
3878.557739
  20
-1795.447540
  0
VERTEX
  8
8
  10
3877.897684
  20
-1763.698256
  0
VERTEX
  8
8
  10
3877.398387
  20
-1725.763253
  0
VERTEX
  8
8
  10
3877.428702
  20
-1703.502111
  0
VERTEX
  8
8
  10
3877.826758
  20
-1685.708712
  0
VERTEX
  8
8
  10
3878.563690
  20
-1670.165207
  0
VERTEX
  8
8
  10
3878.984070
  20
-1663.924866
  0
VERTEX
  8
8
  10
3879.774533
  20
-1654.489047
  0
VERTEX
  8
8
  10
3879.809120
  20
-1654.123903
  0
VERTEX
  8
8
  10
3881.524827
  20
-1638.660977
  0
VERTEX
  8
8
  10
3884.573084
  20
-1616.629228
  0
VERTEX
  8
8
  10
3892.543945
  20
-1564.612732
  0
VERTEX
  8
8
  10
3892.543945
  20
-1564.612732
  0
VERTEX
  8
8
  10
3896.630320
  20
-1539.142129
  0
VERTEX
  8
8
  10
3905.029858
  20
-1492.131646
  0
VERTEX
  8
8
  10
3906.174011
  20
-1485.481873
  0
VERTEX
  8
8
  10
3907.882484
  20
-1474.782279
  0
VERTEX
  8
8
  10
3909.726676
  20
-1461.166416
  0
VERTEX
  8
8
  10
3911.483473
  20
-1444.144091
  0
VERTEX
  8
8
  10
3912.870142
  20
-1425.322130
  0
VERTEX
  8
8
  10
3913.756714
  20
-1405.792084
  0
VERTEX
  8
8
  10
3988.438416
  20
-1407.928467
  0
VERTEX
  8
8
  10
3987.952484
  20
-1422.632756
  0
VERTEX
  8
8
  10
3987.572801
  20
-1444.494468
  0
VERTEX
  8
8
  10
3987.625645
  20
-1462.900977
  0
VERTEX
  8
8
  10
3988.198853
  20
-1486.311951
  0
VERTEX
  8
8
  10
3988.455434
  20
-1494.559743
  0
VERTEX
  8
8
  10
3989.045740
  20
-1517.776674
  0
VERTEX
  8
8
  10
3989.111708
  20
-1538.277147
  0
VERTEX
  8
8
  10
3988.575134
  20
-1564.697266
  0
VERTEX
  8
8
  10
3988.575134
  20
-1564.697266
  0
VERTEX
  8
8
  10
3988.570128
  20
-1575.395271
  0
VERTEX
  8
8
  10
3988.204656
  20
-1591.284019
  0
VERTEX
  8
8
  10
3987.431371
  20
-1606.578948
  0
VERTEX
  8
8
  10
3986.375188
  20
-1619.339072
  0
VERTEX
  8
8
  10
3984.958400
  20
-1631.267230
  0
VERTEX
  8
8
  10
3983.072585
  20
-1643.128491
  0
VERTEX
  8
8
  10
3980.664064
  20
-1654.888224
  0
VERTEX
  8
8
  10
3977.679162
  20
-1666.511794
  0
VERTEX
  8
8
  10
3975.295151
  20
-1674.316985
  0
VERTEX
  8
8
  10
3971.964800
  20
-1683.751544
  0
VERTEX
  8
8
  10
3968.172562
  20
-1693.008785
  0
VERTEX
  8
8
  10
3963.858030
  20
-1702.149400
  0
VERTEX
  8
8
  10
3959.104860
  20
-1710.956847
  0
VERTEX
  8
8
  10
3953.897784
  20
-1719.516274
  0
VERTEX
  8
8
  10
3948.271235
  20
-1727.821707
  0
VERTEX
  8
8
  10
3942.259651
  20
-1735.867175
  0
VERTEX
  8
8
  10
3935.897468
  20
-1743.646704
  0
VERTEX
  8
8
  10
3927.848542
  20
-1752.622688
  0
VERTEX
  8
8
  10
3920.094787
  20
-1760.523765
  0
VERTEX
  8
8
  10
3911.423702
  20
-1768.671397
  0
VERTEX
  8
8
  10
3901.530713
  20
-1777.320700
  0
VERTEX
  8
8
  10
3890.283637
  20
-1786.514707
  0
VERTEX
  8
8
  10
3878.557739
  20
-1795.447540
  0
SEQEND
  8
8
  0
POINT
  8
2
 10
3878.557739
 20
-1795.447540
  0
TEXT
  8
2
 10
3878.557739
 20
-1795.447540
 40
0.000000
 50
0.000000
  1
# 308
  0
POINT
  8
2
 10
3892.543945
 20
-1564.612732
  0
TEXT
  8
2
 10
3892.543945
 20
-1564.612732
 40
0.000000
 50
0.000000
  1
# 309
  0
POINT
  8
2
 10
3913.756714
 20
-1405.792084
  0
TEXT
  8
2
 10
3913.756714
 20
-1405.792084
 40
0.000000
 50
0.000000
  1
# 310
  0
POINT
  8
2
 10
3988.438416
 20
-1407.928467
  0
TEXT
  8
2
 10
3988.438416
 20
-1407.928467
 40
0.000000
 50
0.000000
  1
# 311
  0
POINT
  8
2
 10
3988.575134
 20
-1564.697266
  0
TEXT
  8
2
 10
3988.575134
 20
-1564.697266
 40
0.000000
 50
0.000000
  1
# 312
  0
POINT
  8
2
 10
3878.557739
 20
-1795.447540
  0
TEXT
  8
2
 10
3878.557739
 20
-1795.447540
 40
0.000000
 50
0.000000
  1
# 313
  0
POINT
  8
3
 10
3877.897684
 20
-1763.698256
  0
POINT
  8
3
 10
3877.398387
 20
-1725.763253
  0
POINT
  8
3
 10
3877.428702
 20
-1703.502111
  0
POINT
  8
3
 10
3877.826758
 20
-1685.708712
  0
POINT
  8
3
 10
3878.563690
 20
-1670.165207
  0
POINT
  8
3
 10
3878.984070
 20
-1663.924866
  0
POINT
  8
3
 10
3879.774533
 20
-1654.489047
  0
POINT
  8
3
 10
3879.809120
 20
-1654.123903
  0
POINT
  8
3
 10
3881.524827
 20
-1638.660977
  0
POINT
  8
3
 10
3884.573084
 20
-1616.629228
  0
POINT
  8
3
 10
3892.543945
 20
-1564.612732
  0
POINT
  8
3
 10
3896.630320
 20
-1539.142129
  0
POINT
  8
3
 10
3905.029858
 20
-1492.131646
  0
POINT
  8
3
 10
3906.174011
 20
-1485.481873
  0
POINT
  8
3
 10
3907.882484
 20
-1474.782279
  0
POINT
  8
3
 10
3909.726676
 20
-1461.166416
  0
POINT
  8
3
 10
3911.483473
 20
-1444.144091
  0
POINT
  8
3
 10
3912.870142
 20
-1425.322130
  0
POINT
  8
3
 10
3987.952484
 20
-1422.632756
  0
POINT
  8
3
 10
3987.572801
 20
-1444.494468
  0
POINT
  8
3
 10
3987.625645
 20
-1462.900977
  0
POINT
  8
3
 10
3988.198853
 20
-1486.311951
  0
POINT
  8
3
 10
3988.455434
 20
-1494.559743
  0
POINT
  8
3
 10
3989.045740
 20
-1517.776674
  0
POINT
  8
3
 10
3989.111708
 20
-1538.277147
  0
POINT
  8
3
 10
3988.575134
 20
-1564.697266
  0
POINT
  8
3
 10
3988.570128
 20
-1575.395271
  0
POINT
  8
3
 10
3988.204656
 20
-1591.284019
  0
POINT
  8
3
 10
3987.431371
 20
-1606.578948
  0
POINT
  8
3
 10
3986.375188
 20
-1619.339072
  0
POINT
  8
3
 10
3984.958400
 20
-1631.267230
  0
POINT
  8
3
 10
3983.072585
 20
-1643.128491
  0
POINT
  8
3
 10
3980.664064
 20
-1654.888224
  0
POINT
  8
3
 10
3977.679162
 20
-1666.511794
  0
POINT
  8
3
 10
3975.295151
 20
-1674.316985
  0
POINT
  8
3
 10
3971.964800
 20
-1683.751544
  0
POINT
  8
3
 10
3968.172562
 20
-1693.008785
  0
POINT
  8
3
 10
3963.858030
 20
-1702.149400
  0
POINT
  8
3
 10
3959.104860
 20
-1710.956847
  0
POINT
  8
3
 10
3953.897784
 20
-1719.516274
  0
POINT
  8
3
 10
3948.271235
 20
-1727.821707
  0
POINT
  8
3
 10
3942.259651
 20
-1735.867175
  0
POINT
  8
3
 10
3935.897468
 20
-1743.646704
  0
POINT
  8
3
 10
3927.848542
 20
-1752.622688
  0
POINT
  8
3
 10
3920.094787
 20
-1760.523765
  0
POINT
  8
3
 10
3911.423702
 20
-1768.671397
  0
POINT
  8
3
 10
3901.530713
 20
-1777.320700
  0
POINT
  8
3
 10
3890.283637
 20
-1786.514707
  0
POINT
  8
3
 10
3879.774533
 20
-1654.489047
  0
TEXT
  8
3
 10
3879.774533
 20
-1654.489047
 40
0.000000
 50
0.000000
  1
# 314
  0
POINT
  8
4
 10
3878.984070
 20
-1663.924866
 30
0.600000
 50
355.79
  0
TEXT
  8
4
 10
3878.984070
 20
-1663.924866
 40
0.000000
 50
0.000000
  1
# 315
  0
POINT
  8
4
 10
3892.543945
 20
-1564.612732
 30
0.600000
 50
351.11
  0
TEXT
  8
4
 10
3892.543945
 20
-1564.612732
 40
0.000000
 50
0.000000
  1
# 316
  0
POINT
  8
4
 10
3906.174011
 20
-1485.481873
 30
0.600000
 50
350.46
  0
TEXT
  8
4
 10
3906.174011
 20
-1485.481873
 40
0.000000
 50
0.000000
  1
# 317
  0
POINT
  8
4
 10
3988.198853
 20
-1486.311951
 30
0.600000
 50
181.76
  0
TEXT
  8
4
 10
3988.198853
 20
-1486.311951
 40
0.000000
 50
0.000000
  1
# 318
  0
POINT
  8
4
 10
3988.575134
 20
-1564.697266
 30
0.600000
 50
180.26
  0
TEXT
  8
4
 10
3988.575134
 20
-1564.697266
 40
0.000000
 50
0.000000
  1
# 319
  0
POLYLINE
  8
11
  66
1
  70
0
  0
VERTEX
  8
1
  10
3879.765625
  20
-1654.878693
  0
VERTEX
  8
1
  10
3981.075134
  20
-1652.019501
  0
SEQEND
  8
11
  0
POINT
  8
2
 10
3879.765625
 20
-1654.878693
  0
TEXT
  8
2
 10
3879.765625
 20
-1654.878693
 40
0.000000
 50
0.000000
  1
# 320
  0
POINT
  8
2
 10
3981.075134
 20
-1652.019501
  0
TEXT
  8
2
 10
3981.075134
 20
-1652.019501
 40
0.000000
 50
0.000000
  1
# 321
  0
POLYLINE
  8
11
  6
2
  66
1
  70
0
  0
VERTEX
  8
1
  10
3987.901306
  20
-1424.920044
  0
VERTEX
  8
1
  10
3912.993469
  20
-1422.777252
  0
SEQEND
  8
11
  0
POINT
  8
2
 10
3987.901306
 20
-1424.920044
  0
TEXT
  8
2
 10
3987.901306
 20
-1424.920044
 40
0.000000
 50
0.000000
  1
# 322
  0
POINT
  8
2
 10
3912.993469
 20
-1422.777252
  0
TEXT
  8
2
 10
3912.993469
 20
-1422.777252
 40
0.000000
 50
0.000000
  1
# 323
  0
POLYLINE
  8
11
  6
2
  66
1
  70
0
  0
VERTEX
  8
1
  10
3987.847900
  20
-1427.919769
  0
VERTEX
  8
1
  10
3912.835388
  20
-1425.773926
  0
SEQEND
  8
11
  0
POINT
  8
2
 10
3987.847900
 20
-1427.919769
  0
TEXT
  8
2
 10
3987.847900
 20
-1427.919769
 40
0.000000
 50
0.000000
  1
# 324
  0
POINT
  8
2
 10
3912.835388
 20
-1425.773926
  0
TEXT
  8
2
 10
3912.835388
 20
-1425.773926
 40
0.000000
 50
0.000000
  1
# 325
  0
POLYLINE
  8
11
  66
1
  70
0
  0
VERTEX
  8
1
  10
3899.187317
  20
-1524.291077
  0
VERTEX
  8
1
  10
3989.118958
  20
-1524.367981
  0
SEQEND
  8
11
  0
POINT
  8
2
 10
3899.187317
 20
-1524.291077
  0
TEXT
  8
2
 10
3899.187317
 20
-1524.291077
 40
0.000000
 50
0.000000
  1
# 326
  0
POINT
  8
2
 10
3989.118958
 20
-1524.367981
  0
TEXT
  8
2
 10
3989.118958
 20
-1524.367981
 40
0.000000
 50
0.000000
  1
# 327
 0
LINE
 8
7
 10
3937.913513
 20
-1524.804230
 11
3937.913513
 21
-1694.787750
  0
TEXT
  8
1
 10
3933.255005
 20
-1599.151840
 40
10.000000
 50
0.000000
  1
PIECE NAME: C2590045莓汁红.左侧片
  0
TEXT
  8
1
 10
3933.255005
 20
-1584.151840
 40
10.000000
 50
0.000000
  1
Size: L
  0
TEXT
  8
1
 10
3933.255005
 20
-1569.151840
 40
10.000000
 50
0.000000
  1
ANNOTATION: 面料B X1
  0
TEXT
  8
1
 10
3933.255005
 20
-1554.151840
 40
10.000000
 50
0.000000
  1
QUANTITY: 1
  0
TEXT
  8
1
 10
3933.255005
 20
-1539.151840
 40
10.000000
 50
0.000000
  1
FABRIC: 面料B
  0
TEXT
  8
1
 10
3933.255005
 20
-1524.151840
 40
10.000000
 50
0.000000
  1
CATEGORY: 左侧片
  0
TEXT
  8
1
 10
3933.255005
 20
-1509.151840
 40
10.000000
 50
0.000000
  1
SHRINKAGE: 经:1.0%，纬:0.0%
0
ENDBLK
0
BLOCK
  8
1
  2
C2590045莓汁红.右侧片_面料B_L
 70
0
 10
0.0
 20
0.0
  0
POLYLINE
  8
1
  66
1
  70
1
  0
VERTEX
  8
1
  10
4784.517533
  20
-1814.780163
  0
VERTEX
  8
1
  10
4771.532639
  20
-1804.612688
  0
VERTEX
  8
1
  10
4759.306252
  20
-1795.205574
  0
VERTEX
  8
1
  10
4747.843032
  20
-1785.834807
  0
VERTEX
  8
1
  10
4737.732218
  20
-1776.994862
  0
VERTEX
  8
1
  10
4728.825193
  20
-1768.625200
  0
VERTEX
  8
1
  10
4720.822496
  20
-1760.470350
  0
VERTEX
  8
1
  10
4712.499859
  20
-1751.188977
  0
VERTEX
  8
1
  10
4705.908392
  20
-1743.128977
  0
VERTEX
  8
1
  10
4699.667884
  20
-1734.776999
  0
VERTEX
  8
1
  10
4693.814670
  20
-1726.136819
  0
VERTEX
  8
1
  10
4688.385679
  20
-1717.212415
  0
VERTEX
  8
1
  10
4683.418467
  20
-1708.008128
  0
VERTEX
  8
1
  10
4680.453946
  20
-1701.727753
  0
VERTEX
  8
1
  10
4678.908762
  20
-1698.454261
  0
VERTEX
  8
1
  10
4674.953172
  20
-1688.798497
  0
VERTEX
  8
1
  10
4671.486205
  20
-1678.977160
  0
VERTEX
  8
1
  10
4669.008583
  20
-1670.865622
  0
VERTEX
  8
1
  10
4665.913868
  20
-1658.815170
  0
VERTEX
  8
1
  10
4663.425315
  20
-1646.665502
  0
VERTEX
  8
1
  10
4661.483468
  20
-1634.452747
  0
VERTEX
  8
1
  10
4660.029418
  20
-1622.211938
  0
VERTEX
  8
1
  10
4658.949394
  20
-1609.166002
  0
VERTEX
  8
1
  10
4658.162942
  20
-1593.614268
  0
VERTEX
  8
1
  10
4657.792377
  20
-1577.505694
  0
VERTEX
  8
1
  10
4657.784408
  20
-1566.682823
  0
VERTEX
  8
1
  10
4657.786970
  20
-1566.809092
  0
VERTEX
  8
1
  10
4657.250659
  20
-1540.372755
  0
VERTEX
  8
1
  10
4657.317412
  20
-1519.663894
  0
VERTEX
  8
1
  10
4657.910704
  20
-1496.319953
  0
VERTEX
  8
1
  10
4658.125982
  20
-1488.111518
  0
VERTEX
  8
1
  10
4658.737285
  20
-1464.802867
  0
VERTEX
  8
1
  10
4658.789499
  20
-1446.581708
  0
VERTEX
  8
1
  10
4658.412568
  20
-1424.881737
  0
VERTEX
  8
1
  10
4657.927036
  20
-1410.194993
  0
VERTEX
  8
1
  10
4657.572188
  20
-1395.504511
  0
VERTEX
  8
1
  10
4657.360922
  20
-1390.203006
  0
VERTEX
  8
1
  10
4749.385739
  20
-1387.570497
  0
VERTEX
  8
1
  10
4749.373977
  20
-1388.290373
  0
VERTEX
  8
1
  10
4749.603059
  20
-1407.572462
  0
VERTEX
  8
1
  10
4750.476636
  20
-1426.836114
  0
VERTEX
  8
1
  10
4751.845842
  20
-1445.422166
  0
VERTEX
  8
1
  10
4753.574923
  20
-1462.177860
  0
VERTEX
  8
1
  10
4755.385201
  20
-1475.542625
  0
VERTEX
  8
1
  10
4757.124231
  20
-1486.118096
  0
VERTEX
  8
1
  10
4758.203878
  20
-1492.683698
  0
VERTEX
  8
1
  10
4766.615211
  20
-1539.762945
  0
VERTEX
  8
1
  10
4770.710781
  20
-1565.289660
  0
VERTEX
  8
1
  10
4770.720042
  20
-1565.348712
  0
VERTEX
  8
1
  10
4778.697449
  20
-1617.408675
  0
VERTEX
  8
1
  10
4781.771674
  20
-1639.630775
  0
VERTEX
  8
1
  10
4783.514731
  20
-1655.342327
  0
VERTEX
  8
1
  10
4783.554545
  20
-1655.855067
  0
VERTEX
  8
1
  10
4784.287565
  20
-1665.295346
  0
VERTEX
  8
1
  10
4784.782480
  20
-1671.669168
  0
VERTEX
  8
1
  10
4785.530221
  20
-1687.438287
  0
VERTEX
  8
1
  10
4785.932803
  20
-1705.428371
  0
VERTEX
  8
1
  10
4785.963482
  20
-1727.843871
  0
VERTEX
  8
1
  10
4785.463039
  20
-1765.872545
  0
VERTEX
  8
1
  10
4784.517533
  20
-1814.780163
  0
SEQEND
  8
1
  0
POINT
  8
2
 10
4784.517533
 20
-1814.780163
  0
TEXT
  8
2
 10
4784.517533
 20
-1814.780163
 40
0.000000
 50
0.000000
  1
# 328
  0
POINT
  8
2
 10
4657.786970
 20
-1566.809092
  0
TEXT
  8
2
 10
4657.786970
 20
-1566.809092
 40
0.000000
 50
0.000000
  1
# 329
  0
POINT
  8
2
 10
4657.927036
 20
-1410.194993
  0
TEXT
  8
2
 10
4657.927036
 20
-1410.194993
 40
0.000000
 50
0.000000
  1
# 330
  0
POINT
  8
2
 10
4657.360922
 20
-1390.203006
  0
TEXT
  8
2
 10
4657.360922
 20
-1390.203006
 40
0.000000
 50
0.000000
  1
# 331
  0
POINT
  8
2
 10
4749.385739
 20
-1387.570497
  0
TEXT
  8
2
 10
4749.385739
 20
-1387.570497
 40
0.000000
 50
0.000000
  1
# 332
  0
POINT
  8
2
 10
4749.603059
 20
-1407.572462
  0
TEXT
  8
2
 10
4749.603059
 20
-1407.572462
 40
0.000000
 50
0.000000
  1
# 333
  0
POINT
  8
2
 10
4770.720042
 20
-1565.348712
  0
TEXT
  8
2
 10
4770.720042
 20
-1565.348712
 40
0.000000
 50
0.000000
  1
# 334
  0
POINT
  8
2
 10
4784.517533
 20
-1814.780163
  0
TEXT
  8
2
 10
4784.517533
 20
-1814.780163
 40
0.000000
 50
0.000000
  1
# 335
  0
POINT
  8
3
 10
4771.532639
 20
-1804.612688
  0
POINT
  8
3
 10
4759.306252
 20
-1795.205574
  0
POINT
  8
3
 10
4747.843032
 20
-1785.834807
  0
POINT
  8
3
 10
4737.732218
 20
-1776.994862
  0
POINT
  8
3
 10
4728.825193
 20
-1768.625200
  0
POINT
  8
3
 10
4720.822496
 20
-1760.470350
  0
POINT
  8
3
 10
4712.499859
 20
-1751.188977
  0
POINT
  8
3
 10
4705.908392
 20
-1743.128977
  0
POINT
  8
3
 10
4699.667884
 20
-1734.776999
  0
POINT
  8
3
 10
4693.814670
 20
-1726.136819
  0
POINT
  8
3
 10
4688.385679
 20
-1717.212415
  0
POINT
  8
3
 10
4683.418467
 20
-1708.008128
  0
POINT
  8
3
 10
4680.453946
 20
-1701.727753
  0
POINT
  8
3
 10
4678.908762
 20
-1698.454261
  0
POINT
  8
3
 10
4674.953172
 20
-1688.798497
  0
POINT
  8
3
 10
4671.486205
 20
-1678.977160
  0
POINT
  8
3
 10
4669.008583
 20
-1670.865622
  0
POINT
  8
3
 10
4665.913868
 20
-1658.815170
  0
POINT
  8
3
 10
4663.425315
 20
-1646.665502
  0
POINT
  8
3
 10
4661.483468
 20
-1634.452747
  0
POINT
  8
3
 10
4660.029418
 20
-1622.211938
  0
POINT
  8
3
 10
4658.949394
 20
-1609.166002
  0
POINT
  8
3
 10
4658.162942
 20
-1593.614268
  0
POINT
  8
3
 10
4657.792377
 20
-1577.505694
  0
POINT
  8
3
 10
4657.784408
 20
-1566.682823
  0
POINT
  8
3
 10
4657.250659
 20
-1540.372755
  0
POINT
  8
3
 10
4657.317412
 20
-1519.663894
  0
POINT
  8
3
 10
4657.910704
 20
-1496.319953
  0
POINT
  8
3
 10
4658.125982
 20
-1488.111518
  0
POINT
  8
3
 10
4658.737285
 20
-1464.802867
  0
POINT
  8
3
 10
4658.789499
 20
-1446.581708
  0
POINT
  8
3
 10
4658.412568
 20
-1424.881737
  0
POINT
  8
3
 10
4657.572188
 20
-1395.504511
  0
POINT
  8
3
 10
4749.373977
 20
-1388.290373
  0
POINT
  8
3
 10
4750.476636
 20
-1426.836114
  0
POINT
  8
3
 10
4751.845842
 20
-1445.422166
  0
POINT
  8
3
 10
4753.574923
 20
-1462.177860
  0
POINT
  8
3
 10
4755.385201
 20
-1475.542625
  0
POINT
  8
3
 10
4757.124231
 20
-1486.118096
  0
POINT
  8
3
 10
4758.203878
 20
-1492.683698
  0
POINT
  8
3
 10
4766.615211
 20
-1539.762945
  0
POINT
  8
3
 10
4770.710781
 20
-1565.289660
  0
POINT
  8
3
 10
4778.697449
 20
-1617.408675
  0
POINT
  8
3
 10
4781.771674
 20
-1639.630775
  0
POINT
  8
3
 10
4783.514731
 20
-1655.342327
  0
POINT
  8
3
 10
4783.554545
 20
-1655.855067
  0
POINT
  8
3
 10
4784.287565
 20
-1665.295346
  0
POINT
  8
3
 10
4784.782480
 20
-1671.669168
  0
POINT
  8
3
 10
4785.530221
 20
-1687.438287
  0
POINT
  8
3
 10
4785.932803
 20
-1705.428371
  0
POINT
  8
3
 10
4785.963482
 20
-1727.843871
  0
POINT
  8
3
 10
4785.463039
 20
-1765.872545
  0
POINT
  8
3
 10
4783.554545
 20
-1655.855067
  0
TEXT
  8
3
 10
4783.554545
 20
-1655.855067
 40
0.000000
 50
0.000000
  1
# 336
  0
POINT
  8
4
 10
4680.453946
 20
-1701.727753
 30
0.600000
 50
 25.27
  0
TEXT
  8
4
 10
4680.453946
 20
-1701.727753
 40
0.000000
 50
0.000000
  1
# 337
  0
POINT
  8
4
 10
4657.784408
 20
-1566.682823
 30
0.600000
 50
359.74
  0
TEXT
  8
4
 10
4657.784408
 20
-1566.682823
 40
0.000000
 50
0.000000
  1
# 338
  0
POINT
  8
4
 10
4658.125982
 20
-1488.111518
 30
0.600000
 50
358.50
  0
TEXT
  8
4
 10
4658.125982
 20
-1488.111518
 40
0.000000
 50
0.000000
  1
# 339
  0
POINT
  8
4
 10
4757.124231
 20
-1486.118096
 30
0.600000
 50
189.34
  0
TEXT
  8
4
 10
4757.124231
 20
-1486.118096
 40
0.000000
 50
0.000000
  1
# 340
  0
POINT
  8
4
 10
4770.710781
 20
-1565.289660
 30
0.600000
 50
189.11
  0
TEXT
  8
4
 10
4770.710781
 20
-1565.289660
 40
0.000000
 50
0.000000
  1
# 341
  0
POINT
  8
4
 10
4784.287565
 20
-1665.295346
 30
0.600000
 50
184.44
  0
TEXT
  8
4
 10
4784.287565
 20
-1665.295346
 40
0.000000
 50
0.000000
  1
# 342
  0
POLYLINE
  8
8
  66
1
  70
1
  0
VERTEX
  8
8
  10
4776.304321
  20
-1797.471008
  0
VERTEX
  8
8
  10
4764.578424
  20
-1788.538175
  0
VERTEX
  8
8
  10
4753.331348
  20
-1779.344168
  0
VERTEX
  8
8
  10
4743.438358
  20
-1770.694865
  0
VERTEX
  8
8
  10
4734.767274
  20
-1762.547233
  0
VERTEX
  8
8
  10
4727.013519
  20
-1754.646156
  0
VERTEX
  8
8
  10
4718.964593
  20
-1745.670172
  0
VERTEX
  8
8
  10
4712.602409
  20
-1737.890643
  0
VERTEX
  8
8
  10
4706.590825
  20
-1729.845175
  0
VERTEX
  8
8
  10
4700.964277
  20
-1721.539742
  0
VERTEX
  8
8
  10
4695.757200
  20
-1712.980315
  0
VERTEX
  8
8
  10
4691.004031
  20
-1704.172868
  0
VERTEX
  8
8
  10
4688.083191
  20
-1698.126526
  0
VERTEX
  8
8
  10
4686.689499
  20
-1695.032253
  0
VERTEX
  8
8
  10
4682.897261
  20
-1685.775012
  0
VERTEX
  8
8
  10
4679.566909
  20
-1676.340453
  0
VERTEX
  8
8
  10
4677.182898
  20
-1668.535262
  0
VERTEX
  8
8
  10
4674.197996
  20
-1656.911692
  0
VERTEX
  8
8
  10
4671.789476
  20
-1645.151959
  0
VERTEX
  8
8
  10
4669.903660
  20
-1633.290698
  0
VERTEX
  8
8
  10
4668.486872
  20
-1621.362540
  0
VERTEX
  8
8
  10
4667.430689
  20
-1608.602416
  0
VERTEX
  8
8
  10
4666.657404
  20
-1593.307487
  0
VERTEX
  8
8
  10
4666.291932
  20
-1577.418739
  0
VERTEX
  8
8
  10
4666.286926
  20
-1566.720734
  0
VERTEX
  8
8
  10
4666.286926
  20
-1566.720734
  0
VERTEX
  8
8
  10
4665.750353
  20
-1540.300615
  0
VERTEX
  8
8
  10
4665.816321
  20
-1519.800142
  0
VERTEX
  8
8
  10
4666.406627
  20
-1496.583211
  0
VERTEX
  8
8
  10
4666.663208
  20
-1488.335419
  0
VERTEX
  8
8
  10
4667.236416
  20
-1464.924445
  0
VERTEX
  8
8
  10
4667.289260
  20
-1446.517936
  0
VERTEX
  8
8
  10
4666.909576
  20
-1424.656224
  0
VERTEX
  8
8
  10
4666.423645
  20
-1409.951935
  0
VERTEX
  8
8
  10
4741.105347
  20
-1407.815552
  0
VERTEX
  8
8
  10
4741.991919
  20
-1427.345598
  0
VERTEX
  8
8
  10
4743.378587
  20
-1446.167559
  0
VERTEX
  8
8
  10
4745.135384
  20
-1463.189884
  0
VERTEX
  8
8
  10
4746.979576
  20
-1476.805747
  0
VERTEX
  8
8
  10
4748.688049
  20
-1487.505341
  0
VERTEX
  8
8
  10
4749.832203
  20
-1494.155114
  0
VERTEX
  8
8
  10
4758.231741
  20
-1541.165597
  0
VERTEX
  8
8
  10
4762.318115
  20
-1566.636200
  0
VERTEX
  8
8
  10
4762.318115
  20
-1566.636200
  0
VERTEX
  8
8
  10
4770.288976
  20
-1618.652696
  0
VERTEX
  8
8
  10
4773.337234
  20
-1640.684445
  0
VERTEX
  8
8
  10
4775.052940
  20
-1656.147371
  0
VERTEX
  8
8
  10
4775.087527
  20
-1656.512515
  0
VERTEX
  8
8
  10
4775.877991
  20
-1665.948334
  0
VERTEX
  8
8
  10
4776.298370
  20
-1672.188675
  0
VERTEX
  8
8
  10
4777.035303
  20
-1687.732180
  0
VERTEX
  8
8
  10
4777.433359
  20
-1705.525579
  0
VERTEX
  8
8
  10
4777.463673
  20
-1727.786721
  0
VERTEX
  8
8
  10
4776.964377
  20
-1765.721724
  0
VERTEX
  8
8
  10
4776.304321
  20
-1797.471008
  0
SEQEND
  8
8
  0
POINT
  8
2
 10
4776.304321
 20
-1797.471008
  0
TEXT
  8
2
 10
4776.304321
 20
-1797.471008
 40
0.000000
 50
0.000000
  1
# 343
  0
POINT
  8
2
 10
4666.286926
 20
-1566.720734
  0
TEXT
  8
2
 10
4666.286926
 20
-1566.720734
 40
0.000000
 50
0.000000
  1
# 344
  0
POINT
  8
2
 10
4666.423645
 20
-1409.951935
  0
TEXT
  8
2
 10
4666.423645
 20
-1409.951935
 40
0.000000
 50
0.000000
  1
# 345
  0
POINT
  8
2
 10
4741.105347
 20
-1407.815552
  0
TEXT
  8
2
 10
4741.105347
 20
-1407.815552
 40
0.000000
 50
0.000000
  1
# 346
  0
POINT
  8
2
 10
4762.318115
 20
-1566.636200
  0
TEXT
  8
2
 10
4762.318115
 20
-1566.636200
 40
0.000000
 50
0.000000
  1
# 347
  0
POINT
  8
2
 10
4776.304321
 20
-1797.471008
  0
TEXT
  8
2
 10
4776.304321
 20
-1797.471008
 40
0.000000
 50
0.000000
  1
# 348
  0
POINT
  8
3
 10
4764.578424
 20
-1788.538175
  0
POINT
  8
3
 10
4753.331348
 20
-1779.344168
  0
POINT
  8
3
 10
4743.438358
 20
-1770.694865
  0
POINT
  8
3
 10
4734.767274
 20
-1762.547233
  0
POINT
  8
3
 10
4727.013519
 20
-1754.646156
  0
POINT
  8
3
 10
4718.964593
 20
-1745.670172
  0
POINT
  8
3
 10
4712.602409
 20
-1737.890643
  0
POINT
  8
3
 10
4706.590825
 20
-1729.845175
  0
POINT
  8
3
 10
4700.964277
 20
-1721.539742
  0
POINT
  8
3
 10
4695.757200
 20
-1712.980315
  0
POINT
  8
3
 10
4691.004031
 20
-1704.172868
  0
POINT
  8
3
 10
4688.083191
 20
-1698.126526
  0
POINT
  8
3
 10
4686.689499
 20
-1695.032253
  0
POINT
  8
3
 10
4682.897261
 20
-1685.775012
  0
POINT
  8
3
 10
4679.566909
 20
-1676.340453
  0
POINT
  8
3
 10
4677.182898
 20
-1668.535262
  0
POINT
  8
3
 10
4674.197996
 20
-1656.911692
  0
POINT
  8
3
 10
4671.789476
 20
-1645.151959
  0
POINT
  8
3
 10
4669.903660
 20
-1633.290698
  0
POINT
  8
3
 10
4668.486872
 20
-1621.362540
  0
POINT
  8
3
 10
4667.430689
 20
-1608.602416
  0
POINT
  8
3
 10
4666.657404
 20
-1593.307487
  0
POINT
  8
3
 10
4666.291932
 20
-1577.418739
  0
POINT
  8
3
 10
4666.286926
 20
-1566.720734
  0
POINT
  8
3
 10
4665.750353
 20
-1540.300615
  0
POINT
  8
3
 10
4665.816321
 20
-1519.800142
  0
POINT
  8
3
 10
4666.406627
 20
-1496.583211
  0
POINT
  8
3
 10
4666.663208
 20
-1488.335419
  0
POINT
  8
3
 10
4667.236416
 20
-1464.924445
  0
POINT
  8
3
 10
4667.289260
 20
-1446.517936
  0
POINT
  8
3
 10
4666.909576
 20
-1424.656224
  0
POINT
  8
3
 10
4741.991919
 20
-1427.345598
  0
POINT
  8
3
 10
4743.378587
 20
-1446.167559
  0
POINT
  8
3
 10
4745.135384
 20
-1463.189884
  0
POINT
  8
3
 10
4746.979576
 20
-1476.805747
  0
POINT
  8
3
 10
4748.688049
 20
-1487.505341
  0
POINT
  8
3
 10
4749.832203
 20
-1494.155114
  0
POINT
  8
3
 10
4758.231741
 20
-1541.165597
  0
POINT
  8
3
 10
4762.318115
 20
-1566.636200
  0
POINT
  8
3
 10
4770.288976
 20
-1618.652696
  0
POINT
  8
3
 10
4773.337234
 20
-1640.684445
  0
POINT
  8
3
 10
4775.052940
 20
-1656.147371
  0
POINT
  8
3
 10
4775.087527
 20
-1656.512515
  0
POINT
  8
3
 10
4775.877991
 20
-1665.948334
  0
POINT
  8
3
 10
4776.298370
 20
-1672.188675
  0
POINT
  8
3
 10
4777.035303
 20
-1687.732180
  0
POINT
  8
3
 10
4777.433359
 20
-1705.525579
  0
POINT
  8
3
 10
4777.463673
 20
-1727.786721
  0
POINT
  8
3
 10
4776.964377
 20
-1765.721724
  0
POINT
  8
3
 10
4775.087527
 20
-1656.512515
  0
TEXT
  8
3
 10
4775.087527
 20
-1656.512515
 40
0.000000
 50
0.000000
  1
# 349
  0
POINT
  8
4
 10
4688.083191
 20
-1698.126526
 30
0.600000
 50
 24.76
  0
TEXT
  8
4
 10
4688.083191
 20
-1698.126526
 40
0.000000
 50
0.000000
  1
# 350
  0
POINT
  8
4
 10
4666.286926
 20
-1566.720734
 30
0.600000
 50
359.74
  0
TEXT
  8
4
 10
4666.286926
 20
-1566.720734
 40
0.000000
 50
0.000000
  1
# 351
  0
POINT
  8
4
 10
4666.663208
 20
-1488.335419
 30
0.600000
 50
358.24
  0
TEXT
  8
4
 10
4666.663208
 20
-1488.335419
 40
0.000000
 50
0.000000
  1
# 352
  0
POINT
  8
4
 10
4748.688049
 20
-1487.505341
 30
0.600000
 50
189.54
  0
TEXT
  8
4
 10
4748.688049
 20
-1487.505341
 40
0.000000
 50
0.000000
  1
# 353
  0
POINT
  8
4
 10
4762.318115
 20
-1566.636200
 30
0.600000
 50
188.89
  0
TEXT
  8
4
 10
4762.318115
 20
-1566.636200
 40
0.000000
 50
0.000000
  1
# 354
  0
POINT
  8
4
 10
4775.877991
 20
-1665.948334
 30
0.600000
 50
184.21
  0
TEXT
  8
4
 10
4775.877991
 20
-1665.948334
 40
0.000000
 50
0.000000
  1
# 355
  0
POLYLINE
  8
11
  66
1
  70
0
  0
VERTEX
  8
1
  10
4775.096436
  20
-1656.902161
  0
VERTEX
  8
1
  10
4673.786926
  20
-1654.042969
  0
SEQEND
  8
11
  0
POINT
  8
2
 10
4775.096436
 20
-1656.902161
  0
TEXT
  8
2
 10
4775.096436
 20
-1656.902161
 40
0.000000
 50
0.000000
  1
# 356
  0
POINT
  8
2
 10
4673.786926
 20
-1654.042969
  0
TEXT
  8
2
 10
4673.786926
 20
-1654.042969
 40
0.000000
 50
0.000000
  1
# 357
  0
POLYLINE
  8
11
  6
2
  66
1
  70
0
  0
VERTEX
  8
1
  10
4666.960754
  20
-1426.943512
  0
VERTEX
  8
1
  10
4741.868591
  20
-1424.800720
  0
SEQEND
  8
11
  0
POINT
  8
2
 10
4666.960754
 20
-1426.943512
  0
TEXT
  8
2
 10
4666.960754
 20
-1426.943512
 40
0.000000
 50
0.000000
  1
# 358
  0
POINT
  8
2
 10
4741.868591
 20
-1424.800720
  0
TEXT
  8
2
 10
4741.868591
 20
-1424.800720
 40
0.000000
 50
0.000000
  1
# 359
  0
POLYLINE
  8
11
  6
2
  66
1
  70
0
  0
VERTEX
  8
1
  10
4667.014160
  20
-1429.943237
  0
VERTEX
  8
1
  10
4742.026672
  20
-1427.797394
  0
SEQEND
  8
11
  0
POINT
  8
2
 10
4667.014160
 20
-1429.943237
  0
TEXT
  8
2
 10
4667.014160
 20
-1429.943237
 40
0.000000
 50
0.000000
  1
# 360
  0
POINT
  8
2
 10
4742.026672
 20
-1427.797394
  0
TEXT
  8
2
 10
4742.026672
 20
-1427.797394
 40
0.000000
 50
0.000000
  1
# 361
  0
POLYLINE
  8
11
  66
1
  70
0
  0
VERTEX
  8
1
  10
4755.674744
  20
-1526.314545
  0
VERTEX
  8
1
  10
4665.743103
  20
-1526.391449
  0
SEQEND
  8
11
  0
POINT
  8
2
 10
4755.674744
 20
-1526.314545
  0
TEXT
  8
2
 10
4755.674744
 20
-1526.314545
 40
0.000000
 50
0.000000
  1
# 362
  0
POINT
  8
2
 10
4665.743103
 20
-1526.391449
  0
TEXT
  8
2
 10
4665.743103
 20
-1526.391449
 40
0.000000
 50
0.000000
  1
# 363
 0
LINE
 8
7
 10
4715.765076
 20
-1533.837433
 11
4715.765076
 21
-1683.943481
  0
TEXT
  8
1
 10
4721.607056
 20
-1601.175308
 40
10.000000
 50
0.000000
  1
PIECE NAME: C2590045莓汁红.右侧片
  0
TEXT
  8
1
 10
4721.607056
 20
-1586.175308
 40
10.000000
 50
0.000000
  1
Size: L
  0
TEXT
  8
1
 10
4721.607056
 20
-1571.175308
 40
10.000000
 50
0.000000
  1
ANNOTATION: 面料B X1
  0
TEXT
  8
1
 10
4721.607056
 20
-1556.175308
 40
10.000000
 50
0.000000
  1
QUANTITY: 1
  0
TEXT
  8
1
 10
4721.607056
 20
-1541.175308
 40
10.000000
 50
0.000000
  1
FABRIC: 面料B
  0
TEXT
  8
1
 10
4721.607056
 20
-1526.175308
 40
10.000000
 50
0.000000
  1
CATEGORY: 右侧片
  0
TEXT
  8
1
 10
4721.607056
 20
-1511.175308
 40
10.000000
 50
0.000000
  1
SHRINKAGE: 经:1.0%，纬:0.0%
0
ENDBLK
  0
ENDSEC
  0
SECTION
  2
ENTITIES
  0
INSERT
  8
1
  2
C2590045莓汁红.领_面料C_L
  10
0.000000
  20
0.000000
  0
INSERT
  8
1
  2
C2590045莓汁红.后片_面料A_L
  10
0.000000
  20
0.000000
  0
INSERT
  8
1
  2
C2590045莓汁红.前片_面料A_L
  10
0.000000
  20
0.000000
  0
INSERT
  8
1
  2
C2590045莓汁红.左侧片_面料B_L
  10
0.000000
  20
0.000000
  0
INSERT
  8
1
  2
C2590045莓汁红.右侧片_面料B_L
  10
0.000000
  20
0.000000
  0
TEXT
  8
1
 10
4836.006622
 20
-2094.406586
 40
10.000000
 50
0.000000
  1
STYLE NAME: C2590045莓汁红
  0
TEXT
  8
1
 10
4836.006622
 20
-2109.406586
 40
10.000000
 50
0.000000
  1
CREATION DATE: 2025/3/24/16/31
  0
TEXT
  8
1
 10
4836.006622
 20
-2124.406586
 40
10.000000
 50
0.000000
  1
AUTHOR: BUYI-TECH
  0
TEXT
  8
1
 10
4836.006622
 20
-2139.406586
 40
10.000000
 50
0.000000
  1
SAMPLE SIZE: L
  0
TEXT
  8
1
 10
4836.006622
 20
-2154.406586
 40
10.000000
 50
0.000000
  1
GRADE RULE TABLE: C2590045
  0
TEXT
  8
1
 10
4836.006622
 20
-2169.406586
 40
10.000000
 50
0.000000
  1
UNITS: METRIC
  0
ENDSEC
  0
EOF
